<?xml version="1.0" encoding="utf-8"?>
<svg xmlns="http://www.w3.org/2000/svg" xmlns:xlink="http://www.w3.org/1999/xlink" width="600" height="400" viewBox="0 0 2400 1600">
<defs>
  <clipPath id="clip150">
    <rect x="0" y="0" width="2400" height="1600"/>
  </clipPath>
</defs>
<path clip-path="url(#clip150)" d="M0 1600 L2400 1600 L2400 0 L0 0  Z" fill="#ffffff" fill-rule="evenodd" fill-opacity="1"/>
<defs>
  <clipPath id="clip151">
    <rect x="262" y="47" width="2091" height="1365"/>
  </clipPath>
</defs>
<path clip-path="url(#clip150)" d="M262.551 1410.9 L2352.76 1410.9 L2352.76 47.2441 L262.551 47.2441  Z" fill="#ffffff" fill-rule="evenodd" fill-opacity="1"/>
<polyline clip-path="url(#clip151)" style="stroke:#000000; stroke-linecap:round; stroke-linejoin:round; stroke-width:2; stroke-opacity:0.1; fill:none" points="596.059,1410.9 596.059,47.2441 "/>
<polyline clip-path="url(#clip151)" style="stroke:#000000; stroke-linecap:round; stroke-linejoin:round; stroke-width:2; stroke-opacity:0.1; fill:none" points="1161.91,1410.9 1161.91,47.2441 "/>
<polyline clip-path="url(#clip151)" style="stroke:#000000; stroke-linecap:round; stroke-linejoin:round; stroke-width:2; stroke-opacity:0.1; fill:none" points="1727.75,1410.9 1727.75,47.2441 "/>
<polyline clip-path="url(#clip151)" style="stroke:#000000; stroke-linecap:round; stroke-linejoin:round; stroke-width:2; stroke-opacity:0.1; fill:none" points="2293.6,1410.9 2293.6,47.2441 "/>
<polyline clip-path="url(#clip151)" style="stroke:#000000; stroke-linecap:round; stroke-linejoin:round; stroke-width:2; stroke-opacity:0.1; fill:none" points="262.551,1182.34 2352.76,1182.34 "/>
<polyline clip-path="url(#clip151)" style="stroke:#000000; stroke-linecap:round; stroke-linejoin:round; stroke-width:2; stroke-opacity:0.1; fill:none" points="262.551,927.934 2352.76,927.934 "/>
<polyline clip-path="url(#clip151)" style="stroke:#000000; stroke-linecap:round; stroke-linejoin:round; stroke-width:2; stroke-opacity:0.1; fill:none" points="262.551,673.524 2352.76,673.524 "/>
<polyline clip-path="url(#clip151)" style="stroke:#000000; stroke-linecap:round; stroke-linejoin:round; stroke-width:2; stroke-opacity:0.1; fill:none" points="262.551,419.115 2352.76,419.115 "/>
<polyline clip-path="url(#clip151)" style="stroke:#000000; stroke-linecap:round; stroke-linejoin:round; stroke-width:2; stroke-opacity:0.1; fill:none" points="262.551,164.705 2352.76,164.705 "/>
<polyline clip-path="url(#clip150)" style="stroke:#000000; stroke-linecap:round; stroke-linejoin:round; stroke-width:4; stroke-opacity:1; fill:none" points="262.551,1410.9 2352.76,1410.9 "/>
<polyline clip-path="url(#clip150)" style="stroke:#000000; stroke-linecap:round; stroke-linejoin:round; stroke-width:4; stroke-opacity:1; fill:none" points="596.059,1410.9 596.059,1392 "/>
<polyline clip-path="url(#clip150)" style="stroke:#000000; stroke-linecap:round; stroke-linejoin:round; stroke-width:4; stroke-opacity:1; fill:none" points="1161.91,1410.9 1161.91,1392 "/>
<polyline clip-path="url(#clip150)" style="stroke:#000000; stroke-linecap:round; stroke-linejoin:round; stroke-width:4; stroke-opacity:1; fill:none" points="1727.75,1410.9 1727.75,1392 "/>
<polyline clip-path="url(#clip150)" style="stroke:#000000; stroke-linecap:round; stroke-linejoin:round; stroke-width:4; stroke-opacity:1; fill:none" points="2293.6,1410.9 2293.6,1392 "/>
<path clip-path="url(#clip150)" d="M507.579 1485.02 L523.898 1485.02 L523.898 1488.96 L501.954 1488.96 L501.954 1485.02 Q504.616 1482.27 509.199 1477.64 Q513.806 1472.98 514.986 1471.64 Q517.232 1469.12 518.111 1467.38 Q519.014 1465.62 519.014 1463.93 Q519.014 1461.18 517.07 1459.44 Q515.148 1457.71 512.046 1457.71 Q509.847 1457.71 507.394 1458.47 Q504.963 1459.23 502.185 1460.79 L502.185 1456.06 Q505.009 1454.93 507.463 1454.35 Q509.917 1453.77 511.954 1453.77 Q517.324 1453.77 520.519 1456.46 Q523.713 1459.14 523.713 1463.63 Q523.713 1465.76 522.903 1467.68 Q522.116 1469.58 520.009 1472.17 Q519.431 1472.85 516.329 1476.06 Q513.227 1479.26 507.579 1485.02 Z" fill="#000000" fill-rule="nonzero" fill-opacity="1" /><path clip-path="url(#clip150)" d="M533.713 1483.08 L538.597 1483.08 L538.597 1488.96 L533.713 1488.96 L533.713 1483.08 Z" fill="#000000" fill-rule="nonzero" fill-opacity="1" /><path clip-path="url(#clip150)" d="M558.782 1457.48 Q555.171 1457.48 553.342 1461.04 Q551.537 1464.58 551.537 1471.71 Q551.537 1478.82 553.342 1482.38 Q555.171 1485.92 558.782 1485.92 Q562.416 1485.92 564.222 1482.38 Q566.051 1478.82 566.051 1471.71 Q566.051 1464.58 564.222 1461.04 Q562.416 1457.48 558.782 1457.48 M558.782 1453.77 Q564.592 1453.77 567.648 1458.38 Q570.727 1462.96 570.727 1471.71 Q570.727 1480.44 567.648 1485.04 Q564.592 1489.63 558.782 1489.63 Q552.972 1489.63 549.893 1485.04 Q546.838 1480.44 546.838 1471.71 Q546.838 1462.96 549.893 1458.38 Q552.972 1453.77 558.782 1453.77 Z" fill="#000000" fill-rule="nonzero" fill-opacity="1" /><path clip-path="url(#clip150)" d="M607.115 1463.49 L596.537 1474.12 L607.115 1484.7 L604.361 1487.5 L593.736 1476.87 L583.111 1487.5 L580.379 1484.7 L590.935 1474.12 L580.379 1463.49 L583.111 1460.69 L593.736 1471.32 L604.361 1460.69 L607.115 1463.49 Z" fill="#000000" fill-rule="nonzero" fill-opacity="1" /><path clip-path="url(#clip150)" d="M619.476 1485.02 L627.115 1485.02 L627.115 1458.66 L618.805 1460.32 L618.805 1456.06 L627.069 1454.4 L631.745 1454.4 L631.745 1485.02 L639.384 1485.02 L639.384 1488.96 L619.476 1488.96 L619.476 1485.02 Z" fill="#000000" fill-rule="nonzero" fill-opacity="1" /><path clip-path="url(#clip150)" d="M658.828 1457.48 Q655.217 1457.48 653.388 1461.04 Q651.583 1464.58 651.583 1471.71 Q651.583 1478.82 653.388 1482.38 Q655.217 1485.92 658.828 1485.92 Q662.462 1485.92 664.268 1482.38 Q666.096 1478.82 666.096 1471.71 Q666.096 1464.58 664.268 1461.04 Q662.462 1457.48 658.828 1457.48 M658.828 1453.77 Q664.638 1453.77 667.694 1458.38 Q670.772 1462.96 670.772 1471.71 Q670.772 1480.44 667.694 1485.04 Q664.638 1489.63 658.828 1489.63 Q653.018 1489.63 649.939 1485.04 Q646.884 1480.44 646.884 1471.71 Q646.884 1462.96 649.939 1458.38 Q653.018 1453.77 658.828 1453.77 Z" fill="#000000" fill-rule="nonzero" fill-opacity="1" /><path clip-path="url(#clip150)" d="M680.797 1445.99 Q678.239 1445.99 676.734 1447.74 Q675.249 1449.49 675.249 1452.54 Q675.249 1455.57 676.734 1457.33 Q678.239 1459.08 680.797 1459.08 Q683.355 1459.08 684.841 1457.33 Q686.345 1455.57 686.345 1452.54 Q686.345 1449.49 684.841 1447.74 Q683.355 1445.99 680.797 1445.99 M688.339 1434.09 L688.339 1437.55 Q686.909 1436.87 685.442 1436.51 Q683.994 1436.16 682.565 1436.16 Q678.803 1436.16 676.81 1438.69 Q674.835 1441.23 674.553 1446.37 Q675.662 1444.73 677.336 1443.87 Q679.01 1442.98 681.023 1442.98 Q685.254 1442.98 687.699 1445.56 Q690.163 1448.12 690.163 1452.54 Q690.163 1456.86 687.605 1459.48 Q685.047 1462.09 680.797 1462.09 Q675.926 1462.09 673.349 1458.37 Q670.772 1454.62 670.772 1447.53 Q670.772 1440.88 673.932 1436.93 Q677.092 1432.96 682.414 1432.96 Q683.844 1432.96 685.292 1433.24 Q686.759 1433.52 688.339 1434.09 Z" fill="#000000" fill-rule="nonzero" fill-opacity="1" /><path clip-path="url(#clip150)" d="M1082.82 1458.47 L1071.02 1476.92 L1082.82 1476.92 L1082.82 1458.47 M1081.6 1454.4 L1087.48 1454.4 L1087.48 1476.92 L1092.41 1476.92 L1092.41 1480.81 L1087.48 1480.81 L1087.48 1488.96 L1082.82 1488.96 L1082.82 1480.81 L1067.22 1480.81 L1067.22 1476.29 L1081.6 1454.4 Z" fill="#000000" fill-rule="nonzero" fill-opacity="1" /><path clip-path="url(#clip150)" d="M1100.14 1483.08 L1105.02 1483.08 L1105.02 1488.96 L1100.14 1488.96 L1100.14 1483.08 Z" fill="#000000" fill-rule="nonzero" fill-opacity="1" /><path clip-path="url(#clip150)" d="M1125.21 1457.48 Q1121.6 1457.48 1119.77 1461.04 Q1117.96 1464.58 1117.96 1471.71 Q1117.96 1478.82 1119.77 1482.38 Q1121.6 1485.92 1125.21 1485.92 Q1128.84 1485.92 1130.65 1482.38 Q1132.48 1478.82 1132.48 1471.71 Q1132.48 1464.58 1130.65 1461.04 Q1128.84 1457.48 1125.21 1457.48 M1125.21 1453.77 Q1131.02 1453.77 1134.07 1458.38 Q1137.15 1462.96 1137.15 1471.71 Q1137.15 1480.44 1134.07 1485.04 Q1131.02 1489.63 1125.21 1489.63 Q1119.4 1489.63 1116.32 1485.04 Q1113.26 1480.44 1113.26 1471.71 Q1113.26 1462.96 1116.32 1458.38 Q1119.4 1453.77 1125.21 1453.77 Z" fill="#000000" fill-rule="nonzero" fill-opacity="1" /><path clip-path="url(#clip150)" d="M1173.54 1463.49 L1162.96 1474.12 L1173.54 1484.7 L1170.79 1487.5 L1160.16 1476.87 L1149.54 1487.5 L1146.8 1484.7 L1157.36 1474.12 L1146.8 1463.49 L1149.54 1460.69 L1160.16 1471.32 L1170.79 1460.69 L1173.54 1463.49 Z" fill="#000000" fill-rule="nonzero" fill-opacity="1" /><path clip-path="url(#clip150)" d="M1185.9 1485.02 L1193.54 1485.02 L1193.54 1458.66 L1185.23 1460.32 L1185.23 1456.06 L1193.49 1454.4 L1198.17 1454.4 L1198.17 1485.02 L1205.81 1485.02 L1205.81 1488.96 L1185.9 1488.96 L1185.9 1485.02 Z" fill="#000000" fill-rule="nonzero" fill-opacity="1" /><path clip-path="url(#clip150)" d="M1225.25 1457.48 Q1221.64 1457.48 1219.81 1461.04 Q1218.01 1464.58 1218.01 1471.71 Q1218.01 1478.82 1219.81 1482.38 Q1221.64 1485.92 1225.25 1485.92 Q1228.89 1485.92 1230.69 1482.38 Q1232.52 1478.82 1232.52 1471.71 Q1232.52 1464.58 1230.69 1461.04 Q1228.89 1457.48 1225.25 1457.48 M1225.25 1453.77 Q1231.06 1453.77 1234.12 1458.38 Q1237.2 1462.96 1237.2 1471.71 Q1237.2 1480.44 1234.12 1485.04 Q1231.06 1489.63 1225.25 1489.63 Q1219.44 1489.63 1216.36 1485.04 Q1213.31 1480.44 1213.31 1471.71 Q1213.31 1462.96 1216.36 1458.38 Q1219.44 1453.77 1225.25 1453.77 Z" fill="#000000" fill-rule="nonzero" fill-opacity="1" /><path clip-path="url(#clip150)" d="M1247.22 1445.99 Q1244.66 1445.99 1243.16 1447.74 Q1241.67 1449.49 1241.67 1452.54 Q1241.67 1455.57 1243.16 1457.33 Q1244.66 1459.08 1247.22 1459.08 Q1249.78 1459.08 1251.27 1457.33 Q1252.77 1455.57 1252.77 1452.54 Q1252.77 1449.49 1251.27 1447.74 Q1249.78 1445.99 1247.22 1445.99 M1254.76 1434.09 L1254.76 1437.55 Q1253.34 1436.87 1251.87 1436.51 Q1250.42 1436.16 1248.99 1436.16 Q1245.23 1436.16 1243.24 1438.69 Q1241.26 1441.23 1240.98 1446.37 Q1242.09 1444.73 1243.76 1443.87 Q1245.44 1442.98 1247.45 1442.98 Q1251.68 1442.98 1254.12 1445.56 Q1256.59 1448.12 1256.59 1452.54 Q1256.59 1456.86 1254.03 1459.48 Q1251.47 1462.09 1247.22 1462.09 Q1242.35 1462.09 1239.77 1458.37 Q1237.2 1454.62 1237.2 1447.53 Q1237.2 1440.88 1240.36 1436.93 Q1243.52 1432.96 1248.84 1432.96 Q1250.27 1432.96 1251.72 1433.24 Q1253.18 1433.52 1254.76 1434.09 Z" fill="#000000" fill-rule="nonzero" fill-opacity="1" /><path clip-path="url(#clip150)" d="M1645.9 1469.81 Q1642.76 1469.81 1640.9 1471.97 Q1639.08 1474.12 1639.08 1477.87 Q1639.08 1481.6 1640.9 1483.77 Q1642.76 1485.92 1645.9 1485.92 Q1649.05 1485.92 1650.88 1483.77 Q1652.73 1481.6 1652.73 1477.87 Q1652.73 1474.12 1650.88 1471.97 Q1649.05 1469.81 1645.9 1469.81 M1655.19 1455.16 L1655.19 1459.42 Q1653.43 1458.59 1651.62 1458.15 Q1649.84 1457.71 1648.08 1457.71 Q1643.45 1457.71 1641 1460.83 Q1638.57 1463.96 1638.22 1470.28 Q1639.59 1468.26 1641.65 1467.2 Q1643.71 1466.11 1646.18 1466.11 Q1651.39 1466.11 1654.4 1469.28 Q1657.43 1472.43 1657.43 1477.87 Q1657.43 1483.19 1654.28 1486.41 Q1651.14 1489.63 1645.9 1489.63 Q1639.91 1489.63 1636.74 1485.04 Q1633.57 1480.44 1633.57 1471.71 Q1633.57 1463.52 1637.46 1458.66 Q1641.34 1453.77 1647.9 1453.77 Q1649.65 1453.77 1651.44 1454.12 Q1653.24 1454.47 1655.19 1455.16 Z" fill="#000000" fill-rule="nonzero" fill-opacity="1" /><path clip-path="url(#clip150)" d="M1665.49 1483.08 L1670.37 1483.08 L1670.37 1488.96 L1665.49 1488.96 L1665.49 1483.08 Z" fill="#000000" fill-rule="nonzero" fill-opacity="1" /><path clip-path="url(#clip150)" d="M1690.56 1457.48 Q1686.95 1457.48 1685.12 1461.04 Q1683.31 1464.58 1683.31 1471.71 Q1683.31 1478.82 1685.12 1482.38 Q1686.95 1485.92 1690.56 1485.92 Q1694.19 1485.92 1696 1482.38 Q1697.83 1478.82 1697.83 1471.71 Q1697.83 1464.58 1696 1461.04 Q1694.19 1457.48 1690.56 1457.48 M1690.56 1453.77 Q1696.37 1453.77 1699.42 1458.38 Q1702.5 1462.96 1702.5 1471.71 Q1702.5 1480.44 1699.42 1485.04 Q1696.37 1489.63 1690.56 1489.63 Q1684.75 1489.63 1681.67 1485.04 Q1678.61 1480.44 1678.61 1471.71 Q1678.61 1462.96 1681.67 1458.38 Q1684.75 1453.77 1690.56 1453.77 Z" fill="#000000" fill-rule="nonzero" fill-opacity="1" /><path clip-path="url(#clip150)" d="M1738.89 1463.49 L1728.31 1474.12 L1738.89 1484.7 L1736.14 1487.5 L1725.51 1476.87 L1714.89 1487.5 L1712.15 1484.7 L1722.71 1474.12 L1712.15 1463.49 L1714.89 1460.69 L1725.51 1471.32 L1736.14 1460.69 L1738.89 1463.49 Z" fill="#000000" fill-rule="nonzero" fill-opacity="1" /><path clip-path="url(#clip150)" d="M1751.25 1485.02 L1758.89 1485.02 L1758.89 1458.66 L1750.58 1460.32 L1750.58 1456.06 L1758.84 1454.4 L1763.52 1454.4 L1763.52 1485.02 L1771.16 1485.02 L1771.16 1488.96 L1751.25 1488.96 L1751.25 1485.02 Z" fill="#000000" fill-rule="nonzero" fill-opacity="1" /><path clip-path="url(#clip150)" d="M1790.6 1457.48 Q1786.99 1457.48 1785.16 1461.04 Q1783.36 1464.58 1783.36 1471.71 Q1783.36 1478.82 1785.16 1482.38 Q1786.99 1485.92 1790.6 1485.92 Q1794.24 1485.92 1796.04 1482.38 Q1797.87 1478.82 1797.87 1471.71 Q1797.87 1464.58 1796.04 1461.04 Q1794.24 1457.48 1790.6 1457.48 M1790.6 1453.77 Q1796.41 1453.77 1799.47 1458.38 Q1802.55 1462.96 1802.55 1471.71 Q1802.55 1480.44 1799.47 1485.04 Q1796.41 1489.63 1790.6 1489.63 Q1784.79 1489.63 1781.71 1485.04 Q1778.66 1480.44 1778.66 1471.71 Q1778.66 1462.96 1781.71 1458.38 Q1784.79 1453.77 1790.6 1453.77 Z" fill="#000000" fill-rule="nonzero" fill-opacity="1" /><path clip-path="url(#clip150)" d="M1812.57 1445.99 Q1810.01 1445.99 1808.51 1447.74 Q1807.02 1449.49 1807.02 1452.54 Q1807.02 1455.57 1808.51 1457.33 Q1810.01 1459.08 1812.57 1459.08 Q1815.13 1459.08 1816.62 1457.33 Q1818.12 1455.57 1818.12 1452.54 Q1818.12 1449.49 1816.62 1447.74 Q1815.13 1445.99 1812.57 1445.99 M1820.11 1434.09 L1820.11 1437.55 Q1818.68 1436.87 1817.22 1436.51 Q1815.77 1436.16 1814.34 1436.16 Q1810.58 1436.16 1808.58 1438.69 Q1806.61 1441.23 1806.33 1446.37 Q1807.44 1444.73 1809.11 1443.87 Q1810.78 1442.98 1812.8 1442.98 Q1817.03 1442.98 1819.47 1445.56 Q1821.94 1448.12 1821.94 1452.54 Q1821.94 1456.86 1819.38 1459.48 Q1816.82 1462.09 1812.57 1462.09 Q1807.7 1462.09 1805.12 1458.37 Q1802.55 1454.62 1802.55 1447.53 Q1802.55 1440.88 1805.71 1436.93 Q1808.87 1432.96 1814.19 1432.96 Q1815.62 1432.96 1817.07 1433.24 Q1818.53 1433.52 1820.11 1434.09 Z" fill="#000000" fill-rule="nonzero" fill-opacity="1" /><path clip-path="url(#clip150)" d="M2211.22 1472.54 Q2207.89 1472.54 2205.96 1474.33 Q2204.07 1476.11 2204.07 1479.23 Q2204.07 1482.36 2205.96 1484.14 Q2207.89 1485.92 2211.22 1485.92 Q2214.55 1485.92 2216.47 1484.14 Q2218.39 1482.34 2218.39 1479.23 Q2218.39 1476.11 2216.47 1474.33 Q2214.58 1472.54 2211.22 1472.54 M2206.54 1470.55 Q2203.53 1469.81 2201.84 1467.75 Q2200.18 1465.69 2200.18 1462.73 Q2200.18 1458.59 2203.12 1456.18 Q2206.08 1453.77 2211.22 1453.77 Q2216.38 1453.77 2219.32 1456.18 Q2222.26 1458.59 2222.26 1462.73 Q2222.26 1465.69 2220.57 1467.75 Q2218.9 1469.81 2215.92 1470.55 Q2219.3 1471.34 2221.17 1473.63 Q2223.07 1475.92 2223.07 1479.23 Q2223.07 1484.26 2219.99 1486.94 Q2216.94 1489.63 2211.22 1489.63 Q2205.5 1489.63 2202.42 1486.94 Q2199.37 1484.26 2199.37 1479.23 Q2199.37 1475.92 2201.27 1473.63 Q2203.16 1471.34 2206.54 1470.55 M2204.83 1463.17 Q2204.83 1465.85 2206.5 1467.36 Q2208.19 1468.86 2211.22 1468.86 Q2214.23 1468.86 2215.92 1467.36 Q2217.63 1465.85 2217.63 1463.17 Q2217.63 1460.48 2215.92 1458.98 Q2214.23 1457.48 2211.22 1457.48 Q2208.19 1457.48 2206.5 1458.98 Q2204.83 1460.48 2204.83 1463.17 Z" fill="#000000" fill-rule="nonzero" fill-opacity="1" /><path clip-path="url(#clip150)" d="M2231.38 1483.08 L2236.27 1483.08 L2236.27 1488.96 L2231.38 1488.96 L2231.38 1483.08 Z" fill="#000000" fill-rule="nonzero" fill-opacity="1" /><path clip-path="url(#clip150)" d="M2256.45 1457.48 Q2252.84 1457.48 2251.01 1461.04 Q2249.2 1464.58 2249.2 1471.71 Q2249.2 1478.82 2251.01 1482.38 Q2252.84 1485.92 2256.45 1485.92 Q2260.08 1485.92 2261.89 1482.38 Q2263.72 1478.82 2263.72 1471.71 Q2263.72 1464.58 2261.89 1461.04 Q2260.08 1457.48 2256.45 1457.48 M2256.45 1453.77 Q2262.26 1453.77 2265.32 1458.38 Q2268.39 1462.96 2268.39 1471.71 Q2268.39 1480.44 2265.32 1485.04 Q2262.26 1489.63 2256.45 1489.63 Q2250.64 1489.63 2247.56 1485.04 Q2244.51 1480.44 2244.51 1471.71 Q2244.51 1462.96 2247.56 1458.38 Q2250.64 1453.77 2256.45 1453.77 Z" fill="#000000" fill-rule="nonzero" fill-opacity="1" /><path clip-path="url(#clip150)" d="M2304.78 1463.49 L2294.2 1474.12 L2304.78 1484.7 L2302.03 1487.5 L2291.4 1476.87 L2280.78 1487.5 L2278.05 1484.7 L2288.6 1474.12 L2278.05 1463.49 L2280.78 1460.69 L2291.4 1471.32 L2302.03 1460.69 L2304.78 1463.49 Z" fill="#000000" fill-rule="nonzero" fill-opacity="1" /><path clip-path="url(#clip150)" d="M2317.14 1485.02 L2324.78 1485.02 L2324.78 1458.66 L2316.47 1460.32 L2316.47 1456.06 L2324.74 1454.4 L2329.41 1454.4 L2329.41 1485.02 L2337.05 1485.02 L2337.05 1488.96 L2317.14 1488.96 L2317.14 1485.02 Z" fill="#000000" fill-rule="nonzero" fill-opacity="1" /><path clip-path="url(#clip150)" d="M2356.5 1457.48 Q2352.88 1457.48 2351.06 1461.04 Q2349.25 1464.58 2349.25 1471.71 Q2349.25 1478.82 2351.06 1482.38 Q2352.88 1485.92 2356.5 1485.92 Q2360.13 1485.92 2361.94 1482.38 Q2363.76 1478.82 2363.76 1471.71 Q2363.76 1464.58 2361.94 1461.04 Q2360.13 1457.48 2356.5 1457.48 M2356.5 1453.77 Q2362.31 1453.77 2365.36 1458.38 Q2368.44 1462.96 2368.44 1471.71 Q2368.44 1480.44 2365.36 1485.04 Q2362.31 1489.63 2356.5 1489.63 Q2350.69 1489.63 2347.61 1485.04 Q2344.55 1480.44 2344.55 1471.71 Q2344.55 1462.96 2347.61 1458.38 Q2350.69 1453.77 2356.5 1453.77 Z" fill="#000000" fill-rule="nonzero" fill-opacity="1" /><path clip-path="url(#clip150)" d="M2378.46 1445.99 Q2375.91 1445.99 2374.4 1447.74 Q2372.92 1449.49 2372.92 1452.54 Q2372.92 1455.57 2374.4 1457.33 Q2375.91 1459.08 2378.46 1459.08 Q2381.02 1459.08 2382.51 1457.33 Q2384.01 1455.57 2384.01 1452.54 Q2384.01 1449.49 2382.51 1447.74 Q2381.02 1445.99 2378.46 1445.99 M2386.01 1434.09 L2386.01 1437.55 Q2384.58 1436.87 2383.11 1436.51 Q2381.66 1436.16 2380.23 1436.16 Q2376.47 1436.16 2374.48 1438.69 Q2372.5 1441.23 2372.22 1446.37 Q2373.33 1444.73 2375 1443.87 Q2376.68 1442.98 2378.69 1442.98 Q2382.92 1442.98 2385.37 1445.56 Q2387.83 1448.12 2387.83 1452.54 Q2387.83 1456.86 2385.27 1459.48 Q2382.72 1462.09 2378.46 1462.09 Q2373.59 1462.09 2371.02 1458.37 Q2368.44 1454.62 2368.44 1447.53 Q2368.44 1440.88 2371.6 1436.93 Q2374.76 1432.96 2380.08 1432.96 Q2381.51 1432.96 2382.96 1433.24 Q2384.43 1433.52 2386.01 1434.09 Z" fill="#000000" fill-rule="nonzero" fill-opacity="1" /><path clip-path="url(#clip150)" d="M1234.85 1545.51 L1225.58 1545.51 L1222.91 1556.14 L1232.24 1556.14 L1234.85 1545.51 M1230.07 1527.4 L1226.76 1540.61 L1236.06 1540.61 L1239.4 1527.4 L1244.49 1527.4 L1241.21 1540.61 L1251.14 1540.61 L1251.14 1545.51 L1239.97 1545.51 L1237.36 1556.14 L1247.48 1556.14 L1247.48 1561.01 L1236.12 1561.01 L1232.81 1574.19 L1227.72 1574.19 L1230.99 1561.01 L1221.67 1561.01 L1218.39 1574.19 L1213.27 1574.19 L1216.58 1561.01 L1206.55 1561.01 L1206.55 1556.14 L1217.75 1556.14 L1220.43 1545.51 L1210.18 1545.51 L1210.18 1540.61 L1221.67 1540.61 L1224.92 1527.4 L1230.07 1527.4 Z" fill="#000000" fill-rule="nonzero" fill-opacity="1" /><path clip-path="url(#clip150)" d="M1298.12 1530.33 L1298.12 1537.11 Q1294.87 1534.08 1291.18 1532.59 Q1287.52 1531.09 1283.38 1531.09 Q1275.24 1531.09 1270.91 1536.09 Q1266.58 1541.05 1266.58 1550.47 Q1266.58 1559.86 1270.91 1564.86 Q1275.24 1569.82 1283.38 1569.82 Q1287.52 1569.82 1291.18 1568.33 Q1294.87 1566.83 1298.12 1563.81 L1298.12 1570.53 Q1294.75 1572.82 1290.96 1573.96 Q1287.2 1575.11 1283 1575.11 Q1272.21 1575.11 1266.01 1568.52 Q1259.8 1561.9 1259.8 1550.47 Q1259.8 1539.01 1266.01 1532.43 Q1272.21 1525.81 1283 1525.81 Q1287.27 1525.81 1291.02 1526.95 Q1294.81 1528.07 1298.12 1530.33 Z" fill="#000000" fill-rule="nonzero" fill-opacity="1" /><path clip-path="url(#clip150)" d="M1338.29 1554.9 L1338.29 1557.76 L1311.36 1557.76 Q1311.74 1563.81 1314.99 1566.99 Q1318.27 1570.14 1324.09 1570.14 Q1327.47 1570.14 1330.62 1569.32 Q1333.8 1568.49 1336.92 1566.83 L1336.92 1572.37 Q1333.77 1573.71 1330.46 1574.41 Q1327.15 1575.11 1323.74 1575.11 Q1315.21 1575.11 1310.22 1570.14 Q1305.25 1565.18 1305.25 1556.71 Q1305.25 1547.96 1309.96 1542.83 Q1314.7 1537.68 1322.72 1537.68 Q1329.92 1537.68 1334.09 1542.33 Q1338.29 1546.94 1338.29 1554.9 M1332.43 1553.18 Q1332.37 1548.37 1329.73 1545.51 Q1327.12 1542.64 1322.79 1542.64 Q1317.89 1542.64 1314.93 1545.41 Q1312 1548.18 1311.55 1553.21 L1332.43 1553.18 Z" fill="#000000" fill-rule="nonzero" fill-opacity="1" /><path clip-path="url(#clip150)" d="M1347.9 1524.66 L1353.76 1524.66 L1353.76 1574.19 L1347.9 1574.19 L1347.9 1524.66 Z" fill="#000000" fill-rule="nonzero" fill-opacity="1" /><path clip-path="url(#clip150)" d="M1366.01 1524.66 L1371.87 1524.66 L1371.87 1574.19 L1366.01 1574.19 L1366.01 1524.66 Z" fill="#000000" fill-rule="nonzero" fill-opacity="1" /><path clip-path="url(#clip150)" d="M1406.85 1539.59 L1406.85 1545.13 Q1404.36 1543.85 1401.69 1543.22 Q1399.02 1542.58 1396.15 1542.58 Q1391.79 1542.58 1389.6 1543.92 Q1387.43 1545.25 1387.43 1547.93 Q1387.43 1549.96 1388.99 1551.14 Q1390.55 1552.29 1395.26 1553.34 L1397.27 1553.78 Q1403.51 1555.12 1406.12 1557.57 Q1408.76 1559.99 1408.76 1564.35 Q1408.76 1569.32 1404.81 1572.21 Q1400.9 1575.11 1394.02 1575.11 Q1391.16 1575.11 1388.04 1574.54 Q1384.95 1573.99 1381.51 1572.88 L1381.51 1566.83 Q1384.76 1568.52 1387.91 1569.38 Q1391.06 1570.21 1394.15 1570.21 Q1398.29 1570.21 1400.51 1568.81 Q1402.74 1567.37 1402.74 1564.8 Q1402.74 1562.41 1401.12 1561.14 Q1399.53 1559.86 1394.08 1558.68 L1392.05 1558.21 Q1386.6 1557.06 1384.19 1554.71 Q1381.77 1552.32 1381.77 1548.18 Q1381.77 1543.15 1385.33 1540.42 Q1388.9 1537.68 1395.45 1537.68 Q1398.7 1537.68 1401.56 1538.16 Q1404.43 1538.63 1406.85 1539.59 Z" fill="#000000" fill-rule="nonzero" fill-opacity="1" /><polyline clip-path="url(#clip150)" style="stroke:#000000; stroke-linecap:round; stroke-linejoin:round; stroke-width:4; stroke-opacity:1; fill:none" points="262.551,1410.9 262.551,47.2441 "/>
<polyline clip-path="url(#clip150)" style="stroke:#000000; stroke-linecap:round; stroke-linejoin:round; stroke-width:4; stroke-opacity:1; fill:none" points="262.551,1182.34 281.449,1182.34 "/>
<polyline clip-path="url(#clip150)" style="stroke:#000000; stroke-linecap:round; stroke-linejoin:round; stroke-width:4; stroke-opacity:1; fill:none" points="262.551,927.934 281.449,927.934 "/>
<polyline clip-path="url(#clip150)" style="stroke:#000000; stroke-linecap:round; stroke-linejoin:round; stroke-width:4; stroke-opacity:1; fill:none" points="262.551,673.524 281.449,673.524 "/>
<polyline clip-path="url(#clip150)" style="stroke:#000000; stroke-linecap:round; stroke-linejoin:round; stroke-width:4; stroke-opacity:1; fill:none" points="262.551,419.115 281.449,419.115 "/>
<polyline clip-path="url(#clip150)" style="stroke:#000000; stroke-linecap:round; stroke-linejoin:round; stroke-width:4; stroke-opacity:1; fill:none" points="262.551,164.705 281.449,164.705 "/>
<path clip-path="url(#clip150)" d="M158.45 1180.99 Q161.806 1181.71 163.681 1183.98 Q165.579 1186.24 165.579 1189.58 Q165.579 1194.69 162.061 1197.49 Q158.542 1200.29 152.061 1200.29 Q149.885 1200.29 147.57 1199.85 Q145.279 1199.44 142.825 1198.58 L142.825 1194.07 Q144.769 1195.2 147.084 1195.78 Q149.399 1196.36 151.922 1196.36 Q156.32 1196.36 158.612 1194.62 Q160.927 1192.89 160.927 1189.58 Q160.927 1186.52 158.774 1184.81 Q156.644 1183.07 152.825 1183.07 L148.797 1183.07 L148.797 1179.23 L153.01 1179.23 Q156.459 1179.23 158.288 1177.86 Q160.116 1176.48 160.116 1173.88 Q160.116 1171.22 158.218 1169.81 Q156.343 1168.37 152.825 1168.37 Q150.903 1168.37 148.704 1168.79 Q146.505 1169.21 143.866 1170.09 L143.866 1165.92 Q146.529 1165.18 148.843 1164.81 Q151.181 1164.44 153.241 1164.44 Q158.565 1164.44 161.667 1166.87 Q164.769 1169.28 164.769 1173.4 Q164.769 1176.27 163.126 1178.26 Q161.482 1180.23 158.45 1180.99 Z" fill="#000000" fill-rule="nonzero" fill-opacity="1" /><path clip-path="url(#clip150)" d="M184.445 1168.14 Q180.834 1168.14 179.005 1171.71 Q177.2 1175.25 177.2 1182.38 Q177.2 1189.48 179.005 1193.05 Q180.834 1196.59 184.445 1196.59 Q188.079 1196.59 189.885 1193.05 Q191.713 1189.48 191.713 1182.38 Q191.713 1175.25 189.885 1171.71 Q188.079 1168.14 184.445 1168.14 M184.445 1164.44 Q190.255 1164.44 193.311 1169.04 Q196.389 1173.63 196.389 1182.38 Q196.389 1191.11 193.311 1195.71 Q190.255 1200.29 184.445 1200.29 Q178.635 1200.29 175.556 1195.71 Q172.501 1191.11 172.501 1182.38 Q172.501 1173.63 175.556 1169.04 Q178.635 1164.44 184.445 1164.44 Z" fill="#000000" fill-rule="nonzero" fill-opacity="1" /><path clip-path="url(#clip150)" d="M214.607 1168.14 Q210.996 1168.14 209.167 1171.71 Q207.362 1175.25 207.362 1182.38 Q207.362 1189.48 209.167 1193.05 Q210.996 1196.59 214.607 1196.59 Q218.241 1196.59 220.047 1193.05 Q221.875 1189.48 221.875 1182.38 Q221.875 1175.25 220.047 1171.71 Q218.241 1168.14 214.607 1168.14 M214.607 1164.44 Q220.417 1164.44 223.473 1169.04 Q226.551 1173.63 226.551 1182.38 Q226.551 1191.11 223.473 1195.71 Q220.417 1200.29 214.607 1200.29 Q208.797 1200.29 205.718 1195.71 Q202.662 1191.11 202.662 1182.38 Q202.662 1173.63 205.718 1169.04 Q208.797 1164.44 214.607 1164.44 Z" fill="#000000" fill-rule="nonzero" fill-opacity="1" /><path clip-path="url(#clip150)" d="M154.862 926.07 Q151.714 926.07 149.862 928.223 Q148.033 930.376 148.033 934.126 Q148.033 937.853 149.862 940.029 Q151.714 942.182 154.862 942.182 Q158.01 942.182 159.839 940.029 Q161.69 937.853 161.69 934.126 Q161.69 930.376 159.839 928.223 Q158.01 926.07 154.862 926.07 M164.144 911.418 L164.144 915.677 Q162.385 914.844 160.579 914.404 Q158.797 913.964 157.038 913.964 Q152.408 913.964 149.954 917.089 Q147.524 920.214 147.177 926.533 Q148.542 924.52 150.603 923.455 Q152.663 922.367 155.14 922.367 Q160.348 922.367 163.357 925.538 Q166.39 928.686 166.39 934.126 Q166.39 939.45 163.241 942.668 Q160.093 945.885 154.862 945.885 Q148.866 945.885 145.695 941.302 Q142.524 936.695 142.524 927.969 Q142.524 919.774 146.413 914.913 Q150.302 910.029 156.853 910.029 Q158.612 910.029 160.394 910.376 Q162.2 910.723 164.144 911.418 Z" fill="#000000" fill-rule="nonzero" fill-opacity="1" /><path clip-path="url(#clip150)" d="M184.445 913.733 Q180.834 913.733 179.005 917.297 Q177.2 920.839 177.2 927.969 Q177.2 935.075 179.005 938.64 Q180.834 942.182 184.445 942.182 Q188.079 942.182 189.885 938.64 Q191.713 935.075 191.713 927.969 Q191.713 920.839 189.885 917.297 Q188.079 913.733 184.445 913.733 M184.445 910.029 Q190.255 910.029 193.311 914.635 Q196.389 919.219 196.389 927.969 Q196.389 936.695 193.311 941.302 Q190.255 945.885 184.445 945.885 Q178.635 945.885 175.556 941.302 Q172.501 936.695 172.501 927.969 Q172.501 919.219 175.556 914.635 Q178.635 910.029 184.445 910.029 Z" fill="#000000" fill-rule="nonzero" fill-opacity="1" /><path clip-path="url(#clip150)" d="M214.607 913.733 Q210.996 913.733 209.167 917.297 Q207.362 920.839 207.362 927.969 Q207.362 935.075 209.167 938.64 Q210.996 942.182 214.607 942.182 Q218.241 942.182 220.047 938.64 Q221.875 935.075 221.875 927.969 Q221.875 920.839 220.047 917.297 Q218.241 913.733 214.607 913.733 M214.607 910.029 Q220.417 910.029 223.473 914.635 Q226.551 919.219 226.551 927.969 Q226.551 936.695 223.473 941.302 Q220.417 945.885 214.607 945.885 Q208.797 945.885 205.718 941.302 Q202.662 936.695 202.662 927.969 Q202.662 919.219 205.718 914.635 Q208.797 910.029 214.607 910.029 Z" fill="#000000" fill-rule="nonzero" fill-opacity="1" /><path clip-path="url(#clip150)" d="M144.422 690.087 L144.422 685.827 Q146.181 686.661 147.987 687.101 Q149.792 687.54 151.528 687.54 Q156.158 687.54 158.589 684.439 Q161.042 681.314 161.39 674.971 Q160.047 676.962 157.987 678.027 Q155.927 679.091 153.427 679.091 Q148.241 679.091 145.209 675.966 Q142.2 672.818 142.2 667.378 Q142.2 662.054 145.348 658.837 Q148.496 655.619 153.728 655.619 Q159.723 655.619 162.871 660.226 Q166.042 664.809 166.042 673.559 Q166.042 681.73 162.153 686.614 Q158.288 691.476 151.737 691.476 Q149.978 691.476 148.172 691.128 Q146.366 690.781 144.422 690.087 M153.728 675.434 Q156.876 675.434 158.704 673.281 Q160.556 671.128 160.556 667.378 Q160.556 663.652 158.704 661.499 Q156.876 659.323 153.728 659.323 Q150.579 659.323 148.728 661.499 Q146.899 663.652 146.899 667.378 Q146.899 671.128 148.728 673.281 Q150.579 675.434 153.728 675.434 Z" fill="#000000" fill-rule="nonzero" fill-opacity="1" /><path clip-path="url(#clip150)" d="M184.445 659.323 Q180.834 659.323 179.005 662.888 Q177.2 666.429 177.2 673.559 Q177.2 680.665 179.005 684.23 Q180.834 687.772 184.445 687.772 Q188.079 687.772 189.885 684.23 Q191.713 680.665 191.713 673.559 Q191.713 666.429 189.885 662.888 Q188.079 659.323 184.445 659.323 M184.445 655.619 Q190.255 655.619 193.311 660.226 Q196.389 664.809 196.389 673.559 Q196.389 682.286 193.311 686.892 Q190.255 691.476 184.445 691.476 Q178.635 691.476 175.556 686.892 Q172.501 682.286 172.501 673.559 Q172.501 664.809 175.556 660.226 Q178.635 655.619 184.445 655.619 Z" fill="#000000" fill-rule="nonzero" fill-opacity="1" /><path clip-path="url(#clip150)" d="M214.607 659.323 Q210.996 659.323 209.167 662.888 Q207.362 666.429 207.362 673.559 Q207.362 680.665 209.167 684.23 Q210.996 687.772 214.607 687.772 Q218.241 687.772 220.047 684.23 Q221.875 680.665 221.875 673.559 Q221.875 666.429 220.047 662.888 Q218.241 659.323 214.607 659.323 M214.607 655.619 Q220.417 655.619 223.473 660.226 Q226.551 664.809 226.551 673.559 Q226.551 682.286 223.473 686.892 Q220.417 691.476 214.607 691.476 Q208.797 691.476 205.718 686.892 Q202.662 682.286 202.662 673.559 Q202.662 664.809 205.718 660.226 Q208.797 655.619 214.607 655.619 Z" fill="#000000" fill-rule="nonzero" fill-opacity="1" /><path clip-path="url(#clip150)" d="M114.931 432.459 L122.57 432.459 L122.57 406.094 L114.26 407.761 L114.26 403.501 L122.524 401.835 L127.2 401.835 L127.2 432.459 L134.839 432.459 L134.839 436.395 L114.931 436.395 L114.931 432.459 Z" fill="#000000" fill-rule="nonzero" fill-opacity="1" /><path clip-path="url(#clip150)" d="M148.311 432.459 L164.63 432.459 L164.63 436.395 L142.686 436.395 L142.686 432.459 Q145.348 429.705 149.931 425.075 Q154.538 420.423 155.718 419.08 Q157.964 416.557 158.843 414.821 Q159.746 413.061 159.746 411.372 Q159.746 408.617 157.802 406.881 Q155.88 405.145 152.778 405.145 Q150.579 405.145 148.126 405.909 Q145.695 406.673 142.917 408.223 L142.917 403.501 Q145.741 402.367 148.195 401.788 Q150.649 401.21 152.686 401.21 Q158.056 401.21 161.251 403.895 Q164.445 406.58 164.445 411.071 Q164.445 413.2 163.635 415.122 Q162.848 417.02 160.741 419.612 Q160.163 420.284 157.061 423.501 Q153.959 426.696 148.311 432.459 Z" fill="#000000" fill-rule="nonzero" fill-opacity="1" /><path clip-path="url(#clip150)" d="M184.445 404.913 Q180.834 404.913 179.005 408.478 Q177.2 412.02 177.2 419.149 Q177.2 426.256 179.005 429.821 Q180.834 433.362 184.445 433.362 Q188.079 433.362 189.885 429.821 Q191.713 426.256 191.713 419.149 Q191.713 412.02 189.885 408.478 Q188.079 404.913 184.445 404.913 M184.445 401.21 Q190.255 401.21 193.311 405.816 Q196.389 410.399 196.389 419.149 Q196.389 427.876 193.311 432.483 Q190.255 437.066 184.445 437.066 Q178.635 437.066 175.556 432.483 Q172.501 427.876 172.501 419.149 Q172.501 410.399 175.556 405.816 Q178.635 401.21 184.445 401.21 Z" fill="#000000" fill-rule="nonzero" fill-opacity="1" /><path clip-path="url(#clip150)" d="M214.607 404.913 Q210.996 404.913 209.167 408.478 Q207.362 412.02 207.362 419.149 Q207.362 426.256 209.167 429.821 Q210.996 433.362 214.607 433.362 Q218.241 433.362 220.047 429.821 Q221.875 426.256 221.875 419.149 Q221.875 412.02 220.047 408.478 Q218.241 404.913 214.607 404.913 M214.607 401.21 Q220.417 401.21 223.473 405.816 Q226.551 410.399 226.551 419.149 Q226.551 427.876 223.473 432.483 Q220.417 437.066 214.607 437.066 Q208.797 437.066 205.718 432.483 Q202.662 427.876 202.662 419.149 Q202.662 410.399 205.718 405.816 Q208.797 401.21 214.607 401.21 Z" fill="#000000" fill-rule="nonzero" fill-opacity="1" /><path clip-path="url(#clip150)" d="M114.931 178.05 L122.57 178.05 L122.57 151.684 L114.26 153.351 L114.26 149.092 L122.524 147.425 L127.2 147.425 L127.2 178.05 L134.839 178.05 L134.839 181.985 L114.931 181.985 L114.931 178.05 Z" fill="#000000" fill-rule="nonzero" fill-opacity="1" /><path clip-path="url(#clip150)" d="M144.329 147.425 L162.686 147.425 L162.686 151.36 L148.612 151.36 L148.612 159.832 Q149.63 159.485 150.649 159.323 Q151.667 159.138 152.686 159.138 Q158.473 159.138 161.852 162.309 Q165.232 165.48 165.232 170.897 Q165.232 176.476 161.76 179.578 Q158.288 182.656 151.968 182.656 Q149.792 182.656 147.524 182.286 Q145.279 181.916 142.871 181.175 L142.871 176.476 Q144.954 177.61 147.177 178.166 Q149.399 178.721 151.876 178.721 Q155.88 178.721 158.218 176.615 Q160.556 174.508 160.556 170.897 Q160.556 167.286 158.218 165.18 Q155.88 163.073 151.876 163.073 Q150.001 163.073 148.126 163.49 Q146.274 163.906 144.329 164.786 L144.329 147.425 Z" fill="#000000" fill-rule="nonzero" fill-opacity="1" /><path clip-path="url(#clip150)" d="M184.445 150.504 Q180.834 150.504 179.005 154.069 Q177.2 157.61 177.2 164.74 Q177.2 171.846 179.005 175.411 Q180.834 178.953 184.445 178.953 Q188.079 178.953 189.885 175.411 Q191.713 171.846 191.713 164.74 Q191.713 157.61 189.885 154.069 Q188.079 150.504 184.445 150.504 M184.445 146.8 Q190.255 146.8 193.311 151.406 Q196.389 155.99 196.389 164.74 Q196.389 173.467 193.311 178.073 Q190.255 182.656 184.445 182.656 Q178.635 182.656 175.556 178.073 Q172.501 173.467 172.501 164.74 Q172.501 155.99 175.556 151.406 Q178.635 146.8 184.445 146.8 Z" fill="#000000" fill-rule="nonzero" fill-opacity="1" /><path clip-path="url(#clip150)" d="M214.607 150.504 Q210.996 150.504 209.167 154.069 Q207.362 157.61 207.362 164.74 Q207.362 171.846 209.167 175.411 Q210.996 178.953 214.607 178.953 Q218.241 178.953 220.047 175.411 Q221.875 171.846 221.875 164.74 Q221.875 157.61 220.047 154.069 Q218.241 150.504 214.607 150.504 M214.607 146.8 Q220.417 146.8 223.473 151.406 Q226.551 155.99 226.551 164.74 Q226.551 173.467 223.473 178.073 Q220.417 182.656 214.607 182.656 Q208.797 182.656 205.718 178.073 Q202.662 173.467 202.662 164.74 Q202.662 155.99 205.718 151.406 Q208.797 146.8 214.607 146.8 Z" fill="#000000" fill-rule="nonzero" fill-opacity="1" /><path clip-path="url(#clip150)" d="M22.818 1035.98 L46.4666 1044.7 L46.4666 1027.22 L22.818 1035.98 M16.4842 1039.61 L16.4842 1032.32 L64.0042 1014.21 L64.0042 1020.89 L51.8138 1025.22 L51.8138 1046.64 L64.0042 1050.97 L64.0042 1057.75 L16.4842 1039.61 Z" fill="#000000" fill-rule="nonzero" fill-opacity="1" /><path clip-path="url(#clip150)" d="M29.4065 984.797 L34.9447 984.797 Q33.6716 987.279 33.035 989.953 Q32.3984 992.627 32.3984 995.491 Q32.3984 999.852 33.7352 1002.05 Q35.072 1004.21 37.7456 1004.21 Q39.7826 1004.21 40.9603 1002.65 Q42.1061 1001.09 43.1565 996.382 L43.6021 994.377 Q44.9389 988.139 47.3897 985.529 Q49.8086 982.887 54.1691 982.887 Q59.1344 982.887 62.0308 986.834 Q64.9272 990.749 64.9272 997.624 Q64.9272 1000.49 64.3543 1003.61 Q63.8132 1006.69 62.6992 1010.13 L56.6518 1010.13 Q58.3387 1006.89 59.198 1003.73 Q60.0256 1000.58 60.0256 997.496 Q60.0256 993.359 58.6251 991.131 Q57.1929 988.903 54.6147 988.903 Q52.2276 988.903 50.9545 990.526 Q49.6813 992.117 48.5037 997.56 L48.0262 999.597 Q46.8804 1005.04 44.5251 1007.46 Q42.138 1009.88 38.0002 1009.88 Q32.9713 1009.88 30.2341 1006.31 Q27.4968 1002.75 27.4968 996.191 Q27.4968 992.945 27.9743 990.08 Q28.4517 987.216 29.4065 984.797 Z" fill="#000000" fill-rule="nonzero" fill-opacity="1" /><path clip-path="url(#clip150)" d="M29.4065 950.836 L34.9447 950.836 Q33.6716 953.318 33.035 955.992 Q32.3984 958.665 32.3984 961.53 Q32.3984 965.891 33.7352 968.087 Q35.072 970.251 37.7456 970.251 Q39.7826 970.251 40.9603 968.691 Q42.1061 967.132 43.1565 962.421 L43.6021 960.416 Q44.9389 954.178 47.3897 951.568 Q49.8086 948.926 54.1691 948.926 Q59.1344 948.926 62.0308 952.873 Q64.9272 956.788 64.9272 963.663 Q64.9272 966.527 64.3543 969.646 Q63.8132 972.734 62.6992 976.171 L56.6518 976.171 Q58.3387 972.925 59.198 969.774 Q60.0256 966.623 60.0256 963.535 Q60.0256 959.398 58.6251 957.17 Q57.1929 954.942 54.6147 954.942 Q52.2276 954.942 50.9545 956.565 Q49.6813 958.156 48.5037 963.599 L48.0262 965.636 Q46.8804 971.079 44.5251 973.498 Q42.138 975.917 38.0002 975.917 Q32.9713 975.917 30.2341 972.352 Q27.4968 968.787 27.4968 962.23 Q27.4968 958.984 27.9743 956.119 Q28.4517 953.255 29.4065 950.836 Z" fill="#000000" fill-rule="nonzero" fill-opacity="1" /><path clip-path="url(#clip150)" d="M44.7161 909.108 L47.5806 909.108 L47.5806 936.035 Q53.6281 935.653 56.8109 932.407 Q59.9619 929.129 59.9619 923.304 Q59.9619 919.93 59.1344 916.779 Q58.3069 913.596 56.6518 910.477 L62.1899 910.477 Q63.5267 913.628 64.227 916.938 Q64.9272 920.248 64.9272 923.654 Q64.9272 932.184 59.9619 937.181 Q54.9967 942.146 46.5303 942.146 Q37.7774 942.146 32.6531 937.436 Q27.4968 932.693 27.4968 924.673 Q27.4968 917.479 32.1438 913.31 Q36.7589 909.108 44.7161 909.108 M42.9973 914.965 Q38.1912 915.029 35.3266 917.67 Q32.4621 920.28 32.4621 924.609 Q32.4621 929.511 35.2312 932.471 Q38.0002 935.399 43.0292 935.844 L42.9973 914.965 Z" fill="#000000" fill-rule="nonzero" fill-opacity="1" /><path clip-path="url(#clip150)" d="M35.1993 871.742 Q31.2526 869.546 29.3747 866.49 Q27.4968 863.435 27.4968 859.297 Q27.4968 853.727 31.4117 850.703 Q35.2948 847.679 42.4881 847.679 L64.0042 847.679 L64.0042 853.568 L42.679 853.568 Q37.5546 853.568 35.072 855.382 Q32.5894 857.196 32.5894 860.92 Q32.5894 865.472 35.6131 868.113 Q38.6368 870.755 43.8567 870.755 L64.0042 870.755 L64.0042 876.643 L42.679 876.643 Q37.5228 876.643 35.072 878.458 Q32.5894 880.272 32.5894 884.059 Q32.5894 888.547 35.6449 891.189 Q38.6686 893.831 43.8567 893.831 L64.0042 893.831 L64.0042 899.719 L28.3562 899.719 L28.3562 893.831 L33.8944 893.831 Q30.616 891.826 29.0564 889.025 Q27.4968 886.224 27.4968 882.372 Q27.4968 878.489 29.4702 875.784 Q31.4436 873.047 35.1993 871.742 Z" fill="#000000" fill-rule="nonzero" fill-opacity="1" /><path clip-path="url(#clip150)" d="M46.212 810.408 Q39.7508 810.408 36.0905 813.082 Q32.3984 815.724 32.3984 820.371 Q32.3984 825.017 36.0905 827.691 Q39.7508 830.333 46.212 830.333 Q52.6732 830.333 56.3653 827.691 Q60.0256 825.017 60.0256 820.371 Q60.0256 815.724 56.3653 813.082 Q52.6732 810.408 46.212 810.408 M33.7671 830.333 Q30.5842 828.487 29.0564 825.686 Q27.4968 822.853 27.4968 818.938 Q27.4968 812.445 32.6531 808.403 Q37.8093 804.329 46.212 804.329 Q54.6147 804.329 59.771 808.403 Q64.9272 812.445 64.9272 818.938 Q64.9272 822.853 63.3994 825.686 Q61.8398 828.487 58.657 830.333 L64.0042 830.333 L64.0042 836.221 L14.479 836.221 L14.479 830.333 L33.7671 830.333 Z" fill="#000000" fill-rule="nonzero" fill-opacity="1" /><path clip-path="url(#clip150)" d="M14.479 794.621 L14.479 788.765 L64.0042 788.765 L64.0042 794.621 L14.479 794.621 Z" fill="#000000" fill-rule="nonzero" fill-opacity="1" /><path clip-path="url(#clip150)" d="M67.3143 761.679 Q73.68 764.161 75.6216 766.517 Q77.5631 768.872 77.5631 772.819 L77.5631 777.497 L72.6615 777.497 L72.6615 774.06 Q72.6615 771.641 71.5157 770.304 Q70.3699 768.967 66.1048 767.344 L63.4312 766.294 L28.3562 780.712 L28.3562 774.506 L56.238 763.366 L28.3562 752.226 L28.3562 746.019 L67.3143 761.679 Z" fill="#000000" fill-rule="nonzero" fill-opacity="1" /><path clip-path="url(#clip150)" d="M16.4842 723.548 L16.4842 683.349 L21.895 683.349 L21.895 700.218 L64.0042 700.218 L64.0042 706.679 L21.895 706.679 L21.895 723.548 L16.4842 723.548 Z" fill="#000000" fill-rule="nonzero" fill-opacity="1" /><path clip-path="url(#clip150)" d="M28.3562 679.402 L28.3562 673.545 L64.0042 673.545 L64.0042 679.402 L28.3562 679.402 M14.479 679.402 L14.479 673.545 L21.895 673.545 L21.895 679.402 L14.479 679.402 Z" fill="#000000" fill-rule="nonzero" fill-opacity="1" /><path clip-path="url(#clip150)" d="M35.1993 633.537 Q31.2526 631.341 29.3747 628.285 Q27.4968 625.23 27.4968 621.092 Q27.4968 615.522 31.4117 612.498 Q35.2948 609.475 42.4881 609.475 L64.0042 609.475 L64.0042 615.363 L42.679 615.363 Q37.5546 615.363 35.072 617.177 Q32.5894 618.991 32.5894 622.715 Q32.5894 627.267 35.6131 629.909 Q38.6368 632.55 43.8567 632.55 L64.0042 632.55 L64.0042 638.439 L42.679 638.439 Q37.5228 638.439 35.072 640.253 Q32.5894 642.067 32.5894 645.855 Q32.5894 650.342 35.6449 652.984 Q38.6686 655.626 43.8567 655.626 L64.0042 655.626 L64.0042 661.514 L28.3562 661.514 L28.3562 655.626 L33.8944 655.626 Q30.616 653.621 29.0564 650.82 Q27.4968 648.019 27.4968 644.168 Q27.4968 640.285 29.4702 637.579 Q31.4436 634.842 35.1993 633.537 Z" fill="#000000" fill-rule="nonzero" fill-opacity="1" /><path clip-path="url(#clip150)" d="M44.7161 567.302 L47.5806 567.302 L47.5806 594.229 Q53.6281 593.847 56.8109 590.6 Q59.9619 587.322 59.9619 581.497 Q59.9619 578.124 59.1344 574.973 Q58.3069 571.79 56.6518 568.67 L62.1899 568.67 Q63.5267 571.822 64.227 575.132 Q64.9272 578.442 64.9272 581.847 Q64.9272 590.378 59.9619 595.375 Q54.9967 600.34 46.5303 600.34 Q37.7774 600.34 32.6531 595.629 Q27.4968 590.887 27.4968 582.866 Q27.4968 575.673 32.1438 571.503 Q36.7589 567.302 44.7161 567.302 M42.9973 573.158 Q38.1912 573.222 35.3266 575.864 Q32.4621 578.474 32.4621 582.802 Q32.4621 587.704 35.2312 590.664 Q38.0002 593.592 43.0292 594.038 L42.9973 573.158 Z" fill="#000000" fill-rule="nonzero" fill-opacity="1" /><path clip-path="url(#clip150)" d="M14.5426 522.901 Q21.8632 527.166 29.0246 529.235 Q36.186 531.304 43.5384 531.304 Q50.8908 531.304 58.1159 529.235 Q65.3091 527.134 72.5979 522.901 L72.5979 527.994 Q65.1182 532.768 57.8931 535.155 Q50.668 537.51 43.5384 537.51 Q36.4406 537.51 29.2474 535.155 Q22.0542 532.8 14.5426 527.994 L14.5426 522.901 Z" fill="#000000" fill-rule="nonzero" fill-opacity="1" /><path clip-path="url(#clip150)" d="M35.1993 483.784 Q31.2526 481.588 29.3747 478.532 Q27.4968 475.477 27.4968 471.339 Q27.4968 465.769 31.4117 462.745 Q35.2948 459.721 42.4881 459.721 L64.0042 459.721 L64.0042 465.61 L42.679 465.61 Q37.5546 465.61 35.072 467.424 Q32.5894 469.238 32.5894 472.962 Q32.5894 477.514 35.6131 480.155 Q38.6368 482.797 43.8567 482.797 L64.0042 482.797 L64.0042 488.685 L42.679 488.685 Q37.5228 488.685 35.072 490.5 Q32.5894 492.314 32.5894 496.101 Q32.5894 500.589 35.6449 503.231 Q38.6686 505.873 43.8567 505.873 L64.0042 505.873 L64.0042 511.761 L28.3562 511.761 L28.3562 505.873 L33.8944 505.873 Q30.616 503.868 29.0564 501.067 Q27.4968 498.266 27.4968 494.415 Q27.4968 490.531 29.4702 487.826 Q31.4436 485.089 35.1993 483.784 Z" fill="#000000" fill-rule="nonzero" fill-opacity="1" /><path clip-path="url(#clip150)" d="M29.4065 425.315 L34.9447 425.315 Q33.6716 427.797 33.035 430.471 Q32.3984 433.145 32.3984 436.009 Q32.3984 440.37 33.7352 442.566 Q35.072 444.73 37.7456 444.73 Q39.7826 444.73 40.9603 443.171 Q42.1061 441.611 43.1565 436.9 L43.6021 434.895 Q44.9389 428.657 47.3897 426.047 Q49.8086 423.405 54.1691 423.405 Q59.1344 423.405 62.0308 427.352 Q64.9272 431.267 64.9272 438.142 Q64.9272 441.006 64.3543 444.125 Q63.8132 447.213 62.6992 450.65 L56.6518 450.65 Q58.3387 447.404 59.198 444.253 Q60.0256 441.102 60.0256 438.014 Q60.0256 433.877 58.6251 431.649 Q57.1929 429.421 54.6147 429.421 Q52.2276 429.421 50.9545 431.044 Q49.6813 432.635 48.5037 438.078 L48.0262 440.115 Q46.8804 445.558 44.5251 447.977 Q42.138 450.396 38.0002 450.396 Q32.9713 450.396 30.2341 446.831 Q27.4968 443.266 27.4968 436.709 Q27.4968 433.463 27.9743 430.598 Q28.4517 427.734 29.4065 425.315 Z" fill="#000000" fill-rule="nonzero" fill-opacity="1" /><path clip-path="url(#clip150)" d="M14.5426 415.002 L14.5426 409.91 Q22.0542 405.135 29.2474 402.78 Q36.4406 400.393 43.5384 400.393 Q50.668 400.393 57.8931 402.78 Q65.1182 405.135 72.5979 409.91 L72.5979 415.002 Q65.3091 410.769 58.1159 408.7 Q50.8908 406.6 43.5384 406.6 Q36.186 406.6 29.0246 408.7 Q21.8632 410.769 14.5426 415.002 Z" fill="#000000" fill-rule="nonzero" fill-opacity="1" /><circle clip-path="url(#clip151)" cx="321.708" cy="1372.3" r="14.4" fill="#009af9" fill-rule="evenodd" fill-opacity="1" stroke="#000000" stroke-opacity="1" stroke-width="3.2"/>
<circle clip-path="url(#clip151)" cx="1874.13" cy="962.703" r="14.4" fill="#009af9" fill-rule="evenodd" fill-opacity="1" stroke="#000000" stroke-opacity="1" stroke-width="3.2"/>
<circle clip-path="url(#clip151)" cx="2293.6" cy="852.459" r="14.4" fill="#009af9" fill-rule="evenodd" fill-opacity="1" stroke="#000000" stroke-opacity="1" stroke-width="3.2"/>
<circle clip-path="url(#clip151)" cx="321.708" cy="1353.74" r="14.4" fill="#e26f46" fill-rule="evenodd" fill-opacity="1" stroke="#000000" stroke-opacity="1" stroke-width="3.2"/>
<circle clip-path="url(#clip151)" cx="1874.13" cy="593.19" r="14.4" fill="#e26f46" fill-rule="evenodd" fill-opacity="1" stroke="#000000" stroke-opacity="1" stroke-width="3.2"/>
<circle clip-path="url(#clip151)" cx="2293.6" cy="85.838" r="14.4" fill="#e26f46" fill-rule="evenodd" fill-opacity="1" stroke="#000000" stroke-opacity="1" stroke-width="3.2"/>
<circle clip-path="url(#clip151)" cx="321.708" cy="1311.24" r="14.4" fill="#3da44d" fill-rule="evenodd" fill-opacity="1" stroke="#000000" stroke-opacity="1" stroke-width="3.2"/>
<circle clip-path="url(#clip151)" cx="1874.13" cy="800.729" r="14.4" fill="#3da44d" fill-rule="evenodd" fill-opacity="1" stroke="#000000" stroke-opacity="1" stroke-width="3.2"/>
<circle clip-path="url(#clip151)" cx="2293.6" cy="497.134" r="14.4" fill="#3da44d" fill-rule="evenodd" fill-opacity="1" stroke="#000000" stroke-opacity="1" stroke-width="3.2"/>
<path clip-path="url(#clip150)" d="M332.225 300.059 L1416.29 300.059 L1416.29 92.6992 L332.225 92.6992  Z" fill="#ffffff" fill-rule="evenodd" fill-opacity="1"/>
<polyline clip-path="url(#clip150)" style="stroke:#000000; stroke-linecap:round; stroke-linejoin:round; stroke-width:4; stroke-opacity:1; fill:none" points="332.225,300.059 1416.29,300.059 1416.29,92.6992 332.225,92.6992 332.225,300.059 "/>
<circle clip-path="url(#clip150)" cx="425.123" cy="144.539" r="20.48" fill="#009af9" fill-rule="evenodd" fill-opacity="1" stroke="#000000" stroke-opacity="1" stroke-width="4.55111"/>
<path clip-path="url(#clip150)" d="M525.127 127.259 L529.803 127.259 L529.803 159.412 Q529.803 165.662 527.419 168.486 Q525.058 171.31 519.803 171.31 L518.021 171.31 L518.021 167.375 L519.479 167.375 Q522.581 167.375 523.854 165.639 Q525.127 163.903 525.127 159.412 L525.127 127.259 Z" fill="#000000" fill-rule="nonzero" fill-opacity="1" /><path clip-path="url(#clip150)" d="M538.484 151.588 L538.484 135.893 L542.743 135.893 L542.743 151.426 Q542.743 155.106 544.178 156.958 Q545.613 158.787 548.483 158.787 Q551.933 158.787 553.923 156.588 Q555.937 154.389 555.937 150.592 L555.937 135.893 L560.196 135.893 L560.196 161.819 L555.937 161.819 L555.937 157.838 Q554.386 160.199 552.326 161.356 Q550.289 162.49 547.581 162.49 Q543.113 162.49 540.798 159.713 Q538.484 156.935 538.484 151.588 M549.201 135.268 L549.201 135.268 Z" fill="#000000" fill-rule="nonzero" fill-opacity="1" /><path clip-path="url(#clip150)" d="M568.969 125.801 L573.229 125.801 L573.229 161.819 L568.969 161.819 L568.969 125.801 Z" fill="#000000" fill-rule="nonzero" fill-opacity="1" /><path clip-path="url(#clip150)" d="M582.141 135.893 L586.4 135.893 L586.4 161.819 L582.141 161.819 L582.141 135.893 M582.141 125.801 L586.4 125.801 L586.4 131.194 L582.141 131.194 L582.141 125.801 Z" fill="#000000" fill-rule="nonzero" fill-opacity="1" /><path clip-path="url(#clip150)" d="M607.094 148.787 Q601.932 148.787 599.942 149.967 Q597.951 151.148 597.951 153.995 Q597.951 156.264 599.432 157.606 Q600.937 158.926 603.506 158.926 Q607.048 158.926 609.178 156.426 Q611.33 153.903 611.33 149.736 L611.33 148.787 L607.094 148.787 M615.59 147.028 L615.59 161.819 L611.33 161.819 L611.33 157.884 Q609.872 160.245 607.696 161.379 Q605.52 162.49 602.372 162.49 Q598.391 162.49 596.03 160.268 Q593.692 158.023 593.692 154.273 Q593.692 149.898 596.608 147.676 Q599.548 145.454 605.358 145.454 L611.33 145.454 L611.33 145.037 Q611.33 142.097 609.386 140.5 Q607.465 138.879 603.969 138.879 Q601.747 138.879 599.641 139.412 Q597.534 139.944 595.59 141.009 L595.59 137.074 Q597.928 136.171 600.127 135.731 Q602.326 135.268 604.409 135.268 Q610.034 135.268 612.812 138.185 Q615.59 141.102 615.59 147.028 Z" fill="#000000" fill-rule="nonzero" fill-opacity="1" /><path clip-path="url(#clip150)" d="M649.663 125.847 Q646.562 131.171 645.057 136.38 Q643.552 141.588 643.552 146.935 Q643.552 152.282 645.057 157.537 Q646.585 162.768 649.663 168.069 L645.96 168.069 Q642.488 162.629 640.752 157.375 Q639.039 152.12 639.039 146.935 Q639.039 141.773 640.752 136.542 Q642.464 131.31 645.96 125.847 L649.663 125.847 Z" fill="#000000" fill-rule="nonzero" fill-opacity="1" /><path clip-path="url(#clip150)" d="M671.052 125.801 L671.052 129.343 L666.978 129.343 Q664.687 129.343 663.784 130.268 Q662.904 131.194 662.904 133.602 L662.904 135.893 L669.918 135.893 L669.918 139.204 L662.904 139.204 L662.904 161.819 L658.622 161.819 L658.622 139.204 L654.548 139.204 L654.548 135.893 L658.622 135.893 L658.622 134.088 Q658.622 129.759 660.636 127.792 Q662.65 125.801 667.025 125.801 L671.052 125.801 Z" fill="#000000" fill-rule="nonzero" fill-opacity="1" /><path clip-path="url(#clip150)" d="M674.617 135.893 L678.876 135.893 L678.876 161.819 L674.617 161.819 L674.617 135.893 M674.617 125.801 L678.876 125.801 L678.876 131.194 L674.617 131.194 L674.617 125.801 Z" fill="#000000" fill-rule="nonzero" fill-opacity="1" /><path clip-path="url(#clip150)" d="M709.339 135.893 L699.964 148.509 L709.825 161.819 L704.802 161.819 L697.256 151.634 L689.71 161.819 L684.686 161.819 L694.756 148.254 L685.543 135.893 L690.566 135.893 L697.441 145.129 L704.316 135.893 L709.339 135.893 Z" fill="#000000" fill-rule="nonzero" fill-opacity="1" /><path clip-path="url(#clip150)" d="M736.561 147.791 L736.561 149.875 L716.978 149.875 Q717.256 154.273 719.617 156.588 Q722.001 158.879 726.237 158.879 Q728.691 158.879 730.983 158.278 Q733.297 157.676 735.566 156.472 L735.566 160.5 Q733.274 161.472 730.867 161.981 Q728.459 162.49 725.983 162.49 Q719.779 162.49 716.145 158.879 Q712.534 155.268 712.534 149.111 Q712.534 142.745 715.959 139.018 Q719.408 135.268 725.242 135.268 Q730.473 135.268 733.506 138.648 Q736.561 142.004 736.561 147.791 M732.302 146.541 Q732.256 143.046 730.334 140.963 Q728.436 138.879 725.288 138.879 Q721.723 138.879 719.571 140.893 Q717.441 142.907 717.117 146.565 L732.302 146.541 Z" fill="#000000" fill-rule="nonzero" fill-opacity="1" /><path clip-path="url(#clip150)" d="M760.612 139.829 L760.612 125.801 L764.871 125.801 L764.871 161.819 L760.612 161.819 L760.612 157.93 Q759.269 160.245 757.209 161.379 Q755.172 162.49 752.302 162.49 Q747.603 162.49 744.64 158.74 Q741.7 154.991 741.7 148.879 Q741.7 142.768 744.64 139.018 Q747.603 135.268 752.302 135.268 Q755.172 135.268 757.209 136.403 Q759.269 137.514 760.612 139.829 M746.098 148.879 Q746.098 153.578 748.019 156.264 Q749.964 158.926 753.343 158.926 Q756.723 158.926 758.668 156.264 Q760.612 153.578 760.612 148.879 Q760.612 144.18 758.668 141.518 Q756.723 138.833 753.343 138.833 Q749.964 138.833 748.019 141.518 Q746.098 144.18 746.098 148.879 Z" fill="#000000" fill-rule="nonzero" fill-opacity="1" /><path clip-path="url(#clip150)" d="M809.616 128.393 L809.616 132.954 Q806.954 131.68 804.593 131.055 Q802.232 130.43 800.033 130.43 Q796.214 130.43 794.13 131.912 Q792.07 133.393 792.07 136.125 Q792.07 138.417 793.436 139.597 Q794.825 140.754 798.667 141.472 L801.491 142.051 Q806.723 143.046 809.2 145.569 Q811.7 148.069 811.7 152.282 Q811.7 157.305 808.32 159.898 Q804.964 162.49 798.459 162.49 Q796.005 162.49 793.228 161.935 Q790.473 161.379 787.51 160.291 L787.51 155.477 Q790.357 157.074 793.089 157.884 Q795.82 158.694 798.459 158.694 Q802.464 158.694 804.64 157.12 Q806.815 155.546 806.815 152.629 Q806.815 150.083 805.241 148.648 Q803.69 147.213 800.126 146.495 L797.278 145.94 Q792.047 144.898 789.709 142.676 Q787.371 140.454 787.371 136.495 Q787.371 131.912 790.589 129.273 Q793.829 126.634 799.501 126.634 Q801.931 126.634 804.454 127.074 Q806.977 127.514 809.616 128.393 Z" fill="#000000" fill-rule="nonzero" fill-opacity="1" /><path clip-path="url(#clip150)" d="M818.806 135.893 L823.065 135.893 L823.065 161.819 L818.806 161.819 L818.806 135.893 M818.806 125.801 L823.065 125.801 L823.065 131.194 L818.806 131.194 L818.806 125.801 Z" fill="#000000" fill-rule="nonzero" fill-opacity="1" /><path clip-path="url(#clip150)" d="M830.125 135.893 L850.357 135.893 L850.357 139.782 L834.338 158.416 L850.357 158.416 L850.357 161.819 L829.547 161.819 L829.547 157.93 L845.565 139.296 L830.125 139.296 L830.125 135.893 Z" fill="#000000" fill-rule="nonzero" fill-opacity="1" /><path clip-path="url(#clip150)" d="M879.037 147.791 L879.037 149.875 L859.454 149.875 Q859.732 154.273 862.093 156.588 Q864.477 158.879 868.713 158.879 Q871.167 158.879 873.459 158.278 Q875.773 157.676 878.042 156.472 L878.042 160.5 Q875.75 161.472 873.343 161.981 Q870.935 162.49 868.459 162.49 Q862.255 162.49 858.621 158.879 Q855.01 155.268 855.01 149.111 Q855.01 142.745 858.436 139.018 Q861.885 135.268 867.718 135.268 Q872.949 135.268 875.982 138.648 Q879.037 142.004 879.037 147.791 M874.778 146.541 Q874.732 143.046 872.81 140.963 Q870.912 138.879 867.764 138.879 Q864.199 138.879 862.047 140.893 Q859.917 142.907 859.593 146.565 L874.778 146.541 Z" fill="#000000" fill-rule="nonzero" fill-opacity="1" /><path clip-path="url(#clip150)" d="M887.116 155.94 L892 155.94 L892 159.921 L888.204 167.328 L885.218 167.328 L887.116 159.921 L887.116 155.94 Z" fill="#000000" fill-rule="nonzero" fill-opacity="1" /><path clip-path="url(#clip150)" d="M937.718 146.171 L937.718 161.819 L933.458 161.819 L933.458 146.31 Q933.458 142.629 932.023 140.801 Q930.588 138.972 927.718 138.972 Q924.269 138.972 922.278 141.171 Q920.287 143.37 920.287 147.166 L920.287 161.819 L916.005 161.819 L916.005 135.893 L920.287 135.893 L920.287 139.921 Q921.815 137.583 923.875 136.426 Q925.958 135.268 928.667 135.268 Q933.134 135.268 935.426 138.046 Q937.718 140.801 937.718 146.171 Z" fill="#000000" fill-rule="nonzero" fill-opacity="1" /><path clip-path="url(#clip150)" d="M956.259 138.879 Q952.833 138.879 950.842 141.565 Q948.852 144.227 948.852 148.879 Q948.852 153.532 950.819 156.217 Q952.81 158.879 956.259 158.879 Q959.662 158.879 961.653 156.194 Q963.643 153.509 963.643 148.879 Q963.643 144.273 961.653 141.588 Q959.662 138.879 956.259 138.879 M956.259 135.268 Q961.815 135.268 964.986 138.879 Q968.157 142.491 968.157 148.879 Q968.157 155.245 964.986 158.879 Q961.815 162.49 956.259 162.49 Q950.68 162.49 947.509 158.879 Q944.361 155.245 944.361 148.879 Q944.361 142.491 947.509 138.879 Q950.68 135.268 956.259 135.268 Z" fill="#000000" fill-rule="nonzero" fill-opacity="1" /><path clip-path="url(#clip150)" d="M990.472 127.259 L997.439 127.259 L1006.26 150.778 L1015.12 127.259 L1022.09 127.259 L1022.09 161.819 L1017.53 161.819 L1017.53 131.472 L1008.62 155.176 L1003.92 155.176 L995.009 131.472 L995.009 161.819 L990.472 161.819 L990.472 127.259 Z" fill="#000000" fill-rule="nonzero" fill-opacity="1" /><path clip-path="url(#clip150)" d="M1042.97 148.787 Q1037.81 148.787 1035.82 149.967 Q1033.83 151.148 1033.83 153.995 Q1033.83 156.264 1035.31 157.606 Q1036.81 158.926 1039.38 158.926 Q1042.93 158.926 1045.05 156.426 Q1047.21 153.903 1047.21 149.736 L1047.21 148.787 L1042.97 148.787 M1051.47 147.028 L1051.47 161.819 L1047.21 161.819 L1047.21 157.884 Q1045.75 160.245 1043.57 161.379 Q1041.4 162.49 1038.25 162.49 Q1034.27 162.49 1031.91 160.268 Q1029.57 158.023 1029.57 154.273 Q1029.57 149.898 1032.49 147.676 Q1035.43 145.454 1041.24 145.454 L1047.21 145.454 L1047.21 145.037 Q1047.21 142.097 1045.26 140.5 Q1043.34 138.879 1039.85 138.879 Q1037.62 138.879 1035.52 139.412 Q1033.41 139.944 1031.47 141.009 L1031.47 137.074 Q1033.8 136.171 1036 135.731 Q1038.2 135.268 1040.29 135.268 Q1045.91 135.268 1048.69 138.185 Q1051.47 141.102 1051.47 147.028 Z" fill="#000000" fill-rule="nonzero" fill-opacity="1" /><path clip-path="url(#clip150)" d="M1064.45 128.532 L1064.45 135.893 L1073.23 135.893 L1073.23 139.204 L1064.45 139.204 L1064.45 153.278 Q1064.45 156.449 1065.31 157.352 Q1066.19 158.254 1068.85 158.254 L1073.23 158.254 L1073.23 161.819 L1068.85 161.819 Q1063.92 161.819 1062.05 159.99 Q1060.17 158.139 1060.17 153.278 L1060.17 139.204 L1057.05 139.204 L1057.05 135.893 L1060.17 135.893 L1060.17 128.532 L1064.45 128.532 Z" fill="#000000" fill-rule="nonzero" fill-opacity="1" /><path clip-path="url(#clip150)" d="M1093.85 139.875 Q1093.13 139.458 1092.28 139.273 Q1091.44 139.065 1090.43 139.065 Q1086.81 139.065 1084.87 141.426 Q1082.95 143.764 1082.95 148.162 L1082.95 161.819 L1078.67 161.819 L1078.67 135.893 L1082.95 135.893 L1082.95 139.921 Q1084.29 137.56 1086.44 136.426 Q1088.6 135.268 1091.68 135.268 Q1092.11 135.268 1092.65 135.338 Q1093.18 135.384 1093.83 135.5 L1093.85 139.875 Z" fill="#000000" fill-rule="nonzero" fill-opacity="1" /><path clip-path="url(#clip150)" d="M1098.32 135.893 L1102.58 135.893 L1102.58 161.819 L1098.32 161.819 L1098.32 135.893 M1098.32 125.801 L1102.58 125.801 L1102.58 131.194 L1098.32 131.194 L1098.32 125.801 Z" fill="#000000" fill-rule="nonzero" fill-opacity="1" /><path clip-path="url(#clip150)" d="M1133.04 135.893 L1123.67 148.509 L1133.53 161.819 L1128.5 161.819 L1120.96 151.634 L1113.41 161.819 L1108.39 161.819 L1118.46 148.254 L1109.24 135.893 L1114.27 135.893 L1121.14 145.129 L1128.02 135.893 L1133.04 135.893 Z" fill="#000000" fill-rule="nonzero" fill-opacity="1" /><path clip-path="url(#clip150)" d="M1166.35 131.866 L1160.01 149.065 L1172.72 149.065 L1166.35 131.866 M1163.71 127.259 L1169.01 127.259 L1182.18 161.819 L1177.32 161.819 L1174.17 152.953 L1158.6 152.953 L1155.45 161.819 L1150.52 161.819 L1163.71 127.259 Z" fill="#000000" fill-rule="nonzero" fill-opacity="1" /><path clip-path="url(#clip150)" d="M1203.57 136.657 L1203.57 140.685 Q1201.77 139.759 1199.82 139.296 Q1197.88 138.833 1195.79 138.833 Q1192.62 138.833 1191.03 139.805 Q1189.45 140.778 1189.45 142.722 Q1189.45 144.204 1190.59 145.06 Q1191.72 145.893 1195.15 146.657 L1196.61 146.981 Q1201.14 147.954 1203.04 149.736 Q1204.96 151.495 1204.96 154.666 Q1204.96 158.278 1202.09 160.384 Q1199.24 162.49 1194.24 162.49 Q1192.16 162.49 1189.89 162.074 Q1187.65 161.68 1185.15 160.87 L1185.15 156.472 Q1187.51 157.699 1189.8 158.324 Q1192.09 158.926 1194.34 158.926 Q1197.35 158.926 1198.97 157.907 Q1200.59 156.866 1200.59 154.991 Q1200.59 153.254 1199.41 152.328 Q1198.25 151.403 1194.29 150.546 L1192.81 150.199 Q1188.85 149.366 1187.09 147.653 Q1185.33 145.916 1185.33 142.907 Q1185.33 139.25 1187.92 137.259 Q1190.52 135.268 1195.29 135.268 Q1197.65 135.268 1199.73 135.616 Q1201.81 135.963 1203.57 136.657 Z" fill="#000000" fill-rule="nonzero" fill-opacity="1" /><path clip-path="url(#clip150)" d="M1228.27 136.657 L1228.27 140.685 Q1226.47 139.759 1224.52 139.296 Q1222.58 138.833 1220.49 138.833 Q1217.32 138.833 1215.73 139.805 Q1214.15 140.778 1214.15 142.722 Q1214.15 144.204 1215.29 145.06 Q1216.42 145.893 1219.85 146.657 L1221.3 146.981 Q1225.84 147.954 1227.74 149.736 Q1229.66 151.495 1229.66 154.666 Q1229.66 158.278 1226.79 160.384 Q1223.94 162.49 1218.94 162.49 Q1216.86 162.49 1214.59 162.074 Q1212.35 161.68 1209.85 160.87 L1209.85 156.472 Q1212.21 157.699 1214.5 158.324 Q1216.79 158.926 1219.04 158.926 Q1222.04 158.926 1223.67 157.907 Q1225.29 156.866 1225.29 154.991 Q1225.29 153.254 1224.1 152.328 Q1222.95 151.403 1218.99 150.546 L1217.51 150.199 Q1213.55 149.366 1211.79 147.653 Q1210.03 145.916 1210.03 142.907 Q1210.03 139.25 1212.62 137.259 Q1215.22 135.268 1219.98 135.268 Q1222.35 135.268 1224.43 135.616 Q1226.51 135.963 1228.27 136.657 Z" fill="#000000" fill-rule="nonzero" fill-opacity="1" /><path clip-path="url(#clip150)" d="M1258.62 147.791 L1258.62 149.875 L1239.04 149.875 Q1239.31 154.273 1241.67 156.588 Q1244.06 158.879 1248.29 158.879 Q1250.75 158.879 1253.04 158.278 Q1255.35 157.676 1257.62 156.472 L1257.62 160.5 Q1255.33 161.472 1252.92 161.981 Q1250.52 162.49 1248.04 162.49 Q1241.84 162.49 1238.2 158.879 Q1234.59 155.268 1234.59 149.111 Q1234.59 142.745 1238.02 139.018 Q1241.47 135.268 1247.3 135.268 Q1252.53 135.268 1255.56 138.648 Q1258.62 142.004 1258.62 147.791 M1254.36 146.541 Q1254.31 143.046 1252.39 140.963 Q1250.49 138.879 1247.35 138.879 Q1243.78 138.879 1241.63 140.893 Q1239.5 142.907 1239.17 146.565 L1254.36 146.541 Z" fill="#000000" fill-rule="nonzero" fill-opacity="1" /><path clip-path="url(#clip150)" d="M1285.79 140.87 Q1287.39 138 1289.61 136.634 Q1291.84 135.268 1294.85 135.268 Q1298.9 135.268 1301.1 138.116 Q1303.29 140.94 1303.29 146.171 L1303.29 161.819 L1299.01 161.819 L1299.01 146.31 Q1299.01 142.583 1297.69 140.778 Q1296.37 138.972 1293.66 138.972 Q1290.35 138.972 1288.43 141.171 Q1286.51 143.37 1286.51 147.166 L1286.51 161.819 L1282.23 161.819 L1282.23 146.31 Q1282.23 142.56 1280.91 140.778 Q1279.59 138.972 1276.84 138.972 Q1273.57 138.972 1271.65 141.194 Q1269.73 143.393 1269.73 147.166 L1269.73 161.819 L1265.45 161.819 L1265.45 135.893 L1269.73 135.893 L1269.73 139.921 Q1271.19 137.537 1273.22 136.403 Q1275.26 135.268 1278.06 135.268 Q1280.89 135.268 1282.85 136.704 Q1284.85 138.139 1285.79 140.87 Z" fill="#000000" fill-rule="nonzero" fill-opacity="1" /><path clip-path="url(#clip150)" d="M1330.4 148.879 Q1330.4 144.18 1328.46 141.518 Q1326.53 138.833 1323.16 138.833 Q1319.78 138.833 1317.83 141.518 Q1315.91 144.18 1315.91 148.879 Q1315.91 153.578 1317.83 156.264 Q1319.78 158.926 1323.16 158.926 Q1326.53 158.926 1328.46 156.264 Q1330.4 153.578 1330.4 148.879 M1315.91 139.829 Q1317.25 137.514 1319.29 136.403 Q1321.35 135.268 1324.2 135.268 Q1328.92 135.268 1331.86 139.018 Q1334.82 142.768 1334.82 148.879 Q1334.82 154.991 1331.86 158.74 Q1328.92 162.49 1324.2 162.49 Q1321.35 162.49 1319.29 161.379 Q1317.25 160.245 1315.91 157.93 L1315.91 161.819 L1311.63 161.819 L1311.63 125.801 L1315.91 125.801 L1315.91 139.829 Z" fill="#000000" fill-rule="nonzero" fill-opacity="1" /><path clip-path="url(#clip150)" d="M1341.88 125.801 L1346.14 125.801 L1346.14 161.819 L1341.88 161.819 L1341.88 125.801 Z" fill="#000000" fill-rule="nonzero" fill-opacity="1" /><path clip-path="url(#clip150)" d="M1365.84 164.227 Q1364.03 168.856 1362.32 170.268 Q1360.61 171.68 1357.74 171.68 L1354.34 171.68 L1354.34 168.115 L1356.84 168.115 Q1358.59 168.115 1359.57 167.282 Q1360.54 166.449 1361.72 163.347 L1362.48 161.403 L1352 135.893 L1356.51 135.893 L1364.61 156.171 L1372.72 135.893 L1377.23 135.893 L1365.84 164.227 Z" fill="#000000" fill-rule="nonzero" fill-opacity="1" /><path clip-path="url(#clip150)" d="M1382.44 125.847 L1386.14 125.847 Q1389.61 131.31 1391.33 136.542 Q1393.06 141.773 1393.06 146.935 Q1393.06 152.12 1391.33 157.375 Q1389.61 162.629 1386.14 168.069 L1382.44 168.069 Q1385.52 162.768 1387.02 157.537 Q1388.55 152.282 1388.55 146.935 Q1388.55 141.588 1387.02 136.38 Q1385.52 131.171 1382.44 125.847 Z" fill="#000000" fill-rule="nonzero" fill-opacity="1" /><circle clip-path="url(#clip150)" cx="425.123" cy="196.379" r="20.48" fill="#e26f46" fill-rule="evenodd" fill-opacity="1" stroke="#000000" stroke-opacity="1" stroke-width="4.55111"/>
<path clip-path="url(#clip150)" d="M525.127 179.099 L529.803 179.099 L529.803 211.252 Q529.803 217.502 527.419 220.326 Q525.058 223.15 519.803 223.15 L518.021 223.15 L518.021 219.215 L519.479 219.215 Q522.581 219.215 523.854 217.479 Q525.127 215.743 525.127 211.252 L525.127 179.099 Z" fill="#000000" fill-rule="nonzero" fill-opacity="1" /><path clip-path="url(#clip150)" d="M538.484 203.428 L538.484 187.733 L542.743 187.733 L542.743 203.266 Q542.743 206.946 544.178 208.798 Q545.613 210.627 548.483 210.627 Q551.933 210.627 553.923 208.428 Q555.937 206.229 555.937 202.432 L555.937 187.733 L560.196 187.733 L560.196 213.659 L555.937 213.659 L555.937 209.678 Q554.386 212.039 552.326 213.196 Q550.289 214.33 547.581 214.33 Q543.113 214.33 540.798 211.553 Q538.484 208.775 538.484 203.428 M549.201 187.108 L549.201 187.108 Z" fill="#000000" fill-rule="nonzero" fill-opacity="1" /><path clip-path="url(#clip150)" d="M568.969 177.641 L573.229 177.641 L573.229 213.659 L568.969 213.659 L568.969 177.641 Z" fill="#000000" fill-rule="nonzero" fill-opacity="1" /><path clip-path="url(#clip150)" d="M582.141 187.733 L586.4 187.733 L586.4 213.659 L582.141 213.659 L582.141 187.733 M582.141 177.641 L586.4 177.641 L586.4 183.034 L582.141 183.034 L582.141 177.641 Z" fill="#000000" fill-rule="nonzero" fill-opacity="1" /><path clip-path="url(#clip150)" d="M607.094 200.627 Q601.932 200.627 599.942 201.807 Q597.951 202.988 597.951 205.835 Q597.951 208.104 599.432 209.446 Q600.937 210.766 603.506 210.766 Q607.048 210.766 609.178 208.266 Q611.33 205.743 611.33 201.576 L611.33 200.627 L607.094 200.627 M615.59 198.868 L615.59 213.659 L611.33 213.659 L611.33 209.724 Q609.872 212.085 607.696 213.219 Q605.52 214.33 602.372 214.33 Q598.391 214.33 596.03 212.108 Q593.692 209.863 593.692 206.113 Q593.692 201.738 596.608 199.516 Q599.548 197.294 605.358 197.294 L611.33 197.294 L611.33 196.877 Q611.33 193.937 609.386 192.34 Q607.465 190.719 603.969 190.719 Q601.747 190.719 599.641 191.252 Q597.534 191.784 595.59 192.849 L595.59 188.914 Q597.928 188.011 600.127 187.571 Q602.326 187.108 604.409 187.108 Q610.034 187.108 612.812 190.025 Q615.59 192.942 615.59 198.868 Z" fill="#000000" fill-rule="nonzero" fill-opacity="1" /><path clip-path="url(#clip150)" d="M649.663 177.687 Q646.562 183.011 645.057 188.22 Q643.552 193.428 643.552 198.775 Q643.552 204.122 645.057 209.377 Q646.585 214.608 649.663 219.909 L645.96 219.909 Q642.488 214.469 640.752 209.215 Q639.039 203.96 639.039 198.775 Q639.039 193.613 640.752 188.382 Q642.464 183.15 645.96 177.687 L649.663 177.687 Z" fill="#000000" fill-rule="nonzero" fill-opacity="1" /><path clip-path="url(#clip150)" d="M672.95 191.715 Q672.233 191.298 671.376 191.113 Q670.543 190.905 669.525 190.905 Q665.913 190.905 663.969 193.266 Q662.048 195.604 662.048 200.002 L662.048 213.659 L657.765 213.659 L657.765 187.733 L662.048 187.733 L662.048 191.761 Q663.39 189.4 665.543 188.266 Q667.696 187.108 670.774 187.108 Q671.214 187.108 671.747 187.178 Q672.279 187.224 672.927 187.34 L672.95 191.715 Z" fill="#000000" fill-rule="nonzero" fill-opacity="1" /><path clip-path="url(#clip150)" d="M698.552 199.631 L698.552 201.715 L678.969 201.715 Q679.247 206.113 681.608 208.428 Q683.992 210.719 688.228 210.719 Q690.682 210.719 692.973 210.118 Q695.288 209.516 697.557 208.312 L697.557 212.34 Q695.265 213.312 692.858 213.821 Q690.45 214.33 687.973 214.33 Q681.77 214.33 678.136 210.719 Q674.524 207.108 674.524 200.951 Q674.524 194.585 677.95 190.858 Q681.399 187.108 687.233 187.108 Q692.464 187.108 695.497 190.488 Q698.552 193.844 698.552 199.631 M694.293 198.381 Q694.247 194.886 692.325 192.803 Q690.427 190.719 687.279 190.719 Q683.714 190.719 681.561 192.733 Q679.432 194.747 679.108 198.405 L694.293 198.381 Z" fill="#000000" fill-rule="nonzero" fill-opacity="1" /><path clip-path="url(#clip150)" d="M722.071 188.497 L722.071 192.525 Q720.265 191.599 718.321 191.136 Q716.376 190.673 714.293 190.673 Q711.122 190.673 709.524 191.645 Q707.95 192.618 707.95 194.562 Q707.95 196.044 709.084 196.9 Q710.219 197.733 713.645 198.497 L715.103 198.821 Q719.64 199.794 721.538 201.576 Q723.459 203.335 723.459 206.506 Q723.459 210.118 720.589 212.224 Q717.742 214.33 712.742 214.33 Q710.659 214.33 708.39 213.914 Q706.145 213.52 703.645 212.71 L703.645 208.312 Q706.006 209.539 708.297 210.164 Q710.589 210.766 712.834 210.766 Q715.844 210.766 717.464 209.747 Q719.084 208.706 719.084 206.831 Q719.084 205.094 717.904 204.168 Q716.746 203.243 712.788 202.386 L711.307 202.039 Q707.348 201.206 705.589 199.493 Q703.83 197.756 703.83 194.747 Q703.83 191.09 706.422 189.099 Q709.015 187.108 713.784 187.108 Q716.145 187.108 718.228 187.456 Q720.311 187.803 722.071 188.497 Z" fill="#000000" fill-rule="nonzero" fill-opacity="1" /><path clip-path="url(#clip150)" d="M730.242 187.733 L734.501 187.733 L734.501 213.659 L730.242 213.659 L730.242 187.733 M730.242 177.641 L734.501 177.641 L734.501 183.034 L730.242 183.034 L730.242 177.641 Z" fill="#000000" fill-rule="nonzero" fill-opacity="1" /><path clip-path="url(#clip150)" d="M741.561 187.733 L761.793 187.733 L761.793 191.622 L745.774 210.256 L761.793 210.256 L761.793 213.659 L740.982 213.659 L740.982 209.77 L757.001 191.136 L741.561 191.136 L741.561 187.733 Z" fill="#000000" fill-rule="nonzero" fill-opacity="1" /><path clip-path="url(#clip150)" d="M790.473 199.631 L790.473 201.715 L770.89 201.715 Q771.167 206.113 773.529 208.428 Q775.913 210.719 780.149 210.719 Q782.603 210.719 784.894 210.118 Q787.209 209.516 789.478 208.312 L789.478 212.34 Q787.186 213.312 784.779 213.821 Q782.371 214.33 779.894 214.33 Q773.691 214.33 770.056 210.719 Q766.445 207.108 766.445 200.951 Q766.445 194.585 769.871 190.858 Q773.32 187.108 779.154 187.108 Q784.385 187.108 787.417 190.488 Q790.473 193.844 790.473 199.631 M786.214 198.381 Q786.167 194.886 784.246 192.803 Q782.348 190.719 779.2 190.719 Q775.635 190.719 773.482 192.733 Q771.353 194.747 771.029 198.405 L786.214 198.381 Z" fill="#000000" fill-rule="nonzero" fill-opacity="1" /><path clip-path="url(#clip150)" d="M800.149 207.78 L804.848 207.78 L804.848 213.659 L800.149 213.659 L800.149 207.78 M800.149 179.099 L804.848 179.099 L804.848 194.261 L804.385 202.525 L800.635 202.525 L800.149 194.261 L800.149 179.099 Z" fill="#000000" fill-rule="nonzero" fill-opacity="1" /><path clip-path="url(#clip150)" d="M826.7 177.687 Q823.598 183.011 822.093 188.22 Q820.589 193.428 820.589 198.775 Q820.589 204.122 822.093 209.377 Q823.621 214.608 826.7 219.909 L822.996 219.909 Q819.524 214.469 817.788 209.215 Q816.075 203.96 816.075 198.775 Q816.075 193.613 817.788 188.382 Q819.501 183.15 822.996 177.687 L826.7 177.687 Z" fill="#000000" fill-rule="nonzero" fill-opacity="1" /><path clip-path="url(#clip150)" d="M834.292 177.687 L837.996 177.687 Q841.468 183.15 843.181 188.382 Q844.917 193.613 844.917 198.775 Q844.917 203.96 843.181 209.215 Q841.468 214.469 837.996 219.909 L834.292 219.909 Q837.371 214.608 838.875 209.377 Q840.403 204.122 840.403 198.775 Q840.403 193.428 838.875 188.22 Q837.371 183.011 834.292 177.687 Z" fill="#000000" fill-rule="nonzero" fill-opacity="1" /><path clip-path="url(#clip150)" d="M854.547 207.78 L859.431 207.78 L859.431 211.761 L855.635 219.168 L852.649 219.168 L854.547 211.761 L854.547 207.78 Z" fill="#000000" fill-rule="nonzero" fill-opacity="1" /><path clip-path="url(#clip150)" d="M905.148 198.011 L905.148 213.659 L900.889 213.659 L900.889 198.15 Q900.889 194.469 899.454 192.641 Q898.019 190.812 895.148 190.812 Q891.699 190.812 889.709 193.011 Q887.718 195.21 887.718 199.006 L887.718 213.659 L883.435 213.659 L883.435 187.733 L887.718 187.733 L887.718 191.761 Q889.246 189.423 891.306 188.266 Q893.389 187.108 896.097 187.108 Q900.565 187.108 902.857 189.886 Q905.148 192.641 905.148 198.011 Z" fill="#000000" fill-rule="nonzero" fill-opacity="1" /><path clip-path="url(#clip150)" d="M923.69 190.719 Q920.264 190.719 918.273 193.405 Q916.282 196.067 916.282 200.719 Q916.282 205.372 918.25 208.057 Q920.241 210.719 923.69 210.719 Q927.093 210.719 929.083 208.034 Q931.074 205.349 931.074 200.719 Q931.074 196.113 929.083 193.428 Q927.093 190.719 923.69 190.719 M923.69 187.108 Q929.245 187.108 932.417 190.719 Q935.588 194.331 935.588 200.719 Q935.588 207.085 932.417 210.719 Q929.245 214.33 923.69 214.33 Q918.111 214.33 914.94 210.719 Q911.792 207.085 911.792 200.719 Q911.792 194.331 914.94 190.719 Q918.111 187.108 923.69 187.108 Z" fill="#000000" fill-rule="nonzero" fill-opacity="1" /><path clip-path="url(#clip150)" d="M957.903 179.099 L964.87 179.099 L973.69 202.618 L982.555 179.099 L989.523 179.099 L989.523 213.659 L984.963 213.659 L984.963 183.312 L976.051 207.016 L971.352 207.016 L962.44 183.312 L962.44 213.659 L957.903 213.659 L957.903 179.099 Z" fill="#000000" fill-rule="nonzero" fill-opacity="1" /><path clip-path="url(#clip150)" d="M1010.4 200.627 Q1005.24 200.627 1003.25 201.807 Q1001.26 202.988 1001.26 205.835 Q1001.26 208.104 1002.74 209.446 Q1004.24 210.766 1006.81 210.766 Q1010.36 210.766 1012.49 208.266 Q1014.64 205.743 1014.64 201.576 L1014.64 200.627 L1010.4 200.627 M1018.9 198.868 L1018.9 213.659 L1014.64 213.659 L1014.64 209.724 Q1013.18 212.085 1011 213.219 Q1008.83 214.33 1005.68 214.33 Q1001.7 214.33 999.338 212.108 Q997 209.863 997 206.113 Q997 201.738 999.916 199.516 Q1002.86 197.294 1008.67 197.294 L1014.64 197.294 L1014.64 196.877 Q1014.64 193.937 1012.69 192.34 Q1010.77 190.719 1007.28 190.719 Q1005.06 190.719 1002.95 191.252 Q1000.84 191.784 998.898 192.849 L998.898 188.914 Q1001.24 188.011 1003.43 187.571 Q1005.63 187.108 1007.72 187.108 Q1013.34 187.108 1016.12 190.025 Q1018.9 192.942 1018.9 198.868 Z" fill="#000000" fill-rule="nonzero" fill-opacity="1" /><path clip-path="url(#clip150)" d="M1031.88 180.372 L1031.88 187.733 L1040.66 187.733 L1040.66 191.044 L1031.88 191.044 L1031.88 205.118 Q1031.88 208.289 1032.74 209.192 Q1033.62 210.094 1036.28 210.094 L1040.66 210.094 L1040.66 213.659 L1036.28 213.659 Q1031.35 213.659 1029.48 211.83 Q1027.6 209.979 1027.6 205.118 L1027.6 191.044 L1024.48 191.044 L1024.48 187.733 L1027.6 187.733 L1027.6 180.372 L1031.88 180.372 Z" fill="#000000" fill-rule="nonzero" fill-opacity="1" /><path clip-path="url(#clip150)" d="M1061.28 191.715 Q1060.56 191.298 1059.71 191.113 Q1058.87 190.905 1057.86 190.905 Q1054.24 190.905 1052.3 193.266 Q1050.38 195.604 1050.38 200.002 L1050.38 213.659 L1046.1 213.659 L1046.1 187.733 L1050.38 187.733 L1050.38 191.761 Q1051.72 189.4 1053.87 188.266 Q1056.03 187.108 1059.11 187.108 Q1059.55 187.108 1060.08 187.178 Q1060.61 187.224 1061.26 187.34 L1061.28 191.715 Z" fill="#000000" fill-rule="nonzero" fill-opacity="1" /><path clip-path="url(#clip150)" d="M1065.75 187.733 L1070.01 187.733 L1070.01 213.659 L1065.75 213.659 L1065.75 187.733 M1065.75 177.641 L1070.01 177.641 L1070.01 183.034 L1065.75 183.034 L1065.75 177.641 Z" fill="#000000" fill-rule="nonzero" fill-opacity="1" /><path clip-path="url(#clip150)" d="M1100.47 187.733 L1091.1 200.349 L1100.96 213.659 L1095.93 213.659 L1088.39 203.474 L1080.84 213.659 L1075.82 213.659 L1085.89 200.094 L1076.68 187.733 L1081.7 187.733 L1088.57 196.969 L1095.45 187.733 L1100.47 187.733 Z" fill="#000000" fill-rule="nonzero" fill-opacity="1" /><path clip-path="url(#clip150)" d="M1133.83 200.627 Q1128.67 200.627 1126.67 201.807 Q1124.68 202.988 1124.68 205.835 Q1124.68 208.104 1126.17 209.446 Q1127.67 210.766 1130.24 210.766 Q1133.78 210.766 1135.91 208.266 Q1138.06 205.743 1138.06 201.576 L1138.06 200.627 L1133.83 200.627 M1142.32 198.868 L1142.32 213.659 L1138.06 213.659 L1138.06 209.724 Q1136.61 212.085 1134.43 213.219 Q1132.25 214.33 1129.11 214.33 Q1125.12 214.33 1122.76 212.108 Q1120.42 209.863 1120.42 206.113 Q1120.42 201.738 1123.34 199.516 Q1126.28 197.294 1132.09 197.294 L1138.06 197.294 L1138.06 196.877 Q1138.06 193.937 1136.12 192.34 Q1134.2 190.719 1130.7 190.719 Q1128.48 190.719 1126.37 191.252 Q1124.27 191.784 1122.32 192.849 L1122.32 188.914 Q1124.66 188.011 1126.86 187.571 Q1129.06 187.108 1131.14 187.108 Q1136.77 187.108 1139.55 190.025 Q1142.32 192.942 1142.32 198.868 Z" fill="#000000" fill-rule="nonzero" fill-opacity="1" /><path clip-path="url(#clip150)" d="M1167.62 188.497 L1167.62 192.525 Q1165.82 191.599 1163.87 191.136 Q1161.93 190.673 1159.85 190.673 Q1156.67 190.673 1155.08 191.645 Q1153.5 192.618 1153.5 194.562 Q1153.5 196.044 1154.64 196.9 Q1155.77 197.733 1159.2 198.497 L1160.66 198.821 Q1165.19 199.794 1167.09 201.576 Q1169.01 203.335 1169.01 206.506 Q1169.01 210.118 1166.14 212.224 Q1163.3 214.33 1158.3 214.33 Q1156.21 214.33 1153.94 213.914 Q1151.7 213.52 1149.2 212.71 L1149.2 208.312 Q1151.56 209.539 1153.85 210.164 Q1156.14 210.766 1158.39 210.766 Q1161.4 210.766 1163.02 209.747 Q1164.64 208.706 1164.64 206.831 Q1164.64 205.094 1163.46 204.168 Q1162.3 203.243 1158.34 202.386 L1156.86 202.039 Q1152.9 201.206 1151.14 199.493 Q1149.38 197.756 1149.38 194.747 Q1149.38 191.09 1151.98 189.099 Q1154.57 187.108 1159.34 187.108 Q1161.7 187.108 1163.78 187.456 Q1165.86 187.803 1167.62 188.497 Z" fill="#000000" fill-rule="nonzero" fill-opacity="1" /><path clip-path="url(#clip150)" d="M1192.32 188.497 L1192.32 192.525 Q1190.52 191.599 1188.57 191.136 Q1186.63 190.673 1184.54 190.673 Q1181.37 190.673 1179.78 191.645 Q1178.2 192.618 1178.2 194.562 Q1178.2 196.044 1179.34 196.9 Q1180.47 197.733 1183.9 198.497 L1185.36 198.821 Q1189.89 199.794 1191.79 201.576 Q1193.71 203.335 1193.71 206.506 Q1193.71 210.118 1190.84 212.224 Q1187.99 214.33 1182.99 214.33 Q1180.91 214.33 1178.64 213.914 Q1176.4 213.52 1173.9 212.71 L1173.9 208.312 Q1176.26 209.539 1178.55 210.164 Q1180.84 210.766 1183.09 210.766 Q1186.1 210.766 1187.72 209.747 Q1189.34 208.706 1189.34 206.831 Q1189.34 205.094 1188.16 204.168 Q1187 203.243 1183.04 202.386 L1181.56 202.039 Q1177.6 201.206 1175.84 199.493 Q1174.08 197.756 1174.08 194.747 Q1174.08 191.09 1176.67 189.099 Q1179.27 187.108 1184.04 187.108 Q1186.4 187.108 1188.48 187.456 Q1190.56 187.803 1192.32 188.497 Z" fill="#000000" fill-rule="nonzero" fill-opacity="1" /><path clip-path="url(#clip150)" d="M1222.67 199.631 L1222.67 201.715 L1203.09 201.715 Q1203.36 206.113 1205.73 208.428 Q1208.11 210.719 1212.35 210.719 Q1214.8 210.719 1217.09 210.118 Q1219.41 209.516 1221.67 208.312 L1221.67 212.34 Q1219.38 213.312 1216.98 213.821 Q1214.57 214.33 1212.09 214.33 Q1205.89 214.33 1202.25 210.719 Q1198.64 207.108 1198.64 200.951 Q1198.64 194.585 1202.07 190.858 Q1205.52 187.108 1211.35 187.108 Q1216.58 187.108 1219.61 190.488 Q1222.67 193.844 1222.67 199.631 M1218.41 198.381 Q1218.36 194.886 1216.44 192.803 Q1214.54 190.719 1211.4 190.719 Q1207.83 190.719 1205.68 192.733 Q1203.55 194.747 1203.23 198.405 L1218.41 198.381 Z" fill="#000000" fill-rule="nonzero" fill-opacity="1" /><path clip-path="url(#clip150)" d="M1249.85 192.71 Q1251.44 189.84 1253.66 188.474 Q1255.89 187.108 1258.9 187.108 Q1262.95 187.108 1265.15 189.956 Q1267.35 192.78 1267.35 198.011 L1267.35 213.659 L1263.06 213.659 L1263.06 198.15 Q1263.06 194.423 1261.74 192.618 Q1260.42 190.812 1257.72 190.812 Q1254.41 190.812 1252.48 193.011 Q1250.56 195.21 1250.56 199.006 L1250.56 213.659 L1246.28 213.659 L1246.28 198.15 Q1246.28 194.4 1244.96 192.618 Q1243.64 190.812 1240.89 190.812 Q1237.62 190.812 1235.7 193.034 Q1233.78 195.233 1233.78 199.006 L1233.78 213.659 L1229.5 213.659 L1229.5 187.733 L1233.78 187.733 L1233.78 191.761 Q1235.24 189.377 1237.28 188.243 Q1239.31 187.108 1242.11 187.108 Q1244.94 187.108 1246.91 188.544 Q1248.9 189.979 1249.85 192.71 Z" fill="#000000" fill-rule="nonzero" fill-opacity="1" /><path clip-path="url(#clip150)" d="M1294.45 200.719 Q1294.45 196.02 1292.51 193.358 Q1290.59 190.673 1287.21 190.673 Q1283.83 190.673 1281.88 193.358 Q1279.96 196.02 1279.96 200.719 Q1279.96 205.418 1281.88 208.104 Q1283.83 210.766 1287.21 210.766 Q1290.59 210.766 1292.51 208.104 Q1294.45 205.418 1294.45 200.719 M1279.96 191.669 Q1281.3 189.354 1283.34 188.243 Q1285.4 187.108 1288.25 187.108 Q1292.97 187.108 1295.91 190.858 Q1298.87 194.608 1298.87 200.719 Q1298.87 206.831 1295.91 210.58 Q1292.97 214.33 1288.25 214.33 Q1285.4 214.33 1283.34 213.219 Q1281.3 212.085 1279.96 209.77 L1279.96 213.659 L1275.68 213.659 L1275.68 177.641 L1279.96 177.641 L1279.96 191.669 Z" fill="#000000" fill-rule="nonzero" fill-opacity="1" /><path clip-path="url(#clip150)" d="M1305.93 177.641 L1310.19 177.641 L1310.19 213.659 L1305.93 213.659 L1305.93 177.641 Z" fill="#000000" fill-rule="nonzero" fill-opacity="1" /><path clip-path="url(#clip150)" d="M1329.89 216.067 Q1328.09 220.696 1326.37 222.108 Q1324.66 223.52 1321.79 223.52 L1318.39 223.52 L1318.39 219.955 L1320.89 219.955 Q1322.65 219.955 1323.62 219.122 Q1324.59 218.289 1325.77 215.187 L1326.53 213.243 L1316.05 187.733 L1320.56 187.733 L1328.66 208.011 L1336.77 187.733 L1341.28 187.733 L1329.89 216.067 Z" fill="#000000" fill-rule="nonzero" fill-opacity="1" /><path clip-path="url(#clip150)" d="M1346.49 177.687 L1350.19 177.687 Q1353.66 183.15 1355.38 188.382 Q1357.11 193.613 1357.11 198.775 Q1357.11 203.96 1355.38 209.215 Q1353.66 214.469 1350.19 219.909 L1346.49 219.909 Q1349.57 214.608 1351.07 209.377 Q1352.6 204.122 1352.6 198.775 Q1352.6 193.428 1351.07 188.22 Q1349.57 183.011 1346.49 177.687 Z" fill="#000000" fill-rule="nonzero" fill-opacity="1" /><circle clip-path="url(#clip150)" cx="425.123" cy="248.219" r="20.48" fill="#3da44d" fill-rule="evenodd" fill-opacity="1" stroke="#000000" stroke-opacity="1" stroke-width="4.55111"/>
<path clip-path="url(#clip150)" d="M545.891 233.601 L545.891 238.532 Q543.53 236.333 540.845 235.245 Q538.183 234.157 535.173 234.157 Q529.247 234.157 526.099 237.791 Q522.951 241.402 522.951 248.254 Q522.951 255.083 526.099 258.717 Q529.247 262.328 535.173 262.328 Q538.183 262.328 540.845 261.24 Q543.53 260.152 545.891 257.953 L545.891 262.837 Q543.437 264.504 540.683 265.337 Q537.951 266.17 534.896 266.17 Q527.048 266.17 522.535 261.379 Q518.021 256.564 518.021 248.254 Q518.021 239.921 522.535 235.129 Q527.048 230.314 534.896 230.314 Q537.997 230.314 540.729 231.148 Q543.484 231.958 545.891 233.601 Z" fill="#000000" fill-rule="nonzero" fill-opacity="1" /><path clip-path="url(#clip150)" d="M570.266 235.777 L570.266 248.671 L583.159 248.671 L583.159 252.606 L570.266 252.606 L570.266 265.499 L566.377 265.499 L566.377 252.606 L553.483 252.606 L553.483 248.671 L566.377 248.671 L566.377 235.777 L570.266 235.777 Z" fill="#000000" fill-rule="nonzero" fill-opacity="1" /><path clip-path="url(#clip150)" d="M609.988 235.777 L609.988 248.671 L622.881 248.671 L622.881 252.606 L609.988 252.606 L609.988 265.499 L606.099 265.499 L606.099 252.606 L593.205 252.606 L593.205 248.671 L606.099 248.671 L606.099 235.777 L609.988 235.777 Z" fill="#000000" fill-rule="nonzero" fill-opacity="1" /><path clip-path="url(#clip150)" d="M657.673 229.527 Q654.571 234.851 653.066 240.06 Q651.562 245.268 651.562 250.615 Q651.562 255.962 653.066 261.217 Q654.594 266.448 657.673 271.749 L653.969 271.749 Q650.497 266.309 648.761 261.055 Q647.048 255.8 647.048 250.615 Q647.048 245.453 648.761 240.222 Q650.474 234.99 653.969 229.527 L657.673 229.527 Z" fill="#000000" fill-rule="nonzero" fill-opacity="1" /><path clip-path="url(#clip150)" d="M689.686 260.569 L689.686 251.286 L682.048 251.286 L682.048 247.444 L694.316 247.444 L694.316 262.282 Q691.608 264.203 688.344 265.198 Q685.08 266.17 681.376 266.17 Q673.274 266.17 668.691 261.448 Q664.131 256.703 664.131 248.254 Q664.131 239.782 668.691 235.06 Q673.274 230.314 681.376 230.314 Q684.756 230.314 687.788 231.148 Q690.844 231.981 693.413 233.601 L693.413 238.578 Q690.821 236.379 687.904 235.268 Q684.987 234.157 681.77 234.157 Q675.427 234.157 672.233 237.698 Q669.062 241.24 669.062 248.254 Q669.062 255.245 672.233 258.786 Q675.427 262.328 681.77 262.328 Q684.247 262.328 686.191 261.911 Q688.136 261.471 689.686 260.569 Z" fill="#000000" fill-rule="nonzero" fill-opacity="1" /><path clip-path="url(#clip150)" d="M702.672 239.573 L706.932 239.573 L706.932 265.499 L702.672 265.499 L702.672 239.573 M702.672 229.481 L706.932 229.481 L706.932 234.874 L702.672 234.874 L702.672 229.481 Z" fill="#000000" fill-rule="nonzero" fill-opacity="1" /><path clip-path="url(#clip150)" d="M737.395 249.851 L737.395 265.499 L733.135 265.499 L733.135 249.99 Q733.135 246.309 731.7 244.481 Q730.265 242.652 727.395 242.652 Q723.946 242.652 721.955 244.851 Q719.964 247.05 719.964 250.846 L719.964 265.499 L715.682 265.499 L715.682 239.573 L719.964 239.573 L719.964 243.601 Q721.492 241.263 723.552 240.106 Q725.635 238.948 728.344 238.948 Q732.811 238.948 735.103 241.726 Q737.395 244.481 737.395 249.851 Z" fill="#000000" fill-rule="nonzero" fill-opacity="1" /><path clip-path="url(#clip150)" d="M745.728 229.481 L750.01 229.481 L750.01 250.754 L762.718 239.573 L768.158 239.573 L754.408 251.703 L768.737 265.499 L763.181 265.499 L750.01 252.837 L750.01 265.499 L745.728 265.499 L745.728 229.481 Z" fill="#000000" fill-rule="nonzero" fill-opacity="1" /><path clip-path="url(#clip150)" d="M790.403 252.235 Q790.403 247.606 788.482 245.059 Q786.584 242.513 783.135 242.513 Q779.709 242.513 777.788 245.059 Q775.89 247.606 775.89 252.235 Q775.89 256.842 777.788 259.388 Q779.709 261.934 783.135 261.934 Q786.584 261.934 788.482 259.388 Q790.403 256.842 790.403 252.235 M794.663 262.282 Q794.663 268.902 791.723 272.12 Q788.783 275.36 782.718 275.36 Q780.473 275.36 778.482 275.013 Q776.492 274.689 774.617 273.995 L774.617 269.851 Q776.492 270.87 778.32 271.356 Q780.149 271.842 782.047 271.842 Q786.237 271.842 788.32 269.643 Q790.403 267.467 790.403 263.045 L790.403 260.939 Q789.084 263.231 787.024 264.365 Q784.964 265.499 782.093 265.499 Q777.325 265.499 774.408 261.865 Q771.492 258.231 771.492 252.235 Q771.492 246.217 774.408 242.583 Q777.325 238.948 782.093 238.948 Q784.964 238.948 787.024 240.083 Q789.084 241.217 790.403 243.509 L790.403 239.573 L794.663 239.573 L794.663 262.282 Z" fill="#000000" fill-rule="nonzero" fill-opacity="1" /><path clip-path="url(#clip150)" d="M813.482 242.559 Q810.056 242.559 808.065 245.245 Q806.075 247.907 806.075 252.559 Q806.075 257.212 808.042 259.897 Q810.033 262.559 813.482 262.559 Q816.885 262.559 818.876 259.874 Q820.866 257.189 820.866 252.559 Q820.866 247.953 818.876 245.268 Q816.885 242.559 813.482 242.559 M813.482 238.948 Q819.038 238.948 822.209 242.559 Q825.38 246.171 825.38 252.559 Q825.38 258.925 822.209 262.559 Q819.038 266.17 813.482 266.17 Q807.903 266.17 804.732 262.559 Q801.584 258.925 801.584 252.559 Q801.584 246.171 804.732 242.559 Q807.903 238.948 813.482 238.948 Z" fill="#000000" fill-rule="nonzero" fill-opacity="1" /><path clip-path="url(#clip150)" d="M831.769 229.527 L835.473 229.527 Q838.945 234.99 840.658 240.222 Q842.394 245.453 842.394 250.615 Q842.394 255.8 840.658 261.055 Q838.945 266.309 835.473 271.749 L831.769 271.749 Q834.848 266.448 836.352 261.217 Q837.88 255.962 837.88 250.615 Q837.88 245.268 836.352 240.06 Q834.848 234.851 831.769 229.527 Z" fill="#000000" fill-rule="nonzero" fill-opacity="1" /></svg>
