<?xml version="1.0" encoding="utf-8"?>
<svg xmlns="http://www.w3.org/2000/svg" xmlns:xlink="http://www.w3.org/1999/xlink" width="600" height="400" viewBox="0 0 2400 1600">
<defs>
  <clipPath id="clip010">
    <rect x="0" y="0" width="2400" height="1600"/>
  </clipPath>
</defs>
<path clip-path="url(#clip010)" d="M0 1600 L2400 1600 L2400 0 L0 0  Z" fill="#ffffff" fill-rule="evenodd" fill-opacity="1"/>
<defs>
  <clipPath id="clip011">
    <rect x="264" y="47" width="2089" height="1365"/>
  </clipPath>
</defs>
<path clip-path="url(#clip010)" d="M264.287 1410.9 L2352.76 1410.9 L2352.76 47.2441 L264.287 47.2441  Z" fill="#ffffff" fill-rule="evenodd" fill-opacity="1"/>
<polyline clip-path="url(#clip011)" style="stroke:#000000; stroke-linecap:round; stroke-linejoin:round; stroke-width:2; stroke-opacity:0.1; fill:none" points="290.165,1410.9 290.165,47.2441 "/>
<polyline clip-path="url(#clip011)" style="stroke:#000000; stroke-linecap:round; stroke-linejoin:round; stroke-width:2; stroke-opacity:0.1; fill:none" points="603.209,1410.9 603.209,47.2441 "/>
<polyline clip-path="url(#clip011)" style="stroke:#000000; stroke-linecap:round; stroke-linejoin:round; stroke-width:2; stroke-opacity:0.1; fill:none" points="916.253,1410.9 916.253,47.2441 "/>
<polyline clip-path="url(#clip011)" style="stroke:#000000; stroke-linecap:round; stroke-linejoin:round; stroke-width:2; stroke-opacity:0.1; fill:none" points="1229.3,1410.9 1229.3,47.2441 "/>
<polyline clip-path="url(#clip011)" style="stroke:#000000; stroke-linecap:round; stroke-linejoin:round; stroke-width:2; stroke-opacity:0.1; fill:none" points="1542.34,1410.9 1542.34,47.2441 "/>
<polyline clip-path="url(#clip011)" style="stroke:#000000; stroke-linecap:round; stroke-linejoin:round; stroke-width:2; stroke-opacity:0.1; fill:none" points="1855.39,1410.9 1855.39,47.2441 "/>
<polyline clip-path="url(#clip011)" style="stroke:#000000; stroke-linecap:round; stroke-linejoin:round; stroke-width:2; stroke-opacity:0.1; fill:none" points="2168.43,1410.9 2168.43,47.2441 "/>
<polyline clip-path="url(#clip011)" style="stroke:#000000; stroke-linecap:round; stroke-linejoin:round; stroke-width:2; stroke-opacity:0.1; fill:none" points="264.287,1224.75 2352.76,1224.75 "/>
<polyline clip-path="url(#clip011)" style="stroke:#000000; stroke-linecap:round; stroke-linejoin:round; stroke-width:2; stroke-opacity:0.1; fill:none" points="264.287,1015.16 2352.76,1015.16 "/>
<polyline clip-path="url(#clip011)" style="stroke:#000000; stroke-linecap:round; stroke-linejoin:round; stroke-width:2; stroke-opacity:0.1; fill:none" points="264.287,805.571 2352.76,805.571 "/>
<polyline clip-path="url(#clip011)" style="stroke:#000000; stroke-linecap:round; stroke-linejoin:round; stroke-width:2; stroke-opacity:0.1; fill:none" points="264.287,595.981 2352.76,595.981 "/>
<polyline clip-path="url(#clip011)" style="stroke:#000000; stroke-linecap:round; stroke-linejoin:round; stroke-width:2; stroke-opacity:0.1; fill:none" points="264.287,386.39 2352.76,386.39 "/>
<polyline clip-path="url(#clip011)" style="stroke:#000000; stroke-linecap:round; stroke-linejoin:round; stroke-width:2; stroke-opacity:0.1; fill:none" points="264.287,176.8 2352.76,176.8 "/>
<polyline clip-path="url(#clip010)" style="stroke:#000000; stroke-linecap:round; stroke-linejoin:round; stroke-width:4; stroke-opacity:1; fill:none" points="264.287,1410.9 2352.76,1410.9 "/>
<polyline clip-path="url(#clip010)" style="stroke:#000000; stroke-linecap:round; stroke-linejoin:round; stroke-width:4; stroke-opacity:1; fill:none" points="290.165,1410.9 290.165,1392 "/>
<polyline clip-path="url(#clip010)" style="stroke:#000000; stroke-linecap:round; stroke-linejoin:round; stroke-width:4; stroke-opacity:1; fill:none" points="603.209,1410.9 603.209,1392 "/>
<polyline clip-path="url(#clip010)" style="stroke:#000000; stroke-linecap:round; stroke-linejoin:round; stroke-width:4; stroke-opacity:1; fill:none" points="916.253,1410.9 916.253,1392 "/>
<polyline clip-path="url(#clip010)" style="stroke:#000000; stroke-linecap:round; stroke-linejoin:round; stroke-width:4; stroke-opacity:1; fill:none" points="1229.3,1410.9 1229.3,1392 "/>
<polyline clip-path="url(#clip010)" style="stroke:#000000; stroke-linecap:round; stroke-linejoin:round; stroke-width:4; stroke-opacity:1; fill:none" points="1542.34,1410.9 1542.34,1392 "/>
<polyline clip-path="url(#clip010)" style="stroke:#000000; stroke-linecap:round; stroke-linejoin:round; stroke-width:4; stroke-opacity:1; fill:none" points="1855.39,1410.9 1855.39,1392 "/>
<polyline clip-path="url(#clip010)" style="stroke:#000000; stroke-linecap:round; stroke-linejoin:round; stroke-width:4; stroke-opacity:1; fill:none" points="2168.43,1410.9 2168.43,1392 "/>
<path clip-path="url(#clip010)" d="M290.165 1441.82 Q286.554 1441.82 284.725 1445.38 Q282.919 1448.92 282.919 1456.05 Q282.919 1463.16 284.725 1466.72 Q286.554 1470.26 290.165 1470.26 Q293.799 1470.26 295.604 1466.72 Q297.433 1463.16 297.433 1456.05 Q297.433 1448.92 295.604 1445.38 Q293.799 1441.82 290.165 1441.82 M290.165 1438.11 Q295.975 1438.11 299.03 1442.72 Q302.109 1447.3 302.109 1456.05 Q302.109 1464.78 299.03 1469.38 Q295.975 1473.97 290.165 1473.97 Q284.354 1473.97 281.276 1469.38 Q278.22 1464.78 278.22 1456.05 Q278.22 1447.3 281.276 1442.72 Q284.354 1438.11 290.165 1438.11 Z" fill="#000000" fill-rule="nonzero" fill-opacity="1" /><path clip-path="url(#clip010)" d="M499.491 1485.02 L507.129 1485.02 L507.129 1458.66 L498.819 1460.32 L498.819 1456.06 L507.083 1454.4 L511.759 1454.4 L511.759 1485.02 L519.398 1485.02 L519.398 1488.96 L499.491 1488.96 L499.491 1485.02 Z" fill="#000000" fill-rule="nonzero" fill-opacity="1" /><path clip-path="url(#clip010)" d="M528.842 1483.08 L533.727 1483.08 L533.727 1488.96 L528.842 1488.96 L528.842 1483.08 Z" fill="#000000" fill-rule="nonzero" fill-opacity="1" /><path clip-path="url(#clip010)" d="M553.912 1457.48 Q550.301 1457.48 548.472 1461.04 Q546.666 1464.58 546.666 1471.71 Q546.666 1478.82 548.472 1482.38 Q550.301 1485.92 553.912 1485.92 Q557.546 1485.92 559.351 1482.38 Q561.18 1478.82 561.18 1471.71 Q561.18 1464.58 559.351 1461.04 Q557.546 1457.48 553.912 1457.48 M553.912 1453.77 Q559.722 1453.77 562.777 1458.38 Q565.856 1462.96 565.856 1471.71 Q565.856 1480.44 562.777 1485.04 Q559.722 1489.63 553.912 1489.63 Q548.101 1489.63 545.023 1485.04 Q541.967 1480.44 541.967 1471.71 Q541.967 1462.96 545.023 1458.38 Q548.101 1453.77 553.912 1453.77 Z" fill="#000000" fill-rule="nonzero" fill-opacity="1" /><path clip-path="url(#clip010)" d="M602.245 1463.49 L591.666 1474.12 L602.245 1484.7 L599.49 1487.5 L588.865 1476.87 L578.24 1487.5 L575.509 1484.7 L586.064 1474.12 L575.509 1463.49 L578.24 1460.69 L588.865 1471.32 L599.49 1460.69 L602.245 1463.49 Z" fill="#000000" fill-rule="nonzero" fill-opacity="1" /><path clip-path="url(#clip010)" d="M614.606 1485.02 L622.245 1485.02 L622.245 1458.66 L613.934 1460.32 L613.934 1456.06 L622.198 1454.4 L626.874 1454.4 L626.874 1485.02 L634.513 1485.02 L634.513 1488.96 L614.606 1488.96 L614.606 1485.02 Z" fill="#000000" fill-rule="nonzero" fill-opacity="1" /><path clip-path="url(#clip010)" d="M653.957 1457.48 Q650.346 1457.48 648.518 1461.04 Q646.712 1464.58 646.712 1471.71 Q646.712 1478.82 648.518 1482.38 Q650.346 1485.92 653.957 1485.92 Q657.592 1485.92 659.397 1482.38 Q661.226 1478.82 661.226 1471.71 Q661.226 1464.58 659.397 1461.04 Q657.592 1457.48 653.957 1457.48 M653.957 1453.77 Q659.768 1453.77 662.823 1458.38 Q665.902 1462.96 665.902 1471.71 Q665.902 1480.44 662.823 1485.04 Q659.768 1489.63 653.957 1489.63 Q648.147 1489.63 645.069 1485.04 Q642.013 1480.44 642.013 1471.71 Q642.013 1462.96 645.069 1458.38 Q648.147 1453.77 653.957 1453.77 Z" fill="#000000" fill-rule="nonzero" fill-opacity="1" /><path clip-path="url(#clip010)" d="M666.447 1458.35 L672.654 1458.35 L672.654 1436.93 L665.902 1438.28 L665.902 1434.82 L672.616 1433.47 L676.415 1433.47 L676.415 1458.35 L682.622 1458.35 L682.622 1461.55 L666.447 1461.55 L666.447 1458.35 Z" fill="#000000" fill-rule="nonzero" fill-opacity="1" /><path clip-path="url(#clip010)" d="M701.806 1446.41 Q704.533 1446.99 706.056 1448.83 Q707.599 1450.68 707.599 1453.38 Q707.599 1457.54 704.74 1459.82 Q701.881 1462.09 696.615 1462.09 Q694.847 1462.09 692.966 1461.73 Q691.104 1461.4 689.111 1460.7 L689.111 1457.03 Q690.69 1457.95 692.571 1458.42 Q694.452 1458.89 696.502 1458.89 Q700.075 1458.89 701.937 1457.48 Q703.818 1456.07 703.818 1453.38 Q703.818 1450.9 702.069 1449.51 Q700.339 1448.1 697.236 1448.1 L693.963 1448.1 L693.963 1444.98 L697.386 1444.98 Q700.188 1444.98 701.674 1443.87 Q703.16 1442.74 703.16 1440.63 Q703.16 1438.47 701.618 1437.32 Q700.094 1436.16 697.236 1436.16 Q695.674 1436.16 693.888 1436.49 Q692.101 1436.83 689.957 1437.55 L689.957 1434.16 Q692.12 1433.56 694.001 1433.26 Q695.9 1432.96 697.574 1432.96 Q701.9 1432.96 704.42 1434.93 Q706.94 1436.89 706.94 1440.24 Q706.94 1442.57 705.605 1444.19 Q704.27 1445.79 701.806 1446.41 Z" fill="#000000" fill-rule="nonzero" fill-opacity="1" /><path clip-path="url(#clip010)" d="M816.621 1485.02 L832.94 1485.02 L832.94 1488.96 L810.996 1488.96 L810.996 1485.02 Q813.658 1482.27 818.241 1477.64 Q822.847 1472.98 824.028 1471.64 Q826.273 1469.12 827.153 1467.38 Q828.056 1465.62 828.056 1463.93 Q828.056 1461.18 826.111 1459.44 Q824.19 1457.71 821.088 1457.71 Q818.889 1457.71 816.435 1458.47 Q814.005 1459.23 811.227 1460.79 L811.227 1456.06 Q814.051 1454.93 816.505 1454.35 Q818.959 1453.77 820.996 1453.77 Q826.366 1453.77 829.56 1456.46 Q832.755 1459.14 832.755 1463.63 Q832.755 1465.76 831.945 1467.68 Q831.158 1469.58 829.051 1472.17 Q828.472 1472.85 825.371 1476.06 Q822.269 1479.26 816.621 1485.02 Z" fill="#000000" fill-rule="nonzero" fill-opacity="1" /><path clip-path="url(#clip010)" d="M842.755 1483.08 L847.639 1483.08 L847.639 1488.96 L842.755 1488.96 L842.755 1483.08 Z" fill="#000000" fill-rule="nonzero" fill-opacity="1" /><path clip-path="url(#clip010)" d="M867.824 1457.48 Q864.213 1457.48 862.384 1461.04 Q860.579 1464.58 860.579 1471.71 Q860.579 1478.82 862.384 1482.38 Q864.213 1485.92 867.824 1485.92 Q871.458 1485.92 873.264 1482.38 Q875.092 1478.82 875.092 1471.71 Q875.092 1464.58 873.264 1461.04 Q871.458 1457.48 867.824 1457.48 M867.824 1453.77 Q873.634 1453.77 876.69 1458.38 Q879.768 1462.96 879.768 1471.71 Q879.768 1480.44 876.69 1485.04 Q873.634 1489.63 867.824 1489.63 Q862.014 1489.63 858.935 1485.04 Q855.88 1480.44 855.88 1471.71 Q855.88 1462.96 858.935 1458.38 Q862.014 1453.77 867.824 1453.77 Z" fill="#000000" fill-rule="nonzero" fill-opacity="1" /><path clip-path="url(#clip010)" d="M916.157 1463.49 L905.578 1474.12 L916.157 1484.7 L913.402 1487.5 L902.778 1476.87 L892.153 1487.5 L889.421 1484.7 L899.977 1474.12 L889.421 1463.49 L892.153 1460.69 L902.778 1471.32 L913.402 1460.69 L916.157 1463.49 Z" fill="#000000" fill-rule="nonzero" fill-opacity="1" /><path clip-path="url(#clip010)" d="M928.518 1485.02 L936.157 1485.02 L936.157 1458.66 L927.847 1460.32 L927.847 1456.06 L936.111 1454.4 L940.787 1454.4 L940.787 1485.02 L948.425 1485.02 L948.425 1488.96 L928.518 1488.96 L928.518 1485.02 Z" fill="#000000" fill-rule="nonzero" fill-opacity="1" /><path clip-path="url(#clip010)" d="M967.87 1457.48 Q964.259 1457.48 962.43 1461.04 Q960.624 1464.58 960.624 1471.71 Q960.624 1478.82 962.43 1482.38 Q964.259 1485.92 967.87 1485.92 Q971.504 1485.92 973.31 1482.38 Q975.138 1478.82 975.138 1471.71 Q975.138 1464.58 973.31 1461.04 Q971.504 1457.48 967.87 1457.48 M967.87 1453.77 Q973.68 1453.77 976.735 1458.38 Q979.814 1462.96 979.814 1471.71 Q979.814 1480.44 976.735 1485.04 Q973.68 1489.63 967.87 1489.63 Q962.06 1489.63 958.981 1485.04 Q955.925 1480.44 955.925 1471.71 Q955.925 1462.96 958.981 1458.38 Q962.06 1453.77 967.87 1453.77 Z" fill="#000000" fill-rule="nonzero" fill-opacity="1" /><path clip-path="url(#clip010)" d="M980.36 1458.35 L986.566 1458.35 L986.566 1436.93 L979.814 1438.28 L979.814 1434.82 L986.529 1433.47 L990.328 1433.47 L990.328 1458.35 L996.534 1458.35 L996.534 1461.55 L980.36 1461.55 L980.36 1458.35 Z" fill="#000000" fill-rule="nonzero" fill-opacity="1" /><path clip-path="url(#clip010)" d="M1015.72 1446.41 Q1018.45 1446.99 1019.97 1448.83 Q1021.51 1450.68 1021.51 1453.38 Q1021.51 1457.54 1018.65 1459.82 Q1015.79 1462.09 1010.53 1462.09 Q1008.76 1462.09 1006.88 1461.73 Q1005.02 1461.4 1003.02 1460.7 L1003.02 1457.03 Q1004.6 1457.95 1006.48 1458.42 Q1008.36 1458.89 1010.41 1458.89 Q1013.99 1458.89 1015.85 1457.48 Q1017.73 1456.07 1017.73 1453.38 Q1017.73 1450.9 1015.98 1449.51 Q1014.25 1448.1 1011.15 1448.1 L1007.88 1448.1 L1007.88 1444.98 L1011.3 1444.98 Q1014.1 1444.98 1015.59 1443.87 Q1017.07 1442.74 1017.07 1440.63 Q1017.07 1438.47 1015.53 1437.32 Q1014.01 1436.16 1011.15 1436.16 Q1009.59 1436.16 1007.8 1436.49 Q1006.01 1436.83 1003.87 1437.55 L1003.87 1434.16 Q1006.03 1433.56 1007.91 1433.26 Q1009.81 1432.96 1011.49 1432.96 Q1015.81 1432.96 1018.33 1434.93 Q1020.85 1436.89 1020.85 1440.24 Q1020.85 1442.57 1019.52 1444.19 Q1018.18 1445.79 1015.72 1446.41 Z" fill="#000000" fill-rule="nonzero" fill-opacity="1" /><path clip-path="url(#clip010)" d="M1139.73 1470.32 Q1143.09 1471.04 1144.97 1473.31 Q1146.86 1475.58 1146.86 1478.91 Q1146.86 1484.03 1143.35 1486.83 Q1139.83 1489.63 1133.35 1489.63 Q1131.17 1489.63 1128.85 1489.19 Q1126.56 1488.77 1124.11 1487.91 L1124.11 1483.4 Q1126.05 1484.54 1128.37 1485.11 Q1130.68 1485.69 1133.21 1485.69 Q1137.6 1485.69 1139.9 1483.96 Q1142.21 1482.22 1142.21 1478.91 Q1142.21 1475.85 1140.06 1474.14 Q1137.93 1472.41 1134.11 1472.41 L1130.08 1472.41 L1130.08 1468.56 L1134.29 1468.56 Q1137.74 1468.56 1139.57 1467.2 Q1141.4 1465.81 1141.4 1463.22 Q1141.4 1460.55 1139.5 1459.14 Q1137.63 1457.71 1134.11 1457.71 Q1132.19 1457.71 1129.99 1458.12 Q1127.79 1458.54 1125.15 1459.42 L1125.15 1455.25 Q1127.81 1454.51 1130.13 1454.14 Q1132.47 1453.77 1134.53 1453.77 Q1139.85 1453.77 1142.95 1456.2 Q1146.05 1458.61 1146.05 1462.73 Q1146.05 1465.6 1144.41 1467.59 Q1142.77 1469.56 1139.73 1470.32 Z" fill="#000000" fill-rule="nonzero" fill-opacity="1" /><path clip-path="url(#clip010)" d="M1155.73 1483.08 L1160.61 1483.08 L1160.61 1488.96 L1155.73 1488.96 L1155.73 1483.08 Z" fill="#000000" fill-rule="nonzero" fill-opacity="1" /><path clip-path="url(#clip010)" d="M1180.8 1457.48 Q1177.19 1457.48 1175.36 1461.04 Q1173.55 1464.58 1173.55 1471.71 Q1173.55 1478.82 1175.36 1482.38 Q1177.19 1485.92 1180.8 1485.92 Q1184.43 1485.92 1186.24 1482.38 Q1188.07 1478.82 1188.07 1471.71 Q1188.07 1464.58 1186.24 1461.04 Q1184.43 1457.48 1180.8 1457.48 M1180.8 1453.77 Q1186.61 1453.77 1189.66 1458.38 Q1192.74 1462.96 1192.74 1471.71 Q1192.74 1480.44 1189.66 1485.04 Q1186.61 1489.63 1180.8 1489.63 Q1174.99 1489.63 1171.91 1485.04 Q1168.85 1480.44 1168.85 1471.71 Q1168.85 1462.96 1171.91 1458.38 Q1174.99 1453.77 1180.8 1453.77 Z" fill="#000000" fill-rule="nonzero" fill-opacity="1" /><path clip-path="url(#clip010)" d="M1229.13 1463.49 L1218.55 1474.12 L1229.13 1484.7 L1226.38 1487.5 L1215.75 1476.87 L1205.13 1487.5 L1202.4 1484.7 L1212.95 1474.12 L1202.4 1463.49 L1205.13 1460.69 L1215.75 1471.32 L1226.38 1460.69 L1229.13 1463.49 Z" fill="#000000" fill-rule="nonzero" fill-opacity="1" /><path clip-path="url(#clip010)" d="M1241.49 1485.02 L1249.13 1485.02 L1249.13 1458.66 L1240.82 1460.32 L1240.82 1456.06 L1249.09 1454.4 L1253.76 1454.4 L1253.76 1485.02 L1261.4 1485.02 L1261.4 1488.96 L1241.49 1488.96 L1241.49 1485.02 Z" fill="#000000" fill-rule="nonzero" fill-opacity="1" /><path clip-path="url(#clip010)" d="M1280.84 1457.48 Q1277.23 1457.48 1275.4 1461.04 Q1273.6 1464.58 1273.6 1471.71 Q1273.6 1478.82 1275.4 1482.38 Q1277.23 1485.92 1280.84 1485.92 Q1284.48 1485.92 1286.28 1482.38 Q1288.11 1478.82 1288.11 1471.71 Q1288.11 1464.58 1286.28 1461.04 Q1284.48 1457.48 1280.84 1457.48 M1280.84 1453.77 Q1286.65 1453.77 1289.71 1458.38 Q1292.79 1462.96 1292.79 1471.71 Q1292.79 1480.44 1289.71 1485.04 Q1286.65 1489.63 1280.84 1489.63 Q1275.03 1489.63 1271.96 1485.04 Q1268.9 1480.44 1268.9 1471.71 Q1268.9 1462.96 1271.96 1458.38 Q1275.03 1453.77 1280.84 1453.77 Z" fill="#000000" fill-rule="nonzero" fill-opacity="1" /><path clip-path="url(#clip010)" d="M1293.33 1458.35 L1299.54 1458.35 L1299.54 1436.93 L1292.79 1438.28 L1292.79 1434.82 L1299.5 1433.47 L1303.3 1433.47 L1303.3 1458.35 L1309.51 1458.35 L1309.51 1461.55 L1293.33 1461.55 L1293.33 1458.35 Z" fill="#000000" fill-rule="nonzero" fill-opacity="1" /><path clip-path="url(#clip010)" d="M1328.69 1446.41 Q1331.42 1446.99 1332.94 1448.83 Q1334.49 1450.68 1334.49 1453.38 Q1334.49 1457.54 1331.63 1459.82 Q1328.77 1462.09 1323.5 1462.09 Q1321.73 1462.09 1319.85 1461.73 Q1317.99 1461.4 1316 1460.7 L1316 1457.03 Q1317.58 1457.95 1319.46 1458.42 Q1321.34 1458.89 1323.39 1458.89 Q1326.96 1458.89 1328.82 1457.48 Q1330.71 1456.07 1330.71 1453.38 Q1330.71 1450.9 1328.96 1449.51 Q1327.23 1448.1 1324.12 1448.1 L1320.85 1448.1 L1320.85 1444.98 L1324.27 1444.98 Q1327.08 1444.98 1328.56 1443.87 Q1330.05 1442.74 1330.05 1440.63 Q1330.05 1438.47 1328.5 1437.32 Q1326.98 1436.16 1324.12 1436.16 Q1322.56 1436.16 1320.77 1436.49 Q1318.99 1436.83 1316.84 1437.55 L1316.84 1434.16 Q1319.01 1433.56 1320.89 1433.26 Q1322.79 1432.96 1324.46 1432.96 Q1328.79 1432.96 1331.31 1434.93 Q1333.83 1436.89 1333.83 1440.24 Q1333.83 1442.57 1332.49 1444.19 Q1331.16 1445.79 1328.69 1446.41 Z" fill="#000000" fill-rule="nonzero" fill-opacity="1" /><path clip-path="url(#clip010)" d="M1452.11 1458.47 L1440.3 1476.92 L1452.11 1476.92 L1452.11 1458.47 M1450.88 1454.4 L1456.76 1454.4 L1456.76 1476.92 L1461.69 1476.92 L1461.69 1480.81 L1456.76 1480.81 L1456.76 1488.96 L1452.11 1488.96 L1452.11 1480.81 L1436.51 1480.81 L1436.51 1476.29 L1450.88 1454.4 Z" fill="#000000" fill-rule="nonzero" fill-opacity="1" /><path clip-path="url(#clip010)" d="M1469.42 1483.08 L1474.31 1483.08 L1474.31 1488.96 L1469.42 1488.96 L1469.42 1483.08 Z" fill="#000000" fill-rule="nonzero" fill-opacity="1" /><path clip-path="url(#clip010)" d="M1494.49 1457.48 Q1490.88 1457.48 1489.05 1461.04 Q1487.25 1464.58 1487.25 1471.71 Q1487.25 1478.82 1489.05 1482.38 Q1490.88 1485.92 1494.49 1485.92 Q1498.13 1485.92 1499.93 1482.38 Q1501.76 1478.82 1501.76 1471.71 Q1501.76 1464.58 1499.93 1461.04 Q1498.13 1457.48 1494.49 1457.48 M1494.49 1453.77 Q1500.3 1453.77 1503.36 1458.38 Q1506.44 1462.96 1506.44 1471.71 Q1506.44 1480.44 1503.36 1485.04 Q1500.3 1489.63 1494.49 1489.63 Q1488.68 1489.63 1485.6 1485.04 Q1482.55 1480.44 1482.55 1471.71 Q1482.55 1462.96 1485.6 1458.38 Q1488.68 1453.77 1494.49 1453.77 Z" fill="#000000" fill-rule="nonzero" fill-opacity="1" /><path clip-path="url(#clip010)" d="M1542.82 1463.49 L1532.25 1474.12 L1542.82 1484.7 L1540.07 1487.5 L1529.44 1476.87 L1518.82 1487.5 L1516.09 1484.7 L1526.64 1474.12 L1516.09 1463.49 L1518.82 1460.69 L1529.44 1471.32 L1540.07 1460.69 L1542.82 1463.49 Z" fill="#000000" fill-rule="nonzero" fill-opacity="1" /><path clip-path="url(#clip010)" d="M1555.19 1485.02 L1562.82 1485.02 L1562.82 1458.66 L1554.51 1460.32 L1554.51 1456.06 L1562.78 1454.4 L1567.45 1454.4 L1567.45 1485.02 L1575.09 1485.02 L1575.09 1488.96 L1555.19 1488.96 L1555.19 1485.02 Z" fill="#000000" fill-rule="nonzero" fill-opacity="1" /><path clip-path="url(#clip010)" d="M1594.54 1457.48 Q1590.93 1457.48 1589.1 1461.04 Q1587.29 1464.58 1587.29 1471.71 Q1587.29 1478.82 1589.1 1482.38 Q1590.93 1485.92 1594.54 1485.92 Q1598.17 1485.92 1599.98 1482.38 Q1601.81 1478.82 1601.81 1471.71 Q1601.81 1464.58 1599.98 1461.04 Q1598.17 1457.48 1594.54 1457.48 M1594.54 1453.77 Q1600.35 1453.77 1603.4 1458.38 Q1606.48 1462.96 1606.48 1471.71 Q1606.48 1480.44 1603.4 1485.04 Q1600.35 1489.63 1594.54 1489.63 Q1588.73 1489.63 1585.65 1485.04 Q1582.59 1480.44 1582.59 1471.71 Q1582.59 1462.96 1585.65 1458.38 Q1588.73 1453.77 1594.54 1453.77 Z" fill="#000000" fill-rule="nonzero" fill-opacity="1" /><path clip-path="url(#clip010)" d="M1607.03 1458.35 L1613.23 1458.35 L1613.23 1436.93 L1606.48 1438.28 L1606.48 1434.82 L1613.2 1433.47 L1617 1433.47 L1617 1458.35 L1623.2 1458.35 L1623.2 1461.55 L1607.03 1461.55 L1607.03 1458.35 Z" fill="#000000" fill-rule="nonzero" fill-opacity="1" /><path clip-path="url(#clip010)" d="M1642.39 1446.41 Q1645.11 1446.99 1646.64 1448.83 Q1648.18 1450.68 1648.18 1453.38 Q1648.18 1457.54 1645.32 1459.82 Q1642.46 1462.09 1637.19 1462.09 Q1635.43 1462.09 1633.55 1461.73 Q1631.68 1461.4 1629.69 1460.7 L1629.69 1457.03 Q1631.27 1457.95 1633.15 1458.42 Q1635.03 1458.89 1637.08 1458.89 Q1640.66 1458.89 1642.52 1457.48 Q1644.4 1456.07 1644.4 1453.38 Q1644.4 1450.9 1642.65 1449.51 Q1640.92 1448.1 1637.82 1448.1 L1634.54 1448.1 L1634.54 1444.98 L1637.97 1444.98 Q1640.77 1444.98 1642.25 1443.87 Q1643.74 1442.74 1643.74 1440.63 Q1643.74 1438.47 1642.2 1437.32 Q1640.67 1436.16 1637.82 1436.16 Q1636.25 1436.16 1634.47 1436.49 Q1632.68 1436.83 1630.54 1437.55 L1630.54 1434.16 Q1632.7 1433.56 1634.58 1433.26 Q1636.48 1432.96 1638.15 1432.96 Q1642.48 1432.96 1645 1434.93 Q1647.52 1436.89 1647.52 1440.24 Q1647.52 1442.57 1646.18 1444.19 Q1644.85 1445.79 1642.39 1446.41 Z" fill="#000000" fill-rule="nonzero" fill-opacity="1" /><path clip-path="url(#clip010)" d="M1751.68 1454.4 L1770.04 1454.4 L1770.04 1458.33 L1755.96 1458.33 L1755.96 1466.8 Q1756.98 1466.46 1758 1466.29 Q1759.02 1466.11 1760.04 1466.11 Q1765.82 1466.11 1769.2 1469.28 Q1772.58 1472.45 1772.58 1477.87 Q1772.58 1483.45 1769.11 1486.55 Q1765.64 1489.63 1759.32 1489.63 Q1757.14 1489.63 1754.87 1489.26 Q1752.63 1488.89 1750.22 1488.15 L1750.22 1483.45 Q1752.3 1484.58 1754.53 1485.14 Q1756.75 1485.69 1759.23 1485.69 Q1763.23 1485.69 1765.57 1483.59 Q1767.91 1481.48 1767.91 1477.87 Q1767.91 1474.26 1765.57 1472.15 Q1763.23 1470.04 1759.23 1470.04 Q1757.35 1470.04 1755.48 1470.46 Q1753.62 1470.88 1751.68 1471.76 L1751.68 1454.4 Z" fill="#000000" fill-rule="nonzero" fill-opacity="1" /><path clip-path="url(#clip010)" d="M1781.8 1483.08 L1786.68 1483.08 L1786.68 1488.96 L1781.8 1488.96 L1781.8 1483.08 Z" fill="#000000" fill-rule="nonzero" fill-opacity="1" /><path clip-path="url(#clip010)" d="M1806.86 1457.48 Q1803.25 1457.48 1801.42 1461.04 Q1799.62 1464.58 1799.62 1471.71 Q1799.62 1478.82 1801.42 1482.38 Q1803.25 1485.92 1806.86 1485.92 Q1810.5 1485.92 1812.3 1482.38 Q1814.13 1478.82 1814.13 1471.71 Q1814.13 1464.58 1812.3 1461.04 Q1810.5 1457.48 1806.86 1457.48 M1806.86 1453.77 Q1812.67 1453.77 1815.73 1458.38 Q1818.81 1462.96 1818.81 1471.71 Q1818.81 1480.44 1815.73 1485.04 Q1812.67 1489.63 1806.86 1489.63 Q1801.05 1489.63 1797.98 1485.04 Q1794.92 1480.44 1794.92 1471.71 Q1794.92 1462.96 1797.98 1458.38 Q1801.05 1453.77 1806.86 1453.77 Z" fill="#000000" fill-rule="nonzero" fill-opacity="1" /><path clip-path="url(#clip010)" d="M1855.2 1463.49 L1844.62 1474.12 L1855.2 1484.7 L1852.44 1487.5 L1841.82 1476.87 L1831.19 1487.5 L1828.46 1484.7 L1839.02 1474.12 L1828.46 1463.49 L1831.19 1460.69 L1841.82 1471.32 L1852.44 1460.69 L1855.2 1463.49 Z" fill="#000000" fill-rule="nonzero" fill-opacity="1" /><path clip-path="url(#clip010)" d="M1867.56 1485.02 L1875.2 1485.02 L1875.2 1458.66 L1866.89 1460.32 L1866.89 1456.06 L1875.15 1454.4 L1879.83 1454.4 L1879.83 1485.02 L1887.47 1485.02 L1887.47 1488.96 L1867.56 1488.96 L1867.56 1485.02 Z" fill="#000000" fill-rule="nonzero" fill-opacity="1" /><path clip-path="url(#clip010)" d="M1906.91 1457.48 Q1903.3 1457.48 1901.47 1461.04 Q1899.66 1464.58 1899.66 1471.71 Q1899.66 1478.82 1901.47 1482.38 Q1903.3 1485.92 1906.91 1485.92 Q1910.54 1485.92 1912.35 1482.38 Q1914.18 1478.82 1914.18 1471.71 Q1914.18 1464.58 1912.35 1461.04 Q1910.54 1457.48 1906.91 1457.48 M1906.91 1453.77 Q1912.72 1453.77 1915.78 1458.38 Q1918.85 1462.96 1918.85 1471.71 Q1918.85 1480.44 1915.78 1485.04 Q1912.72 1489.63 1906.91 1489.63 Q1901.1 1489.63 1898.02 1485.04 Q1894.97 1480.44 1894.97 1471.71 Q1894.97 1462.96 1898.02 1458.38 Q1901.1 1453.77 1906.91 1453.77 Z" fill="#000000" fill-rule="nonzero" fill-opacity="1" /><path clip-path="url(#clip010)" d="M1919.4 1458.35 L1925.61 1458.35 L1925.61 1436.93 L1918.85 1438.28 L1918.85 1434.82 L1925.57 1433.47 L1929.37 1433.47 L1929.37 1458.35 L1935.57 1458.35 L1935.57 1461.55 L1919.4 1461.55 L1919.4 1458.35 Z" fill="#000000" fill-rule="nonzero" fill-opacity="1" /><path clip-path="url(#clip010)" d="M1954.76 1446.41 Q1957.49 1446.99 1959.01 1448.83 Q1960.55 1450.68 1960.55 1453.38 Q1960.55 1457.54 1957.69 1459.82 Q1954.83 1462.09 1949.57 1462.09 Q1947.8 1462.09 1945.92 1461.73 Q1944.06 1461.4 1942.06 1460.7 L1942.06 1457.03 Q1943.64 1457.95 1945.52 1458.42 Q1947.4 1458.89 1949.45 1458.89 Q1953.03 1458.89 1954.89 1457.48 Q1956.77 1456.07 1956.77 1453.38 Q1956.77 1450.9 1955.02 1449.51 Q1953.29 1448.1 1950.19 1448.1 L1946.92 1448.1 L1946.92 1444.98 L1950.34 1444.98 Q1953.14 1444.98 1954.63 1443.87 Q1956.11 1442.74 1956.11 1440.63 Q1956.11 1438.47 1954.57 1437.32 Q1953.05 1436.16 1950.19 1436.16 Q1948.63 1436.16 1946.84 1436.49 Q1945.05 1436.83 1942.91 1437.55 L1942.91 1434.16 Q1945.07 1433.56 1946.95 1433.26 Q1948.85 1432.96 1950.53 1432.96 Q1954.85 1432.96 1957.37 1434.93 Q1959.89 1436.89 1959.89 1440.24 Q1959.89 1442.57 1958.56 1444.19 Q1957.22 1445.79 1954.76 1446.41 Z" fill="#000000" fill-rule="nonzero" fill-opacity="1" /><path clip-path="url(#clip010)" d="M2075.43 1469.81 Q2072.28 1469.81 2070.43 1471.97 Q2068.6 1474.12 2068.6 1477.87 Q2068.6 1481.6 2070.43 1483.77 Q2072.28 1485.92 2075.43 1485.92 Q2078.58 1485.92 2080.41 1483.77 Q2082.26 1481.6 2082.26 1477.87 Q2082.26 1474.12 2080.41 1471.97 Q2078.58 1469.81 2075.43 1469.81 M2084.71 1455.16 L2084.71 1459.42 Q2082.95 1458.59 2081.15 1458.15 Q2079.36 1457.71 2077.61 1457.71 Q2072.98 1457.71 2070.52 1460.83 Q2068.09 1463.96 2067.74 1470.28 Q2069.11 1468.26 2071.17 1467.2 Q2073.23 1466.11 2075.71 1466.11 Q2080.92 1466.11 2083.93 1469.28 Q2086.96 1472.43 2086.96 1477.87 Q2086.96 1483.19 2083.81 1486.41 Q2080.66 1489.63 2075.43 1489.63 Q2069.43 1489.63 2066.26 1485.04 Q2063.09 1480.44 2063.09 1471.71 Q2063.09 1463.52 2066.98 1458.66 Q2070.87 1453.77 2077.42 1453.77 Q2079.18 1453.77 2080.96 1454.12 Q2082.77 1454.47 2084.71 1455.16 Z" fill="#000000" fill-rule="nonzero" fill-opacity="1" /><path clip-path="url(#clip010)" d="M2095.01 1483.08 L2099.9 1483.08 L2099.9 1488.96 L2095.01 1488.96 L2095.01 1483.08 Z" fill="#000000" fill-rule="nonzero" fill-opacity="1" /><path clip-path="url(#clip010)" d="M2120.08 1457.48 Q2116.47 1457.48 2114.64 1461.04 Q2112.84 1464.58 2112.84 1471.71 Q2112.84 1478.82 2114.64 1482.38 Q2116.47 1485.92 2120.08 1485.92 Q2123.72 1485.92 2125.52 1482.38 Q2127.35 1478.82 2127.35 1471.71 Q2127.35 1464.58 2125.52 1461.04 Q2123.72 1457.48 2120.08 1457.48 M2120.08 1453.77 Q2125.89 1453.77 2128.95 1458.38 Q2132.03 1462.96 2132.03 1471.71 Q2132.03 1480.44 2128.95 1485.04 Q2125.89 1489.63 2120.08 1489.63 Q2114.27 1489.63 2111.19 1485.04 Q2108.14 1480.44 2108.14 1471.71 Q2108.14 1462.96 2111.19 1458.38 Q2114.27 1453.77 2120.08 1453.77 Z" fill="#000000" fill-rule="nonzero" fill-opacity="1" /><path clip-path="url(#clip010)" d="M2168.42 1463.49 L2157.84 1474.12 L2168.42 1484.7 L2165.66 1487.5 L2155.04 1476.87 L2144.41 1487.5 L2141.68 1484.7 L2152.23 1474.12 L2141.68 1463.49 L2144.41 1460.69 L2155.04 1471.32 L2165.66 1460.69 L2168.42 1463.49 Z" fill="#000000" fill-rule="nonzero" fill-opacity="1" /><path clip-path="url(#clip010)" d="M2180.78 1485.02 L2188.42 1485.02 L2188.42 1458.66 L2180.11 1460.32 L2180.11 1456.06 L2188.37 1454.4 L2193.04 1454.4 L2193.04 1485.02 L2200.68 1485.02 L2200.68 1488.96 L2180.78 1488.96 L2180.78 1485.02 Z" fill="#000000" fill-rule="nonzero" fill-opacity="1" /><path clip-path="url(#clip010)" d="M2220.13 1457.48 Q2216.52 1457.48 2214.69 1461.04 Q2212.88 1464.58 2212.88 1471.71 Q2212.88 1478.82 2214.69 1482.38 Q2216.52 1485.92 2220.13 1485.92 Q2223.76 1485.92 2225.57 1482.38 Q2227.4 1478.82 2227.4 1471.71 Q2227.4 1464.58 2225.57 1461.04 Q2223.76 1457.48 2220.13 1457.48 M2220.13 1453.77 Q2225.94 1453.77 2228.99 1458.38 Q2232.07 1462.96 2232.07 1471.71 Q2232.07 1480.44 2228.99 1485.04 Q2225.94 1489.63 2220.13 1489.63 Q2214.32 1489.63 2211.24 1485.04 Q2208.18 1480.44 2208.18 1471.71 Q2208.18 1462.96 2211.24 1458.38 Q2214.32 1453.77 2220.13 1453.77 Z" fill="#000000" fill-rule="nonzero" fill-opacity="1" /><path clip-path="url(#clip010)" d="M2232.62 1458.35 L2238.82 1458.35 L2238.82 1436.93 L2232.07 1438.28 L2232.07 1434.82 L2238.79 1433.47 L2242.59 1433.47 L2242.59 1458.35 L2248.79 1458.35 L2248.79 1461.55 L2232.62 1461.55 L2232.62 1458.35 Z" fill="#000000" fill-rule="nonzero" fill-opacity="1" /><path clip-path="url(#clip010)" d="M2267.98 1446.41 Q2270.7 1446.99 2272.23 1448.83 Q2273.77 1450.68 2273.77 1453.38 Q2273.77 1457.54 2270.91 1459.82 Q2268.05 1462.09 2262.79 1462.09 Q2261.02 1462.09 2259.14 1461.73 Q2257.27 1461.4 2255.28 1460.7 L2255.28 1457.03 Q2256.86 1457.95 2258.74 1458.42 Q2260.62 1458.89 2262.67 1458.89 Q2266.25 1458.89 2268.11 1457.48 Q2269.99 1456.07 2269.99 1453.38 Q2269.99 1450.9 2268.24 1449.51 Q2266.51 1448.1 2263.41 1448.1 L2260.13 1448.1 L2260.13 1444.98 L2263.56 1444.98 Q2266.36 1444.98 2267.84 1443.87 Q2269.33 1442.74 2269.33 1440.63 Q2269.33 1438.47 2267.79 1437.32 Q2266.26 1436.16 2263.41 1436.16 Q2261.85 1436.16 2260.06 1436.49 Q2258.27 1436.83 2256.13 1437.55 L2256.13 1434.16 Q2258.29 1433.56 2260.17 1433.26 Q2262.07 1432.96 2263.74 1432.96 Q2268.07 1432.96 2270.59 1434.93 Q2273.11 1436.89 2273.11 1440.24 Q2273.11 1442.57 2271.78 1444.19 Q2270.44 1445.79 2267.98 1446.41 Z" fill="#000000" fill-rule="nonzero" fill-opacity="1" /><path clip-path="url(#clip010)" d="M1235.71 1545.51 L1226.45 1545.51 L1223.78 1556.14 L1233.1 1556.14 L1235.71 1545.51 M1230.94 1527.4 L1227.63 1540.61 L1236.92 1540.61 L1240.27 1527.4 L1245.36 1527.4 L1242.08 1540.61 L1252.01 1540.61 L1252.01 1545.51 L1240.84 1545.51 L1238.23 1556.14 L1248.35 1556.14 L1248.35 1561.01 L1236.99 1561.01 L1233.68 1574.19 L1228.58 1574.19 L1231.86 1561.01 L1222.54 1561.01 L1219.26 1574.19 L1214.13 1574.19 L1217.44 1561.01 L1207.42 1561.01 L1207.42 1556.14 L1218.62 1556.14 L1221.3 1545.51 L1211.05 1545.51 L1211.05 1540.61 L1222.54 1540.61 L1225.78 1527.4 L1230.94 1527.4 Z" fill="#000000" fill-rule="nonzero" fill-opacity="1" /><path clip-path="url(#clip010)" d="M1298.99 1530.33 L1298.99 1537.11 Q1295.74 1534.08 1292.05 1532.59 Q1288.39 1531.09 1284.25 1531.09 Q1276.1 1531.09 1271.78 1536.09 Q1267.45 1541.05 1267.45 1550.47 Q1267.45 1559.86 1271.78 1564.86 Q1276.1 1569.82 1284.25 1569.82 Q1288.39 1569.82 1292.05 1568.33 Q1295.74 1566.83 1298.99 1563.81 L1298.99 1570.53 Q1295.62 1572.82 1291.83 1573.96 Q1288.07 1575.11 1283.87 1575.11 Q1273.08 1575.11 1266.87 1568.52 Q1260.67 1561.9 1260.67 1550.47 Q1260.67 1539.01 1266.87 1532.43 Q1273.08 1525.81 1283.87 1525.81 Q1288.14 1525.81 1291.89 1526.95 Q1295.68 1528.07 1298.99 1530.33 Z" fill="#000000" fill-rule="nonzero" fill-opacity="1" /><path clip-path="url(#clip010)" d="M1339.16 1554.9 L1339.16 1557.76 L1312.23 1557.76 Q1312.61 1563.81 1315.86 1566.99 Q1319.14 1570.14 1324.96 1570.14 Q1328.33 1570.14 1331.49 1569.32 Q1334.67 1568.49 1337.79 1566.83 L1337.79 1572.37 Q1334.64 1573.71 1331.33 1574.41 Q1328.02 1575.11 1324.61 1575.11 Q1316.08 1575.11 1311.08 1570.14 Q1306.12 1565.18 1306.12 1556.71 Q1306.12 1547.96 1310.83 1542.83 Q1315.57 1537.68 1323.59 1537.68 Q1330.79 1537.68 1334.96 1542.33 Q1339.16 1546.94 1339.16 1554.9 M1333.3 1553.18 Q1333.24 1548.37 1330.59 1545.51 Q1327.98 1542.64 1323.66 1542.64 Q1318.75 1542.64 1315.79 1545.41 Q1312.87 1548.18 1312.42 1553.21 L1333.3 1553.18 Z" fill="#000000" fill-rule="nonzero" fill-opacity="1" /><path clip-path="url(#clip010)" d="M1348.77 1524.66 L1354.63 1524.66 L1354.63 1574.19 L1348.77 1574.19 L1348.77 1524.66 Z" fill="#000000" fill-rule="nonzero" fill-opacity="1" /><path clip-path="url(#clip010)" d="M1366.88 1524.66 L1372.74 1524.66 L1372.74 1574.19 L1366.88 1574.19 L1366.88 1524.66 Z" fill="#000000" fill-rule="nonzero" fill-opacity="1" /><path clip-path="url(#clip010)" d="M1407.72 1539.59 L1407.72 1545.13 Q1405.23 1543.85 1402.56 1543.22 Q1399.89 1542.58 1397.02 1542.58 Q1392.66 1542.58 1390.46 1543.92 Q1388.3 1545.25 1388.3 1547.93 Q1388.3 1549.96 1389.86 1551.14 Q1391.42 1552.29 1396.13 1553.34 L1398.13 1553.78 Q1404.37 1555.12 1406.98 1557.57 Q1409.62 1559.99 1409.62 1564.35 Q1409.62 1569.32 1405.68 1572.21 Q1401.76 1575.11 1394.89 1575.11 Q1392.02 1575.11 1388.9 1574.54 Q1385.82 1573.99 1382.38 1572.88 L1382.38 1566.83 Q1385.63 1568.52 1388.78 1569.38 Q1391.93 1570.21 1395.02 1570.21 Q1399.15 1570.21 1401.38 1568.81 Q1403.61 1567.37 1403.61 1564.8 Q1403.61 1562.41 1401.99 1561.14 Q1400.39 1559.86 1394.95 1558.68 L1392.91 1558.21 Q1387.47 1557.06 1385.05 1554.71 Q1382.63 1552.32 1382.63 1548.18 Q1382.63 1543.15 1386.2 1540.42 Q1389.76 1537.68 1396.32 1537.68 Q1399.57 1537.68 1402.43 1538.16 Q1405.3 1538.63 1407.72 1539.59 Z" fill="#000000" fill-rule="nonzero" fill-opacity="1" /><polyline clip-path="url(#clip010)" style="stroke:#000000; stroke-linecap:round; stroke-linejoin:round; stroke-width:4; stroke-opacity:1; fill:none" points="264.287,1410.9 264.287,47.2441 "/>
<polyline clip-path="url(#clip010)" style="stroke:#000000; stroke-linecap:round; stroke-linejoin:round; stroke-width:4; stroke-opacity:1; fill:none" points="264.287,1224.75 283.185,1224.75 "/>
<polyline clip-path="url(#clip010)" style="stroke:#000000; stroke-linecap:round; stroke-linejoin:round; stroke-width:4; stroke-opacity:1; fill:none" points="264.287,1015.16 283.185,1015.16 "/>
<polyline clip-path="url(#clip010)" style="stroke:#000000; stroke-linecap:round; stroke-linejoin:round; stroke-width:4; stroke-opacity:1; fill:none" points="264.287,805.571 283.185,805.571 "/>
<polyline clip-path="url(#clip010)" style="stroke:#000000; stroke-linecap:round; stroke-linejoin:round; stroke-width:4; stroke-opacity:1; fill:none" points="264.287,595.981 283.185,595.981 "/>
<polyline clip-path="url(#clip010)" style="stroke:#000000; stroke-linecap:round; stroke-linejoin:round; stroke-width:4; stroke-opacity:1; fill:none" points="264.287,386.39 283.185,386.39 "/>
<polyline clip-path="url(#clip010)" style="stroke:#000000; stroke-linecap:round; stroke-linejoin:round; stroke-width:4; stroke-opacity:1; fill:none" points="264.287,176.8 283.185,176.8 "/>
<path clip-path="url(#clip010)" d="M146.066 1207.47 L164.422 1207.47 L164.422 1211.41 L150.348 1211.41 L150.348 1219.88 Q151.366 1219.53 152.385 1219.37 Q153.403 1219.18 154.422 1219.18 Q160.209 1219.18 163.589 1222.36 Q166.968 1225.53 166.968 1230.94 Q166.968 1236.52 163.496 1239.62 Q160.024 1242.7 153.704 1242.7 Q151.528 1242.7 149.26 1242.33 Q147.015 1241.96 144.607 1241.22 L144.607 1236.52 Q146.691 1237.66 148.913 1238.21 Q151.135 1238.77 153.612 1238.77 Q157.616 1238.77 159.954 1236.66 Q162.292 1234.55 162.292 1230.94 Q162.292 1227.33 159.954 1225.23 Q157.616 1223.12 153.612 1223.12 Q151.737 1223.12 149.862 1223.54 Q148.01 1223.95 146.066 1224.83 L146.066 1207.47 Z" fill="#000000" fill-rule="nonzero" fill-opacity="1" /><path clip-path="url(#clip010)" d="M186.181 1210.55 Q182.57 1210.55 180.741 1214.11 Q178.936 1217.66 178.936 1224.79 Q178.936 1231.89 180.741 1235.46 Q182.57 1239 186.181 1239 Q189.815 1239 191.621 1235.46 Q193.45 1231.89 193.45 1224.79 Q193.45 1217.66 191.621 1214.11 Q189.815 1210.55 186.181 1210.55 M186.181 1206.85 Q191.991 1206.85 195.047 1211.45 Q198.125 1216.04 198.125 1224.79 Q198.125 1233.51 195.047 1238.12 Q191.991 1242.7 186.181 1242.7 Q180.371 1242.7 177.292 1238.12 Q174.237 1233.51 174.237 1224.79 Q174.237 1216.04 177.292 1211.45 Q180.371 1206.85 186.181 1206.85 Z" fill="#000000" fill-rule="nonzero" fill-opacity="1" /><path clip-path="url(#clip010)" d="M216.343 1210.55 Q212.732 1210.55 210.903 1214.11 Q209.098 1217.66 209.098 1224.79 Q209.098 1231.89 210.903 1235.46 Q212.732 1239 216.343 1239 Q219.977 1239 221.783 1235.46 Q223.611 1231.89 223.611 1224.79 Q223.611 1217.66 221.783 1214.11 Q219.977 1210.55 216.343 1210.55 M216.343 1206.85 Q222.153 1206.85 225.209 1211.45 Q228.287 1216.04 228.287 1224.79 Q228.287 1233.51 225.209 1238.12 Q222.153 1242.7 216.343 1242.7 Q210.533 1242.7 207.454 1238.12 Q204.399 1233.51 204.399 1224.79 Q204.399 1216.04 207.454 1211.45 Q210.533 1206.85 216.343 1206.85 Z" fill="#000000" fill-rule="nonzero" fill-opacity="1" /><path clip-path="url(#clip010)" d="M116.668 1028.51 L124.306 1028.51 L124.306 1002.14 L115.996 1003.81 L115.996 999.548 L124.26 997.881 L128.936 997.881 L128.936 1028.51 L136.575 1028.51 L136.575 1032.44 L116.668 1032.44 L116.668 1028.51 Z" fill="#000000" fill-rule="nonzero" fill-opacity="1" /><path clip-path="url(#clip010)" d="M156.019 1000.96 Q152.408 1000.96 150.579 1004.52 Q148.774 1008.07 148.774 1015.2 Q148.774 1022.3 150.579 1025.87 Q152.408 1029.41 156.019 1029.41 Q159.653 1029.41 161.459 1025.87 Q163.288 1022.3 163.288 1015.2 Q163.288 1008.07 161.459 1004.52 Q159.653 1000.96 156.019 1000.96 M156.019 997.256 Q161.829 997.256 164.885 1001.86 Q167.964 1006.45 167.964 1015.2 Q167.964 1023.92 164.885 1028.53 Q161.829 1033.11 156.019 1033.11 Q150.209 1033.11 147.13 1028.53 Q144.075 1023.92 144.075 1015.2 Q144.075 1006.45 147.13 1001.86 Q150.209 997.256 156.019 997.256 Z" fill="#000000" fill-rule="nonzero" fill-opacity="1" /><path clip-path="url(#clip010)" d="M186.181 1000.96 Q182.57 1000.96 180.741 1004.52 Q178.936 1008.07 178.936 1015.2 Q178.936 1022.3 180.741 1025.87 Q182.57 1029.41 186.181 1029.41 Q189.815 1029.41 191.621 1025.87 Q193.45 1022.3 193.45 1015.2 Q193.45 1008.07 191.621 1004.52 Q189.815 1000.96 186.181 1000.96 M186.181 997.256 Q191.991 997.256 195.047 1001.86 Q198.125 1006.45 198.125 1015.2 Q198.125 1023.92 195.047 1028.53 Q191.991 1033.11 186.181 1033.11 Q180.371 1033.11 177.292 1028.53 Q174.237 1023.92 174.237 1015.2 Q174.237 1006.45 177.292 1001.86 Q180.371 997.256 186.181 997.256 Z" fill="#000000" fill-rule="nonzero" fill-opacity="1" /><path clip-path="url(#clip010)" d="M216.343 1000.96 Q212.732 1000.96 210.903 1004.52 Q209.098 1008.07 209.098 1015.2 Q209.098 1022.3 210.903 1025.87 Q212.732 1029.41 216.343 1029.41 Q219.977 1029.41 221.783 1025.87 Q223.611 1022.3 223.611 1015.2 Q223.611 1008.07 221.783 1004.52 Q219.977 1000.96 216.343 1000.96 M216.343 997.256 Q222.153 997.256 225.209 1001.86 Q228.287 1006.45 228.287 1015.2 Q228.287 1023.92 225.209 1028.53 Q222.153 1033.11 216.343 1033.11 Q210.533 1033.11 207.454 1028.53 Q204.399 1023.92 204.399 1015.2 Q204.399 1006.45 207.454 1001.86 Q210.533 997.256 216.343 997.256 Z" fill="#000000" fill-rule="nonzero" fill-opacity="1" /><path clip-path="url(#clip010)" d="M116.668 818.916 L124.306 818.916 L124.306 792.55 L115.996 794.217 L115.996 789.957 L124.26 788.291 L128.936 788.291 L128.936 818.916 L136.575 818.916 L136.575 822.851 L116.668 822.851 L116.668 818.916 Z" fill="#000000" fill-rule="nonzero" fill-opacity="1" /><path clip-path="url(#clip010)" d="M146.066 788.291 L164.422 788.291 L164.422 792.226 L150.348 792.226 L150.348 800.698 Q151.366 800.351 152.385 800.189 Q153.403 800.004 154.422 800.004 Q160.209 800.004 163.589 803.175 Q166.968 806.346 166.968 811.763 Q166.968 817.342 163.496 820.443 Q160.024 823.522 153.704 823.522 Q151.528 823.522 149.26 823.152 Q147.015 822.781 144.607 822.041 L144.607 817.342 Q146.691 818.476 148.913 819.031 Q151.135 819.587 153.612 819.587 Q157.616 819.587 159.954 817.48 Q162.292 815.374 162.292 811.763 Q162.292 808.152 159.954 806.045 Q157.616 803.939 153.612 803.939 Q151.737 803.939 149.862 804.356 Q148.01 804.772 146.066 805.652 L146.066 788.291 Z" fill="#000000" fill-rule="nonzero" fill-opacity="1" /><path clip-path="url(#clip010)" d="M186.181 791.369 Q182.57 791.369 180.741 794.934 Q178.936 798.476 178.936 805.606 Q178.936 812.712 180.741 816.277 Q182.57 819.818 186.181 819.818 Q189.815 819.818 191.621 816.277 Q193.45 812.712 193.45 805.606 Q193.45 798.476 191.621 794.934 Q189.815 791.369 186.181 791.369 M186.181 787.666 Q191.991 787.666 195.047 792.272 Q198.125 796.856 198.125 805.606 Q198.125 814.332 195.047 818.939 Q191.991 823.522 186.181 823.522 Q180.371 823.522 177.292 818.939 Q174.237 814.332 174.237 805.606 Q174.237 796.856 177.292 792.272 Q180.371 787.666 186.181 787.666 Z" fill="#000000" fill-rule="nonzero" fill-opacity="1" /><path clip-path="url(#clip010)" d="M216.343 791.369 Q212.732 791.369 210.903 794.934 Q209.098 798.476 209.098 805.606 Q209.098 812.712 210.903 816.277 Q212.732 819.818 216.343 819.818 Q219.977 819.818 221.783 816.277 Q223.611 812.712 223.611 805.606 Q223.611 798.476 221.783 794.934 Q219.977 791.369 216.343 791.369 M216.343 787.666 Q222.153 787.666 225.209 792.272 Q228.287 796.856 228.287 805.606 Q228.287 814.332 225.209 818.939 Q222.153 823.522 216.343 823.522 Q210.533 823.522 207.454 818.939 Q204.399 814.332 204.399 805.606 Q204.399 796.856 207.454 792.272 Q210.533 787.666 216.343 787.666 Z" fill="#000000" fill-rule="nonzero" fill-opacity="1" /><path clip-path="url(#clip010)" d="M119.885 609.325 L136.204 609.325 L136.204 613.261 L114.26 613.261 L114.26 609.325 Q116.922 606.571 121.505 601.941 Q126.112 597.288 127.292 595.946 Q129.538 593.423 130.417 591.687 Q131.32 589.927 131.32 588.238 Q131.32 585.483 129.376 583.747 Q127.455 582.011 124.353 582.011 Q122.154 582.011 119.7 582.775 Q117.269 583.539 114.492 585.089 L114.492 580.367 Q117.316 579.233 119.769 578.654 Q122.223 578.076 124.26 578.076 Q129.63 578.076 132.825 580.761 Q136.019 583.446 136.019 587.937 Q136.019 590.066 135.209 591.988 Q134.422 593.886 132.316 596.478 Q131.737 597.15 128.635 600.367 Q125.533 603.562 119.885 609.325 Z" fill="#000000" fill-rule="nonzero" fill-opacity="1" /><path clip-path="url(#clip010)" d="M156.019 581.779 Q152.408 581.779 150.579 585.344 Q148.774 588.886 148.774 596.015 Q148.774 603.122 150.579 606.687 Q152.408 610.228 156.019 610.228 Q159.653 610.228 161.459 606.687 Q163.288 603.122 163.288 596.015 Q163.288 588.886 161.459 585.344 Q159.653 581.779 156.019 581.779 M156.019 578.076 Q161.829 578.076 164.885 582.682 Q167.964 587.265 167.964 596.015 Q167.964 604.742 164.885 609.349 Q161.829 613.932 156.019 613.932 Q150.209 613.932 147.13 609.349 Q144.075 604.742 144.075 596.015 Q144.075 587.265 147.13 582.682 Q150.209 578.076 156.019 578.076 Z" fill="#000000" fill-rule="nonzero" fill-opacity="1" /><path clip-path="url(#clip010)" d="M186.181 581.779 Q182.57 581.779 180.741 585.344 Q178.936 588.886 178.936 596.015 Q178.936 603.122 180.741 606.687 Q182.57 610.228 186.181 610.228 Q189.815 610.228 191.621 606.687 Q193.45 603.122 193.45 596.015 Q193.45 588.886 191.621 585.344 Q189.815 581.779 186.181 581.779 M186.181 578.076 Q191.991 578.076 195.047 582.682 Q198.125 587.265 198.125 596.015 Q198.125 604.742 195.047 609.349 Q191.991 613.932 186.181 613.932 Q180.371 613.932 177.292 609.349 Q174.237 604.742 174.237 596.015 Q174.237 587.265 177.292 582.682 Q180.371 578.076 186.181 578.076 Z" fill="#000000" fill-rule="nonzero" fill-opacity="1" /><path clip-path="url(#clip010)" d="M216.343 581.779 Q212.732 581.779 210.903 585.344 Q209.098 588.886 209.098 596.015 Q209.098 603.122 210.903 606.687 Q212.732 610.228 216.343 610.228 Q219.977 610.228 221.783 606.687 Q223.611 603.122 223.611 596.015 Q223.611 588.886 221.783 585.344 Q219.977 581.779 216.343 581.779 M216.343 578.076 Q222.153 578.076 225.209 582.682 Q228.287 587.265 228.287 596.015 Q228.287 604.742 225.209 609.349 Q222.153 613.932 216.343 613.932 Q210.533 613.932 207.454 609.349 Q204.399 604.742 204.399 596.015 Q204.399 587.265 207.454 582.682 Q210.533 578.076 216.343 578.076 Z" fill="#000000" fill-rule="nonzero" fill-opacity="1" /><path clip-path="url(#clip010)" d="M119.885 399.735 L136.204 399.735 L136.204 403.67 L114.26 403.67 L114.26 399.735 Q116.922 396.981 121.505 392.351 Q126.112 387.698 127.292 386.356 Q129.538 383.833 130.417 382.096 Q131.32 380.337 131.32 378.647 Q131.32 375.893 129.376 374.157 Q127.455 372.421 124.353 372.421 Q122.154 372.421 119.7 373.184 Q117.269 373.948 114.492 375.499 L114.492 370.777 Q117.316 369.643 119.769 369.064 Q122.223 368.485 124.26 368.485 Q129.63 368.485 132.825 371.171 Q136.019 373.856 136.019 378.346 Q136.019 380.476 135.209 382.397 Q134.422 384.295 132.316 386.888 Q131.737 387.559 128.635 390.777 Q125.533 393.971 119.885 399.735 Z" fill="#000000" fill-rule="nonzero" fill-opacity="1" /><path clip-path="url(#clip010)" d="M146.066 369.11 L164.422 369.11 L164.422 373.046 L150.348 373.046 L150.348 381.518 Q151.366 381.171 152.385 381.008 Q153.403 380.823 154.422 380.823 Q160.209 380.823 163.589 383.995 Q166.968 387.166 166.968 392.582 Q166.968 398.161 163.496 401.263 Q160.024 404.342 153.704 404.342 Q151.528 404.342 149.26 403.971 Q147.015 403.601 144.607 402.86 L144.607 398.161 Q146.691 399.295 148.913 399.851 Q151.135 400.407 153.612 400.407 Q157.616 400.407 159.954 398.3 Q162.292 396.194 162.292 392.582 Q162.292 388.971 159.954 386.865 Q157.616 384.758 153.612 384.758 Q151.737 384.758 149.862 385.175 Q148.01 385.592 146.066 386.471 L146.066 369.11 Z" fill="#000000" fill-rule="nonzero" fill-opacity="1" /><path clip-path="url(#clip010)" d="M186.181 372.189 Q182.57 372.189 180.741 375.754 Q178.936 379.296 178.936 386.425 Q178.936 393.532 180.741 397.096 Q182.57 400.638 186.181 400.638 Q189.815 400.638 191.621 397.096 Q193.45 393.532 193.45 386.425 Q193.45 379.296 191.621 375.754 Q189.815 372.189 186.181 372.189 M186.181 368.485 Q191.991 368.485 195.047 373.092 Q198.125 377.675 198.125 386.425 Q198.125 395.152 195.047 399.758 Q191.991 404.342 186.181 404.342 Q180.371 404.342 177.292 399.758 Q174.237 395.152 174.237 386.425 Q174.237 377.675 177.292 373.092 Q180.371 368.485 186.181 368.485 Z" fill="#000000" fill-rule="nonzero" fill-opacity="1" /><path clip-path="url(#clip010)" d="M216.343 372.189 Q212.732 372.189 210.903 375.754 Q209.098 379.296 209.098 386.425 Q209.098 393.532 210.903 397.096 Q212.732 400.638 216.343 400.638 Q219.977 400.638 221.783 397.096 Q223.611 393.532 223.611 386.425 Q223.611 379.296 221.783 375.754 Q219.977 372.189 216.343 372.189 M216.343 368.485 Q222.153 368.485 225.209 373.092 Q228.287 377.675 228.287 386.425 Q228.287 395.152 225.209 399.758 Q222.153 404.342 216.343 404.342 Q210.533 404.342 207.454 399.758 Q204.399 395.152 204.399 386.425 Q204.399 377.675 207.454 373.092 Q210.533 368.485 216.343 368.485 Z" fill="#000000" fill-rule="nonzero" fill-opacity="1" /><path clip-path="url(#clip010)" d="M130.024 175.446 Q133.38 176.164 135.255 178.432 Q137.154 180.701 137.154 184.034 Q137.154 189.15 133.635 191.951 Q130.117 194.751 123.635 194.751 Q121.459 194.751 119.144 194.312 Q116.853 193.895 114.399 193.039 L114.399 188.525 Q116.343 189.659 118.658 190.238 Q120.973 190.816 123.496 190.816 Q127.894 190.816 130.186 189.08 Q132.501 187.344 132.501 184.034 Q132.501 180.978 130.348 179.265 Q128.218 177.529 124.399 177.529 L120.371 177.529 L120.371 173.687 L124.584 173.687 Q128.033 173.687 129.862 172.321 Q131.691 170.932 131.691 168.34 Q131.691 165.678 129.792 164.266 Q127.917 162.83 124.399 162.83 Q122.478 162.83 120.279 163.247 Q118.08 163.664 115.441 164.543 L115.441 160.377 Q118.103 159.636 120.418 159.266 Q122.755 158.895 124.816 158.895 Q130.14 158.895 133.242 161.326 Q136.343 163.733 136.343 167.853 Q136.343 170.724 134.7 172.715 Q133.056 174.682 130.024 175.446 Z" fill="#000000" fill-rule="nonzero" fill-opacity="1" /><path clip-path="url(#clip010)" d="M156.019 162.599 Q152.408 162.599 150.579 166.164 Q148.774 169.705 148.774 176.835 Q148.774 183.941 150.579 187.506 Q152.408 191.048 156.019 191.048 Q159.653 191.048 161.459 187.506 Q163.288 183.941 163.288 176.835 Q163.288 169.705 161.459 166.164 Q159.653 162.599 156.019 162.599 M156.019 158.895 Q161.829 158.895 164.885 163.502 Q167.964 168.085 167.964 176.835 Q167.964 185.562 164.885 190.168 Q161.829 194.751 156.019 194.751 Q150.209 194.751 147.13 190.168 Q144.075 185.562 144.075 176.835 Q144.075 168.085 147.13 163.502 Q150.209 158.895 156.019 158.895 Z" fill="#000000" fill-rule="nonzero" fill-opacity="1" /><path clip-path="url(#clip010)" d="M186.181 162.599 Q182.57 162.599 180.741 166.164 Q178.936 169.705 178.936 176.835 Q178.936 183.941 180.741 187.506 Q182.57 191.048 186.181 191.048 Q189.815 191.048 191.621 187.506 Q193.45 183.941 193.45 176.835 Q193.45 169.705 191.621 166.164 Q189.815 162.599 186.181 162.599 M186.181 158.895 Q191.991 158.895 195.047 163.502 Q198.125 168.085 198.125 176.835 Q198.125 185.562 195.047 190.168 Q191.991 194.751 186.181 194.751 Q180.371 194.751 177.292 190.168 Q174.237 185.562 174.237 176.835 Q174.237 168.085 177.292 163.502 Q180.371 158.895 186.181 158.895 Z" fill="#000000" fill-rule="nonzero" fill-opacity="1" /><path clip-path="url(#clip010)" d="M216.343 162.599 Q212.732 162.599 210.903 166.164 Q209.098 169.705 209.098 176.835 Q209.098 183.941 210.903 187.506 Q212.732 191.048 216.343 191.048 Q219.977 191.048 221.783 187.506 Q223.611 183.941 223.611 176.835 Q223.611 169.705 221.783 166.164 Q219.977 162.599 216.343 162.599 M216.343 158.895 Q222.153 158.895 225.209 163.502 Q228.287 168.085 228.287 176.835 Q228.287 185.562 225.209 190.168 Q222.153 194.751 216.343 194.751 Q210.533 194.751 207.454 190.168 Q204.399 185.562 204.399 176.835 Q204.399 168.085 207.454 163.502 Q210.533 158.895 216.343 158.895 Z" fill="#000000" fill-rule="nonzero" fill-opacity="1" /><path clip-path="url(#clip010)" d="M22.818 1035.98 L46.4666 1044.7 L46.4666 1027.22 L22.818 1035.98 M16.4842 1039.61 L16.4842 1032.32 L64.0042 1014.21 L64.0042 1020.89 L51.8138 1025.22 L51.8138 1046.64 L64.0042 1050.97 L64.0042 1057.75 L16.4842 1039.61 Z" fill="#000000" fill-rule="nonzero" fill-opacity="1" /><path clip-path="url(#clip010)" d="M29.4065 984.797 L34.9447 984.797 Q33.6716 987.279 33.035 989.953 Q32.3984 992.627 32.3984 995.491 Q32.3984 999.852 33.7352 1002.05 Q35.072 1004.21 37.7456 1004.21 Q39.7826 1004.21 40.9603 1002.65 Q42.1061 1001.09 43.1565 996.382 L43.6021 994.377 Q44.9389 988.139 47.3897 985.529 Q49.8086 982.887 54.1691 982.887 Q59.1344 982.887 62.0308 986.834 Q64.9272 990.749 64.9272 997.624 Q64.9272 1000.49 64.3543 1003.61 Q63.8132 1006.69 62.6992 1010.13 L56.6518 1010.13 Q58.3387 1006.89 59.198 1003.73 Q60.0256 1000.58 60.0256 997.496 Q60.0256 993.359 58.6251 991.131 Q57.1929 988.903 54.6147 988.903 Q52.2276 988.903 50.9545 990.526 Q49.6813 992.117 48.5037 997.56 L48.0262 999.597 Q46.8804 1005.04 44.5251 1007.46 Q42.138 1009.88 38.0002 1009.88 Q32.9713 1009.88 30.2341 1006.31 Q27.4968 1002.75 27.4968 996.191 Q27.4968 992.945 27.9743 990.08 Q28.4517 987.216 29.4065 984.797 Z" fill="#000000" fill-rule="nonzero" fill-opacity="1" /><path clip-path="url(#clip010)" d="M29.4065 950.836 L34.9447 950.836 Q33.6716 953.318 33.035 955.992 Q32.3984 958.665 32.3984 961.53 Q32.3984 965.891 33.7352 968.087 Q35.072 970.251 37.7456 970.251 Q39.7826 970.251 40.9603 968.691 Q42.1061 967.132 43.1565 962.421 L43.6021 960.416 Q44.9389 954.178 47.3897 951.568 Q49.8086 948.926 54.1691 948.926 Q59.1344 948.926 62.0308 952.873 Q64.9272 956.788 64.9272 963.663 Q64.9272 966.527 64.3543 969.646 Q63.8132 972.734 62.6992 976.171 L56.6518 976.171 Q58.3387 972.925 59.198 969.774 Q60.0256 966.623 60.0256 963.535 Q60.0256 959.398 58.6251 957.17 Q57.1929 954.942 54.6147 954.942 Q52.2276 954.942 50.9545 956.565 Q49.6813 958.156 48.5037 963.599 L48.0262 965.636 Q46.8804 971.079 44.5251 973.498 Q42.138 975.917 38.0002 975.917 Q32.9713 975.917 30.2341 972.352 Q27.4968 968.787 27.4968 962.23 Q27.4968 958.984 27.9743 956.119 Q28.4517 953.255 29.4065 950.836 Z" fill="#000000" fill-rule="nonzero" fill-opacity="1" /><path clip-path="url(#clip010)" d="M44.7161 909.108 L47.5806 909.108 L47.5806 936.035 Q53.6281 935.653 56.8109 932.407 Q59.9619 929.129 59.9619 923.304 Q59.9619 919.93 59.1344 916.779 Q58.3069 913.596 56.6518 910.477 L62.1899 910.477 Q63.5267 913.628 64.227 916.938 Q64.9272 920.248 64.9272 923.654 Q64.9272 932.184 59.9619 937.181 Q54.9967 942.146 46.5303 942.146 Q37.7774 942.146 32.6531 937.436 Q27.4968 932.693 27.4968 924.673 Q27.4968 917.479 32.1438 913.31 Q36.7589 909.108 44.7161 909.108 M42.9973 914.965 Q38.1912 915.029 35.3266 917.67 Q32.4621 920.28 32.4621 924.609 Q32.4621 929.511 35.2312 932.471 Q38.0002 935.399 43.0292 935.844 L42.9973 914.965 Z" fill="#000000" fill-rule="nonzero" fill-opacity="1" /><path clip-path="url(#clip010)" d="M35.1993 871.742 Q31.2526 869.546 29.3747 866.49 Q27.4968 863.435 27.4968 859.297 Q27.4968 853.727 31.4117 850.703 Q35.2948 847.679 42.4881 847.679 L64.0042 847.679 L64.0042 853.568 L42.679 853.568 Q37.5546 853.568 35.072 855.382 Q32.5894 857.196 32.5894 860.92 Q32.5894 865.472 35.6131 868.113 Q38.6368 870.755 43.8567 870.755 L64.0042 870.755 L64.0042 876.643 L42.679 876.643 Q37.5228 876.643 35.072 878.458 Q32.5894 880.272 32.5894 884.059 Q32.5894 888.547 35.6449 891.189 Q38.6686 893.831 43.8567 893.831 L64.0042 893.831 L64.0042 899.719 L28.3562 899.719 L28.3562 893.831 L33.8944 893.831 Q30.616 891.826 29.0564 889.025 Q27.4968 886.224 27.4968 882.372 Q27.4968 878.489 29.4702 875.784 Q31.4436 873.047 35.1993 871.742 Z" fill="#000000" fill-rule="nonzero" fill-opacity="1" /><path clip-path="url(#clip010)" d="M46.212 810.408 Q39.7508 810.408 36.0905 813.082 Q32.3984 815.724 32.3984 820.371 Q32.3984 825.017 36.0905 827.691 Q39.7508 830.333 46.212 830.333 Q52.6732 830.333 56.3653 827.691 Q60.0256 825.017 60.0256 820.371 Q60.0256 815.724 56.3653 813.082 Q52.6732 810.408 46.212 810.408 M33.7671 830.333 Q30.5842 828.487 29.0564 825.686 Q27.4968 822.853 27.4968 818.938 Q27.4968 812.445 32.6531 808.403 Q37.8093 804.329 46.212 804.329 Q54.6147 804.329 59.771 808.403 Q64.9272 812.445 64.9272 818.938 Q64.9272 822.853 63.3994 825.686 Q61.8398 828.487 58.657 830.333 L64.0042 830.333 L64.0042 836.221 L14.479 836.221 L14.479 830.333 L33.7671 830.333 Z" fill="#000000" fill-rule="nonzero" fill-opacity="1" /><path clip-path="url(#clip010)" d="M14.479 794.621 L14.479 788.765 L64.0042 788.765 L64.0042 794.621 L14.479 794.621 Z" fill="#000000" fill-rule="nonzero" fill-opacity="1" /><path clip-path="url(#clip010)" d="M67.3143 761.679 Q73.68 764.161 75.6216 766.517 Q77.5631 768.872 77.5631 772.819 L77.5631 777.497 L72.6615 777.497 L72.6615 774.06 Q72.6615 771.641 71.5157 770.304 Q70.3699 768.967 66.1048 767.344 L63.4312 766.294 L28.3562 780.712 L28.3562 774.506 L56.238 763.366 L28.3562 752.226 L28.3562 746.019 L67.3143 761.679 Z" fill="#000000" fill-rule="nonzero" fill-opacity="1" /><path clip-path="url(#clip010)" d="M16.4842 723.548 L16.4842 683.349 L21.895 683.349 L21.895 700.218 L64.0042 700.218 L64.0042 706.679 L21.895 706.679 L21.895 723.548 L16.4842 723.548 Z" fill="#000000" fill-rule="nonzero" fill-opacity="1" /><path clip-path="url(#clip010)" d="M28.3562 679.402 L28.3562 673.545 L64.0042 673.545 L64.0042 679.402 L28.3562 679.402 M14.479 679.402 L14.479 673.545 L21.895 673.545 L21.895 679.402 L14.479 679.402 Z" fill="#000000" fill-rule="nonzero" fill-opacity="1" /><path clip-path="url(#clip010)" d="M35.1993 633.537 Q31.2526 631.341 29.3747 628.285 Q27.4968 625.23 27.4968 621.092 Q27.4968 615.522 31.4117 612.498 Q35.2948 609.475 42.4881 609.475 L64.0042 609.475 L64.0042 615.363 L42.679 615.363 Q37.5546 615.363 35.072 617.177 Q32.5894 618.991 32.5894 622.715 Q32.5894 627.267 35.6131 629.909 Q38.6368 632.55 43.8567 632.55 L64.0042 632.55 L64.0042 638.439 L42.679 638.439 Q37.5228 638.439 35.072 640.253 Q32.5894 642.067 32.5894 645.855 Q32.5894 650.342 35.6449 652.984 Q38.6686 655.626 43.8567 655.626 L64.0042 655.626 L64.0042 661.514 L28.3562 661.514 L28.3562 655.626 L33.8944 655.626 Q30.616 653.621 29.0564 650.82 Q27.4968 648.019 27.4968 644.168 Q27.4968 640.285 29.4702 637.579 Q31.4436 634.842 35.1993 633.537 Z" fill="#000000" fill-rule="nonzero" fill-opacity="1" /><path clip-path="url(#clip010)" d="M44.7161 567.302 L47.5806 567.302 L47.5806 594.229 Q53.6281 593.847 56.8109 590.6 Q59.9619 587.322 59.9619 581.497 Q59.9619 578.124 59.1344 574.973 Q58.3069 571.79 56.6518 568.67 L62.1899 568.67 Q63.5267 571.822 64.227 575.132 Q64.9272 578.442 64.9272 581.847 Q64.9272 590.378 59.9619 595.375 Q54.9967 600.34 46.5303 600.34 Q37.7774 600.34 32.6531 595.629 Q27.4968 590.887 27.4968 582.866 Q27.4968 575.673 32.1438 571.503 Q36.7589 567.302 44.7161 567.302 M42.9973 573.158 Q38.1912 573.222 35.3266 575.864 Q32.4621 578.474 32.4621 582.802 Q32.4621 587.704 35.2312 590.664 Q38.0002 593.592 43.0292 594.038 L42.9973 573.158 Z" fill="#000000" fill-rule="nonzero" fill-opacity="1" /><path clip-path="url(#clip010)" d="M14.5426 522.901 Q21.8632 527.166 29.0246 529.235 Q36.186 531.304 43.5384 531.304 Q50.8908 531.304 58.1159 529.235 Q65.3091 527.134 72.5979 522.901 L72.5979 527.994 Q65.1182 532.768 57.8931 535.155 Q50.668 537.51 43.5384 537.51 Q36.4406 537.51 29.2474 535.155 Q22.0542 532.8 14.5426 527.994 L14.5426 522.901 Z" fill="#000000" fill-rule="nonzero" fill-opacity="1" /><path clip-path="url(#clip010)" d="M35.1993 483.784 Q31.2526 481.588 29.3747 478.532 Q27.4968 475.477 27.4968 471.339 Q27.4968 465.769 31.4117 462.745 Q35.2948 459.721 42.4881 459.721 L64.0042 459.721 L64.0042 465.61 L42.679 465.61 Q37.5546 465.61 35.072 467.424 Q32.5894 469.238 32.5894 472.962 Q32.5894 477.514 35.6131 480.155 Q38.6368 482.797 43.8567 482.797 L64.0042 482.797 L64.0042 488.685 L42.679 488.685 Q37.5228 488.685 35.072 490.5 Q32.5894 492.314 32.5894 496.101 Q32.5894 500.589 35.6449 503.231 Q38.6686 505.873 43.8567 505.873 L64.0042 505.873 L64.0042 511.761 L28.3562 511.761 L28.3562 505.873 L33.8944 505.873 Q30.616 503.868 29.0564 501.067 Q27.4968 498.266 27.4968 494.415 Q27.4968 490.531 29.4702 487.826 Q31.4436 485.089 35.1993 483.784 Z" fill="#000000" fill-rule="nonzero" fill-opacity="1" /><path clip-path="url(#clip010)" d="M29.4065 425.315 L34.9447 425.315 Q33.6716 427.797 33.035 430.471 Q32.3984 433.145 32.3984 436.009 Q32.3984 440.37 33.7352 442.566 Q35.072 444.73 37.7456 444.73 Q39.7826 444.73 40.9603 443.171 Q42.1061 441.611 43.1565 436.9 L43.6021 434.895 Q44.9389 428.657 47.3897 426.047 Q49.8086 423.405 54.1691 423.405 Q59.1344 423.405 62.0308 427.352 Q64.9272 431.267 64.9272 438.142 Q64.9272 441.006 64.3543 444.125 Q63.8132 447.213 62.6992 450.65 L56.6518 450.65 Q58.3387 447.404 59.198 444.253 Q60.0256 441.102 60.0256 438.014 Q60.0256 433.877 58.6251 431.649 Q57.1929 429.421 54.6147 429.421 Q52.2276 429.421 50.9545 431.044 Q49.6813 432.635 48.5037 438.078 L48.0262 440.115 Q46.8804 445.558 44.5251 447.977 Q42.138 450.396 38.0002 450.396 Q32.9713 450.396 30.2341 446.831 Q27.4968 443.266 27.4968 436.709 Q27.4968 433.463 27.9743 430.598 Q28.4517 427.734 29.4065 425.315 Z" fill="#000000" fill-rule="nonzero" fill-opacity="1" /><path clip-path="url(#clip010)" d="M14.5426 415.002 L14.5426 409.91 Q22.0542 405.135 29.2474 402.78 Q36.4406 400.393 43.5384 400.393 Q50.668 400.393 57.8931 402.78 Q65.1182 405.135 72.5979 409.91 L72.5979 415.002 Q65.3091 410.769 58.1159 408.7 Q50.8908 406.6 43.5384 406.6 Q36.186 406.6 29.0246 408.7 Q21.8632 410.769 14.5426 415.002 Z" fill="#000000" fill-rule="nonzero" fill-opacity="1" /><circle clip-path="url(#clip011)" cx="323.395" cy="1356.34" r="14.4" fill="#009af9" fill-rule="evenodd" fill-opacity="1" stroke="#000000" stroke-opacity="1" stroke-width="3.2"/>
<circle clip-path="url(#clip011)" cx="1619.86" cy="598.496" r="14.4" fill="#009af9" fill-rule="evenodd" fill-opacity="1" stroke="#000000" stroke-opacity="1" stroke-width="3.2"/>
<circle clip-path="url(#clip011)" cx="2293.65" cy="85.838" r="14.4" fill="#009af9" fill-rule="evenodd" fill-opacity="1" stroke="#000000" stroke-opacity="1" stroke-width="3.2"/>
<circle clip-path="url(#clip011)" cx="323.395" cy="1372.3" r="14.4" fill="#e26f46" fill-rule="evenodd" fill-opacity="1" stroke="#000000" stroke-opacity="1" stroke-width="3.2"/>
<circle clip-path="url(#clip011)" cx="1619.86" cy="1119.96" r="14.4" fill="#e26f46" fill-rule="evenodd" fill-opacity="1" stroke="#000000" stroke-opacity="1" stroke-width="3.2"/>
<circle clip-path="url(#clip011)" cx="2293.65" cy="969.89" r="14.4" fill="#e26f46" fill-rule="evenodd" fill-opacity="1" stroke="#000000" stroke-opacity="1" stroke-width="3.2"/>
<path clip-path="url(#clip010)" d="M333.903 248.219 L867.123 248.219 L867.123 92.6992 L333.903 92.6992  Z" fill="#ffffff" fill-rule="evenodd" fill-opacity="1"/>
<polyline clip-path="url(#clip010)" style="stroke:#000000; stroke-linecap:round; stroke-linejoin:round; stroke-width:4; stroke-opacity:1; fill:none" points="333.903,248.219 867.123,248.219 867.123,92.6992 333.903,92.6992 333.903,248.219 "/>
<circle clip-path="url(#clip010)" cx="426.724" cy="144.539" r="20.48" fill="#009af9" fill-rule="evenodd" fill-opacity="1" stroke="#000000" stroke-opacity="1" stroke-width="4.55111"/>
<path clip-path="url(#clip010)" d="M526.651 127.259 L531.327 127.259 L531.327 159.412 Q531.327 165.662 528.943 168.486 Q526.582 171.31 521.327 171.31 L519.545 171.31 L519.545 167.375 L521.003 167.375 Q524.105 167.375 525.378 165.639 Q526.651 163.903 526.651 159.412 L526.651 127.259 Z" fill="#000000" fill-rule="nonzero" fill-opacity="1" /><path clip-path="url(#clip010)" d="M540.007 151.588 L540.007 135.893 L544.267 135.893 L544.267 151.426 Q544.267 155.106 545.702 156.958 Q547.137 158.787 550.007 158.787 Q553.456 158.787 555.447 156.588 Q557.461 154.389 557.461 150.592 L557.461 135.893 L561.72 135.893 L561.72 161.819 L557.461 161.819 L557.461 157.838 Q555.91 160.199 553.85 161.356 Q551.813 162.49 549.105 162.49 Q544.637 162.49 542.322 159.713 Q540.007 156.935 540.007 151.588 M550.725 135.268 L550.725 135.268 Z" fill="#000000" fill-rule="nonzero" fill-opacity="1" /><path clip-path="url(#clip010)" d="M570.493 125.801 L574.753 125.801 L574.753 161.819 L570.493 161.819 L570.493 125.801 Z" fill="#000000" fill-rule="nonzero" fill-opacity="1" /><path clip-path="url(#clip010)" d="M583.665 135.893 L587.924 135.893 L587.924 161.819 L583.665 161.819 L583.665 135.893 M583.665 125.801 L587.924 125.801 L587.924 131.194 L583.665 131.194 L583.665 125.801 Z" fill="#000000" fill-rule="nonzero" fill-opacity="1" /><path clip-path="url(#clip010)" d="M608.618 148.787 Q603.456 148.787 601.465 149.967 Q599.475 151.148 599.475 153.995 Q599.475 156.264 600.956 157.606 Q602.461 158.926 605.03 158.926 Q608.572 158.926 610.702 156.426 Q612.854 153.903 612.854 149.736 L612.854 148.787 L608.618 148.787 M617.114 147.028 L617.114 161.819 L612.854 161.819 L612.854 157.884 Q611.396 160.245 609.22 161.379 Q607.044 162.49 603.896 162.49 Q599.915 162.49 597.553 160.268 Q595.215 158.023 595.215 154.273 Q595.215 149.898 598.132 147.676 Q601.072 145.454 606.882 145.454 L612.854 145.454 L612.854 145.037 Q612.854 142.097 610.91 140.5 Q608.989 138.879 605.493 138.879 Q603.271 138.879 601.165 139.412 Q599.058 139.944 597.114 141.009 L597.114 137.074 Q599.452 136.171 601.651 135.731 Q603.85 135.268 605.933 135.268 Q611.558 135.268 614.336 138.185 Q617.114 141.102 617.114 147.028 Z" fill="#000000" fill-rule="nonzero" fill-opacity="1" /><circle clip-path="url(#clip010)" cx="426.724" cy="196.379" r="20.48" fill="#e26f46" fill-rule="evenodd" fill-opacity="1" stroke="#000000" stroke-opacity="1" stroke-width="4.55111"/>
<path clip-path="url(#clip010)" d="M547.415 181.761 L547.415 186.692 Q545.054 184.493 542.369 183.405 Q539.707 182.317 536.697 182.317 Q530.771 182.317 527.623 185.951 Q524.475 189.562 524.475 196.414 Q524.475 203.243 527.623 206.877 Q530.771 210.488 536.697 210.488 Q539.707 210.488 542.369 209.4 Q545.054 208.312 547.415 206.113 L547.415 210.997 Q544.961 212.664 542.207 213.497 Q539.475 214.33 536.42 214.33 Q528.572 214.33 524.058 209.539 Q519.545 204.724 519.545 196.414 Q519.545 188.081 524.058 183.289 Q528.572 178.474 536.42 178.474 Q539.521 178.474 542.253 179.308 Q545.007 180.118 547.415 181.761 Z" fill="#000000" fill-rule="nonzero" fill-opacity="1" /><path clip-path="url(#clip010)" d="M571.79 183.937 L571.79 196.831 L584.683 196.831 L584.683 200.766 L571.79 200.766 L571.79 213.659 L567.901 213.659 L567.901 200.766 L555.007 200.766 L555.007 196.831 L567.901 196.831 L567.901 183.937 L571.79 183.937 Z" fill="#000000" fill-rule="nonzero" fill-opacity="1" /><path clip-path="url(#clip010)" d="M611.512 183.937 L611.512 196.831 L624.405 196.831 L624.405 200.766 L611.512 200.766 L611.512 213.659 L607.623 213.659 L607.623 200.766 L594.729 200.766 L594.729 196.831 L607.623 196.831 L607.623 183.937 L611.512 183.937 Z" fill="#000000" fill-rule="nonzero" fill-opacity="1" /><path clip-path="url(#clip010)" d="M659.197 177.687 Q656.095 183.011 654.59 188.22 Q653.086 193.428 653.086 198.775 Q653.086 204.122 654.59 209.377 Q656.118 214.608 659.197 219.909 L655.493 219.909 Q652.021 214.469 650.285 209.215 Q648.572 203.96 648.572 198.775 Q648.572 193.613 650.285 188.382 Q651.998 183.15 655.493 177.687 L659.197 177.687 Z" fill="#000000" fill-rule="nonzero" fill-opacity="1" /><path clip-path="url(#clip010)" d="M691.21 208.729 L691.21 199.446 L683.571 199.446 L683.571 195.604 L695.84 195.604 L695.84 210.442 Q693.132 212.363 689.868 213.358 Q686.604 214.33 682.9 214.33 Q674.798 214.33 670.215 209.608 Q665.655 204.863 665.655 196.414 Q665.655 187.942 670.215 183.22 Q674.798 178.474 682.9 178.474 Q686.28 178.474 689.312 179.308 Q692.368 180.141 694.937 181.761 L694.937 186.738 Q692.345 184.539 689.428 183.428 Q686.511 182.317 683.294 182.317 Q676.951 182.317 673.757 185.858 Q670.585 189.4 670.585 196.414 Q670.585 203.405 673.757 206.946 Q676.951 210.488 683.294 210.488 Q685.771 210.488 687.715 210.071 Q689.659 209.631 691.21 208.729 Z" fill="#000000" fill-rule="nonzero" fill-opacity="1" /><path clip-path="url(#clip010)" d="M704.196 187.733 L708.456 187.733 L708.456 213.659 L704.196 213.659 L704.196 187.733 M704.196 177.641 L708.456 177.641 L708.456 183.034 L704.196 183.034 L704.196 177.641 Z" fill="#000000" fill-rule="nonzero" fill-opacity="1" /><path clip-path="url(#clip010)" d="M738.918 198.011 L738.918 213.659 L734.659 213.659 L734.659 198.15 Q734.659 194.469 733.224 192.641 Q731.789 190.812 728.918 190.812 Q725.469 190.812 723.479 193.011 Q721.488 195.21 721.488 199.006 L721.488 213.659 L717.206 213.659 L717.206 187.733 L721.488 187.733 L721.488 191.761 Q723.016 189.423 725.076 188.266 Q727.159 187.108 729.868 187.108 Q734.335 187.108 736.627 189.886 Q738.918 192.641 738.918 198.011 Z" fill="#000000" fill-rule="nonzero" fill-opacity="1" /><path clip-path="url(#clip010)" d="M747.252 177.641 L751.534 177.641 L751.534 198.914 L764.242 187.733 L769.682 187.733 L755.932 199.863 L770.261 213.659 L764.705 213.659 L751.534 200.997 L751.534 213.659 L747.252 213.659 L747.252 177.641 Z" fill="#000000" fill-rule="nonzero" fill-opacity="1" /><path clip-path="url(#clip010)" d="M791.927 200.395 Q791.927 195.766 790.006 193.219 Q788.108 190.673 784.659 190.673 Q781.233 190.673 779.312 193.219 Q777.414 195.766 777.414 200.395 Q777.414 205.002 779.312 207.548 Q781.233 210.094 784.659 210.094 Q788.108 210.094 790.006 207.548 Q791.927 205.002 791.927 200.395 M796.187 210.442 Q796.187 217.062 793.247 220.28 Q790.307 223.52 784.242 223.52 Q781.997 223.52 780.006 223.173 Q778.015 222.849 776.14 222.155 L776.14 218.011 Q778.015 219.03 779.844 219.516 Q781.673 220.002 783.571 220.002 Q787.761 220.002 789.844 217.803 Q791.927 215.627 791.927 211.205 L791.927 209.099 Q790.608 211.391 788.548 212.525 Q786.488 213.659 783.617 213.659 Q778.849 213.659 775.932 210.025 Q773.015 206.391 773.015 200.395 Q773.015 194.377 775.932 190.743 Q778.849 187.108 783.617 187.108 Q786.488 187.108 788.548 188.243 Q790.608 189.377 791.927 191.669 L791.927 187.733 L796.187 187.733 L796.187 210.442 Z" fill="#000000" fill-rule="nonzero" fill-opacity="1" /><path clip-path="url(#clip010)" d="M815.006 190.719 Q811.58 190.719 809.589 193.405 Q807.599 196.067 807.599 200.719 Q807.599 205.372 809.566 208.057 Q811.557 210.719 815.006 210.719 Q818.409 210.719 820.399 208.034 Q822.39 205.349 822.39 200.719 Q822.39 196.113 820.399 193.428 Q818.409 190.719 815.006 190.719 M815.006 187.108 Q820.562 187.108 823.733 190.719 Q826.904 194.331 826.904 200.719 Q826.904 207.085 823.733 210.719 Q820.562 214.33 815.006 214.33 Q809.427 214.33 806.256 210.719 Q803.108 207.085 803.108 200.719 Q803.108 194.331 806.256 190.719 Q809.427 187.108 815.006 187.108 Z" fill="#000000" fill-rule="nonzero" fill-opacity="1" /><path clip-path="url(#clip010)" d="M833.293 177.687 L836.997 177.687 Q840.469 183.15 842.182 188.382 Q843.918 193.613 843.918 198.775 Q843.918 203.96 842.182 209.215 Q840.469 214.469 836.997 219.909 L833.293 219.909 Q836.372 214.608 837.876 209.377 Q839.404 204.122 839.404 198.775 Q839.404 193.428 837.876 188.22 Q836.372 183.011 833.293 177.687 Z" fill="#000000" fill-rule="nonzero" fill-opacity="1" /></svg>
