<?xml version="1.0" encoding="utf-8" standalone="no"?>
<!DOCTYPE svg PUBLIC "-//W3C//DTD SVG 1.1//EN"
  "http://www.w3.org/Graphics/SVG/1.1/DTD/svg11.dtd">
<svg xmlns:xlink="http://www.w3.org/1999/xlink" width="1440pt" height="504pt" viewBox="0 0 1440 504" xmlns="http://www.w3.org/2000/svg" version="1.1">
 <metadata>
  <rdf:RDF xmlns:dc="http://purl.org/dc/elements/1.1/" xmlns:cc="http://creativecommons.org/ns#" xmlns:rdf="http://www.w3.org/1999/02/22-rdf-syntax-ns#">
   <cc:Work>
    <dc:type rdf:resource="http://purl.org/dc/dcmitype/StillImage"/>
    <dc:date>2026-06-22T11:58:40.442871</dc:date>
    <dc:format>image/svg+xml</dc:format>
    <dc:creator>
     <cc:Agent>
      <dc:title>Matplotlib v3.10.9, https://matplotlib.org/</dc:title>
     </cc:Agent>
    </dc:creator>
   </cc:Work>
  </rdf:RDF>
 </metadata>
 <defs>
  <style type="text/css">*{stroke-linejoin: round; stroke-linecap: butt}</style>
 </defs>
 <g id="figure_1">
  <g id="patch_1">
   <path d="M 0 504 
L 1440 504 
L 1440 0 
L 0 0 
z
" style="fill: #ffffff"/>
  </g>
  <g id="axes_1">
   <g id="patch_2">
    <path d="M 100.8 448.56 
L 710.288372 448.56 
L 710.288372 63 
L 100.8 63 
z
" style="fill: #ffffff"/>
   </g>
   <g id="matplotlib.axis_1">
    <g id="xtick_1">
     <g id="line2d_1">
      <path d="M 128.504017 448.56 
L 128.504017 63 
" clip-path="url(#p899a9da0e4)" style="fill: none; stroke: #cccccc; stroke-width: 0.8; stroke-linecap: round"/>
     </g>
     <g id="text_1">
      <!-- $\mathdefault{10^{3}}$ -->
      <g style="fill: #262626" transform="translate(112.615617 477.7325) scale(0.2024 -0.2024)">
       <defs>
        <path id="ArialMT-31" d="M 2384 0 
L 1822 0 
L 1822 3584 
Q 1619 3391 1289 3197 
Q 959 3003 697 2906 
L 697 3450 
Q 1169 3672 1522 3987 
Q 1875 4303 2022 4600 
L 2384 4600 
L 2384 0 
z
" transform="scale(0.015625)"/>
        <path id="ArialMT-30" d="M 266 2259 
Q 266 3072 433 3567 
Q 600 4063 929 4331 
Q 1259 4600 1759 4600 
Q 2128 4600 2406 4451 
Q 2684 4303 2865 4023 
Q 3047 3744 3150 3342 
Q 3253 2941 3253 2259 
Q 3253 1453 3087 958 
Q 2922 463 2592 192 
Q 2263 -78 1759 -78 
Q 1097 -78 719 397 
Q 266 969 266 2259 
z
M 844 2259 
Q 844 1131 1108 757 
Q 1372 384 1759 384 
Q 2147 384 2411 759 
Q 2675 1134 2675 2259 
Q 2675 3391 2411 3762 
Q 2147 4134 1753 4134 
Q 1366 4134 1134 3806 
Q 844 3388 844 2259 
z
" transform="scale(0.015625)"/>
        <path id="ArialMT-33" d="M 269 1209 
L 831 1284 
Q 928 806 1161 595 
Q 1394 384 1728 384 
Q 2125 384 2398 659 
Q 2672 934 2672 1341 
Q 2672 1728 2419 1979 
Q 2166 2231 1775 2231 
Q 1616 2231 1378 2169 
L 1441 2663 
Q 1497 2656 1531 2656 
Q 1891 2656 2178 2843 
Q 2466 3031 2466 3422 
Q 2466 3731 2256 3934 
Q 2047 4138 1716 4138 
Q 1388 4138 1169 3931 
Q 950 3725 888 3313 
L 325 3413 
Q 428 3978 793 4289 
Q 1159 4600 1703 4600 
Q 2078 4600 2393 4439 
Q 2709 4278 2876 4000 
Q 3044 3722 3044 3409 
Q 3044 3113 2884 2869 
Q 2725 2625 2413 2481 
Q 2819 2388 3044 2092 
Q 3269 1797 3269 1353 
Q 3269 753 2831 336 
Q 2394 -81 1725 -81 
Q 1122 -81 723 278 
Q 325 638 269 1209 
z
" transform="scale(0.015625)"/>
       </defs>
       <use xlink:href="#ArialMT-31" transform="translate(0 0.99375)"/>
       <use xlink:href="#ArialMT-30" transform="translate(55.615234 0.99375)"/>
       <use xlink:href="#ArialMT-33" transform="translate(112.972813 70.6875) scale(0.7)"/>
      </g>
     </g>
    </g>
    <g id="xtick_2">
     <g id="line2d_2">
      <path d="M 243.788992 448.56 
L 243.788992 63 
" clip-path="url(#p899a9da0e4)" style="fill: none; stroke: #cccccc; stroke-width: 0.8; stroke-linecap: round"/>
     </g>
     <g id="text_2">
      <!-- $\mathdefault{10^{4}}$ -->
      <g style="fill: #262626" transform="translate(227.900592 477.5301) scale(0.2024 -0.2024)">
       <defs>
        <path id="ArialMT-34" d="M 2069 0 
L 2069 1097 
L 81 1097 
L 81 1613 
L 2172 4581 
L 2631 4581 
L 2631 1613 
L 3250 1613 
L 3250 1097 
L 2631 1097 
L 2631 0 
L 2069 0 
z
M 2069 1613 
L 2069 3678 
L 634 1613 
L 2069 1613 
z
" transform="scale(0.015625)"/>
       </defs>
       <use xlink:href="#ArialMT-31" transform="translate(0 0.201563)"/>
       <use xlink:href="#ArialMT-30" transform="translate(55.615234 0.201563)"/>
       <use xlink:href="#ArialMT-34" transform="translate(112.972813 69.895313) scale(0.7)"/>
      </g>
     </g>
    </g>
    <g id="xtick_3">
     <g id="line2d_3">
      <path d="M 359.073967 448.56 
L 359.073967 63 
" clip-path="url(#p899a9da0e4)" style="fill: none; stroke: #cccccc; stroke-width: 0.8; stroke-linecap: round"/>
     </g>
     <g id="text_3">
      <!-- $\mathdefault{10^{5}}$ -->
      <g style="fill: #262626" transform="translate(343.185567 477.5301) scale(0.2024 -0.2024)">
       <defs>
        <path id="ArialMT-35" d="M 266 1200 
L 856 1250 
Q 922 819 1161 601 
Q 1400 384 1738 384 
Q 2144 384 2425 690 
Q 2706 997 2706 1503 
Q 2706 1984 2436 2262 
Q 2166 2541 1728 2541 
Q 1456 2541 1237 2417 
Q 1019 2294 894 2097 
L 366 2166 
L 809 4519 
L 3088 4519 
L 3088 3981 
L 1259 3981 
L 1013 2750 
Q 1425 3038 1878 3038 
Q 2478 3038 2890 2622 
Q 3303 2206 3303 1553 
Q 3303 931 2941 478 
Q 2500 -78 1738 -78 
Q 1113 -78 717 272 
Q 322 622 266 1200 
z
" transform="scale(0.015625)"/>
       </defs>
       <use xlink:href="#ArialMT-31" transform="translate(0 0.879688)"/>
       <use xlink:href="#ArialMT-30" transform="translate(55.615234 0.879688)"/>
       <use xlink:href="#ArialMT-35" transform="translate(112.972813 70.573438) scale(0.7)"/>
      </g>
     </g>
    </g>
    <g id="xtick_4">
     <g id="line2d_4">
      <path d="M 474.358942 448.56 
L 474.358942 63 
" clip-path="url(#p899a9da0e4)" style="fill: none; stroke: #cccccc; stroke-width: 0.8; stroke-linecap: round"/>
     </g>
     <g id="text_4">
      <!-- $\mathdefault{10^{6}}$ -->
      <g style="fill: #262626" transform="translate(458.470542 477.7325) scale(0.2024 -0.2024)">
       <defs>
        <path id="ArialMT-36" d="M 3184 3459 
L 2625 3416 
Q 2550 3747 2413 3897 
Q 2184 4138 1850 4138 
Q 1581 4138 1378 3988 
Q 1113 3794 959 3422 
Q 806 3050 800 2363 
Q 1003 2672 1297 2822 
Q 1591 2972 1913 2972 
Q 2475 2972 2870 2558 
Q 3266 2144 3266 1488 
Q 3266 1056 3080 686 
Q 2894 316 2569 119 
Q 2244 -78 1831 -78 
Q 1128 -78 684 439 
Q 241 956 241 2144 
Q 241 3472 731 4075 
Q 1159 4600 1884 4600 
Q 2425 4600 2770 4297 
Q 3116 3994 3184 3459 
z
M 888 1484 
Q 888 1194 1011 928 
Q 1134 663 1356 523 
Q 1578 384 1822 384 
Q 2178 384 2434 671 
Q 2691 959 2691 1453 
Q 2691 1928 2437 2201 
Q 2184 2475 1800 2475 
Q 1419 2475 1153 2201 
Q 888 1928 888 1484 
z
" transform="scale(0.015625)"/>
       </defs>
       <use xlink:href="#ArialMT-31" transform="translate(0 0.99375)"/>
       <use xlink:href="#ArialMT-30" transform="translate(55.615234 0.99375)"/>
       <use xlink:href="#ArialMT-36" transform="translate(112.972813 70.6875) scale(0.7)"/>
      </g>
     </g>
    </g>
    <g id="xtick_5">
     <g id="line2d_5">
      <path d="M 589.643917 448.56 
L 589.643917 63 
" clip-path="url(#p899a9da0e4)" style="fill: none; stroke: #cccccc; stroke-width: 0.8; stroke-linecap: round"/>
     </g>
     <g id="text_5">
      <!-- $\mathdefault{10^{7}}$ -->
      <g style="fill: #262626" transform="translate(573.755517 477.5301) scale(0.2024 -0.2024)">
       <defs>
        <path id="ArialMT-37" d="M 303 3981 
L 303 4522 
L 3269 4522 
L 3269 4084 
Q 2831 3619 2401 2847 
Q 1972 2075 1738 1259 
Q 1569 684 1522 0 
L 944 0 
Q 953 541 1156 1306 
Q 1359 2072 1739 2783 
Q 2119 3494 2547 3981 
L 303 3981 
z
" transform="scale(0.015625)"/>
       </defs>
       <use xlink:href="#ArialMT-31" transform="translate(0 0.846875)"/>
       <use xlink:href="#ArialMT-30" transform="translate(55.615234 0.846875)"/>
       <use xlink:href="#ArialMT-37" transform="translate(112.972813 70.540625) scale(0.7)"/>
      </g>
     </g>
    </g>
    <g id="xtick_6">
     <g id="line2d_6">
      <path d="M 704.928892 448.56 
L 704.928892 63 
" clip-path="url(#p899a9da0e4)" style="fill: none; stroke: #cccccc; stroke-width: 0.8; stroke-linecap: round"/>
     </g>
     <g id="text_6">
      <!-- $\mathdefault{10^{8}}$ -->
      <g style="fill: #262626" transform="translate(689.040492 477.7325) scale(0.2024 -0.2024)">
       <defs>
        <path id="ArialMT-38" d="M 1131 2484 
Q 781 2613 612 2850 
Q 444 3088 444 3419 
Q 444 3919 803 4259 
Q 1163 4600 1759 4600 
Q 2359 4600 2725 4251 
Q 3091 3903 3091 3403 
Q 3091 3084 2923 2848 
Q 2756 2613 2416 2484 
Q 2838 2347 3058 2040 
Q 3278 1734 3278 1309 
Q 3278 722 2862 322 
Q 2447 -78 1769 -78 
Q 1091 -78 675 323 
Q 259 725 259 1325 
Q 259 1772 486 2073 
Q 713 2375 1131 2484 
z
M 1019 3438 
Q 1019 3113 1228 2906 
Q 1438 2700 1772 2700 
Q 2097 2700 2305 2904 
Q 2513 3109 2513 3406 
Q 2513 3716 2298 3927 
Q 2084 4138 1766 4138 
Q 1444 4138 1231 3931 
Q 1019 3725 1019 3438 
z
M 838 1322 
Q 838 1081 952 856 
Q 1066 631 1291 507 
Q 1516 384 1775 384 
Q 2178 384 2440 643 
Q 2703 903 2703 1303 
Q 2703 1709 2433 1975 
Q 2163 2241 1756 2241 
Q 1359 2241 1098 1978 
Q 838 1716 838 1322 
z
" transform="scale(0.015625)"/>
       </defs>
       <use xlink:href="#ArialMT-31" transform="translate(0 0.99375)"/>
       <use xlink:href="#ArialMT-30" transform="translate(55.615234 0.99375)"/>
       <use xlink:href="#ArialMT-38" transform="translate(112.972813 70.6875) scale(0.7)"/>
      </g>
     </g>
    </g>
    <g id="xtick_7"/>
    <g id="xtick_8"/>
    <g id="xtick_9"/>
    <g id="xtick_10"/>
    <g id="xtick_11"/>
    <g id="xtick_12"/>
    <g id="xtick_13"/>
    <g id="xtick_14"/>
    <g id="xtick_15"/>
    <g id="xtick_16"/>
    <g id="xtick_17"/>
    <g id="xtick_18"/>
    <g id="xtick_19"/>
    <g id="xtick_20"/>
    <g id="xtick_21"/>
    <g id="xtick_22"/>
    <g id="xtick_23"/>
    <g id="xtick_24"/>
    <g id="xtick_25"/>
    <g id="xtick_26"/>
    <g id="xtick_27"/>
    <g id="xtick_28"/>
    <g id="xtick_29"/>
    <g id="xtick_30"/>
    <g id="xtick_31"/>
    <g id="xtick_32"/>
    <g id="xtick_33"/>
    <g id="xtick_34"/>
    <g id="xtick_35"/>
    <g id="xtick_36"/>
    <g id="xtick_37"/>
    <g id="xtick_38"/>
    <g id="xtick_39"/>
    <g id="xtick_40"/>
    <g id="xtick_41"/>
    <g id="xtick_42"/>
    <g id="xtick_43"/>
    <g id="xtick_44"/>
    <g id="xtick_45"/>
    <g id="xtick_46"/>
    <g id="xtick_47"/>
    <g id="xtick_48"/>
    <g id="xtick_49"/>
    <g id="xtick_50"/>
    <g id="text_7">
     <!-- #Cells -->
     <g style="fill: #262626" transform="translate(374.866786 501.55965) scale(0.2208 -0.2208)">
      <defs>
       <path id="ArialMT-23" d="M 322 -78 
L 594 1253 
L 66 1253 
L 66 1719 
L 688 1719 
L 919 2853 
L 66 2853 
L 66 3319 
L 1013 3319 
L 1284 4659 
L 1753 4659 
L 1481 3319 
L 2466 3319 
L 2738 4659 
L 3209 4659 
L 2938 3319 
L 3478 3319 
L 3478 2853 
L 2844 2853 
L 2609 1719 
L 3478 1719 
L 3478 1253 
L 2516 1253 
L 2244 -78 
L 1775 -78 
L 2044 1253 
L 1063 1253 
L 791 -78 
L 322 -78 
z
M 1156 1719 
L 2138 1719 
L 2372 2853 
L 1388 2853 
L 1156 1719 
z
" transform="scale(0.015625)"/>
       <path id="ArialMT-43" d="M 3763 1606 
L 4369 1453 
Q 4178 706 3683 314 
Q 3188 -78 2472 -78 
Q 1731 -78 1267 223 
Q 803 525 561 1097 
Q 319 1669 319 2325 
Q 319 3041 592 3573 
Q 866 4106 1370 4382 
Q 1875 4659 2481 4659 
Q 3169 4659 3637 4309 
Q 4106 3959 4291 3325 
L 3694 3184 
Q 3534 3684 3231 3912 
Q 2928 4141 2469 4141 
Q 1941 4141 1586 3887 
Q 1231 3634 1087 3207 
Q 944 2781 944 2328 
Q 944 1744 1114 1308 
Q 1284 872 1643 656 
Q 2003 441 2422 441 
Q 2931 441 3284 734 
Q 3638 1028 3763 1606 
z
" transform="scale(0.015625)"/>
       <path id="ArialMT-65" d="M 2694 1069 
L 3275 997 
Q 3138 488 2766 206 
Q 2394 -75 1816 -75 
Q 1088 -75 661 373 
Q 234 822 234 1631 
Q 234 2469 665 2931 
Q 1097 3394 1784 3394 
Q 2450 3394 2872 2941 
Q 3294 2488 3294 1666 
Q 3294 1616 3291 1516 
L 816 1516 
Q 847 969 1125 678 
Q 1403 388 1819 388 
Q 2128 388 2347 550 
Q 2566 713 2694 1069 
z
M 847 1978 
L 2700 1978 
Q 2663 2397 2488 2606 
Q 2219 2931 1791 2931 
Q 1403 2931 1139 2672 
Q 875 2413 847 1978 
z
" transform="scale(0.015625)"/>
       <path id="ArialMT-6c" d="M 409 0 
L 409 4581 
L 972 4581 
L 972 0 
L 409 0 
z
" transform="scale(0.015625)"/>
       <path id="ArialMT-73" d="M 197 991 
L 753 1078 
Q 800 744 1014 566 
Q 1228 388 1613 388 
Q 2000 388 2187 545 
Q 2375 703 2375 916 
Q 2375 1106 2209 1216 
Q 2094 1291 1634 1406 
Q 1016 1563 777 1677 
Q 538 1791 414 1992 
Q 291 2194 291 2438 
Q 291 2659 392 2848 
Q 494 3038 669 3163 
Q 800 3259 1026 3326 
Q 1253 3394 1513 3394 
Q 1903 3394 2198 3281 
Q 2494 3169 2634 2976 
Q 2775 2784 2828 2463 
L 2278 2388 
Q 2241 2644 2061 2787 
Q 1881 2931 1553 2931 
Q 1166 2931 1000 2803 
Q 834 2675 834 2503 
Q 834 2394 903 2306 
Q 972 2216 1119 2156 
Q 1203 2125 1616 2013 
Q 2213 1853 2448 1751 
Q 2684 1650 2818 1456 
Q 2953 1263 2953 975 
Q 2953 694 2789 445 
Q 2625 197 2315 61 
Q 2006 -75 1616 -75 
Q 969 -75 630 194 
Q 291 463 197 991 
z
" transform="scale(0.015625)"/>
      </defs>
      <use xlink:href="#ArialMT-23"/>
      <use xlink:href="#ArialMT-43" transform="translate(55.615234 0)"/>
      <use xlink:href="#ArialMT-65" transform="translate(127.832031 0)"/>
      <use xlink:href="#ArialMT-6c" transform="translate(183.447266 0)"/>
      <use xlink:href="#ArialMT-6c" transform="translate(205.664062 0)"/>
      <use xlink:href="#ArialMT-73" transform="translate(227.880859 0)"/>
     </g>
    </g>
   </g>
   <g id="matplotlib.axis_2">
    <g id="ytick_1">
     <g id="line2d_7">
      <path d="M 100.8 416.339191 
L 710.288372 416.339191 
" clip-path="url(#p899a9da0e4)" style="fill: none; stroke: #cccccc; stroke-width: 0.8; stroke-linecap: round"/>
     </g>
     <g id="text_8">
      <!-- 0.5 -->
      <g style="fill: #262626" transform="translate(64.3664 423.582897) scale(0.2024 -0.2024)">
       <defs>
        <path id="ArialMT-2e" d="M 581 0 
L 581 641 
L 1222 641 
L 1222 0 
L 581 0 
z
" transform="scale(0.015625)"/>
       </defs>
       <use xlink:href="#ArialMT-30"/>
       <use xlink:href="#ArialMT-2e" transform="translate(55.615234 0)"/>
       <use xlink:href="#ArialMT-35" transform="translate(83.398438 0)"/>
      </g>
     </g>
    </g>
    <g id="ytick_2">
     <g id="line2d_8">
      <path d="M 100.8 359.208302 
L 710.288372 359.208302 
" clip-path="url(#p899a9da0e4)" style="fill: none; stroke: #cccccc; stroke-width: 0.8; stroke-linecap: round"/>
     </g>
     <g id="text_9">
      <!-- 1.0 -->
      <g style="fill: #262626" transform="translate(64.3664 366.452008) scale(0.2024 -0.2024)">
       <use xlink:href="#ArialMT-31"/>
       <use xlink:href="#ArialMT-2e" transform="translate(55.615234 0)"/>
       <use xlink:href="#ArialMT-30" transform="translate(83.398438 0)"/>
      </g>
     </g>
    </g>
    <g id="ytick_3">
     <g id="line2d_9">
      <path d="M 100.8 302.077413 
L 710.288372 302.077413 
" clip-path="url(#p899a9da0e4)" style="fill: none; stroke: #cccccc; stroke-width: 0.8; stroke-linecap: round"/>
     </g>
     <g id="text_10">
      <!-- 1.5 -->
      <g style="fill: #262626" transform="translate(64.3664 309.321119) scale(0.2024 -0.2024)">
       <use xlink:href="#ArialMT-31"/>
       <use xlink:href="#ArialMT-2e" transform="translate(55.615234 0)"/>
       <use xlink:href="#ArialMT-35" transform="translate(83.398438 0)"/>
      </g>
     </g>
    </g>
    <g id="ytick_4">
     <g id="line2d_10">
      <path d="M 100.8 244.946524 
L 710.288372 244.946524 
" clip-path="url(#p899a9da0e4)" style="fill: none; stroke: #cccccc; stroke-width: 0.8; stroke-linecap: round"/>
     </g>
     <g id="text_11">
      <!-- 2.0 -->
      <g style="fill: #262626" transform="translate(64.3664 252.19023) scale(0.2024 -0.2024)">
       <defs>
        <path id="ArialMT-32" d="M 3222 541 
L 3222 0 
L 194 0 
Q 188 203 259 391 
Q 375 700 629 1000 
Q 884 1300 1366 1694 
Q 2113 2306 2375 2664 
Q 2638 3022 2638 3341 
Q 2638 3675 2398 3904 
Q 2159 4134 1775 4134 
Q 1369 4134 1125 3890 
Q 881 3647 878 3216 
L 300 3275 
Q 359 3922 746 4261 
Q 1134 4600 1788 4600 
Q 2447 4600 2831 4234 
Q 3216 3869 3216 3328 
Q 3216 3053 3103 2787 
Q 2991 2522 2730 2228 
Q 2469 1934 1863 1422 
Q 1356 997 1212 845 
Q 1069 694 975 541 
L 3222 541 
z
" transform="scale(0.015625)"/>
       </defs>
       <use xlink:href="#ArialMT-32"/>
       <use xlink:href="#ArialMT-2e" transform="translate(55.615234 0)"/>
       <use xlink:href="#ArialMT-30" transform="translate(83.398438 0)"/>
      </g>
     </g>
    </g>
    <g id="ytick_5">
     <g id="line2d_11">
      <path d="M 100.8 187.815635 
L 710.288372 187.815635 
" clip-path="url(#p899a9da0e4)" style="fill: none; stroke: #cccccc; stroke-width: 0.8; stroke-linecap: round"/>
     </g>
     <g id="text_12">
      <!-- 2.5 -->
      <g style="fill: #262626" transform="translate(64.3664 195.059341) scale(0.2024 -0.2024)">
       <use xlink:href="#ArialMT-32"/>
       <use xlink:href="#ArialMT-2e" transform="translate(55.615234 0)"/>
       <use xlink:href="#ArialMT-35" transform="translate(83.398438 0)"/>
      </g>
     </g>
    </g>
    <g id="ytick_6">
     <g id="line2d_12">
      <path d="M 100.8 130.684746 
L 710.288372 130.684746 
" clip-path="url(#p899a9da0e4)" style="fill: none; stroke: #cccccc; stroke-width: 0.8; stroke-linecap: round"/>
     </g>
     <g id="text_13">
      <!-- 3.0 -->
      <g style="fill: #262626" transform="translate(64.3664 137.928453) scale(0.2024 -0.2024)">
       <use xlink:href="#ArialMT-33"/>
       <use xlink:href="#ArialMT-2e" transform="translate(55.615234 0)"/>
       <use xlink:href="#ArialMT-30" transform="translate(83.398438 0)"/>
      </g>
     </g>
    </g>
    <g id="ytick_7">
     <g id="line2d_13">
      <path d="M 100.8 73.553857 
L 710.288372 73.553857 
" clip-path="url(#p899a9da0e4)" style="fill: none; stroke: #cccccc; stroke-width: 0.8; stroke-linecap: round"/>
     </g>
     <g id="text_14">
      <!-- 3.5 -->
      <g style="fill: #262626" transform="translate(64.3664 80.797564) scale(0.2024 -0.2024)">
       <use xlink:href="#ArialMT-33"/>
       <use xlink:href="#ArialMT-2e" transform="translate(55.615234 0)"/>
       <use xlink:href="#ArialMT-35" transform="translate(83.398438 0)"/>
      </g>
     </g>
    </g>
    <g id="text_15">
     <!-- Matrix Assembly Bandwidth [GB/s] -->
     <g style="fill: #262626" transform="translate(55.71925 424.50225) rotate(-90) scale(0.2208 -0.2208)">
      <defs>
       <path id="ArialMT-4d" d="M 475 0 
L 475 4581 
L 1388 4581 
L 2472 1338 
Q 2622 884 2691 659 
Q 2769 909 2934 1394 
L 4031 4581 
L 4847 4581 
L 4847 0 
L 4263 0 
L 4263 3834 
L 2931 0 
L 2384 0 
L 1059 3900 
L 1059 0 
L 475 0 
z
" transform="scale(0.015625)"/>
       <path id="ArialMT-61" d="M 2588 409 
Q 2275 144 1986 34 
Q 1697 -75 1366 -75 
Q 819 -75 525 192 
Q 231 459 231 875 
Q 231 1119 342 1320 
Q 453 1522 633 1644 
Q 813 1766 1038 1828 
Q 1203 1872 1538 1913 
Q 2219 1994 2541 2106 
Q 2544 2222 2544 2253 
Q 2544 2597 2384 2738 
Q 2169 2928 1744 2928 
Q 1347 2928 1158 2789 
Q 969 2650 878 2297 
L 328 2372 
Q 403 2725 575 2942 
Q 747 3159 1072 3276 
Q 1397 3394 1825 3394 
Q 2250 3394 2515 3294 
Q 2781 3194 2906 3042 
Q 3031 2891 3081 2659 
Q 3109 2516 3109 2141 
L 3109 1391 
Q 3109 606 3145 398 
Q 3181 191 3288 0 
L 2700 0 
Q 2613 175 2588 409 
z
M 2541 1666 
Q 2234 1541 1622 1453 
Q 1275 1403 1131 1340 
Q 988 1278 909 1158 
Q 831 1038 831 891 
Q 831 666 1001 516 
Q 1172 366 1500 366 
Q 1825 366 2078 508 
Q 2331 650 2450 897 
Q 2541 1088 2541 1459 
L 2541 1666 
z
" transform="scale(0.015625)"/>
       <path id="ArialMT-74" d="M 1650 503 
L 1731 6 
Q 1494 -44 1306 -44 
Q 1000 -44 831 53 
Q 663 150 594 308 
Q 525 466 525 972 
L 525 2881 
L 113 2881 
L 113 3319 
L 525 3319 
L 525 4141 
L 1084 4478 
L 1084 3319 
L 1650 3319 
L 1650 2881 
L 1084 2881 
L 1084 941 
Q 1084 700 1114 631 
Q 1144 563 1211 522 
Q 1278 481 1403 481 
Q 1497 481 1650 503 
z
" transform="scale(0.015625)"/>
       <path id="ArialMT-72" d="M 416 0 
L 416 3319 
L 922 3319 
L 922 2816 
Q 1116 3169 1280 3281 
Q 1444 3394 1641 3394 
Q 1925 3394 2219 3213 
L 2025 2691 
Q 1819 2813 1613 2813 
Q 1428 2813 1281 2702 
Q 1134 2591 1072 2394 
Q 978 2094 978 1738 
L 978 0 
L 416 0 
z
" transform="scale(0.015625)"/>
       <path id="ArialMT-69" d="M 425 3934 
L 425 4581 
L 988 4581 
L 988 3934 
L 425 3934 
z
M 425 0 
L 425 3319 
L 988 3319 
L 988 0 
L 425 0 
z
" transform="scale(0.015625)"/>
       <path id="ArialMT-78" d="M 47 0 
L 1259 1725 
L 138 3319 
L 841 3319 
L 1350 2541 
Q 1494 2319 1581 2169 
Q 1719 2375 1834 2534 
L 2394 3319 
L 3066 3319 
L 1919 1756 
L 3153 0 
L 2463 0 
L 1781 1031 
L 1600 1309 
L 728 0 
L 47 0 
z
" transform="scale(0.015625)"/>
       <path id="ArialMT-20" transform="scale(0.015625)"/>
       <path id="ArialMT-41" d="M -9 0 
L 1750 4581 
L 2403 4581 
L 4278 0 
L 3588 0 
L 3053 1388 
L 1138 1388 
L 634 0 
L -9 0 
z
M 1313 1881 
L 2866 1881 
L 2388 3150 
Q 2169 3728 2063 4100 
Q 1975 3659 1816 3225 
L 1313 1881 
z
" transform="scale(0.015625)"/>
       <path id="ArialMT-6d" d="M 422 0 
L 422 3319 
L 925 3319 
L 925 2853 
Q 1081 3097 1340 3245 
Q 1600 3394 1931 3394 
Q 2300 3394 2536 3241 
Q 2772 3088 2869 2813 
Q 3263 3394 3894 3394 
Q 4388 3394 4653 3120 
Q 4919 2847 4919 2278 
L 4919 0 
L 4359 0 
L 4359 2091 
Q 4359 2428 4304 2576 
Q 4250 2725 4106 2815 
Q 3963 2906 3769 2906 
Q 3419 2906 3187 2673 
Q 2956 2441 2956 1928 
L 2956 0 
L 2394 0 
L 2394 2156 
Q 2394 2531 2256 2718 
Q 2119 2906 1806 2906 
Q 1569 2906 1367 2781 
Q 1166 2656 1075 2415 
Q 984 2175 984 1722 
L 984 0 
L 422 0 
z
" transform="scale(0.015625)"/>
       <path id="ArialMT-62" d="M 941 0 
L 419 0 
L 419 4581 
L 981 4581 
L 981 2947 
Q 1338 3394 1891 3394 
Q 2197 3394 2470 3270 
Q 2744 3147 2920 2923 
Q 3097 2700 3197 2384 
Q 3297 2069 3297 1709 
Q 3297 856 2875 390 
Q 2453 -75 1863 -75 
Q 1275 -75 941 416 
L 941 0 
z
M 934 1684 
Q 934 1088 1097 822 
Q 1363 388 1816 388 
Q 2184 388 2453 708 
Q 2722 1028 2722 1663 
Q 2722 2313 2464 2622 
Q 2206 2931 1841 2931 
Q 1472 2931 1203 2611 
Q 934 2291 934 1684 
z
" transform="scale(0.015625)"/>
       <path id="ArialMT-79" d="M 397 -1278 
L 334 -750 
Q 519 -800 656 -800 
Q 844 -800 956 -737 
Q 1069 -675 1141 -563 
Q 1194 -478 1313 -144 
Q 1328 -97 1363 -6 
L 103 3319 
L 709 3319 
L 1400 1397 
Q 1534 1031 1641 628 
Q 1738 1016 1872 1384 
L 2581 3319 
L 3144 3319 
L 1881 -56 
Q 1678 -603 1566 -809 
Q 1416 -1088 1222 -1217 
Q 1028 -1347 759 -1347 
Q 597 -1347 397 -1278 
z
" transform="scale(0.015625)"/>
       <path id="ArialMT-42" d="M 469 0 
L 469 4581 
L 2188 4581 
Q 2713 4581 3030 4442 
Q 3347 4303 3526 4014 
Q 3706 3725 3706 3409 
Q 3706 3116 3547 2856 
Q 3388 2597 3066 2438 
Q 3481 2316 3704 2022 
Q 3928 1728 3928 1328 
Q 3928 1006 3792 729 
Q 3656 453 3456 303 
Q 3256 153 2954 76 
Q 2653 0 2216 0 
L 469 0 
z
M 1075 2656 
L 2066 2656 
Q 2469 2656 2644 2709 
Q 2875 2778 2992 2937 
Q 3109 3097 3109 3338 
Q 3109 3566 3000 3739 
Q 2891 3913 2687 3977 
Q 2484 4041 1991 4041 
L 1075 4041 
L 1075 2656 
z
M 1075 541 
L 2216 541 
Q 2509 541 2628 563 
Q 2838 600 2978 687 
Q 3119 775 3209 942 
Q 3300 1109 3300 1328 
Q 3300 1584 3169 1773 
Q 3038 1963 2805 2039 
Q 2572 2116 2134 2116 
L 1075 2116 
L 1075 541 
z
" transform="scale(0.015625)"/>
       <path id="ArialMT-6e" d="M 422 0 
L 422 3319 
L 928 3319 
L 928 2847 
Q 1294 3394 1984 3394 
Q 2284 3394 2536 3286 
Q 2788 3178 2913 3003 
Q 3038 2828 3088 2588 
Q 3119 2431 3119 2041 
L 3119 0 
L 2556 0 
L 2556 2019 
Q 2556 2363 2490 2533 
Q 2425 2703 2258 2804 
Q 2091 2906 1866 2906 
Q 1506 2906 1245 2678 
Q 984 2450 984 1813 
L 984 0 
L 422 0 
z
" transform="scale(0.015625)"/>
       <path id="ArialMT-64" d="M 2575 0 
L 2575 419 
Q 2259 -75 1647 -75 
Q 1250 -75 917 144 
Q 584 363 401 755 
Q 219 1147 219 1656 
Q 219 2153 384 2558 
Q 550 2963 881 3178 
Q 1213 3394 1622 3394 
Q 1922 3394 2156 3267 
Q 2391 3141 2538 2938 
L 2538 4581 
L 3097 4581 
L 3097 0 
L 2575 0 
z
M 797 1656 
Q 797 1019 1065 703 
Q 1334 388 1700 388 
Q 2069 388 2326 689 
Q 2584 991 2584 1609 
Q 2584 2291 2321 2609 
Q 2059 2928 1675 2928 
Q 1300 2928 1048 2622 
Q 797 2316 797 1656 
z
" transform="scale(0.015625)"/>
       <path id="ArialMT-77" d="M 1034 0 
L 19 3319 
L 600 3319 
L 1128 1403 
L 1325 691 
Q 1338 744 1497 1375 
L 2025 3319 
L 2603 3319 
L 3100 1394 
L 3266 759 
L 3456 1400 
L 4025 3319 
L 4572 3319 
L 3534 0 
L 2950 0 
L 2422 1988 
L 2294 2553 
L 1622 0 
L 1034 0 
z
" transform="scale(0.015625)"/>
       <path id="ArialMT-68" d="M 422 0 
L 422 4581 
L 984 4581 
L 984 2938 
Q 1378 3394 1978 3394 
Q 2347 3394 2619 3248 
Q 2891 3103 3008 2847 
Q 3125 2591 3125 2103 
L 3125 0 
L 2563 0 
L 2563 2103 
Q 2563 2525 2380 2717 
Q 2197 2909 1863 2909 
Q 1613 2909 1392 2779 
Q 1172 2650 1078 2428 
Q 984 2206 984 1816 
L 984 0 
L 422 0 
z
" transform="scale(0.015625)"/>
       <path id="ArialMT-5b" d="M 434 -1272 
L 434 4581 
L 1675 4581 
L 1675 4116 
L 997 4116 
L 997 -806 
L 1675 -806 
L 1675 -1272 
L 434 -1272 
z
" transform="scale(0.015625)"/>
       <path id="ArialMT-47" d="M 2638 1797 
L 2638 2334 
L 4578 2338 
L 4578 638 
Q 4131 281 3656 101 
Q 3181 -78 2681 -78 
Q 2006 -78 1454 211 
Q 903 500 622 1047 
Q 341 1594 341 2269 
Q 341 2938 620 3517 
Q 900 4097 1425 4378 
Q 1950 4659 2634 4659 
Q 3131 4659 3532 4498 
Q 3934 4338 4162 4050 
Q 4391 3763 4509 3300 
L 3963 3150 
Q 3859 3500 3706 3700 
Q 3553 3900 3268 4020 
Q 2984 4141 2638 4141 
Q 2222 4141 1919 4014 
Q 1616 3888 1430 3681 
Q 1244 3475 1141 3228 
Q 966 2803 966 2306 
Q 966 1694 1177 1281 
Q 1388 869 1791 669 
Q 2194 469 2647 469 
Q 3041 469 3416 620 
Q 3791 772 3984 944 
L 3984 1797 
L 2638 1797 
z
" transform="scale(0.015625)"/>
       <path id="ArialMT-2f" d="M 0 -78 
L 1328 4659 
L 1778 4659 
L 453 -78 
L 0 -78 
z
" transform="scale(0.015625)"/>
       <path id="ArialMT-5d" d="M 1363 -1272 
L 122 -1272 
L 122 -806 
L 800 -806 
L 800 4116 
L 122 4116 
L 122 4581 
L 1363 4581 
L 1363 -1272 
z
" transform="scale(0.015625)"/>
      </defs>
      <use xlink:href="#ArialMT-4d"/>
      <use xlink:href="#ArialMT-61" transform="translate(83.300781 0)"/>
      <use xlink:href="#ArialMT-74" transform="translate(138.916016 0)"/>
      <use xlink:href="#ArialMT-72" transform="translate(166.699219 0)"/>
      <use xlink:href="#ArialMT-69" transform="translate(200 0)"/>
      <use xlink:href="#ArialMT-78" transform="translate(222.216797 0)"/>
      <use xlink:href="#ArialMT-20" transform="translate(272.216797 0)"/>
      <use xlink:href="#ArialMT-41" transform="translate(294.5 0)"/>
      <use xlink:href="#ArialMT-73" transform="translate(361.199219 0)"/>
      <use xlink:href="#ArialMT-73" transform="translate(411.199219 0)"/>
      <use xlink:href="#ArialMT-65" transform="translate(461.199219 0)"/>
      <use xlink:href="#ArialMT-6d" transform="translate(516.814453 0)"/>
      <use xlink:href="#ArialMT-62" transform="translate(600.115234 0)"/>
      <use xlink:href="#ArialMT-6c" transform="translate(655.730469 0)"/>
      <use xlink:href="#ArialMT-79" transform="translate(677.947266 0)"/>
      <use xlink:href="#ArialMT-20" transform="translate(727.947266 0)"/>
      <use xlink:href="#ArialMT-42" transform="translate(755.730469 0)"/>
      <use xlink:href="#ArialMT-61" transform="translate(822.429688 0)"/>
      <use xlink:href="#ArialMT-6e" transform="translate(878.044922 0)"/>
      <use xlink:href="#ArialMT-64" transform="translate(933.660156 0)"/>
      <use xlink:href="#ArialMT-77" transform="translate(989.275391 0)"/>
      <use xlink:href="#ArialMT-69" transform="translate(1061.492188 0)"/>
      <use xlink:href="#ArialMT-64" transform="translate(1083.708984 0)"/>
      <use xlink:href="#ArialMT-74" transform="translate(1139.324219 0)"/>
      <use xlink:href="#ArialMT-68" transform="translate(1167.107422 0)"/>
      <use xlink:href="#ArialMT-20" transform="translate(1222.722656 0)"/>
      <use xlink:href="#ArialMT-5b" transform="translate(1250.505859 0)"/>
      <use xlink:href="#ArialMT-47" transform="translate(1278.289062 0)"/>
      <use xlink:href="#ArialMT-42" transform="translate(1356.072266 0)"/>
      <use xlink:href="#ArialMT-2f" transform="translate(1422.771484 0)"/>
      <use xlink:href="#ArialMT-73" transform="translate(1450.554688 0)"/>
      <use xlink:href="#ArialMT-5d" transform="translate(1500.554688 0)"/>
     </g>
    </g>
   </g>
   <g id="line2d_14">
    <path d="M 128.504017 341.299287 
L 232.616724 346.048276 
L 293.518753 329.529512 
L 336.72943 329.675514 
L 370.246235 333.656781 
L 397.631459 350.274056 
L 420.785336 359.361954 
L 440.842137 375.02938 
L 458.533489 371.70636 
L 474.358942 378.971855 
L 488.674806 374.134988 
L 501.744166 376.468367 
L 513.766812 381.547455 
L 524.898043 386.927038 
L 535.260971 385.538259 
L 544.954843 386.262658 
L 554.060836 385.270014 
L 562.646195 386.998105 
L 570.767248 387.874685 
L 578.471649 389.076323 
L 592.787513 387.042847 
L 605.856873 391.424334 
L 617.879518 398.408949 
L 629.010749 402.269713 
L 639.373678 410.651706 
L 649.06755 420.89953 
L 658.173543 431.034545 
L 666.758902 429.04971 
L 674.879954 427.192897 
L 682.584355 428.636777 
" clip-path="url(#p899a9da0e4)" style="fill: none; stroke: #4c72b0; stroke-width: 1.2; stroke-linecap: round"/>
    <defs>
     <path id="m6f619c97bc" d="M 0 6 
C 1.591219 6 3.117479 5.367802 4.242641 4.242641 
C 5.367802 3.117479 6 1.591219 6 0 
C 6 -1.591219 5.367802 -3.117479 4.242641 -4.242641 
C 3.117479 -5.367802 1.591219 -6 0 -6 
C -1.591219 -6 -3.117479 -5.367802 -4.242641 -4.242641 
C -5.367802 -3.117479 -6 -1.591219 -6 0 
C -6 1.591219 -5.367802 3.117479 -4.242641 4.242641 
C -3.117479 5.367802 -1.591219 6 0 6 
z
" style="stroke: #ffffff; stroke-width: 0.75"/>
    </defs>
    <g clip-path="url(#p899a9da0e4)">
     <use xlink:href="#m6f619c97bc" x="128.504017" y="341.299287" style="fill: #4c72b0; stroke: #ffffff; stroke-width: 0.75"/>
     <use xlink:href="#m6f619c97bc" x="232.616724" y="346.048276" style="fill: #4c72b0; stroke: #ffffff; stroke-width: 0.75"/>
     <use xlink:href="#m6f619c97bc" x="293.518753" y="329.529512" style="fill: #4c72b0; stroke: #ffffff; stroke-width: 0.75"/>
     <use xlink:href="#m6f619c97bc" x="336.72943" y="329.675514" style="fill: #4c72b0; stroke: #ffffff; stroke-width: 0.75"/>
     <use xlink:href="#m6f619c97bc" x="370.246235" y="333.656781" style="fill: #4c72b0; stroke: #ffffff; stroke-width: 0.75"/>
     <use xlink:href="#m6f619c97bc" x="397.631459" y="350.274056" style="fill: #4c72b0; stroke: #ffffff; stroke-width: 0.75"/>
     <use xlink:href="#m6f619c97bc" x="420.785336" y="359.361954" style="fill: #4c72b0; stroke: #ffffff; stroke-width: 0.75"/>
     <use xlink:href="#m6f619c97bc" x="440.842137" y="375.02938" style="fill: #4c72b0; stroke: #ffffff; stroke-width: 0.75"/>
     <use xlink:href="#m6f619c97bc" x="458.533489" y="371.70636" style="fill: #4c72b0; stroke: #ffffff; stroke-width: 0.75"/>
     <use xlink:href="#m6f619c97bc" x="474.358942" y="378.971855" style="fill: #4c72b0; stroke: #ffffff; stroke-width: 0.75"/>
     <use xlink:href="#m6f619c97bc" x="488.674806" y="374.134988" style="fill: #4c72b0; stroke: #ffffff; stroke-width: 0.75"/>
     <use xlink:href="#m6f619c97bc" x="501.744166" y="376.468367" style="fill: #4c72b0; stroke: #ffffff; stroke-width: 0.75"/>
     <use xlink:href="#m6f619c97bc" x="513.766812" y="381.547455" style="fill: #4c72b0; stroke: #ffffff; stroke-width: 0.75"/>
     <use xlink:href="#m6f619c97bc" x="524.898043" y="386.927038" style="fill: #4c72b0; stroke: #ffffff; stroke-width: 0.75"/>
     <use xlink:href="#m6f619c97bc" x="535.260971" y="385.538259" style="fill: #4c72b0; stroke: #ffffff; stroke-width: 0.75"/>
     <use xlink:href="#m6f619c97bc" x="544.954843" y="386.262658" style="fill: #4c72b0; stroke: #ffffff; stroke-width: 0.75"/>
     <use xlink:href="#m6f619c97bc" x="554.060836" y="385.270014" style="fill: #4c72b0; stroke: #ffffff; stroke-width: 0.75"/>
     <use xlink:href="#m6f619c97bc" x="562.646195" y="386.998105" style="fill: #4c72b0; stroke: #ffffff; stroke-width: 0.75"/>
     <use xlink:href="#m6f619c97bc" x="570.767248" y="387.874685" style="fill: #4c72b0; stroke: #ffffff; stroke-width: 0.75"/>
     <use xlink:href="#m6f619c97bc" x="578.471649" y="389.076323" style="fill: #4c72b0; stroke: #ffffff; stroke-width: 0.75"/>
     <use xlink:href="#m6f619c97bc" x="592.787513" y="387.042847" style="fill: #4c72b0; stroke: #ffffff; stroke-width: 0.75"/>
     <use xlink:href="#m6f619c97bc" x="605.856873" y="391.424334" style="fill: #4c72b0; stroke: #ffffff; stroke-width: 0.75"/>
     <use xlink:href="#m6f619c97bc" x="617.879518" y="398.408949" style="fill: #4c72b0; stroke: #ffffff; stroke-width: 0.75"/>
     <use xlink:href="#m6f619c97bc" x="629.010749" y="402.269713" style="fill: #4c72b0; stroke: #ffffff; stroke-width: 0.75"/>
     <use xlink:href="#m6f619c97bc" x="639.373678" y="410.651706" style="fill: #4c72b0; stroke: #ffffff; stroke-width: 0.75"/>
     <use xlink:href="#m6f619c97bc" x="649.06755" y="420.89953" style="fill: #4c72b0; stroke: #ffffff; stroke-width: 0.75"/>
     <use xlink:href="#m6f619c97bc" x="658.173543" y="431.034545" style="fill: #4c72b0; stroke: #ffffff; stroke-width: 0.75"/>
     <use xlink:href="#m6f619c97bc" x="666.758902" y="429.04971" style="fill: #4c72b0; stroke: #ffffff; stroke-width: 0.75"/>
     <use xlink:href="#m6f619c97bc" x="674.879954" y="427.192897" style="fill: #4c72b0; stroke: #ffffff; stroke-width: 0.75"/>
     <use xlink:href="#m6f619c97bc" x="682.584355" y="428.636777" style="fill: #4c72b0; stroke: #ffffff; stroke-width: 0.75"/>
    </g>
   </g>
   <g id="line2d_15">
    <path d="M 128.504017 109.16062 
L 232.616724 101.534122 
L 293.518753 103.723334 
L 336.72943 92.974869 
L 370.246235 80.525455 
L 397.631459 90.073463 
L 420.785336 119.866012 
L 440.842137 189.77441 
L 458.533489 223.597433 
L 474.358942 254.355005 
L 488.674806 253.691406 
L 501.744166 243.236377 
L 513.766812 254.786277 
L 524.898043 255.167541 
L 535.260971 255.010132 
L 544.954843 259.435095 
L 554.060836 255.069269 
L 562.646195 253.383256 
L 570.767248 255.058292 
L 578.471649 254.686828 
L 592.787513 238.721036 
L 605.856873 253.280265 
L 617.879518 256.154824 
L 629.010749 252.626077 
L 639.373678 253.894503 
L 649.06755 256.294599 
L 658.173543 264.009888 
L 666.758902 256.340123 
L 674.879954 263.156039 
L 682.584355 272.743464 
" clip-path="url(#p899a9da0e4)" style="fill: none; stroke: #dd8452; stroke-width: 1.2; stroke-linecap: round"/>
    <defs>
     <path id="m3fa2ebed1d" d="M -6 6 
L 6 6 
L 6 -6 
L -6 -6 
z
" style="stroke: #ffffff; stroke-width: 0.75; stroke-linejoin: miter"/>
    </defs>
    <g clip-path="url(#p899a9da0e4)">
     <use xlink:href="#m3fa2ebed1d" x="128.504017" y="109.16062" style="fill: #dd8452; stroke: #ffffff; stroke-width: 0.75; stroke-linejoin: miter"/>
     <use xlink:href="#m3fa2ebed1d" x="232.616724" y="101.534122" style="fill: #dd8452; stroke: #ffffff; stroke-width: 0.75; stroke-linejoin: miter"/>
     <use xlink:href="#m3fa2ebed1d" x="293.518753" y="103.723334" style="fill: #dd8452; stroke: #ffffff; stroke-width: 0.75; stroke-linejoin: miter"/>
     <use xlink:href="#m3fa2ebed1d" x="336.72943" y="92.974869" style="fill: #dd8452; stroke: #ffffff; stroke-width: 0.75; stroke-linejoin: miter"/>
     <use xlink:href="#m3fa2ebed1d" x="370.246235" y="80.525455" style="fill: #dd8452; stroke: #ffffff; stroke-width: 0.75; stroke-linejoin: miter"/>
     <use xlink:href="#m3fa2ebed1d" x="397.631459" y="90.073463" style="fill: #dd8452; stroke: #ffffff; stroke-width: 0.75; stroke-linejoin: miter"/>
     <use xlink:href="#m3fa2ebed1d" x="420.785336" y="119.866012" style="fill: #dd8452; stroke: #ffffff; stroke-width: 0.75; stroke-linejoin: miter"/>
     <use xlink:href="#m3fa2ebed1d" x="440.842137" y="189.77441" style="fill: #dd8452; stroke: #ffffff; stroke-width: 0.75; stroke-linejoin: miter"/>
     <use xlink:href="#m3fa2ebed1d" x="458.533489" y="223.597433" style="fill: #dd8452; stroke: #ffffff; stroke-width: 0.75; stroke-linejoin: miter"/>
     <use xlink:href="#m3fa2ebed1d" x="474.358942" y="254.355005" style="fill: #dd8452; stroke: #ffffff; stroke-width: 0.75; stroke-linejoin: miter"/>
     <use xlink:href="#m3fa2ebed1d" x="488.674806" y="253.691406" style="fill: #dd8452; stroke: #ffffff; stroke-width: 0.75; stroke-linejoin: miter"/>
     <use xlink:href="#m3fa2ebed1d" x="501.744166" y="243.236377" style="fill: #dd8452; stroke: #ffffff; stroke-width: 0.75; stroke-linejoin: miter"/>
     <use xlink:href="#m3fa2ebed1d" x="513.766812" y="254.786277" style="fill: #dd8452; stroke: #ffffff; stroke-width: 0.75; stroke-linejoin: miter"/>
     <use xlink:href="#m3fa2ebed1d" x="524.898043" y="255.167541" style="fill: #dd8452; stroke: #ffffff; stroke-width: 0.75; stroke-linejoin: miter"/>
     <use xlink:href="#m3fa2ebed1d" x="535.260971" y="255.010132" style="fill: #dd8452; stroke: #ffffff; stroke-width: 0.75; stroke-linejoin: miter"/>
     <use xlink:href="#m3fa2ebed1d" x="544.954843" y="259.435095" style="fill: #dd8452; stroke: #ffffff; stroke-width: 0.75; stroke-linejoin: miter"/>
     <use xlink:href="#m3fa2ebed1d" x="554.060836" y="255.069269" style="fill: #dd8452; stroke: #ffffff; stroke-width: 0.75; stroke-linejoin: miter"/>
     <use xlink:href="#m3fa2ebed1d" x="562.646195" y="253.383256" style="fill: #dd8452; stroke: #ffffff; stroke-width: 0.75; stroke-linejoin: miter"/>
     <use xlink:href="#m3fa2ebed1d" x="570.767248" y="255.058292" style="fill: #dd8452; stroke: #ffffff; stroke-width: 0.75; stroke-linejoin: miter"/>
     <use xlink:href="#m3fa2ebed1d" x="578.471649" y="254.686828" style="fill: #dd8452; stroke: #ffffff; stroke-width: 0.75; stroke-linejoin: miter"/>
     <use xlink:href="#m3fa2ebed1d" x="592.787513" y="238.721036" style="fill: #dd8452; stroke: #ffffff; stroke-width: 0.75; stroke-linejoin: miter"/>
     <use xlink:href="#m3fa2ebed1d" x="605.856873" y="253.280265" style="fill: #dd8452; stroke: #ffffff; stroke-width: 0.75; stroke-linejoin: miter"/>
     <use xlink:href="#m3fa2ebed1d" x="617.879518" y="256.154824" style="fill: #dd8452; stroke: #ffffff; stroke-width: 0.75; stroke-linejoin: miter"/>
     <use xlink:href="#m3fa2ebed1d" x="629.010749" y="252.626077" style="fill: #dd8452; stroke: #ffffff; stroke-width: 0.75; stroke-linejoin: miter"/>
     <use xlink:href="#m3fa2ebed1d" x="639.373678" y="253.894503" style="fill: #dd8452; stroke: #ffffff; stroke-width: 0.75; stroke-linejoin: miter"/>
     <use xlink:href="#m3fa2ebed1d" x="649.06755" y="256.294599" style="fill: #dd8452; stroke: #ffffff; stroke-width: 0.75; stroke-linejoin: miter"/>
     <use xlink:href="#m3fa2ebed1d" x="658.173543" y="264.009888" style="fill: #dd8452; stroke: #ffffff; stroke-width: 0.75; stroke-linejoin: miter"/>
     <use xlink:href="#m3fa2ebed1d" x="666.758902" y="256.340123" style="fill: #dd8452; stroke: #ffffff; stroke-width: 0.75; stroke-linejoin: miter"/>
     <use xlink:href="#m3fa2ebed1d" x="674.879954" y="263.156039" style="fill: #dd8452; stroke: #ffffff; stroke-width: 0.75; stroke-linejoin: miter"/>
     <use xlink:href="#m3fa2ebed1d" x="682.584355" y="272.743464" style="fill: #dd8452; stroke: #ffffff; stroke-width: 0.75; stroke-linejoin: miter"/>
    </g>
   </g>
   <g id="line2d_16">
    <path d="M 128.504017 181.762325 
L 232.616724 153.566484 
L 293.518753 146.1206 
L 336.72943 133.370863 
L 370.246235 123.521923 
L 397.631459 128.052514 
L 420.785336 151.503823 
L 440.842137 208.809677 
L 458.533489 236.198946 
L 474.358942 262.792074 
L 488.674806 262.879011 
L 501.744166 252.384091 
L 513.766812 263.45678 
L 524.898043 263.260785 
L 535.260971 261.298835 
L 544.954843 265.928047 
L 554.060836 262.850619 
L 562.646195 261.764848 
L 570.767248 259.192225 
L 578.471649 262.270108 
L 592.787513 243.819133 
L 605.856873 258.948366 
L 617.879518 257.225304 
L 629.010749 258.168069 
L 639.373678 266.169975 
L 649.06755 267.932369 
L 658.173543 268.775658 
L 666.758902 269.185343 
L 674.879954 268.804281 
L 682.584355 270.420653 
" clip-path="url(#p899a9da0e4)" style="fill: none; stroke: #55a868; stroke-width: 1.2; stroke-linecap: round"/>
    <defs>
     <path id="m86f926ee72" d="M -0 8.485281 
L 8.485281 0 
L 0 -8.485281 
L -8.485281 -0 
z
" style="stroke: #ffffff; stroke-width: 0.75; stroke-linejoin: miter"/>
    </defs>
    <g clip-path="url(#p899a9da0e4)">
     <use xlink:href="#m86f926ee72" x="128.504017" y="181.762325" style="fill: #55a868; stroke: #ffffff; stroke-width: 0.75; stroke-linejoin: miter"/>
     <use xlink:href="#m86f926ee72" x="232.616724" y="153.566484" style="fill: #55a868; stroke: #ffffff; stroke-width: 0.75; stroke-linejoin: miter"/>
     <use xlink:href="#m86f926ee72" x="293.518753" y="146.1206" style="fill: #55a868; stroke: #ffffff; stroke-width: 0.75; stroke-linejoin: miter"/>
     <use xlink:href="#m86f926ee72" x="336.72943" y="133.370863" style="fill: #55a868; stroke: #ffffff; stroke-width: 0.75; stroke-linejoin: miter"/>
     <use xlink:href="#m86f926ee72" x="370.246235" y="123.521923" style="fill: #55a868; stroke: #ffffff; stroke-width: 0.75; stroke-linejoin: miter"/>
     <use xlink:href="#m86f926ee72" x="397.631459" y="128.052514" style="fill: #55a868; stroke: #ffffff; stroke-width: 0.75; stroke-linejoin: miter"/>
     <use xlink:href="#m86f926ee72" x="420.785336" y="151.503823" style="fill: #55a868; stroke: #ffffff; stroke-width: 0.75; stroke-linejoin: miter"/>
     <use xlink:href="#m86f926ee72" x="440.842137" y="208.809677" style="fill: #55a868; stroke: #ffffff; stroke-width: 0.75; stroke-linejoin: miter"/>
     <use xlink:href="#m86f926ee72" x="458.533489" y="236.198946" style="fill: #55a868; stroke: #ffffff; stroke-width: 0.75; stroke-linejoin: miter"/>
     <use xlink:href="#m86f926ee72" x="474.358942" y="262.792074" style="fill: #55a868; stroke: #ffffff; stroke-width: 0.75; stroke-linejoin: miter"/>
     <use xlink:href="#m86f926ee72" x="488.674806" y="262.879011" style="fill: #55a868; stroke: #ffffff; stroke-width: 0.75; stroke-linejoin: miter"/>
     <use xlink:href="#m86f926ee72" x="501.744166" y="252.384091" style="fill: #55a868; stroke: #ffffff; stroke-width: 0.75; stroke-linejoin: miter"/>
     <use xlink:href="#m86f926ee72" x="513.766812" y="263.45678" style="fill: #55a868; stroke: #ffffff; stroke-width: 0.75; stroke-linejoin: miter"/>
     <use xlink:href="#m86f926ee72" x="524.898043" y="263.260785" style="fill: #55a868; stroke: #ffffff; stroke-width: 0.75; stroke-linejoin: miter"/>
     <use xlink:href="#m86f926ee72" x="535.260971" y="261.298835" style="fill: #55a868; stroke: #ffffff; stroke-width: 0.75; stroke-linejoin: miter"/>
     <use xlink:href="#m86f926ee72" x="544.954843" y="265.928047" style="fill: #55a868; stroke: #ffffff; stroke-width: 0.75; stroke-linejoin: miter"/>
     <use xlink:href="#m86f926ee72" x="554.060836" y="262.850619" style="fill: #55a868; stroke: #ffffff; stroke-width: 0.75; stroke-linejoin: miter"/>
     <use xlink:href="#m86f926ee72" x="562.646195" y="261.764848" style="fill: #55a868; stroke: #ffffff; stroke-width: 0.75; stroke-linejoin: miter"/>
     <use xlink:href="#m86f926ee72" x="570.767248" y="259.192225" style="fill: #55a868; stroke: #ffffff; stroke-width: 0.75; stroke-linejoin: miter"/>
     <use xlink:href="#m86f926ee72" x="578.471649" y="262.270108" style="fill: #55a868; stroke: #ffffff; stroke-width: 0.75; stroke-linejoin: miter"/>
     <use xlink:href="#m86f926ee72" x="592.787513" y="243.819133" style="fill: #55a868; stroke: #ffffff; stroke-width: 0.75; stroke-linejoin: miter"/>
     <use xlink:href="#m86f926ee72" x="605.856873" y="258.948366" style="fill: #55a868; stroke: #ffffff; stroke-width: 0.75; stroke-linejoin: miter"/>
     <use xlink:href="#m86f926ee72" x="617.879518" y="257.225304" style="fill: #55a868; stroke: #ffffff; stroke-width: 0.75; stroke-linejoin: miter"/>
     <use xlink:href="#m86f926ee72" x="629.010749" y="258.168069" style="fill: #55a868; stroke: #ffffff; stroke-width: 0.75; stroke-linejoin: miter"/>
     <use xlink:href="#m86f926ee72" x="639.373678" y="266.169975" style="fill: #55a868; stroke: #ffffff; stroke-width: 0.75; stroke-linejoin: miter"/>
     <use xlink:href="#m86f926ee72" x="649.06755" y="267.932369" style="fill: #55a868; stroke: #ffffff; stroke-width: 0.75; stroke-linejoin: miter"/>
     <use xlink:href="#m86f926ee72" x="658.173543" y="268.775658" style="fill: #55a868; stroke: #ffffff; stroke-width: 0.75; stroke-linejoin: miter"/>
     <use xlink:href="#m86f926ee72" x="666.758902" y="269.185343" style="fill: #55a868; stroke: #ffffff; stroke-width: 0.75; stroke-linejoin: miter"/>
     <use xlink:href="#m86f926ee72" x="674.879954" y="268.804281" style="fill: #55a868; stroke: #ffffff; stroke-width: 0.75; stroke-linejoin: miter"/>
     <use xlink:href="#m86f926ee72" x="682.584355" y="270.420653" style="fill: #55a868; stroke: #ffffff; stroke-width: 0.75; stroke-linejoin: miter"/>
    </g>
   </g>
   <g id="line2d_17"/>
   <g id="line2d_18"/>
   <g id="line2d_19"/>
   <g id="patch_3">
    <path d="M 100.8 448.56 
L 100.8 63 
" style="fill: none; stroke: #cccccc; stroke-linejoin: miter; stroke-linecap: square"/>
   </g>
   <g id="patch_4">
    <path d="M 710.288372 448.56 
L 710.288372 63 
" style="fill: none; stroke: #cccccc; stroke-linejoin: miter; stroke-linecap: square"/>
   </g>
   <g id="patch_5">
    <path d="M 100.8 448.56 
L 710.288372 448.56 
" style="fill: none; stroke: #cccccc; stroke-linejoin: miter; stroke-linecap: square"/>
   </g>
   <g id="patch_6">
    <path d="M 100.8 63 
L 710.288372 63 
" style="fill: none; stroke: #cccccc; stroke-linejoin: miter; stroke-linecap: square"/>
   </g>
  </g>
  <g id="axes_2">
   <g id="patch_7">
    <path d="M 801.711628 448.56 
L 1411.2 448.56 
L 1411.2 63 
L 801.711628 63 
z
" style="fill: #ffffff"/>
   </g>
   <g id="matplotlib.axis_3">
    <g id="xtick_51">
     <g id="line2d_20">
      <path d="M 829.406987 448.56 
L 829.406987 63 
" clip-path="url(#p8eeba91728)" style="fill: none; stroke: #cccccc; stroke-width: 0.8; stroke-linecap: round"/>
     </g>
     <g id="text_16">
      <!-- 0 -->
      <g style="fill: #262626" transform="translate(823.779318 471.347413) scale(0.2024 -0.2024)">
       <use xlink:href="#ArialMT-30"/>
      </g>
     </g>
    </g>
    <g id="xtick_52">
     <g id="line2d_21">
      <path d="M 915.983393 448.56 
L 915.983393 63 
" clip-path="url(#p8eeba91728)" style="fill: none; stroke: #cccccc; stroke-width: 0.8; stroke-linecap: round"/>
     </g>
     <g id="text_17">
      <!-- 1 -->
      <g style="fill: #262626" transform="translate(910.355724 471.347413) scale(0.2024 -0.2024)">
       <use xlink:href="#ArialMT-31"/>
      </g>
     </g>
    </g>
    <g id="xtick_53">
     <g id="line2d_22">
      <path d="M 1002.559798 448.56 
L 1002.559798 63 
" clip-path="url(#p8eeba91728)" style="fill: none; stroke: #cccccc; stroke-width: 0.8; stroke-linecap: round"/>
     </g>
     <g id="text_18">
      <!-- 2 -->
      <g style="fill: #262626" transform="translate(996.93213 471.347413) scale(0.2024 -0.2024)">
       <use xlink:href="#ArialMT-32"/>
      </g>
     </g>
    </g>
    <g id="xtick_54">
     <g id="line2d_23">
      <path d="M 1089.136204 448.56 
L 1089.136204 63 
" clip-path="url(#p8eeba91728)" style="fill: none; stroke: #cccccc; stroke-width: 0.8; stroke-linecap: round"/>
     </g>
     <g id="text_19">
      <!-- 3 -->
      <g style="fill: #262626" transform="translate(1083.508535 471.347413) scale(0.2024 -0.2024)">
       <use xlink:href="#ArialMT-33"/>
      </g>
     </g>
    </g>
    <g id="xtick_55">
     <g id="line2d_24">
      <path d="M 1175.71261 448.56 
L 1175.71261 63 
" clip-path="url(#p8eeba91728)" style="fill: none; stroke: #cccccc; stroke-width: 0.8; stroke-linecap: round"/>
     </g>
     <g id="text_20">
      <!-- 4 -->
      <g style="fill: #262626" transform="translate(1170.084941 471.347413) scale(0.2024 -0.2024)">
       <use xlink:href="#ArialMT-34"/>
      </g>
     </g>
    </g>
    <g id="xtick_56">
     <g id="line2d_25">
      <path d="M 1262.289015 448.56 
L 1262.289015 63 
" clip-path="url(#p8eeba91728)" style="fill: none; stroke: #cccccc; stroke-width: 0.8; stroke-linecap: round"/>
     </g>
     <g id="text_21">
      <!-- 5 -->
      <g style="fill: #262626" transform="translate(1256.661346 471.347413) scale(0.2024 -0.2024)">
       <use xlink:href="#ArialMT-35"/>
      </g>
     </g>
    </g>
    <g id="xtick_57">
     <g id="line2d_26">
      <path d="M 1348.865421 448.56 
L 1348.865421 63 
" clip-path="url(#p8eeba91728)" style="fill: none; stroke: #cccccc; stroke-width: 0.8; stroke-linecap: round"/>
     </g>
     <g id="text_22">
      <!-- 6 -->
      <g style="fill: #262626" transform="translate(1343.237752 471.347413) scale(0.2024 -0.2024)">
       <use xlink:href="#ArialMT-36"/>
      </g>
     </g>
    </g>
    <g id="text_23">
     <!-- #Cells -->
     <g style="fill: #262626" transform="translate(1075.778414 495.174563) scale(0.2208 -0.2208)">
      <use xlink:href="#ArialMT-23"/>
      <use xlink:href="#ArialMT-43" transform="translate(55.615234 0)"/>
      <use xlink:href="#ArialMT-65" transform="translate(127.832031 0)"/>
      <use xlink:href="#ArialMT-6c" transform="translate(183.447266 0)"/>
      <use xlink:href="#ArialMT-6c" transform="translate(205.664062 0)"/>
      <use xlink:href="#ArialMT-73" transform="translate(227.880859 0)"/>
     </g>
    </g>
    <g id="text_24">
     <!-- 1e7 -->
     <g style="fill: #262626" transform="translate(1377.433988 492.857525) scale(0.2024 -0.2024)">
      <use xlink:href="#ArialMT-31"/>
      <use xlink:href="#ArialMT-65" transform="translate(55.615234 0)"/>
      <use xlink:href="#ArialMT-37" transform="translate(111.230469 0)"/>
     </g>
    </g>
   </g>
   <g id="matplotlib.axis_4">
    <g id="ytick_8">
     <g id="line2d_27">
      <path d="M 801.711628 431.035112 
L 1411.2 431.035112 
" clip-path="url(#p8eeba91728)" style="fill: none; stroke: #cccccc; stroke-width: 0.8; stroke-linecap: round"/>
     </g>
     <g id="text_25">
      <!-- 0 -->
      <g style="fill: #262626" transform="translate(782.15629 438.278818) scale(0.2024 -0.2024)">
       <use xlink:href="#ArialMT-30"/>
      </g>
     </g>
    </g>
    <g id="ytick_9">
     <g id="line2d_28">
      <path d="M 801.711628 358.698189 
L 1411.2 358.698189 
" clip-path="url(#p8eeba91728)" style="fill: none; stroke: #cccccc; stroke-width: 0.8; stroke-linecap: round"/>
     </g>
     <g id="text_26">
      <!-- 2000 -->
      <g style="fill: #262626" transform="translate(748.390278 365.941895) scale(0.2024 -0.2024)">
       <use xlink:href="#ArialMT-32"/>
       <use xlink:href="#ArialMT-30" transform="translate(55.615234 0)"/>
       <use xlink:href="#ArialMT-30" transform="translate(111.230469 0)"/>
       <use xlink:href="#ArialMT-30" transform="translate(166.845703 0)"/>
      </g>
     </g>
    </g>
    <g id="ytick_10">
     <g id="line2d_29">
      <path d="M 801.711628 286.361266 
L 1411.2 286.361266 
" clip-path="url(#p8eeba91728)" style="fill: none; stroke: #cccccc; stroke-width: 0.8; stroke-linecap: round"/>
     </g>
     <g id="text_27">
      <!-- 4000 -->
      <g style="fill: #262626" transform="translate(748.390278 293.604972) scale(0.2024 -0.2024)">
       <use xlink:href="#ArialMT-34"/>
       <use xlink:href="#ArialMT-30" transform="translate(55.615234 0)"/>
       <use xlink:href="#ArialMT-30" transform="translate(111.230469 0)"/>
       <use xlink:href="#ArialMT-30" transform="translate(166.845703 0)"/>
      </g>
     </g>
    </g>
    <g id="ytick_11">
     <g id="line2d_30">
      <path d="M 801.711628 214.024343 
L 1411.2 214.024343 
" clip-path="url(#p8eeba91728)" style="fill: none; stroke: #cccccc; stroke-width: 0.8; stroke-linecap: round"/>
     </g>
     <g id="text_28">
      <!-- 6000 -->
      <g style="fill: #262626" transform="translate(748.390278 221.268049) scale(0.2024 -0.2024)">
       <use xlink:href="#ArialMT-36"/>
       <use xlink:href="#ArialMT-30" transform="translate(55.615234 0)"/>
       <use xlink:href="#ArialMT-30" transform="translate(111.230469 0)"/>
       <use xlink:href="#ArialMT-30" transform="translate(166.845703 0)"/>
      </g>
     </g>
    </g>
    <g id="ytick_12">
     <g id="line2d_31">
      <path d="M 801.711628 141.68742 
L 1411.2 141.68742 
" clip-path="url(#p8eeba91728)" style="fill: none; stroke: #cccccc; stroke-width: 0.8; stroke-linecap: round"/>
     </g>
     <g id="text_29">
      <!-- 8000 -->
      <g style="fill: #262626" transform="translate(748.390278 148.931126) scale(0.2024 -0.2024)">
       <use xlink:href="#ArialMT-38"/>
       <use xlink:href="#ArialMT-30" transform="translate(55.615234 0)"/>
       <use xlink:href="#ArialMT-30" transform="translate(111.230469 0)"/>
       <use xlink:href="#ArialMT-30" transform="translate(166.845703 0)"/>
      </g>
     </g>
    </g>
    <g id="ytick_13">
     <g id="line2d_32">
      <path d="M 801.711628 69.350497 
L 1411.2 69.350497 
" clip-path="url(#p8eeba91728)" style="fill: none; stroke: #cccccc; stroke-width: 0.8; stroke-linecap: round"/>
     </g>
     <g id="text_30">
      <!-- 10000 -->
      <g style="fill: #262626" transform="translate(737.13494 76.594204) scale(0.2024 -0.2024)">
       <use xlink:href="#ArialMT-31"/>
       <use xlink:href="#ArialMT-30" transform="translate(55.615234 0)"/>
       <use xlink:href="#ArialMT-30" transform="translate(111.230469 0)"/>
       <use xlink:href="#ArialMT-30" transform="translate(166.845703 0)"/>
       <use xlink:href="#ArialMT-30" transform="translate(222.460938 0)"/>
      </g>
     </g>
    </g>
    <g id="text_31">
     <!-- Assembly Time per Cell [ms] -->
     <g style="fill: #262626" transform="translate(728.48779 395.64645) rotate(-90) scale(0.2208 -0.2208)">
      <defs>
       <path id="ArialMT-54" d="M 1659 0 
L 1659 4041 
L 150 4041 
L 150 4581 
L 3781 4581 
L 3781 4041 
L 2266 4041 
L 2266 0 
L 1659 0 
z
" transform="scale(0.015625)"/>
       <path id="ArialMT-70" d="M 422 -1272 
L 422 3319 
L 934 3319 
L 934 2888 
Q 1116 3141 1344 3267 
Q 1572 3394 1897 3394 
Q 2322 3394 2647 3175 
Q 2972 2956 3137 2557 
Q 3303 2159 3303 1684 
Q 3303 1175 3120 767 
Q 2938 359 2589 142 
Q 2241 -75 1856 -75 
Q 1575 -75 1351 44 
Q 1128 163 984 344 
L 984 -1272 
L 422 -1272 
z
M 931 1641 
Q 931 1000 1190 694 
Q 1450 388 1819 388 
Q 2194 388 2461 705 
Q 2728 1022 2728 1688 
Q 2728 2322 2467 2637 
Q 2206 2953 1844 2953 
Q 1484 2953 1207 2617 
Q 931 2281 931 1641 
z
" transform="scale(0.015625)"/>
      </defs>
      <use xlink:href="#ArialMT-41"/>
      <use xlink:href="#ArialMT-73" transform="translate(66.699219 0)"/>
      <use xlink:href="#ArialMT-73" transform="translate(116.699219 0)"/>
      <use xlink:href="#ArialMT-65" transform="translate(166.699219 0)"/>
      <use xlink:href="#ArialMT-6d" transform="translate(222.314453 0)"/>
      <use xlink:href="#ArialMT-62" transform="translate(305.615234 0)"/>
      <use xlink:href="#ArialMT-6c" transform="translate(361.230469 0)"/>
      <use xlink:href="#ArialMT-79" transform="translate(383.447266 0)"/>
      <use xlink:href="#ArialMT-20" transform="translate(433.447266 0)"/>
      <use xlink:href="#ArialMT-54" transform="translate(459.480469 0)"/>
      <use xlink:href="#ArialMT-69" transform="translate(516.814453 0)"/>
      <use xlink:href="#ArialMT-6d" transform="translate(539.03125 0)"/>
      <use xlink:href="#ArialMT-65" transform="translate(622.332031 0)"/>
      <use xlink:href="#ArialMT-20" transform="translate(677.947266 0)"/>
      <use xlink:href="#ArialMT-70" transform="translate(705.730469 0)"/>
      <use xlink:href="#ArialMT-65" transform="translate(761.345703 0)"/>
      <use xlink:href="#ArialMT-72" transform="translate(816.960938 0)"/>
      <use xlink:href="#ArialMT-20" transform="translate(850.261719 0)"/>
      <use xlink:href="#ArialMT-43" transform="translate(878.044922 0)"/>
      <use xlink:href="#ArialMT-65" transform="translate(950.261719 0)"/>
      <use xlink:href="#ArialMT-6c" transform="translate(1005.876953 0)"/>
      <use xlink:href="#ArialMT-6c" transform="translate(1028.09375 0)"/>
      <use xlink:href="#ArialMT-20" transform="translate(1050.310547 0)"/>
      <use xlink:href="#ArialMT-5b" transform="translate(1078.09375 0)"/>
      <use xlink:href="#ArialMT-6d" transform="translate(1105.876953 0)"/>
      <use xlink:href="#ArialMT-73" transform="translate(1189.177734 0)"/>
      <use xlink:href="#ArialMT-5d" transform="translate(1239.177734 0)"/>
     </g>
    </g>
   </g>
   <g id="FillBetweenPolyCollection_1">
    <defs>
     <path id="m9e193a5023" d="M 829.415645 -72.966536 
L 829.415645 -72.966449 
L 829.476248 -72.978463 
L 829.640743 -73.006186 
L 829.961076 -73.06357 
L 830.489192 -73.162378 
L 831.277038 -73.349182 
L 832.376558 -73.624879 
L 833.839699 -74.133166 
L 835.718407 -74.559881 
L 838.064628 -75.335233 
L 840.930307 -75.973311 
L 844.36739 -76.97143 
L 848.427823 -78.3572 
L 853.163553 -80.064221 
L 858.626524 -81.645204 
L 864.868683 -83.479092 
L 871.941975 -85.330616 
L 879.898347 -87.881248 
L 888.789744 -90.846005 
L 898.668112 -94.161615 
L 921.593544 -100.390341 
L 949.09021 -109.739857 
L 981.573678 -123.482334 
L 1019.459513 -139.206179 
L 1063.163282 -167.432305 
L 1113.100553 -202.744737 
L 1169.686892 -275.094448 
L 1233.337865 -308.111744 
L 1304.46904 -341.910995 
L 1383.495983 -387.801435 
L 1383.495983 -423.474545 
L 1383.495983 -423.474545 
L 1304.46904 -353.23626 
L 1233.337865 -324.21942 
L 1169.686892 -301.209704 
L 1113.100553 -242.094911 
L 1063.163282 -178.712965 
L 1019.459513 -149.425666 
L 981.573678 -131.366474 
L 949.09021 -114.392957 
L 921.593544 -102.466067 
L 898.668112 -95.673214 
L 888.789744 -92.132842 
L 879.898347 -89.153919 
L 871.941975 -86.396323 
L 864.868683 -84.128435 
L 858.626524 -81.940776 
L 853.163553 -80.434089 
L 848.427823 -78.571956 
L 844.36739 -77.144419 
L 840.930307 -76.128708 
L 838.064628 -75.472783 
L 835.718407 -74.65913 
L 833.839699 -74.182316 
L 832.376558 -73.680919 
L 831.277038 -73.382954 
L 830.489192 -73.175716 
L 829.961076 -73.068416 
L 829.640743 -73.008086 
L 829.476248 -72.97921 
L 829.415645 -72.966536 
z
" style="stroke: #4c72b0; stroke-opacity: 0.2; stroke-width: 0.8"/>
    </defs>
    <g clip-path="url(#p8eeba91728)">
     <use xlink:href="#m9e193a5023" x="0" y="504" style="fill: #4c72b0; fill-opacity: 0.2; stroke: #4c72b0; stroke-opacity: 0.2; stroke-width: 0.8"/>
    </g>
   </g>
   <g id="FillBetweenPolyCollection_2">
    <defs>
     <path id="m9aea9d08d4" d="M 829.415645 -72.965487 
L 829.415645 -72.965455 
L 829.476248 -72.969538 
L 829.640743 -72.980906 
L 829.961076 -73.002062 
L 830.489192 -73.035506 
L 831.277038 -73.09053 
L 832.376558 -73.181469 
L 833.839699 -73.368533 
L 835.718407 -73.617722 
L 838.064628 -73.996086 
L 840.930307 -74.326279 
L 844.36739 -74.649251 
L 848.427823 -75.222977 
L 853.163553 -75.792689 
L 858.626524 -76.441248 
L 864.868683 -77.255077 
L 871.941975 -78.033319 
L 879.898347 -78.933361 
L 888.789744 -80.013397 
L 898.668112 -81.19815 
L 921.593544 -83.114936 
L 949.09021 -86.991795 
L 981.573678 -91.071508 
L 1019.459513 -95.030399 
L 1063.163282 -100.758936 
L 1113.100553 -107.034328 
L 1169.686892 -114.397622 
L 1233.337865 -121.547795 
L 1304.46904 -131.825717 
L 1383.495983 -143.002785 
L 1383.495983 -151.707828 
L 1383.495983 -151.707828 
L 1304.46904 -134.48131 
L 1233.337865 -124.108701 
L 1169.686892 -118.841408 
L 1113.100553 -108.639308 
L 1063.163282 -101.978179 
L 1019.459513 -97.032424 
L 981.573678 -92.17668 
L 949.09021 -88.058157 
L 921.593544 -83.843633 
L 898.668112 -81.652204 
L 888.789744 -80.447738 
L 879.898347 -79.224739 
L 871.941975 -78.271053 
L 864.868683 -77.528776 
L 858.626524 -76.622305 
L 853.163553 -75.929457 
L 848.427823 -75.336416 
L 844.36739 -74.736236 
L 840.930307 -74.388663 
L 838.064628 -74.030504 
L 835.718407 -73.651815 
L 833.839699 -73.389361 
L 832.376558 -73.193007 
L 831.277038 -73.096803 
L 830.489192 -73.039415 
L 829.961076 -73.004104 
L 829.640743 -72.981736 
L 829.476248 -72.969806 
L 829.415645 -72.965487 
z
" style="stroke: #dd8452; stroke-opacity: 0.2; stroke-width: 0.8"/>
    </defs>
    <g clip-path="url(#p8eeba91728)">
     <use xlink:href="#m9aea9d08d4" x="0" y="504" style="fill: #dd8452; fill-opacity: 0.2; stroke: #dd8452; stroke-opacity: 0.2; stroke-width: 0.8"/>
    </g>
   </g>
   <g id="FillBetweenPolyCollection_3">
    <defs>
     <path id="mdf01062e7c" d="M 829.415645 -72.965653 
L 829.415645 -72.965583 
L 829.476248 -72.970237 
L 829.640743 -72.982808 
L 829.961076 -73.006073 
L 830.489192 -73.043282 
L 831.277038 -73.101876 
L 832.376558 -73.200604 
L 833.839699 -73.396634 
L 835.718407 -73.654524 
L 838.064628 -74.039194 
L 840.930307 -74.389384 
L 844.36739 -74.71931 
L 848.427823 -75.319297 
L 853.163553 -75.902756 
L 858.626524 -76.553109 
L 864.868683 -77.425087 
L 871.941975 -78.218115 
L 879.898347 -79.152965 
L 888.789744 -80.187727 
L 898.668112 -81.494834 
L 921.593544 -83.403015 
L 949.09021 -87.416933 
L 981.573678 -91.325716 
L 1019.459513 -95.903046 
L 1063.163282 -101.949432 
L 1113.100553 -108.472985 
L 1169.686892 -115.185683 
L 1233.337865 -123.000286 
L 1304.46904 -132.46486 
L 1383.495983 -142.683903 
L 1383.495983 -151.390926 
L 1383.495983 -151.390926 
L 1304.46904 -138.839267 
L 1233.337865 -130.555387 
L 1169.686892 -120.437226 
L 1113.100553 -111.239238 
L 1063.163282 -104.485977 
L 1019.459513 -97.163103 
L 981.573678 -92.161853 
L 949.09021 -88.395662 
L 921.593544 -83.952045 
L 898.668112 -81.939489 
L 888.789744 -80.517104 
L 879.898347 -79.502661 
L 871.941975 -78.501999 
L 864.868683 -77.601727 
L 858.626524 -76.711731 
L 853.163553 -76.043316 
L 848.427823 -75.442714 
L 844.36739 -74.80813 
L 840.930307 -74.44835 
L 838.064628 -74.07541 
L 835.718407 -73.68568 
L 833.839699 -73.422616 
L 832.376558 -73.217567 
L 831.277038 -73.114405 
L 830.489192 -73.049582 
L 829.961076 -73.009229 
L 829.640743 -72.984165 
L 829.476248 -72.970651 
L 829.415645 -72.965653 
z
" style="stroke: #55a868; stroke-opacity: 0.2; stroke-width: 0.8"/>
    </defs>
    <g clip-path="url(#p8eeba91728)">
     <use xlink:href="#mdf01062e7c" x="0" y="504" style="fill: #55a868; fill-opacity: 0.2; stroke: #55a868; stroke-opacity: 0.2; stroke-width: 0.8"/>
    </g>
   </g>
   <g id="line2d_33">
    <path d="M 829.415645 431.033509 
L 829.476248 431.021187 
L 829.640743 430.9929 
L 829.961076 430.934199 
L 830.489192 430.831367 
L 831.277038 430.633925 
L 832.376558 430.345974 
L 833.839699 429.843355 
L 835.718407 429.390559 
L 838.064628 428.599828 
L 840.930307 427.954685 
L 844.36739 426.93839 
L 848.427823 425.536008 
L 853.163553 423.733142 
L 858.626524 422.198155 
L 864.868683 420.20607 
L 871.941975 418.166943 
L 879.898347 415.452563 
L 888.789744 412.529621 
L 898.668112 409.144588 
L 921.593544 402.568266 
L 949.09021 391.941674 
L 981.573678 376.490051 
L 1019.459513 359.206409 
L 1063.163282 331.239201 
L 1113.100553 282.369251 
L 1169.686892 215.590141 
L 1233.337865 188.028024 
L 1304.46904 157.03234 
L 1383.495983 99.674546 
" clip-path="url(#p8eeba91728)" style="fill: none; stroke: #4c72b0; stroke-width: 1.2; stroke-linecap: round"/>
    <g clip-path="url(#p8eeba91728)">
     <use xlink:href="#m6f619c97bc" x="829.415645" y="431.033509" style="fill: #4c72b0; stroke: #ffffff; stroke-width: 0.75"/>
     <use xlink:href="#m6f619c97bc" x="829.476248" y="431.021187" style="fill: #4c72b0; stroke: #ffffff; stroke-width: 0.75"/>
     <use xlink:href="#m6f619c97bc" x="829.640743" y="430.9929" style="fill: #4c72b0; stroke: #ffffff; stroke-width: 0.75"/>
     <use xlink:href="#m6f619c97bc" x="829.961076" y="430.934199" style="fill: #4c72b0; stroke: #ffffff; stroke-width: 0.75"/>
     <use xlink:href="#m6f619c97bc" x="830.489192" y="430.831367" style="fill: #4c72b0; stroke: #ffffff; stroke-width: 0.75"/>
     <use xlink:href="#m6f619c97bc" x="831.277038" y="430.633925" style="fill: #4c72b0; stroke: #ffffff; stroke-width: 0.75"/>
     <use xlink:href="#m6f619c97bc" x="832.376558" y="430.345974" style="fill: #4c72b0; stroke: #ffffff; stroke-width: 0.75"/>
     <use xlink:href="#m6f619c97bc" x="833.839699" y="429.843355" style="fill: #4c72b0; stroke: #ffffff; stroke-width: 0.75"/>
     <use xlink:href="#m6f619c97bc" x="835.718407" y="429.390559" style="fill: #4c72b0; stroke: #ffffff; stroke-width: 0.75"/>
     <use xlink:href="#m6f619c97bc" x="838.064628" y="428.599828" style="fill: #4c72b0; stroke: #ffffff; stroke-width: 0.75"/>
     <use xlink:href="#m6f619c97bc" x="840.930307" y="427.954685" style="fill: #4c72b0; stroke: #ffffff; stroke-width: 0.75"/>
     <use xlink:href="#m6f619c97bc" x="844.36739" y="426.93839" style="fill: #4c72b0; stroke: #ffffff; stroke-width: 0.75"/>
     <use xlink:href="#m6f619c97bc" x="848.427823" y="425.536008" style="fill: #4c72b0; stroke: #ffffff; stroke-width: 0.75"/>
     <use xlink:href="#m6f619c97bc" x="853.163553" y="423.733142" style="fill: #4c72b0; stroke: #ffffff; stroke-width: 0.75"/>
     <use xlink:href="#m6f619c97bc" x="858.626524" y="422.198155" style="fill: #4c72b0; stroke: #ffffff; stroke-width: 0.75"/>
     <use xlink:href="#m6f619c97bc" x="864.868683" y="420.20607" style="fill: #4c72b0; stroke: #ffffff; stroke-width: 0.75"/>
     <use xlink:href="#m6f619c97bc" x="871.941975" y="418.166943" style="fill: #4c72b0; stroke: #ffffff; stroke-width: 0.75"/>
     <use xlink:href="#m6f619c97bc" x="879.898347" y="415.452563" style="fill: #4c72b0; stroke: #ffffff; stroke-width: 0.75"/>
     <use xlink:href="#m6f619c97bc" x="888.789744" y="412.529621" style="fill: #4c72b0; stroke: #ffffff; stroke-width: 0.75"/>
     <use xlink:href="#m6f619c97bc" x="898.668112" y="409.144588" style="fill: #4c72b0; stroke: #ffffff; stroke-width: 0.75"/>
     <use xlink:href="#m6f619c97bc" x="921.593544" y="402.568266" style="fill: #4c72b0; stroke: #ffffff; stroke-width: 0.75"/>
     <use xlink:href="#m6f619c97bc" x="949.09021" y="391.941674" style="fill: #4c72b0; stroke: #ffffff; stroke-width: 0.75"/>
     <use xlink:href="#m6f619c97bc" x="981.573678" y="376.490051" style="fill: #4c72b0; stroke: #ffffff; stroke-width: 0.75"/>
     <use xlink:href="#m6f619c97bc" x="1019.459513" y="359.206409" style="fill: #4c72b0; stroke: #ffffff; stroke-width: 0.75"/>
     <use xlink:href="#m6f619c97bc" x="1063.163282" y="331.239201" style="fill: #4c72b0; stroke: #ffffff; stroke-width: 0.75"/>
     <use xlink:href="#m6f619c97bc" x="1113.100553" y="282.369251" style="fill: #4c72b0; stroke: #ffffff; stroke-width: 0.75"/>
     <use xlink:href="#m6f619c97bc" x="1169.686892" y="215.590141" style="fill: #4c72b0; stroke: #ffffff; stroke-width: 0.75"/>
     <use xlink:href="#m6f619c97bc" x="1233.337865" y="188.028024" style="fill: #4c72b0; stroke: #ffffff; stroke-width: 0.75"/>
     <use xlink:href="#m6f619c97bc" x="1304.46904" y="157.03234" style="fill: #4c72b0; stroke: #ffffff; stroke-width: 0.75"/>
     <use xlink:href="#m6f619c97bc" x="1383.495983" y="99.674546" style="fill: #4c72b0; stroke: #ffffff; stroke-width: 0.75"/>
    </g>
   </g>
   <g id="line2d_34">
    <path d="M 829.415645 431.03453 
L 829.476248 431.03034 
L 829.640743 431.018675 
L 829.961076 430.996964 
L 830.489192 430.962656 
L 831.277038 430.906428 
L 832.376558 430.813062 
L 833.839699 430.621313 
L 835.718407 430.365362 
L 838.064628 429.986769 
L 840.930307 429.642854 
L 844.36739 429.308154 
L 848.427823 428.722423 
L 853.163553 428.140369 
L 858.626524 427.475784 
L 864.868683 426.622312 
L 871.941975 425.849653 
L 879.898347 424.924549 
L 888.789744 423.787849 
L 898.668112 422.599119 
L 921.593544 420.555884 
L 949.09021 416.521526 
L 981.573678 412.35136 
L 1019.459513 408.018094 
L 1063.163282 402.629519 
L 1113.100553 396.166355 
L 1169.686892 387.516284 
L 1233.337865 381.371352 
L 1304.46904 370.729725 
L 1383.495983 356.955251 
" clip-path="url(#p8eeba91728)" style="fill: none; stroke: #dd8452; stroke-width: 1.2; stroke-linecap: round"/>
    <g clip-path="url(#p8eeba91728)">
     <use xlink:href="#m3fa2ebed1d" x="829.415645" y="431.03453" style="fill: #dd8452; stroke: #ffffff; stroke-width: 0.75; stroke-linejoin: miter"/>
     <use xlink:href="#m3fa2ebed1d" x="829.476248" y="431.03034" style="fill: #dd8452; stroke: #ffffff; stroke-width: 0.75; stroke-linejoin: miter"/>
     <use xlink:href="#m3fa2ebed1d" x="829.640743" y="431.018675" style="fill: #dd8452; stroke: #ffffff; stroke-width: 0.75; stroke-linejoin: miter"/>
     <use xlink:href="#m3fa2ebed1d" x="829.961076" y="430.996964" style="fill: #dd8452; stroke: #ffffff; stroke-width: 0.75; stroke-linejoin: miter"/>
     <use xlink:href="#m3fa2ebed1d" x="830.489192" y="430.962656" style="fill: #dd8452; stroke: #ffffff; stroke-width: 0.75; stroke-linejoin: miter"/>
     <use xlink:href="#m3fa2ebed1d" x="831.277038" y="430.906428" style="fill: #dd8452; stroke: #ffffff; stroke-width: 0.75; stroke-linejoin: miter"/>
     <use xlink:href="#m3fa2ebed1d" x="832.376558" y="430.813062" style="fill: #dd8452; stroke: #ffffff; stroke-width: 0.75; stroke-linejoin: miter"/>
     <use xlink:href="#m3fa2ebed1d" x="833.839699" y="430.621313" style="fill: #dd8452; stroke: #ffffff; stroke-width: 0.75; stroke-linejoin: miter"/>
     <use xlink:href="#m3fa2ebed1d" x="835.718407" y="430.365362" style="fill: #dd8452; stroke: #ffffff; stroke-width: 0.75; stroke-linejoin: miter"/>
     <use xlink:href="#m3fa2ebed1d" x="838.064628" y="429.986769" style="fill: #dd8452; stroke: #ffffff; stroke-width: 0.75; stroke-linejoin: miter"/>
     <use xlink:href="#m3fa2ebed1d" x="840.930307" y="429.642854" style="fill: #dd8452; stroke: #ffffff; stroke-width: 0.75; stroke-linejoin: miter"/>
     <use xlink:href="#m3fa2ebed1d" x="844.36739" y="429.308154" style="fill: #dd8452; stroke: #ffffff; stroke-width: 0.75; stroke-linejoin: miter"/>
     <use xlink:href="#m3fa2ebed1d" x="848.427823" y="428.722423" style="fill: #dd8452; stroke: #ffffff; stroke-width: 0.75; stroke-linejoin: miter"/>
     <use xlink:href="#m3fa2ebed1d" x="853.163553" y="428.140369" style="fill: #dd8452; stroke: #ffffff; stroke-width: 0.75; stroke-linejoin: miter"/>
     <use xlink:href="#m3fa2ebed1d" x="858.626524" y="427.475784" style="fill: #dd8452; stroke: #ffffff; stroke-width: 0.75; stroke-linejoin: miter"/>
     <use xlink:href="#m3fa2ebed1d" x="864.868683" y="426.622312" style="fill: #dd8452; stroke: #ffffff; stroke-width: 0.75; stroke-linejoin: miter"/>
     <use xlink:href="#m3fa2ebed1d" x="871.941975" y="425.849653" style="fill: #dd8452; stroke: #ffffff; stroke-width: 0.75; stroke-linejoin: miter"/>
     <use xlink:href="#m3fa2ebed1d" x="879.898347" y="424.924549" style="fill: #dd8452; stroke: #ffffff; stroke-width: 0.75; stroke-linejoin: miter"/>
     <use xlink:href="#m3fa2ebed1d" x="888.789744" y="423.787849" style="fill: #dd8452; stroke: #ffffff; stroke-width: 0.75; stroke-linejoin: miter"/>
     <use xlink:href="#m3fa2ebed1d" x="898.668112" y="422.599119" style="fill: #dd8452; stroke: #ffffff; stroke-width: 0.75; stroke-linejoin: miter"/>
     <use xlink:href="#m3fa2ebed1d" x="921.593544" y="420.555884" style="fill: #dd8452; stroke: #ffffff; stroke-width: 0.75; stroke-linejoin: miter"/>
     <use xlink:href="#m3fa2ebed1d" x="949.09021" y="416.521526" style="fill: #dd8452; stroke: #ffffff; stroke-width: 0.75; stroke-linejoin: miter"/>
     <use xlink:href="#m3fa2ebed1d" x="981.573678" y="412.35136" style="fill: #dd8452; stroke: #ffffff; stroke-width: 0.75; stroke-linejoin: miter"/>
     <use xlink:href="#m3fa2ebed1d" x="1019.459513" y="408.018094" style="fill: #dd8452; stroke: #ffffff; stroke-width: 0.75; stroke-linejoin: miter"/>
     <use xlink:href="#m3fa2ebed1d" x="1063.163282" y="402.629519" style="fill: #dd8452; stroke: #ffffff; stroke-width: 0.75; stroke-linejoin: miter"/>
     <use xlink:href="#m3fa2ebed1d" x="1113.100553" y="396.166355" style="fill: #dd8452; stroke: #ffffff; stroke-width: 0.75; stroke-linejoin: miter"/>
     <use xlink:href="#m3fa2ebed1d" x="1169.686892" y="387.516284" style="fill: #dd8452; stroke: #ffffff; stroke-width: 0.75; stroke-linejoin: miter"/>
     <use xlink:href="#m3fa2ebed1d" x="1233.337865" y="381.371352" style="fill: #dd8452; stroke: #ffffff; stroke-width: 0.75; stroke-linejoin: miter"/>
     <use xlink:href="#m3fa2ebed1d" x="1304.46904" y="370.729725" style="fill: #dd8452; stroke: #ffffff; stroke-width: 0.75; stroke-linejoin: miter"/>
     <use xlink:href="#m3fa2ebed1d" x="1383.495983" y="356.955251" style="fill: #dd8452; stroke: #ffffff; stroke-width: 0.75; stroke-linejoin: miter"/>
    </g>
   </g>
   <g id="line2d_35">
    <path d="M 829.415645 431.034383 
L 829.476248 431.029557 
L 829.640743 431.01652 
L 829.961076 430.992374 
L 830.489192 430.953621 
L 831.277038 430.891925 
L 832.376558 430.790966 
L 833.839699 430.591507 
L 835.718407 430.330046 
L 838.064628 429.94503 
L 840.930307 429.58262 
L 844.36739 429.236633 
L 848.427823 428.627343 
L 853.163553 428.029143 
L 858.626524 427.371118 
L 864.868683 426.48848 
L 871.941975 425.657318 
L 879.898347 424.681181 
L 888.789744 423.652733 
L 898.668112 422.294885 
L 921.593544 420.331801 
L 949.09021 416.147376 
L 981.573678 412.268368 
L 1019.459513 407.480664 
L 1063.163282 400.880729 
L 1113.100553 394.141854 
L 1169.686892 386.454575 
L 1233.337865 377.834418 
L 1304.46904 368.839299 
L 1383.495983 357.776493 
" clip-path="url(#p8eeba91728)" style="fill: none; stroke: #55a868; stroke-width: 1.2; stroke-linecap: round"/>
    <g clip-path="url(#p8eeba91728)">
     <use xlink:href="#m86f926ee72" x="829.415645" y="431.034383" style="fill: #55a868; stroke: #ffffff; stroke-width: 0.75; stroke-linejoin: miter"/>
     <use xlink:href="#m86f926ee72" x="829.476248" y="431.029557" style="fill: #55a868; stroke: #ffffff; stroke-width: 0.75; stroke-linejoin: miter"/>
     <use xlink:href="#m86f926ee72" x="829.640743" y="431.01652" style="fill: #55a868; stroke: #ffffff; stroke-width: 0.75; stroke-linejoin: miter"/>
     <use xlink:href="#m86f926ee72" x="829.961076" y="430.992374" style="fill: #55a868; stroke: #ffffff; stroke-width: 0.75; stroke-linejoin: miter"/>
     <use xlink:href="#m86f926ee72" x="830.489192" y="430.953621" style="fill: #55a868; stroke: #ffffff; stroke-width: 0.75; stroke-linejoin: miter"/>
     <use xlink:href="#m86f926ee72" x="831.277038" y="430.891925" style="fill: #55a868; stroke: #ffffff; stroke-width: 0.75; stroke-linejoin: miter"/>
     <use xlink:href="#m86f926ee72" x="832.376558" y="430.790966" style="fill: #55a868; stroke: #ffffff; stroke-width: 0.75; stroke-linejoin: miter"/>
     <use xlink:href="#m86f926ee72" x="833.839699" y="430.591507" style="fill: #55a868; stroke: #ffffff; stroke-width: 0.75; stroke-linejoin: miter"/>
     <use xlink:href="#m86f926ee72" x="835.718407" y="430.330046" style="fill: #55a868; stroke: #ffffff; stroke-width: 0.75; stroke-linejoin: miter"/>
     <use xlink:href="#m86f926ee72" x="838.064628" y="429.94503" style="fill: #55a868; stroke: #ffffff; stroke-width: 0.75; stroke-linejoin: miter"/>
     <use xlink:href="#m86f926ee72" x="840.930307" y="429.58262" style="fill: #55a868; stroke: #ffffff; stroke-width: 0.75; stroke-linejoin: miter"/>
     <use xlink:href="#m86f926ee72" x="844.36739" y="429.236633" style="fill: #55a868; stroke: #ffffff; stroke-width: 0.75; stroke-linejoin: miter"/>
     <use xlink:href="#m86f926ee72" x="848.427823" y="428.627343" style="fill: #55a868; stroke: #ffffff; stroke-width: 0.75; stroke-linejoin: miter"/>
     <use xlink:href="#m86f926ee72" x="853.163553" y="428.029143" style="fill: #55a868; stroke: #ffffff; stroke-width: 0.75; stroke-linejoin: miter"/>
     <use xlink:href="#m86f926ee72" x="858.626524" y="427.371118" style="fill: #55a868; stroke: #ffffff; stroke-width: 0.75; stroke-linejoin: miter"/>
     <use xlink:href="#m86f926ee72" x="864.868683" y="426.48848" style="fill: #55a868; stroke: #ffffff; stroke-width: 0.75; stroke-linejoin: miter"/>
     <use xlink:href="#m86f926ee72" x="871.941975" y="425.657318" style="fill: #55a868; stroke: #ffffff; stroke-width: 0.75; stroke-linejoin: miter"/>
     <use xlink:href="#m86f926ee72" x="879.898347" y="424.681181" style="fill: #55a868; stroke: #ffffff; stroke-width: 0.75; stroke-linejoin: miter"/>
     <use xlink:href="#m86f926ee72" x="888.789744" y="423.652733" style="fill: #55a868; stroke: #ffffff; stroke-width: 0.75; stroke-linejoin: miter"/>
     <use xlink:href="#m86f926ee72" x="898.668112" y="422.294885" style="fill: #55a868; stroke: #ffffff; stroke-width: 0.75; stroke-linejoin: miter"/>
     <use xlink:href="#m86f926ee72" x="921.593544" y="420.331801" style="fill: #55a868; stroke: #ffffff; stroke-width: 0.75; stroke-linejoin: miter"/>
     <use xlink:href="#m86f926ee72" x="949.09021" y="416.147376" style="fill: #55a868; stroke: #ffffff; stroke-width: 0.75; stroke-linejoin: miter"/>
     <use xlink:href="#m86f926ee72" x="981.573678" y="412.268368" style="fill: #55a868; stroke: #ffffff; stroke-width: 0.75; stroke-linejoin: miter"/>
     <use xlink:href="#m86f926ee72" x="1019.459513" y="407.480664" style="fill: #55a868; stroke: #ffffff; stroke-width: 0.75; stroke-linejoin: miter"/>
     <use xlink:href="#m86f926ee72" x="1063.163282" y="400.880729" style="fill: #55a868; stroke: #ffffff; stroke-width: 0.75; stroke-linejoin: miter"/>
     <use xlink:href="#m86f926ee72" x="1113.100553" y="394.141854" style="fill: #55a868; stroke: #ffffff; stroke-width: 0.75; stroke-linejoin: miter"/>
     <use xlink:href="#m86f926ee72" x="1169.686892" y="386.454575" style="fill: #55a868; stroke: #ffffff; stroke-width: 0.75; stroke-linejoin: miter"/>
     <use xlink:href="#m86f926ee72" x="1233.337865" y="377.834418" style="fill: #55a868; stroke: #ffffff; stroke-width: 0.75; stroke-linejoin: miter"/>
     <use xlink:href="#m86f926ee72" x="1304.46904" y="368.839299" style="fill: #55a868; stroke: #ffffff; stroke-width: 0.75; stroke-linejoin: miter"/>
     <use xlink:href="#m86f926ee72" x="1383.495983" y="357.776493" style="fill: #55a868; stroke: #ffffff; stroke-width: 0.75; stroke-linejoin: miter"/>
    </g>
   </g>
   <g id="line2d_36"/>
   <g id="line2d_37"/>
   <g id="line2d_38"/>
   <g id="patch_8">
    <path d="M 801.711628 448.56 
L 801.711628 63 
" style="fill: none; stroke: #cccccc; stroke-linejoin: miter; stroke-linecap: square"/>
   </g>
   <g id="patch_9">
    <path d="M 1411.2 448.56 
L 1411.2 63 
" style="fill: none; stroke: #cccccc; stroke-linejoin: miter; stroke-linecap: square"/>
   </g>
   <g id="patch_10">
    <path d="M 801.711628 448.56 
L 1411.2 448.56 
" style="fill: none; stroke: #cccccc; stroke-linejoin: miter; stroke-linecap: square"/>
   </g>
   <g id="patch_11">
    <path d="M 801.711628 63 
L 1411.2 63 
" style="fill: none; stroke: #cccccc; stroke-linejoin: miter; stroke-linecap: square"/>
   </g>
  </g>
  <g id="legend_1">
   <g id="line2d_39">
    <path d="M 405.857806 35.699413 
L 428.121806 35.699413 
L 450.385806 35.699413 
" style="fill: none; stroke: #4c72b0; stroke-width: 2; stroke-linecap: round"/>
    <defs>
     <path id="me4296440cf" d="M 0 5 
C 1.326016 5 2.597899 4.473168 3.535534 3.535534 
C 4.473168 2.597899 5 1.326016 5 0 
C 5 -1.326016 4.473168 -2.597899 3.535534 -3.535534 
C 2.597899 -4.473168 1.326016 -5 0 -5 
C -1.326016 -5 -2.597899 -4.473168 -3.535534 -3.535534 
C -4.473168 -2.597899 -5 -1.326016 -5 0 
C -5 1.326016 -4.473168 2.597899 -3.535534 3.535534 
C -2.597899 4.473168 -1.326016 5 0 5 
z
" style="stroke: #4c72b0"/>
    </defs>
    <g>
     <use xlink:href="#me4296440cf" x="428.121806" y="35.699413" style="fill: #4c72b0; stroke: #4c72b0"/>
    </g>
   </g>
   <g id="text_32">
    <!-- Cell-Based -->
    <g style="fill: #262626" transform="translate(466.577806 42.783412) scale(0.2024 -0.2024)">
     <defs>
      <path id="ArialMT-2d" d="M 203 1375 
L 203 1941 
L 1931 1941 
L 1931 1375 
L 203 1375 
z
" transform="scale(0.015625)"/>
     </defs>
     <use xlink:href="#ArialMT-43"/>
     <use xlink:href="#ArialMT-65" transform="translate(72.216797 0)"/>
     <use xlink:href="#ArialMT-6c" transform="translate(127.832031 0)"/>
     <use xlink:href="#ArialMT-6c" transform="translate(150.048828 0)"/>
     <use xlink:href="#ArialMT-2d" transform="translate(172.265625 0)"/>
     <use xlink:href="#ArialMT-42" transform="translate(205.566406 0)"/>
     <use xlink:href="#ArialMT-61" transform="translate(272.265625 0)"/>
     <use xlink:href="#ArialMT-73" transform="translate(327.880859 0)"/>
     <use xlink:href="#ArialMT-65" transform="translate(377.880859 0)"/>
     <use xlink:href="#ArialMT-64" transform="translate(433.496094 0)"/>
    </g>
   </g>
   <g id="line2d_40">
    <path d="M 597.954381 35.699413 
L 620.218381 35.699413 
L 642.482381 35.699413 
" style="fill: none; stroke: #dd8452; stroke-width: 2; stroke-linecap: round"/>
    <defs>
     <path id="mcc215a4e84" d="M -5 5 
L 5 5 
L 5 -5 
L -5 -5 
z
" style="stroke: #dd8452; stroke-linejoin: miter"/>
    </defs>
    <g>
     <use xlink:href="#mcc215a4e84" x="620.218381" y="35.699413" style="fill: #dd8452; stroke: #dd8452; stroke-linejoin: miter"/>
    </g>
   </g>
   <g id="text_33">
    <!-- Face-Based -->
    <g style="fill: #262626" transform="translate(658.674381 42.783412) scale(0.2024 -0.2024)">
     <defs>
      <path id="ArialMT-46" d="M 525 0 
L 525 4581 
L 3616 4581 
L 3616 4041 
L 1131 4041 
L 1131 2622 
L 3281 2622 
L 3281 2081 
L 1131 2081 
L 1131 0 
L 525 0 
z
" transform="scale(0.015625)"/>
      <path id="ArialMT-63" d="M 2588 1216 
L 3141 1144 
Q 3050 572 2676 248 
Q 2303 -75 1759 -75 
Q 1078 -75 664 370 
Q 250 816 250 1647 
Q 250 2184 428 2587 
Q 606 2991 970 3192 
Q 1334 3394 1763 3394 
Q 2303 3394 2647 3120 
Q 2991 2847 3088 2344 
L 2541 2259 
Q 2463 2594 2264 2762 
Q 2066 2931 1784 2931 
Q 1359 2931 1093 2626 
Q 828 2322 828 1663 
Q 828 994 1084 691 
Q 1341 388 1753 388 
Q 2084 388 2306 591 
Q 2528 794 2588 1216 
z
" transform="scale(0.015625)"/>
     </defs>
     <use xlink:href="#ArialMT-46"/>
     <use xlink:href="#ArialMT-61" transform="translate(61.083984 0)"/>
     <use xlink:href="#ArialMT-63" transform="translate(116.699219 0)"/>
     <use xlink:href="#ArialMT-65" transform="translate(166.699219 0)"/>
     <use xlink:href="#ArialMT-2d" transform="translate(222.314453 0)"/>
     <use xlink:href="#ArialMT-42" transform="translate(255.615234 0)"/>
     <use xlink:href="#ArialMT-61" transform="translate(322.314453 0)"/>
     <use xlink:href="#ArialMT-73" transform="translate(377.929688 0)"/>
     <use xlink:href="#ArialMT-65" transform="translate(427.929688 0)"/>
     <use xlink:href="#ArialMT-64" transform="translate(483.544922 0)"/>
    </g>
   </g>
   <g id="line2d_41">
    <path d="M 800.177281 35.699413 
L 822.441281 35.699413 
L 844.705281 35.699413 
" style="fill: none; stroke: #55a868; stroke-width: 2; stroke-linecap: round"/>
    <defs>
     <path id="mecbd3d1d67" d="M -0 7.071068 
L 7.071068 0 
L 0 -7.071068 
L -7.071068 -0 
z
" style="stroke: #55a868; stroke-linejoin: miter"/>
    </defs>
    <g>
     <use xlink:href="#mecbd3d1d67" x="822.441281" y="35.699413" style="fill: #55a868; stroke: #55a868; stroke-linejoin: miter"/>
    </g>
   </g>
   <g id="text_34">
    <!-- Face-Based Global -->
    <g style="fill: #262626" transform="translate(860.897281 42.783412) scale(0.2024 -0.2024)">
     <defs>
      <path id="ArialMT-6f" d="M 213 1659 
Q 213 2581 725 3025 
Q 1153 3394 1769 3394 
Q 2453 3394 2887 2945 
Q 3322 2497 3322 1706 
Q 3322 1066 3130 698 
Q 2938 331 2570 128 
Q 2203 -75 1769 -75 
Q 1072 -75 642 372 
Q 213 819 213 1659 
z
M 791 1659 
Q 791 1022 1069 705 
Q 1347 388 1769 388 
Q 2188 388 2466 706 
Q 2744 1025 2744 1678 
Q 2744 2294 2464 2611 
Q 2184 2928 1769 2928 
Q 1347 2928 1069 2612 
Q 791 2297 791 1659 
z
" transform="scale(0.015625)"/>
     </defs>
     <use xlink:href="#ArialMT-46"/>
     <use xlink:href="#ArialMT-61" transform="translate(61.083984 0)"/>
     <use xlink:href="#ArialMT-63" transform="translate(116.699219 0)"/>
     <use xlink:href="#ArialMT-65" transform="translate(166.699219 0)"/>
     <use xlink:href="#ArialMT-2d" transform="translate(222.314453 0)"/>
     <use xlink:href="#ArialMT-42" transform="translate(255.615234 0)"/>
     <use xlink:href="#ArialMT-61" transform="translate(322.314453 0)"/>
     <use xlink:href="#ArialMT-73" transform="translate(377.929688 0)"/>
     <use xlink:href="#ArialMT-65" transform="translate(427.929688 0)"/>
     <use xlink:href="#ArialMT-64" transform="translate(483.544922 0)"/>
     <use xlink:href="#ArialMT-20" transform="translate(539.160156 0)"/>
     <use xlink:href="#ArialMT-47" transform="translate(566.943359 0)"/>
     <use xlink:href="#ArialMT-6c" transform="translate(644.726562 0)"/>
     <use xlink:href="#ArialMT-6f" transform="translate(666.943359 0)"/>
     <use xlink:href="#ArialMT-62" transform="translate(722.558594 0)"/>
     <use xlink:href="#ArialMT-61" transform="translate(778.173828 0)"/>
     <use xlink:href="#ArialMT-6c" transform="translate(833.789062 0)"/>
    </g>
   </g>
  </g>
 </g>
 <defs>
  <clipPath id="p899a9da0e4">
   <rect x="100.8" y="63" width="609.488372" height="385.56"/>
  </clipPath>
  <clipPath id="p8eeba91728">
   <rect x="801.711628" y="63" width="609.488372" height="385.56"/>
  </clipPath>
 </defs>
</svg>
