<?xml version="1.0" encoding="utf-8" standalone="no"?>
<!DOCTYPE svg PUBLIC "-//W3C//DTD SVG 1.1//EN"
  "http://www.w3.org/Graphics/SVG/1.1/DTD/svg11.dtd">
<svg xmlns:xlink="http://www.w3.org/1999/xlink" width="1440pt" height="504pt" viewBox="0 0 1440 504" xmlns="http://www.w3.org/2000/svg" version="1.1">
 <metadata>
  <rdf:RDF xmlns:dc="http://purl.org/dc/elements/1.1/" xmlns:cc="http://creativecommons.org/ns#" xmlns:rdf="http://www.w3.org/1999/02/22-rdf-syntax-ns#">
   <cc:Work>
    <dc:type rdf:resource="http://purl.org/dc/dcmitype/StillImage"/>
    <dc:date>2026-06-22T11:58:38.110298</dc:date>
    <dc:format>image/svg+xml</dc:format>
    <dc:creator>
     <cc:Agent>
      <dc:title>Matplotlib v3.10.9, https://matplotlib.org/</dc:title>
     </cc:Agent>
    </dc:creator>
   </cc:Work>
  </rdf:RDF>
 </metadata>
 <defs>
  <style type="text/css">*{stroke-linejoin: round; stroke-linecap: butt}</style>
 </defs>
 <g id="figure_1">
  <g id="patch_1">
   <path d="M 0 504 
L 1440 504 
L 1440 0 
L 0 0 
z
" style="fill: #ffffff"/>
  </g>
  <g id="axes_1">
   <g id="patch_2">
    <path d="M 100.8 448.56 
L 710.288372 448.56 
L 710.288372 63 
L 100.8 63 
z
" style="fill: #ffffff"/>
   </g>
   <g id="matplotlib.axis_1">
    <g id="xtick_1">
     <g id="line2d_1">
      <path d="M 221.863222 448.56 
L 221.863222 63 
" clip-path="url(#peb31e5a649)" style="fill: none; stroke: #cccccc; stroke-width: 0.8; stroke-linecap: round"/>
     </g>
     <g id="text_1">
      <!-- $\mathdefault{10^{5}}$ -->
      <g style="fill: #262626" transform="translate(205.974822 477.5301) scale(0.2024 -0.2024)">
       <defs>
        <path id="ArialMT-31" d="M 2384 0 
L 1822 0 
L 1822 3584 
Q 1619 3391 1289 3197 
Q 959 3003 697 2906 
L 697 3450 
Q 1169 3672 1522 3987 
Q 1875 4303 2022 4600 
L 2384 4600 
L 2384 0 
z
" transform="scale(0.015625)"/>
        <path id="ArialMT-30" d="M 266 2259 
Q 266 3072 433 3567 
Q 600 4063 929 4331 
Q 1259 4600 1759 4600 
Q 2128 4600 2406 4451 
Q 2684 4303 2865 4023 
Q 3047 3744 3150 3342 
Q 3253 2941 3253 2259 
Q 3253 1453 3087 958 
Q 2922 463 2592 192 
Q 2263 -78 1759 -78 
Q 1097 -78 719 397 
Q 266 969 266 2259 
z
M 844 2259 
Q 844 1131 1108 757 
Q 1372 384 1759 384 
Q 2147 384 2411 759 
Q 2675 1134 2675 2259 
Q 2675 3391 2411 3762 
Q 2147 4134 1753 4134 
Q 1366 4134 1134 3806 
Q 844 3388 844 2259 
z
" transform="scale(0.015625)"/>
        <path id="ArialMT-35" d="M 266 1200 
L 856 1250 
Q 922 819 1161 601 
Q 1400 384 1738 384 
Q 2144 384 2425 690 
Q 2706 997 2706 1503 
Q 2706 1984 2436 2262 
Q 2166 2541 1728 2541 
Q 1456 2541 1237 2417 
Q 1019 2294 894 2097 
L 366 2166 
L 809 4519 
L 3088 4519 
L 3088 3981 
L 1259 3981 
L 1013 2750 
Q 1425 3038 1878 3038 
Q 2478 3038 2890 2622 
Q 3303 2206 3303 1553 
Q 3303 931 2941 478 
Q 2500 -78 1738 -78 
Q 1113 -78 717 272 
Q 322 622 266 1200 
z
" transform="scale(0.015625)"/>
       </defs>
       <use xlink:href="#ArialMT-31" transform="translate(0 0.879688)"/>
       <use xlink:href="#ArialMT-30" transform="translate(55.615234 0.879688)"/>
       <use xlink:href="#ArialMT-35" transform="translate(112.972813 70.573438) scale(0.7)"/>
      </g>
     </g>
    </g>
    <g id="xtick_2">
     <g id="line2d_2">
      <path d="M 386.044115 448.56 
L 386.044115 63 
" clip-path="url(#peb31e5a649)" style="fill: none; stroke: #cccccc; stroke-width: 0.8; stroke-linecap: round"/>
     </g>
     <g id="text_2">
      <!-- $\mathdefault{10^{6}}$ -->
      <g style="fill: #262626" transform="translate(370.155715 477.7325) scale(0.2024 -0.2024)">
       <defs>
        <path id="ArialMT-36" d="M 3184 3459 
L 2625 3416 
Q 2550 3747 2413 3897 
Q 2184 4138 1850 4138 
Q 1581 4138 1378 3988 
Q 1113 3794 959 3422 
Q 806 3050 800 2363 
Q 1003 2672 1297 2822 
Q 1591 2972 1913 2972 
Q 2475 2972 2870 2558 
Q 3266 2144 3266 1488 
Q 3266 1056 3080 686 
Q 2894 316 2569 119 
Q 2244 -78 1831 -78 
Q 1128 -78 684 439 
Q 241 956 241 2144 
Q 241 3472 731 4075 
Q 1159 4600 1884 4600 
Q 2425 4600 2770 4297 
Q 3116 3994 3184 3459 
z
M 888 1484 
Q 888 1194 1011 928 
Q 1134 663 1356 523 
Q 1578 384 1822 384 
Q 2178 384 2434 671 
Q 2691 959 2691 1453 
Q 2691 1928 2437 2201 
Q 2184 2475 1800 2475 
Q 1419 2475 1153 2201 
Q 888 1928 888 1484 
z
" transform="scale(0.015625)"/>
       </defs>
       <use xlink:href="#ArialMT-31" transform="translate(0 0.99375)"/>
       <use xlink:href="#ArialMT-30" transform="translate(55.615234 0.99375)"/>
       <use xlink:href="#ArialMT-36" transform="translate(112.972813 70.6875) scale(0.7)"/>
      </g>
     </g>
    </g>
    <g id="xtick_3">
     <g id="line2d_3">
      <path d="M 550.225007 448.56 
L 550.225007 63 
" clip-path="url(#peb31e5a649)" style="fill: none; stroke: #cccccc; stroke-width: 0.8; stroke-linecap: round"/>
     </g>
     <g id="text_3">
      <!-- $\mathdefault{10^{7}}$ -->
      <g style="fill: #262626" transform="translate(534.336607 477.5301) scale(0.2024 -0.2024)">
       <defs>
        <path id="ArialMT-37" d="M 303 3981 
L 303 4522 
L 3269 4522 
L 3269 4084 
Q 2831 3619 2401 2847 
Q 1972 2075 1738 1259 
Q 1569 684 1522 0 
L 944 0 
Q 953 541 1156 1306 
Q 1359 2072 1739 2783 
Q 2119 3494 2547 3981 
L 303 3981 
z
" transform="scale(0.015625)"/>
       </defs>
       <use xlink:href="#ArialMT-31" transform="translate(0 0.846875)"/>
       <use xlink:href="#ArialMT-30" transform="translate(55.615234 0.846875)"/>
       <use xlink:href="#ArialMT-37" transform="translate(112.972813 70.540625) scale(0.7)"/>
      </g>
     </g>
    </g>
    <g id="xtick_4"/>
    <g id="xtick_5"/>
    <g id="xtick_6"/>
    <g id="xtick_7"/>
    <g id="xtick_8"/>
    <g id="xtick_9"/>
    <g id="xtick_10"/>
    <g id="xtick_11"/>
    <g id="xtick_12"/>
    <g id="xtick_13"/>
    <g id="xtick_14"/>
    <g id="xtick_15"/>
    <g id="xtick_16"/>
    <g id="xtick_17"/>
    <g id="xtick_18"/>
    <g id="xtick_19"/>
    <g id="xtick_20"/>
    <g id="xtick_21"/>
    <g id="xtick_22"/>
    <g id="xtick_23"/>
    <g id="xtick_24"/>
    <g id="xtick_25"/>
    <g id="xtick_26"/>
    <g id="xtick_27"/>
    <g id="xtick_28"/>
    <g id="xtick_29"/>
    <g id="xtick_30"/>
    <g id="xtick_31"/>
    <g id="xtick_32"/>
    <g id="xtick_33"/>
    <g id="xtick_34"/>
    <g id="xtick_35"/>
    <g id="text_4">
     <!-- #Cells -->
     <g style="fill: #262626" transform="translate(374.866786 501.55965) scale(0.2208 -0.2208)">
      <defs>
       <path id="ArialMT-23" d="M 322 -78 
L 594 1253 
L 66 1253 
L 66 1719 
L 688 1719 
L 919 2853 
L 66 2853 
L 66 3319 
L 1013 3319 
L 1284 4659 
L 1753 4659 
L 1481 3319 
L 2466 3319 
L 2738 4659 
L 3209 4659 
L 2938 3319 
L 3478 3319 
L 3478 2853 
L 2844 2853 
L 2609 1719 
L 3478 1719 
L 3478 1253 
L 2516 1253 
L 2244 -78 
L 1775 -78 
L 2044 1253 
L 1063 1253 
L 791 -78 
L 322 -78 
z
M 1156 1719 
L 2138 1719 
L 2372 2853 
L 1388 2853 
L 1156 1719 
z
" transform="scale(0.015625)"/>
       <path id="ArialMT-43" d="M 3763 1606 
L 4369 1453 
Q 4178 706 3683 314 
Q 3188 -78 2472 -78 
Q 1731 -78 1267 223 
Q 803 525 561 1097 
Q 319 1669 319 2325 
Q 319 3041 592 3573 
Q 866 4106 1370 4382 
Q 1875 4659 2481 4659 
Q 3169 4659 3637 4309 
Q 4106 3959 4291 3325 
L 3694 3184 
Q 3534 3684 3231 3912 
Q 2928 4141 2469 4141 
Q 1941 4141 1586 3887 
Q 1231 3634 1087 3207 
Q 944 2781 944 2328 
Q 944 1744 1114 1308 
Q 1284 872 1643 656 
Q 2003 441 2422 441 
Q 2931 441 3284 734 
Q 3638 1028 3763 1606 
z
" transform="scale(0.015625)"/>
       <path id="ArialMT-65" d="M 2694 1069 
L 3275 997 
Q 3138 488 2766 206 
Q 2394 -75 1816 -75 
Q 1088 -75 661 373 
Q 234 822 234 1631 
Q 234 2469 665 2931 
Q 1097 3394 1784 3394 
Q 2450 3394 2872 2941 
Q 3294 2488 3294 1666 
Q 3294 1616 3291 1516 
L 816 1516 
Q 847 969 1125 678 
Q 1403 388 1819 388 
Q 2128 388 2347 550 
Q 2566 713 2694 1069 
z
M 847 1978 
L 2700 1978 
Q 2663 2397 2488 2606 
Q 2219 2931 1791 2931 
Q 1403 2931 1139 2672 
Q 875 2413 847 1978 
z
" transform="scale(0.015625)"/>
       <path id="ArialMT-6c" d="M 409 0 
L 409 4581 
L 972 4581 
L 972 0 
L 409 0 
z
" transform="scale(0.015625)"/>
       <path id="ArialMT-73" d="M 197 991 
L 753 1078 
Q 800 744 1014 566 
Q 1228 388 1613 388 
Q 2000 388 2187 545 
Q 2375 703 2375 916 
Q 2375 1106 2209 1216 
Q 2094 1291 1634 1406 
Q 1016 1563 777 1677 
Q 538 1791 414 1992 
Q 291 2194 291 2438 
Q 291 2659 392 2848 
Q 494 3038 669 3163 
Q 800 3259 1026 3326 
Q 1253 3394 1513 3394 
Q 1903 3394 2198 3281 
Q 2494 3169 2634 2976 
Q 2775 2784 2828 2463 
L 2278 2388 
Q 2241 2644 2061 2787 
Q 1881 2931 1553 2931 
Q 1166 2931 1000 2803 
Q 834 2675 834 2503 
Q 834 2394 903 2306 
Q 972 2216 1119 2156 
Q 1203 2125 1616 2013 
Q 2213 1853 2448 1751 
Q 2684 1650 2818 1456 
Q 2953 1263 2953 975 
Q 2953 694 2789 445 
Q 2625 197 2315 61 
Q 2006 -75 1616 -75 
Q 969 -75 630 194 
Q 291 463 197 991 
z
" transform="scale(0.015625)"/>
      </defs>
      <use xlink:href="#ArialMT-23"/>
      <use xlink:href="#ArialMT-43" transform="translate(55.615234 0)"/>
      <use xlink:href="#ArialMT-65" transform="translate(127.832031 0)"/>
      <use xlink:href="#ArialMT-6c" transform="translate(183.447266 0)"/>
      <use xlink:href="#ArialMT-6c" transform="translate(205.664062 0)"/>
      <use xlink:href="#ArialMT-73" transform="translate(227.880859 0)"/>
     </g>
    </g>
   </g>
   <g id="matplotlib.axis_2">
    <g id="ytick_1">
     <g id="line2d_4">
      <path d="M 100.8 432.598355 
L 710.288372 432.598355 
" clip-path="url(#peb31e5a649)" style="fill: none; stroke: #cccccc; stroke-width: 0.8; stroke-linecap: round"/>
     </g>
     <g id="text_5">
      <!-- 0 -->
      <g style="fill: #262626" transform="translate(81.244663 439.842061) scale(0.2024 -0.2024)">
       <use xlink:href="#ArialMT-30"/>
      </g>
     </g>
    </g>
    <g id="ytick_2">
     <g id="line2d_5">
      <path d="M 100.8 355.683311 
L 710.288372 355.683311 
" clip-path="url(#peb31e5a649)" style="fill: none; stroke: #cccccc; stroke-width: 0.8; stroke-linecap: round"/>
     </g>
     <g id="text_6">
      <!-- 1 -->
      <g style="fill: #262626" transform="translate(81.244663 362.927017) scale(0.2024 -0.2024)">
       <use xlink:href="#ArialMT-31"/>
      </g>
     </g>
    </g>
    <g id="ytick_3">
     <g id="line2d_6">
      <path d="M 100.8 278.768267 
L 710.288372 278.768267 
" clip-path="url(#peb31e5a649)" style="fill: none; stroke: #cccccc; stroke-width: 0.8; stroke-linecap: round"/>
     </g>
     <g id="text_7">
      <!-- 2 -->
      <g style="fill: #262626" transform="translate(81.244663 286.011973) scale(0.2024 -0.2024)">
       <defs>
        <path id="ArialMT-32" d="M 3222 541 
L 3222 0 
L 194 0 
Q 188 203 259 391 
Q 375 700 629 1000 
Q 884 1300 1366 1694 
Q 2113 2306 2375 2664 
Q 2638 3022 2638 3341 
Q 2638 3675 2398 3904 
Q 2159 4134 1775 4134 
Q 1369 4134 1125 3890 
Q 881 3647 878 3216 
L 300 3275 
Q 359 3922 746 4261 
Q 1134 4600 1788 4600 
Q 2447 4600 2831 4234 
Q 3216 3869 3216 3328 
Q 3216 3053 3103 2787 
Q 2991 2522 2730 2228 
Q 2469 1934 1863 1422 
Q 1356 997 1212 845 
Q 1069 694 975 541 
L 3222 541 
z
" transform="scale(0.015625)"/>
       </defs>
       <use xlink:href="#ArialMT-32"/>
      </g>
     </g>
    </g>
    <g id="ytick_4">
     <g id="line2d_7">
      <path d="M 100.8 201.853223 
L 710.288372 201.853223 
" clip-path="url(#peb31e5a649)" style="fill: none; stroke: #cccccc; stroke-width: 0.8; stroke-linecap: round"/>
     </g>
     <g id="text_8">
      <!-- 3 -->
      <g style="fill: #262626" transform="translate(81.244663 209.096929) scale(0.2024 -0.2024)">
       <defs>
        <path id="ArialMT-33" d="M 269 1209 
L 831 1284 
Q 928 806 1161 595 
Q 1394 384 1728 384 
Q 2125 384 2398 659 
Q 2672 934 2672 1341 
Q 2672 1728 2419 1979 
Q 2166 2231 1775 2231 
Q 1616 2231 1378 2169 
L 1441 2663 
Q 1497 2656 1531 2656 
Q 1891 2656 2178 2843 
Q 2466 3031 2466 3422 
Q 2466 3731 2256 3934 
Q 2047 4138 1716 4138 
Q 1388 4138 1169 3931 
Q 950 3725 888 3313 
L 325 3413 
Q 428 3978 793 4289 
Q 1159 4600 1703 4600 
Q 2078 4600 2393 4439 
Q 2709 4278 2876 4000 
Q 3044 3722 3044 3409 
Q 3044 3113 2884 2869 
Q 2725 2625 2413 2481 
Q 2819 2388 3044 2092 
Q 3269 1797 3269 1353 
Q 3269 753 2831 336 
Q 2394 -81 1725 -81 
Q 1122 -81 723 278 
Q 325 638 269 1209 
z
" transform="scale(0.015625)"/>
       </defs>
       <use xlink:href="#ArialMT-33"/>
      </g>
     </g>
    </g>
    <g id="ytick_5">
     <g id="line2d_8">
      <path d="M 100.8 124.938179 
L 710.288372 124.938179 
" clip-path="url(#peb31e5a649)" style="fill: none; stroke: #cccccc; stroke-width: 0.8; stroke-linecap: round"/>
     </g>
     <g id="text_9">
      <!-- 4 -->
      <g style="fill: #262626" transform="translate(81.244663 132.181885) scale(0.2024 -0.2024)">
       <defs>
        <path id="ArialMT-34" d="M 2069 0 
L 2069 1097 
L 81 1097 
L 81 1613 
L 2172 4581 
L 2631 4581 
L 2631 1613 
L 3250 1613 
L 3250 1097 
L 2631 1097 
L 2631 0 
L 2069 0 
z
M 2069 1613 
L 2069 3678 
L 634 1613 
L 2069 1613 
z
" transform="scale(0.015625)"/>
       </defs>
       <use xlink:href="#ArialMT-34"/>
      </g>
     </g>
    </g>
    <g id="text_10">
     <!-- Matrix Assembly Bandwidth [GB/s] -->
     <g style="fill: #262626" transform="translate(72.597513 424.50225) rotate(-90) scale(0.2208 -0.2208)">
      <defs>
       <path id="ArialMT-4d" d="M 475 0 
L 475 4581 
L 1388 4581 
L 2472 1338 
Q 2622 884 2691 659 
Q 2769 909 2934 1394 
L 4031 4581 
L 4847 4581 
L 4847 0 
L 4263 0 
L 4263 3834 
L 2931 0 
L 2384 0 
L 1059 3900 
L 1059 0 
L 475 0 
z
" transform="scale(0.015625)"/>
       <path id="ArialMT-61" d="M 2588 409 
Q 2275 144 1986 34 
Q 1697 -75 1366 -75 
Q 819 -75 525 192 
Q 231 459 231 875 
Q 231 1119 342 1320 
Q 453 1522 633 1644 
Q 813 1766 1038 1828 
Q 1203 1872 1538 1913 
Q 2219 1994 2541 2106 
Q 2544 2222 2544 2253 
Q 2544 2597 2384 2738 
Q 2169 2928 1744 2928 
Q 1347 2928 1158 2789 
Q 969 2650 878 2297 
L 328 2372 
Q 403 2725 575 2942 
Q 747 3159 1072 3276 
Q 1397 3394 1825 3394 
Q 2250 3394 2515 3294 
Q 2781 3194 2906 3042 
Q 3031 2891 3081 2659 
Q 3109 2516 3109 2141 
L 3109 1391 
Q 3109 606 3145 398 
Q 3181 191 3288 0 
L 2700 0 
Q 2613 175 2588 409 
z
M 2541 1666 
Q 2234 1541 1622 1453 
Q 1275 1403 1131 1340 
Q 988 1278 909 1158 
Q 831 1038 831 891 
Q 831 666 1001 516 
Q 1172 366 1500 366 
Q 1825 366 2078 508 
Q 2331 650 2450 897 
Q 2541 1088 2541 1459 
L 2541 1666 
z
" transform="scale(0.015625)"/>
       <path id="ArialMT-74" d="M 1650 503 
L 1731 6 
Q 1494 -44 1306 -44 
Q 1000 -44 831 53 
Q 663 150 594 308 
Q 525 466 525 972 
L 525 2881 
L 113 2881 
L 113 3319 
L 525 3319 
L 525 4141 
L 1084 4478 
L 1084 3319 
L 1650 3319 
L 1650 2881 
L 1084 2881 
L 1084 941 
Q 1084 700 1114 631 
Q 1144 563 1211 522 
Q 1278 481 1403 481 
Q 1497 481 1650 503 
z
" transform="scale(0.015625)"/>
       <path id="ArialMT-72" d="M 416 0 
L 416 3319 
L 922 3319 
L 922 2816 
Q 1116 3169 1280 3281 
Q 1444 3394 1641 3394 
Q 1925 3394 2219 3213 
L 2025 2691 
Q 1819 2813 1613 2813 
Q 1428 2813 1281 2702 
Q 1134 2591 1072 2394 
Q 978 2094 978 1738 
L 978 0 
L 416 0 
z
" transform="scale(0.015625)"/>
       <path id="ArialMT-69" d="M 425 3934 
L 425 4581 
L 988 4581 
L 988 3934 
L 425 3934 
z
M 425 0 
L 425 3319 
L 988 3319 
L 988 0 
L 425 0 
z
" transform="scale(0.015625)"/>
       <path id="ArialMT-78" d="M 47 0 
L 1259 1725 
L 138 3319 
L 841 3319 
L 1350 2541 
Q 1494 2319 1581 2169 
Q 1719 2375 1834 2534 
L 2394 3319 
L 3066 3319 
L 1919 1756 
L 3153 0 
L 2463 0 
L 1781 1031 
L 1600 1309 
L 728 0 
L 47 0 
z
" transform="scale(0.015625)"/>
       <path id="ArialMT-20" transform="scale(0.015625)"/>
       <path id="ArialMT-41" d="M -9 0 
L 1750 4581 
L 2403 4581 
L 4278 0 
L 3588 0 
L 3053 1388 
L 1138 1388 
L 634 0 
L -9 0 
z
M 1313 1881 
L 2866 1881 
L 2388 3150 
Q 2169 3728 2063 4100 
Q 1975 3659 1816 3225 
L 1313 1881 
z
" transform="scale(0.015625)"/>
       <path id="ArialMT-6d" d="M 422 0 
L 422 3319 
L 925 3319 
L 925 2853 
Q 1081 3097 1340 3245 
Q 1600 3394 1931 3394 
Q 2300 3394 2536 3241 
Q 2772 3088 2869 2813 
Q 3263 3394 3894 3394 
Q 4388 3394 4653 3120 
Q 4919 2847 4919 2278 
L 4919 0 
L 4359 0 
L 4359 2091 
Q 4359 2428 4304 2576 
Q 4250 2725 4106 2815 
Q 3963 2906 3769 2906 
Q 3419 2906 3187 2673 
Q 2956 2441 2956 1928 
L 2956 0 
L 2394 0 
L 2394 2156 
Q 2394 2531 2256 2718 
Q 2119 2906 1806 2906 
Q 1569 2906 1367 2781 
Q 1166 2656 1075 2415 
Q 984 2175 984 1722 
L 984 0 
L 422 0 
z
" transform="scale(0.015625)"/>
       <path id="ArialMT-62" d="M 941 0 
L 419 0 
L 419 4581 
L 981 4581 
L 981 2947 
Q 1338 3394 1891 3394 
Q 2197 3394 2470 3270 
Q 2744 3147 2920 2923 
Q 3097 2700 3197 2384 
Q 3297 2069 3297 1709 
Q 3297 856 2875 390 
Q 2453 -75 1863 -75 
Q 1275 -75 941 416 
L 941 0 
z
M 934 1684 
Q 934 1088 1097 822 
Q 1363 388 1816 388 
Q 2184 388 2453 708 
Q 2722 1028 2722 1663 
Q 2722 2313 2464 2622 
Q 2206 2931 1841 2931 
Q 1472 2931 1203 2611 
Q 934 2291 934 1684 
z
" transform="scale(0.015625)"/>
       <path id="ArialMT-79" d="M 397 -1278 
L 334 -750 
Q 519 -800 656 -800 
Q 844 -800 956 -737 
Q 1069 -675 1141 -563 
Q 1194 -478 1313 -144 
Q 1328 -97 1363 -6 
L 103 3319 
L 709 3319 
L 1400 1397 
Q 1534 1031 1641 628 
Q 1738 1016 1872 1384 
L 2581 3319 
L 3144 3319 
L 1881 -56 
Q 1678 -603 1566 -809 
Q 1416 -1088 1222 -1217 
Q 1028 -1347 759 -1347 
Q 597 -1347 397 -1278 
z
" transform="scale(0.015625)"/>
       <path id="ArialMT-42" d="M 469 0 
L 469 4581 
L 2188 4581 
Q 2713 4581 3030 4442 
Q 3347 4303 3526 4014 
Q 3706 3725 3706 3409 
Q 3706 3116 3547 2856 
Q 3388 2597 3066 2438 
Q 3481 2316 3704 2022 
Q 3928 1728 3928 1328 
Q 3928 1006 3792 729 
Q 3656 453 3456 303 
Q 3256 153 2954 76 
Q 2653 0 2216 0 
L 469 0 
z
M 1075 2656 
L 2066 2656 
Q 2469 2656 2644 2709 
Q 2875 2778 2992 2937 
Q 3109 3097 3109 3338 
Q 3109 3566 3000 3739 
Q 2891 3913 2687 3977 
Q 2484 4041 1991 4041 
L 1075 4041 
L 1075 2656 
z
M 1075 541 
L 2216 541 
Q 2509 541 2628 563 
Q 2838 600 2978 687 
Q 3119 775 3209 942 
Q 3300 1109 3300 1328 
Q 3300 1584 3169 1773 
Q 3038 1963 2805 2039 
Q 2572 2116 2134 2116 
L 1075 2116 
L 1075 541 
z
" transform="scale(0.015625)"/>
       <path id="ArialMT-6e" d="M 422 0 
L 422 3319 
L 928 3319 
L 928 2847 
Q 1294 3394 1984 3394 
Q 2284 3394 2536 3286 
Q 2788 3178 2913 3003 
Q 3038 2828 3088 2588 
Q 3119 2431 3119 2041 
L 3119 0 
L 2556 0 
L 2556 2019 
Q 2556 2363 2490 2533 
Q 2425 2703 2258 2804 
Q 2091 2906 1866 2906 
Q 1506 2906 1245 2678 
Q 984 2450 984 1813 
L 984 0 
L 422 0 
z
" transform="scale(0.015625)"/>
       <path id="ArialMT-64" d="M 2575 0 
L 2575 419 
Q 2259 -75 1647 -75 
Q 1250 -75 917 144 
Q 584 363 401 755 
Q 219 1147 219 1656 
Q 219 2153 384 2558 
Q 550 2963 881 3178 
Q 1213 3394 1622 3394 
Q 1922 3394 2156 3267 
Q 2391 3141 2538 2938 
L 2538 4581 
L 3097 4581 
L 3097 0 
L 2575 0 
z
M 797 1656 
Q 797 1019 1065 703 
Q 1334 388 1700 388 
Q 2069 388 2326 689 
Q 2584 991 2584 1609 
Q 2584 2291 2321 2609 
Q 2059 2928 1675 2928 
Q 1300 2928 1048 2622 
Q 797 2316 797 1656 
z
" transform="scale(0.015625)"/>
       <path id="ArialMT-77" d="M 1034 0 
L 19 3319 
L 600 3319 
L 1128 1403 
L 1325 691 
Q 1338 744 1497 1375 
L 2025 3319 
L 2603 3319 
L 3100 1394 
L 3266 759 
L 3456 1400 
L 4025 3319 
L 4572 3319 
L 3534 0 
L 2950 0 
L 2422 1988 
L 2294 2553 
L 1622 0 
L 1034 0 
z
" transform="scale(0.015625)"/>
       <path id="ArialMT-68" d="M 422 0 
L 422 4581 
L 984 4581 
L 984 2938 
Q 1378 3394 1978 3394 
Q 2347 3394 2619 3248 
Q 2891 3103 3008 2847 
Q 3125 2591 3125 2103 
L 3125 0 
L 2563 0 
L 2563 2103 
Q 2563 2525 2380 2717 
Q 2197 2909 1863 2909 
Q 1613 2909 1392 2779 
Q 1172 2650 1078 2428 
Q 984 2206 984 1816 
L 984 0 
L 422 0 
z
" transform="scale(0.015625)"/>
       <path id="ArialMT-5b" d="M 434 -1272 
L 434 4581 
L 1675 4581 
L 1675 4116 
L 997 4116 
L 997 -806 
L 1675 -806 
L 1675 -1272 
L 434 -1272 
z
" transform="scale(0.015625)"/>
       <path id="ArialMT-47" d="M 2638 1797 
L 2638 2334 
L 4578 2338 
L 4578 638 
Q 4131 281 3656 101 
Q 3181 -78 2681 -78 
Q 2006 -78 1454 211 
Q 903 500 622 1047 
Q 341 1594 341 2269 
Q 341 2938 620 3517 
Q 900 4097 1425 4378 
Q 1950 4659 2634 4659 
Q 3131 4659 3532 4498 
Q 3934 4338 4162 4050 
Q 4391 3763 4509 3300 
L 3963 3150 
Q 3859 3500 3706 3700 
Q 3553 3900 3268 4020 
Q 2984 4141 2638 4141 
Q 2222 4141 1919 4014 
Q 1616 3888 1430 3681 
Q 1244 3475 1141 3228 
Q 966 2803 966 2306 
Q 966 1694 1177 1281 
Q 1388 869 1791 669 
Q 2194 469 2647 469 
Q 3041 469 3416 620 
Q 3791 772 3984 944 
L 3984 1797 
L 2638 1797 
z
" transform="scale(0.015625)"/>
       <path id="ArialMT-2f" d="M 0 -78 
L 1328 4659 
L 1778 4659 
L 453 -78 
L 0 -78 
z
" transform="scale(0.015625)"/>
       <path id="ArialMT-5d" d="M 1363 -1272 
L 122 -1272 
L 122 -806 
L 800 -806 
L 800 4116 
L 122 4116 
L 122 4581 
L 1363 4581 
L 1363 -1272 
z
" transform="scale(0.015625)"/>
      </defs>
      <use xlink:href="#ArialMT-4d"/>
      <use xlink:href="#ArialMT-61" transform="translate(83.300781 0)"/>
      <use xlink:href="#ArialMT-74" transform="translate(138.916016 0)"/>
      <use xlink:href="#ArialMT-72" transform="translate(166.699219 0)"/>
      <use xlink:href="#ArialMT-69" transform="translate(200 0)"/>
      <use xlink:href="#ArialMT-78" transform="translate(222.216797 0)"/>
      <use xlink:href="#ArialMT-20" transform="translate(272.216797 0)"/>
      <use xlink:href="#ArialMT-41" transform="translate(294.5 0)"/>
      <use xlink:href="#ArialMT-73" transform="translate(361.199219 0)"/>
      <use xlink:href="#ArialMT-73" transform="translate(411.199219 0)"/>
      <use xlink:href="#ArialMT-65" transform="translate(461.199219 0)"/>
      <use xlink:href="#ArialMT-6d" transform="translate(516.814453 0)"/>
      <use xlink:href="#ArialMT-62" transform="translate(600.115234 0)"/>
      <use xlink:href="#ArialMT-6c" transform="translate(655.730469 0)"/>
      <use xlink:href="#ArialMT-79" transform="translate(677.947266 0)"/>
      <use xlink:href="#ArialMT-20" transform="translate(727.947266 0)"/>
      <use xlink:href="#ArialMT-42" transform="translate(755.730469 0)"/>
      <use xlink:href="#ArialMT-61" transform="translate(822.429688 0)"/>
      <use xlink:href="#ArialMT-6e" transform="translate(878.044922 0)"/>
      <use xlink:href="#ArialMT-64" transform="translate(933.660156 0)"/>
      <use xlink:href="#ArialMT-77" transform="translate(989.275391 0)"/>
      <use xlink:href="#ArialMT-69" transform="translate(1061.492188 0)"/>
      <use xlink:href="#ArialMT-64" transform="translate(1083.708984 0)"/>
      <use xlink:href="#ArialMT-74" transform="translate(1139.324219 0)"/>
      <use xlink:href="#ArialMT-68" transform="translate(1167.107422 0)"/>
      <use xlink:href="#ArialMT-20" transform="translate(1222.722656 0)"/>
      <use xlink:href="#ArialMT-5b" transform="translate(1250.505859 0)"/>
      <use xlink:href="#ArialMT-47" transform="translate(1278.289062 0)"/>
      <use xlink:href="#ArialMT-42" transform="translate(1356.072266 0)"/>
      <use xlink:href="#ArialMT-2f" transform="translate(1422.771484 0)"/>
      <use xlink:href="#ArialMT-73" transform="translate(1450.554688 0)"/>
      <use xlink:href="#ArialMT-5d" transform="translate(1500.554688 0)"/>
     </g>
    </g>
   </g>
   <g id="FillBetweenPolyCollection_1">
    <defs>
     <path id="m2df4695ab1" d="M 128.504017 -190.84715 
L 128.504017 -106.437714 
L 309.748288 -87.873596 
L 338.311797 -96.851394 
L 363.506598 -101.000013 
L 386.044115 -108.817978 
L 406.431779 -114.500578 
L 472.776575 -96.411743 
L 486.581918 -104.880407 
L 606.288529 -72.965455 
L 634.852038 -80.004649 
L 647.820164 -81.129357 
L 671.61228 -80.932661 
L 682.584355 -81.597718 
L 682.584355 -116.83387 
L 682.584355 -116.83387 
L 671.61228 -114.434796 
L 647.820164 -113.587534 
L 634.852038 -109.062871 
L 606.288529 -76.349863 
L 486.581918 -222.430373 
L 472.776575 -173.416526 
L 406.431779 -266.865199 
L 386.044115 -229.460864 
L 363.506598 -211.207665 
L 338.311797 -211.89112 
L 309.748288 -172.028756 
L 128.504017 -190.84715 
z
" style="stroke: #4c72b0; stroke-opacity: 0.2; stroke-width: 0.8"/>
    </defs>
    <g clip-path="url(#peb31e5a649)">
     <use xlink:href="#m2df4695ab1" x="0" y="504" style="fill: #4c72b0; fill-opacity: 0.2; stroke: #4c72b0; stroke-opacity: 0.2; stroke-width: 0.8"/>
    </g>
   </g>
   <g id="FillBetweenPolyCollection_2">
    <defs>
     <path id="m6c7fad7862" d="M 128.504017 -93.209977 
L 128.504017 -84.391584 
L 309.748288 -84.875027 
L 338.311797 -107.238325 
L 363.506598 -129.525503 
L 386.044115 -167.308307 
L 406.431779 -185.030292 
L 472.776575 -147.07533 
L 486.581918 -167.2098 
L 606.288529 -80.587396 
L 634.852038 -99.786761 
L 647.820164 -103.519057 
L 671.61228 -102.427303 
L 682.584355 -99.50559 
L 682.584355 -164.513363 
L 682.584355 -164.513363 
L 671.61228 -172.795305 
L 647.820164 -176.673348 
L 634.852038 -151.087034 
L 606.288529 -89.543675 
L 486.581918 -345.956502 
L 472.776575 -333.516746 
L 406.431779 -423.474545 
L 386.044115 -346.588902 
L 363.506598 -247.735671 
L 338.311797 -160.018565 
L 309.748288 -102.111804 
L 128.504017 -93.209977 
z
" style="stroke: #dd8452; stroke-opacity: 0.2; stroke-width: 0.8"/>
    </defs>
    <g clip-path="url(#peb31e5a649)">
     <use xlink:href="#m6c7fad7862" x="0" y="504" style="fill: #dd8452; fill-opacity: 0.2; stroke: #dd8452; stroke-opacity: 0.2; stroke-width: 0.8"/>
    </g>
   </g>
   <g id="FillBetweenPolyCollection_3">
    <defs>
     <path id="m25131324ca" d="M 128.504017 -84.029392 
L 128.504017 -81.04864 
L 309.748288 -83.798248 
L 338.311797 -99.779606 
L 363.506598 -118.254536 
L 386.044115 -137.423675 
L 406.431779 -157.71243 
L 472.776575 -128.308581 
L 486.581918 -136.841587 
L 606.288529 -79.916395 
L 634.852038 -89.324383 
L 647.820164 -91.77897 
L 671.61228 -90.766547 
L 682.584355 -94.3183 
L 682.584355 -113.356943 
L 682.584355 -113.356943 
L 671.61228 -108.869374 
L 647.820164 -114.450294 
L 634.852038 -106.700473 
L 606.288529 -84.063331 
L 486.581918 -196.531385 
L 472.776575 -186.370376 
L 406.431779 -241.769848 
L 386.044115 -204.16118 
L 363.506598 -161.411253 
L 338.311797 -120.713883 
L 309.748288 -91.324778 
L 128.504017 -84.029392 
z
" style="stroke: #55a868; stroke-opacity: 0.2; stroke-width: 0.8"/>
    </defs>
    <g clip-path="url(#peb31e5a649)">
     <use xlink:href="#m25131324ca" x="0" y="504" style="fill: #55a868; fill-opacity: 0.2; stroke: #55a868; stroke-opacity: 0.2; stroke-width: 0.8"/>
    </g>
   </g>
   <g id="FillBetweenPolyCollection_4">
    <defs>
     <path id="ma026dc1feb" d="M 128.504017 -80.678753 
L 128.504017 -76.419007 
L 309.748288 -77.281442 
L 338.311797 -85.661073 
L 363.506598 -97.280115 
L 386.044115 -113.962105 
L 406.431779 -131.318023 
L 472.776575 -118.251922 
L 486.581918 -132.358051 
L 606.288529 -79.422267 
L 634.852038 -92.718602 
L 647.820164 -99.616752 
L 671.61228 -96.009732 
L 682.584355 -97.637525 
L 682.584355 -145.523586 
L 682.584355 -145.523586 
L 671.61228 -145.824478 
L 647.820164 -148.633198 
L 634.852038 -130.727272 
L 606.288529 -86.999385 
L 486.581918 -206.071719 
L 472.776575 -195.234557 
L 406.431779 -222.377421 
L 386.044115 -186.218055 
L 363.506598 -145.229727 
L 338.311797 -112.022452 
L 309.748288 -85.691293 
L 128.504017 -80.678753 
z
" style="stroke: #c44e52; stroke-opacity: 0.2; stroke-width: 0.8"/>
    </defs>
    <g clip-path="url(#peb31e5a649)">
     <use xlink:href="#ma026dc1feb" x="0" y="504" style="fill: #c44e52; fill-opacity: 0.2; stroke: #c44e52; stroke-opacity: 0.2; stroke-width: 0.8"/>
    </g>
   </g>
   <g id="line2d_9">
    <path d="M 128.504017 359.064112 
L 309.748288 378.594464 
L 338.311797 353.808945 
L 363.506598 353.667223 
L 386.044115 336.02723 
L 406.431779 319.293022 
L 472.776575 369.081779 
L 486.581918 343.12154 
L 606.288529 429.241628 
L 634.852038 410.743818 
L 647.820164 406.78107 
L 671.61228 407.287549 
L 682.584355 406.093029 
" clip-path="url(#peb31e5a649)" style="fill: none; stroke: #4c72b0; stroke-width: 1.2; stroke-linecap: round"/>
    <defs>
     <path id="m3abe22f386" d="M 0 6 
C 1.591219 6 3.117479 5.367802 4.242641 4.242641 
C 5.367802 3.117479 6 1.591219 6 0 
C 6 -1.591219 5.367802 -3.117479 4.242641 -4.242641 
C 3.117479 -5.367802 1.591219 -6 0 -6 
C -1.591219 -6 -3.117479 -5.367802 -4.242641 -4.242641 
C -5.367802 -3.117479 -6 -1.591219 -6 0 
C -6 1.591219 -5.367802 3.117479 -4.242641 4.242641 
C -3.117479 5.367802 -1.591219 6 0 6 
z
" style="stroke: #ffffff; stroke-width: 0.75"/>
    </defs>
    <g clip-path="url(#peb31e5a649)">
     <use xlink:href="#m3abe22f386" x="128.504017" y="359.064112" style="fill: #4c72b0; stroke: #ffffff; stroke-width: 0.75"/>
     <use xlink:href="#m3abe22f386" x="309.748288" y="378.594464" style="fill: #4c72b0; stroke: #ffffff; stroke-width: 0.75"/>
     <use xlink:href="#m3abe22f386" x="338.311797" y="353.808945" style="fill: #4c72b0; stroke: #ffffff; stroke-width: 0.75"/>
     <use xlink:href="#m3abe22f386" x="363.506598" y="353.667223" style="fill: #4c72b0; stroke: #ffffff; stroke-width: 0.75"/>
     <use xlink:href="#m3abe22f386" x="386.044115" y="336.02723" style="fill: #4c72b0; stroke: #ffffff; stroke-width: 0.75"/>
     <use xlink:href="#m3abe22f386" x="406.431779" y="319.293022" style="fill: #4c72b0; stroke: #ffffff; stroke-width: 0.75"/>
     <use xlink:href="#m3abe22f386" x="472.776575" y="369.081779" style="fill: #4c72b0; stroke: #ffffff; stroke-width: 0.75"/>
     <use xlink:href="#m3abe22f386" x="486.581918" y="343.12154" style="fill: #4c72b0; stroke: #ffffff; stroke-width: 0.75"/>
     <use xlink:href="#m3abe22f386" x="606.288529" y="429.241628" style="fill: #4c72b0; stroke: #ffffff; stroke-width: 0.75"/>
     <use xlink:href="#m3abe22f386" x="634.852038" y="410.743818" style="fill: #4c72b0; stroke: #ffffff; stroke-width: 0.75"/>
     <use xlink:href="#m3abe22f386" x="647.820164" y="406.78107" style="fill: #4c72b0; stroke: #ffffff; stroke-width: 0.75"/>
     <use xlink:href="#m3abe22f386" x="671.61228" y="407.287549" style="fill: #4c72b0; stroke: #ffffff; stroke-width: 0.75"/>
     <use xlink:href="#m3abe22f386" x="682.584355" y="406.093029" style="fill: #4c72b0; stroke: #ffffff; stroke-width: 0.75"/>
    </g>
   </g>
   <g id="line2d_10">
    <path d="M 128.504017 415.150132 
L 309.748288 410.613469 
L 338.311797 370.793258 
L 363.506598 313.877183 
L 386.044115 253.022715 
L 406.431779 209.357982 
L 472.776575 265.982287 
L 486.581918 246.946892 
L 606.288529 419.63656 
L 634.852038 379.50081 
L 647.820164 365.378002 
L 671.61228 367.622506 
L 682.584355 372.664124 
" clip-path="url(#peb31e5a649)" style="fill: none; stroke: #dd8452; stroke-width: 1.2; stroke-linecap: round"/>
    <defs>
     <path id="mccd121d08b" d="M -6 6 
L 6 6 
L 6 -6 
L -6 -6 
z
" style="stroke: #ffffff; stroke-width: 0.75; stroke-linejoin: miter"/>
    </defs>
    <g clip-path="url(#peb31e5a649)">
     <use xlink:href="#mccd121d08b" x="128.504017" y="415.150132" style="fill: #dd8452; stroke: #ffffff; stroke-width: 0.75; stroke-linejoin: miter"/>
     <use xlink:href="#mccd121d08b" x="309.748288" y="410.613469" style="fill: #dd8452; stroke: #ffffff; stroke-width: 0.75; stroke-linejoin: miter"/>
     <use xlink:href="#mccd121d08b" x="338.311797" y="370.793258" style="fill: #dd8452; stroke: #ffffff; stroke-width: 0.75; stroke-linejoin: miter"/>
     <use xlink:href="#mccd121d08b" x="363.506598" y="313.877183" style="fill: #dd8452; stroke: #ffffff; stroke-width: 0.75; stroke-linejoin: miter"/>
     <use xlink:href="#mccd121d08b" x="386.044115" y="253.022715" style="fill: #dd8452; stroke: #ffffff; stroke-width: 0.75; stroke-linejoin: miter"/>
     <use xlink:href="#mccd121d08b" x="406.431779" y="209.357982" style="fill: #dd8452; stroke: #ffffff; stroke-width: 0.75; stroke-linejoin: miter"/>
     <use xlink:href="#mccd121d08b" x="472.776575" y="265.982287" style="fill: #dd8452; stroke: #ffffff; stroke-width: 0.75; stroke-linejoin: miter"/>
     <use xlink:href="#mccd121d08b" x="486.581918" y="246.946892" style="fill: #dd8452; stroke: #ffffff; stroke-width: 0.75; stroke-linejoin: miter"/>
     <use xlink:href="#mccd121d08b" x="606.288529" y="419.63656" style="fill: #dd8452; stroke: #ffffff; stroke-width: 0.75; stroke-linejoin: miter"/>
     <use xlink:href="#mccd121d08b" x="634.852038" y="379.50081" style="fill: #dd8452; stroke: #ffffff; stroke-width: 0.75; stroke-linejoin: miter"/>
     <use xlink:href="#mccd121d08b" x="647.820164" y="365.378002" style="fill: #dd8452; stroke: #ffffff; stroke-width: 0.75; stroke-linejoin: miter"/>
     <use xlink:href="#mccd121d08b" x="671.61228" y="367.622506" style="fill: #dd8452; stroke: #ffffff; stroke-width: 0.75; stroke-linejoin: miter"/>
     <use xlink:href="#mccd121d08b" x="682.584355" y="372.664124" style="fill: #dd8452; stroke: #ffffff; stroke-width: 0.75; stroke-linejoin: miter"/>
    </g>
   </g>
   <g id="line2d_11">
    <path d="M 128.504017 421.347227 
L 309.748288 416.099829 
L 338.311797 393.359499 
L 363.506598 364.033006 
L 386.044115 331.118067 
L 406.431779 302.173162 
L 472.776575 345.44373 
L 486.581918 334.487207 
L 606.288529 422.010137 
L 634.852038 405.696635 
L 647.820164 400.401932 
L 671.61228 403.895657 
L 682.584355 399.905916 
" clip-path="url(#peb31e5a649)" style="fill: none; stroke: #55a868; stroke-width: 1.2; stroke-linecap: round"/>
    <defs>
     <path id="mf703842026" d="M -0 8.485281 
L 8.485281 0 
L 0 -8.485281 
L -8.485281 -0 
z
" style="stroke: #ffffff; stroke-width: 0.75; stroke-linejoin: miter"/>
    </defs>
    <g clip-path="url(#peb31e5a649)">
     <use xlink:href="#mf703842026" x="128.504017" y="421.347227" style="fill: #55a868; stroke: #ffffff; stroke-width: 0.75; stroke-linejoin: miter"/>
     <use xlink:href="#mf703842026" x="309.748288" y="416.099829" style="fill: #55a868; stroke: #ffffff; stroke-width: 0.75; stroke-linejoin: miter"/>
     <use xlink:href="#mf703842026" x="338.311797" y="393.359499" style="fill: #55a868; stroke: #ffffff; stroke-width: 0.75; stroke-linejoin: miter"/>
     <use xlink:href="#mf703842026" x="363.506598" y="364.033006" style="fill: #55a868; stroke: #ffffff; stroke-width: 0.75; stroke-linejoin: miter"/>
     <use xlink:href="#mf703842026" x="386.044115" y="331.118067" style="fill: #55a868; stroke: #ffffff; stroke-width: 0.75; stroke-linejoin: miter"/>
     <use xlink:href="#mf703842026" x="406.431779" y="302.173162" style="fill: #55a868; stroke: #ffffff; stroke-width: 0.75; stroke-linejoin: miter"/>
     <use xlink:href="#mf703842026" x="472.776575" y="345.44373" style="fill: #55a868; stroke: #ffffff; stroke-width: 0.75; stroke-linejoin: miter"/>
     <use xlink:href="#mf703842026" x="486.581918" y="334.487207" style="fill: #55a868; stroke: #ffffff; stroke-width: 0.75; stroke-linejoin: miter"/>
     <use xlink:href="#mf703842026" x="606.288529" y="422.010137" style="fill: #55a868; stroke: #ffffff; stroke-width: 0.75; stroke-linejoin: miter"/>
     <use xlink:href="#mf703842026" x="634.852038" y="405.696635" style="fill: #55a868; stroke: #ffffff; stroke-width: 0.75; stroke-linejoin: miter"/>
     <use xlink:href="#mf703842026" x="647.820164" y="400.401932" style="fill: #55a868; stroke: #ffffff; stroke-width: 0.75; stroke-linejoin: miter"/>
     <use xlink:href="#mf703842026" x="671.61228" y="403.895657" style="fill: #55a868; stroke: #ffffff; stroke-width: 0.75; stroke-linejoin: miter"/>
     <use xlink:href="#mf703842026" x="682.584355" y="399.905916" style="fill: #55a868; stroke: #ffffff; stroke-width: 0.75; stroke-linejoin: miter"/>
    </g>
   </g>
   <g id="line2d_12">
    <path d="M 128.504017 425.232892 
L 309.748288 422.624722 
L 338.311797 405.591539 
L 363.506598 383.856913 
L 386.044115 354.813758 
L 406.431779 331.305849 
L 472.776575 349.488179 
L 486.581918 335.013515 
L 606.288529 421.132938 
L 634.852038 392.48115 
L 647.820164 381.077171 
L 671.61228 382.862392 
L 682.584355 382.410804 
" clip-path="url(#peb31e5a649)" style="fill: none; stroke: #c44e52; stroke-width: 1.2; stroke-linecap: round"/>
    <defs>
     <path id="m7b2261ce71" d="M 0 -6 
L -6 6 
L 6 6 
z
" style="stroke: #ffffff; stroke-width: 0.75; stroke-linejoin: miter"/>
    </defs>
    <g clip-path="url(#peb31e5a649)">
     <use xlink:href="#m7b2261ce71" x="128.504017" y="425.232892" style="fill: #c44e52; stroke: #ffffff; stroke-width: 0.75; stroke-linejoin: miter"/>
     <use xlink:href="#m7b2261ce71" x="309.748288" y="422.624722" style="fill: #c44e52; stroke: #ffffff; stroke-width: 0.75; stroke-linejoin: miter"/>
     <use xlink:href="#m7b2261ce71" x="338.311797" y="405.591539" style="fill: #c44e52; stroke: #ffffff; stroke-width: 0.75; stroke-linejoin: miter"/>
     <use xlink:href="#m7b2261ce71" x="363.506598" y="383.856913" style="fill: #c44e52; stroke: #ffffff; stroke-width: 0.75; stroke-linejoin: miter"/>
     <use xlink:href="#m7b2261ce71" x="386.044115" y="354.813758" style="fill: #c44e52; stroke: #ffffff; stroke-width: 0.75; stroke-linejoin: miter"/>
     <use xlink:href="#m7b2261ce71" x="406.431779" y="331.305849" style="fill: #c44e52; stroke: #ffffff; stroke-width: 0.75; stroke-linejoin: miter"/>
     <use xlink:href="#m7b2261ce71" x="472.776575" y="349.488179" style="fill: #c44e52; stroke: #ffffff; stroke-width: 0.75; stroke-linejoin: miter"/>
     <use xlink:href="#m7b2261ce71" x="486.581918" y="335.013515" style="fill: #c44e52; stroke: #ffffff; stroke-width: 0.75; stroke-linejoin: miter"/>
     <use xlink:href="#m7b2261ce71" x="606.288529" y="421.132938" style="fill: #c44e52; stroke: #ffffff; stroke-width: 0.75; stroke-linejoin: miter"/>
     <use xlink:href="#m7b2261ce71" x="634.852038" y="392.48115" style="fill: #c44e52; stroke: #ffffff; stroke-width: 0.75; stroke-linejoin: miter"/>
     <use xlink:href="#m7b2261ce71" x="647.820164" y="381.077171" style="fill: #c44e52; stroke: #ffffff; stroke-width: 0.75; stroke-linejoin: miter"/>
     <use xlink:href="#m7b2261ce71" x="671.61228" y="382.862392" style="fill: #c44e52; stroke: #ffffff; stroke-width: 0.75; stroke-linejoin: miter"/>
     <use xlink:href="#m7b2261ce71" x="682.584355" y="382.410804" style="fill: #c44e52; stroke: #ffffff; stroke-width: 0.75; stroke-linejoin: miter"/>
    </g>
   </g>
   <g id="line2d_13"/>
   <g id="line2d_14"/>
   <g id="line2d_15"/>
   <g id="line2d_16"/>
   <g id="patch_3">
    <path d="M 100.8 448.56 
L 100.8 63 
" style="fill: none; stroke: #cccccc; stroke-linejoin: miter; stroke-linecap: square"/>
   </g>
   <g id="patch_4">
    <path d="M 710.288372 448.56 
L 710.288372 63 
" style="fill: none; stroke: #cccccc; stroke-linejoin: miter; stroke-linecap: square"/>
   </g>
   <g id="patch_5">
    <path d="M 100.8 448.56 
L 710.288372 448.56 
" style="fill: none; stroke: #cccccc; stroke-linejoin: miter; stroke-linecap: square"/>
   </g>
   <g id="patch_6">
    <path d="M 100.8 63 
L 710.288372 63 
" style="fill: none; stroke: #cccccc; stroke-linejoin: miter; stroke-linecap: square"/>
   </g>
  </g>
  <g id="axes_2">
   <g id="patch_7">
    <path d="M 801.711628 448.56 
L 1411.2 448.56 
L 1411.2 63 
L 801.711628 63 
z
" style="fill: #ffffff"/>
   </g>
   <g id="matplotlib.axis_3">
    <g id="xtick_36">
     <g id="line2d_17">
      <path d="M 829.415645 448.56 
L 829.415645 63 
" clip-path="url(#p92d06a00c7)" style="fill: none; stroke: #cccccc; stroke-width: 0.8; stroke-linecap: round"/>
     </g>
     <g id="text_11">
      <!-- 1 -->
      <g style="fill: #262626" transform="translate(823.787976 471.347413) scale(0.2024 -0.2024)">
       <use xlink:href="#ArialMT-31"/>
      </g>
     </g>
    </g>
    <g id="xtick_37">
     <g id="line2d_18">
      <path d="M 908.569979 448.56 
L 908.569979 63 
" clip-path="url(#p92d06a00c7)" style="fill: none; stroke: #cccccc; stroke-width: 0.8; stroke-linecap: round"/>
     </g>
     <g id="text_12">
      <!-- 2 -->
      <g style="fill: #262626" transform="translate(902.94231 471.347413) scale(0.2024 -0.2024)">
       <use xlink:href="#ArialMT-32"/>
      </g>
     </g>
    </g>
    <g id="xtick_38">
     <g id="line2d_19">
      <path d="M 987.724313 448.56 
L 987.724313 63 
" clip-path="url(#p92d06a00c7)" style="fill: none; stroke: #cccccc; stroke-width: 0.8; stroke-linecap: round"/>
     </g>
     <g id="text_13">
      <!-- 4 -->
      <g style="fill: #262626" transform="translate(982.096644 471.347413) scale(0.2024 -0.2024)">
       <use xlink:href="#ArialMT-34"/>
      </g>
     </g>
    </g>
    <g id="xtick_39">
     <g id="line2d_20">
      <path d="M 1066.878647 448.56 
L 1066.878647 63 
" clip-path="url(#p92d06a00c7)" style="fill: none; stroke: #cccccc; stroke-width: 0.8; stroke-linecap: round"/>
     </g>
     <g id="text_14">
      <!-- 8 -->
      <g style="fill: #262626" transform="translate(1061.250978 471.347413) scale(0.2024 -0.2024)">
       <defs>
        <path id="ArialMT-38" d="M 1131 2484 
Q 781 2613 612 2850 
Q 444 3088 444 3419 
Q 444 3919 803 4259 
Q 1163 4600 1759 4600 
Q 2359 4600 2725 4251 
Q 3091 3903 3091 3403 
Q 3091 3084 2923 2848 
Q 2756 2613 2416 2484 
Q 2838 2347 3058 2040 
Q 3278 1734 3278 1309 
Q 3278 722 2862 322 
Q 2447 -78 1769 -78 
Q 1091 -78 675 323 
Q 259 725 259 1325 
Q 259 1772 486 2073 
Q 713 2375 1131 2484 
z
M 1019 3438 
Q 1019 3113 1228 2906 
Q 1438 2700 1772 2700 
Q 2097 2700 2305 2904 
Q 2513 3109 2513 3406 
Q 2513 3716 2298 3927 
Q 2084 4138 1766 4138 
Q 1444 4138 1231 3931 
Q 1019 3725 1019 3438 
z
M 838 1322 
Q 838 1081 952 856 
Q 1066 631 1291 507 
Q 1516 384 1775 384 
Q 2178 384 2440 643 
Q 2703 903 2703 1303 
Q 2703 1709 2433 1975 
Q 2163 2241 1756 2241 
Q 1359 2241 1098 1978 
Q 838 1716 838 1322 
z
" transform="scale(0.015625)"/>
       </defs>
       <use xlink:href="#ArialMT-38"/>
      </g>
     </g>
    </g>
    <g id="xtick_40">
     <g id="line2d_21">
      <path d="M 1146.032981 448.56 
L 1146.032981 63 
" clip-path="url(#p92d06a00c7)" style="fill: none; stroke: #cccccc; stroke-width: 0.8; stroke-linecap: round"/>
     </g>
     <g id="text_15">
      <!-- 16 -->
      <g style="fill: #262626" transform="translate(1134.777643 471.347413) scale(0.2024 -0.2024)">
       <use xlink:href="#ArialMT-31"/>
       <use xlink:href="#ArialMT-36" transform="translate(55.615234 0)"/>
      </g>
     </g>
    </g>
    <g id="xtick_41">
     <g id="line2d_22">
      <path d="M 1225.187315 448.56 
L 1225.187315 63 
" clip-path="url(#p92d06a00c7)" style="fill: none; stroke: #cccccc; stroke-width: 0.8; stroke-linecap: round"/>
     </g>
     <g id="text_16">
      <!-- 32 -->
      <g style="fill: #262626" transform="translate(1213.931978 471.347413) scale(0.2024 -0.2024)">
       <use xlink:href="#ArialMT-33"/>
       <use xlink:href="#ArialMT-32" transform="translate(55.615234 0)"/>
      </g>
     </g>
    </g>
    <g id="xtick_42">
     <g id="line2d_23">
      <path d="M 1304.341649 448.56 
L 1304.341649 63 
" clip-path="url(#p92d06a00c7)" style="fill: none; stroke: #cccccc; stroke-width: 0.8; stroke-linecap: round"/>
     </g>
     <g id="text_17">
      <!-- 64 -->
      <g style="fill: #262626" transform="translate(1293.086312 471.347413) scale(0.2024 -0.2024)">
       <use xlink:href="#ArialMT-36"/>
       <use xlink:href="#ArialMT-34" transform="translate(55.615234 0)"/>
      </g>
     </g>
    </g>
    <g id="xtick_43">
     <g id="line2d_24">
      <path d="M 1383.495983 448.56 
L 1383.495983 63 
" clip-path="url(#p92d06a00c7)" style="fill: none; stroke: #cccccc; stroke-width: 0.8; stroke-linecap: round"/>
     </g>
     <g id="text_18">
      <!-- 128 -->
      <g style="fill: #262626" transform="translate(1366.612977 471.347413) scale(0.2024 -0.2024)">
       <use xlink:href="#ArialMT-31"/>
       <use xlink:href="#ArialMT-32" transform="translate(55.615234 0)"/>
       <use xlink:href="#ArialMT-38" transform="translate(111.230469 0)"/>
      </g>
     </g>
    </g>
    <g id="text_19">
     <!-- #Threads -->
     <g style="fill: #262626" transform="translate(1059.820439 495.174563) scale(0.2208 -0.2208)">
      <defs>
       <path id="ArialMT-54" d="M 1659 0 
L 1659 4041 
L 150 4041 
L 150 4581 
L 3781 4581 
L 3781 4041 
L 2266 4041 
L 2266 0 
L 1659 0 
z
" transform="scale(0.015625)"/>
      </defs>
      <use xlink:href="#ArialMT-23"/>
      <use xlink:href="#ArialMT-54" transform="translate(55.615234 0)"/>
      <use xlink:href="#ArialMT-68" transform="translate(116.699219 0)"/>
      <use xlink:href="#ArialMT-72" transform="translate(172.314453 0)"/>
      <use xlink:href="#ArialMT-65" transform="translate(205.615234 0)"/>
      <use xlink:href="#ArialMT-61" transform="translate(261.230469 0)"/>
      <use xlink:href="#ArialMT-64" transform="translate(316.845703 0)"/>
      <use xlink:href="#ArialMT-73" transform="translate(372.460938 0)"/>
     </g>
    </g>
   </g>
   <g id="matplotlib.axis_4">
    <g id="ytick_6">
     <g id="line2d_25">
      <path d="M 801.711628 431.034545 
L 1411.2 431.034545 
" clip-path="url(#p92d06a00c7)" style="fill: none; stroke: #cccccc; stroke-width: 0.8; stroke-linecap: round"/>
     </g>
     <g id="text_20">
      <!-- $\mathdefault{10^{0}}$ -->
      <g style="fill: #262626" transform="translate(761.634828 441.470795) scale(0.2024 -0.2024)">
       <use xlink:href="#ArialMT-31" transform="translate(0 0.99375)"/>
       <use xlink:href="#ArialMT-30" transform="translate(55.615234 0.99375)"/>
       <use xlink:href="#ArialMT-30" transform="translate(112.972813 70.6875) scale(0.7)"/>
      </g>
     </g>
    </g>
    <g id="ytick_7">
     <g id="line2d_26">
      <path d="M 801.711628 264.696546 
L 1411.2 264.696546 
" clip-path="url(#p92d06a00c7)" style="fill: none; stroke: #cccccc; stroke-width: 0.8; stroke-linecap: round"/>
     </g>
     <g id="text_21">
      <!-- $\mathdefault{10^{1}}$ -->
      <g style="fill: #262626" transform="translate(761.634828 275.132796) scale(0.2024 -0.2024)">
       <use xlink:href="#ArialMT-31" transform="translate(0 0.99375)"/>
       <use xlink:href="#ArialMT-30" transform="translate(55.615234 0.99375)"/>
       <use xlink:href="#ArialMT-31" transform="translate(112.972813 70.6875) scale(0.7)"/>
      </g>
     </g>
    </g>
    <g id="ytick_8">
     <g id="line2d_27">
      <path d="M 801.711628 98.358546 
L 1411.2 98.358546 
" clip-path="url(#p92d06a00c7)" style="fill: none; stroke: #cccccc; stroke-width: 0.8; stroke-linecap: round"/>
     </g>
     <g id="text_22">
      <!-- $\mathdefault{10^{2}}$ -->
      <g style="fill: #262626" transform="translate(761.634828 108.794796) scale(0.2024 -0.2024)">
       <use xlink:href="#ArialMT-31" transform="translate(0 0.99375)"/>
       <use xlink:href="#ArialMT-30" transform="translate(55.615234 0.99375)"/>
       <use xlink:href="#ArialMT-32" transform="translate(112.972813 70.6875) scale(0.7)"/>
      </g>
     </g>
    </g>
    <g id="ytick_9"/>
    <g id="ytick_10"/>
    <g id="ytick_11"/>
    <g id="ytick_12"/>
    <g id="ytick_13"/>
    <g id="ytick_14"/>
    <g id="ytick_15"/>
    <g id="ytick_16"/>
    <g id="ytick_17"/>
    <g id="ytick_18"/>
    <g id="ytick_19"/>
    <g id="ytick_20"/>
    <g id="ytick_21"/>
    <g id="ytick_22"/>
    <g id="ytick_23"/>
    <g id="ytick_24"/>
    <g id="ytick_25"/>
    <g id="ytick_26"/>
    <g id="text_23">
     <!-- Speedup -->
     <g style="fill: #262626" transform="translate(753.246428 299.979675) rotate(-90) scale(0.2208 -0.2208)">
      <defs>
       <path id="ArialMT-53" d="M 288 1472 
L 859 1522 
Q 900 1178 1048 958 
Q 1197 738 1509 602 
Q 1822 466 2213 466 
Q 2559 466 2825 569 
Q 3091 672 3220 851 
Q 3350 1031 3350 1244 
Q 3350 1459 3225 1620 
Q 3100 1781 2813 1891 
Q 2628 1963 1997 2114 
Q 1366 2266 1113 2400 
Q 784 2572 623 2826 
Q 463 3081 463 3397 
Q 463 3744 659 4045 
Q 856 4347 1234 4503 
Q 1613 4659 2075 4659 
Q 2584 4659 2973 4495 
Q 3363 4331 3572 4012 
Q 3781 3694 3797 3291 
L 3216 3247 
Q 3169 3681 2898 3903 
Q 2628 4125 2100 4125 
Q 1550 4125 1298 3923 
Q 1047 3722 1047 3438 
Q 1047 3191 1225 3031 
Q 1400 2872 2139 2705 
Q 2878 2538 3153 2413 
Q 3553 2228 3743 1945 
Q 3934 1663 3934 1294 
Q 3934 928 3725 604 
Q 3516 281 3123 101 
Q 2731 -78 2241 -78 
Q 1619 -78 1198 103 
Q 778 284 539 648 
Q 300 1013 288 1472 
z
" transform="scale(0.015625)"/>
       <path id="ArialMT-70" d="M 422 -1272 
L 422 3319 
L 934 3319 
L 934 2888 
Q 1116 3141 1344 3267 
Q 1572 3394 1897 3394 
Q 2322 3394 2647 3175 
Q 2972 2956 3137 2557 
Q 3303 2159 3303 1684 
Q 3303 1175 3120 767 
Q 2938 359 2589 142 
Q 2241 -75 1856 -75 
Q 1575 -75 1351 44 
Q 1128 163 984 344 
L 984 -1272 
L 422 -1272 
z
M 931 1641 
Q 931 1000 1190 694 
Q 1450 388 1819 388 
Q 2194 388 2461 705 
Q 2728 1022 2728 1688 
Q 2728 2322 2467 2637 
Q 2206 2953 1844 2953 
Q 1484 2953 1207 2617 
Q 931 2281 931 1641 
z
" transform="scale(0.015625)"/>
       <path id="ArialMT-75" d="M 2597 0 
L 2597 488 
Q 2209 -75 1544 -75 
Q 1250 -75 995 37 
Q 741 150 617 320 
Q 494 491 444 738 
Q 409 903 409 1263 
L 409 3319 
L 972 3319 
L 972 1478 
Q 972 1038 1006 884 
Q 1059 663 1231 536 
Q 1403 409 1656 409 
Q 1909 409 2131 539 
Q 2353 669 2445 892 
Q 2538 1116 2538 1541 
L 2538 3319 
L 3100 3319 
L 3100 0 
L 2597 0 
z
" transform="scale(0.015625)"/>
      </defs>
      <use xlink:href="#ArialMT-53"/>
      <use xlink:href="#ArialMT-70" transform="translate(66.699219 0)"/>
      <use xlink:href="#ArialMT-65" transform="translate(122.314453 0)"/>
      <use xlink:href="#ArialMT-65" transform="translate(177.929688 0)"/>
      <use xlink:href="#ArialMT-64" transform="translate(233.544922 0)"/>
      <use xlink:href="#ArialMT-75" transform="translate(289.160156 0)"/>
      <use xlink:href="#ArialMT-70" transform="translate(344.775391 0)"/>
     </g>
    </g>
   </g>
   <g id="line2d_28">
    <path d="M 829.415645 431.034545 
L 908.569979 380.961818 
L 987.724313 330.889091 
L 1066.878647 280.816364 
L 1146.032981 230.743636 
L 1225.187315 180.670909 
L 1304.341649 130.598182 
L 1383.495983 80.525455 
" clip-path="url(#p92d06a00c7)" style="fill: none; stroke-dasharray: 7.4,3.2; stroke-dashoffset: 0; stroke: #000000; stroke-width: 2"/>
   </g>
   <g id="line2d_29">
    <path d="M 829.415645 430.168586 
L 908.569979 369.793494 
L 987.724313 331.918849 
L 1066.878647 289.426476 
L 1146.032981 234.05982 
L 1225.187315 183.637691 
L 1304.341649 164.760272 
L 1383.495983 139.675192 
" clip-path="url(#p92d06a00c7)" style="fill: none; stroke: #4c72b0; stroke-width: 1.2; stroke-linecap: round"/>
    <g clip-path="url(#p92d06a00c7)">
     <use xlink:href="#m3abe22f386" x="829.415645" y="430.168586" style="fill: #4c72b0; stroke: #ffffff; stroke-width: 0.75"/>
     <use xlink:href="#m3abe22f386" x="908.569979" y="369.793494" style="fill: #4c72b0; stroke: #ffffff; stroke-width: 0.75"/>
     <use xlink:href="#m3abe22f386" x="987.724313" y="331.918849" style="fill: #4c72b0; stroke: #ffffff; stroke-width: 0.75"/>
     <use xlink:href="#m3abe22f386" x="1066.878647" y="289.426476" style="fill: #4c72b0; stroke: #ffffff; stroke-width: 0.75"/>
     <use xlink:href="#m3abe22f386" x="1146.032981" y="234.05982" style="fill: #4c72b0; stroke: #ffffff; stroke-width: 0.75"/>
     <use xlink:href="#m3abe22f386" x="1225.187315" y="183.637691" style="fill: #4c72b0; stroke: #ffffff; stroke-width: 0.75"/>
     <use xlink:href="#m3abe22f386" x="1304.341649" y="164.760272" style="fill: #4c72b0; stroke: #ffffff; stroke-width: 0.75"/>
     <use xlink:href="#m3abe22f386" x="1383.495983" y="139.675192" style="fill: #4c72b0; stroke: #ffffff; stroke-width: 0.75"/>
    </g>
   </g>
   <g id="line2d_30">
    <path d="M 829.415645 378.365881 
L 908.569979 395.057376 
L 987.724313 347.520989 
L 1066.878647 304.028841 
L 1146.032981 262.333886 
L 1225.187315 227.159949 
L 1304.341649 218.863212 
L 1383.495983 230.555061 
" clip-path="url(#p92d06a00c7)" style="fill: none; stroke: #dd8452; stroke-width: 1.2; stroke-linecap: round"/>
    <g clip-path="url(#p92d06a00c7)">
     <use xlink:href="#mccd121d08b" x="829.415645" y="378.365881" style="fill: #dd8452; stroke: #ffffff; stroke-width: 0.75; stroke-linejoin: miter"/>
     <use xlink:href="#mccd121d08b" x="908.569979" y="395.057376" style="fill: #dd8452; stroke: #ffffff; stroke-width: 0.75; stroke-linejoin: miter"/>
     <use xlink:href="#mccd121d08b" x="987.724313" y="347.520989" style="fill: #dd8452; stroke: #ffffff; stroke-width: 0.75; stroke-linejoin: miter"/>
     <use xlink:href="#mccd121d08b" x="1066.878647" y="304.028841" style="fill: #dd8452; stroke: #ffffff; stroke-width: 0.75; stroke-linejoin: miter"/>
     <use xlink:href="#mccd121d08b" x="1146.032981" y="262.333886" style="fill: #dd8452; stroke: #ffffff; stroke-width: 0.75; stroke-linejoin: miter"/>
     <use xlink:href="#mccd121d08b" x="1225.187315" y="227.159949" style="fill: #dd8452; stroke: #ffffff; stroke-width: 0.75; stroke-linejoin: miter"/>
     <use xlink:href="#mccd121d08b" x="1304.341649" y="218.863212" style="fill: #dd8452; stroke: #ffffff; stroke-width: 0.75; stroke-linejoin: miter"/>
     <use xlink:href="#mccd121d08b" x="1383.495983" y="230.555061" style="fill: #dd8452; stroke: #ffffff; stroke-width: 0.75; stroke-linejoin: miter"/>
    </g>
   </g>
   <g id="line2d_31">
    <path d="M 908.569979 431.034545 
L 987.724313 389.027275 
L 1066.878647 359.831448 
L 1146.032981 333.892306 
L 1225.187315 321.373357 
L 1304.341649 321.36376 
L 1383.495983 327.495898 
" clip-path="url(#p92d06a00c7)" style="fill: none; stroke: #55a868; stroke-width: 1.2; stroke-linecap: round"/>
    <g clip-path="url(#p92d06a00c7)">
     <use xlink:href="#mf703842026" x="908.569979" y="431.034545" style="fill: #55a868; stroke: #ffffff; stroke-width: 0.75; stroke-linejoin: miter"/>
     <use xlink:href="#mf703842026" x="987.724313" y="389.027275" style="fill: #55a868; stroke: #ffffff; stroke-width: 0.75; stroke-linejoin: miter"/>
     <use xlink:href="#mf703842026" x="1066.878647" y="359.831448" style="fill: #55a868; stroke: #ffffff; stroke-width: 0.75; stroke-linejoin: miter"/>
     <use xlink:href="#mf703842026" x="1146.032981" y="333.892306" style="fill: #55a868; stroke: #ffffff; stroke-width: 0.75; stroke-linejoin: miter"/>
     <use xlink:href="#mf703842026" x="1225.187315" y="321.373357" style="fill: #55a868; stroke: #ffffff; stroke-width: 0.75; stroke-linejoin: miter"/>
     <use xlink:href="#mf703842026" x="1304.341649" y="321.36376" style="fill: #55a868; stroke: #ffffff; stroke-width: 0.75; stroke-linejoin: miter"/>
     <use xlink:href="#mf703842026" x="1383.495983" y="327.495898" style="fill: #55a868; stroke: #ffffff; stroke-width: 0.75; stroke-linejoin: miter"/>
    </g>
   </g>
   <g id="line2d_32">
    <path d="M 829.415645 381.634867 
L 908.569979 404.598792 
L 987.724313 363.227879 
L 1066.878647 326.185542 
L 1146.032981 290.004061 
L 1225.187315 264.931279 
L 1304.341649 250.250224 
L 1383.495983 289.919809 
" clip-path="url(#p92d06a00c7)" style="fill: none; stroke: #c44e52; stroke-width: 1.2; stroke-linecap: round"/>
    <g clip-path="url(#p92d06a00c7)">
     <use xlink:href="#m7b2261ce71" x="829.415645" y="381.634867" style="fill: #c44e52; stroke: #ffffff; stroke-width: 0.75; stroke-linejoin: miter"/>
     <use xlink:href="#m7b2261ce71" x="908.569979" y="404.598792" style="fill: #c44e52; stroke: #ffffff; stroke-width: 0.75; stroke-linejoin: miter"/>
     <use xlink:href="#m7b2261ce71" x="987.724313" y="363.227879" style="fill: #c44e52; stroke: #ffffff; stroke-width: 0.75; stroke-linejoin: miter"/>
     <use xlink:href="#m7b2261ce71" x="1066.878647" y="326.185542" style="fill: #c44e52; stroke: #ffffff; stroke-width: 0.75; stroke-linejoin: miter"/>
     <use xlink:href="#m7b2261ce71" x="1146.032981" y="290.004061" style="fill: #c44e52; stroke: #ffffff; stroke-width: 0.75; stroke-linejoin: miter"/>
     <use xlink:href="#m7b2261ce71" x="1225.187315" y="264.931279" style="fill: #c44e52; stroke: #ffffff; stroke-width: 0.75; stroke-linejoin: miter"/>
     <use xlink:href="#m7b2261ce71" x="1304.341649" y="250.250224" style="fill: #c44e52; stroke: #ffffff; stroke-width: 0.75; stroke-linejoin: miter"/>
     <use xlink:href="#m7b2261ce71" x="1383.495983" y="289.919809" style="fill: #c44e52; stroke: #ffffff; stroke-width: 0.75; stroke-linejoin: miter"/>
    </g>
   </g>
   <g id="line2d_33"/>
   <g id="line2d_34"/>
   <g id="line2d_35"/>
   <g id="line2d_36"/>
   <g id="patch_8">
    <path d="M 801.711628 448.56 
L 801.711628 63 
" style="fill: none; stroke: #cccccc; stroke-linejoin: miter; stroke-linecap: square"/>
   </g>
   <g id="patch_9">
    <path d="M 1411.2 448.56 
L 1411.2 63 
" style="fill: none; stroke: #cccccc; stroke-linejoin: miter; stroke-linecap: square"/>
   </g>
   <g id="patch_10">
    <path d="M 801.711628 448.56 
L 1411.2 448.56 
" style="fill: none; stroke: #cccccc; stroke-linejoin: miter; stroke-linecap: square"/>
   </g>
   <g id="patch_11">
    <path d="M 801.711628 63 
L 1411.2 63 
" style="fill: none; stroke: #cccccc; stroke-linejoin: miter; stroke-linecap: square"/>
   </g>
  </g>
  <g id="legend_1">
   <g id="line2d_37">
    <path d="M 383.892663 35.699413 
L 406.156663 35.699413 
L 428.420663 35.699413 
" style="fill: none; stroke: #4c72b0; stroke-width: 2; stroke-linecap: round"/>
    <defs>
     <path id="m9e7f948b04" d="M 0 5 
C 1.326016 5 2.597899 4.473168 3.535534 3.535534 
C 4.473168 2.597899 5 1.326016 5 0 
C 5 -1.326016 4.473168 -2.597899 3.535534 -3.535534 
C 2.597899 -4.473168 1.326016 -5 0 -5 
C -1.326016 -5 -2.597899 -4.473168 -3.535534 -3.535534 
C -4.473168 -2.597899 -5 -1.326016 -5 0 
C -5 1.326016 -4.473168 2.597899 -3.535534 3.535534 
C -2.597899 4.473168 -1.326016 5 0 5 
z
" style="stroke: #4c72b0"/>
    </defs>
    <g>
     <use xlink:href="#m9e7f948b04" x="406.156663" y="35.699413" style="fill: #4c72b0; stroke: #4c72b0"/>
    </g>
   </g>
   <g id="text_24">
    <!-- Cell-Based -->
    <g style="fill: #262626" transform="translate(444.612663 42.783412) scale(0.2024 -0.2024)">
     <defs>
      <path id="ArialMT-2d" d="M 203 1375 
L 203 1941 
L 1931 1941 
L 1931 1375 
L 203 1375 
z
" transform="scale(0.015625)"/>
     </defs>
     <use xlink:href="#ArialMT-43"/>
     <use xlink:href="#ArialMT-65" transform="translate(72.216797 0)"/>
     <use xlink:href="#ArialMT-6c" transform="translate(127.832031 0)"/>
     <use xlink:href="#ArialMT-6c" transform="translate(150.048828 0)"/>
     <use xlink:href="#ArialMT-2d" transform="translate(172.265625 0)"/>
     <use xlink:href="#ArialMT-42" transform="translate(205.566406 0)"/>
     <use xlink:href="#ArialMT-61" transform="translate(272.265625 0)"/>
     <use xlink:href="#ArialMT-73" transform="translate(327.880859 0)"/>
     <use xlink:href="#ArialMT-65" transform="translate(377.880859 0)"/>
     <use xlink:href="#ArialMT-64" transform="translate(433.496094 0)"/>
    </g>
   </g>
   <g id="line2d_38">
    <path d="M 383.892663 64.329525 
L 406.156663 64.329525 
L 428.420663 64.329525 
" style="fill: none; stroke: #dd8452; stroke-width: 2; stroke-linecap: round"/>
    <defs>
     <path id="ma5985008e8" d="M -5 5 
L 5 5 
L 5 -5 
L -5 -5 
z
" style="stroke: #dd8452; stroke-linejoin: miter"/>
    </defs>
    <g>
     <use xlink:href="#ma5985008e8" x="406.156663" y="64.329525" style="fill: #dd8452; stroke: #dd8452; stroke-linejoin: miter"/>
    </g>
   </g>
   <g id="text_25">
    <!-- Face-Based -->
    <g style="fill: #262626" transform="translate(444.612663 71.413525) scale(0.2024 -0.2024)">
     <defs>
      <path id="ArialMT-46" d="M 525 0 
L 525 4581 
L 3616 4581 
L 3616 4041 
L 1131 4041 
L 1131 2622 
L 3281 2622 
L 3281 2081 
L 1131 2081 
L 1131 0 
L 525 0 
z
" transform="scale(0.015625)"/>
      <path id="ArialMT-63" d="M 2588 1216 
L 3141 1144 
Q 3050 572 2676 248 
Q 2303 -75 1759 -75 
Q 1078 -75 664 370 
Q 250 816 250 1647 
Q 250 2184 428 2587 
Q 606 2991 970 3192 
Q 1334 3394 1763 3394 
Q 2303 3394 2647 3120 
Q 2991 2847 3088 2344 
L 2541 2259 
Q 2463 2594 2264 2762 
Q 2066 2931 1784 2931 
Q 1359 2931 1093 2626 
Q 828 2322 828 1663 
Q 828 994 1084 691 
Q 1341 388 1753 388 
Q 2084 388 2306 591 
Q 2528 794 2588 1216 
z
" transform="scale(0.015625)"/>
     </defs>
     <use xlink:href="#ArialMT-46"/>
     <use xlink:href="#ArialMT-61" transform="translate(61.083984 0)"/>
     <use xlink:href="#ArialMT-63" transform="translate(116.699219 0)"/>
     <use xlink:href="#ArialMT-65" transform="translate(166.699219 0)"/>
     <use xlink:href="#ArialMT-2d" transform="translate(222.314453 0)"/>
     <use xlink:href="#ArialMT-42" transform="translate(255.615234 0)"/>
     <use xlink:href="#ArialMT-61" transform="translate(322.314453 0)"/>
     <use xlink:href="#ArialMT-73" transform="translate(377.929688 0)"/>
     <use xlink:href="#ArialMT-65" transform="translate(427.929688 0)"/>
     <use xlink:href="#ArialMT-64" transform="translate(483.544922 0)"/>
    </g>
   </g>
   <g id="line2d_39">
    <path d="M 586.115563 35.699413 
L 608.379563 35.699413 
L 630.643563 35.699413 
" style="fill: none; stroke: #55a868; stroke-width: 2; stroke-linecap: round"/>
    <defs>
     <path id="m46c7e853c1" d="M -0 7.071068 
L 7.071068 0 
L 0 -7.071068 
L -7.071068 -0 
z
" style="stroke: #55a868; stroke-linejoin: miter"/>
    </defs>
    <g>
     <use xlink:href="#m46c7e853c1" x="608.379563" y="35.699413" style="fill: #55a868; stroke: #55a868; stroke-linejoin: miter"/>
    </g>
   </g>
   <g id="text_26">
    <!-- Face-Based Batched -->
    <g style="fill: #262626" transform="translate(646.835563 42.783412) scale(0.2024 -0.2024)">
     <use xlink:href="#ArialMT-46"/>
     <use xlink:href="#ArialMT-61" transform="translate(61.083984 0)"/>
     <use xlink:href="#ArialMT-63" transform="translate(116.699219 0)"/>
     <use xlink:href="#ArialMT-65" transform="translate(166.699219 0)"/>
     <use xlink:href="#ArialMT-2d" transform="translate(222.314453 0)"/>
     <use xlink:href="#ArialMT-42" transform="translate(255.615234 0)"/>
     <use xlink:href="#ArialMT-61" transform="translate(322.314453 0)"/>
     <use xlink:href="#ArialMT-73" transform="translate(377.929688 0)"/>
     <use xlink:href="#ArialMT-65" transform="translate(427.929688 0)"/>
     <use xlink:href="#ArialMT-64" transform="translate(483.544922 0)"/>
     <use xlink:href="#ArialMT-20" transform="translate(539.160156 0)"/>
     <use xlink:href="#ArialMT-42" transform="translate(566.943359 0)"/>
     <use xlink:href="#ArialMT-61" transform="translate(633.642578 0)"/>
     <use xlink:href="#ArialMT-74" transform="translate(689.257812 0)"/>
     <use xlink:href="#ArialMT-63" transform="translate(717.041016 0)"/>
     <use xlink:href="#ArialMT-68" transform="translate(767.041016 0)"/>
     <use xlink:href="#ArialMT-65" transform="translate(822.65625 0)"/>
     <use xlink:href="#ArialMT-64" transform="translate(878.271484 0)"/>
    </g>
   </g>
   <g id="line2d_40">
    <path d="M 586.115563 64.329525 
L 608.379563 64.329525 
L 630.643563 64.329525 
" style="fill: none; stroke: #c44e52; stroke-width: 2; stroke-linecap: round"/>
    <defs>
     <path id="m44fee15d86" d="M 0 -5 
L -5 5 
L 5 5 
z
" style="stroke: #c44e52; stroke-linejoin: miter"/>
    </defs>
    <g>
     <use xlink:href="#m44fee15d86" x="608.379563" y="64.329525" style="fill: #c44e52; stroke: #c44e52; stroke-linejoin: miter"/>
    </g>
   </g>
   <g id="text_27">
    <!-- Face-Based Global -->
    <g style="fill: #262626" transform="translate(646.835563 71.413525) scale(0.2024 -0.2024)">
     <defs>
      <path id="ArialMT-6f" d="M 213 1659 
Q 213 2581 725 3025 
Q 1153 3394 1769 3394 
Q 2453 3394 2887 2945 
Q 3322 2497 3322 1706 
Q 3322 1066 3130 698 
Q 2938 331 2570 128 
Q 2203 -75 1769 -75 
Q 1072 -75 642 372 
Q 213 819 213 1659 
z
M 791 1659 
Q 791 1022 1069 705 
Q 1347 388 1769 388 
Q 2188 388 2466 706 
Q 2744 1025 2744 1678 
Q 2744 2294 2464 2611 
Q 2184 2928 1769 2928 
Q 1347 2928 1069 2612 
Q 791 2297 791 1659 
z
" transform="scale(0.015625)"/>
     </defs>
     <use xlink:href="#ArialMT-46"/>
     <use xlink:href="#ArialMT-61" transform="translate(61.083984 0)"/>
     <use xlink:href="#ArialMT-63" transform="translate(116.699219 0)"/>
     <use xlink:href="#ArialMT-65" transform="translate(166.699219 0)"/>
     <use xlink:href="#ArialMT-2d" transform="translate(222.314453 0)"/>
     <use xlink:href="#ArialMT-42" transform="translate(255.615234 0)"/>
     <use xlink:href="#ArialMT-61" transform="translate(322.314453 0)"/>
     <use xlink:href="#ArialMT-73" transform="translate(377.929688 0)"/>
     <use xlink:href="#ArialMT-65" transform="translate(427.929688 0)"/>
     <use xlink:href="#ArialMT-64" transform="translate(483.544922 0)"/>
     <use xlink:href="#ArialMT-20" transform="translate(539.160156 0)"/>
     <use xlink:href="#ArialMT-47" transform="translate(566.943359 0)"/>
     <use xlink:href="#ArialMT-6c" transform="translate(644.726562 0)"/>
     <use xlink:href="#ArialMT-6f" transform="translate(666.943359 0)"/>
     <use xlink:href="#ArialMT-62" transform="translate(722.558594 0)"/>
     <use xlink:href="#ArialMT-61" transform="translate(778.173828 0)"/>
     <use xlink:href="#ArialMT-6c" transform="translate(833.789062 0)"/>
    </g>
   </g>
   <g id="line2d_41">
    <path d="M 868.226375 35.699413 
L 890.490375 35.699413 
L 912.754375 35.699413 
" style="fill: none; stroke-dasharray: 7.4,3.2; stroke-dashoffset: 0; stroke: #000000; stroke-width: 2"/>
   </g>
   <g id="text_28">
    <!-- Ideal speedup -->
    <g style="fill: #262626" transform="translate(928.946375 42.783412) scale(0.2024 -0.2024)">
     <defs>
      <path id="ArialMT-49" d="M 597 0 
L 597 4581 
L 1203 4581 
L 1203 0 
L 597 0 
z
" transform="scale(0.015625)"/>
     </defs>
     <use xlink:href="#ArialMT-49"/>
     <use xlink:href="#ArialMT-64" transform="translate(27.783203 0)"/>
     <use xlink:href="#ArialMT-65" transform="translate(83.398438 0)"/>
     <use xlink:href="#ArialMT-61" transform="translate(139.013672 0)"/>
     <use xlink:href="#ArialMT-6c" transform="translate(194.628906 0)"/>
     <use xlink:href="#ArialMT-20" transform="translate(216.845703 0)"/>
     <use xlink:href="#ArialMT-73" transform="translate(244.628906 0)"/>
     <use xlink:href="#ArialMT-70" transform="translate(294.628906 0)"/>
     <use xlink:href="#ArialMT-65" transform="translate(350.244141 0)"/>
     <use xlink:href="#ArialMT-65" transform="translate(405.859375 0)"/>
     <use xlink:href="#ArialMT-64" transform="translate(461.474609 0)"/>
     <use xlink:href="#ArialMT-75" transform="translate(517.089844 0)"/>
     <use xlink:href="#ArialMT-70" transform="translate(572.705078 0)"/>
    </g>
   </g>
  </g>
 </g>
 <defs>
  <clipPath id="peb31e5a649">
   <rect x="100.8" y="63" width="609.488372" height="385.56"/>
  </clipPath>
  <clipPath id="p92d06a00c7">
   <rect x="801.711628" y="63" width="609.488372" height="385.56"/>
  </clipPath>
 </defs>
</svg>
