<?xml version="1.0" encoding="utf-8" standalone="no"?>
<!DOCTYPE svg PUBLIC "-//W3C//DTD SVG 1.1//EN"
  "http://www.w3.org/Graphics/SVG/1.1/DTD/svg11.dtd">
<svg xmlns:xlink="http://www.w3.org/1999/xlink" width="756pt" height="432pt" viewBox="0 0 756 432" xmlns="http://www.w3.org/2000/svg" version="1.1">
 <metadata>
  <rdf:RDF xmlns:dc="http://purl.org/dc/elements/1.1/" xmlns:cc="http://creativecommons.org/ns#" xmlns:rdf="http://www.w3.org/1999/02/22-rdf-syntax-ns#">
   <cc:Work>
    <dc:type rdf:resource="http://purl.org/dc/dcmitype/StillImage"/>
    <dc:date>2026-06-22T11:58:36.701468</dc:date>
    <dc:format>image/svg+xml</dc:format>
    <dc:creator>
     <cc:Agent>
      <dc:title>Matplotlib v3.10.9, https://matplotlib.org/</dc:title>
     </cc:Agent>
    </dc:creator>
   </cc:Work>
  </rdf:RDF>
 </metadata>
 <defs>
  <style type="text/css">*{stroke-linejoin: round; stroke-linecap: butt}</style>
 </defs>
 <g id="figure_1">
  <g id="patch_1">
   <path d="M 0 432 
L 756 432 
L 756 0 
L 0 0 
z
" style="fill: #ffffff"/>
  </g>
  <g id="axes_1">
   <g id="patch_2">
    <path d="M 95.261385 308.061248 
L 272.584793 308.061248 
L 272.584793 17.6256 
L 95.261385 17.6256 
z
" style="fill: #ffffff"/>
   </g>
   <g id="matplotlib.axis_1">
    <g id="xtick_1">
     <g id="line2d_1">
      <path d="M 107.927343 308.061248 
L 107.927343 17.6256 
" clip-path="url(#p808149ccf5)" style="fill: none; stroke: #cccccc; stroke-width: 0.8; stroke-linecap: round"/>
     </g>
     <g id="text_1">
      <!-- Fused -->
      <g style="fill: #262626" transform="translate(76.427097 353.330814) rotate(-45) scale(0.1496 -0.1496)">
       <defs>
        <path id="ArialMT-46" d="M 525 0 
L 525 4581 
L 3616 4581 
L 3616 4041 
L 1131 4041 
L 1131 2622 
L 3281 2622 
L 3281 2081 
L 1131 2081 
L 1131 0 
L 525 0 
z
" transform="scale(0.015625)"/>
        <path id="ArialMT-75" d="M 2597 0 
L 2597 488 
Q 2209 -75 1544 -75 
Q 1250 -75 995 37 
Q 741 150 617 320 
Q 494 491 444 738 
Q 409 903 409 1263 
L 409 3319 
L 972 3319 
L 972 1478 
Q 972 1038 1006 884 
Q 1059 663 1231 536 
Q 1403 409 1656 409 
Q 1909 409 2131 539 
Q 2353 669 2445 892 
Q 2538 1116 2538 1541 
L 2538 3319 
L 3100 3319 
L 3100 0 
L 2597 0 
z
" transform="scale(0.015625)"/>
        <path id="ArialMT-73" d="M 197 991 
L 753 1078 
Q 800 744 1014 566 
Q 1228 388 1613 388 
Q 2000 388 2187 545 
Q 2375 703 2375 916 
Q 2375 1106 2209 1216 
Q 2094 1291 1634 1406 
Q 1016 1563 777 1677 
Q 538 1791 414 1992 
Q 291 2194 291 2438 
Q 291 2659 392 2848 
Q 494 3038 669 3163 
Q 800 3259 1026 3326 
Q 1253 3394 1513 3394 
Q 1903 3394 2198 3281 
Q 2494 3169 2634 2976 
Q 2775 2784 2828 2463 
L 2278 2388 
Q 2241 2644 2061 2787 
Q 1881 2931 1553 2931 
Q 1166 2931 1000 2803 
Q 834 2675 834 2503 
Q 834 2394 903 2306 
Q 972 2216 1119 2156 
Q 1203 2125 1616 2013 
Q 2213 1853 2448 1751 
Q 2684 1650 2818 1456 
Q 2953 1263 2953 975 
Q 2953 694 2789 445 
Q 2625 197 2315 61 
Q 2006 -75 1616 -75 
Q 969 -75 630 194 
Q 291 463 197 991 
z
" transform="scale(0.015625)"/>
        <path id="ArialMT-65" d="M 2694 1069 
L 3275 997 
Q 3138 488 2766 206 
Q 2394 -75 1816 -75 
Q 1088 -75 661 373 
Q 234 822 234 1631 
Q 234 2469 665 2931 
Q 1097 3394 1784 3394 
Q 2450 3394 2872 2941 
Q 3294 2488 3294 1666 
Q 3294 1616 3291 1516 
L 816 1516 
Q 847 969 1125 678 
Q 1403 388 1819 388 
Q 2128 388 2347 550 
Q 2566 713 2694 1069 
z
M 847 1978 
L 2700 1978 
Q 2663 2397 2488 2606 
Q 2219 2931 1791 2931 
Q 1403 2931 1139 2672 
Q 875 2413 847 1978 
z
" transform="scale(0.015625)"/>
        <path id="ArialMT-64" d="M 2575 0 
L 2575 419 
Q 2259 -75 1647 -75 
Q 1250 -75 917 144 
Q 584 363 401 755 
Q 219 1147 219 1656 
Q 219 2153 384 2558 
Q 550 2963 881 3178 
Q 1213 3394 1622 3394 
Q 1922 3394 2156 3267 
Q 2391 3141 2538 2938 
L 2538 4581 
L 3097 4581 
L 3097 0 
L 2575 0 
z
M 797 1656 
Q 797 1019 1065 703 
Q 1334 388 1700 388 
Q 2069 388 2326 689 
Q 2584 991 2584 1609 
Q 2584 2291 2321 2609 
Q 2059 2928 1675 2928 
Q 1300 2928 1048 2622 
Q 797 2316 797 1656 
z
" transform="scale(0.015625)"/>
       </defs>
       <use xlink:href="#ArialMT-46"/>
       <use xlink:href="#ArialMT-75" transform="translate(61.083984 0)"/>
       <use xlink:href="#ArialMT-73" transform="translate(116.699219 0)"/>
       <use xlink:href="#ArialMT-65" transform="translate(166.699219 0)"/>
       <use xlink:href="#ArialMT-64" transform="translate(222.314453 0)"/>
      </g>
     </g>
    </g>
    <g id="xtick_2">
     <g id="line2d_2">
      <path d="M 133.259259 308.061248 
L 133.259259 17.6256 
" clip-path="url(#p808149ccf5)" style="fill: none; stroke: #cccccc; stroke-width: 0.8; stroke-linecap: round"/>
     </g>
     <g id="text_2">
      <!-- Linear (Dyn.) -->
      <g style="fill: #262626" transform="translate(69.89679 385.197995) rotate(-45) scale(0.1496 -0.1496)">
       <defs>
        <path id="ArialMT-4c" d="M 469 0 
L 469 4581 
L 1075 4581 
L 1075 541 
L 3331 541 
L 3331 0 
L 469 0 
z
" transform="scale(0.015625)"/>
        <path id="ArialMT-69" d="M 425 3934 
L 425 4581 
L 988 4581 
L 988 3934 
L 425 3934 
z
M 425 0 
L 425 3319 
L 988 3319 
L 988 0 
L 425 0 
z
" transform="scale(0.015625)"/>
        <path id="ArialMT-6e" d="M 422 0 
L 422 3319 
L 928 3319 
L 928 2847 
Q 1294 3394 1984 3394 
Q 2284 3394 2536 3286 
Q 2788 3178 2913 3003 
Q 3038 2828 3088 2588 
Q 3119 2431 3119 2041 
L 3119 0 
L 2556 0 
L 2556 2019 
Q 2556 2363 2490 2533 
Q 2425 2703 2258 2804 
Q 2091 2906 1866 2906 
Q 1506 2906 1245 2678 
Q 984 2450 984 1813 
L 984 0 
L 422 0 
z
" transform="scale(0.015625)"/>
        <path id="ArialMT-61" d="M 2588 409 
Q 2275 144 1986 34 
Q 1697 -75 1366 -75 
Q 819 -75 525 192 
Q 231 459 231 875 
Q 231 1119 342 1320 
Q 453 1522 633 1644 
Q 813 1766 1038 1828 
Q 1203 1872 1538 1913 
Q 2219 1994 2541 2106 
Q 2544 2222 2544 2253 
Q 2544 2597 2384 2738 
Q 2169 2928 1744 2928 
Q 1347 2928 1158 2789 
Q 969 2650 878 2297 
L 328 2372 
Q 403 2725 575 2942 
Q 747 3159 1072 3276 
Q 1397 3394 1825 3394 
Q 2250 3394 2515 3294 
Q 2781 3194 2906 3042 
Q 3031 2891 3081 2659 
Q 3109 2516 3109 2141 
L 3109 1391 
Q 3109 606 3145 398 
Q 3181 191 3288 0 
L 2700 0 
Q 2613 175 2588 409 
z
M 2541 1666 
Q 2234 1541 1622 1453 
Q 1275 1403 1131 1340 
Q 988 1278 909 1158 
Q 831 1038 831 891 
Q 831 666 1001 516 
Q 1172 366 1500 366 
Q 1825 366 2078 508 
Q 2331 650 2450 897 
Q 2541 1088 2541 1459 
L 2541 1666 
z
" transform="scale(0.015625)"/>
        <path id="ArialMT-72" d="M 416 0 
L 416 3319 
L 922 3319 
L 922 2816 
Q 1116 3169 1280 3281 
Q 1444 3394 1641 3394 
Q 1925 3394 2219 3213 
L 2025 2691 
Q 1819 2813 1613 2813 
Q 1428 2813 1281 2702 
Q 1134 2591 1072 2394 
Q 978 2094 978 1738 
L 978 0 
L 416 0 
z
" transform="scale(0.015625)"/>
        <path id="ArialMT-20" transform="scale(0.015625)"/>
        <path id="ArialMT-28" d="M 1497 -1347 
Q 1031 -759 709 28 
Q 388 816 388 1659 
Q 388 2403 628 3084 
Q 909 3875 1497 4659 
L 1900 4659 
Q 1522 4009 1400 3731 
Q 1209 3300 1100 2831 
Q 966 2247 966 1656 
Q 966 153 1900 -1347 
L 1497 -1347 
z
" transform="scale(0.015625)"/>
        <path id="ArialMT-44" d="M 494 0 
L 494 4581 
L 2072 4581 
Q 2606 4581 2888 4516 
Q 3281 4425 3559 4188 
Q 3922 3881 4101 3404 
Q 4281 2928 4281 2316 
Q 4281 1794 4159 1391 
Q 4038 988 3847 723 
Q 3656 459 3429 307 
Q 3203 156 2883 78 
Q 2563 0 2147 0 
L 494 0 
z
M 1100 541 
L 2078 541 
Q 2531 541 2789 625 
Q 3047 709 3200 863 
Q 3416 1078 3536 1442 
Q 3656 1806 3656 2325 
Q 3656 3044 3420 3430 
Q 3184 3816 2847 3947 
Q 2603 4041 2063 4041 
L 1100 4041 
L 1100 541 
z
" transform="scale(0.015625)"/>
        <path id="ArialMT-79" d="M 397 -1278 
L 334 -750 
Q 519 -800 656 -800 
Q 844 -800 956 -737 
Q 1069 -675 1141 -563 
Q 1194 -478 1313 -144 
Q 1328 -97 1363 -6 
L 103 3319 
L 709 3319 
L 1400 1397 
Q 1534 1031 1641 628 
Q 1738 1016 1872 1384 
L 2581 3319 
L 3144 3319 
L 1881 -56 
Q 1678 -603 1566 -809 
Q 1416 -1088 1222 -1217 
Q 1028 -1347 759 -1347 
Q 597 -1347 397 -1278 
z
" transform="scale(0.015625)"/>
        <path id="ArialMT-2e" d="M 581 0 
L 581 641 
L 1222 641 
L 1222 0 
L 581 0 
z
" transform="scale(0.015625)"/>
        <path id="ArialMT-29" d="M 791 -1347 
L 388 -1347 
Q 1322 153 1322 1656 
Q 1322 2244 1188 2822 
Q 1081 3291 891 3722 
Q 769 4003 388 4659 
L 791 4659 
Q 1378 3875 1659 3084 
Q 1900 2403 1900 1659 
Q 1900 816 1576 28 
Q 1253 -759 791 -1347 
z
" transform="scale(0.015625)"/>
       </defs>
       <use xlink:href="#ArialMT-4c"/>
       <use xlink:href="#ArialMT-69" transform="translate(55.615234 0)"/>
       <use xlink:href="#ArialMT-6e" transform="translate(77.832031 0)"/>
       <use xlink:href="#ArialMT-65" transform="translate(133.447266 0)"/>
       <use xlink:href="#ArialMT-61" transform="translate(189.0625 0)"/>
       <use xlink:href="#ArialMT-72" transform="translate(244.677734 0)"/>
       <use xlink:href="#ArialMT-20" transform="translate(277.978516 0)"/>
       <use xlink:href="#ArialMT-28" transform="translate(305.761719 0)"/>
       <use xlink:href="#ArialMT-44" transform="translate(339.0625 0)"/>
       <use xlink:href="#ArialMT-79" transform="translate(411.279297 0)"/>
       <use xlink:href="#ArialMT-6e" transform="translate(461.279297 0)"/>
       <use xlink:href="#ArialMT-2e" transform="translate(516.894531 0)"/>
       <use xlink:href="#ArialMT-29" transform="translate(544.677734 0)"/>
      </g>
     </g>
    </g>
    <g id="xtick_3">
     <g id="line2d_3">
      <path d="M 158.591174 308.061248 
L 158.591174 17.6256 
" clip-path="url(#p808149ccf5)" style="fill: none; stroke: #cccccc; stroke-width: 0.8; stroke-linecap: round"/>
     </g>
     <g id="text_3">
      <!-- Linear (Prec.) -->
      <g style="fill: #262626" transform="translate(92.289917 388.136784) rotate(-45) scale(0.1496 -0.1496)">
       <defs>
        <path id="ArialMT-50" d="M 494 0 
L 494 4581 
L 2222 4581 
Q 2678 4581 2919 4538 
Q 3256 4481 3484 4323 
Q 3713 4166 3852 3881 
Q 3991 3597 3991 3256 
Q 3991 2672 3619 2267 
Q 3247 1863 2275 1863 
L 1100 1863 
L 1100 0 
L 494 0 
z
M 1100 2403 
L 2284 2403 
Q 2872 2403 3119 2622 
Q 3366 2841 3366 3238 
Q 3366 3525 3220 3729 
Q 3075 3934 2838 4000 
Q 2684 4041 2272 4041 
L 1100 4041 
L 1100 2403 
z
" transform="scale(0.015625)"/>
        <path id="ArialMT-63" d="M 2588 1216 
L 3141 1144 
Q 3050 572 2676 248 
Q 2303 -75 1759 -75 
Q 1078 -75 664 370 
Q 250 816 250 1647 
Q 250 2184 428 2587 
Q 606 2991 970 3192 
Q 1334 3394 1763 3394 
Q 2303 3394 2647 3120 
Q 2991 2847 3088 2344 
L 2541 2259 
Q 2463 2594 2264 2762 
Q 2066 2931 1784 2931 
Q 1359 2931 1093 2626 
Q 828 2322 828 1663 
Q 828 994 1084 691 
Q 1341 388 1753 388 
Q 2084 388 2306 591 
Q 2528 794 2588 1216 
z
" transform="scale(0.015625)"/>
       </defs>
       <use xlink:href="#ArialMT-4c"/>
       <use xlink:href="#ArialMT-69" transform="translate(55.615234 0)"/>
       <use xlink:href="#ArialMT-6e" transform="translate(77.832031 0)"/>
       <use xlink:href="#ArialMT-65" transform="translate(133.447266 0)"/>
       <use xlink:href="#ArialMT-61" transform="translate(189.0625 0)"/>
       <use xlink:href="#ArialMT-72" transform="translate(244.677734 0)"/>
       <use xlink:href="#ArialMT-20" transform="translate(277.978516 0)"/>
       <use xlink:href="#ArialMT-28" transform="translate(305.761719 0)"/>
       <use xlink:href="#ArialMT-50" transform="translate(339.0625 0)"/>
       <use xlink:href="#ArialMT-72" transform="translate(405.761719 0)"/>
       <use xlink:href="#ArialMT-65" transform="translate(439.0625 0)"/>
       <use xlink:href="#ArialMT-63" transform="translate(494.677734 0)"/>
       <use xlink:href="#ArialMT-2e" transform="translate(544.677734 0)"/>
       <use xlink:href="#ArialMT-29" transform="translate(572.460938 0)"/>
      </g>
     </g>
    </g>
    <g id="xtick_4">
     <g id="line2d_4">
      <path d="M 183.923089 308.061248 
L 183.923089 17.6256 
" clip-path="url(#p808149ccf5)" style="fill: none; stroke: #cccccc; stroke-width: 0.8; stroke-linecap: round"/>
     </g>
     <g id="text_4">
      <!-- Linear (Stat.) -->
      <g style="fill: #262626" transform="translate(120.555662 385.202954) rotate(-45) scale(0.1496 -0.1496)">
       <defs>
        <path id="ArialMT-53" d="M 288 1472 
L 859 1522 
Q 900 1178 1048 958 
Q 1197 738 1509 602 
Q 1822 466 2213 466 
Q 2559 466 2825 569 
Q 3091 672 3220 851 
Q 3350 1031 3350 1244 
Q 3350 1459 3225 1620 
Q 3100 1781 2813 1891 
Q 2628 1963 1997 2114 
Q 1366 2266 1113 2400 
Q 784 2572 623 2826 
Q 463 3081 463 3397 
Q 463 3744 659 4045 
Q 856 4347 1234 4503 
Q 1613 4659 2075 4659 
Q 2584 4659 2973 4495 
Q 3363 4331 3572 4012 
Q 3781 3694 3797 3291 
L 3216 3247 
Q 3169 3681 2898 3903 
Q 2628 4125 2100 4125 
Q 1550 4125 1298 3923 
Q 1047 3722 1047 3438 
Q 1047 3191 1225 3031 
Q 1400 2872 2139 2705 
Q 2878 2538 3153 2413 
Q 3553 2228 3743 1945 
Q 3934 1663 3934 1294 
Q 3934 928 3725 604 
Q 3516 281 3123 101 
Q 2731 -78 2241 -78 
Q 1619 -78 1198 103 
Q 778 284 539 648 
Q 300 1013 288 1472 
z
" transform="scale(0.015625)"/>
        <path id="ArialMT-74" d="M 1650 503 
L 1731 6 
Q 1494 -44 1306 -44 
Q 1000 -44 831 53 
Q 663 150 594 308 
Q 525 466 525 972 
L 525 2881 
L 113 2881 
L 113 3319 
L 525 3319 
L 525 4141 
L 1084 4478 
L 1084 3319 
L 1650 3319 
L 1650 2881 
L 1084 2881 
L 1084 941 
Q 1084 700 1114 631 
Q 1144 563 1211 522 
Q 1278 481 1403 481 
Q 1497 481 1650 503 
z
" transform="scale(0.015625)"/>
       </defs>
       <use xlink:href="#ArialMT-4c"/>
       <use xlink:href="#ArialMT-69" transform="translate(55.615234 0)"/>
       <use xlink:href="#ArialMT-6e" transform="translate(77.832031 0)"/>
       <use xlink:href="#ArialMT-65" transform="translate(133.447266 0)"/>
       <use xlink:href="#ArialMT-61" transform="translate(189.0625 0)"/>
       <use xlink:href="#ArialMT-72" transform="translate(244.677734 0)"/>
       <use xlink:href="#ArialMT-20" transform="translate(277.978516 0)"/>
       <use xlink:href="#ArialMT-28" transform="translate(305.761719 0)"/>
       <use xlink:href="#ArialMT-53" transform="translate(339.0625 0)"/>
       <use xlink:href="#ArialMT-74" transform="translate(405.761719 0)"/>
       <use xlink:href="#ArialMT-61" transform="translate(433.544922 0)"/>
       <use xlink:href="#ArialMT-74" transform="translate(489.160156 0)"/>
       <use xlink:href="#ArialMT-2e" transform="translate(516.943359 0)"/>
       <use xlink:href="#ArialMT-29" transform="translate(544.726562 0)"/>
      </g>
     </g>
    </g>
    <g id="xtick_5">
     <g id="line2d_5">
      <path d="M 209.255005 308.061248 
L 209.255005 17.6256 
" clip-path="url(#p808149ccf5)" style="fill: none; stroke: #cccccc; stroke-width: 0.8; stroke-linecap: round"/>
     </g>
     <g id="text_5">
      <!-- Upwind (Dyn.) -->
      <g style="fill: #262626" transform="translate(140.018264 391.072267) rotate(-45) scale(0.1496 -0.1496)">
       <defs>
        <path id="ArialMT-55" d="M 3500 4581 
L 4106 4581 
L 4106 1934 
Q 4106 1244 3950 837 
Q 3794 431 3386 176 
Q 2978 -78 2316 -78 
Q 1672 -78 1262 144 
Q 853 366 678 786 
Q 503 1206 503 1934 
L 503 4581 
L 1109 4581 
L 1109 1938 
Q 1109 1341 1220 1058 
Q 1331 775 1601 622 
Q 1872 469 2263 469 
Q 2931 469 3215 772 
Q 3500 1075 3500 1938 
L 3500 4581 
z
" transform="scale(0.015625)"/>
        <path id="ArialMT-70" d="M 422 -1272 
L 422 3319 
L 934 3319 
L 934 2888 
Q 1116 3141 1344 3267 
Q 1572 3394 1897 3394 
Q 2322 3394 2647 3175 
Q 2972 2956 3137 2557 
Q 3303 2159 3303 1684 
Q 3303 1175 3120 767 
Q 2938 359 2589 142 
Q 2241 -75 1856 -75 
Q 1575 -75 1351 44 
Q 1128 163 984 344 
L 984 -1272 
L 422 -1272 
z
M 931 1641 
Q 931 1000 1190 694 
Q 1450 388 1819 388 
Q 2194 388 2461 705 
Q 2728 1022 2728 1688 
Q 2728 2322 2467 2637 
Q 2206 2953 1844 2953 
Q 1484 2953 1207 2617 
Q 931 2281 931 1641 
z
" transform="scale(0.015625)"/>
        <path id="ArialMT-77" d="M 1034 0 
L 19 3319 
L 600 3319 
L 1128 1403 
L 1325 691 
Q 1338 744 1497 1375 
L 2025 3319 
L 2603 3319 
L 3100 1394 
L 3266 759 
L 3456 1400 
L 4025 3319 
L 4572 3319 
L 3534 0 
L 2950 0 
L 2422 1988 
L 2294 2553 
L 1622 0 
L 1034 0 
z
" transform="scale(0.015625)"/>
       </defs>
       <use xlink:href="#ArialMT-55"/>
       <use xlink:href="#ArialMT-70" transform="translate(72.216797 0)"/>
       <use xlink:href="#ArialMT-77" transform="translate(127.832031 0)"/>
       <use xlink:href="#ArialMT-69" transform="translate(200.048828 0)"/>
       <use xlink:href="#ArialMT-6e" transform="translate(222.265625 0)"/>
       <use xlink:href="#ArialMT-64" transform="translate(277.880859 0)"/>
       <use xlink:href="#ArialMT-20" transform="translate(333.496094 0)"/>
       <use xlink:href="#ArialMT-28" transform="translate(361.279297 0)"/>
       <use xlink:href="#ArialMT-44" transform="translate(394.580078 0)"/>
       <use xlink:href="#ArialMT-79" transform="translate(466.796875 0)"/>
       <use xlink:href="#ArialMT-6e" transform="translate(516.796875 0)"/>
       <use xlink:href="#ArialMT-2e" transform="translate(572.412109 0)"/>
       <use xlink:href="#ArialMT-29" transform="translate(600.195312 0)"/>
      </g>
     </g>
    </g>
    <g id="xtick_6">
     <g id="line2d_6">
      <path d="M 234.58692 308.061248 
L 234.58692 17.6256 
" clip-path="url(#p808149ccf5)" style="fill: none; stroke: #cccccc; stroke-width: 0.8; stroke-linecap: round"/>
     </g>
     <g id="text_6">
      <!-- Upwind (Prec.) -->
      <g style="fill: #262626" transform="translate(162.411391 394.011056) rotate(-45) scale(0.1496 -0.1496)">
       <use xlink:href="#ArialMT-55"/>
       <use xlink:href="#ArialMT-70" transform="translate(72.216797 0)"/>
       <use xlink:href="#ArialMT-77" transform="translate(127.832031 0)"/>
       <use xlink:href="#ArialMT-69" transform="translate(200.048828 0)"/>
       <use xlink:href="#ArialMT-6e" transform="translate(222.265625 0)"/>
       <use xlink:href="#ArialMT-64" transform="translate(277.880859 0)"/>
       <use xlink:href="#ArialMT-20" transform="translate(333.496094 0)"/>
       <use xlink:href="#ArialMT-28" transform="translate(361.279297 0)"/>
       <use xlink:href="#ArialMT-50" transform="translate(394.580078 0)"/>
       <use xlink:href="#ArialMT-72" transform="translate(461.279297 0)"/>
       <use xlink:href="#ArialMT-65" transform="translate(494.580078 0)"/>
       <use xlink:href="#ArialMT-63" transform="translate(550.195312 0)"/>
       <use xlink:href="#ArialMT-2e" transform="translate(600.195312 0)"/>
       <use xlink:href="#ArialMT-29" transform="translate(627.978516 0)"/>
      </g>
     </g>
    </g>
    <g id="xtick_7">
     <g id="line2d_7">
      <path d="M 259.918836 308.061248 
L 259.918836 17.6256 
" clip-path="url(#p808149ccf5)" style="fill: none; stroke: #cccccc; stroke-width: 0.8; stroke-linecap: round"/>
     </g>
     <g id="text_7">
      <!-- Upwind (Stat.) -->
      <g style="fill: #262626" transform="translate(190.677137 391.077226) rotate(-45) scale(0.1496 -0.1496)">
       <use xlink:href="#ArialMT-55"/>
       <use xlink:href="#ArialMT-70" transform="translate(72.216797 0)"/>
       <use xlink:href="#ArialMT-77" transform="translate(127.832031 0)"/>
       <use xlink:href="#ArialMT-69" transform="translate(200.048828 0)"/>
       <use xlink:href="#ArialMT-6e" transform="translate(222.265625 0)"/>
       <use xlink:href="#ArialMT-64" transform="translate(277.880859 0)"/>
       <use xlink:href="#ArialMT-20" transform="translate(333.496094 0)"/>
       <use xlink:href="#ArialMT-28" transform="translate(361.279297 0)"/>
       <use xlink:href="#ArialMT-53" transform="translate(394.580078 0)"/>
       <use xlink:href="#ArialMT-74" transform="translate(461.279297 0)"/>
       <use xlink:href="#ArialMT-61" transform="translate(489.0625 0)"/>
       <use xlink:href="#ArialMT-74" transform="translate(544.677734 0)"/>
       <use xlink:href="#ArialMT-2e" transform="translate(572.460938 0)"/>
       <use xlink:href="#ArialMT-29" transform="translate(600.244141 0)"/>
      </g>
     </g>
    </g>
    <g id="text_8">
     <!-- Cellbased -->
     <g style="fill: #262626" transform="translate(147.635314 411.919011) scale(0.1632 -0.1632)">
      <defs>
       <path id="ArialMT-43" d="M 3763 1606 
L 4369 1453 
Q 4178 706 3683 314 
Q 3188 -78 2472 -78 
Q 1731 -78 1267 223 
Q 803 525 561 1097 
Q 319 1669 319 2325 
Q 319 3041 592 3573 
Q 866 4106 1370 4382 
Q 1875 4659 2481 4659 
Q 3169 4659 3637 4309 
Q 4106 3959 4291 3325 
L 3694 3184 
Q 3534 3684 3231 3912 
Q 2928 4141 2469 4141 
Q 1941 4141 1586 3887 
Q 1231 3634 1087 3207 
Q 944 2781 944 2328 
Q 944 1744 1114 1308 
Q 1284 872 1643 656 
Q 2003 441 2422 441 
Q 2931 441 3284 734 
Q 3638 1028 3763 1606 
z
" transform="scale(0.015625)"/>
       <path id="ArialMT-6c" d="M 409 0 
L 409 4581 
L 972 4581 
L 972 0 
L 409 0 
z
" transform="scale(0.015625)"/>
       <path id="ArialMT-62" d="M 941 0 
L 419 0 
L 419 4581 
L 981 4581 
L 981 2947 
Q 1338 3394 1891 3394 
Q 2197 3394 2470 3270 
Q 2744 3147 2920 2923 
Q 3097 2700 3197 2384 
Q 3297 2069 3297 1709 
Q 3297 856 2875 390 
Q 2453 -75 1863 -75 
Q 1275 -75 941 416 
L 941 0 
z
M 934 1684 
Q 934 1088 1097 822 
Q 1363 388 1816 388 
Q 2184 388 2453 708 
Q 2722 1028 2722 1663 
Q 2722 2313 2464 2622 
Q 2206 2931 1841 2931 
Q 1472 2931 1203 2611 
Q 934 2291 934 1684 
z
" transform="scale(0.015625)"/>
      </defs>
      <use xlink:href="#ArialMT-43"/>
      <use xlink:href="#ArialMT-65" transform="translate(72.216797 0)"/>
      <use xlink:href="#ArialMT-6c" transform="translate(127.832031 0)"/>
      <use xlink:href="#ArialMT-6c" transform="translate(150.048828 0)"/>
      <use xlink:href="#ArialMT-62" transform="translate(172.265625 0)"/>
      <use xlink:href="#ArialMT-61" transform="translate(227.880859 0)"/>
      <use xlink:href="#ArialMT-73" transform="translate(283.496094 0)"/>
      <use xlink:href="#ArialMT-65" transform="translate(333.496094 0)"/>
      <use xlink:href="#ArialMT-64" transform="translate(389.111328 0)"/>
     </g>
    </g>
   </g>
   <g id="matplotlib.axis_2">
    <g id="ytick_1">
     <g id="line2d_8">
      <path d="M 95.261385 49.449146 
L 272.584793 49.449146 
" clip-path="url(#p808149ccf5)" style="fill: none; stroke: #cccccc; stroke-width: 0.8; stroke-linecap: round"/>
     </g>
     <g id="text_9">
      <!-- $\mathdefault{10^{-4}}$ -->
      <g style="fill: #262626" transform="translate(57.340585 57.088096) scale(0.1496 -0.1496)">
       <defs>
        <path id="ArialMT-31" d="M 2384 0 
L 1822 0 
L 1822 3584 
Q 1619 3391 1289 3197 
Q 959 3003 697 2906 
L 697 3450 
Q 1169 3672 1522 3987 
Q 1875 4303 2022 4600 
L 2384 4600 
L 2384 0 
z
" transform="scale(0.015625)"/>
        <path id="ArialMT-30" d="M 266 2259 
Q 266 3072 433 3567 
Q 600 4063 929 4331 
Q 1259 4600 1759 4600 
Q 2128 4600 2406 4451 
Q 2684 4303 2865 4023 
Q 3047 3744 3150 3342 
Q 3253 2941 3253 2259 
Q 3253 1453 3087 958 
Q 2922 463 2592 192 
Q 2263 -78 1759 -78 
Q 1097 -78 719 397 
Q 266 969 266 2259 
z
M 844 2259 
Q 844 1131 1108 757 
Q 1372 384 1759 384 
Q 2147 384 2411 759 
Q 2675 1134 2675 2259 
Q 2675 3391 2411 3762 
Q 2147 4134 1753 4134 
Q 1366 4134 1134 3806 
Q 844 3388 844 2259 
z
" transform="scale(0.015625)"/>
        <path id="ArialMT-2212" d="M 3381 1997 
L 356 1997 
L 356 2522 
L 3381 2522 
L 3381 1997 
z
" transform="scale(0.015625)"/>
        <path id="ArialMT-34" d="M 2069 0 
L 2069 1097 
L 81 1097 
L 81 1613 
L 2172 4581 
L 2631 4581 
L 2631 1613 
L 3250 1613 
L 3250 1097 
L 2631 1097 
L 2631 0 
L 2069 0 
z
M 2069 1613 
L 2069 3678 
L 634 1613 
L 2069 1613 
z
" transform="scale(0.015625)"/>
       </defs>
       <use xlink:href="#ArialMT-31" transform="translate(0 0.201563)"/>
       <use xlink:href="#ArialMT-30" transform="translate(55.615234 0.201563)"/>
       <use xlink:href="#ArialMT-2212" transform="translate(112.972813 69.895313) scale(0.7)"/>
       <use xlink:href="#ArialMT-34" transform="translate(153.851719 69.895313) scale(0.7)"/>
      </g>
     </g>
    </g>
    <g id="ytick_2">
     <g id="line2d_9">
      <path d="M 95.261385 276.413029 
L 272.584793 276.413029 
" clip-path="url(#p808149ccf5)" style="fill: none; stroke: #cccccc; stroke-opacity: 0.25; stroke-width: 0.8; stroke-linecap: round"/>
     </g>
     <g id="text_10">
      <!-- $\mathdefault{2\times10^{-5}}$ -->
      <g style="fill: #262626" transform="translate(36.151785 284.051979) scale(0.1496 -0.1496)">
       <defs>
        <path id="ArialMT-32" d="M 3222 541 
L 3222 0 
L 194 0 
Q 188 203 259 391 
Q 375 700 629 1000 
Q 884 1300 1366 1694 
Q 2113 2306 2375 2664 
Q 2638 3022 2638 3341 
Q 2638 3675 2398 3904 
Q 2159 4134 1775 4134 
Q 1369 4134 1125 3890 
Q 881 3647 878 3216 
L 300 3275 
Q 359 3922 746 4261 
Q 1134 4600 1788 4600 
Q 2447 4600 2831 4234 
Q 3216 3869 3216 3328 
Q 3216 3053 3103 2787 
Q 2991 2522 2730 2228 
Q 2469 1934 1863 1422 
Q 1356 997 1212 845 
Q 1069 694 975 541 
L 3222 541 
z
" transform="scale(0.015625)"/>
        <path id="ArialMT-d7" d="M 503 1278 
L 1488 2263 
L 506 3244 
L 888 3625 
L 1869 2644 
L 2847 3622 
L 3222 3244 
L 2247 2266 
L 3228 1284 
L 2847 903 
L 1866 1884 
L 881 900 
L 503 1278 
z
" transform="scale(0.015625)"/>
        <path id="ArialMT-35" d="M 266 1200 
L 856 1250 
Q 922 819 1161 601 
Q 1400 384 1738 384 
Q 2144 384 2425 690 
Q 2706 997 2706 1503 
Q 2706 1984 2436 2262 
Q 2166 2541 1728 2541 
Q 1456 2541 1237 2417 
Q 1019 2294 894 2097 
L 366 2166 
L 809 4519 
L 3088 4519 
L 3088 3981 
L 1259 3981 
L 1013 2750 
Q 1425 3038 1878 3038 
Q 2478 3038 2890 2622 
Q 3303 2206 3303 1553 
Q 3303 931 2941 478 
Q 2500 -78 1738 -78 
Q 1113 -78 717 272 
Q 322 622 266 1200 
z
" transform="scale(0.015625)"/>
       </defs>
       <use xlink:href="#ArialMT-32" transform="translate(0 0.879688)"/>
       <use xlink:href="#ArialMT-d7" transform="translate(75.097656 0.879688)"/>
       <use xlink:href="#ArialMT-31" transform="translate(152.978516 0.879688)"/>
       <use xlink:href="#ArialMT-30" transform="translate(208.59375 0.879688)"/>
       <use xlink:href="#ArialMT-2212" transform="translate(265.951328 70.573438) scale(0.7)"/>
       <use xlink:href="#ArialMT-35" transform="translate(306.830234 70.573438) scale(0.7)"/>
      </g>
     </g>
    </g>
    <g id="ytick_3">
     <g id="line2d_10">
      <path d="M 95.261385 219.234101 
L 272.584793 219.234101 
" clip-path="url(#p808149ccf5)" style="fill: none; stroke: #cccccc; stroke-opacity: 0.25; stroke-width: 0.8; stroke-linecap: round"/>
     </g>
     <g id="text_11">
      <!-- $\mathdefault{3\times10^{-5}}$ -->
      <g style="fill: #262626" transform="translate(36.151785 226.873051) scale(0.1496 -0.1496)">
       <defs>
        <path id="ArialMT-33" d="M 269 1209 
L 831 1284 
Q 928 806 1161 595 
Q 1394 384 1728 384 
Q 2125 384 2398 659 
Q 2672 934 2672 1341 
Q 2672 1728 2419 1979 
Q 2166 2231 1775 2231 
Q 1616 2231 1378 2169 
L 1441 2663 
Q 1497 2656 1531 2656 
Q 1891 2656 2178 2843 
Q 2466 3031 2466 3422 
Q 2466 3731 2256 3934 
Q 2047 4138 1716 4138 
Q 1388 4138 1169 3931 
Q 950 3725 888 3313 
L 325 3413 
Q 428 3978 793 4289 
Q 1159 4600 1703 4600 
Q 2078 4600 2393 4439 
Q 2709 4278 2876 4000 
Q 3044 3722 3044 3409 
Q 3044 3113 2884 2869 
Q 2725 2625 2413 2481 
Q 2819 2388 3044 2092 
Q 3269 1797 3269 1353 
Q 3269 753 2831 336 
Q 2394 -81 1725 -81 
Q 1122 -81 723 278 
Q 325 638 269 1209 
z
" transform="scale(0.015625)"/>
       </defs>
       <use xlink:href="#ArialMT-33" transform="translate(0 0.879688)"/>
       <use xlink:href="#ArialMT-d7" transform="translate(75.097656 0.879688)"/>
       <use xlink:href="#ArialMT-31" transform="translate(152.978516 0.879688)"/>
       <use xlink:href="#ArialMT-30" transform="translate(208.59375 0.879688)"/>
       <use xlink:href="#ArialMT-2212" transform="translate(265.951328 70.573438) scale(0.7)"/>
       <use xlink:href="#ArialMT-35" transform="translate(306.830234 70.573438) scale(0.7)"/>
      </g>
     </g>
    </g>
    <g id="ytick_4">
     <g id="line2d_11">
      <path d="M 95.261385 178.665005 
L 272.584793 178.665005 
" clip-path="url(#p808149ccf5)" style="fill: none; stroke: #cccccc; stroke-opacity: 0.25; stroke-width: 0.8; stroke-linecap: round"/>
     </g>
     <g id="text_12">
      <!-- $\mathdefault{4\times10^{-5}}$ -->
      <g style="fill: #262626" transform="translate(36.151785 186.303955) scale(0.1496 -0.1496)">
       <use xlink:href="#ArialMT-34" transform="translate(0 0.879688)"/>
       <use xlink:href="#ArialMT-d7" transform="translate(75.097656 0.879688)"/>
       <use xlink:href="#ArialMT-31" transform="translate(152.978516 0.879688)"/>
       <use xlink:href="#ArialMT-30" transform="translate(208.59375 0.879688)"/>
       <use xlink:href="#ArialMT-2212" transform="translate(265.951328 70.573438) scale(0.7)"/>
       <use xlink:href="#ArialMT-35" transform="translate(306.830234 70.573438) scale(0.7)"/>
      </g>
     </g>
    </g>
    <g id="ytick_5">
     <g id="line2d_12">
      <path d="M 95.261385 147.19717 
L 272.584793 147.19717 
" clip-path="url(#p808149ccf5)" style="fill: none; stroke: #cccccc; stroke-opacity: 0.25; stroke-width: 0.8; stroke-linecap: round"/>
     </g>
    </g>
    <g id="ytick_6">
     <g id="line2d_13">
      <path d="M 95.261385 121.486077 
L 272.584793 121.486077 
" clip-path="url(#p808149ccf5)" style="fill: none; stroke: #cccccc; stroke-opacity: 0.25; stroke-width: 0.8; stroke-linecap: round"/>
     </g>
     <g id="text_13">
      <!-- $\mathdefault{6\times10^{-5}}$ -->
      <g style="fill: #262626" transform="translate(36.151785 129.125027) scale(0.1496 -0.1496)">
       <defs>
        <path id="ArialMT-36" d="M 3184 3459 
L 2625 3416 
Q 2550 3747 2413 3897 
Q 2184 4138 1850 4138 
Q 1581 4138 1378 3988 
Q 1113 3794 959 3422 
Q 806 3050 800 2363 
Q 1003 2672 1297 2822 
Q 1591 2972 1913 2972 
Q 2475 2972 2870 2558 
Q 3266 2144 3266 1488 
Q 3266 1056 3080 686 
Q 2894 316 2569 119 
Q 2244 -78 1831 -78 
Q 1128 -78 684 439 
Q 241 956 241 2144 
Q 241 3472 731 4075 
Q 1159 4600 1884 4600 
Q 2425 4600 2770 4297 
Q 3116 3994 3184 3459 
z
M 888 1484 
Q 888 1194 1011 928 
Q 1134 663 1356 523 
Q 1578 384 1822 384 
Q 2178 384 2434 671 
Q 2691 959 2691 1453 
Q 2691 1928 2437 2201 
Q 2184 2475 1800 2475 
Q 1419 2475 1153 2201 
Q 888 1928 888 1484 
z
" transform="scale(0.015625)"/>
       </defs>
       <use xlink:href="#ArialMT-36" transform="translate(0 0.879688)"/>
       <use xlink:href="#ArialMT-d7" transform="translate(75.097656 0.879688)"/>
       <use xlink:href="#ArialMT-31" transform="translate(152.978516 0.879688)"/>
       <use xlink:href="#ArialMT-30" transform="translate(208.59375 0.879688)"/>
       <use xlink:href="#ArialMT-2212" transform="translate(265.951328 70.573438) scale(0.7)"/>
       <use xlink:href="#ArialMT-35" transform="translate(306.830234 70.573438) scale(0.7)"/>
      </g>
     </g>
    </g>
    <g id="ytick_7">
     <g id="line2d_14">
      <path d="M 95.261385 99.747657 
L 272.584793 99.747657 
" clip-path="url(#p808149ccf5)" style="fill: none; stroke: #cccccc; stroke-opacity: 0.25; stroke-width: 0.8; stroke-linecap: round"/>
     </g>
    </g>
    <g id="ytick_8">
     <g id="line2d_15">
      <path d="M 95.261385 80.916981 
L 272.584793 80.916981 
" clip-path="url(#p808149ccf5)" style="fill: none; stroke: #cccccc; stroke-opacity: 0.25; stroke-width: 0.8; stroke-linecap: round"/>
     </g>
    </g>
    <g id="ytick_9">
     <g id="line2d_16">
      <path d="M 95.261385 64.307148 
L 272.584793 64.307148 
" clip-path="url(#p808149ccf5)" style="fill: none; stroke: #cccccc; stroke-opacity: 0.25; stroke-width: 0.8; stroke-linecap: round"/>
     </g>
    </g>
    <g id="text_14">
     <!-- Mean Assembly Time Per Cell [ms] -->
     <g style="fill: #262626" transform="translate(28.716935 289.356574) rotate(-90) scale(0.1632 -0.1632)">
      <defs>
       <path id="ArialMT-4d" d="M 475 0 
L 475 4581 
L 1388 4581 
L 2472 1338 
Q 2622 884 2691 659 
Q 2769 909 2934 1394 
L 4031 4581 
L 4847 4581 
L 4847 0 
L 4263 0 
L 4263 3834 
L 2931 0 
L 2384 0 
L 1059 3900 
L 1059 0 
L 475 0 
z
" transform="scale(0.015625)"/>
       <path id="ArialMT-41" d="M -9 0 
L 1750 4581 
L 2403 4581 
L 4278 0 
L 3588 0 
L 3053 1388 
L 1138 1388 
L 634 0 
L -9 0 
z
M 1313 1881 
L 2866 1881 
L 2388 3150 
Q 2169 3728 2063 4100 
Q 1975 3659 1816 3225 
L 1313 1881 
z
" transform="scale(0.015625)"/>
       <path id="ArialMT-6d" d="M 422 0 
L 422 3319 
L 925 3319 
L 925 2853 
Q 1081 3097 1340 3245 
Q 1600 3394 1931 3394 
Q 2300 3394 2536 3241 
Q 2772 3088 2869 2813 
Q 3263 3394 3894 3394 
Q 4388 3394 4653 3120 
Q 4919 2847 4919 2278 
L 4919 0 
L 4359 0 
L 4359 2091 
Q 4359 2428 4304 2576 
Q 4250 2725 4106 2815 
Q 3963 2906 3769 2906 
Q 3419 2906 3187 2673 
Q 2956 2441 2956 1928 
L 2956 0 
L 2394 0 
L 2394 2156 
Q 2394 2531 2256 2718 
Q 2119 2906 1806 2906 
Q 1569 2906 1367 2781 
Q 1166 2656 1075 2415 
Q 984 2175 984 1722 
L 984 0 
L 422 0 
z
" transform="scale(0.015625)"/>
       <path id="ArialMT-54" d="M 1659 0 
L 1659 4041 
L 150 4041 
L 150 4581 
L 3781 4581 
L 3781 4041 
L 2266 4041 
L 2266 0 
L 1659 0 
z
" transform="scale(0.015625)"/>
       <path id="ArialMT-5b" d="M 434 -1272 
L 434 4581 
L 1675 4581 
L 1675 4116 
L 997 4116 
L 997 -806 
L 1675 -806 
L 1675 -1272 
L 434 -1272 
z
" transform="scale(0.015625)"/>
       <path id="ArialMT-5d" d="M 1363 -1272 
L 122 -1272 
L 122 -806 
L 800 -806 
L 800 4116 
L 122 4116 
L 122 4581 
L 1363 4581 
L 1363 -1272 
z
" transform="scale(0.015625)"/>
      </defs>
      <use xlink:href="#ArialMT-4d"/>
      <use xlink:href="#ArialMT-65" transform="translate(83.300781 0)"/>
      <use xlink:href="#ArialMT-61" transform="translate(138.916016 0)"/>
      <use xlink:href="#ArialMT-6e" transform="translate(194.53125 0)"/>
      <use xlink:href="#ArialMT-20" transform="translate(250.146484 0)"/>
      <use xlink:href="#ArialMT-41" transform="translate(272.429688 0)"/>
      <use xlink:href="#ArialMT-73" transform="translate(339.128906 0)"/>
      <use xlink:href="#ArialMT-73" transform="translate(389.128906 0)"/>
      <use xlink:href="#ArialMT-65" transform="translate(439.128906 0)"/>
      <use xlink:href="#ArialMT-6d" transform="translate(494.744141 0)"/>
      <use xlink:href="#ArialMT-62" transform="translate(578.044922 0)"/>
      <use xlink:href="#ArialMT-6c" transform="translate(633.660156 0)"/>
      <use xlink:href="#ArialMT-79" transform="translate(655.876953 0)"/>
      <use xlink:href="#ArialMT-20" transform="translate(705.876953 0)"/>
      <use xlink:href="#ArialMT-54" transform="translate(731.910156 0)"/>
      <use xlink:href="#ArialMT-69" transform="translate(789.244141 0)"/>
      <use xlink:href="#ArialMT-6d" transform="translate(811.460938 0)"/>
      <use xlink:href="#ArialMT-65" transform="translate(894.761719 0)"/>
      <use xlink:href="#ArialMT-20" transform="translate(950.376953 0)"/>
      <use xlink:href="#ArialMT-50" transform="translate(978.160156 0)"/>
      <use xlink:href="#ArialMT-65" transform="translate(1044.859375 0)"/>
      <use xlink:href="#ArialMT-72" transform="translate(1100.474609 0)"/>
      <use xlink:href="#ArialMT-20" transform="translate(1133.775391 0)"/>
      <use xlink:href="#ArialMT-43" transform="translate(1161.558594 0)"/>
      <use xlink:href="#ArialMT-65" transform="translate(1233.775391 0)"/>
      <use xlink:href="#ArialMT-6c" transform="translate(1289.390625 0)"/>
      <use xlink:href="#ArialMT-6c" transform="translate(1311.607422 0)"/>
      <use xlink:href="#ArialMT-20" transform="translate(1333.824219 0)"/>
      <use xlink:href="#ArialMT-5b" transform="translate(1361.607422 0)"/>
      <use xlink:href="#ArialMT-6d" transform="translate(1389.390625 0)"/>
      <use xlink:href="#ArialMT-73" transform="translate(1472.691406 0)"/>
      <use xlink:href="#ArialMT-5d" transform="translate(1522.691406 0)"/>
     </g>
    </g>
   </g>
   <g id="patch_3">
    <path d="M 173.790323 117.967798 
L 194.055856 117.967798 
L 194.055856 91.548483 
L 173.790323 91.548483 
L 173.790323 117.967798 
z
" clip-path="url(#p808149ccf5)" style="fill: #3274a1; stroke: #3d3d3d; stroke-linejoin: miter"/>
   </g>
   <g id="line2d_17">
    <path d="M 183.923089 117.967798 
L 183.923089 168.529253 
" clip-path="url(#p808149ccf5)" style="fill: none; stroke: #3d3d3d"/>
   </g>
   <g id="line2d_18">
    <path d="M 183.923089 91.548483 
L 183.923089 81.272872 
" clip-path="url(#p808149ccf5)" style="fill: none; stroke: #3d3d3d"/>
   </g>
   <g id="line2d_19">
    <path d="M 178.856706 168.529253 
L 188.989473 168.529253 
" clip-path="url(#p808149ccf5)" style="fill: none; stroke: #3d3d3d; stroke-linecap: round"/>
   </g>
   <g id="line2d_20">
    <path d="M 178.856706 81.272872 
L 188.989473 81.272872 
" clip-path="url(#p808149ccf5)" style="fill: none; stroke: #3d3d3d; stroke-linecap: round"/>
   </g>
   <g id="patch_4">
    <path d="M 249.78607 119.985606 
L 270.051602 119.985606 
L 270.051602 89.796132 
L 249.78607 89.796132 
L 249.78607 119.985606 
z
" clip-path="url(#p808149ccf5)" style="fill: #3274a1; stroke: #3d3d3d; stroke-linejoin: miter"/>
   </g>
   <g id="line2d_21">
    <path d="M 259.918836 119.985606 
L 259.918836 174.011549 
" clip-path="url(#p808149ccf5)" style="fill: none; stroke: #3d3d3d"/>
   </g>
   <g id="line2d_22">
    <path d="M 259.918836 89.796132 
L 259.918836 67.08472 
" clip-path="url(#p808149ccf5)" style="fill: none; stroke: #3d3d3d"/>
   </g>
   <g id="line2d_23">
    <path d="M 254.852453 174.011549 
L 264.985219 174.011549 
" clip-path="url(#p808149ccf5)" style="fill: none; stroke: #3d3d3d; stroke-linecap: round"/>
   </g>
   <g id="line2d_24">
    <path d="M 254.852453 67.08472 
L 264.985219 67.08472 
" clip-path="url(#p808149ccf5)" style="fill: none; stroke: #3d3d3d; stroke-linecap: round"/>
   </g>
   <g id="patch_5">
    <path d="M 123.126492 118.241491 
L 143.392025 118.241491 
L 143.392025 81.055141 
L 123.126492 81.055141 
L 123.126492 118.241491 
z
" clip-path="url(#p808149ccf5)" style="fill: #e1812c; stroke: #3d3d3d; stroke-linejoin: miter"/>
   </g>
   <g id="line2d_25">
    <path d="M 133.259259 118.241491 
L 133.259259 170.851743 
" clip-path="url(#p808149ccf5)" style="fill: none; stroke: #3d3d3d"/>
   </g>
   <g id="line2d_26">
    <path d="M 133.259259 81.055141 
L 133.259259 44.02582 
" clip-path="url(#p808149ccf5)" style="fill: none; stroke: #3d3d3d"/>
   </g>
   <g id="line2d_27">
    <path d="M 128.192876 170.851743 
L 138.325642 170.851743 
" clip-path="url(#p808149ccf5)" style="fill: none; stroke: #3d3d3d; stroke-linecap: round"/>
   </g>
   <g id="line2d_28">
    <path d="M 128.192876 44.02582 
L 138.325642 44.02582 
" clip-path="url(#p808149ccf5)" style="fill: none; stroke: #3d3d3d; stroke-linecap: round"/>
   </g>
   <g id="patch_6">
    <path d="M 199.122239 118.991786 
L 219.387771 118.991786 
L 219.387771 80.307797 
L 199.122239 80.307797 
L 199.122239 118.991786 
z
" clip-path="url(#p808149ccf5)" style="fill: #e1812c; stroke: #3d3d3d; stroke-linejoin: miter"/>
   </g>
   <g id="line2d_29">
    <path d="M 209.255005 118.991786 
L 209.255005 171.755789 
" clip-path="url(#p808149ccf5)" style="fill: none; stroke: #3d3d3d"/>
   </g>
   <g id="line2d_30">
    <path d="M 209.255005 80.307797 
L 209.255005 51.823761 
" clip-path="url(#p808149ccf5)" style="fill: none; stroke: #3d3d3d"/>
   </g>
   <g id="line2d_31">
    <path d="M 204.188622 171.755789 
L 214.321388 171.755789 
" clip-path="url(#p808149ccf5)" style="fill: none; stroke: #3d3d3d; stroke-linecap: round"/>
   </g>
   <g id="line2d_32">
    <path d="M 204.188622 51.823761 
L 214.321388 51.823761 
" clip-path="url(#p808149ccf5)" style="fill: none; stroke: #3d3d3d; stroke-linecap: round"/>
   </g>
   <g id="patch_7">
    <path d="M 148.458408 108.820209 
L 168.72394 108.820209 
L 168.72394 72.428916 
L 148.458408 72.428916 
L 148.458408 108.820209 
z
" clip-path="url(#p808149ccf5)" style="fill: #3a923a; stroke: #3d3d3d; stroke-linejoin: miter"/>
   </g>
   <g id="line2d_33">
    <path d="M 158.591174 108.820209 
L 158.591174 161.416935 
" clip-path="url(#p808149ccf5)" style="fill: none; stroke: #3d3d3d"/>
   </g>
   <g id="line2d_34">
    <path d="M 158.591174 72.428916 
L 158.591174 32.508467 
" clip-path="url(#p808149ccf5)" style="fill: none; stroke: #3d3d3d"/>
   </g>
   <g id="line2d_35">
    <path d="M 153.524791 161.416935 
L 163.657557 161.416935 
" clip-path="url(#p808149ccf5)" style="fill: none; stroke: #3d3d3d; stroke-linecap: round"/>
   </g>
   <g id="line2d_36">
    <path d="M 153.524791 32.508467 
L 163.657557 32.508467 
" clip-path="url(#p808149ccf5)" style="fill: none; stroke: #3d3d3d; stroke-linecap: round"/>
   </g>
   <g id="patch_8">
    <path d="M 224.454154 109.321637 
L 244.719687 109.321637 
L 244.719687 63.491838 
L 224.454154 63.491838 
L 224.454154 109.321637 
z
" clip-path="url(#p808149ccf5)" style="fill: #3a923a; stroke: #3d3d3d; stroke-linejoin: miter"/>
   </g>
   <g id="line2d_37">
    <path d="M 234.58692 109.321637 
L 234.58692 162.160455 
" clip-path="url(#p808149ccf5)" style="fill: none; stroke: #3d3d3d"/>
   </g>
   <g id="line2d_38">
    <path d="M 234.58692 63.491838 
L 234.58692 30.82722 
" clip-path="url(#p808149ccf5)" style="fill: none; stroke: #3d3d3d"/>
   </g>
   <g id="line2d_39">
    <path d="M 229.520537 162.160455 
L 239.653303 162.160455 
" clip-path="url(#p808149ccf5)" style="fill: none; stroke: #3d3d3d; stroke-linecap: round"/>
   </g>
   <g id="line2d_40">
    <path d="M 229.520537 30.82722 
L 239.653303 30.82722 
" clip-path="url(#p808149ccf5)" style="fill: none; stroke: #3d3d3d; stroke-linecap: round"/>
   </g>
   <g id="patch_9">
    <path d="M 97.794577 108.398628 
L 118.060109 108.398628 
L 118.060109 69.644488 
L 97.794577 69.644488 
L 97.794577 108.398628 
z
" clip-path="url(#p808149ccf5)" style="fill: #c03d3e; stroke: #3d3d3d; stroke-linejoin: miter"/>
   </g>
   <g id="line2d_41">
    <path d="M 107.927343 108.398628 
L 107.927343 166.340404 
" clip-path="url(#p808149ccf5)" style="fill: none; stroke: #3d3d3d"/>
   </g>
   <g id="line2d_42">
    <path d="M 107.927343 69.644488 
L 107.927343 31.316819 
" clip-path="url(#p808149ccf5)" style="fill: none; stroke: #3d3d3d"/>
   </g>
   <g id="line2d_43">
    <path d="M 102.86096 166.340404 
L 112.993726 166.340404 
" clip-path="url(#p808149ccf5)" style="fill: none; stroke: #3d3d3d; stroke-linecap: round"/>
   </g>
   <g id="line2d_44">
    <path d="M 102.86096 31.316819 
L 112.993726 31.316819 
" clip-path="url(#p808149ccf5)" style="fill: none; stroke: #3d3d3d; stroke-linecap: round"/>
   </g>
   <g id="line2d_45">
    <path d="M 173.790323 99.097362 
L 194.055856 99.097362 
" clip-path="url(#p808149ccf5)" style="fill: none; stroke: #3d3d3d"/>
   </g>
   <g id="line2d_46">
    <path d="M 249.78607 102.612872 
L 270.051602 102.612872 
" clip-path="url(#p808149ccf5)" style="fill: none; stroke: #3d3d3d"/>
   </g>
   <g id="line2d_47">
    <path d="M 123.126492 100.383056 
L 143.392025 100.383056 
" clip-path="url(#p808149ccf5)" style="fill: none; stroke: #3d3d3d"/>
   </g>
   <g id="line2d_48">
    <path d="M 199.122239 101.295013 
L 219.387771 101.295013 
" clip-path="url(#p808149ccf5)" style="fill: none; stroke: #3d3d3d"/>
   </g>
   <g id="line2d_49">
    <path d="M 148.458408 91.319875 
L 168.72394 91.319875 
" clip-path="url(#p808149ccf5)" style="fill: none; stroke: #3d3d3d"/>
   </g>
   <g id="line2d_50">
    <path d="M 224.454154 91.517532 
L 244.719687 91.517532 
" clip-path="url(#p808149ccf5)" style="fill: none; stroke: #3d3d3d"/>
   </g>
   <g id="line2d_51">
    <path d="M 97.794577 89.353774 
L 118.060109 89.353774 
" clip-path="url(#p808149ccf5)" style="fill: none; stroke: #3d3d3d"/>
   </g>
   <g id="patch_10">
    <path d="M 95.261385 308.061248 
L 95.261385 17.6256 
" style="fill: none; stroke: #cccccc; stroke-linejoin: miter; stroke-linecap: square"/>
   </g>
   <g id="patch_11">
    <path d="M 272.584793 308.061248 
L 272.584793 17.6256 
" style="fill: none; stroke: #cccccc; stroke-linejoin: miter; stroke-linecap: square"/>
   </g>
   <g id="patch_12">
    <path d="M 95.261385 308.061248 
L 272.584793 308.061248 
" style="fill: none; stroke: #cccccc; stroke-linejoin: miter; stroke-linecap: square"/>
   </g>
   <g id="patch_13">
    <path d="M 95.261385 17.6256 
L 272.584793 17.6256 
" style="fill: none; stroke: #cccccc; stroke-linejoin: miter; stroke-linecap: square"/>
   </g>
  </g>
  <g id="axes_2">
   <g id="patch_14">
    <path d="M 328.156189 308.061248 
L 505.479597 308.061248 
L 505.479597 17.6256 
L 328.156189 17.6256 
z
" style="fill: #ffffff"/>
   </g>
   <g id="matplotlib.axis_3">
    <g id="xtick_8">
     <g id="line2d_52">
      <path d="M 340.822146 308.061248 
L 340.822146 17.6256 
" clip-path="url(#p43ef6de038)" style="fill: none; stroke: #cccccc; stroke-width: 0.8; stroke-linecap: round"/>
     </g>
     <g id="text_15">
      <!-- Fused -->
      <g style="fill: #262626" transform="translate(309.321901 353.330814) rotate(-45) scale(0.1496 -0.1496)">
       <use xlink:href="#ArialMT-46"/>
       <use xlink:href="#ArialMT-75" transform="translate(61.083984 0)"/>
       <use xlink:href="#ArialMT-73" transform="translate(116.699219 0)"/>
       <use xlink:href="#ArialMT-65" transform="translate(166.699219 0)"/>
       <use xlink:href="#ArialMT-64" transform="translate(222.314453 0)"/>
      </g>
     </g>
    </g>
    <g id="xtick_9">
     <g id="line2d_53">
      <path d="M 366.154062 308.061248 
L 366.154062 17.6256 
" clip-path="url(#p43ef6de038)" style="fill: none; stroke: #cccccc; stroke-width: 0.8; stroke-linecap: round"/>
     </g>
     <g id="text_16">
      <!-- Linear (Dyn.) -->
      <g style="fill: #262626" transform="translate(302.791593 385.197995) rotate(-45) scale(0.1496 -0.1496)">
       <use xlink:href="#ArialMT-4c"/>
       <use xlink:href="#ArialMT-69" transform="translate(55.615234 0)"/>
       <use xlink:href="#ArialMT-6e" transform="translate(77.832031 0)"/>
       <use xlink:href="#ArialMT-65" transform="translate(133.447266 0)"/>
       <use xlink:href="#ArialMT-61" transform="translate(189.0625 0)"/>
       <use xlink:href="#ArialMT-72" transform="translate(244.677734 0)"/>
       <use xlink:href="#ArialMT-20" transform="translate(277.978516 0)"/>
       <use xlink:href="#ArialMT-28" transform="translate(305.761719 0)"/>
       <use xlink:href="#ArialMT-44" transform="translate(339.0625 0)"/>
       <use xlink:href="#ArialMT-79" transform="translate(411.279297 0)"/>
       <use xlink:href="#ArialMT-6e" transform="translate(461.279297 0)"/>
       <use xlink:href="#ArialMT-2e" transform="translate(516.894531 0)"/>
       <use xlink:href="#ArialMT-29" transform="translate(544.677734 0)"/>
      </g>
     </g>
    </g>
    <g id="xtick_10">
     <g id="line2d_54">
      <path d="M 391.485977 308.061248 
L 391.485977 17.6256 
" clip-path="url(#p43ef6de038)" style="fill: none; stroke: #cccccc; stroke-width: 0.8; stroke-linecap: round"/>
     </g>
     <g id="text_17">
      <!-- Linear (Prec.) -->
      <g style="fill: #262626" transform="translate(325.18472 388.136784) rotate(-45) scale(0.1496 -0.1496)">
       <use xlink:href="#ArialMT-4c"/>
       <use xlink:href="#ArialMT-69" transform="translate(55.615234 0)"/>
       <use xlink:href="#ArialMT-6e" transform="translate(77.832031 0)"/>
       <use xlink:href="#ArialMT-65" transform="translate(133.447266 0)"/>
       <use xlink:href="#ArialMT-61" transform="translate(189.0625 0)"/>
       <use xlink:href="#ArialMT-72" transform="translate(244.677734 0)"/>
       <use xlink:href="#ArialMT-20" transform="translate(277.978516 0)"/>
       <use xlink:href="#ArialMT-28" transform="translate(305.761719 0)"/>
       <use xlink:href="#ArialMT-50" transform="translate(339.0625 0)"/>
       <use xlink:href="#ArialMT-72" transform="translate(405.761719 0)"/>
       <use xlink:href="#ArialMT-65" transform="translate(439.0625 0)"/>
       <use xlink:href="#ArialMT-63" transform="translate(494.677734 0)"/>
       <use xlink:href="#ArialMT-2e" transform="translate(544.677734 0)"/>
       <use xlink:href="#ArialMT-29" transform="translate(572.460938 0)"/>
      </g>
     </g>
    </g>
    <g id="xtick_11">
     <g id="line2d_55">
      <path d="M 416.817893 308.061248 
L 416.817893 17.6256 
" clip-path="url(#p43ef6de038)" style="fill: none; stroke: #cccccc; stroke-width: 0.8; stroke-linecap: round"/>
     </g>
     <g id="text_18">
      <!-- Linear (Stat.) -->
      <g style="fill: #262626" transform="translate(353.450466 385.202954) rotate(-45) scale(0.1496 -0.1496)">
       <use xlink:href="#ArialMT-4c"/>
       <use xlink:href="#ArialMT-69" transform="translate(55.615234 0)"/>
       <use xlink:href="#ArialMT-6e" transform="translate(77.832031 0)"/>
       <use xlink:href="#ArialMT-65" transform="translate(133.447266 0)"/>
       <use xlink:href="#ArialMT-61" transform="translate(189.0625 0)"/>
       <use xlink:href="#ArialMT-72" transform="translate(244.677734 0)"/>
       <use xlink:href="#ArialMT-20" transform="translate(277.978516 0)"/>
       <use xlink:href="#ArialMT-28" transform="translate(305.761719 0)"/>
       <use xlink:href="#ArialMT-53" transform="translate(339.0625 0)"/>
       <use xlink:href="#ArialMT-74" transform="translate(405.761719 0)"/>
       <use xlink:href="#ArialMT-61" transform="translate(433.544922 0)"/>
       <use xlink:href="#ArialMT-74" transform="translate(489.160156 0)"/>
       <use xlink:href="#ArialMT-2e" transform="translate(516.943359 0)"/>
       <use xlink:href="#ArialMT-29" transform="translate(544.726562 0)"/>
      </g>
     </g>
    </g>
    <g id="xtick_12">
     <g id="line2d_56">
      <path d="M 442.149808 308.061248 
L 442.149808 17.6256 
" clip-path="url(#p43ef6de038)" style="fill: none; stroke: #cccccc; stroke-width: 0.8; stroke-linecap: round"/>
     </g>
     <g id="text_19">
      <!-- Upwind (Dyn.) -->
      <g style="fill: #262626" transform="translate(372.913068 391.072267) rotate(-45) scale(0.1496 -0.1496)">
       <use xlink:href="#ArialMT-55"/>
       <use xlink:href="#ArialMT-70" transform="translate(72.216797 0)"/>
       <use xlink:href="#ArialMT-77" transform="translate(127.832031 0)"/>
       <use xlink:href="#ArialMT-69" transform="translate(200.048828 0)"/>
       <use xlink:href="#ArialMT-6e" transform="translate(222.265625 0)"/>
       <use xlink:href="#ArialMT-64" transform="translate(277.880859 0)"/>
       <use xlink:href="#ArialMT-20" transform="translate(333.496094 0)"/>
       <use xlink:href="#ArialMT-28" transform="translate(361.279297 0)"/>
       <use xlink:href="#ArialMT-44" transform="translate(394.580078 0)"/>
       <use xlink:href="#ArialMT-79" transform="translate(466.796875 0)"/>
       <use xlink:href="#ArialMT-6e" transform="translate(516.796875 0)"/>
       <use xlink:href="#ArialMT-2e" transform="translate(572.412109 0)"/>
       <use xlink:href="#ArialMT-29" transform="translate(600.195312 0)"/>
      </g>
     </g>
    </g>
    <g id="xtick_13">
     <g id="line2d_57">
      <path d="M 467.481724 308.061248 
L 467.481724 17.6256 
" clip-path="url(#p43ef6de038)" style="fill: none; stroke: #cccccc; stroke-width: 0.8; stroke-linecap: round"/>
     </g>
     <g id="text_20">
      <!-- Upwind (Prec.) -->
      <g style="fill: #262626" transform="translate(395.306194 394.011056) rotate(-45) scale(0.1496 -0.1496)">
       <use xlink:href="#ArialMT-55"/>
       <use xlink:href="#ArialMT-70" transform="translate(72.216797 0)"/>
       <use xlink:href="#ArialMT-77" transform="translate(127.832031 0)"/>
       <use xlink:href="#ArialMT-69" transform="translate(200.048828 0)"/>
       <use xlink:href="#ArialMT-6e" transform="translate(222.265625 0)"/>
       <use xlink:href="#ArialMT-64" transform="translate(277.880859 0)"/>
       <use xlink:href="#ArialMT-20" transform="translate(333.496094 0)"/>
       <use xlink:href="#ArialMT-28" transform="translate(361.279297 0)"/>
       <use xlink:href="#ArialMT-50" transform="translate(394.580078 0)"/>
       <use xlink:href="#ArialMT-72" transform="translate(461.279297 0)"/>
       <use xlink:href="#ArialMT-65" transform="translate(494.580078 0)"/>
       <use xlink:href="#ArialMT-63" transform="translate(550.195312 0)"/>
       <use xlink:href="#ArialMT-2e" transform="translate(600.195312 0)"/>
       <use xlink:href="#ArialMT-29" transform="translate(627.978516 0)"/>
      </g>
     </g>
    </g>
    <g id="xtick_14">
     <g id="line2d_58">
      <path d="M 492.813639 308.061248 
L 492.813639 17.6256 
" clip-path="url(#p43ef6de038)" style="fill: none; stroke: #cccccc; stroke-width: 0.8; stroke-linecap: round"/>
     </g>
     <g id="text_21">
      <!-- Upwind (Stat.) -->
      <g style="fill: #262626" transform="translate(423.57194 391.077226) rotate(-45) scale(0.1496 -0.1496)">
       <use xlink:href="#ArialMT-55"/>
       <use xlink:href="#ArialMT-70" transform="translate(72.216797 0)"/>
       <use xlink:href="#ArialMT-77" transform="translate(127.832031 0)"/>
       <use xlink:href="#ArialMT-69" transform="translate(200.048828 0)"/>
       <use xlink:href="#ArialMT-6e" transform="translate(222.265625 0)"/>
       <use xlink:href="#ArialMT-64" transform="translate(277.880859 0)"/>
       <use xlink:href="#ArialMT-20" transform="translate(333.496094 0)"/>
       <use xlink:href="#ArialMT-28" transform="translate(361.279297 0)"/>
       <use xlink:href="#ArialMT-53" transform="translate(394.580078 0)"/>
       <use xlink:href="#ArialMT-74" transform="translate(461.279297 0)"/>
       <use xlink:href="#ArialMT-61" transform="translate(489.0625 0)"/>
       <use xlink:href="#ArialMT-74" transform="translate(544.677734 0)"/>
       <use xlink:href="#ArialMT-2e" transform="translate(572.460938 0)"/>
       <use xlink:href="#ArialMT-29" transform="translate(600.244141 0)"/>
      </g>
     </g>
    </g>
    <g id="text_22">
     <!-- Facebased -->
     <g style="fill: #262626" transform="translate(376.447568 411.919011) scale(0.1632 -0.1632)">
      <use xlink:href="#ArialMT-46"/>
      <use xlink:href="#ArialMT-61" transform="translate(61.083984 0)"/>
      <use xlink:href="#ArialMT-63" transform="translate(116.699219 0)"/>
      <use xlink:href="#ArialMT-65" transform="translate(166.699219 0)"/>
      <use xlink:href="#ArialMT-62" transform="translate(222.314453 0)"/>
      <use xlink:href="#ArialMT-61" transform="translate(277.929688 0)"/>
      <use xlink:href="#ArialMT-73" transform="translate(333.544922 0)"/>
      <use xlink:href="#ArialMT-65" transform="translate(383.544922 0)"/>
      <use xlink:href="#ArialMT-64" transform="translate(439.160156 0)"/>
     </g>
    </g>
   </g>
   <g id="matplotlib.axis_4">
    <g id="ytick_10">
     <g id="line2d_59">
      <path d="M 328.156189 49.449146 
L 505.479597 49.449146 
" clip-path="url(#p43ef6de038)" style="fill: none; stroke: #cccccc; stroke-width: 0.8; stroke-linecap: round"/>
     </g>
     <g id="text_23">
      <!-- $\mathdefault{10^{-4}}$ -->
      <g style="fill: #262626" transform="translate(290.235389 57.088096) scale(0.1496 -0.1496)">
       <use xlink:href="#ArialMT-31" transform="translate(0 0.201563)"/>
       <use xlink:href="#ArialMT-30" transform="translate(55.615234 0.201563)"/>
       <use xlink:href="#ArialMT-2212" transform="translate(112.972813 69.895313) scale(0.7)"/>
       <use xlink:href="#ArialMT-34" transform="translate(153.851719 69.895313) scale(0.7)"/>
      </g>
     </g>
    </g>
    <g id="ytick_11">
     <g id="line2d_60">
      <path d="M 328.156189 276.413029 
L 505.479597 276.413029 
" clip-path="url(#p43ef6de038)" style="fill: none; stroke: #cccccc; stroke-opacity: 0.25; stroke-width: 0.8; stroke-linecap: round"/>
     </g>
    </g>
    <g id="ytick_12">
     <g id="line2d_61">
      <path d="M 328.156189 219.234101 
L 505.479597 219.234101 
" clip-path="url(#p43ef6de038)" style="fill: none; stroke: #cccccc; stroke-opacity: 0.25; stroke-width: 0.8; stroke-linecap: round"/>
     </g>
    </g>
    <g id="ytick_13">
     <g id="line2d_62">
      <path d="M 328.156189 178.665005 
L 505.479597 178.665005 
" clip-path="url(#p43ef6de038)" style="fill: none; stroke: #cccccc; stroke-opacity: 0.25; stroke-width: 0.8; stroke-linecap: round"/>
     </g>
    </g>
    <g id="ytick_14">
     <g id="line2d_63">
      <path d="M 328.156189 147.19717 
L 505.479597 147.19717 
" clip-path="url(#p43ef6de038)" style="fill: none; stroke: #cccccc; stroke-opacity: 0.25; stroke-width: 0.8; stroke-linecap: round"/>
     </g>
    </g>
    <g id="ytick_15">
     <g id="line2d_64">
      <path d="M 328.156189 121.486077 
L 505.479597 121.486077 
" clip-path="url(#p43ef6de038)" style="fill: none; stroke: #cccccc; stroke-opacity: 0.25; stroke-width: 0.8; stroke-linecap: round"/>
     </g>
    </g>
    <g id="ytick_16">
     <g id="line2d_65">
      <path d="M 328.156189 99.747657 
L 505.479597 99.747657 
" clip-path="url(#p43ef6de038)" style="fill: none; stroke: #cccccc; stroke-opacity: 0.25; stroke-width: 0.8; stroke-linecap: round"/>
     </g>
    </g>
    <g id="ytick_17">
     <g id="line2d_66">
      <path d="M 328.156189 80.916981 
L 505.479597 80.916981 
" clip-path="url(#p43ef6de038)" style="fill: none; stroke: #cccccc; stroke-opacity: 0.25; stroke-width: 0.8; stroke-linecap: round"/>
     </g>
    </g>
    <g id="ytick_18">
     <g id="line2d_67">
      <path d="M 328.156189 64.307148 
L 505.479597 64.307148 
" clip-path="url(#p43ef6de038)" style="fill: none; stroke: #cccccc; stroke-opacity: 0.25; stroke-width: 0.8; stroke-linecap: round"/>
     </g>
    </g>
   </g>
   <g id="patch_15">
    <path d="M 406.685127 255.704234 
L 426.950659 255.704234 
L 426.950659 225.460637 
L 406.685127 225.460637 
L 406.685127 255.704234 
z
" clip-path="url(#p43ef6de038)" style="fill: #3274a1; stroke: #3d3d3d; stroke-linejoin: miter"/>
   </g>
   <g id="line2d_68">
    <path d="M 416.817893 255.704234 
L 416.817893 294.704333 
" clip-path="url(#p43ef6de038)" style="fill: none; stroke: #3d3d3d"/>
   </g>
   <g id="line2d_69">
    <path d="M 416.817893 225.460637 
L 416.817893 193.231047 
" clip-path="url(#p43ef6de038)" style="fill: none; stroke: #3d3d3d"/>
   </g>
   <g id="line2d_70">
    <path d="M 411.75151 294.704333 
L 421.884276 294.704333 
" clip-path="url(#p43ef6de038)" style="fill: none; stroke: #3d3d3d; stroke-linecap: round"/>
   </g>
   <g id="line2d_71">
    <path d="M 411.75151 193.231047 
L 421.884276 193.231047 
" clip-path="url(#p43ef6de038)" style="fill: none; stroke: #3d3d3d; stroke-linecap: round"/>
   </g>
   <g id="patch_16">
    <path d="M 482.680873 254.917846 
L 502.946405 254.917846 
L 502.946405 225.716281 
L 482.680873 225.716281 
L 482.680873 254.917846 
z
" clip-path="url(#p43ef6de038)" style="fill: #3274a1; stroke: #3d3d3d; stroke-linejoin: miter"/>
   </g>
   <g id="line2d_72">
    <path d="M 492.813639 254.917846 
L 492.813639 293.063281 
" clip-path="url(#p43ef6de038)" style="fill: none; stroke: #3d3d3d"/>
   </g>
   <g id="line2d_73">
    <path d="M 492.813639 225.716281 
L 492.813639 214.825031 
" clip-path="url(#p43ef6de038)" style="fill: none; stroke: #3d3d3d"/>
   </g>
   <g id="line2d_74">
    <path d="M 487.747256 293.063281 
L 497.880022 293.063281 
" clip-path="url(#p43ef6de038)" style="fill: none; stroke: #3d3d3d; stroke-linecap: round"/>
   </g>
   <g id="line2d_75">
    <path d="M 487.747256 214.825031 
L 497.880022 214.825031 
" clip-path="url(#p43ef6de038)" style="fill: none; stroke: #3d3d3d; stroke-linecap: round"/>
   </g>
   <g id="patch_17">
    <path d="M 356.021296 255.174129 
L 376.286828 255.174129 
L 376.286828 226.049776 
L 356.021296 226.049776 
L 356.021296 255.174129 
z
" clip-path="url(#p43ef6de038)" style="fill: #e1812c; stroke: #3d3d3d; stroke-linejoin: miter"/>
   </g>
   <g id="line2d_76">
    <path d="M 366.154062 255.174129 
L 366.154062 294.859627 
" clip-path="url(#p43ef6de038)" style="fill: none; stroke: #3d3d3d"/>
   </g>
   <g id="line2d_77">
    <path d="M 366.154062 226.049776 
L 366.154062 209.545751 
" clip-path="url(#p43ef6de038)" style="fill: none; stroke: #3d3d3d"/>
   </g>
   <g id="line2d_78">
    <path d="M 361.087679 294.859627 
L 371.220445 294.859627 
" clip-path="url(#p43ef6de038)" style="fill: none; stroke: #3d3d3d; stroke-linecap: round"/>
   </g>
   <g id="line2d_79">
    <path d="M 361.087679 209.545751 
L 371.220445 209.545751 
" clip-path="url(#p43ef6de038)" style="fill: none; stroke: #3d3d3d; stroke-linecap: round"/>
   </g>
   <g id="patch_18">
    <path d="M 432.017042 255.387904 
L 452.282574 255.387904 
L 452.282574 225.584905 
L 432.017042 225.584905 
L 432.017042 255.387904 
z
" clip-path="url(#p43ef6de038)" style="fill: #e1812c; stroke: #3d3d3d; stroke-linejoin: miter"/>
   </g>
   <g id="line2d_80">
    <path d="M 442.149808 255.387904 
L 442.149808 293.336713 
" clip-path="url(#p43ef6de038)" style="fill: none; stroke: #3d3d3d"/>
   </g>
   <g id="line2d_81">
    <path d="M 442.149808 225.584905 
L 442.149808 195.701984 
" clip-path="url(#p43ef6de038)" style="fill: none; stroke: #3d3d3d"/>
   </g>
   <g id="line2d_82">
    <path d="M 437.083425 293.336713 
L 447.216191 293.336713 
" clip-path="url(#p43ef6de038)" style="fill: none; stroke: #3d3d3d; stroke-linecap: round"/>
   </g>
   <g id="line2d_83">
    <path d="M 437.083425 195.701984 
L 447.216191 195.701984 
" clip-path="url(#p43ef6de038)" style="fill: none; stroke: #3d3d3d; stroke-linecap: round"/>
   </g>
   <g id="patch_19">
    <path d="M 381.353211 243.250082 
L 401.618743 243.250082 
L 401.618743 214.545703 
L 381.353211 214.545703 
L 381.353211 243.250082 
z
" clip-path="url(#p43ef6de038)" style="fill: #3a923a; stroke: #3d3d3d; stroke-linejoin: miter"/>
   </g>
   <g id="line2d_84">
    <path d="M 391.485977 243.250082 
L 391.485977 284.90811 
" clip-path="url(#p43ef6de038)" style="fill: none; stroke: #3d3d3d"/>
   </g>
   <g id="line2d_85">
    <path d="M 391.485977 214.545703 
L 391.485977 197.913479 
" clip-path="url(#p43ef6de038)" style="fill: none; stroke: #3d3d3d"/>
   </g>
   <g id="line2d_86">
    <path d="M 386.419594 284.90811 
L 396.55236 284.90811 
" clip-path="url(#p43ef6de038)" style="fill: none; stroke: #3d3d3d; stroke-linecap: round"/>
   </g>
   <g id="line2d_87">
    <path d="M 386.419594 197.913479 
L 396.55236 197.913479 
" clip-path="url(#p43ef6de038)" style="fill: none; stroke: #3d3d3d; stroke-linecap: round"/>
   </g>
   <g id="patch_20">
    <path d="M 457.348957 243.410469 
L 477.61449 243.410469 
L 477.61449 215.583215 
L 457.348957 215.583215 
L 457.348957 243.410469 
z
" clip-path="url(#p43ef6de038)" style="fill: #3a923a; stroke: #3d3d3d; stroke-linejoin: miter"/>
   </g>
   <g id="line2d_88">
    <path d="M 467.481724 243.410469 
L 467.481724 284.21067 
" clip-path="url(#p43ef6de038)" style="fill: none; stroke: #3d3d3d"/>
   </g>
   <g id="line2d_89">
    <path d="M 467.481724 215.583215 
L 467.481724 209.696369 
" clip-path="url(#p43ef6de038)" style="fill: none; stroke: #3d3d3d"/>
   </g>
   <g id="line2d_90">
    <path d="M 462.415341 284.21067 
L 472.548107 284.21067 
" clip-path="url(#p43ef6de038)" style="fill: none; stroke: #3d3d3d; stroke-linecap: round"/>
   </g>
   <g id="line2d_91">
    <path d="M 462.415341 209.696369 
L 472.548107 209.696369 
" clip-path="url(#p43ef6de038)" style="fill: none; stroke: #3d3d3d; stroke-linecap: round"/>
   </g>
   <g id="patch_21">
    <path d="M 330.68938 255.049503 
L 350.954913 255.049503 
L 350.954913 226.326042 
L 330.68938 226.326042 
L 330.68938 255.049503 
z
" clip-path="url(#p43ef6de038)" style="fill: #c03d3e; stroke: #3d3d3d; stroke-linejoin: miter"/>
   </g>
   <g id="line2d_92">
    <path d="M 340.822146 255.049503 
L 340.822146 263.995777 
" clip-path="url(#p43ef6de038)" style="fill: none; stroke: #3d3d3d"/>
   </g>
   <g id="line2d_93">
    <path d="M 340.822146 226.326042 
L 340.822146 213.96373 
" clip-path="url(#p43ef6de038)" style="fill: none; stroke: #3d3d3d"/>
   </g>
   <g id="line2d_94">
    <path d="M 335.755763 263.995777 
L 345.88853 263.995777 
" clip-path="url(#p43ef6de038)" style="fill: none; stroke: #3d3d3d; stroke-linecap: round"/>
   </g>
   <g id="line2d_95">
    <path d="M 335.755763 213.96373 
L 345.88853 213.96373 
" clip-path="url(#p43ef6de038)" style="fill: none; stroke: #3d3d3d; stroke-linecap: round"/>
   </g>
   <g id="line2d_96">
    <path d="M 406.685127 227.312256 
L 426.950659 227.312256 
" clip-path="url(#p43ef6de038)" style="fill: none; stroke: #3d3d3d"/>
   </g>
   <g id="line2d_97">
    <path d="M 482.680873 227.392456 
L 502.946405 227.392456 
" clip-path="url(#p43ef6de038)" style="fill: none; stroke: #3d3d3d"/>
   </g>
   <g id="line2d_98">
    <path d="M 356.021296 227.330077 
L 376.286828 227.330077 
" clip-path="url(#p43ef6de038)" style="fill: none; stroke: #3d3d3d"/>
   </g>
   <g id="line2d_99">
    <path d="M 432.017042 227.305476 
L 452.282574 227.305476 
" clip-path="url(#p43ef6de038)" style="fill: none; stroke: #3d3d3d"/>
   </g>
   <g id="line2d_100">
    <path d="M 381.353211 216.475897 
L 401.618743 216.475897 
" clip-path="url(#p43ef6de038)" style="fill: none; stroke: #3d3d3d"/>
   </g>
   <g id="line2d_101">
    <path d="M 457.348957 216.735664 
L 477.61449 216.735664 
" clip-path="url(#p43ef6de038)" style="fill: none; stroke: #3d3d3d"/>
   </g>
   <g id="line2d_102">
    <path d="M 330.68938 227.81584 
L 350.954913 227.81584 
" clip-path="url(#p43ef6de038)" style="fill: none; stroke: #3d3d3d"/>
   </g>
   <g id="patch_22">
    <path d="M 328.156189 308.061248 
L 328.156189 17.6256 
" style="fill: none; stroke: #cccccc; stroke-linejoin: miter; stroke-linecap: square"/>
   </g>
   <g id="patch_23">
    <path d="M 505.479597 308.061248 
L 505.479597 17.6256 
" style="fill: none; stroke: #cccccc; stroke-linejoin: miter; stroke-linecap: square"/>
   </g>
   <g id="patch_24">
    <path d="M 328.156189 308.061248 
L 505.479597 308.061248 
" style="fill: none; stroke: #cccccc; stroke-linejoin: miter; stroke-linecap: square"/>
   </g>
   <g id="patch_25">
    <path d="M 328.156189 17.6256 
L 505.479597 17.6256 
" style="fill: none; stroke: #cccccc; stroke-linejoin: miter; stroke-linecap: square"/>
   </g>
  </g>
  <g id="axes_3">
   <g id="patch_26">
    <path d="M 561.050992 308.061248 
L 738.3744 308.061248 
L 738.3744 17.6256 
L 561.050992 17.6256 
z
" style="fill: #ffffff"/>
   </g>
   <g id="matplotlib.axis_5">
    <g id="xtick_15">
     <g id="line2d_103">
      <path d="M 573.71695 308.061248 
L 573.71695 17.6256 
" clip-path="url(#p62bc960384)" style="fill: none; stroke: #cccccc; stroke-width: 0.8; stroke-linecap: round"/>
     </g>
     <g id="text_24">
      <!-- Fused -->
      <g style="fill: #262626" transform="translate(542.216704 353.330814) rotate(-45) scale(0.1496 -0.1496)">
       <use xlink:href="#ArialMT-46"/>
       <use xlink:href="#ArialMT-75" transform="translate(61.083984 0)"/>
       <use xlink:href="#ArialMT-73" transform="translate(116.699219 0)"/>
       <use xlink:href="#ArialMT-65" transform="translate(166.699219 0)"/>
       <use xlink:href="#ArialMT-64" transform="translate(222.314453 0)"/>
      </g>
     </g>
    </g>
    <g id="xtick_16">
     <g id="line2d_104">
      <path d="M 599.048865 308.061248 
L 599.048865 17.6256 
" clip-path="url(#p62bc960384)" style="fill: none; stroke: #cccccc; stroke-width: 0.8; stroke-linecap: round"/>
     </g>
     <g id="text_25">
      <!-- Linear (Dyn.) -->
      <g style="fill: #262626" transform="translate(535.686396 385.197995) rotate(-45) scale(0.1496 -0.1496)">
       <use xlink:href="#ArialMT-4c"/>
       <use xlink:href="#ArialMT-69" transform="translate(55.615234 0)"/>
       <use xlink:href="#ArialMT-6e" transform="translate(77.832031 0)"/>
       <use xlink:href="#ArialMT-65" transform="translate(133.447266 0)"/>
       <use xlink:href="#ArialMT-61" transform="translate(189.0625 0)"/>
       <use xlink:href="#ArialMT-72" transform="translate(244.677734 0)"/>
       <use xlink:href="#ArialMT-20" transform="translate(277.978516 0)"/>
       <use xlink:href="#ArialMT-28" transform="translate(305.761719 0)"/>
       <use xlink:href="#ArialMT-44" transform="translate(339.0625 0)"/>
       <use xlink:href="#ArialMT-79" transform="translate(411.279297 0)"/>
       <use xlink:href="#ArialMT-6e" transform="translate(461.279297 0)"/>
       <use xlink:href="#ArialMT-2e" transform="translate(516.894531 0)"/>
       <use xlink:href="#ArialMT-29" transform="translate(544.677734 0)"/>
      </g>
     </g>
    </g>
    <g id="xtick_17">
     <g id="line2d_105">
      <path d="M 624.380781 308.061248 
L 624.380781 17.6256 
" clip-path="url(#p62bc960384)" style="fill: none; stroke: #cccccc; stroke-width: 0.8; stroke-linecap: round"/>
     </g>
     <g id="text_26">
      <!-- Linear (Prec.) -->
      <g style="fill: #262626" transform="translate(558.079523 388.136784) rotate(-45) scale(0.1496 -0.1496)">
       <use xlink:href="#ArialMT-4c"/>
       <use xlink:href="#ArialMT-69" transform="translate(55.615234 0)"/>
       <use xlink:href="#ArialMT-6e" transform="translate(77.832031 0)"/>
       <use xlink:href="#ArialMT-65" transform="translate(133.447266 0)"/>
       <use xlink:href="#ArialMT-61" transform="translate(189.0625 0)"/>
       <use xlink:href="#ArialMT-72" transform="translate(244.677734 0)"/>
       <use xlink:href="#ArialMT-20" transform="translate(277.978516 0)"/>
       <use xlink:href="#ArialMT-28" transform="translate(305.761719 0)"/>
       <use xlink:href="#ArialMT-50" transform="translate(339.0625 0)"/>
       <use xlink:href="#ArialMT-72" transform="translate(405.761719 0)"/>
       <use xlink:href="#ArialMT-65" transform="translate(439.0625 0)"/>
       <use xlink:href="#ArialMT-63" transform="translate(494.677734 0)"/>
       <use xlink:href="#ArialMT-2e" transform="translate(544.677734 0)"/>
       <use xlink:href="#ArialMT-29" transform="translate(572.460938 0)"/>
      </g>
     </g>
    </g>
    <g id="xtick_18">
     <g id="line2d_106">
      <path d="M 649.712696 308.061248 
L 649.712696 17.6256 
" clip-path="url(#p62bc960384)" style="fill: none; stroke: #cccccc; stroke-width: 0.8; stroke-linecap: round"/>
     </g>
     <g id="text_27">
      <!-- Linear (Stat.) -->
      <g style="fill: #262626" transform="translate(586.345269 385.202954) rotate(-45) scale(0.1496 -0.1496)">
       <use xlink:href="#ArialMT-4c"/>
       <use xlink:href="#ArialMT-69" transform="translate(55.615234 0)"/>
       <use xlink:href="#ArialMT-6e" transform="translate(77.832031 0)"/>
       <use xlink:href="#ArialMT-65" transform="translate(133.447266 0)"/>
       <use xlink:href="#ArialMT-61" transform="translate(189.0625 0)"/>
       <use xlink:href="#ArialMT-72" transform="translate(244.677734 0)"/>
       <use xlink:href="#ArialMT-20" transform="translate(277.978516 0)"/>
       <use xlink:href="#ArialMT-28" transform="translate(305.761719 0)"/>
       <use xlink:href="#ArialMT-53" transform="translate(339.0625 0)"/>
       <use xlink:href="#ArialMT-74" transform="translate(405.761719 0)"/>
       <use xlink:href="#ArialMT-61" transform="translate(433.544922 0)"/>
       <use xlink:href="#ArialMT-74" transform="translate(489.160156 0)"/>
       <use xlink:href="#ArialMT-2e" transform="translate(516.943359 0)"/>
       <use xlink:href="#ArialMT-29" transform="translate(544.726562 0)"/>
      </g>
     </g>
    </g>
    <g id="xtick_19">
     <g id="line2d_107">
      <path d="M 675.044611 308.061248 
L 675.044611 17.6256 
" clip-path="url(#p62bc960384)" style="fill: none; stroke: #cccccc; stroke-width: 0.8; stroke-linecap: round"/>
     </g>
     <g id="text_28">
      <!-- Upwind (Dyn.) -->
      <g style="fill: #262626" transform="translate(605.807871 391.072267) rotate(-45) scale(0.1496 -0.1496)">
       <use xlink:href="#ArialMT-55"/>
       <use xlink:href="#ArialMT-70" transform="translate(72.216797 0)"/>
       <use xlink:href="#ArialMT-77" transform="translate(127.832031 0)"/>
       <use xlink:href="#ArialMT-69" transform="translate(200.048828 0)"/>
       <use xlink:href="#ArialMT-6e" transform="translate(222.265625 0)"/>
       <use xlink:href="#ArialMT-64" transform="translate(277.880859 0)"/>
       <use xlink:href="#ArialMT-20" transform="translate(333.496094 0)"/>
       <use xlink:href="#ArialMT-28" transform="translate(361.279297 0)"/>
       <use xlink:href="#ArialMT-44" transform="translate(394.580078 0)"/>
       <use xlink:href="#ArialMT-79" transform="translate(466.796875 0)"/>
       <use xlink:href="#ArialMT-6e" transform="translate(516.796875 0)"/>
       <use xlink:href="#ArialMT-2e" transform="translate(572.412109 0)"/>
       <use xlink:href="#ArialMT-29" transform="translate(600.195312 0)"/>
      </g>
     </g>
    </g>
    <g id="xtick_20">
     <g id="line2d_108">
      <path d="M 700.376527 308.061248 
L 700.376527 17.6256 
" clip-path="url(#p62bc960384)" style="fill: none; stroke: #cccccc; stroke-width: 0.8; stroke-linecap: round"/>
     </g>
     <g id="text_29">
      <!-- Upwind (Prec.) -->
      <g style="fill: #262626" transform="translate(628.200997 394.011056) rotate(-45) scale(0.1496 -0.1496)">
       <use xlink:href="#ArialMT-55"/>
       <use xlink:href="#ArialMT-70" transform="translate(72.216797 0)"/>
       <use xlink:href="#ArialMT-77" transform="translate(127.832031 0)"/>
       <use xlink:href="#ArialMT-69" transform="translate(200.048828 0)"/>
       <use xlink:href="#ArialMT-6e" transform="translate(222.265625 0)"/>
       <use xlink:href="#ArialMT-64" transform="translate(277.880859 0)"/>
       <use xlink:href="#ArialMT-20" transform="translate(333.496094 0)"/>
       <use xlink:href="#ArialMT-28" transform="translate(361.279297 0)"/>
       <use xlink:href="#ArialMT-50" transform="translate(394.580078 0)"/>
       <use xlink:href="#ArialMT-72" transform="translate(461.279297 0)"/>
       <use xlink:href="#ArialMT-65" transform="translate(494.580078 0)"/>
       <use xlink:href="#ArialMT-63" transform="translate(550.195312 0)"/>
       <use xlink:href="#ArialMT-2e" transform="translate(600.195312 0)"/>
       <use xlink:href="#ArialMT-29" transform="translate(627.978516 0)"/>
      </g>
     </g>
    </g>
    <g id="xtick_21">
     <g id="line2d_109">
      <path d="M 725.708442 308.061248 
L 725.708442 17.6256 
" clip-path="url(#p62bc960384)" style="fill: none; stroke: #cccccc; stroke-width: 0.8; stroke-linecap: round"/>
     </g>
     <g id="text_30">
      <!-- Upwind (Stat.) -->
      <g style="fill: #262626" transform="translate(656.466743 391.077226) rotate(-45) scale(0.1496 -0.1496)">
       <use xlink:href="#ArialMT-55"/>
       <use xlink:href="#ArialMT-70" transform="translate(72.216797 0)"/>
       <use xlink:href="#ArialMT-77" transform="translate(127.832031 0)"/>
       <use xlink:href="#ArialMT-69" transform="translate(200.048828 0)"/>
       <use xlink:href="#ArialMT-6e" transform="translate(222.265625 0)"/>
       <use xlink:href="#ArialMT-64" transform="translate(277.880859 0)"/>
       <use xlink:href="#ArialMT-20" transform="translate(333.496094 0)"/>
       <use xlink:href="#ArialMT-28" transform="translate(361.279297 0)"/>
       <use xlink:href="#ArialMT-53" transform="translate(394.580078 0)"/>
       <use xlink:href="#ArialMT-74" transform="translate(461.279297 0)"/>
       <use xlink:href="#ArialMT-61" transform="translate(489.0625 0)"/>
       <use xlink:href="#ArialMT-74" transform="translate(544.677734 0)"/>
       <use xlink:href="#ArialMT-2e" transform="translate(572.460938 0)"/>
       <use xlink:href="#ArialMT-29" transform="translate(600.244141 0)"/>
      </g>
     </g>
    </g>
    <g id="text_31">
     <!-- Globalfacebased -->
     <g style="fill: #262626" transform="translate(588.473171 411.919011) scale(0.1632 -0.1632)">
      <defs>
       <path id="ArialMT-47" d="M 2638 1797 
L 2638 2334 
L 4578 2338 
L 4578 638 
Q 4131 281 3656 101 
Q 3181 -78 2681 -78 
Q 2006 -78 1454 211 
Q 903 500 622 1047 
Q 341 1594 341 2269 
Q 341 2938 620 3517 
Q 900 4097 1425 4378 
Q 1950 4659 2634 4659 
Q 3131 4659 3532 4498 
Q 3934 4338 4162 4050 
Q 4391 3763 4509 3300 
L 3963 3150 
Q 3859 3500 3706 3700 
Q 3553 3900 3268 4020 
Q 2984 4141 2638 4141 
Q 2222 4141 1919 4014 
Q 1616 3888 1430 3681 
Q 1244 3475 1141 3228 
Q 966 2803 966 2306 
Q 966 1694 1177 1281 
Q 1388 869 1791 669 
Q 2194 469 2647 469 
Q 3041 469 3416 620 
Q 3791 772 3984 944 
L 3984 1797 
L 2638 1797 
z
" transform="scale(0.015625)"/>
       <path id="ArialMT-6f" d="M 213 1659 
Q 213 2581 725 3025 
Q 1153 3394 1769 3394 
Q 2453 3394 2887 2945 
Q 3322 2497 3322 1706 
Q 3322 1066 3130 698 
Q 2938 331 2570 128 
Q 2203 -75 1769 -75 
Q 1072 -75 642 372 
Q 213 819 213 1659 
z
M 791 1659 
Q 791 1022 1069 705 
Q 1347 388 1769 388 
Q 2188 388 2466 706 
Q 2744 1025 2744 1678 
Q 2744 2294 2464 2611 
Q 2184 2928 1769 2928 
Q 1347 2928 1069 2612 
Q 791 2297 791 1659 
z
" transform="scale(0.015625)"/>
       <path id="ArialMT-66" d="M 556 0 
L 556 2881 
L 59 2881 
L 59 3319 
L 556 3319 
L 556 3672 
Q 556 4006 616 4169 
Q 697 4388 901 4523 
Q 1106 4659 1475 4659 
Q 1713 4659 2000 4603 
L 1916 4113 
Q 1741 4144 1584 4144 
Q 1328 4144 1222 4034 
Q 1116 3925 1116 3625 
L 1116 3319 
L 1763 3319 
L 1763 2881 
L 1116 2881 
L 1116 0 
L 556 0 
z
" transform="scale(0.015625)"/>
      </defs>
      <use xlink:href="#ArialMT-47"/>
      <use xlink:href="#ArialMT-6c" transform="translate(77.783203 0)"/>
      <use xlink:href="#ArialMT-6f" transform="translate(100 0)"/>
      <use xlink:href="#ArialMT-62" transform="translate(155.615234 0)"/>
      <use xlink:href="#ArialMT-61" transform="translate(211.230469 0)"/>
      <use xlink:href="#ArialMT-6c" transform="translate(266.845703 0)"/>
      <use xlink:href="#ArialMT-66" transform="translate(289.0625 0)"/>
      <use xlink:href="#ArialMT-61" transform="translate(316.845703 0)"/>
      <use xlink:href="#ArialMT-63" transform="translate(372.460938 0)"/>
      <use xlink:href="#ArialMT-65" transform="translate(422.460938 0)"/>
      <use xlink:href="#ArialMT-62" transform="translate(478.076172 0)"/>
      <use xlink:href="#ArialMT-61" transform="translate(533.691406 0)"/>
      <use xlink:href="#ArialMT-73" transform="translate(589.306641 0)"/>
      <use xlink:href="#ArialMT-65" transform="translate(639.306641 0)"/>
      <use xlink:href="#ArialMT-64" transform="translate(694.921875 0)"/>
     </g>
    </g>
   </g>
   <g id="matplotlib.axis_6">
    <g id="ytick_19">
     <g id="line2d_110">
      <path d="M 561.050992 49.449146 
L 738.3744 49.449146 
" clip-path="url(#p62bc960384)" style="fill: none; stroke: #cccccc; stroke-width: 0.8; stroke-linecap: round"/>
     </g>
     <g id="text_32">
      <!-- $\mathdefault{10^{-4}}$ -->
      <g style="fill: #262626" transform="translate(523.130192 57.088096) scale(0.1496 -0.1496)">
       <use xlink:href="#ArialMT-31" transform="translate(0 0.201563)"/>
       <use xlink:href="#ArialMT-30" transform="translate(55.615234 0.201563)"/>
       <use xlink:href="#ArialMT-2212" transform="translate(112.972813 69.895313) scale(0.7)"/>
       <use xlink:href="#ArialMT-34" transform="translate(153.851719 69.895313) scale(0.7)"/>
      </g>
     </g>
    </g>
    <g id="ytick_20">
     <g id="line2d_111">
      <path d="M 561.050992 276.413029 
L 738.3744 276.413029 
" clip-path="url(#p62bc960384)" style="fill: none; stroke: #cccccc; stroke-opacity: 0.25; stroke-width: 0.8; stroke-linecap: round"/>
     </g>
    </g>
    <g id="ytick_21">
     <g id="line2d_112">
      <path d="M 561.050992 219.234101 
L 738.3744 219.234101 
" clip-path="url(#p62bc960384)" style="fill: none; stroke: #cccccc; stroke-opacity: 0.25; stroke-width: 0.8; stroke-linecap: round"/>
     </g>
    </g>
    <g id="ytick_22">
     <g id="line2d_113">
      <path d="M 561.050992 178.665005 
L 738.3744 178.665005 
" clip-path="url(#p62bc960384)" style="fill: none; stroke: #cccccc; stroke-opacity: 0.25; stroke-width: 0.8; stroke-linecap: round"/>
     </g>
    </g>
    <g id="ytick_23">
     <g id="line2d_114">
      <path d="M 561.050992 147.19717 
L 738.3744 147.19717 
" clip-path="url(#p62bc960384)" style="fill: none; stroke: #cccccc; stroke-opacity: 0.25; stroke-width: 0.8; stroke-linecap: round"/>
     </g>
    </g>
    <g id="ytick_24">
     <g id="line2d_115">
      <path d="M 561.050992 121.486077 
L 738.3744 121.486077 
" clip-path="url(#p62bc960384)" style="fill: none; stroke: #cccccc; stroke-opacity: 0.25; stroke-width: 0.8; stroke-linecap: round"/>
     </g>
    </g>
    <g id="ytick_25">
     <g id="line2d_116">
      <path d="M 561.050992 99.747657 
L 738.3744 99.747657 
" clip-path="url(#p62bc960384)" style="fill: none; stroke: #cccccc; stroke-opacity: 0.25; stroke-width: 0.8; stroke-linecap: round"/>
     </g>
    </g>
    <g id="ytick_26">
     <g id="line2d_117">
      <path d="M 561.050992 80.916981 
L 738.3744 80.916981 
" clip-path="url(#p62bc960384)" style="fill: none; stroke: #cccccc; stroke-opacity: 0.25; stroke-width: 0.8; stroke-linecap: round"/>
     </g>
    </g>
    <g id="ytick_27">
     <g id="line2d_118">
      <path d="M 561.050992 64.307148 
L 738.3744 64.307148 
" clip-path="url(#p62bc960384)" style="fill: none; stroke: #cccccc; stroke-opacity: 0.25; stroke-width: 0.8; stroke-linecap: round"/>
     </g>
    </g>
   </g>
   <g id="patch_27">
    <path d="M 639.57993 246.461639 
L 659.845462 246.461639 
L 659.845462 221.30579 
L 639.57993 221.30579 
L 639.57993 246.461639 
z
" clip-path="url(#p62bc960384)" style="fill: #3274a1; stroke: #3d3d3d; stroke-linejoin: miter"/>
   </g>
   <g id="line2d_119">
    <path d="M 649.712696 246.461639 
L 649.712696 283.236411 
" clip-path="url(#p62bc960384)" style="fill: none; stroke: #3d3d3d"/>
   </g>
   <g id="line2d_120">
    <path d="M 649.712696 221.30579 
L 649.712696 192.496861 
" clip-path="url(#p62bc960384)" style="fill: none; stroke: #3d3d3d"/>
   </g>
   <g id="line2d_121">
    <path d="M 644.646313 283.236411 
L 654.779079 283.236411 
" clip-path="url(#p62bc960384)" style="fill: none; stroke: #3d3d3d; stroke-linecap: round"/>
   </g>
   <g id="line2d_122">
    <path d="M 644.646313 192.496861 
L 654.779079 192.496861 
" clip-path="url(#p62bc960384)" style="fill: none; stroke: #3d3d3d; stroke-linecap: round"/>
   </g>
   <g id="patch_28">
    <path d="M 715.575676 246.105762 
L 735.841208 246.105762 
L 735.841208 221.4718 
L 715.575676 221.4718 
L 715.575676 246.105762 
z
" clip-path="url(#p62bc960384)" style="fill: #3274a1; stroke: #3d3d3d; stroke-linejoin: miter"/>
   </g>
   <g id="line2d_123">
    <path d="M 725.708442 246.105762 
L 725.708442 281.653464 
" clip-path="url(#p62bc960384)" style="fill: none; stroke: #3d3d3d"/>
   </g>
   <g id="line2d_124">
    <path d="M 725.708442 221.4718 
L 725.708442 209.23767 
" clip-path="url(#p62bc960384)" style="fill: none; stroke: #3d3d3d"/>
   </g>
   <g id="line2d_125">
    <path d="M 720.642059 281.653464 
L 730.774825 281.653464 
" clip-path="url(#p62bc960384)" style="fill: none; stroke: #3d3d3d; stroke-linecap: round"/>
   </g>
   <g id="line2d_126">
    <path d="M 720.642059 209.23767 
L 730.774825 209.23767 
" clip-path="url(#p62bc960384)" style="fill: none; stroke: #3d3d3d; stroke-linecap: round"/>
   </g>
   <g id="patch_29">
    <path d="M 588.916099 246.234066 
L 609.181631 246.234066 
L 609.181631 219.663696 
L 588.916099 219.663696 
L 588.916099 246.234066 
z
" clip-path="url(#p62bc960384)" style="fill: #e1812c; stroke: #3d3d3d; stroke-linejoin: miter"/>
   </g>
   <g id="line2d_127">
    <path d="M 599.048865 246.234066 
L 599.048865 285.748892 
" clip-path="url(#p62bc960384)" style="fill: none; stroke: #3d3d3d"/>
   </g>
   <g id="line2d_128">
    <path d="M 599.048865 219.663696 
L 599.048865 201.173718 
" clip-path="url(#p62bc960384)" style="fill: none; stroke: #3d3d3d"/>
   </g>
   <g id="line2d_129">
    <path d="M 593.982482 285.748892 
L 604.115248 285.748892 
" clip-path="url(#p62bc960384)" style="fill: none; stroke: #3d3d3d; stroke-linecap: round"/>
   </g>
   <g id="line2d_130">
    <path d="M 593.982482 201.173718 
L 604.115248 201.173718 
" clip-path="url(#p62bc960384)" style="fill: none; stroke: #3d3d3d; stroke-linecap: round"/>
   </g>
   <g id="patch_30">
    <path d="M 664.911845 246.236139 
L 685.177378 246.236139 
L 685.177378 221.483231 
L 664.911845 221.483231 
L 664.911845 246.236139 
z
" clip-path="url(#p62bc960384)" style="fill: #e1812c; stroke: #3d3d3d; stroke-linejoin: miter"/>
   </g>
   <g id="line2d_131">
    <path d="M 675.044611 246.236139 
L 675.044611 281.924791 
" clip-path="url(#p62bc960384)" style="fill: none; stroke: #3d3d3d"/>
   </g>
   <g id="line2d_132">
    <path d="M 675.044611 221.483231 
L 675.044611 206.585386 
" clip-path="url(#p62bc960384)" style="fill: none; stroke: #3d3d3d"/>
   </g>
   <g id="line2d_133">
    <path d="M 669.978228 281.924791 
L 680.110995 281.924791 
" clip-path="url(#p62bc960384)" style="fill: none; stroke: #3d3d3d; stroke-linecap: round"/>
   </g>
   <g id="line2d_134">
    <path d="M 669.978228 206.585386 
L 680.110995 206.585386 
" clip-path="url(#p62bc960384)" style="fill: none; stroke: #3d3d3d; stroke-linecap: round"/>
   </g>
   <g id="patch_31">
    <path d="M 614.248014 234.60132 
L 634.513547 234.60132 
L 634.513547 210.342573 
L 614.248014 210.342573 
L 614.248014 234.60132 
z
" clip-path="url(#p62bc960384)" style="fill: #3a923a; stroke: #3d3d3d; stroke-linejoin: miter"/>
   </g>
   <g id="line2d_135">
    <path d="M 624.380781 234.60132 
L 624.380781 267.792962 
" clip-path="url(#p62bc960384)" style="fill: none; stroke: #3d3d3d"/>
   </g>
   <g id="line2d_136">
    <path d="M 624.380781 210.342573 
L 624.380781 194.276914 
" clip-path="url(#p62bc960384)" style="fill: none; stroke: #3d3d3d"/>
   </g>
   <g id="line2d_137">
    <path d="M 619.314397 267.792962 
L 629.447164 267.792962 
" clip-path="url(#p62bc960384)" style="fill: none; stroke: #3d3d3d; stroke-linecap: round"/>
   </g>
   <g id="line2d_138">
    <path d="M 619.314397 194.276914 
L 629.447164 194.276914 
" clip-path="url(#p62bc960384)" style="fill: none; stroke: #3d3d3d; stroke-linecap: round"/>
   </g>
   <g id="patch_32">
    <path d="M 690.243761 235.969982 
L 710.509293 235.969982 
L 710.509293 211.300568 
L 690.243761 211.300568 
L 690.243761 235.969982 
z
" clip-path="url(#p62bc960384)" style="fill: #3a923a; stroke: #3d3d3d; stroke-linejoin: miter"/>
   </g>
   <g id="line2d_139">
    <path d="M 700.376527 235.969982 
L 700.376527 272.647897 
" clip-path="url(#p62bc960384)" style="fill: none; stroke: #3d3d3d"/>
   </g>
   <g id="line2d_140">
    <path d="M 700.376527 211.300568 
L 700.376527 184.25128 
" clip-path="url(#p62bc960384)" style="fill: none; stroke: #3d3d3d"/>
   </g>
   <g id="line2d_141">
    <path d="M 695.310144 272.647897 
L 705.44291 272.647897 
" clip-path="url(#p62bc960384)" style="fill: none; stroke: #3d3d3d; stroke-linecap: round"/>
   </g>
   <g id="line2d_142">
    <path d="M 695.310144 184.25128 
L 705.44291 184.25128 
" clip-path="url(#p62bc960384)" style="fill: none; stroke: #3d3d3d; stroke-linecap: round"/>
   </g>
   <g id="patch_33">
    <path d="M 563.584184 247.525593 
L 583.849716 247.525593 
L 583.849716 221.385077 
L 563.584184 221.385077 
L 563.584184 247.525593 
z
" clip-path="url(#p62bc960384)" style="fill: #c03d3e; stroke: #3d3d3d; stroke-linejoin: miter"/>
   </g>
   <g id="line2d_143">
    <path d="M 573.71695 247.525593 
L 573.71695 256.767197 
" clip-path="url(#p62bc960384)" style="fill: none; stroke: #3d3d3d"/>
   </g>
   <g id="line2d_144">
    <path d="M 573.71695 221.385077 
L 573.71695 216.970807 
" clip-path="url(#p62bc960384)" style="fill: none; stroke: #3d3d3d"/>
   </g>
   <g id="line2d_145">
    <path d="M 568.650567 256.767197 
L 578.783333 256.767197 
" clip-path="url(#p62bc960384)" style="fill: none; stroke: #3d3d3d; stroke-linecap: round"/>
   </g>
   <g id="line2d_146">
    <path d="M 568.650567 216.970807 
L 578.783333 216.970807 
" clip-path="url(#p62bc960384)" style="fill: none; stroke: #3d3d3d; stroke-linecap: round"/>
   </g>
   <g id="line2d_147">
    <path d="M 639.57993 222.787231 
L 659.845462 222.787231 
" clip-path="url(#p62bc960384)" style="fill: none; stroke: #3d3d3d"/>
   </g>
   <g id="line2d_148">
    <path d="M 715.575676 222.539636 
L 735.841208 222.539636 
" clip-path="url(#p62bc960384)" style="fill: none; stroke: #3d3d3d"/>
   </g>
   <g id="line2d_149">
    <path d="M 588.916099 222.63915 
L 609.181631 222.63915 
" clip-path="url(#p62bc960384)" style="fill: none; stroke: #3d3d3d"/>
   </g>
   <g id="line2d_150">
    <path d="M 664.911845 222.73941 
L 685.177378 222.73941 
" clip-path="url(#p62bc960384)" style="fill: none; stroke: #3d3d3d"/>
   </g>
   <g id="line2d_151">
    <path d="M 614.248014 212.864944 
L 634.513547 212.864944 
" clip-path="url(#p62bc960384)" style="fill: none; stroke: #3d3d3d"/>
   </g>
   <g id="line2d_152">
    <path d="M 690.243761 213.393556 
L 710.509293 213.393556 
" clip-path="url(#p62bc960384)" style="fill: none; stroke: #3d3d3d"/>
   </g>
   <g id="line2d_153">
    <path d="M 563.584184 223.225273 
L 583.849716 223.225273 
" clip-path="url(#p62bc960384)" style="fill: none; stroke: #3d3d3d"/>
   </g>
   <g id="patch_34">
    <path d="M 561.050992 308.061248 
L 561.050992 17.6256 
" style="fill: none; stroke: #cccccc; stroke-linejoin: miter; stroke-linecap: square"/>
   </g>
   <g id="patch_35">
    <path d="M 738.3744 308.061248 
L 738.3744 17.6256 
" style="fill: none; stroke: #cccccc; stroke-linejoin: miter; stroke-linecap: square"/>
   </g>
   <g id="patch_36">
    <path d="M 561.050992 308.061248 
L 738.3744 308.061248 
" style="fill: none; stroke: #cccccc; stroke-linejoin: miter; stroke-linecap: square"/>
   </g>
   <g id="patch_37">
    <path d="M 561.050992 17.6256 
L 738.3744 17.6256 
" style="fill: none; stroke: #cccccc; stroke-linejoin: miter; stroke-linecap: square"/>
   </g>
  </g>
 </g>
 <defs>
  <clipPath id="p808149ccf5">
   <rect x="95.261385" y="17.6256" width="177.323408" height="290.435648"/>
  </clipPath>
  <clipPath id="p43ef6de038">
   <rect x="328.156189" y="17.6256" width="177.323408" height="290.435648"/>
  </clipPath>
  <clipPath id="p62bc960384">
   <rect x="561.050992" y="17.6256" width="177.323408" height="290.435648"/>
  </clipPath>
 </defs>
</svg>
