<?xml version="1.0" encoding="utf-8" standalone="no"?>
<!DOCTYPE svg PUBLIC "-//W3C//DTD SVG 1.1//EN"
  "http://www.w3.org/Graphics/SVG/1.1/DTD/svg11.dtd">
<svg xmlns:xlink="http://www.w3.org/1999/xlink" width="954.756pt" height="360pt" viewBox="0 0 954.756 360" xmlns="http://www.w3.org/2000/svg" version="1.1">
 <metadata>
  <rdf:RDF xmlns:dc="http://purl.org/dc/elements/1.1/" xmlns:cc="http://creativecommons.org/ns#" xmlns:rdf="http://www.w3.org/1999/02/22-rdf-syntax-ns#">
   <cc:Work>
    <dc:type rdf:resource="http://purl.org/dc/dcmitype/StillImage"/>
    <dc:date>2026-06-23T12:26:56.944321</dc:date>
    <dc:format>image/svg+xml</dc:format>
    <dc:creator>
     <cc:Agent>
      <dc:title>Matplotlib v3.10.9, https://matplotlib.org/</dc:title>
     </cc:Agent>
    </dc:creator>
   </cc:Work>
  </rdf:RDF>
 </metadata>
 <defs>
  <style type="text/css">*{stroke-linejoin: round; stroke-linecap: butt}</style>
 </defs>
 <g id="figure_1">
  <g id="patch_1">
   <path d="M 0 360 
L 954.756 360 
L 954.756 0 
L 0 0 
z
" style="fill: #ffffff"/>
  </g>
  <g id="axes_1">
   <g id="patch_2">
    <path d="M 66.83292 301.9944 
L 489.310905 301.9944 
L 489.310905 79.2 
L 66.83292 79.2 
z
" style="fill: #ffffff"/>
   </g>
   <g id="matplotlib.axis_1">
    <g id="xtick_1">
     <g id="line2d_1">
      <path d="M 83.509683 301.9944 
L 83.509683 79.2 
" clip-path="url(#p735bb53379)" style="fill: none; stroke: #cccccc; stroke-width: 0.8; stroke-linecap: round"/>
     </g>
     <g id="text_1">
      <!-- 1 -->
      <g style="fill: #262626" transform="translate(79.350101 321.002488) scale(0.1496 -0.1496)">
       <defs>
        <path id="ArialMT-31" d="M 2384 0 
L 1822 0 
L 1822 3584 
Q 1619 3391 1289 3197 
Q 959 3003 697 2906 
L 697 3450 
Q 1169 3672 1522 3987 
Q 1875 4303 2022 4600 
L 2384 4600 
L 2384 0 
z
" transform="scale(0.015625)"/>
       </defs>
       <use xlink:href="#ArialMT-31"/>
      </g>
     </g>
    </g>
    <g id="xtick_2">
     <g id="line2d_2">
      <path d="M 139.098891 301.9944 
L 139.098891 79.2 
" clip-path="url(#p735bb53379)" style="fill: none; stroke: #cccccc; stroke-width: 0.8; stroke-linecap: round"/>
     </g>
     <g id="text_2">
      <!-- 2 -->
      <g style="fill: #262626" transform="translate(134.93931 321.002488) scale(0.1496 -0.1496)">
       <defs>
        <path id="ArialMT-32" d="M 3222 541 
L 3222 0 
L 194 0 
Q 188 203 259 391 
Q 375 700 629 1000 
Q 884 1300 1366 1694 
Q 2113 2306 2375 2664 
Q 2638 3022 2638 3341 
Q 2638 3675 2398 3904 
Q 2159 4134 1775 4134 
Q 1369 4134 1125 3890 
Q 881 3647 878 3216 
L 300 3275 
Q 359 3922 746 4261 
Q 1134 4600 1788 4600 
Q 2447 4600 2831 4234 
Q 3216 3869 3216 3328 
Q 3216 3053 3103 2787 
Q 2991 2522 2730 2228 
Q 2469 1934 1863 1422 
Q 1356 997 1212 845 
Q 1069 694 975 541 
L 3222 541 
z
" transform="scale(0.015625)"/>
       </defs>
       <use xlink:href="#ArialMT-32"/>
      </g>
     </g>
    </g>
    <g id="xtick_3">
     <g id="line2d_3">
      <path d="M 194.6881 301.9944 
L 194.6881 79.2 
" clip-path="url(#p735bb53379)" style="fill: none; stroke: #cccccc; stroke-width: 0.8; stroke-linecap: round"/>
     </g>
     <g id="text_3">
      <!-- 4 -->
      <g style="fill: #262626" transform="translate(190.528518 321.002488) scale(0.1496 -0.1496)">
       <defs>
        <path id="ArialMT-34" d="M 2069 0 
L 2069 1097 
L 81 1097 
L 81 1613 
L 2172 4581 
L 2631 4581 
L 2631 1613 
L 3250 1613 
L 3250 1097 
L 2631 1097 
L 2631 0 
L 2069 0 
z
M 2069 1613 
L 2069 3678 
L 634 1613 
L 2069 1613 
z
" transform="scale(0.015625)"/>
       </defs>
       <use xlink:href="#ArialMT-34"/>
      </g>
     </g>
    </g>
    <g id="xtick_4">
     <g id="line2d_4">
      <path d="M 250.277308 301.9944 
L 250.277308 79.2 
" clip-path="url(#p735bb53379)" style="fill: none; stroke: #cccccc; stroke-width: 0.8; stroke-linecap: round"/>
     </g>
     <g id="text_4">
      <!-- 8 -->
      <g style="fill: #262626" transform="translate(246.117727 321.002488) scale(0.1496 -0.1496)">
       <defs>
        <path id="ArialMT-38" d="M 1131 2484 
Q 781 2613 612 2850 
Q 444 3088 444 3419 
Q 444 3919 803 4259 
Q 1163 4600 1759 4600 
Q 2359 4600 2725 4251 
Q 3091 3903 3091 3403 
Q 3091 3084 2923 2848 
Q 2756 2613 2416 2484 
Q 2838 2347 3058 2040 
Q 3278 1734 3278 1309 
Q 3278 722 2862 322 
Q 2447 -78 1769 -78 
Q 1091 -78 675 323 
Q 259 725 259 1325 
Q 259 1772 486 2073 
Q 713 2375 1131 2484 
z
M 1019 3438 
Q 1019 3113 1228 2906 
Q 1438 2700 1772 2700 
Q 2097 2700 2305 2904 
Q 2513 3109 2513 3406 
Q 2513 3716 2298 3927 
Q 2084 4138 1766 4138 
Q 1444 4138 1231 3931 
Q 1019 3725 1019 3438 
z
M 838 1322 
Q 838 1081 952 856 
Q 1066 631 1291 507 
Q 1516 384 1775 384 
Q 2178 384 2440 643 
Q 2703 903 2703 1303 
Q 2703 1709 2433 1975 
Q 2163 2241 1756 2241 
Q 1359 2241 1098 1978 
Q 838 1716 838 1322 
z
" transform="scale(0.015625)"/>
       </defs>
       <use xlink:href="#ArialMT-38"/>
      </g>
     </g>
    </g>
    <g id="xtick_5">
     <g id="line2d_5">
      <path d="M 305.866517 301.9944 
L 305.866517 79.2 
" clip-path="url(#p735bb53379)" style="fill: none; stroke: #cccccc; stroke-width: 0.8; stroke-linecap: round"/>
     </g>
     <g id="text_5">
      <!-- 16 -->
      <g style="fill: #262626" transform="translate(297.547354 321.002488) scale(0.1496 -0.1496)">
       <defs>
        <path id="ArialMT-36" d="M 3184 3459 
L 2625 3416 
Q 2550 3747 2413 3897 
Q 2184 4138 1850 4138 
Q 1581 4138 1378 3988 
Q 1113 3794 959 3422 
Q 806 3050 800 2363 
Q 1003 2672 1297 2822 
Q 1591 2972 1913 2972 
Q 2475 2972 2870 2558 
Q 3266 2144 3266 1488 
Q 3266 1056 3080 686 
Q 2894 316 2569 119 
Q 2244 -78 1831 -78 
Q 1128 -78 684 439 
Q 241 956 241 2144 
Q 241 3472 731 4075 
Q 1159 4600 1884 4600 
Q 2425 4600 2770 4297 
Q 3116 3994 3184 3459 
z
M 888 1484 
Q 888 1194 1011 928 
Q 1134 663 1356 523 
Q 1578 384 1822 384 
Q 2178 384 2434 671 
Q 2691 959 2691 1453 
Q 2691 1928 2437 2201 
Q 2184 2475 1800 2475 
Q 1419 2475 1153 2201 
Q 888 1928 888 1484 
z
" transform="scale(0.015625)"/>
       </defs>
       <use xlink:href="#ArialMT-31"/>
       <use xlink:href="#ArialMT-36" transform="translate(55.615234 0)"/>
      </g>
     </g>
    </g>
    <g id="xtick_6">
     <g id="line2d_6">
      <path d="M 361.455725 301.9944 
L 361.455725 79.2 
" clip-path="url(#p735bb53379)" style="fill: none; stroke: #cccccc; stroke-width: 0.8; stroke-linecap: round"/>
     </g>
     <g id="text_6">
      <!-- 32 -->
      <g style="fill: #262626" transform="translate(353.136563 321.002488) scale(0.1496 -0.1496)">
       <defs>
        <path id="ArialMT-33" d="M 269 1209 
L 831 1284 
Q 928 806 1161 595 
Q 1394 384 1728 384 
Q 2125 384 2398 659 
Q 2672 934 2672 1341 
Q 2672 1728 2419 1979 
Q 2166 2231 1775 2231 
Q 1616 2231 1378 2169 
L 1441 2663 
Q 1497 2656 1531 2656 
Q 1891 2656 2178 2843 
Q 2466 3031 2466 3422 
Q 2466 3731 2256 3934 
Q 2047 4138 1716 4138 
Q 1388 4138 1169 3931 
Q 950 3725 888 3313 
L 325 3413 
Q 428 3978 793 4289 
Q 1159 4600 1703 4600 
Q 2078 4600 2393 4439 
Q 2709 4278 2876 4000 
Q 3044 3722 3044 3409 
Q 3044 3113 2884 2869 
Q 2725 2625 2413 2481 
Q 2819 2388 3044 2092 
Q 3269 1797 3269 1353 
Q 3269 753 2831 336 
Q 2394 -81 1725 -81 
Q 1122 -81 723 278 
Q 325 638 269 1209 
z
" transform="scale(0.015625)"/>
       </defs>
       <use xlink:href="#ArialMT-33"/>
       <use xlink:href="#ArialMT-32" transform="translate(55.615234 0)"/>
      </g>
     </g>
    </g>
    <g id="xtick_7">
     <g id="line2d_7">
      <path d="M 417.044934 301.9944 
L 417.044934 79.2 
" clip-path="url(#p735bb53379)" style="fill: none; stroke: #cccccc; stroke-width: 0.8; stroke-linecap: round"/>
     </g>
     <g id="text_7">
      <!-- 64 -->
      <g style="fill: #262626" transform="translate(408.725771 321.002488) scale(0.1496 -0.1496)">
       <use xlink:href="#ArialMT-36"/>
       <use xlink:href="#ArialMT-34" transform="translate(55.615234 0)"/>
      </g>
     </g>
    </g>
    <g id="xtick_8">
     <g id="line2d_8">
      <path d="M 472.634143 301.9944 
L 472.634143 79.2 
" clip-path="url(#p735bb53379)" style="fill: none; stroke: #cccccc; stroke-width: 0.8; stroke-linecap: round"/>
     </g>
     <g id="text_8">
      <!-- 128 -->
      <g style="fill: #262626" transform="translate(460.155399 321.002488) scale(0.1496 -0.1496)">
       <use xlink:href="#ArialMT-31"/>
       <use xlink:href="#ArialMT-32" transform="translate(55.615234 0)"/>
       <use xlink:href="#ArialMT-38" transform="translate(111.230469 0)"/>
      </g>
     </g>
    </g>
    <g id="text_9">
     <!-- #Threads -->
     <g style="fill: #262626" transform="translate(243.602288 339.657338) scale(0.1632 -0.1632)">
      <defs>
       <path id="ArialMT-23" d="M 322 -78 
L 594 1253 
L 66 1253 
L 66 1719 
L 688 1719 
L 919 2853 
L 66 2853 
L 66 3319 
L 1013 3319 
L 1284 4659 
L 1753 4659 
L 1481 3319 
L 2466 3319 
L 2738 4659 
L 3209 4659 
L 2938 3319 
L 3478 3319 
L 3478 2853 
L 2844 2853 
L 2609 1719 
L 3478 1719 
L 3478 1253 
L 2516 1253 
L 2244 -78 
L 1775 -78 
L 2044 1253 
L 1063 1253 
L 791 -78 
L 322 -78 
z
M 1156 1719 
L 2138 1719 
L 2372 2853 
L 1388 2853 
L 1156 1719 
z
" transform="scale(0.015625)"/>
       <path id="ArialMT-54" d="M 1659 0 
L 1659 4041 
L 150 4041 
L 150 4581 
L 3781 4581 
L 3781 4041 
L 2266 4041 
L 2266 0 
L 1659 0 
z
" transform="scale(0.015625)"/>
       <path id="ArialMT-68" d="M 422 0 
L 422 4581 
L 984 4581 
L 984 2938 
Q 1378 3394 1978 3394 
Q 2347 3394 2619 3248 
Q 2891 3103 3008 2847 
Q 3125 2591 3125 2103 
L 3125 0 
L 2563 0 
L 2563 2103 
Q 2563 2525 2380 2717 
Q 2197 2909 1863 2909 
Q 1613 2909 1392 2779 
Q 1172 2650 1078 2428 
Q 984 2206 984 1816 
L 984 0 
L 422 0 
z
" transform="scale(0.015625)"/>
       <path id="ArialMT-72" d="M 416 0 
L 416 3319 
L 922 3319 
L 922 2816 
Q 1116 3169 1280 3281 
Q 1444 3394 1641 3394 
Q 1925 3394 2219 3213 
L 2025 2691 
Q 1819 2813 1613 2813 
Q 1428 2813 1281 2702 
Q 1134 2591 1072 2394 
Q 978 2094 978 1738 
L 978 0 
L 416 0 
z
" transform="scale(0.015625)"/>
       <path id="ArialMT-65" d="M 2694 1069 
L 3275 997 
Q 3138 488 2766 206 
Q 2394 -75 1816 -75 
Q 1088 -75 661 373 
Q 234 822 234 1631 
Q 234 2469 665 2931 
Q 1097 3394 1784 3394 
Q 2450 3394 2872 2941 
Q 3294 2488 3294 1666 
Q 3294 1616 3291 1516 
L 816 1516 
Q 847 969 1125 678 
Q 1403 388 1819 388 
Q 2128 388 2347 550 
Q 2566 713 2694 1069 
z
M 847 1978 
L 2700 1978 
Q 2663 2397 2488 2606 
Q 2219 2931 1791 2931 
Q 1403 2931 1139 2672 
Q 875 2413 847 1978 
z
" transform="scale(0.015625)"/>
       <path id="ArialMT-61" d="M 2588 409 
Q 2275 144 1986 34 
Q 1697 -75 1366 -75 
Q 819 -75 525 192 
Q 231 459 231 875 
Q 231 1119 342 1320 
Q 453 1522 633 1644 
Q 813 1766 1038 1828 
Q 1203 1872 1538 1913 
Q 2219 1994 2541 2106 
Q 2544 2222 2544 2253 
Q 2544 2597 2384 2738 
Q 2169 2928 1744 2928 
Q 1347 2928 1158 2789 
Q 969 2650 878 2297 
L 328 2372 
Q 403 2725 575 2942 
Q 747 3159 1072 3276 
Q 1397 3394 1825 3394 
Q 2250 3394 2515 3294 
Q 2781 3194 2906 3042 
Q 3031 2891 3081 2659 
Q 3109 2516 3109 2141 
L 3109 1391 
Q 3109 606 3145 398 
Q 3181 191 3288 0 
L 2700 0 
Q 2613 175 2588 409 
z
M 2541 1666 
Q 2234 1541 1622 1453 
Q 1275 1403 1131 1340 
Q 988 1278 909 1158 
Q 831 1038 831 891 
Q 831 666 1001 516 
Q 1172 366 1500 366 
Q 1825 366 2078 508 
Q 2331 650 2450 897 
Q 2541 1088 2541 1459 
L 2541 1666 
z
" transform="scale(0.015625)"/>
       <path id="ArialMT-64" d="M 2575 0 
L 2575 419 
Q 2259 -75 1647 -75 
Q 1250 -75 917 144 
Q 584 363 401 755 
Q 219 1147 219 1656 
Q 219 2153 384 2558 
Q 550 2963 881 3178 
Q 1213 3394 1622 3394 
Q 1922 3394 2156 3267 
Q 2391 3141 2538 2938 
L 2538 4581 
L 3097 4581 
L 3097 0 
L 2575 0 
z
M 797 1656 
Q 797 1019 1065 703 
Q 1334 388 1700 388 
Q 2069 388 2326 689 
Q 2584 991 2584 1609 
Q 2584 2291 2321 2609 
Q 2059 2928 1675 2928 
Q 1300 2928 1048 2622 
Q 797 2316 797 1656 
z
" transform="scale(0.015625)"/>
       <path id="ArialMT-73" d="M 197 991 
L 753 1078 
Q 800 744 1014 566 
Q 1228 388 1613 388 
Q 2000 388 2187 545 
Q 2375 703 2375 916 
Q 2375 1106 2209 1216 
Q 2094 1291 1634 1406 
Q 1016 1563 777 1677 
Q 538 1791 414 1992 
Q 291 2194 291 2438 
Q 291 2659 392 2848 
Q 494 3038 669 3163 
Q 800 3259 1026 3326 
Q 1253 3394 1513 3394 
Q 1903 3394 2198 3281 
Q 2494 3169 2634 2976 
Q 2775 2784 2828 2463 
L 2278 2388 
Q 2241 2644 2061 2787 
Q 1881 2931 1553 2931 
Q 1166 2931 1000 2803 
Q 834 2675 834 2503 
Q 834 2394 903 2306 
Q 972 2216 1119 2156 
Q 1203 2125 1616 2013 
Q 2213 1853 2448 1751 
Q 2684 1650 2818 1456 
Q 2953 1263 2953 975 
Q 2953 694 2789 445 
Q 2625 197 2315 61 
Q 2006 -75 1616 -75 
Q 969 -75 630 194 
Q 291 463 197 991 
z
" transform="scale(0.015625)"/>
      </defs>
      <use xlink:href="#ArialMT-23"/>
      <use xlink:href="#ArialMT-54" transform="translate(55.615234 0)"/>
      <use xlink:href="#ArialMT-68" transform="translate(116.699219 0)"/>
      <use xlink:href="#ArialMT-72" transform="translate(172.314453 0)"/>
      <use xlink:href="#ArialMT-65" transform="translate(205.615234 0)"/>
      <use xlink:href="#ArialMT-61" transform="translate(261.230469 0)"/>
      <use xlink:href="#ArialMT-64" transform="translate(316.845703 0)"/>
      <use xlink:href="#ArialMT-73" transform="translate(372.460938 0)"/>
     </g>
    </g>
   </g>
   <g id="matplotlib.axis_2">
    <g id="ytick_1">
     <g id="line2d_9">
      <path d="M 66.83292 291.867382 
L 489.310905 291.867382 
" clip-path="url(#p735bb53379)" style="fill: none; stroke: #cccccc; stroke-width: 0.8; stroke-linecap: round"/>
     </g>
     <g id="text_10">
      <!-- $\mathdefault{10^{0}}$ -->
      <g style="fill: #262626" transform="translate(35.04572 299.581132) scale(0.1496 -0.1496)">
       <defs>
        <path id="ArialMT-30" d="M 266 2259 
Q 266 3072 433 3567 
Q 600 4063 929 4331 
Q 1259 4600 1759 4600 
Q 2128 4600 2406 4451 
Q 2684 4303 2865 4023 
Q 3047 3744 3150 3342 
Q 3253 2941 3253 2259 
Q 3253 1453 3087 958 
Q 2922 463 2592 192 
Q 2263 -78 1759 -78 
Q 1097 -78 719 397 
Q 266 969 266 2259 
z
M 844 2259 
Q 844 1131 1108 757 
Q 1372 384 1759 384 
Q 2147 384 2411 759 
Q 2675 1134 2675 2259 
Q 2675 3391 2411 3762 
Q 2147 4134 1753 4134 
Q 1366 4134 1134 3806 
Q 844 3388 844 2259 
z
" transform="scale(0.015625)"/>
       </defs>
       <use xlink:href="#ArialMT-31" transform="translate(0 0.99375)"/>
       <use xlink:href="#ArialMT-30" transform="translate(55.615234 0.99375)"/>
       <use xlink:href="#ArialMT-30" transform="translate(112.972813 70.6875) scale(0.7)"/>
      </g>
     </g>
    </g>
    <g id="ytick_2">
     <g id="line2d_10">
      <path d="M 66.83292 195.749593 
L 489.310905 195.749593 
" clip-path="url(#p735bb53379)" style="fill: none; stroke: #cccccc; stroke-width: 0.8; stroke-linecap: round"/>
     </g>
     <g id="text_11">
      <!-- $\mathdefault{10^{1}}$ -->
      <g style="fill: #262626" transform="translate(35.04572 203.463343) scale(0.1496 -0.1496)">
       <use xlink:href="#ArialMT-31" transform="translate(0 0.99375)"/>
       <use xlink:href="#ArialMT-30" transform="translate(55.615234 0.99375)"/>
       <use xlink:href="#ArialMT-31" transform="translate(112.972813 70.6875) scale(0.7)"/>
      </g>
     </g>
    </g>
    <g id="ytick_3">
     <g id="line2d_11">
      <path d="M 66.83292 99.631803 
L 489.310905 99.631803 
" clip-path="url(#p735bb53379)" style="fill: none; stroke: #cccccc; stroke-width: 0.8; stroke-linecap: round"/>
     </g>
     <g id="text_12">
      <!-- $\mathdefault{10^{2}}$ -->
      <g style="fill: #262626" transform="translate(35.04572 107.345553) scale(0.1496 -0.1496)">
       <use xlink:href="#ArialMT-31" transform="translate(0 0.99375)"/>
       <use xlink:href="#ArialMT-30" transform="translate(55.615234 0.99375)"/>
       <use xlink:href="#ArialMT-32" transform="translate(112.972813 70.6875) scale(0.7)"/>
      </g>
     </g>
    </g>
    <g id="ytick_4"/>
    <g id="ytick_5"/>
    <g id="ytick_6"/>
    <g id="ytick_7"/>
    <g id="ytick_8"/>
    <g id="ytick_9"/>
    <g id="ytick_10"/>
    <g id="ytick_11"/>
    <g id="ytick_12"/>
    <g id="ytick_13"/>
    <g id="ytick_14"/>
    <g id="ytick_15"/>
    <g id="ytick_16"/>
    <g id="ytick_17"/>
    <g id="ytick_18"/>
    <g id="ytick_19"/>
    <g id="ytick_20"/>
    <g id="ytick_21"/>
    <g id="text_13">
     <!-- Speedup w.r.t Assembly Bandwidth -->
     <g style="fill: #262626" transform="translate(27.61087 317.60505) rotate(-90) scale(0.1632 -0.1632)">
      <defs>
       <path id="ArialMT-53" d="M 288 1472 
L 859 1522 
Q 900 1178 1048 958 
Q 1197 738 1509 602 
Q 1822 466 2213 466 
Q 2559 466 2825 569 
Q 3091 672 3220 851 
Q 3350 1031 3350 1244 
Q 3350 1459 3225 1620 
Q 3100 1781 2813 1891 
Q 2628 1963 1997 2114 
Q 1366 2266 1113 2400 
Q 784 2572 623 2826 
Q 463 3081 463 3397 
Q 463 3744 659 4045 
Q 856 4347 1234 4503 
Q 1613 4659 2075 4659 
Q 2584 4659 2973 4495 
Q 3363 4331 3572 4012 
Q 3781 3694 3797 3291 
L 3216 3247 
Q 3169 3681 2898 3903 
Q 2628 4125 2100 4125 
Q 1550 4125 1298 3923 
Q 1047 3722 1047 3438 
Q 1047 3191 1225 3031 
Q 1400 2872 2139 2705 
Q 2878 2538 3153 2413 
Q 3553 2228 3743 1945 
Q 3934 1663 3934 1294 
Q 3934 928 3725 604 
Q 3516 281 3123 101 
Q 2731 -78 2241 -78 
Q 1619 -78 1198 103 
Q 778 284 539 648 
Q 300 1013 288 1472 
z
" transform="scale(0.015625)"/>
       <path id="ArialMT-70" d="M 422 -1272 
L 422 3319 
L 934 3319 
L 934 2888 
Q 1116 3141 1344 3267 
Q 1572 3394 1897 3394 
Q 2322 3394 2647 3175 
Q 2972 2956 3137 2557 
Q 3303 2159 3303 1684 
Q 3303 1175 3120 767 
Q 2938 359 2589 142 
Q 2241 -75 1856 -75 
Q 1575 -75 1351 44 
Q 1128 163 984 344 
L 984 -1272 
L 422 -1272 
z
M 931 1641 
Q 931 1000 1190 694 
Q 1450 388 1819 388 
Q 2194 388 2461 705 
Q 2728 1022 2728 1688 
Q 2728 2322 2467 2637 
Q 2206 2953 1844 2953 
Q 1484 2953 1207 2617 
Q 931 2281 931 1641 
z
" transform="scale(0.015625)"/>
       <path id="ArialMT-75" d="M 2597 0 
L 2597 488 
Q 2209 -75 1544 -75 
Q 1250 -75 995 37 
Q 741 150 617 320 
Q 494 491 444 738 
Q 409 903 409 1263 
L 409 3319 
L 972 3319 
L 972 1478 
Q 972 1038 1006 884 
Q 1059 663 1231 536 
Q 1403 409 1656 409 
Q 1909 409 2131 539 
Q 2353 669 2445 892 
Q 2538 1116 2538 1541 
L 2538 3319 
L 3100 3319 
L 3100 0 
L 2597 0 
z
" transform="scale(0.015625)"/>
       <path id="ArialMT-20" transform="scale(0.015625)"/>
       <path id="ArialMT-77" d="M 1034 0 
L 19 3319 
L 600 3319 
L 1128 1403 
L 1325 691 
Q 1338 744 1497 1375 
L 2025 3319 
L 2603 3319 
L 3100 1394 
L 3266 759 
L 3456 1400 
L 4025 3319 
L 4572 3319 
L 3534 0 
L 2950 0 
L 2422 1988 
L 2294 2553 
L 1622 0 
L 1034 0 
z
" transform="scale(0.015625)"/>
       <path id="ArialMT-2e" d="M 581 0 
L 581 641 
L 1222 641 
L 1222 0 
L 581 0 
z
" transform="scale(0.015625)"/>
       <path id="ArialMT-74" d="M 1650 503 
L 1731 6 
Q 1494 -44 1306 -44 
Q 1000 -44 831 53 
Q 663 150 594 308 
Q 525 466 525 972 
L 525 2881 
L 113 2881 
L 113 3319 
L 525 3319 
L 525 4141 
L 1084 4478 
L 1084 3319 
L 1650 3319 
L 1650 2881 
L 1084 2881 
L 1084 941 
Q 1084 700 1114 631 
Q 1144 563 1211 522 
Q 1278 481 1403 481 
Q 1497 481 1650 503 
z
" transform="scale(0.015625)"/>
       <path id="ArialMT-41" d="M -9 0 
L 1750 4581 
L 2403 4581 
L 4278 0 
L 3588 0 
L 3053 1388 
L 1138 1388 
L 634 0 
L -9 0 
z
M 1313 1881 
L 2866 1881 
L 2388 3150 
Q 2169 3728 2063 4100 
Q 1975 3659 1816 3225 
L 1313 1881 
z
" transform="scale(0.015625)"/>
       <path id="ArialMT-6d" d="M 422 0 
L 422 3319 
L 925 3319 
L 925 2853 
Q 1081 3097 1340 3245 
Q 1600 3394 1931 3394 
Q 2300 3394 2536 3241 
Q 2772 3088 2869 2813 
Q 3263 3394 3894 3394 
Q 4388 3394 4653 3120 
Q 4919 2847 4919 2278 
L 4919 0 
L 4359 0 
L 4359 2091 
Q 4359 2428 4304 2576 
Q 4250 2725 4106 2815 
Q 3963 2906 3769 2906 
Q 3419 2906 3187 2673 
Q 2956 2441 2956 1928 
L 2956 0 
L 2394 0 
L 2394 2156 
Q 2394 2531 2256 2718 
Q 2119 2906 1806 2906 
Q 1569 2906 1367 2781 
Q 1166 2656 1075 2415 
Q 984 2175 984 1722 
L 984 0 
L 422 0 
z
" transform="scale(0.015625)"/>
       <path id="ArialMT-62" d="M 941 0 
L 419 0 
L 419 4581 
L 981 4581 
L 981 2947 
Q 1338 3394 1891 3394 
Q 2197 3394 2470 3270 
Q 2744 3147 2920 2923 
Q 3097 2700 3197 2384 
Q 3297 2069 3297 1709 
Q 3297 856 2875 390 
Q 2453 -75 1863 -75 
Q 1275 -75 941 416 
L 941 0 
z
M 934 1684 
Q 934 1088 1097 822 
Q 1363 388 1816 388 
Q 2184 388 2453 708 
Q 2722 1028 2722 1663 
Q 2722 2313 2464 2622 
Q 2206 2931 1841 2931 
Q 1472 2931 1203 2611 
Q 934 2291 934 1684 
z
" transform="scale(0.015625)"/>
       <path id="ArialMT-6c" d="M 409 0 
L 409 4581 
L 972 4581 
L 972 0 
L 409 0 
z
" transform="scale(0.015625)"/>
       <path id="ArialMT-79" d="M 397 -1278 
L 334 -750 
Q 519 -800 656 -800 
Q 844 -800 956 -737 
Q 1069 -675 1141 -563 
Q 1194 -478 1313 -144 
Q 1328 -97 1363 -6 
L 103 3319 
L 709 3319 
L 1400 1397 
Q 1534 1031 1641 628 
Q 1738 1016 1872 1384 
L 2581 3319 
L 3144 3319 
L 1881 -56 
Q 1678 -603 1566 -809 
Q 1416 -1088 1222 -1217 
Q 1028 -1347 759 -1347 
Q 597 -1347 397 -1278 
z
" transform="scale(0.015625)"/>
       <path id="ArialMT-42" d="M 469 0 
L 469 4581 
L 2188 4581 
Q 2713 4581 3030 4442 
Q 3347 4303 3526 4014 
Q 3706 3725 3706 3409 
Q 3706 3116 3547 2856 
Q 3388 2597 3066 2438 
Q 3481 2316 3704 2022 
Q 3928 1728 3928 1328 
Q 3928 1006 3792 729 
Q 3656 453 3456 303 
Q 3256 153 2954 76 
Q 2653 0 2216 0 
L 469 0 
z
M 1075 2656 
L 2066 2656 
Q 2469 2656 2644 2709 
Q 2875 2778 2992 2937 
Q 3109 3097 3109 3338 
Q 3109 3566 3000 3739 
Q 2891 3913 2687 3977 
Q 2484 4041 1991 4041 
L 1075 4041 
L 1075 2656 
z
M 1075 541 
L 2216 541 
Q 2509 541 2628 563 
Q 2838 600 2978 687 
Q 3119 775 3209 942 
Q 3300 1109 3300 1328 
Q 3300 1584 3169 1773 
Q 3038 1963 2805 2039 
Q 2572 2116 2134 2116 
L 1075 2116 
L 1075 541 
z
" transform="scale(0.015625)"/>
       <path id="ArialMT-6e" d="M 422 0 
L 422 3319 
L 928 3319 
L 928 2847 
Q 1294 3394 1984 3394 
Q 2284 3394 2536 3286 
Q 2788 3178 2913 3003 
Q 3038 2828 3088 2588 
Q 3119 2431 3119 2041 
L 3119 0 
L 2556 0 
L 2556 2019 
Q 2556 2363 2490 2533 
Q 2425 2703 2258 2804 
Q 2091 2906 1866 2906 
Q 1506 2906 1245 2678 
Q 984 2450 984 1813 
L 984 0 
L 422 0 
z
" transform="scale(0.015625)"/>
       <path id="ArialMT-69" d="M 425 3934 
L 425 4581 
L 988 4581 
L 988 3934 
L 425 3934 
z
M 425 0 
L 425 3319 
L 988 3319 
L 988 0 
L 425 0 
z
" transform="scale(0.015625)"/>
      </defs>
      <use xlink:href="#ArialMT-53"/>
      <use xlink:href="#ArialMT-70" transform="translate(66.699219 0)"/>
      <use xlink:href="#ArialMT-65" transform="translate(122.314453 0)"/>
      <use xlink:href="#ArialMT-65" transform="translate(177.929688 0)"/>
      <use xlink:href="#ArialMT-64" transform="translate(233.544922 0)"/>
      <use xlink:href="#ArialMT-75" transform="translate(289.160156 0)"/>
      <use xlink:href="#ArialMT-70" transform="translate(344.775391 0)"/>
      <use xlink:href="#ArialMT-20" transform="translate(400.390625 0)"/>
      <use xlink:href="#ArialMT-77" transform="translate(428.173828 0)"/>
      <use xlink:href="#ArialMT-2e" transform="translate(494.890625 0)"/>
      <use xlink:href="#ArialMT-72" transform="translate(522.673828 0)"/>
      <use xlink:href="#ArialMT-2e" transform="translate(550.474609 0)"/>
      <use xlink:href="#ArialMT-74" transform="translate(578.257812 0)"/>
      <use xlink:href="#ArialMT-20" transform="translate(606.041016 0)"/>
      <use xlink:href="#ArialMT-41" transform="translate(628.324219 0)"/>
      <use xlink:href="#ArialMT-73" transform="translate(695.023438 0)"/>
      <use xlink:href="#ArialMT-73" transform="translate(745.023438 0)"/>
      <use xlink:href="#ArialMT-65" transform="translate(795.023438 0)"/>
      <use xlink:href="#ArialMT-6d" transform="translate(850.638672 0)"/>
      <use xlink:href="#ArialMT-62" transform="translate(933.939453 0)"/>
      <use xlink:href="#ArialMT-6c" transform="translate(989.554688 0)"/>
      <use xlink:href="#ArialMT-79" transform="translate(1011.771484 0)"/>
      <use xlink:href="#ArialMT-20" transform="translate(1061.771484 0)"/>
      <use xlink:href="#ArialMT-42" transform="translate(1089.554688 0)"/>
      <use xlink:href="#ArialMT-61" transform="translate(1156.253906 0)"/>
      <use xlink:href="#ArialMT-6e" transform="translate(1211.869141 0)"/>
      <use xlink:href="#ArialMT-64" transform="translate(1267.484375 0)"/>
      <use xlink:href="#ArialMT-77" transform="translate(1323.099609 0)"/>
      <use xlink:href="#ArialMT-69" transform="translate(1395.316406 0)"/>
      <use xlink:href="#ArialMT-64" transform="translate(1417.533203 0)"/>
      <use xlink:href="#ArialMT-74" transform="translate(1473.148438 0)"/>
      <use xlink:href="#ArialMT-68" transform="translate(1500.931641 0)"/>
     </g>
    </g>
   </g>
   <g id="FillBetweenPolyCollection_1"/>
   <g id="FillBetweenPolyCollection_2"/>
   <g id="FillBetweenPolyCollection_3"/>
   <g id="FillBetweenPolyCollection_4"/>
   <g id="FillBetweenPolyCollection_5"/>
   <g id="FillBetweenPolyCollection_6"/>
   <g id="FillBetweenPolyCollection_7"/>
   <g id="FillBetweenPolyCollection_8"/>
   <g id="line2d_12">
    <path d="M 83.509683 291.867382 
L 139.098891 226.323925 
L 194.6881 209.181187 
L 250.277308 191.674883 
L 305.866517 178.49943 
L 361.455725 170.558558 
L 417.044934 162.969651 
L 472.634143 192.161437 
" clip-path="url(#p735bb53379)" style="fill: none; stroke: #4c72b0; stroke-width: 1.2; stroke-linecap: round"/>
    <defs>
     <path id="mf72282a2ea" d="M 0 6 
C 1.591219 6 3.117479 5.367802 4.242641 4.242641 
C 5.367802 3.117479 6 1.591219 6 0 
C 6 -1.591219 5.367802 -3.117479 4.242641 -4.242641 
C 3.117479 -5.367802 1.591219 -6 0 -6 
C -1.591219 -6 -3.117479 -5.367802 -4.242641 -4.242641 
C -5.367802 -3.117479 -6 -1.591219 -6 0 
C -6 1.591219 -5.367802 3.117479 -4.242641 4.242641 
C -3.117479 5.367802 -1.591219 6 0 6 
z
" style="stroke: #ffffff; stroke-width: 0.75"/>
    </defs>
    <g clip-path="url(#p735bb53379)">
     <use xlink:href="#mf72282a2ea" x="83.509683" y="291.867382" style="fill: #4c72b0; stroke: #ffffff; stroke-width: 0.75"/>
     <use xlink:href="#mf72282a2ea" x="139.098891" y="226.323925" style="fill: #4c72b0; stroke: #ffffff; stroke-width: 0.75"/>
     <use xlink:href="#mf72282a2ea" x="194.6881" y="209.181187" style="fill: #4c72b0; stroke: #ffffff; stroke-width: 0.75"/>
     <use xlink:href="#mf72282a2ea" x="250.277308" y="191.674883" style="fill: #4c72b0; stroke: #ffffff; stroke-width: 0.75"/>
     <use xlink:href="#mf72282a2ea" x="305.866517" y="178.49943" style="fill: #4c72b0; stroke: #ffffff; stroke-width: 0.75"/>
     <use xlink:href="#mf72282a2ea" x="361.455725" y="170.558558" style="fill: #4c72b0; stroke: #ffffff; stroke-width: 0.75"/>
     <use xlink:href="#mf72282a2ea" x="417.044934" y="162.969651" style="fill: #4c72b0; stroke: #ffffff; stroke-width: 0.75"/>
     <use xlink:href="#mf72282a2ea" x="472.634143" y="192.161437" style="fill: #4c72b0; stroke: #ffffff; stroke-width: 0.75"/>
    </g>
   </g>
   <g id="line2d_13">
    <path d="M 83.509683 291.867382 
L 139.098891 270.650582 
L 194.6881 247.834328 
L 250.277308 222.218075 
L 305.866517 202.47126 
L 361.455725 190.599573 
L 417.044934 192.457556 
L 472.634143 225.611603 
" clip-path="url(#p735bb53379)" style="fill: none; stroke-dasharray: 4.8,1.8; stroke-dashoffset: 0; stroke: #dd8452; stroke-width: 1.2"/>
    <defs>
     <path id="m17ad5a8881" d="M -3 6 
L 0 3 
L 3 6 
L 6 3 
L 3 0 
L 6 -3 
L 3 -6 
L 0 -3 
L -3 -6 
L -6 -3 
L -3 0 
L -6 3 
z
" style="stroke: #ffffff; stroke-width: 0.75; stroke-linejoin: miter"/>
    </defs>
    <g clip-path="url(#p735bb53379)">
     <use xlink:href="#m17ad5a8881" x="83.509683" y="291.867382" style="fill: #dd8452; stroke: #ffffff; stroke-width: 0.75; stroke-linejoin: miter"/>
     <use xlink:href="#m17ad5a8881" x="139.098891" y="270.650582" style="fill: #dd8452; stroke: #ffffff; stroke-width: 0.75; stroke-linejoin: miter"/>
     <use xlink:href="#m17ad5a8881" x="194.6881" y="247.834328" style="fill: #dd8452; stroke: #ffffff; stroke-width: 0.75; stroke-linejoin: miter"/>
     <use xlink:href="#m17ad5a8881" x="250.277308" y="222.218075" style="fill: #dd8452; stroke: #ffffff; stroke-width: 0.75; stroke-linejoin: miter"/>
     <use xlink:href="#m17ad5a8881" x="305.866517" y="202.47126" style="fill: #dd8452; stroke: #ffffff; stroke-width: 0.75; stroke-linejoin: miter"/>
     <use xlink:href="#m17ad5a8881" x="361.455725" y="190.599573" style="fill: #dd8452; stroke: #ffffff; stroke-width: 0.75; stroke-linejoin: miter"/>
     <use xlink:href="#m17ad5a8881" x="417.044934" y="192.457556" style="fill: #dd8452; stroke: #ffffff; stroke-width: 0.75; stroke-linejoin: miter"/>
     <use xlink:href="#m17ad5a8881" x="472.634143" y="225.611603" style="fill: #dd8452; stroke: #ffffff; stroke-width: 0.75; stroke-linejoin: miter"/>
    </g>
   </g>
   <g id="line2d_14">
    <path d="M 83.509683 291.867382 
L 139.098891 263.500837 
L 194.6881 241.304187 
L 250.277308 219.342836 
L 305.866517 204.000552 
L 361.455725 196.583314 
L 417.044934 176.749915 
L 472.634143 181.921626 
" clip-path="url(#p735bb53379)" style="fill: none; stroke-dasharray: 1.2,1.2; stroke-dashoffset: 0; stroke: #55a868; stroke-width: 1.2"/>
    <defs>
     <path id="mf52731acd7" d="M -4.242641 -4.242641 
L -4.242641 4.242641 
L 4.242641 4.242641 
L 4.242641 -4.242641 
z
" style="stroke: #ffffff; stroke-width: 0.75; stroke-linejoin: miter"/>
    </defs>
    <g clip-path="url(#p735bb53379)">
     <use xlink:href="#mf52731acd7" x="83.509683" y="291.867382" style="fill: #55a868; stroke: #ffffff; stroke-width: 0.75; stroke-linejoin: miter"/>
     <use xlink:href="#mf52731acd7" x="139.098891" y="263.500837" style="fill: #55a868; stroke: #ffffff; stroke-width: 0.75; stroke-linejoin: miter"/>
     <use xlink:href="#mf52731acd7" x="194.6881" y="241.304187" style="fill: #55a868; stroke: #ffffff; stroke-width: 0.75; stroke-linejoin: miter"/>
     <use xlink:href="#mf52731acd7" x="250.277308" y="219.342836" style="fill: #55a868; stroke: #ffffff; stroke-width: 0.75; stroke-linejoin: miter"/>
     <use xlink:href="#mf52731acd7" x="305.866517" y="204.000552" style="fill: #55a868; stroke: #ffffff; stroke-width: 0.75; stroke-linejoin: miter"/>
     <use xlink:href="#mf52731acd7" x="361.455725" y="196.583314" style="fill: #55a868; stroke: #ffffff; stroke-width: 0.75; stroke-linejoin: miter"/>
     <use xlink:href="#mf52731acd7" x="417.044934" y="176.749915" style="fill: #55a868; stroke: #ffffff; stroke-width: 0.75; stroke-linejoin: miter"/>
     <use xlink:href="#mf52731acd7" x="472.634143" y="181.921626" style="fill: #55a868; stroke: #ffffff; stroke-width: 0.75; stroke-linejoin: miter"/>
    </g>
   </g>
   <g id="line2d_15">
    <path d="M 83.509683 291.867382 
L 139.098891 278.367142 
L 194.6881 259.266588 
L 250.277308 233.129428 
L 305.866517 206.733312 
L 361.455725 184.685319 
L 417.044934 175.02379 
L 472.634143 170.604188 
" clip-path="url(#p735bb53379)" style="fill: none; stroke-dasharray: 3.6,1.5,1.8,1.5; stroke-dashoffset: 0; stroke: #c44e52; stroke-width: 1.2"/>
    <defs>
     <path id="m79b3f6192b" d="M -2 6 
L 2 6 
L 2 2 
L 6 2 
L 6 -2 
L 2 -2 
L 2 -6 
L -2 -6 
L -2 -2 
L -6 -2 
L -6 2 
L -2 2 
z
" style="stroke: #ffffff; stroke-width: 0.75; stroke-linejoin: miter"/>
    </defs>
    <g clip-path="url(#p735bb53379)">
     <use xlink:href="#m79b3f6192b" x="83.509683" y="291.867382" style="fill: #c44e52; stroke: #ffffff; stroke-width: 0.75; stroke-linejoin: miter"/>
     <use xlink:href="#m79b3f6192b" x="139.098891" y="278.367142" style="fill: #c44e52; stroke: #ffffff; stroke-width: 0.75; stroke-linejoin: miter"/>
     <use xlink:href="#m79b3f6192b" x="194.6881" y="259.266588" style="fill: #c44e52; stroke: #ffffff; stroke-width: 0.75; stroke-linejoin: miter"/>
     <use xlink:href="#m79b3f6192b" x="250.277308" y="233.129428" style="fill: #c44e52; stroke: #ffffff; stroke-width: 0.75; stroke-linejoin: miter"/>
     <use xlink:href="#m79b3f6192b" x="305.866517" y="206.733312" style="fill: #c44e52; stroke: #ffffff; stroke-width: 0.75; stroke-linejoin: miter"/>
     <use xlink:href="#m79b3f6192b" x="361.455725" y="184.685319" style="fill: #c44e52; stroke: #ffffff; stroke-width: 0.75; stroke-linejoin: miter"/>
     <use xlink:href="#m79b3f6192b" x="417.044934" y="175.02379" style="fill: #c44e52; stroke: #ffffff; stroke-width: 0.75; stroke-linejoin: miter"/>
     <use xlink:href="#m79b3f6192b" x="472.634143" y="170.604188" style="fill: #c44e52; stroke: #ffffff; stroke-width: 0.75; stroke-linejoin: miter"/>
    </g>
   </g>
   <g id="line2d_16">
    <path d="M 83.509683 291.867382 
L 139.098891 270.608243 
L 194.6881 245.386335 
L 250.277308 219.089571 
L 305.866517 199.229356 
L 361.455725 185.8062 
L 417.044934 185.724492 
L 472.634143 187.878567 
" clip-path="url(#p735bb53379)" style="fill: none; stroke-dasharray: 6,1.2,1.2,1.2; stroke-dashoffset: 0; stroke: #8172b3; stroke-width: 1.2"/>
    <defs>
     <path id="m29fe423751" d="M 0 -6 
L -6 -0 
L -0 6 
L 6 0 
z
" style="stroke: #ffffff; stroke-width: 0.75; stroke-linejoin: miter"/>
    </defs>
    <g clip-path="url(#p735bb53379)">
     <use xlink:href="#m29fe423751" x="83.509683" y="291.867382" style="fill: #8172b3; stroke: #ffffff; stroke-width: 0.75; stroke-linejoin: miter"/>
     <use xlink:href="#m29fe423751" x="139.098891" y="270.608243" style="fill: #8172b3; stroke: #ffffff; stroke-width: 0.75; stroke-linejoin: miter"/>
     <use xlink:href="#m29fe423751" x="194.6881" y="245.386335" style="fill: #8172b3; stroke: #ffffff; stroke-width: 0.75; stroke-linejoin: miter"/>
     <use xlink:href="#m29fe423751" x="250.277308" y="219.089571" style="fill: #8172b3; stroke: #ffffff; stroke-width: 0.75; stroke-linejoin: miter"/>
     <use xlink:href="#m29fe423751" x="305.866517" y="199.229356" style="fill: #8172b3; stroke: #ffffff; stroke-width: 0.75; stroke-linejoin: miter"/>
     <use xlink:href="#m29fe423751" x="361.455725" y="185.8062" style="fill: #8172b3; stroke: #ffffff; stroke-width: 0.75; stroke-linejoin: miter"/>
     <use xlink:href="#m29fe423751" x="417.044934" y="185.724492" style="fill: #8172b3; stroke: #ffffff; stroke-width: 0.75; stroke-linejoin: miter"/>
     <use xlink:href="#m29fe423751" x="472.634143" y="187.878567" style="fill: #8172b3; stroke: #ffffff; stroke-width: 0.75; stroke-linejoin: miter"/>
    </g>
   </g>
   <g id="line2d_17">
    <path d="M 83.509683 291.867382 
L 139.098891 278.637208 
L 194.6881 258.73866 
L 250.277308 232.776037 
L 305.866517 206.251003 
L 361.455725 182.630089 
L 417.044934 171.02732 
L 472.634143 165.113548 
" clip-path="url(#p735bb53379)" style="fill: none; stroke-dasharray: 3.6,1.5,1.5,1.5,1.5,1.5; stroke-dashoffset: 0; stroke: #937860; stroke-width: 1.2"/>
    <defs>
     <path id="m0d7443712f" d="M 0 -6 
L -2.12132 -2.12132 
L -6 -0 
L -2.12132 2.12132 
L -0 6 
L 2.12132 2.12132 
L 6 0 
L 2.12132 -2.12132 
z
" style="stroke: #ffffff; stroke-width: 0.75; stroke-linejoin: bevel"/>
    </defs>
    <g clip-path="url(#p735bb53379)">
     <use xlink:href="#m0d7443712f" x="83.509683" y="291.867382" style="fill: #937860; stroke: #ffffff; stroke-width: 0.75; stroke-linejoin: bevel"/>
     <use xlink:href="#m0d7443712f" x="139.098891" y="278.637208" style="fill: #937860; stroke: #ffffff; stroke-width: 0.75; stroke-linejoin: bevel"/>
     <use xlink:href="#m0d7443712f" x="194.6881" y="258.73866" style="fill: #937860; stroke: #ffffff; stroke-width: 0.75; stroke-linejoin: bevel"/>
     <use xlink:href="#m0d7443712f" x="250.277308" y="232.776037" style="fill: #937860; stroke: #ffffff; stroke-width: 0.75; stroke-linejoin: bevel"/>
     <use xlink:href="#m0d7443712f" x="305.866517" y="206.251003" style="fill: #937860; stroke: #ffffff; stroke-width: 0.75; stroke-linejoin: bevel"/>
     <use xlink:href="#m0d7443712f" x="361.455725" y="182.630089" style="fill: #937860; stroke: #ffffff; stroke-width: 0.75; stroke-linejoin: bevel"/>
     <use xlink:href="#m0d7443712f" x="417.044934" y="171.02732" style="fill: #937860; stroke: #ffffff; stroke-width: 0.75; stroke-linejoin: bevel"/>
     <use xlink:href="#m0d7443712f" x="472.634143" y="165.113548" style="fill: #937860; stroke: #ffffff; stroke-width: 0.75; stroke-linejoin: bevel"/>
    </g>
   </g>
   <g id="line2d_18">
    <path d="M 83.509683 291.867382 
L 139.098891 266.019951 
L 194.6881 243.220512 
L 250.277308 224.197869 
L 305.866517 210.152366 
L 361.455725 203.349503 
L 417.044934 192.999672 
L 472.634143 208.666708 
" clip-path="url(#p735bb53379)" style="fill: none; stroke-dasharray: 4.8,1.2,4.8,1.2,1.2,1.2; stroke-dashoffset: 0; stroke: #da8bc3; stroke-width: 1.2"/>
    <defs>
     <path id="m8969043848" d="M 0 -6 
L -6 6 
L 6 6 
z
" style="stroke: #ffffff; stroke-width: 0.75; stroke-linejoin: miter"/>
    </defs>
    <g clip-path="url(#p735bb53379)">
     <use xlink:href="#m8969043848" x="83.509683" y="291.867382" style="fill: #da8bc3; stroke: #ffffff; stroke-width: 0.75; stroke-linejoin: miter"/>
     <use xlink:href="#m8969043848" x="139.098891" y="266.019951" style="fill: #da8bc3; stroke: #ffffff; stroke-width: 0.75; stroke-linejoin: miter"/>
     <use xlink:href="#m8969043848" x="194.6881" y="243.220512" style="fill: #da8bc3; stroke: #ffffff; stroke-width: 0.75; stroke-linejoin: miter"/>
     <use xlink:href="#m8969043848" x="250.277308" y="224.197869" style="fill: #da8bc3; stroke: #ffffff; stroke-width: 0.75; stroke-linejoin: miter"/>
     <use xlink:href="#m8969043848" x="305.866517" y="210.152366" style="fill: #da8bc3; stroke: #ffffff; stroke-width: 0.75; stroke-linejoin: miter"/>
     <use xlink:href="#m8969043848" x="361.455725" y="203.349503" style="fill: #da8bc3; stroke: #ffffff; stroke-width: 0.75; stroke-linejoin: miter"/>
     <use xlink:href="#m8969043848" x="417.044934" y="192.999672" style="fill: #da8bc3; stroke: #ffffff; stroke-width: 0.75; stroke-linejoin: miter"/>
     <use xlink:href="#m8969043848" x="472.634143" y="208.666708" style="fill: #da8bc3; stroke: #ffffff; stroke-width: 0.75; stroke-linejoin: miter"/>
    </g>
   </g>
   <g id="line2d_19">
    <path d="M 83.509683 291.867382 
L 139.098891 277.779791 
L 194.6881 260.107117 
L 250.277308 234.214114 
L 305.866517 209.506099 
L 361.455725 191.343552 
L 417.044934 182.671204 
L 472.634143 179.72385 
" clip-path="url(#p735bb53379)" style="fill: none; stroke-dasharray: 3.6,1.5,3.6,1.5,1.5,1.5; stroke-dashoffset: 0; stroke: #8c8c8c; stroke-width: 1.2"/>
    <defs>
     <path id="ma12cc9cdc7" d="M -4.242641 -4.242641 
L -3 -0 
L -4.242641 4.242641 
L -0 3 
L 4.242641 4.242641 
L 3 0 
L 4.242641 -4.242641 
L 0 -3 
z
" style="stroke: #ffffff; stroke-width: 0.75; stroke-linejoin: bevel"/>
    </defs>
    <g clip-path="url(#p735bb53379)">
     <use xlink:href="#ma12cc9cdc7" x="83.509683" y="291.867382" style="fill: #8c8c8c; stroke: #ffffff; stroke-width: 0.75; stroke-linejoin: bevel"/>
     <use xlink:href="#ma12cc9cdc7" x="139.098891" y="277.779791" style="fill: #8c8c8c; stroke: #ffffff; stroke-width: 0.75; stroke-linejoin: bevel"/>
     <use xlink:href="#ma12cc9cdc7" x="194.6881" y="260.107117" style="fill: #8c8c8c; stroke: #ffffff; stroke-width: 0.75; stroke-linejoin: bevel"/>
     <use xlink:href="#ma12cc9cdc7" x="250.277308" y="234.214114" style="fill: #8c8c8c; stroke: #ffffff; stroke-width: 0.75; stroke-linejoin: bevel"/>
     <use xlink:href="#ma12cc9cdc7" x="305.866517" y="209.506099" style="fill: #8c8c8c; stroke: #ffffff; stroke-width: 0.75; stroke-linejoin: bevel"/>
     <use xlink:href="#ma12cc9cdc7" x="361.455725" y="191.343552" style="fill: #8c8c8c; stroke: #ffffff; stroke-width: 0.75; stroke-linejoin: bevel"/>
     <use xlink:href="#ma12cc9cdc7" x="417.044934" y="182.671204" style="fill: #8c8c8c; stroke: #ffffff; stroke-width: 0.75; stroke-linejoin: bevel"/>
     <use xlink:href="#ma12cc9cdc7" x="472.634143" y="179.72385" style="fill: #8c8c8c; stroke: #ffffff; stroke-width: 0.75; stroke-linejoin: bevel"/>
    </g>
   </g>
   <g id="line2d_20"/>
   <g id="line2d_21"/>
   <g id="line2d_22"/>
   <g id="line2d_23"/>
   <g id="line2d_24"/>
   <g id="line2d_25"/>
   <g id="line2d_26"/>
   <g id="line2d_27"/>
   <g id="line2d_28">
    <path d="M 83.509683 291.867382 
L 139.098891 262.933044 
L 194.6881 233.998706 
L 250.277308 205.064369 
L 305.866517 176.130031 
L 361.455725 147.195694 
L 417.044934 118.261356 
L 472.634143 89.327018 
" clip-path="url(#p735bb53379)" style="fill: none; stroke-dasharray: 5.55,2.4; stroke-dashoffset: 0; stroke: #000000; stroke-opacity: 0.5; stroke-width: 1.5"/>
   </g>
   <g id="patch_3">
    <path d="M 66.83292 301.9944 
L 66.83292 79.2 
" style="fill: none; stroke: #cccccc; stroke-linejoin: miter; stroke-linecap: square"/>
   </g>
   <g id="patch_4">
    <path d="M 66.83292 301.9944 
L 489.310905 301.9944 
" style="fill: none; stroke: #cccccc; stroke-linejoin: miter; stroke-linecap: square"/>
   </g>
   <g id="patch_5">
    <path d="M 74.31292 112.329388 
L 174.668808 112.329388 
L 174.668808 86.68 
L 74.31292 86.68 
z
" style="fill: #ffffff; stroke: #1a1a1a; stroke-width: 0.8; stroke-linejoin: miter"/>
   </g>
   <g id="text_14">
    <!-- INTEL XEON -->
    <g style="fill: #262626" transform="translate(80.29692 103.372088) scale(0.1496 -0.1496)">
     <defs>
      <path id="ArialMT-49" d="M 597 0 
L 597 4581 
L 1203 4581 
L 1203 0 
L 597 0 
z
" transform="scale(0.015625)"/>
      <path id="ArialMT-4e" d="M 488 0 
L 488 4581 
L 1109 4581 
L 3516 984 
L 3516 4581 
L 4097 4581 
L 4097 0 
L 3475 0 
L 1069 3600 
L 1069 0 
L 488 0 
z
" transform="scale(0.015625)"/>
      <path id="ArialMT-45" d="M 506 0 
L 506 4581 
L 3819 4581 
L 3819 4041 
L 1113 4041 
L 1113 2638 
L 3647 2638 
L 3647 2100 
L 1113 2100 
L 1113 541 
L 3925 541 
L 3925 0 
L 506 0 
z
" transform="scale(0.015625)"/>
      <path id="ArialMT-4c" d="M 469 0 
L 469 4581 
L 1075 4581 
L 1075 541 
L 3331 541 
L 3331 0 
L 469 0 
z
" transform="scale(0.015625)"/>
      <path id="ArialMT-58" d="M 28 0 
L 1800 2388 
L 238 4581 
L 959 4581 
L 1791 3406 
Q 2050 3041 2159 2844 
Q 2313 3094 2522 3366 
L 3444 4581 
L 4103 4581 
L 2494 2422 
L 4228 0 
L 3478 0 
L 2325 1634 
Q 2228 1775 2125 1941 
Q 1972 1691 1906 1597 
L 756 0 
L 28 0 
z
" transform="scale(0.015625)"/>
      <path id="ArialMT-4f" d="M 309 2231 
Q 309 3372 921 4017 
Q 1534 4663 2503 4663 
Q 3138 4663 3647 4359 
Q 4156 4056 4423 3514 
Q 4691 2972 4691 2284 
Q 4691 1588 4409 1038 
Q 4128 488 3612 205 
Q 3097 -78 2500 -78 
Q 1853 -78 1343 234 
Q 834 547 571 1087 
Q 309 1628 309 2231 
z
M 934 2222 
Q 934 1394 1379 917 
Q 1825 441 2497 441 
Q 3181 441 3623 922 
Q 4066 1403 4066 2288 
Q 4066 2847 3877 3264 
Q 3688 3681 3323 3911 
Q 2959 4141 2506 4141 
Q 1863 4141 1398 3698 
Q 934 3256 934 2222 
z
" transform="scale(0.015625)"/>
     </defs>
     <use xlink:href="#ArialMT-49"/>
     <use xlink:href="#ArialMT-4e" transform="translate(27.783203 0)"/>
     <use xlink:href="#ArialMT-54" transform="translate(100 0)"/>
     <use xlink:href="#ArialMT-45" transform="translate(161.083984 0)"/>
     <use xlink:href="#ArialMT-4c" transform="translate(227.783203 0)"/>
     <use xlink:href="#ArialMT-20" transform="translate(279.648438 0)"/>
     <use xlink:href="#ArialMT-58" transform="translate(307.431641 0)"/>
     <use xlink:href="#ArialMT-45" transform="translate(374.130859 0)"/>
     <use xlink:href="#ArialMT-4f" transform="translate(440.830078 0)"/>
     <use xlink:href="#ArialMT-4e" transform="translate(518.613281 0)"/>
    </g>
   </g>
  </g>
  <g id="axes_2">
   <g id="patch_6">
    <path d="M 513.182895 301.9944 
L 935.66088 301.9944 
L 935.66088 79.2 
L 513.182895 79.2 
z
" style="fill: #ffffff"/>
   </g>
   <g id="matplotlib.axis_3">
    <g id="xtick_9">
     <g id="line2d_29">
      <path d="M 529.859657 301.9944 
L 529.859657 79.2 
" clip-path="url(#p4c5eb3a994)" style="fill: none; stroke: #cccccc; stroke-width: 0.8; stroke-linecap: round"/>
     </g>
     <g id="text_15">
      <!-- 1 -->
      <g style="fill: #262626" transform="translate(525.700076 321.002488) scale(0.1496 -0.1496)">
       <use xlink:href="#ArialMT-31"/>
      </g>
     </g>
    </g>
    <g id="xtick_10">
     <g id="line2d_30">
      <path d="M 585.448866 301.9944 
L 585.448866 79.2 
" clip-path="url(#p4c5eb3a994)" style="fill: none; stroke: #cccccc; stroke-width: 0.8; stroke-linecap: round"/>
     </g>
     <g id="text_16">
      <!-- 2 -->
      <g style="fill: #262626" transform="translate(581.289285 321.002488) scale(0.1496 -0.1496)">
       <use xlink:href="#ArialMT-32"/>
      </g>
     </g>
    </g>
    <g id="xtick_11">
     <g id="line2d_31">
      <path d="M 641.038075 301.9944 
L 641.038075 79.2 
" clip-path="url(#p4c5eb3a994)" style="fill: none; stroke: #cccccc; stroke-width: 0.8; stroke-linecap: round"/>
     </g>
     <g id="text_17">
      <!-- 4 -->
      <g style="fill: #262626" transform="translate(636.878493 321.002488) scale(0.1496 -0.1496)">
       <use xlink:href="#ArialMT-34"/>
      </g>
     </g>
    </g>
    <g id="xtick_12">
     <g id="line2d_32">
      <path d="M 696.627283 301.9944 
L 696.627283 79.2 
" clip-path="url(#p4c5eb3a994)" style="fill: none; stroke: #cccccc; stroke-width: 0.8; stroke-linecap: round"/>
     </g>
     <g id="text_18">
      <!-- 8 -->
      <g style="fill: #262626" transform="translate(692.467702 321.002488) scale(0.1496 -0.1496)">
       <use xlink:href="#ArialMT-38"/>
      </g>
     </g>
    </g>
    <g id="xtick_13">
     <g id="line2d_33">
      <path d="M 752.216492 301.9944 
L 752.216492 79.2 
" clip-path="url(#p4c5eb3a994)" style="fill: none; stroke: #cccccc; stroke-width: 0.8; stroke-linecap: round"/>
     </g>
     <g id="text_19">
      <!-- 16 -->
      <g style="fill: #262626" transform="translate(743.897329 321.002488) scale(0.1496 -0.1496)">
       <use xlink:href="#ArialMT-31"/>
       <use xlink:href="#ArialMT-36" transform="translate(55.615234 0)"/>
      </g>
     </g>
    </g>
    <g id="xtick_14">
     <g id="line2d_34">
      <path d="M 807.8057 301.9944 
L 807.8057 79.2 
" clip-path="url(#p4c5eb3a994)" style="fill: none; stroke: #cccccc; stroke-width: 0.8; stroke-linecap: round"/>
     </g>
     <g id="text_20">
      <!-- 32 -->
      <g style="fill: #262626" transform="translate(799.486538 321.002488) scale(0.1496 -0.1496)">
       <use xlink:href="#ArialMT-33"/>
       <use xlink:href="#ArialMT-32" transform="translate(55.615234 0)"/>
      </g>
     </g>
    </g>
    <g id="xtick_15">
     <g id="line2d_35">
      <path d="M 863.394909 301.9944 
L 863.394909 79.2 
" clip-path="url(#p4c5eb3a994)" style="fill: none; stroke: #cccccc; stroke-width: 0.8; stroke-linecap: round"/>
     </g>
     <g id="text_21">
      <!-- 64 -->
      <g style="fill: #262626" transform="translate(855.075746 321.002488) scale(0.1496 -0.1496)">
       <use xlink:href="#ArialMT-36"/>
       <use xlink:href="#ArialMT-34" transform="translate(55.615234 0)"/>
      </g>
     </g>
    </g>
    <g id="xtick_16">
     <g id="line2d_36">
      <path d="M 918.984117 301.9944 
L 918.984117 79.2 
" clip-path="url(#p4c5eb3a994)" style="fill: none; stroke: #cccccc; stroke-width: 0.8; stroke-linecap: round"/>
     </g>
     <g id="text_22">
      <!-- 128 -->
      <g style="fill: #262626" transform="translate(906.505374 321.002488) scale(0.1496 -0.1496)">
       <use xlink:href="#ArialMT-31"/>
       <use xlink:href="#ArialMT-32" transform="translate(55.615234 0)"/>
       <use xlink:href="#ArialMT-38" transform="translate(111.230469 0)"/>
      </g>
     </g>
    </g>
    <g id="text_23">
     <!-- #Threads -->
     <g style="fill: #262626" transform="translate(689.952262 339.657338) scale(0.1632 -0.1632)">
      <use xlink:href="#ArialMT-23"/>
      <use xlink:href="#ArialMT-54" transform="translate(55.615234 0)"/>
      <use xlink:href="#ArialMT-68" transform="translate(116.699219 0)"/>
      <use xlink:href="#ArialMT-72" transform="translate(172.314453 0)"/>
      <use xlink:href="#ArialMT-65" transform="translate(205.615234 0)"/>
      <use xlink:href="#ArialMT-61" transform="translate(261.230469 0)"/>
      <use xlink:href="#ArialMT-64" transform="translate(316.845703 0)"/>
      <use xlink:href="#ArialMT-73" transform="translate(372.460938 0)"/>
     </g>
    </g>
   </g>
   <g id="matplotlib.axis_4">
    <g id="ytick_22">
     <g id="line2d_37">
      <path d="M 513.182895 291.867382 
L 935.66088 291.867382 
" clip-path="url(#p4c5eb3a994)" style="fill: none; stroke: #cccccc; stroke-width: 0.8; stroke-linecap: round"/>
     </g>
    </g>
    <g id="ytick_23">
     <g id="line2d_38">
      <path d="M 513.182895 195.749593 
L 935.66088 195.749593 
" clip-path="url(#p4c5eb3a994)" style="fill: none; stroke: #cccccc; stroke-width: 0.8; stroke-linecap: round"/>
     </g>
    </g>
    <g id="ytick_24">
     <g id="line2d_39">
      <path d="M 513.182895 99.631803 
L 935.66088 99.631803 
" clip-path="url(#p4c5eb3a994)" style="fill: none; stroke: #cccccc; stroke-width: 0.8; stroke-linecap: round"/>
     </g>
    </g>
    <g id="ytick_25"/>
    <g id="ytick_26"/>
    <g id="ytick_27"/>
    <g id="ytick_28"/>
    <g id="ytick_29"/>
    <g id="ytick_30"/>
    <g id="ytick_31"/>
    <g id="ytick_32"/>
    <g id="ytick_33"/>
    <g id="ytick_34"/>
    <g id="ytick_35"/>
    <g id="ytick_36"/>
    <g id="ytick_37"/>
    <g id="ytick_38"/>
    <g id="ytick_39"/>
    <g id="ytick_40"/>
    <g id="ytick_41"/>
    <g id="ytick_42"/>
   </g>
   <g id="FillBetweenPolyCollection_9"/>
   <g id="FillBetweenPolyCollection_10"/>
   <g id="FillBetweenPolyCollection_11"/>
   <g id="FillBetweenPolyCollection_12"/>
   <g id="FillBetweenPolyCollection_13"/>
   <g id="FillBetweenPolyCollection_14"/>
   <g id="FillBetweenPolyCollection_15"/>
   <g id="FillBetweenPolyCollection_16"/>
   <g id="line2d_40">
    <path d="M 529.859657 291.867382 
L 585.448866 190.609281 
L 641.038075 170.996968 
L 696.627283 158.736479 
L 752.216492 153.247718 
L 807.8057 152.454762 
L 863.394909 156.018744 
L 918.984117 216.861213 
" clip-path="url(#p4c5eb3a994)" style="fill: none; stroke: #4c72b0; stroke-width: 1.2; stroke-linecap: round"/>
    <g clip-path="url(#p4c5eb3a994)">
     <use xlink:href="#mf72282a2ea" x="529.859657" y="291.867382" style="fill: #4c72b0; stroke: #ffffff; stroke-width: 0.75"/>
     <use xlink:href="#mf72282a2ea" x="585.448866" y="190.609281" style="fill: #4c72b0; stroke: #ffffff; stroke-width: 0.75"/>
     <use xlink:href="#mf72282a2ea" x="641.038075" y="170.996968" style="fill: #4c72b0; stroke: #ffffff; stroke-width: 0.75"/>
     <use xlink:href="#mf72282a2ea" x="696.627283" y="158.736479" style="fill: #4c72b0; stroke: #ffffff; stroke-width: 0.75"/>
     <use xlink:href="#mf72282a2ea" x="752.216492" y="153.247718" style="fill: #4c72b0; stroke: #ffffff; stroke-width: 0.75"/>
     <use xlink:href="#mf72282a2ea" x="807.8057" y="152.454762" style="fill: #4c72b0; stroke: #ffffff; stroke-width: 0.75"/>
     <use xlink:href="#mf72282a2ea" x="863.394909" y="156.018744" style="fill: #4c72b0; stroke: #ffffff; stroke-width: 0.75"/>
     <use xlink:href="#mf72282a2ea" x="918.984117" y="216.861213" style="fill: #4c72b0; stroke: #ffffff; stroke-width: 0.75"/>
    </g>
   </g>
   <g id="line2d_41">
    <path d="M 529.859657 291.867382 
L 585.448866 265.660473 
L 641.038075 242.114959 
L 696.627283 219.990851 
L 752.216492 206.226477 
L 807.8057 201.093627 
L 863.394909 207.425707 
L 918.984117 286.945576 
" clip-path="url(#p4c5eb3a994)" style="fill: none; stroke-dasharray: 4.8,1.8; stroke-dashoffset: 0; stroke: #dd8452; stroke-width: 1.2"/>
    <g clip-path="url(#p4c5eb3a994)">
     <use xlink:href="#m17ad5a8881" x="529.859657" y="291.867382" style="fill: #dd8452; stroke: #ffffff; stroke-width: 0.75; stroke-linejoin: miter"/>
     <use xlink:href="#m17ad5a8881" x="585.448866" y="265.660473" style="fill: #dd8452; stroke: #ffffff; stroke-width: 0.75; stroke-linejoin: miter"/>
     <use xlink:href="#m17ad5a8881" x="641.038075" y="242.114959" style="fill: #dd8452; stroke: #ffffff; stroke-width: 0.75; stroke-linejoin: miter"/>
     <use xlink:href="#m17ad5a8881" x="696.627283" y="219.990851" style="fill: #dd8452; stroke: #ffffff; stroke-width: 0.75; stroke-linejoin: miter"/>
     <use xlink:href="#m17ad5a8881" x="752.216492" y="206.226477" style="fill: #dd8452; stroke: #ffffff; stroke-width: 0.75; stroke-linejoin: miter"/>
     <use xlink:href="#m17ad5a8881" x="807.8057" y="201.093627" style="fill: #dd8452; stroke: #ffffff; stroke-width: 0.75; stroke-linejoin: miter"/>
     <use xlink:href="#m17ad5a8881" x="863.394909" y="207.425707" style="fill: #dd8452; stroke: #ffffff; stroke-width: 0.75; stroke-linejoin: miter"/>
     <use xlink:href="#m17ad5a8881" x="918.984117" y="286.945576" style="fill: #dd8452; stroke: #ffffff; stroke-width: 0.75; stroke-linejoin: miter"/>
    </g>
   </g>
   <g id="line2d_42">
    <path d="M 529.859657 291.867382 
L 585.448866 244.832623 
L 641.038075 218.950135 
L 696.627283 196.517084 
L 752.216492 173.659199 
L 807.8057 165.135439 
L 863.394909 163.060597 
L 918.984117 173.395073 
" clip-path="url(#p4c5eb3a994)" style="fill: none; stroke-dasharray: 1.2,1.2; stroke-dashoffset: 0; stroke: #55a868; stroke-width: 1.2"/>
    <g clip-path="url(#p4c5eb3a994)">
     <use xlink:href="#mf52731acd7" x="529.859657" y="291.867382" style="fill: #55a868; stroke: #ffffff; stroke-width: 0.75; stroke-linejoin: miter"/>
     <use xlink:href="#mf52731acd7" x="585.448866" y="244.832623" style="fill: #55a868; stroke: #ffffff; stroke-width: 0.75; stroke-linejoin: miter"/>
     <use xlink:href="#mf52731acd7" x="641.038075" y="218.950135" style="fill: #55a868; stroke: #ffffff; stroke-width: 0.75; stroke-linejoin: miter"/>
     <use xlink:href="#mf52731acd7" x="696.627283" y="196.517084" style="fill: #55a868; stroke: #ffffff; stroke-width: 0.75; stroke-linejoin: miter"/>
     <use xlink:href="#mf52731acd7" x="752.216492" y="173.659199" style="fill: #55a868; stroke: #ffffff; stroke-width: 0.75; stroke-linejoin: miter"/>
     <use xlink:href="#mf52731acd7" x="807.8057" y="165.135439" style="fill: #55a868; stroke: #ffffff; stroke-width: 0.75; stroke-linejoin: miter"/>
     <use xlink:href="#mf52731acd7" x="863.394909" y="163.060597" style="fill: #55a868; stroke: #ffffff; stroke-width: 0.75; stroke-linejoin: miter"/>
     <use xlink:href="#mf52731acd7" x="918.984117" y="173.395073" style="fill: #55a868; stroke: #ffffff; stroke-width: 0.75; stroke-linejoin: miter"/>
    </g>
   </g>
   <g id="line2d_43">
    <path d="M 529.859657 291.867382 
L 585.448866 283.754582 
L 641.038075 260.182353 
L 696.627283 236.852172 
L 752.216492 215.03685 
L 807.8057 190.692444 
L 863.394909 174.201078 
L 918.984117 167.252119 
" clip-path="url(#p4c5eb3a994)" style="fill: none; stroke-dasharray: 3.6,1.5,1.8,1.5; stroke-dashoffset: 0; stroke: #c44e52; stroke-width: 1.2"/>
    <g clip-path="url(#p4c5eb3a994)">
     <use xlink:href="#m79b3f6192b" x="529.859657" y="291.867382" style="fill: #c44e52; stroke: #ffffff; stroke-width: 0.75; stroke-linejoin: miter"/>
     <use xlink:href="#m79b3f6192b" x="585.448866" y="283.754582" style="fill: #c44e52; stroke: #ffffff; stroke-width: 0.75; stroke-linejoin: miter"/>
     <use xlink:href="#m79b3f6192b" x="641.038075" y="260.182353" style="fill: #c44e52; stroke: #ffffff; stroke-width: 0.75; stroke-linejoin: miter"/>
     <use xlink:href="#m79b3f6192b" x="696.627283" y="236.852172" style="fill: #c44e52; stroke: #ffffff; stroke-width: 0.75; stroke-linejoin: miter"/>
     <use xlink:href="#m79b3f6192b" x="752.216492" y="215.03685" style="fill: #c44e52; stroke: #ffffff; stroke-width: 0.75; stroke-linejoin: miter"/>
     <use xlink:href="#m79b3f6192b" x="807.8057" y="190.692444" style="fill: #c44e52; stroke: #ffffff; stroke-width: 0.75; stroke-linejoin: miter"/>
     <use xlink:href="#m79b3f6192b" x="863.394909" y="174.201078" style="fill: #c44e52; stroke: #ffffff; stroke-width: 0.75; stroke-linejoin: miter"/>
     <use xlink:href="#m79b3f6192b" x="918.984117" y="167.252119" style="fill: #c44e52; stroke: #ffffff; stroke-width: 0.75; stroke-linejoin: miter"/>
    </g>
   </g>
   <g id="line2d_44">
    <path d="M 529.859657 291.867382 
L 585.448866 263.936764 
L 641.038075 239.501549 
L 696.627283 219.947543 
L 752.216492 207.183044 
L 807.8057 202.909832 
L 863.394909 204.249258 
L 918.984117 205.22442 
" clip-path="url(#p4c5eb3a994)" style="fill: none; stroke-dasharray: 6,1.2,1.2,1.2; stroke-dashoffset: 0; stroke: #8172b3; stroke-width: 1.2"/>
    <g clip-path="url(#p4c5eb3a994)">
     <use xlink:href="#m29fe423751" x="529.859657" y="291.867382" style="fill: #8172b3; stroke: #ffffff; stroke-width: 0.75; stroke-linejoin: miter"/>
     <use xlink:href="#m29fe423751" x="585.448866" y="263.936764" style="fill: #8172b3; stroke: #ffffff; stroke-width: 0.75; stroke-linejoin: miter"/>
     <use xlink:href="#m29fe423751" x="641.038075" y="239.501549" style="fill: #8172b3; stroke: #ffffff; stroke-width: 0.75; stroke-linejoin: miter"/>
     <use xlink:href="#m29fe423751" x="696.627283" y="219.947543" style="fill: #8172b3; stroke: #ffffff; stroke-width: 0.75; stroke-linejoin: miter"/>
     <use xlink:href="#m29fe423751" x="752.216492" y="207.183044" style="fill: #8172b3; stroke: #ffffff; stroke-width: 0.75; stroke-linejoin: miter"/>
     <use xlink:href="#m29fe423751" x="807.8057" y="202.909832" style="fill: #8172b3; stroke: #ffffff; stroke-width: 0.75; stroke-linejoin: miter"/>
     <use xlink:href="#m29fe423751" x="863.394909" y="204.249258" style="fill: #8172b3; stroke: #ffffff; stroke-width: 0.75; stroke-linejoin: miter"/>
     <use xlink:href="#m29fe423751" x="918.984117" y="205.22442" style="fill: #8172b3; stroke: #ffffff; stroke-width: 0.75; stroke-linejoin: miter"/>
    </g>
   </g>
   <g id="line2d_45">
    <path d="M 529.859657 291.867382 
L 585.448866 282.817135 
L 641.038075 259.145362 
L 696.627283 234.450419 
L 752.216492 212.197268 
L 807.8057 186.125416 
L 863.394909 166.144159 
L 918.984117 166.077983 
" clip-path="url(#p4c5eb3a994)" style="fill: none; stroke-dasharray: 3.6,1.5,1.5,1.5,1.5,1.5; stroke-dashoffset: 0; stroke: #937860; stroke-width: 1.2"/>
    <g clip-path="url(#p4c5eb3a994)">
     <use xlink:href="#m0d7443712f" x="529.859657" y="291.867382" style="fill: #937860; stroke: #ffffff; stroke-width: 0.75; stroke-linejoin: bevel"/>
     <use xlink:href="#m0d7443712f" x="585.448866" y="282.817135" style="fill: #937860; stroke: #ffffff; stroke-width: 0.75; stroke-linejoin: bevel"/>
     <use xlink:href="#m0d7443712f" x="641.038075" y="259.145362" style="fill: #937860; stroke: #ffffff; stroke-width: 0.75; stroke-linejoin: bevel"/>
     <use xlink:href="#m0d7443712f" x="696.627283" y="234.450419" style="fill: #937860; stroke: #ffffff; stroke-width: 0.75; stroke-linejoin: bevel"/>
     <use xlink:href="#m0d7443712f" x="752.216492" y="212.197268" style="fill: #937860; stroke: #ffffff; stroke-width: 0.75; stroke-linejoin: bevel"/>
     <use xlink:href="#m0d7443712f" x="807.8057" y="186.125416" style="fill: #937860; stroke: #ffffff; stroke-width: 0.75; stroke-linejoin: bevel"/>
     <use xlink:href="#m0d7443712f" x="863.394909" y="166.144159" style="fill: #937860; stroke: #ffffff; stroke-width: 0.75; stroke-linejoin: bevel"/>
     <use xlink:href="#m0d7443712f" x="918.984117" y="166.077983" style="fill: #937860; stroke: #ffffff; stroke-width: 0.75; stroke-linejoin: bevel"/>
    </g>
   </g>
   <g id="line2d_46">
    <path d="M 529.859657 291.867382 
L 585.448866 247.397505 
L 641.038075 223.078854 
L 696.627283 200.778386 
L 752.216492 181.564975 
L 807.8057 166.869699 
L 863.394909 168.897179 
L 918.984117 195.245873 
" clip-path="url(#p4c5eb3a994)" style="fill: none; stroke-dasharray: 4.8,1.2,4.8,1.2,1.2,1.2; stroke-dashoffset: 0; stroke: #da8bc3; stroke-width: 1.2"/>
    <g clip-path="url(#p4c5eb3a994)">
     <use xlink:href="#m8969043848" x="529.859657" y="291.867382" style="fill: #da8bc3; stroke: #ffffff; stroke-width: 0.75; stroke-linejoin: miter"/>
     <use xlink:href="#m8969043848" x="585.448866" y="247.397505" style="fill: #da8bc3; stroke: #ffffff; stroke-width: 0.75; stroke-linejoin: miter"/>
     <use xlink:href="#m8969043848" x="641.038075" y="223.078854" style="fill: #da8bc3; stroke: #ffffff; stroke-width: 0.75; stroke-linejoin: miter"/>
     <use xlink:href="#m8969043848" x="696.627283" y="200.778386" style="fill: #da8bc3; stroke: #ffffff; stroke-width: 0.75; stroke-linejoin: miter"/>
     <use xlink:href="#m8969043848" x="752.216492" y="181.564975" style="fill: #da8bc3; stroke: #ffffff; stroke-width: 0.75; stroke-linejoin: miter"/>
     <use xlink:href="#m8969043848" x="807.8057" y="166.869699" style="fill: #da8bc3; stroke: #ffffff; stroke-width: 0.75; stroke-linejoin: miter"/>
     <use xlink:href="#m8969043848" x="863.394909" y="168.897179" style="fill: #da8bc3; stroke: #ffffff; stroke-width: 0.75; stroke-linejoin: miter"/>
     <use xlink:href="#m8969043848" x="918.984117" y="195.245873" style="fill: #da8bc3; stroke: #ffffff; stroke-width: 0.75; stroke-linejoin: miter"/>
    </g>
   </g>
   <g id="line2d_47">
    <path d="M 529.859657 291.867382 
L 585.448866 284.747281 
L 641.038075 259.61763 
L 696.627283 235.24165 
L 752.216492 211.628109 
L 807.8057 189.185041 
L 863.394909 179.054709 
L 918.984117 172.657766 
" clip-path="url(#p4c5eb3a994)" style="fill: none; stroke-dasharray: 3.6,1.5,3.6,1.5,1.5,1.5; stroke-dashoffset: 0; stroke: #8c8c8c; stroke-width: 1.2"/>
    <g clip-path="url(#p4c5eb3a994)">
     <use xlink:href="#ma12cc9cdc7" x="529.859657" y="291.867382" style="fill: #8c8c8c; stroke: #ffffff; stroke-width: 0.75; stroke-linejoin: bevel"/>
     <use xlink:href="#ma12cc9cdc7" x="585.448866" y="284.747281" style="fill: #8c8c8c; stroke: #ffffff; stroke-width: 0.75; stroke-linejoin: bevel"/>
     <use xlink:href="#ma12cc9cdc7" x="641.038075" y="259.61763" style="fill: #8c8c8c; stroke: #ffffff; stroke-width: 0.75; stroke-linejoin: bevel"/>
     <use xlink:href="#ma12cc9cdc7" x="696.627283" y="235.24165" style="fill: #8c8c8c; stroke: #ffffff; stroke-width: 0.75; stroke-linejoin: bevel"/>
     <use xlink:href="#ma12cc9cdc7" x="752.216492" y="211.628109" style="fill: #8c8c8c; stroke: #ffffff; stroke-width: 0.75; stroke-linejoin: bevel"/>
     <use xlink:href="#ma12cc9cdc7" x="807.8057" y="189.185041" style="fill: #8c8c8c; stroke: #ffffff; stroke-width: 0.75; stroke-linejoin: bevel"/>
     <use xlink:href="#ma12cc9cdc7" x="863.394909" y="179.054709" style="fill: #8c8c8c; stroke: #ffffff; stroke-width: 0.75; stroke-linejoin: bevel"/>
     <use xlink:href="#ma12cc9cdc7" x="918.984117" y="172.657766" style="fill: #8c8c8c; stroke: #ffffff; stroke-width: 0.75; stroke-linejoin: bevel"/>
    </g>
   </g>
   <g id="line2d_48">
    <path d="M 529.859657 291.867382 
L 585.448866 262.933044 
L 641.038075 233.998706 
L 696.627283 205.064369 
L 752.216492 176.130031 
L 807.8057 147.195694 
L 863.394909 118.261356 
L 918.984117 89.327018 
" clip-path="url(#p4c5eb3a994)" style="fill: none; stroke-dasharray: 5.55,2.4; stroke-dashoffset: 0; stroke: #000000; stroke-opacity: 0.5; stroke-width: 1.5"/>
   </g>
   <g id="patch_7">
    <path d="M 513.182895 301.9944 
L 513.182895 79.2 
" style="fill: none; stroke: #cccccc; stroke-linejoin: miter; stroke-linecap: square"/>
   </g>
   <g id="patch_8">
    <path d="M 513.182895 301.9944 
L 935.66088 301.9944 
" style="fill: none; stroke: #cccccc; stroke-linejoin: miter; stroke-linecap: square"/>
   </g>
   <g id="patch_9">
    <path d="M 520.662895 112.329388 
L 610.771182 112.329388 
L 610.771182 86.68 
L 520.662895 86.68 
z
" style="fill: #ffffff; stroke: #1a1a1a; stroke-width: 0.8; stroke-linejoin: miter"/>
   </g>
   <g id="text_24">
    <!-- AMD EPYC -->
    <g style="fill: #262626" transform="translate(526.646895 103.372088) scale(0.1496 -0.1496)">
     <defs>
      <path id="ArialMT-4d" d="M 475 0 
L 475 4581 
L 1388 4581 
L 2472 1338 
Q 2622 884 2691 659 
Q 2769 909 2934 1394 
L 4031 4581 
L 4847 4581 
L 4847 0 
L 4263 0 
L 4263 3834 
L 2931 0 
L 2384 0 
L 1059 3900 
L 1059 0 
L 475 0 
z
" transform="scale(0.015625)"/>
      <path id="ArialMT-44" d="M 494 0 
L 494 4581 
L 2072 4581 
Q 2606 4581 2888 4516 
Q 3281 4425 3559 4188 
Q 3922 3881 4101 3404 
Q 4281 2928 4281 2316 
Q 4281 1794 4159 1391 
Q 4038 988 3847 723 
Q 3656 459 3429 307 
Q 3203 156 2883 78 
Q 2563 0 2147 0 
L 494 0 
z
M 1100 541 
L 2078 541 
Q 2531 541 2789 625 
Q 3047 709 3200 863 
Q 3416 1078 3536 1442 
Q 3656 1806 3656 2325 
Q 3656 3044 3420 3430 
Q 3184 3816 2847 3947 
Q 2603 4041 2063 4041 
L 1100 4041 
L 1100 541 
z
" transform="scale(0.015625)"/>
      <path id="ArialMT-50" d="M 494 0 
L 494 4581 
L 2222 4581 
Q 2678 4581 2919 4538 
Q 3256 4481 3484 4323 
Q 3713 4166 3852 3881 
Q 3991 3597 3991 3256 
Q 3991 2672 3619 2267 
Q 3247 1863 2275 1863 
L 1100 1863 
L 1100 0 
L 494 0 
z
M 1100 2403 
L 2284 2403 
Q 2872 2403 3119 2622 
Q 3366 2841 3366 3238 
Q 3366 3525 3220 3729 
Q 3075 3934 2838 4000 
Q 2684 4041 2272 4041 
L 1100 4041 
L 1100 2403 
z
" transform="scale(0.015625)"/>
      <path id="ArialMT-59" d="M 1784 0 
L 1784 1941 
L 19 4581 
L 756 4581 
L 1659 3200 
Q 1909 2813 2125 2425 
Q 2331 2784 2625 3234 
L 3513 4581 
L 4219 4581 
L 2391 1941 
L 2391 0 
L 1784 0 
z
" transform="scale(0.015625)"/>
      <path id="ArialMT-43" d="M 3763 1606 
L 4369 1453 
Q 4178 706 3683 314 
Q 3188 -78 2472 -78 
Q 1731 -78 1267 223 
Q 803 525 561 1097 
Q 319 1669 319 2325 
Q 319 3041 592 3573 
Q 866 4106 1370 4382 
Q 1875 4659 2481 4659 
Q 3169 4659 3637 4309 
Q 4106 3959 4291 3325 
L 3694 3184 
Q 3534 3684 3231 3912 
Q 2928 4141 2469 4141 
Q 1941 4141 1586 3887 
Q 1231 3634 1087 3207 
Q 944 2781 944 2328 
Q 944 1744 1114 1308 
Q 1284 872 1643 656 
Q 2003 441 2422 441 
Q 2931 441 3284 734 
Q 3638 1028 3763 1606 
z
" transform="scale(0.015625)"/>
     </defs>
     <use xlink:href="#ArialMT-41"/>
     <use xlink:href="#ArialMT-4d" transform="translate(66.699219 0)"/>
     <use xlink:href="#ArialMT-44" transform="translate(150 0)"/>
     <use xlink:href="#ArialMT-20" transform="translate(222.216797 0)"/>
     <use xlink:href="#ArialMT-45" transform="translate(250 0)"/>
     <use xlink:href="#ArialMT-50" transform="translate(316.699219 0)"/>
     <use xlink:href="#ArialMT-59" transform="translate(383.398438 0)"/>
     <use xlink:href="#ArialMT-43" transform="translate(450.097656 0)"/>
    </g>
   </g>
  </g>
  <g id="legend_1">
   <g id="line2d_49">
    <path d="M 39.864619 8.318413 
L 54.824619 8.318413 
L 69.784619 8.318413 
" style="fill: none; stroke-dasharray: 4.8,1.8; stroke-dashoffset: 0; stroke: #dd8452; stroke-width: 1.2"/>
    <defs>
     <path id="m6072db1941" d="M -3 6 
L 0 3 
L 3 6 
L 6 3 
L 3 0 
L 6 -3 
L 3 -6 
L 0 -3 
L -3 -6 
L -6 -3 
L -3 0 
L -6 3 
z
" style="stroke: #dd8452; stroke-linejoin: miter"/>
    </defs>
    <g>
     <use xlink:href="#m6072db1941" x="54.824619" y="8.318413" style="fill: #dd8452; stroke: #dd8452; stroke-linejoin: miter"/>
    </g>
   </g>
   <g id="text_25">
    <!-- Cell-Based (NeoN) -->
    <g style="fill: #262626" transform="translate(81.752619 13.554413) scale(0.1496 -0.1496)">
     <defs>
      <path id="ArialMT-2d" d="M 203 1375 
L 203 1941 
L 1931 1941 
L 1931 1375 
L 203 1375 
z
" transform="scale(0.015625)"/>
      <path id="ArialMT-28" d="M 1497 -1347 
Q 1031 -759 709 28 
Q 388 816 388 1659 
Q 388 2403 628 3084 
Q 909 3875 1497 4659 
L 1900 4659 
Q 1522 4009 1400 3731 
Q 1209 3300 1100 2831 
Q 966 2247 966 1656 
Q 966 153 1900 -1347 
L 1497 -1347 
z
" transform="scale(0.015625)"/>
      <path id="ArialMT-6f" d="M 213 1659 
Q 213 2581 725 3025 
Q 1153 3394 1769 3394 
Q 2453 3394 2887 2945 
Q 3322 2497 3322 1706 
Q 3322 1066 3130 698 
Q 2938 331 2570 128 
Q 2203 -75 1769 -75 
Q 1072 -75 642 372 
Q 213 819 213 1659 
z
M 791 1659 
Q 791 1022 1069 705 
Q 1347 388 1769 388 
Q 2188 388 2466 706 
Q 2744 1025 2744 1678 
Q 2744 2294 2464 2611 
Q 2184 2928 1769 2928 
Q 1347 2928 1069 2612 
Q 791 2297 791 1659 
z
" transform="scale(0.015625)"/>
      <path id="ArialMT-29" d="M 791 -1347 
L 388 -1347 
Q 1322 153 1322 1656 
Q 1322 2244 1188 2822 
Q 1081 3291 891 3722 
Q 769 4003 388 4659 
L 791 4659 
Q 1378 3875 1659 3084 
Q 1900 2403 1900 1659 
Q 1900 816 1576 28 
Q 1253 -759 791 -1347 
z
" transform="scale(0.015625)"/>
     </defs>
     <use xlink:href="#ArialMT-43"/>
     <use xlink:href="#ArialMT-65" transform="translate(72.216797 0)"/>
     <use xlink:href="#ArialMT-6c" transform="translate(127.832031 0)"/>
     <use xlink:href="#ArialMT-6c" transform="translate(150.048828 0)"/>
     <use xlink:href="#ArialMT-2d" transform="translate(172.265625 0)"/>
     <use xlink:href="#ArialMT-42" transform="translate(205.566406 0)"/>
     <use xlink:href="#ArialMT-61" transform="translate(272.265625 0)"/>
     <use xlink:href="#ArialMT-73" transform="translate(327.880859 0)"/>
     <use xlink:href="#ArialMT-65" transform="translate(377.880859 0)"/>
     <use xlink:href="#ArialMT-64" transform="translate(433.496094 0)"/>
     <use xlink:href="#ArialMT-20" transform="translate(489.111328 0)"/>
     <use xlink:href="#ArialMT-28" transform="translate(516.894531 0)"/>
     <use xlink:href="#ArialMT-4e" transform="translate(550.195312 0)"/>
     <use xlink:href="#ArialMT-65" transform="translate(622.412109 0)"/>
     <use xlink:href="#ArialMT-6f" transform="translate(678.027344 0)"/>
     <use xlink:href="#ArialMT-4e" transform="translate(733.642578 0)"/>
     <use xlink:href="#ArialMT-29" transform="translate(805.859375 0)"/>
    </g>
   </g>
   <g id="line2d_50">
    <path d="M 39.864619 29.837438 
L 54.824619 29.837438 
L 69.784619 29.837438 
" style="fill: none; stroke: #4c72b0; stroke-width: 1.2; stroke-linecap: round"/>
    <defs>
     <path id="mf95644827b" d="M 0 6 
C 1.591219 6 3.117479 5.367802 4.242641 4.242641 
C 5.367802 3.117479 6 1.591219 6 0 
C 6 -1.591219 5.367802 -3.117479 4.242641 -4.242641 
C 3.117479 -5.367802 1.591219 -6 0 -6 
C -1.591219 -6 -3.117479 -5.367802 -4.242641 -4.242641 
C -5.367802 -3.117479 -6 -1.591219 -6 0 
C -6 1.591219 -5.367802 3.117479 -4.242641 4.242641 
C -3.117479 5.367802 -1.591219 6 0 6 
z
" style="stroke: #4c72b0"/>
    </defs>
    <g>
     <use xlink:href="#mf95644827b" x="54.824619" y="29.837438" style="fill: #4c72b0; stroke: #4c72b0"/>
    </g>
   </g>
   <g id="text_26">
    <!-- Cell-Based (JuNe) -->
    <g style="fill: #262626" transform="translate(81.752619 35.073438) scale(0.1496 -0.1496)">
     <defs>
      <path id="ArialMT-4a" d="M 184 1300 
L 731 1375 
Q 753 850 928 656 
Q 1103 463 1413 463 
Q 1641 463 1806 567 
Q 1972 672 2034 851 
Q 2097 1031 2097 1425 
L 2097 4581 
L 2703 4581 
L 2703 1459 
Q 2703 884 2564 568 
Q 2425 253 2123 87 
Q 1822 -78 1416 -78 
Q 813 -78 492 269 
Q 172 616 184 1300 
z
" transform="scale(0.015625)"/>
     </defs>
     <use xlink:href="#ArialMT-43"/>
     <use xlink:href="#ArialMT-65" transform="translate(72.216797 0)"/>
     <use xlink:href="#ArialMT-6c" transform="translate(127.832031 0)"/>
     <use xlink:href="#ArialMT-6c" transform="translate(150.048828 0)"/>
     <use xlink:href="#ArialMT-2d" transform="translate(172.265625 0)"/>
     <use xlink:href="#ArialMT-42" transform="translate(205.566406 0)"/>
     <use xlink:href="#ArialMT-61" transform="translate(272.265625 0)"/>
     <use xlink:href="#ArialMT-73" transform="translate(327.880859 0)"/>
     <use xlink:href="#ArialMT-65" transform="translate(377.880859 0)"/>
     <use xlink:href="#ArialMT-64" transform="translate(433.496094 0)"/>
     <use xlink:href="#ArialMT-20" transform="translate(489.111328 0)"/>
     <use xlink:href="#ArialMT-28" transform="translate(516.894531 0)"/>
     <use xlink:href="#ArialMT-4a" transform="translate(550.195312 0)"/>
     <use xlink:href="#ArialMT-75" transform="translate(600.195312 0)"/>
     <use xlink:href="#ArialMT-4e" transform="translate(655.810547 0)"/>
     <use xlink:href="#ArialMT-65" transform="translate(728.027344 0)"/>
     <use xlink:href="#ArialMT-29" transform="translate(783.642578 0)"/>
    </g>
   </g>
   <g id="line2d_51">
    <path d="M 237.205719 8.318413 
L 252.165719 8.318413 
L 267.125719 8.318413 
" style="fill: none; stroke-dasharray: 3.6,1.5,3.6,1.5,1.5,1.5; stroke-dashoffset: 0; stroke: #8c8c8c; stroke-width: 1.2"/>
    <defs>
     <path id="m8882533271" d="M -4.242641 -4.242641 
L -3 -0 
L -4.242641 4.242641 
L -0 3 
L 4.242641 4.242641 
L 3 0 
L 4.242641 -4.242641 
L 0 -3 
z
" style="stroke: #8c8c8c; stroke-linejoin: bevel"/>
    </defs>
    <g>
     <use xlink:href="#m8882533271" x="252.165719" y="8.318413" style="fill: #8c8c8c; stroke: #8c8c8c; stroke-linejoin: bevel"/>
    </g>
   </g>
   <g id="text_27">
    <!-- Global Face-Based (NeoN) -->
    <g style="fill: #262626" transform="translate(279.093719 13.554413) scale(0.1496 -0.1496)">
     <defs>
      <path id="ArialMT-47" d="M 2638 1797 
L 2638 2334 
L 4578 2338 
L 4578 638 
Q 4131 281 3656 101 
Q 3181 -78 2681 -78 
Q 2006 -78 1454 211 
Q 903 500 622 1047 
Q 341 1594 341 2269 
Q 341 2938 620 3517 
Q 900 4097 1425 4378 
Q 1950 4659 2634 4659 
Q 3131 4659 3532 4498 
Q 3934 4338 4162 4050 
Q 4391 3763 4509 3300 
L 3963 3150 
Q 3859 3500 3706 3700 
Q 3553 3900 3268 4020 
Q 2984 4141 2638 4141 
Q 2222 4141 1919 4014 
Q 1616 3888 1430 3681 
Q 1244 3475 1141 3228 
Q 966 2803 966 2306 
Q 966 1694 1177 1281 
Q 1388 869 1791 669 
Q 2194 469 2647 469 
Q 3041 469 3416 620 
Q 3791 772 3984 944 
L 3984 1797 
L 2638 1797 
z
" transform="scale(0.015625)"/>
      <path id="ArialMT-46" d="M 525 0 
L 525 4581 
L 3616 4581 
L 3616 4041 
L 1131 4041 
L 1131 2622 
L 3281 2622 
L 3281 2081 
L 1131 2081 
L 1131 0 
L 525 0 
z
" transform="scale(0.015625)"/>
      <path id="ArialMT-63" d="M 2588 1216 
L 3141 1144 
Q 3050 572 2676 248 
Q 2303 -75 1759 -75 
Q 1078 -75 664 370 
Q 250 816 250 1647 
Q 250 2184 428 2587 
Q 606 2991 970 3192 
Q 1334 3394 1763 3394 
Q 2303 3394 2647 3120 
Q 2991 2847 3088 2344 
L 2541 2259 
Q 2463 2594 2264 2762 
Q 2066 2931 1784 2931 
Q 1359 2931 1093 2626 
Q 828 2322 828 1663 
Q 828 994 1084 691 
Q 1341 388 1753 388 
Q 2084 388 2306 591 
Q 2528 794 2588 1216 
z
" transform="scale(0.015625)"/>
     </defs>
     <use xlink:href="#ArialMT-47"/>
     <use xlink:href="#ArialMT-6c" transform="translate(77.783203 0)"/>
     <use xlink:href="#ArialMT-6f" transform="translate(100 0)"/>
     <use xlink:href="#ArialMT-62" transform="translate(155.615234 0)"/>
     <use xlink:href="#ArialMT-61" transform="translate(211.230469 0)"/>
     <use xlink:href="#ArialMT-6c" transform="translate(266.845703 0)"/>
     <use xlink:href="#ArialMT-20" transform="translate(289.0625 0)"/>
     <use xlink:href="#ArialMT-46" transform="translate(316.845703 0)"/>
     <use xlink:href="#ArialMT-61" transform="translate(377.929688 0)"/>
     <use xlink:href="#ArialMT-63" transform="translate(433.544922 0)"/>
     <use xlink:href="#ArialMT-65" transform="translate(483.544922 0)"/>
     <use xlink:href="#ArialMT-2d" transform="translate(539.160156 0)"/>
     <use xlink:href="#ArialMT-42" transform="translate(572.460938 0)"/>
     <use xlink:href="#ArialMT-61" transform="translate(639.160156 0)"/>
     <use xlink:href="#ArialMT-73" transform="translate(694.775391 0)"/>
     <use xlink:href="#ArialMT-65" transform="translate(744.775391 0)"/>
     <use xlink:href="#ArialMT-64" transform="translate(800.390625 0)"/>
     <use xlink:href="#ArialMT-20" transform="translate(856.005859 0)"/>
     <use xlink:href="#ArialMT-28" transform="translate(883.789062 0)"/>
     <use xlink:href="#ArialMT-4e" transform="translate(917.089844 0)"/>
     <use xlink:href="#ArialMT-65" transform="translate(989.306641 0)"/>
     <use xlink:href="#ArialMT-6f" transform="translate(1044.921875 0)"/>
     <use xlink:href="#ArialMT-4e" transform="translate(1100.537109 0)"/>
     <use xlink:href="#ArialMT-29" transform="translate(1172.753906 0)"/>
    </g>
   </g>
   <g id="line2d_52">
    <path d="M 237.205719 29.837438 
L 252.165719 29.837438 
L 267.125719 29.837438 
" style="fill: none; stroke-dasharray: 4.8,1.2,4.8,1.2,1.2,1.2; stroke-dashoffset: 0; stroke: #da8bc3; stroke-width: 1.2"/>
    <defs>
     <path id="mc2936e885a" d="M 0 -6 
L -6 6 
L 6 6 
z
" style="stroke: #da8bc3; stroke-linejoin: miter"/>
    </defs>
    <g>
     <use xlink:href="#mc2936e885a" x="252.165719" y="29.837438" style="fill: #da8bc3; stroke: #da8bc3; stroke-linejoin: miter"/>
    </g>
   </g>
   <g id="text_28">
    <!-- Global Face-Based (JuNe) -->
    <g style="fill: #262626" transform="translate(279.093719 35.073438) scale(0.1496 -0.1496)">
     <use xlink:href="#ArialMT-47"/>
     <use xlink:href="#ArialMT-6c" transform="translate(77.783203 0)"/>
     <use xlink:href="#ArialMT-6f" transform="translate(100 0)"/>
     <use xlink:href="#ArialMT-62" transform="translate(155.615234 0)"/>
     <use xlink:href="#ArialMT-61" transform="translate(211.230469 0)"/>
     <use xlink:href="#ArialMT-6c" transform="translate(266.845703 0)"/>
     <use xlink:href="#ArialMT-20" transform="translate(289.0625 0)"/>
     <use xlink:href="#ArialMT-46" transform="translate(316.845703 0)"/>
     <use xlink:href="#ArialMT-61" transform="translate(377.929688 0)"/>
     <use xlink:href="#ArialMT-63" transform="translate(433.544922 0)"/>
     <use xlink:href="#ArialMT-65" transform="translate(483.544922 0)"/>
     <use xlink:href="#ArialMT-2d" transform="translate(539.160156 0)"/>
     <use xlink:href="#ArialMT-42" transform="translate(572.460938 0)"/>
     <use xlink:href="#ArialMT-61" transform="translate(639.160156 0)"/>
     <use xlink:href="#ArialMT-73" transform="translate(694.775391 0)"/>
     <use xlink:href="#ArialMT-65" transform="translate(744.775391 0)"/>
     <use xlink:href="#ArialMT-64" transform="translate(800.390625 0)"/>
     <use xlink:href="#ArialMT-20" transform="translate(856.005859 0)"/>
     <use xlink:href="#ArialMT-28" transform="translate(883.789062 0)"/>
     <use xlink:href="#ArialMT-4a" transform="translate(917.089844 0)"/>
     <use xlink:href="#ArialMT-75" transform="translate(967.089844 0)"/>
     <use xlink:href="#ArialMT-4e" transform="translate(1022.705078 0)"/>
     <use xlink:href="#ArialMT-65" transform="translate(1094.921875 0)"/>
     <use xlink:href="#ArialMT-29" transform="translate(1150.537109 0)"/>
    </g>
   </g>
   <g id="line2d_53">
    <path d="M 489.428981 8.318413 
L 504.388981 8.318413 
L 519.348981 8.318413 
" style="fill: none; stroke-dasharray: 3.6,1.5,1.8,1.5; stroke-dashoffset: 0; stroke: #c44e52; stroke-width: 1.2"/>
    <defs>
     <path id="mec6365c48b" d="M -2 6 
L 2 6 
L 2 2 
L 6 2 
L 6 -2 
L 2 -2 
L 2 -6 
L -2 -6 
L -2 -2 
L -6 -2 
L -6 2 
L -2 2 
z
" style="stroke: #c44e52; stroke-linejoin: miter"/>
    </defs>
    <g>
     <use xlink:href="#mec6365c48b" x="504.388981" y="8.318413" style="fill: #c44e52; stroke: #c44e52; stroke-linejoin: miter"/>
    </g>
   </g>
   <g id="text_29">
    <!-- Face-Based (NeoN) -->
    <g style="fill: #262626" transform="translate(531.316981 13.554413) scale(0.1496 -0.1496)">
     <use xlink:href="#ArialMT-46"/>
     <use xlink:href="#ArialMT-61" transform="translate(61.083984 0)"/>
     <use xlink:href="#ArialMT-63" transform="translate(116.699219 0)"/>
     <use xlink:href="#ArialMT-65" transform="translate(166.699219 0)"/>
     <use xlink:href="#ArialMT-2d" transform="translate(222.314453 0)"/>
     <use xlink:href="#ArialMT-42" transform="translate(255.615234 0)"/>
     <use xlink:href="#ArialMT-61" transform="translate(322.314453 0)"/>
     <use xlink:href="#ArialMT-73" transform="translate(377.929688 0)"/>
     <use xlink:href="#ArialMT-65" transform="translate(427.929688 0)"/>
     <use xlink:href="#ArialMT-64" transform="translate(483.544922 0)"/>
     <use xlink:href="#ArialMT-20" transform="translate(539.160156 0)"/>
     <use xlink:href="#ArialMT-28" transform="translate(566.943359 0)"/>
     <use xlink:href="#ArialMT-4e" transform="translate(600.244141 0)"/>
     <use xlink:href="#ArialMT-65" transform="translate(672.460938 0)"/>
     <use xlink:href="#ArialMT-6f" transform="translate(728.076172 0)"/>
     <use xlink:href="#ArialMT-4e" transform="translate(783.691406 0)"/>
     <use xlink:href="#ArialMT-29" transform="translate(855.908203 0)"/>
    </g>
   </g>
   <g id="line2d_54">
    <path d="M 489.428981 29.837438 
L 504.388981 29.837438 
L 519.348981 29.837438 
" style="fill: none; stroke-dasharray: 1.2,1.2; stroke-dashoffset: 0; stroke: #55a868; stroke-width: 1.2"/>
    <defs>
     <path id="m9946d131c6" d="M -4.242641 -4.242641 
L -4.242641 4.242641 
L 4.242641 4.242641 
L 4.242641 -4.242641 
z
" style="stroke: #55a868; stroke-linejoin: miter"/>
    </defs>
    <g>
     <use xlink:href="#m9946d131c6" x="504.388981" y="29.837438" style="fill: #55a868; stroke: #55a868; stroke-linejoin: miter"/>
    </g>
   </g>
   <g id="text_30">
    <!-- Face-Based (JuNe) -->
    <g style="fill: #262626" transform="translate(531.316981 35.073438) scale(0.1496 -0.1496)">
     <use xlink:href="#ArialMT-46"/>
     <use xlink:href="#ArialMT-61" transform="translate(61.083984 0)"/>
     <use xlink:href="#ArialMT-63" transform="translate(116.699219 0)"/>
     <use xlink:href="#ArialMT-65" transform="translate(166.699219 0)"/>
     <use xlink:href="#ArialMT-2d" transform="translate(222.314453 0)"/>
     <use xlink:href="#ArialMT-42" transform="translate(255.615234 0)"/>
     <use xlink:href="#ArialMT-61" transform="translate(322.314453 0)"/>
     <use xlink:href="#ArialMT-73" transform="translate(377.929688 0)"/>
     <use xlink:href="#ArialMT-65" transform="translate(427.929688 0)"/>
     <use xlink:href="#ArialMT-64" transform="translate(483.544922 0)"/>
     <use xlink:href="#ArialMT-20" transform="translate(539.160156 0)"/>
     <use xlink:href="#ArialMT-28" transform="translate(566.943359 0)"/>
     <use xlink:href="#ArialMT-4a" transform="translate(600.244141 0)"/>
     <use xlink:href="#ArialMT-75" transform="translate(650.244141 0)"/>
     <use xlink:href="#ArialMT-4e" transform="translate(705.859375 0)"/>
     <use xlink:href="#ArialMT-65" transform="translate(778.076172 0)"/>
     <use xlink:href="#ArialMT-29" transform="translate(833.691406 0)"/>
    </g>
   </g>
   <g id="line2d_55">
    <path d="M 694.254756 8.318413 
L 709.214756 8.318413 
L 724.174756 8.318413 
" style="fill: none; stroke-dasharray: 3.6,1.5,1.5,1.5,1.5,1.5; stroke-dashoffset: 0; stroke: #937860; stroke-width: 1.2"/>
    <defs>
     <path id="mdee929d78a" d="M 0 -6 
L -2.12132 -2.12132 
L -6 -0 
L -2.12132 2.12132 
L -0 6 
L 2.12132 2.12132 
L 6 0 
L 2.12132 -2.12132 
z
" style="stroke: #937860; stroke-linejoin: bevel"/>
    </defs>
    <g>
     <use xlink:href="#mdee929d78a" x="709.214756" y="8.318413" style="fill: #937860; stroke: #937860; stroke-linejoin: bevel"/>
    </g>
   </g>
   <g id="text_31">
    <!-- Fused Face-Based (NeoN) -->
    <g style="fill: #262626" transform="translate(736.142756 13.554413) scale(0.1496 -0.1496)">
     <use xlink:href="#ArialMT-46"/>
     <use xlink:href="#ArialMT-75" transform="translate(61.083984 0)"/>
     <use xlink:href="#ArialMT-73" transform="translate(116.699219 0)"/>
     <use xlink:href="#ArialMT-65" transform="translate(166.699219 0)"/>
     <use xlink:href="#ArialMT-64" transform="translate(222.314453 0)"/>
     <use xlink:href="#ArialMT-20" transform="translate(277.929688 0)"/>
     <use xlink:href="#ArialMT-46" transform="translate(305.712891 0)"/>
     <use xlink:href="#ArialMT-61" transform="translate(366.796875 0)"/>
     <use xlink:href="#ArialMT-63" transform="translate(422.412109 0)"/>
     <use xlink:href="#ArialMT-65" transform="translate(472.412109 0)"/>
     <use xlink:href="#ArialMT-2d" transform="translate(528.027344 0)"/>
     <use xlink:href="#ArialMT-42" transform="translate(561.328125 0)"/>
     <use xlink:href="#ArialMT-61" transform="translate(628.027344 0)"/>
     <use xlink:href="#ArialMT-73" transform="translate(683.642578 0)"/>
     <use xlink:href="#ArialMT-65" transform="translate(733.642578 0)"/>
     <use xlink:href="#ArialMT-64" transform="translate(789.257812 0)"/>
     <use xlink:href="#ArialMT-20" transform="translate(844.873047 0)"/>
     <use xlink:href="#ArialMT-28" transform="translate(872.65625 0)"/>
     <use xlink:href="#ArialMT-4e" transform="translate(905.957031 0)"/>
     <use xlink:href="#ArialMT-65" transform="translate(978.173828 0)"/>
     <use xlink:href="#ArialMT-6f" transform="translate(1033.789062 0)"/>
     <use xlink:href="#ArialMT-4e" transform="translate(1089.404297 0)"/>
     <use xlink:href="#ArialMT-29" transform="translate(1161.621094 0)"/>
    </g>
   </g>
   <g id="line2d_56">
    <path d="M 694.254756 29.837438 
L 709.214756 29.837438 
L 724.174756 29.837438 
" style="fill: none; stroke-dasharray: 6,1.2,1.2,1.2; stroke-dashoffset: 0; stroke: #8172b3; stroke-width: 1.2"/>
    <defs>
     <path id="mfb3cf555a7" d="M 0 -6 
L -6 -0 
L -0 6 
L 6 0 
z
" style="stroke: #8172b3; stroke-linejoin: miter"/>
    </defs>
    <g>
     <use xlink:href="#mfb3cf555a7" x="709.214756" y="29.837438" style="fill: #8172b3; stroke: #8172b3; stroke-linejoin: miter"/>
    </g>
   </g>
   <g id="text_32">
    <!-- Fused Cell-Based (NeoN) -->
    <g style="fill: #262626" transform="translate(736.142756 35.073438) scale(0.1496 -0.1496)">
     <use xlink:href="#ArialMT-46"/>
     <use xlink:href="#ArialMT-75" transform="translate(61.083984 0)"/>
     <use xlink:href="#ArialMT-73" transform="translate(116.699219 0)"/>
     <use xlink:href="#ArialMT-65" transform="translate(166.699219 0)"/>
     <use xlink:href="#ArialMT-64" transform="translate(222.314453 0)"/>
     <use xlink:href="#ArialMT-20" transform="translate(277.929688 0)"/>
     <use xlink:href="#ArialMT-43" transform="translate(305.712891 0)"/>
     <use xlink:href="#ArialMT-65" transform="translate(377.929688 0)"/>
     <use xlink:href="#ArialMT-6c" transform="translate(433.544922 0)"/>
     <use xlink:href="#ArialMT-6c" transform="translate(455.761719 0)"/>
     <use xlink:href="#ArialMT-2d" transform="translate(477.978516 0)"/>
     <use xlink:href="#ArialMT-42" transform="translate(511.279297 0)"/>
     <use xlink:href="#ArialMT-61" transform="translate(577.978516 0)"/>
     <use xlink:href="#ArialMT-73" transform="translate(633.59375 0)"/>
     <use xlink:href="#ArialMT-65" transform="translate(683.59375 0)"/>
     <use xlink:href="#ArialMT-64" transform="translate(739.208984 0)"/>
     <use xlink:href="#ArialMT-20" transform="translate(794.824219 0)"/>
     <use xlink:href="#ArialMT-28" transform="translate(822.607422 0)"/>
     <use xlink:href="#ArialMT-4e" transform="translate(855.908203 0)"/>
     <use xlink:href="#ArialMT-65" transform="translate(928.125 0)"/>
     <use xlink:href="#ArialMT-6f" transform="translate(983.740234 0)"/>
     <use xlink:href="#ArialMT-4e" transform="translate(1039.355469 0)"/>
     <use xlink:href="#ArialMT-29" transform="translate(1111.572266 0)"/>
    </g>
   </g>
  </g>
 </g>
 <defs>
  <clipPath id="p735bb53379">
   <rect x="66.83292" y="79.2" width="422.477985" height="222.7944"/>
  </clipPath>
  <clipPath id="p4c5eb3a994">
   <rect x="513.182895" y="79.2" width="422.477985" height="222.7944"/>
  </clipPath>
 </defs>
</svg>
