<?xml version="1.0" encoding="utf-8" standalone="no"?>
<!DOCTYPE svg PUBLIC "-//W3C//DTD SVG 1.1//EN"
  "http://www.w3.org/Graphics/SVG/1.1/DTD/svg11.dtd">
<svg xmlns:xlink="http://www.w3.org/1999/xlink" width="553.626pt" height="360pt" viewBox="0 0 553.626 360" xmlns="http://www.w3.org/2000/svg" version="1.1">
 <metadata>
  <rdf:RDF xmlns:dc="http://purl.org/dc/elements/1.1/" xmlns:cc="http://creativecommons.org/ns#" xmlns:rdf="http://www.w3.org/1999/02/22-rdf-syntax-ns#">
   <cc:Work>
    <dc:type rdf:resource="http://purl.org/dc/dcmitype/StillImage"/>
    <dc:date>2026-06-24T17:16:54.335068</dc:date>
    <dc:format>image/svg+xml</dc:format>
    <dc:creator>
     <cc:Agent>
      <dc:title>Matplotlib v3.10.9, https://matplotlib.org/</dc:title>
     </cc:Agent>
    </dc:creator>
   </cc:Work>
  </rdf:RDF>
 </metadata>
 <defs>
  <style type="text/css">*{stroke-linejoin: round; stroke-linecap: butt}</style>
 </defs>
 <g id="figure_1">
  <g id="patch_1">
   <path d="M 0 360 
L 553.626 360 
L 553.626 0 
L 0 0 
z
" style="fill: #ffffff"/>
  </g>
  <g id="axes_1">
   <g id="patch_2">
    <path d="M 73.4856 297.6744 
L 535.40489 297.6744 
L 535.40489 17.6256 
L 73.4856 17.6256 
z
" style="fill: #ffffff"/>
   </g>
   <g id="matplotlib.axis_1">
    <g id="xtick_1">
     <g id="line2d_1">
      <path d="M 94.481931 297.6744 
L 94.481931 17.6256 
" clip-path="url(#pe0d3f08fd8)" style="fill: none; stroke: #cccccc; stroke-width: 0.8; stroke-linecap: round"/>
     </g>
     <g id="text_1">
      <!-- 1 -->
      <g style="fill: #262626" transform="translate(90.32235 316.682487) scale(0.1496 -0.1496)">
       <defs>
        <path id="ArialMT-31" d="M 2384 0 
L 1822 0 
L 1822 3584 
Q 1619 3391 1289 3197 
Q 959 3003 697 2906 
L 697 3450 
Q 1169 3672 1522 3987 
Q 1875 4303 2022 4600 
L 2384 4600 
L 2384 0 
z
" transform="scale(0.015625)"/>
       </defs>
       <use xlink:href="#ArialMT-31"/>
      </g>
     </g>
    </g>
    <g id="xtick_2">
     <g id="line2d_2">
      <path d="M 154.47145 297.6744 
L 154.47145 17.6256 
" clip-path="url(#pe0d3f08fd8)" style="fill: none; stroke: #cccccc; stroke-width: 0.8; stroke-linecap: round"/>
     </g>
     <g id="text_2">
      <!-- 2 -->
      <g style="fill: #262626" transform="translate(150.311868 316.682487) scale(0.1496 -0.1496)">
       <defs>
        <path id="ArialMT-32" d="M 3222 541 
L 3222 0 
L 194 0 
Q 188 203 259 391 
Q 375 700 629 1000 
Q 884 1300 1366 1694 
Q 2113 2306 2375 2664 
Q 2638 3022 2638 3341 
Q 2638 3675 2398 3904 
Q 2159 4134 1775 4134 
Q 1369 4134 1125 3890 
Q 881 3647 878 3216 
L 300 3275 
Q 359 3922 746 4261 
Q 1134 4600 1788 4600 
Q 2447 4600 2831 4234 
Q 3216 3869 3216 3328 
Q 3216 3053 3103 2787 
Q 2991 2522 2730 2228 
Q 2469 1934 1863 1422 
Q 1356 997 1212 845 
Q 1069 694 975 541 
L 3222 541 
z
" transform="scale(0.015625)"/>
       </defs>
       <use xlink:href="#ArialMT-32"/>
      </g>
     </g>
    </g>
    <g id="xtick_3">
     <g id="line2d_3">
      <path d="M 214.460968 297.6744 
L 214.460968 17.6256 
" clip-path="url(#pe0d3f08fd8)" style="fill: none; stroke: #cccccc; stroke-width: 0.8; stroke-linecap: round"/>
     </g>
     <g id="text_3">
      <!-- 4 -->
      <g style="fill: #262626" transform="translate(210.301387 316.682487) scale(0.1496 -0.1496)">
       <defs>
        <path id="ArialMT-34" d="M 2069 0 
L 2069 1097 
L 81 1097 
L 81 1613 
L 2172 4581 
L 2631 4581 
L 2631 1613 
L 3250 1613 
L 3250 1097 
L 2631 1097 
L 2631 0 
L 2069 0 
z
M 2069 1613 
L 2069 3678 
L 634 1613 
L 2069 1613 
z
" transform="scale(0.015625)"/>
       </defs>
       <use xlink:href="#ArialMT-34"/>
      </g>
     </g>
    </g>
    <g id="xtick_4">
     <g id="line2d_4">
      <path d="M 274.450486 297.6744 
L 274.450486 17.6256 
" clip-path="url(#pe0d3f08fd8)" style="fill: none; stroke: #cccccc; stroke-width: 0.8; stroke-linecap: round"/>
     </g>
     <g id="text_4">
      <!-- 8 -->
      <g style="fill: #262626" transform="translate(270.290905 316.682487) scale(0.1496 -0.1496)">
       <defs>
        <path id="ArialMT-38" d="M 1131 2484 
Q 781 2613 612 2850 
Q 444 3088 444 3419 
Q 444 3919 803 4259 
Q 1163 4600 1759 4600 
Q 2359 4600 2725 4251 
Q 3091 3903 3091 3403 
Q 3091 3084 2923 2848 
Q 2756 2613 2416 2484 
Q 2838 2347 3058 2040 
Q 3278 1734 3278 1309 
Q 3278 722 2862 322 
Q 2447 -78 1769 -78 
Q 1091 -78 675 323 
Q 259 725 259 1325 
Q 259 1772 486 2073 
Q 713 2375 1131 2484 
z
M 1019 3438 
Q 1019 3113 1228 2906 
Q 1438 2700 1772 2700 
Q 2097 2700 2305 2904 
Q 2513 3109 2513 3406 
Q 2513 3716 2298 3927 
Q 2084 4138 1766 4138 
Q 1444 4138 1231 3931 
Q 1019 3725 1019 3438 
z
M 838 1322 
Q 838 1081 952 856 
Q 1066 631 1291 507 
Q 1516 384 1775 384 
Q 2178 384 2440 643 
Q 2703 903 2703 1303 
Q 2703 1709 2433 1975 
Q 2163 2241 1756 2241 
Q 1359 2241 1098 1978 
Q 838 1716 838 1322 
z
" transform="scale(0.015625)"/>
       </defs>
       <use xlink:href="#ArialMT-38"/>
      </g>
     </g>
    </g>
    <g id="xtick_5">
     <g id="line2d_5">
      <path d="M 334.440004 297.6744 
L 334.440004 17.6256 
" clip-path="url(#pe0d3f08fd8)" style="fill: none; stroke: #cccccc; stroke-width: 0.8; stroke-linecap: round"/>
     </g>
     <g id="text_5">
      <!-- 16 -->
      <g style="fill: #262626" transform="translate(326.120842 316.682487) scale(0.1496 -0.1496)">
       <defs>
        <path id="ArialMT-36" d="M 3184 3459 
L 2625 3416 
Q 2550 3747 2413 3897 
Q 2184 4138 1850 4138 
Q 1581 4138 1378 3988 
Q 1113 3794 959 3422 
Q 806 3050 800 2363 
Q 1003 2672 1297 2822 
Q 1591 2972 1913 2972 
Q 2475 2972 2870 2558 
Q 3266 2144 3266 1488 
Q 3266 1056 3080 686 
Q 2894 316 2569 119 
Q 2244 -78 1831 -78 
Q 1128 -78 684 439 
Q 241 956 241 2144 
Q 241 3472 731 4075 
Q 1159 4600 1884 4600 
Q 2425 4600 2770 4297 
Q 3116 3994 3184 3459 
z
M 888 1484 
Q 888 1194 1011 928 
Q 1134 663 1356 523 
Q 1578 384 1822 384 
Q 2178 384 2434 671 
Q 2691 959 2691 1453 
Q 2691 1928 2437 2201 
Q 2184 2475 1800 2475 
Q 1419 2475 1153 2201 
Q 888 1928 888 1484 
z
" transform="scale(0.015625)"/>
       </defs>
       <use xlink:href="#ArialMT-31"/>
       <use xlink:href="#ArialMT-36" transform="translate(55.615234 0)"/>
      </g>
     </g>
    </g>
    <g id="xtick_6">
     <g id="line2d_6">
      <path d="M 394.429523 297.6744 
L 394.429523 17.6256 
" clip-path="url(#pe0d3f08fd8)" style="fill: none; stroke: #cccccc; stroke-width: 0.8; stroke-linecap: round"/>
     </g>
     <g id="text_6">
      <!-- 32 -->
      <g style="fill: #262626" transform="translate(386.11036 316.682487) scale(0.1496 -0.1496)">
       <defs>
        <path id="ArialMT-33" d="M 269 1209 
L 831 1284 
Q 928 806 1161 595 
Q 1394 384 1728 384 
Q 2125 384 2398 659 
Q 2672 934 2672 1341 
Q 2672 1728 2419 1979 
Q 2166 2231 1775 2231 
Q 1616 2231 1378 2169 
L 1441 2663 
Q 1497 2656 1531 2656 
Q 1891 2656 2178 2843 
Q 2466 3031 2466 3422 
Q 2466 3731 2256 3934 
Q 2047 4138 1716 4138 
Q 1388 4138 1169 3931 
Q 950 3725 888 3313 
L 325 3413 
Q 428 3978 793 4289 
Q 1159 4600 1703 4600 
Q 2078 4600 2393 4439 
Q 2709 4278 2876 4000 
Q 3044 3722 3044 3409 
Q 3044 3113 2884 2869 
Q 2725 2625 2413 2481 
Q 2819 2388 3044 2092 
Q 3269 1797 3269 1353 
Q 3269 753 2831 336 
Q 2394 -81 1725 -81 
Q 1122 -81 723 278 
Q 325 638 269 1209 
z
" transform="scale(0.015625)"/>
       </defs>
       <use xlink:href="#ArialMT-33"/>
       <use xlink:href="#ArialMT-32" transform="translate(55.615234 0)"/>
      </g>
     </g>
    </g>
    <g id="xtick_7">
     <g id="line2d_7">
      <path d="M 454.419041 297.6744 
L 454.419041 17.6256 
" clip-path="url(#pe0d3f08fd8)" style="fill: none; stroke: #cccccc; stroke-width: 0.8; stroke-linecap: round"/>
     </g>
     <g id="text_7">
      <!-- 64 -->
      <g style="fill: #262626" transform="translate(446.099878 316.682487) scale(0.1496 -0.1496)">
       <use xlink:href="#ArialMT-36"/>
       <use xlink:href="#ArialMT-34" transform="translate(55.615234 0)"/>
      </g>
     </g>
    </g>
    <g id="xtick_8">
     <g id="line2d_8">
      <path d="M 514.408559 297.6744 
L 514.408559 17.6256 
" clip-path="url(#pe0d3f08fd8)" style="fill: none; stroke: #cccccc; stroke-width: 0.8; stroke-linecap: round"/>
     </g>
     <g id="text_8">
      <!-- 128 -->
      <g style="fill: #262626" transform="translate(501.929815 316.682487) scale(0.1496 -0.1496)">
       <use xlink:href="#ArialMT-31"/>
       <use xlink:href="#ArialMT-32" transform="translate(55.615234 0)"/>
       <use xlink:href="#ArialMT-38" transform="translate(111.230469 0)"/>
      </g>
     </g>
    </g>
    <g id="text_9">
     <!-- Threads -->
     <g style="fill: #262626" transform="translate(267.763995 337.971412) scale(0.2 -0.2)">
      <defs>
       <path id="ArialMT-54" d="M 1659 0 
L 1659 4041 
L 150 4041 
L 150 4581 
L 3781 4581 
L 3781 4041 
L 2266 4041 
L 2266 0 
L 1659 0 
z
" transform="scale(0.015625)"/>
       <path id="ArialMT-68" d="M 422 0 
L 422 4581 
L 984 4581 
L 984 2938 
Q 1378 3394 1978 3394 
Q 2347 3394 2619 3248 
Q 2891 3103 3008 2847 
Q 3125 2591 3125 2103 
L 3125 0 
L 2563 0 
L 2563 2103 
Q 2563 2525 2380 2717 
Q 2197 2909 1863 2909 
Q 1613 2909 1392 2779 
Q 1172 2650 1078 2428 
Q 984 2206 984 1816 
L 984 0 
L 422 0 
z
" transform="scale(0.015625)"/>
       <path id="ArialMT-72" d="M 416 0 
L 416 3319 
L 922 3319 
L 922 2816 
Q 1116 3169 1280 3281 
Q 1444 3394 1641 3394 
Q 1925 3394 2219 3213 
L 2025 2691 
Q 1819 2813 1613 2813 
Q 1428 2813 1281 2702 
Q 1134 2591 1072 2394 
Q 978 2094 978 1738 
L 978 0 
L 416 0 
z
" transform="scale(0.015625)"/>
       <path id="ArialMT-65" d="M 2694 1069 
L 3275 997 
Q 3138 488 2766 206 
Q 2394 -75 1816 -75 
Q 1088 -75 661 373 
Q 234 822 234 1631 
Q 234 2469 665 2931 
Q 1097 3394 1784 3394 
Q 2450 3394 2872 2941 
Q 3294 2488 3294 1666 
Q 3294 1616 3291 1516 
L 816 1516 
Q 847 969 1125 678 
Q 1403 388 1819 388 
Q 2128 388 2347 550 
Q 2566 713 2694 1069 
z
M 847 1978 
L 2700 1978 
Q 2663 2397 2488 2606 
Q 2219 2931 1791 2931 
Q 1403 2931 1139 2672 
Q 875 2413 847 1978 
z
" transform="scale(0.015625)"/>
       <path id="ArialMT-61" d="M 2588 409 
Q 2275 144 1986 34 
Q 1697 -75 1366 -75 
Q 819 -75 525 192 
Q 231 459 231 875 
Q 231 1119 342 1320 
Q 453 1522 633 1644 
Q 813 1766 1038 1828 
Q 1203 1872 1538 1913 
Q 2219 1994 2541 2106 
Q 2544 2222 2544 2253 
Q 2544 2597 2384 2738 
Q 2169 2928 1744 2928 
Q 1347 2928 1158 2789 
Q 969 2650 878 2297 
L 328 2372 
Q 403 2725 575 2942 
Q 747 3159 1072 3276 
Q 1397 3394 1825 3394 
Q 2250 3394 2515 3294 
Q 2781 3194 2906 3042 
Q 3031 2891 3081 2659 
Q 3109 2516 3109 2141 
L 3109 1391 
Q 3109 606 3145 398 
Q 3181 191 3288 0 
L 2700 0 
Q 2613 175 2588 409 
z
M 2541 1666 
Q 2234 1541 1622 1453 
Q 1275 1403 1131 1340 
Q 988 1278 909 1158 
Q 831 1038 831 891 
Q 831 666 1001 516 
Q 1172 366 1500 366 
Q 1825 366 2078 508 
Q 2331 650 2450 897 
Q 2541 1088 2541 1459 
L 2541 1666 
z
" transform="scale(0.015625)"/>
       <path id="ArialMT-64" d="M 2575 0 
L 2575 419 
Q 2259 -75 1647 -75 
Q 1250 -75 917 144 
Q 584 363 401 755 
Q 219 1147 219 1656 
Q 219 2153 384 2558 
Q 550 2963 881 3178 
Q 1213 3394 1622 3394 
Q 1922 3394 2156 3267 
Q 2391 3141 2538 2938 
L 2538 4581 
L 3097 4581 
L 3097 0 
L 2575 0 
z
M 797 1656 
Q 797 1019 1065 703 
Q 1334 388 1700 388 
Q 2069 388 2326 689 
Q 2584 991 2584 1609 
Q 2584 2291 2321 2609 
Q 2059 2928 1675 2928 
Q 1300 2928 1048 2622 
Q 797 2316 797 1656 
z
" transform="scale(0.015625)"/>
       <path id="ArialMT-73" d="M 197 991 
L 753 1078 
Q 800 744 1014 566 
Q 1228 388 1613 388 
Q 2000 388 2187 545 
Q 2375 703 2375 916 
Q 2375 1106 2209 1216 
Q 2094 1291 1634 1406 
Q 1016 1563 777 1677 
Q 538 1791 414 1992 
Q 291 2194 291 2438 
Q 291 2659 392 2848 
Q 494 3038 669 3163 
Q 800 3259 1026 3326 
Q 1253 3394 1513 3394 
Q 1903 3394 2198 3281 
Q 2494 3169 2634 2976 
Q 2775 2784 2828 2463 
L 2278 2388 
Q 2241 2644 2061 2787 
Q 1881 2931 1553 2931 
Q 1166 2931 1000 2803 
Q 834 2675 834 2503 
Q 834 2394 903 2306 
Q 972 2216 1119 2156 
Q 1203 2125 1616 2013 
Q 2213 1853 2448 1751 
Q 2684 1650 2818 1456 
Q 2953 1263 2953 975 
Q 2953 694 2789 445 
Q 2625 197 2315 61 
Q 2006 -75 1616 -75 
Q 969 -75 630 194 
Q 291 463 197 991 
z
" transform="scale(0.015625)"/>
      </defs>
      <use xlink:href="#ArialMT-54"/>
      <use xlink:href="#ArialMT-68" transform="translate(61.083984 0)"/>
      <use xlink:href="#ArialMT-72" transform="translate(116.699219 0)"/>
      <use xlink:href="#ArialMT-65" transform="translate(150 0)"/>
      <use xlink:href="#ArialMT-61" transform="translate(205.615234 0)"/>
      <use xlink:href="#ArialMT-64" transform="translate(261.230469 0)"/>
      <use xlink:href="#ArialMT-73" transform="translate(316.845703 0)"/>
     </g>
    </g>
   </g>
   <g id="matplotlib.axis_2">
    <g id="ytick_1">
     <g id="line2d_9">
      <path d="M 73.4856 228.094865 
L 535.40489 228.094865 
" clip-path="url(#pe0d3f08fd8)" style="fill: none; stroke: #cccccc; stroke-width: 0.8; stroke-linecap: round"/>
     </g>
     <g id="text_10">
      <!-- 1 -->
      <g style="fill: #262626" transform="translate(56.866437 233.448908) scale(0.1496 -0.1496)">
       <use xlink:href="#ArialMT-31"/>
      </g>
     </g>
    </g>
    <g id="ytick_2">
     <g id="line2d_10">
      <path d="M 73.4856 199.846325 
L 535.40489 199.846325 
" clip-path="url(#pe0d3f08fd8)" style="fill: none; stroke: #cccccc; stroke-width: 0.8; stroke-linecap: round"/>
     </g>
     <g id="text_11">
      <!-- 2 -->
      <g style="fill: #262626" transform="translate(56.866437 205.200369) scale(0.1496 -0.1496)">
       <use xlink:href="#ArialMT-32"/>
      </g>
     </g>
    </g>
    <g id="ytick_3">
     <g id="line2d_11">
      <path d="M 73.4856 171.597786 
L 535.40489 171.597786 
" clip-path="url(#pe0d3f08fd8)" style="fill: none; stroke: #cccccc; stroke-width: 0.8; stroke-linecap: round"/>
     </g>
     <g id="text_12">
      <!-- 4 -->
      <g style="fill: #262626" transform="translate(56.866437 176.95183) scale(0.1496 -0.1496)">
       <use xlink:href="#ArialMT-34"/>
      </g>
     </g>
    </g>
    <g id="ytick_4">
     <g id="line2d_12">
      <path d="M 73.4856 143.349247 
L 535.40489 143.349247 
" clip-path="url(#pe0d3f08fd8)" style="fill: none; stroke: #cccccc; stroke-width: 0.8; stroke-linecap: round"/>
     </g>
     <g id="text_13">
      <!-- 8 -->
      <g style="fill: #262626" transform="translate(56.866437 148.703291) scale(0.1496 -0.1496)">
       <use xlink:href="#ArialMT-38"/>
      </g>
     </g>
    </g>
    <g id="ytick_5">
     <g id="line2d_13">
      <path d="M 73.4856 115.100708 
L 535.40489 115.100708 
" clip-path="url(#pe0d3f08fd8)" style="fill: none; stroke: #cccccc; stroke-width: 0.8; stroke-linecap: round"/>
     </g>
     <g id="text_14">
      <!-- 16 -->
      <g style="fill: #262626" transform="translate(48.547275 120.454752) scale(0.1496 -0.1496)">
       <use xlink:href="#ArialMT-31"/>
       <use xlink:href="#ArialMT-36" transform="translate(55.615234 0)"/>
      </g>
     </g>
    </g>
    <g id="ytick_6">
     <g id="line2d_14">
      <path d="M 73.4856 86.852169 
L 535.40489 86.852169 
" clip-path="url(#pe0d3f08fd8)" style="fill: none; stroke: #cccccc; stroke-width: 0.8; stroke-linecap: round"/>
     </g>
     <g id="text_15">
      <!-- 32 -->
      <g style="fill: #262626" transform="translate(48.547275 92.206213) scale(0.1496 -0.1496)">
       <use xlink:href="#ArialMT-33"/>
       <use xlink:href="#ArialMT-32" transform="translate(55.615234 0)"/>
      </g>
     </g>
    </g>
    <g id="ytick_7">
     <g id="line2d_15">
      <path d="M 73.4856 58.60363 
L 535.40489 58.60363 
" clip-path="url(#pe0d3f08fd8)" style="fill: none; stroke: #cccccc; stroke-width: 0.8; stroke-linecap: round"/>
     </g>
     <g id="text_16">
      <!-- 64 -->
      <g style="fill: #262626" transform="translate(48.547275 63.957674) scale(0.1496 -0.1496)">
       <use xlink:href="#ArialMT-36"/>
       <use xlink:href="#ArialMT-34" transform="translate(55.615234 0)"/>
      </g>
     </g>
    </g>
    <g id="ytick_8">
     <g id="line2d_16">
      <path d="M 73.4856 30.355091 
L 535.40489 30.355091 
" clip-path="url(#pe0d3f08fd8)" style="fill: none; stroke: #cccccc; stroke-width: 0.8; stroke-linecap: round"/>
     </g>
     <g id="text_17">
      <!-- 128 -->
      <g style="fill: #262626" transform="translate(40.228112 35.709135) scale(0.1496 -0.1496)">
       <use xlink:href="#ArialMT-31"/>
       <use xlink:href="#ArialMT-32" transform="translate(55.615234 0)"/>
       <use xlink:href="#ArialMT-38" transform="translate(111.230469 0)"/>
      </g>
     </g>
    </g>
    <g id="text_18">
     <!-- Speedup -->
     <g style="fill: #262626" transform="translate(32.253112 197.685938) rotate(-90) scale(0.2 -0.2)">
      <defs>
       <path id="ArialMT-53" d="M 288 1472 
L 859 1522 
Q 900 1178 1048 958 
Q 1197 738 1509 602 
Q 1822 466 2213 466 
Q 2559 466 2825 569 
Q 3091 672 3220 851 
Q 3350 1031 3350 1244 
Q 3350 1459 3225 1620 
Q 3100 1781 2813 1891 
Q 2628 1963 1997 2114 
Q 1366 2266 1113 2400 
Q 784 2572 623 2826 
Q 463 3081 463 3397 
Q 463 3744 659 4045 
Q 856 4347 1234 4503 
Q 1613 4659 2075 4659 
Q 2584 4659 2973 4495 
Q 3363 4331 3572 4012 
Q 3781 3694 3797 3291 
L 3216 3247 
Q 3169 3681 2898 3903 
Q 2628 4125 2100 4125 
Q 1550 4125 1298 3923 
Q 1047 3722 1047 3438 
Q 1047 3191 1225 3031 
Q 1400 2872 2139 2705 
Q 2878 2538 3153 2413 
Q 3553 2228 3743 1945 
Q 3934 1663 3934 1294 
Q 3934 928 3725 604 
Q 3516 281 3123 101 
Q 2731 -78 2241 -78 
Q 1619 -78 1198 103 
Q 778 284 539 648 
Q 300 1013 288 1472 
z
" transform="scale(0.015625)"/>
       <path id="ArialMT-70" d="M 422 -1272 
L 422 3319 
L 934 3319 
L 934 2888 
Q 1116 3141 1344 3267 
Q 1572 3394 1897 3394 
Q 2322 3394 2647 3175 
Q 2972 2956 3137 2557 
Q 3303 2159 3303 1684 
Q 3303 1175 3120 767 
Q 2938 359 2589 142 
Q 2241 -75 1856 -75 
Q 1575 -75 1351 44 
Q 1128 163 984 344 
L 984 -1272 
L 422 -1272 
z
M 931 1641 
Q 931 1000 1190 694 
Q 1450 388 1819 388 
Q 2194 388 2461 705 
Q 2728 1022 2728 1688 
Q 2728 2322 2467 2637 
Q 2206 2953 1844 2953 
Q 1484 2953 1207 2617 
Q 931 2281 931 1641 
z
" transform="scale(0.015625)"/>
       <path id="ArialMT-75" d="M 2597 0 
L 2597 488 
Q 2209 -75 1544 -75 
Q 1250 -75 995 37 
Q 741 150 617 320 
Q 494 491 444 738 
Q 409 903 409 1263 
L 409 3319 
L 972 3319 
L 972 1478 
Q 972 1038 1006 884 
Q 1059 663 1231 536 
Q 1403 409 1656 409 
Q 1909 409 2131 539 
Q 2353 669 2445 892 
Q 2538 1116 2538 1541 
L 2538 3319 
L 3100 3319 
L 3100 0 
L 2597 0 
z
" transform="scale(0.015625)"/>
      </defs>
      <use xlink:href="#ArialMT-53"/>
      <use xlink:href="#ArialMT-70" transform="translate(66.699219 0)"/>
      <use xlink:href="#ArialMT-65" transform="translate(122.314453 0)"/>
      <use xlink:href="#ArialMT-65" transform="translate(177.929688 0)"/>
      <use xlink:href="#ArialMT-64" transform="translate(233.544922 0)"/>
      <use xlink:href="#ArialMT-75" transform="translate(289.160156 0)"/>
      <use xlink:href="#ArialMT-70" transform="translate(344.775391 0)"/>
     </g>
    </g>
   </g>
   <g id="PathCollection_1">
    <path d="M 94.481931 260.151114 
C 95.591356 260.151114 96.65549 259.710336 97.439971 258.925854 
C 98.224453 258.141373 98.665232 257.077239 98.665232 255.967814 
C 98.665232 254.85839 98.224453 253.794256 97.439971 253.009774 
C 96.65549 252.225293 95.591356 251.784514 94.481931 251.784514 
C 93.372507 251.784514 92.308373 252.225293 91.523891 253.009774 
C 90.73941 253.794256 90.298631 254.85839 90.298631 255.967814 
C 90.298631 257.077239 90.73941 258.141373 91.523891 258.925854 
C 92.308373 259.710336 93.372507 260.151114 94.481931 260.151114 
z
" clip-path="url(#pe0d3f08fd8)" style="fill: #4c72b0; stroke: #ffffff; stroke-width: 0.669328"/>
    <path d="M 92.390281 260.339281 
L 94.481931 258.247631 
L 96.573581 260.339281 
L 98.665232 258.247631 
L 96.573581 256.155981 
L 98.665232 254.064331 
L 96.573581 251.972681 
L 94.481931 254.064331 
L 92.390281 251.972681 
L 90.298631 254.064331 
L 92.390281 256.155981 
L 90.298631 258.247631 
z
" clip-path="url(#pe0d3f08fd8)" style="fill: #dd8452; stroke: #ffffff; stroke-width: 0.669328"/>
    <path d="M 91.523891 253.213096 
L 91.523891 259.129176 
L 97.439971 259.129176 
L 97.439971 253.213096 
z
" clip-path="url(#pe0d3f08fd8)" style="fill: #55a868; stroke: #ffffff; stroke-width: 0.669328"/>
    <path d="M 93.087498 260.449352 
L 95.876365 260.449352 
L 95.876365 257.660486 
L 98.665232 257.660486 
L 98.665232 254.871619 
L 95.876365 254.871619 
L 95.876365 252.082752 
L 93.087498 252.082752 
L 93.087498 254.871619 
L 90.298631 254.871619 
L 90.298631 257.660486 
L 93.087498 257.660486 
z
" clip-path="url(#pe0d3f08fd8)" style="fill: #c44e52; stroke: #ffffff; stroke-width: 0.669328"/>
    <path d="M 154.47145 289.128209 
C 155.580874 289.128209 156.645008 288.68743 157.429489 287.902949 
C 158.213971 287.118468 158.65475 286.054333 158.65475 284.944909 
C 158.65475 283.835485 158.213971 282.771351 157.429489 281.986869 
C 156.645008 281.202388 155.580874 280.761609 154.47145 280.761609 
C 153.362025 280.761609 152.297891 281.202388 151.51341 281.986869 
C 150.728928 282.771351 150.288149 283.835485 150.288149 284.944909 
C 150.288149 286.054333 150.728928 287.118468 151.51341 287.902949 
C 152.297891 288.68743 153.362025 289.128209 154.47145 289.128209 
z
" clip-path="url(#pe0d3f08fd8)" style="fill: #4c72b0; stroke: #ffffff; stroke-width: 0.669328"/>
    <path d="M 152.3798 277.114875 
L 154.47145 275.023225 
L 156.5631 277.114875 
L 158.65475 275.023225 
L 156.5631 272.931575 
L 158.65475 270.839925 
L 156.5631 268.748275 
L 154.47145 270.839925 
L 152.3798 268.748275 
L 150.288149 270.839925 
L 152.3798 272.931575 
L 150.288149 275.023225 
z
" clip-path="url(#pe0d3f08fd8)" style="fill: #dd8452; stroke: #ffffff; stroke-width: 0.669328"/>
    <path d="M 151.51341 232.238742 
L 151.51341 238.154822 
L 157.429489 238.154822 
L 157.429489 232.238742 
z
" clip-path="url(#pe0d3f08fd8)" style="fill: #55a868; stroke: #ffffff; stroke-width: 0.669328"/>
    <path d="M 153.077016 243.995122 
L 155.865883 243.995122 
L 155.865883 241.206256 
L 158.65475 241.206256 
L 158.65475 238.417389 
L 155.865883 238.417389 
L 155.865883 235.628522 
L 153.077016 235.628522 
L 153.077016 238.417389 
L 150.288149 238.417389 
L 150.288149 241.206256 
L 153.077016 241.206256 
z
" clip-path="url(#pe0d3f08fd8)" style="fill: #c44e52; stroke: #ffffff; stroke-width: 0.669328"/>
    <path d="M 214.460968 269.679134 
C 215.570392 269.679134 216.634526 269.238355 217.419008 268.453874 
C 218.203489 267.669393 218.644268 266.605258 218.644268 265.495834 
C 218.644268 264.38641 218.203489 263.322276 217.419008 262.537794 
C 216.634526 261.753313 215.570392 261.312534 214.460968 261.312534 
C 213.351544 261.312534 212.287409 261.753313 211.502928 262.537794 
C 210.718447 263.322276 210.277668 264.38641 210.277668 265.495834 
C 210.277668 266.605258 210.718447 267.669393 211.502928 268.453874 
C 212.287409 269.238355 213.351544 269.679134 214.460968 269.679134 
z
" clip-path="url(#pe0d3f08fd8)" style="fill: #4c72b0; stroke: #ffffff; stroke-width: 0.669328"/>
    <path d="M 212.369318 253.607946 
L 214.460968 251.516296 
L 216.552618 253.607946 
L 218.644268 251.516296 
L 216.552618 249.424646 
L 218.644268 247.332996 
L 216.552618 245.241346 
L 214.460968 247.332996 
L 212.369318 245.241346 
L 210.277668 247.332996 
L 212.369318 249.424646 
L 210.277668 251.516296 
z
" clip-path="url(#pe0d3f08fd8)" style="fill: #dd8452; stroke: #ffffff; stroke-width: 0.669328"/>
    <path d="M 211.502928 216.9669 
L 211.502928 222.88298 
L 217.419008 222.88298 
L 217.419008 216.9669 
z
" clip-path="url(#pe0d3f08fd8)" style="fill: #55a868; stroke: #ffffff; stroke-width: 0.669328"/>
    <path d="M 213.066534 218.47428 
L 215.855401 218.47428 
L 215.855401 215.685413 
L 218.644268 215.685413 
L 218.644268 212.896546 
L 215.855401 212.896546 
L 215.855401 210.107679 
L 213.066534 210.107679 
L 213.066534 212.896546 
L 210.277668 212.896546 
L 210.277668 215.685413 
L 213.066534 215.685413 
z
" clip-path="url(#pe0d3f08fd8)" style="fill: #c44e52; stroke: #ffffff; stroke-width: 0.669328"/>
    <path d="M 334.440004 229.118502 
C 335.549428 229.118502 336.613563 228.677723 337.398044 227.893241 
C 338.182526 227.10876 338.623304 226.044626 338.623304 224.935202 
C 338.623304 223.825777 338.182526 222.761643 337.398044 221.977162 
C 336.613563 221.19268 335.549428 220.751901 334.440004 220.751901 
C 333.33058 220.751901 332.266446 221.19268 331.481964 221.977162 
C 330.697483 222.761643 330.256704 223.825777 330.256704 224.935202 
C 330.256704 226.044626 330.697483 227.10876 331.481964 227.893241 
C 332.266446 228.677723 333.33058 229.118502 334.440004 229.118502 
z
" clip-path="url(#pe0d3f08fd8)" style="fill: #4c72b0; stroke: #ffffff; stroke-width: 0.669328"/>
    <path d="M 332.348354 212.533875 
L 334.440004 210.442225 
L 336.531654 212.533875 
L 338.623304 210.442225 
L 336.531654 208.350575 
L 338.623304 206.258925 
L 336.531654 204.167275 
L 334.440004 206.258925 
L 332.348354 204.167275 
L 330.256704 206.258925 
L 332.348354 208.350575 
L 330.256704 210.442225 
z
" clip-path="url(#pe0d3f08fd8)" style="fill: #dd8452; stroke: #ffffff; stroke-width: 0.669328"/>
    <path d="M 331.481964 191.423786 
L 331.481964 197.339866 
L 337.398044 197.339866 
L 337.398044 191.423786 
z
" clip-path="url(#pe0d3f08fd8)" style="fill: #55a868; stroke: #ffffff; stroke-width: 0.669328"/>
    <path d="M 333.045571 171.608573 
L 335.834438 171.608573 
L 335.834438 168.819706 
L 338.623304 168.819706 
L 338.623304 166.030839 
L 335.834438 166.030839 
L 335.834438 163.241973 
L 333.045571 163.241973 
L 333.045571 166.030839 
L 330.256704 166.030839 
L 330.256704 168.819706 
L 333.045571 168.819706 
z
" clip-path="url(#pe0d3f08fd8)" style="fill: #c44e52; stroke: #ffffff; stroke-width: 0.669328"/>
    <path d="M 394.429523 227.178028 
C 395.538947 227.178028 396.603081 226.737249 397.387562 225.952768 
C 398.172044 225.168286 398.612823 224.104152 398.612823 222.994728 
C 398.612823 221.885304 398.172044 220.821169 397.387562 220.036688 
C 396.603081 219.252207 395.538947 218.811428 394.429523 218.811428 
C 393.320098 218.811428 392.255964 219.252207 391.471483 220.036688 
C 390.687001 220.821169 390.246222 221.885304 390.246222 222.994728 
C 390.246222 224.104152 390.687001 225.168286 391.471483 225.952768 
C 392.255964 226.737249 393.320098 227.178028 394.429523 227.178028 
z
" clip-path="url(#pe0d3f08fd8)" style="fill: #4c72b0; stroke: #ffffff; stroke-width: 0.669328"/>
    <path d="M 392.337872 205.665659 
L 394.429523 203.574009 
L 396.521173 205.665659 
L 398.612823 203.574009 
L 396.521173 201.482359 
L 398.612823 199.390709 
L 396.521173 197.299059 
L 394.429523 199.390709 
L 392.337872 197.299059 
L 390.246222 199.390709 
L 392.337872 201.482359 
L 390.246222 203.574009 
z
" clip-path="url(#pe0d3f08fd8)" style="fill: #dd8452; stroke: #ffffff; stroke-width: 0.669328"/>
    <path d="M 391.471483 194.869903 
L 391.471483 200.785983 
L 397.387562 200.785983 
L 397.387562 194.869903 
z
" clip-path="url(#pe0d3f08fd8)" style="fill: #55a868; stroke: #ffffff; stroke-width: 0.669328"/>
    <path d="M 393.035089 159.339272 
L 395.823956 159.339272 
L 395.823956 156.550405 
L 398.612823 156.550405 
L 398.612823 153.761539 
L 395.823956 153.761539 
L 395.823956 150.972672 
L 393.035089 150.972672 
L 393.035089 153.761539 
L 390.246222 153.761539 
L 390.246222 156.550405 
L 393.035089 156.550405 
z
" clip-path="url(#pe0d3f08fd8)" style="fill: #c44e52; stroke: #ffffff; stroke-width: 0.669328"/>
    <path d="M 454.419041 216.417458 
C 455.528465 216.417458 456.592599 215.976679 457.377081 215.192198 
C 458.161562 214.407717 458.602341 213.343582 458.602341 212.234158 
C 458.602341 211.124734 458.161562 210.0606 457.377081 209.276118 
C 456.592599 208.491637 455.528465 208.050858 454.419041 208.050858 
C 453.309617 208.050858 452.245482 208.491637 451.461001 209.276118 
C 450.676519 210.0606 450.235741 211.124734 450.235741 212.234158 
C 450.235741 213.343582 450.676519 214.407717 451.461001 215.192198 
C 452.245482 215.976679 453.309617 216.417458 454.419041 216.417458 
z
" clip-path="url(#pe0d3f08fd8)" style="fill: #4c72b0; stroke: #ffffff; stroke-width: 0.669328"/>
    <path d="M 452.327391 196.974597 
L 454.419041 194.882947 
L 456.510691 196.974597 
L 458.602341 194.882947 
L 456.510691 192.791297 
L 458.602341 190.699647 
L 456.510691 188.607996 
L 454.419041 190.699647 
L 452.327391 188.607996 
L 450.235741 190.699647 
L 452.327391 192.791297 
L 450.235741 194.882947 
z
" clip-path="url(#pe0d3f08fd8)" style="fill: #dd8452; stroke: #ffffff; stroke-width: 0.669328"/>
    <path d="M 451.461001 184.384286 
L 451.461001 190.300365 
L 457.377081 190.300365 
L 457.377081 184.384286 
z
" clip-path="url(#pe0d3f08fd8)" style="fill: #55a868; stroke: #ffffff; stroke-width: 0.669328"/>
    <path d="M 453.024607 145.343891 
L 455.813474 145.343891 
L 455.813474 142.555024 
L 458.602341 142.555024 
L 458.602341 139.766157 
L 455.813474 139.766157 
L 455.813474 136.977291 
L 453.024607 136.977291 
L 453.024607 139.766157 
L 450.235741 139.766157 
L 450.235741 142.555024 
L 453.024607 142.555024 
z
" clip-path="url(#pe0d3f08fd8)" style="fill: #c44e52; stroke: #ffffff; stroke-width: 0.669328"/>
    <path d="M 514.408559 240.592015 
C 515.517983 240.592015 516.582118 240.151236 517.366599 239.366755 
C 518.15108 238.582273 518.591859 237.518139 518.591859 236.408715 
C 518.591859 235.299291 518.15108 234.235156 517.366599 233.450675 
C 516.582118 232.666194 515.517983 232.225415 514.408559 232.225415 
C 513.299135 232.225415 512.235 232.666194 511.450519 233.450675 
C 510.666038 234.235156 510.225259 235.299291 510.225259 236.408715 
C 510.225259 237.518139 510.666038 238.582273 511.450519 239.366755 
C 512.235 240.151236 513.299135 240.592015 514.408559 240.592015 
z
" clip-path="url(#pe0d3f08fd8)" style="fill: #4c72b0; stroke: #ffffff; stroke-width: 0.669328"/>
    <path d="M 512.316909 213.992413 
L 514.408559 211.900763 
L 516.500209 213.992413 
L 518.591859 211.900763 
L 516.500209 209.809113 
L 518.591859 207.717463 
L 516.500209 205.625813 
L 514.408559 207.717463 
L 512.316909 205.625813 
L 510.225259 207.717463 
L 512.316909 209.809113 
L 510.225259 211.900763 
z
" clip-path="url(#pe0d3f08fd8)" style="fill: #dd8452; stroke: #ffffff; stroke-width: 0.669328"/>
    <path d="M 511.450519 228.447652 
L 511.450519 234.363732 
L 517.366599 234.363732 
L 517.366599 228.447652 
z
" clip-path="url(#pe0d3f08fd8)" style="fill: #55a868; stroke: #ffffff; stroke-width: 0.669328"/>
    <path d="M 513.014126 148.224166 
L 515.802992 148.224166 
L 515.802992 145.4353 
L 518.591859 145.4353 
L 518.591859 142.646433 
L 515.802992 142.646433 
L 515.802992 139.857566 
L 513.014126 139.857566 
L 513.014126 142.646433 
L 510.225259 142.646433 
L 510.225259 145.4353 
L 513.014126 145.4353 
z
" clip-path="url(#pe0d3f08fd8)" style="fill: #c44e52; stroke: #ffffff; stroke-width: 0.669328"/>
    <path d="M 454.419041 106.476355 
L 450.235741 110.659655 
L 454.419041 114.842955 
L 458.602341 110.659655 
z
" clip-path="url(#pe0d3f08fd8)" style="fill: #8172b3; stroke: #ffffff; stroke-width: 0.669328"/>
    <path d="M 154.47145 205.268936 
L 150.288149 209.452236 
L 154.47145 213.635536 
L 158.65475 209.452236 
z
" clip-path="url(#pe0d3f08fd8)" style="fill: #8172b3; stroke: #ffffff; stroke-width: 0.669328"/>
    <path d="M 214.460968 186.138904 
L 210.277668 190.322204 
L 214.460968 194.505504 
L 218.644268 190.322204 
z
" clip-path="url(#pe0d3f08fd8)" style="fill: #8172b3; stroke: #ffffff; stroke-width: 0.669328"/>
    <path d="M 274.450486 163.386185 
L 270.267186 167.569486 
L 274.450486 171.752786 
L 278.633786 167.569486 
z
" clip-path="url(#pe0d3f08fd8)" style="fill: #8172b3; stroke: #ffffff; stroke-width: 0.669328"/>
    <path d="M 334.440004 141.572325 
L 330.256704 145.755625 
L 334.440004 149.938925 
L 338.623304 145.755625 
z
" clip-path="url(#pe0d3f08fd8)" style="fill: #8172b3; stroke: #ffffff; stroke-width: 0.669328"/>
    <path d="M 394.429523 128.727374 
L 390.246222 132.910675 
L 394.429523 137.093975 
L 398.612823 132.910675 
z
" clip-path="url(#pe0d3f08fd8)" style="fill: #8172b3; stroke: #ffffff; stroke-width: 0.669328"/>
    <path d="M 94.481931 252.160104 
L 90.298631 256.343404 
L 94.481931 260.526704 
L 98.665232 256.343404 
z
" clip-path="url(#pe0d3f08fd8)" style="fill: #8172b3; stroke: #ffffff; stroke-width: 0.669328"/>
   </g>
   <g id="FillBetweenPolyCollection_1"/>
   <g id="FillBetweenPolyCollection_2"/>
   <g id="FillBetweenPolyCollection_3"/>
   <g id="FillBetweenPolyCollection_4"/>
   <g id="FillBetweenPolyCollection_5"/>
   <g id="line2d_17"/>
   <g id="line2d_18"/>
   <g id="line2d_19"/>
   <g id="line2d_20"/>
   <g id="line2d_21"/>
   <g id="line2d_22">
    <path d="M 94.481931 255.967814 
L 154.47145 284.944909 
L 214.460968 265.495834 
L 334.440004 224.935202 
L 394.429523 222.994728 
L 454.419041 212.234158 
L 514.408559 236.408715 
" clip-path="url(#pe0d3f08fd8)" style="fill: none; stroke: #4c72b0; stroke-width: 1.2; stroke-linecap: round"/>
   </g>
   <g id="line2d_23">
    <path d="M 94.481931 256.155981 
L 154.47145 272.931575 
L 214.460968 249.424646 
L 334.440004 208.350575 
L 394.429523 201.482359 
L 454.419041 192.791297 
L 514.408559 209.809113 
" clip-path="url(#pe0d3f08fd8)" style="fill: none; stroke: #dd8452; stroke-width: 1.2; stroke-linecap: round"/>
   </g>
   <g id="line2d_24">
    <path d="M 94.481931 256.171136 
L 154.47145 235.196782 
L 214.460968 219.92494 
L 334.440004 194.381826 
L 394.429523 197.827943 
L 454.419041 187.342325 
L 514.408559 231.405692 
" clip-path="url(#pe0d3f08fd8)" style="fill: none; stroke: #55a868; stroke-width: 1.2; stroke-linecap: round"/>
   </g>
   <g id="line2d_25">
    <path d="M 94.481931 256.266052 
L 154.47145 239.811822 
L 214.460968 214.29098 
L 334.440004 167.425273 
L 394.429523 155.155972 
L 454.419041 141.160591 
L 514.408559 144.040866 
" clip-path="url(#pe0d3f08fd8)" style="fill: none; stroke: #c44e52; stroke-width: 1.2; stroke-linecap: round"/>
   </g>
   <g id="line2d_26">
    <path d="M 94.481931 256.343404 
L 154.47145 209.452236 
L 214.460968 190.322204 
L 274.450486 167.569486 
L 334.440004 145.755625 
L 394.429523 132.910675 
L 454.419041 110.659655 
" clip-path="url(#pe0d3f08fd8)" style="fill: none; stroke: #8172b3; stroke-width: 1.2; stroke-linecap: round"/>
   </g>
   <g id="line2d_27">
    <path d="M 94.481931 256.343404 
L 514.408559 30.355091 
" clip-path="url(#pe0d3f08fd8)" style="fill: none; stroke-dasharray: 4.44,1.92; stroke-dashoffset: 0; stroke: #1a1a1a; stroke-width: 1.2"/>
   </g>
   <g id="patch_3">
    <path d="M 73.4856 297.6744 
L 73.4856 17.6256 
" style="fill: none; stroke: #cccccc; stroke-linejoin: miter; stroke-linecap: square"/>
   </g>
   <g id="patch_4">
    <path d="M 73.4856 297.6744 
L 535.40489 297.6744 
" style="fill: none; stroke: #cccccc; stroke-linejoin: miter; stroke-linecap: square"/>
   </g>
   <g id="legend_1">
    <g id="patch_5">
     <path d="M 83.9576 158.195838 
L 271.530287 158.195838 
Q 274.522288 158.195838 274.522288 155.203838 
L 274.522288 28.0976 
Q 274.522288 25.1056 271.530287 25.1056 
L 83.9576 25.1056 
Q 80.9656 25.1056 80.9656 28.0976 
L 80.9656 155.203838 
Q 80.9656 158.195838 83.9576 158.195838 
z
" style="fill: #ffffff; opacity: 0.8; stroke: #cccccc; stroke-width: 0.8; stroke-linejoin: miter"/>
    </g>
    <g id="text_19">
     <!-- Strategy -->
     <g style="fill: #262626" transform="translate(147.356869 42.97005) scale(0.1632 -0.1632)">
      <defs>
       <path id="ArialMT-74" d="M 1650 503 
L 1731 6 
Q 1494 -44 1306 -44 
Q 1000 -44 831 53 
Q 663 150 594 308 
Q 525 466 525 972 
L 525 2881 
L 113 2881 
L 113 3319 
L 525 3319 
L 525 4141 
L 1084 4478 
L 1084 3319 
L 1650 3319 
L 1650 2881 
L 1084 2881 
L 1084 941 
Q 1084 700 1114 631 
Q 1144 563 1211 522 
Q 1278 481 1403 481 
Q 1497 481 1650 503 
z
" transform="scale(0.015625)"/>
       <path id="ArialMT-67" d="M 319 -275 
L 866 -356 
Q 900 -609 1056 -725 
Q 1266 -881 1628 -881 
Q 2019 -881 2231 -725 
Q 2444 -569 2519 -288 
Q 2563 -116 2559 434 
Q 2191 0 1641 0 
Q 956 0 581 494 
Q 206 988 206 1678 
Q 206 2153 378 2554 
Q 550 2956 876 3175 
Q 1203 3394 1644 3394 
Q 2231 3394 2613 2919 
L 2613 3319 
L 3131 3319 
L 3131 450 
Q 3131 -325 2973 -648 
Q 2816 -972 2473 -1159 
Q 2131 -1347 1631 -1347 
Q 1038 -1347 672 -1080 
Q 306 -813 319 -275 
z
M 784 1719 
Q 784 1066 1043 766 
Q 1303 466 1694 466 
Q 2081 466 2343 764 
Q 2606 1063 2606 1700 
Q 2606 2309 2336 2618 
Q 2066 2928 1684 2928 
Q 1309 2928 1046 2623 
Q 784 2319 784 1719 
z
" transform="scale(0.015625)"/>
       <path id="ArialMT-79" d="M 397 -1278 
L 334 -750 
Q 519 -800 656 -800 
Q 844 -800 956 -737 
Q 1069 -675 1141 -563 
Q 1194 -478 1313 -144 
Q 1328 -97 1363 -6 
L 103 3319 
L 709 3319 
L 1400 1397 
Q 1534 1031 1641 628 
Q 1738 1016 1872 1384 
L 2581 3319 
L 3144 3319 
L 1881 -56 
Q 1678 -603 1566 -809 
Q 1416 -1088 1222 -1217 
Q 1028 -1347 759 -1347 
Q 597 -1347 397 -1278 
z
" transform="scale(0.015625)"/>
      </defs>
      <use xlink:href="#ArialMT-53"/>
      <use xlink:href="#ArialMT-74" transform="translate(66.699219 0)"/>
      <use xlink:href="#ArialMT-72" transform="translate(94.482422 0)"/>
      <use xlink:href="#ArialMT-61" transform="translate(127.783203 0)"/>
      <use xlink:href="#ArialMT-74" transform="translate(183.398438 0)"/>
      <use xlink:href="#ArialMT-65" transform="translate(211.181641 0)"/>
      <use xlink:href="#ArialMT-67" transform="translate(266.796875 0)"/>
      <use xlink:href="#ArialMT-79" transform="translate(322.412109 0)"/>
     </g>
    </g>
    <g id="line2d_28">
     <defs>
      <path id="m9272c63e06" d="M 0 4.1833 
C 1.109424 4.1833 2.173559 3.742521 2.95804 2.95804 
C 3.742521 2.173559 4.1833 1.109424 4.1833 0 
C 4.1833 -1.109424 3.742521 -2.173559 2.95804 -2.95804 
C 2.173559 -3.742521 1.109424 -4.1833 0 -4.1833 
C -1.109424 -4.1833 -2.173559 -3.742521 -2.95804 -2.95804 
C -3.742521 -2.173559 -4.1833 -1.109424 -4.1833 0 
C -4.1833 1.109424 -3.742521 2.173559 -2.95804 2.95804 
C -2.173559 3.742521 -1.109424 4.1833 0 4.1833 
z
"/>
     </defs>
     <g>
      <use xlink:href="#m9272c63e06" x="101.9096" y="59.356988" style="fill: #4c72b0"/>
     </g>
    </g>
    <g id="text_20">
     <!-- Face-Based -->
     <g style="fill: #262626" transform="translate(128.8376 64.592988) scale(0.1496 -0.1496)">
      <defs>
       <path id="ArialMT-46" d="M 525 0 
L 525 4581 
L 3616 4581 
L 3616 4041 
L 1131 4041 
L 1131 2622 
L 3281 2622 
L 3281 2081 
L 1131 2081 
L 1131 0 
L 525 0 
z
" transform="scale(0.015625)"/>
       <path id="ArialMT-63" d="M 2588 1216 
L 3141 1144 
Q 3050 572 2676 248 
Q 2303 -75 1759 -75 
Q 1078 -75 664 370 
Q 250 816 250 1647 
Q 250 2184 428 2587 
Q 606 2991 970 3192 
Q 1334 3394 1763 3394 
Q 2303 3394 2647 3120 
Q 2991 2847 3088 2344 
L 2541 2259 
Q 2463 2594 2264 2762 
Q 2066 2931 1784 2931 
Q 1359 2931 1093 2626 
Q 828 2322 828 1663 
Q 828 994 1084 691 
Q 1341 388 1753 388 
Q 2084 388 2306 591 
Q 2528 794 2588 1216 
z
" transform="scale(0.015625)"/>
       <path id="ArialMT-2d" d="M 203 1375 
L 203 1941 
L 1931 1941 
L 1931 1375 
L 203 1375 
z
" transform="scale(0.015625)"/>
       <path id="ArialMT-42" d="M 469 0 
L 469 4581 
L 2188 4581 
Q 2713 4581 3030 4442 
Q 3347 4303 3526 4014 
Q 3706 3725 3706 3409 
Q 3706 3116 3547 2856 
Q 3388 2597 3066 2438 
Q 3481 2316 3704 2022 
Q 3928 1728 3928 1328 
Q 3928 1006 3792 729 
Q 3656 453 3456 303 
Q 3256 153 2954 76 
Q 2653 0 2216 0 
L 469 0 
z
M 1075 2656 
L 2066 2656 
Q 2469 2656 2644 2709 
Q 2875 2778 2992 2937 
Q 3109 3097 3109 3338 
Q 3109 3566 3000 3739 
Q 2891 3913 2687 3977 
Q 2484 4041 1991 4041 
L 1075 4041 
L 1075 2656 
z
M 1075 541 
L 2216 541 
Q 2509 541 2628 563 
Q 2838 600 2978 687 
Q 3119 775 3209 942 
Q 3300 1109 3300 1328 
Q 3300 1584 3169 1773 
Q 3038 1963 2805 2039 
Q 2572 2116 2134 2116 
L 1075 2116 
L 1075 541 
z
" transform="scale(0.015625)"/>
      </defs>
      <use xlink:href="#ArialMT-46"/>
      <use xlink:href="#ArialMT-61" transform="translate(61.083984 0)"/>
      <use xlink:href="#ArialMT-63" transform="translate(116.699219 0)"/>
      <use xlink:href="#ArialMT-65" transform="translate(166.699219 0)"/>
      <use xlink:href="#ArialMT-2d" transform="translate(222.314453 0)"/>
      <use xlink:href="#ArialMT-42" transform="translate(255.615234 0)"/>
      <use xlink:href="#ArialMT-61" transform="translate(322.314453 0)"/>
      <use xlink:href="#ArialMT-73" transform="translate(377.929688 0)"/>
      <use xlink:href="#ArialMT-65" transform="translate(427.929688 0)"/>
      <use xlink:href="#ArialMT-64" transform="translate(483.544922 0)"/>
     </g>
    </g>
    <g id="line2d_29">
     <defs>
      <path id="md2cc04c537" d="M -2.09165 4.1833 
L 0 2.09165 
L 2.09165 4.1833 
L 4.1833 2.09165 
L 2.09165 0 
L 4.1833 -2.09165 
L 2.09165 -4.1833 
L 0 -2.09165 
L -2.09165 -4.1833 
L -4.1833 -2.09165 
L -2.09165 0 
L -4.1833 2.09165 
z
"/>
     </defs>
     <g>
      <use xlink:href="#md2cc04c537" x="101.9096" y="80.518375" style="fill: #dd8452"/>
     </g>
    </g>
    <g id="text_21">
     <!-- Face-Based Global -->
     <g style="fill: #262626" transform="translate(128.8376 85.754375) scale(0.1496 -0.1496)">
      <defs>
       <path id="ArialMT-20" transform="scale(0.015625)"/>
       <path id="ArialMT-47" d="M 2638 1797 
L 2638 2334 
L 4578 2338 
L 4578 638 
Q 4131 281 3656 101 
Q 3181 -78 2681 -78 
Q 2006 -78 1454 211 
Q 903 500 622 1047 
Q 341 1594 341 2269 
Q 341 2938 620 3517 
Q 900 4097 1425 4378 
Q 1950 4659 2634 4659 
Q 3131 4659 3532 4498 
Q 3934 4338 4162 4050 
Q 4391 3763 4509 3300 
L 3963 3150 
Q 3859 3500 3706 3700 
Q 3553 3900 3268 4020 
Q 2984 4141 2638 4141 
Q 2222 4141 1919 4014 
Q 1616 3888 1430 3681 
Q 1244 3475 1141 3228 
Q 966 2803 966 2306 
Q 966 1694 1177 1281 
Q 1388 869 1791 669 
Q 2194 469 2647 469 
Q 3041 469 3416 620 
Q 3791 772 3984 944 
L 3984 1797 
L 2638 1797 
z
" transform="scale(0.015625)"/>
       <path id="ArialMT-6c" d="M 409 0 
L 409 4581 
L 972 4581 
L 972 0 
L 409 0 
z
" transform="scale(0.015625)"/>
       <path id="ArialMT-6f" d="M 213 1659 
Q 213 2581 725 3025 
Q 1153 3394 1769 3394 
Q 2453 3394 2887 2945 
Q 3322 2497 3322 1706 
Q 3322 1066 3130 698 
Q 2938 331 2570 128 
Q 2203 -75 1769 -75 
Q 1072 -75 642 372 
Q 213 819 213 1659 
z
M 791 1659 
Q 791 1022 1069 705 
Q 1347 388 1769 388 
Q 2188 388 2466 706 
Q 2744 1025 2744 1678 
Q 2744 2294 2464 2611 
Q 2184 2928 1769 2928 
Q 1347 2928 1069 2612 
Q 791 2297 791 1659 
z
" transform="scale(0.015625)"/>
       <path id="ArialMT-62" d="M 941 0 
L 419 0 
L 419 4581 
L 981 4581 
L 981 2947 
Q 1338 3394 1891 3394 
Q 2197 3394 2470 3270 
Q 2744 3147 2920 2923 
Q 3097 2700 3197 2384 
Q 3297 2069 3297 1709 
Q 3297 856 2875 390 
Q 2453 -75 1863 -75 
Q 1275 -75 941 416 
L 941 0 
z
M 934 1684 
Q 934 1088 1097 822 
Q 1363 388 1816 388 
Q 2184 388 2453 708 
Q 2722 1028 2722 1663 
Q 2722 2313 2464 2622 
Q 2206 2931 1841 2931 
Q 1472 2931 1203 2611 
Q 934 2291 934 1684 
z
" transform="scale(0.015625)"/>
      </defs>
      <use xlink:href="#ArialMT-46"/>
      <use xlink:href="#ArialMT-61" transform="translate(61.083984 0)"/>
      <use xlink:href="#ArialMT-63" transform="translate(116.699219 0)"/>
      <use xlink:href="#ArialMT-65" transform="translate(166.699219 0)"/>
      <use xlink:href="#ArialMT-2d" transform="translate(222.314453 0)"/>
      <use xlink:href="#ArialMT-42" transform="translate(255.615234 0)"/>
      <use xlink:href="#ArialMT-61" transform="translate(322.314453 0)"/>
      <use xlink:href="#ArialMT-73" transform="translate(377.929688 0)"/>
      <use xlink:href="#ArialMT-65" transform="translate(427.929688 0)"/>
      <use xlink:href="#ArialMT-64" transform="translate(483.544922 0)"/>
      <use xlink:href="#ArialMT-20" transform="translate(539.160156 0)"/>
      <use xlink:href="#ArialMT-47" transform="translate(566.943359 0)"/>
      <use xlink:href="#ArialMT-6c" transform="translate(644.726562 0)"/>
      <use xlink:href="#ArialMT-6f" transform="translate(666.943359 0)"/>
      <use xlink:href="#ArialMT-62" transform="translate(722.558594 0)"/>
      <use xlink:href="#ArialMT-61" transform="translate(778.173828 0)"/>
      <use xlink:href="#ArialMT-6c" transform="translate(833.789062 0)"/>
     </g>
    </g>
    <g id="line2d_30">
     <defs>
      <path id="me2c4acccb7" d="M -2.95804 -2.95804 
L -2.95804 2.95804 
L 2.95804 2.95804 
L 2.95804 -2.95804 
z
"/>
     </defs>
     <g>
      <use xlink:href="#me2c4acccb7" x="101.9096" y="101.679763" style="fill: #55a868"/>
     </g>
    </g>
    <g id="text_22">
     <!-- Face-Based Batched -->
     <g style="fill: #262626" transform="translate(128.8376 106.915763) scale(0.1496 -0.1496)">
      <use xlink:href="#ArialMT-46"/>
      <use xlink:href="#ArialMT-61" transform="translate(61.083984 0)"/>
      <use xlink:href="#ArialMT-63" transform="translate(116.699219 0)"/>
      <use xlink:href="#ArialMT-65" transform="translate(166.699219 0)"/>
      <use xlink:href="#ArialMT-2d" transform="translate(222.314453 0)"/>
      <use xlink:href="#ArialMT-42" transform="translate(255.615234 0)"/>
      <use xlink:href="#ArialMT-61" transform="translate(322.314453 0)"/>
      <use xlink:href="#ArialMT-73" transform="translate(377.929688 0)"/>
      <use xlink:href="#ArialMT-65" transform="translate(427.929688 0)"/>
      <use xlink:href="#ArialMT-64" transform="translate(483.544922 0)"/>
      <use xlink:href="#ArialMT-20" transform="translate(539.160156 0)"/>
      <use xlink:href="#ArialMT-42" transform="translate(566.943359 0)"/>
      <use xlink:href="#ArialMT-61" transform="translate(633.642578 0)"/>
      <use xlink:href="#ArialMT-74" transform="translate(689.257812 0)"/>
      <use xlink:href="#ArialMT-63" transform="translate(717.041016 0)"/>
      <use xlink:href="#ArialMT-68" transform="translate(767.041016 0)"/>
      <use xlink:href="#ArialMT-65" transform="translate(822.65625 0)"/>
      <use xlink:href="#ArialMT-64" transform="translate(878.271484 0)"/>
     </g>
    </g>
    <g id="line2d_31">
     <defs>
      <path id="maa713245b0" d="M -1.394433 4.1833 
L 1.394433 4.1833 
L 1.394433 1.394433 
L 4.1833 1.394433 
L 4.1833 -1.394433 
L 1.394433 -1.394433 
L 1.394433 -4.1833 
L -1.394433 -4.1833 
L -1.394433 -1.394433 
L -4.1833 -1.394433 
L -4.1833 1.394433 
L -1.394433 1.394433 
z
"/>
     </defs>
     <g>
      <use xlink:href="#maa713245b0" x="101.9096" y="122.84115" style="fill: #c44e52"/>
     </g>
    </g>
    <g id="text_23">
     <!-- Cell-Based -->
     <g style="fill: #262626" transform="translate(128.8376 128.07715) scale(0.1496 -0.1496)">
      <defs>
       <path id="ArialMT-43" d="M 3763 1606 
L 4369 1453 
Q 4178 706 3683 314 
Q 3188 -78 2472 -78 
Q 1731 -78 1267 223 
Q 803 525 561 1097 
Q 319 1669 319 2325 
Q 319 3041 592 3573 
Q 866 4106 1370 4382 
Q 1875 4659 2481 4659 
Q 3169 4659 3637 4309 
Q 4106 3959 4291 3325 
L 3694 3184 
Q 3534 3684 3231 3912 
Q 2928 4141 2469 4141 
Q 1941 4141 1586 3887 
Q 1231 3634 1087 3207 
Q 944 2781 944 2328 
Q 944 1744 1114 1308 
Q 1284 872 1643 656 
Q 2003 441 2422 441 
Q 2931 441 3284 734 
Q 3638 1028 3763 1606 
z
" transform="scale(0.015625)"/>
      </defs>
      <use xlink:href="#ArialMT-43"/>
      <use xlink:href="#ArialMT-65" transform="translate(72.216797 0)"/>
      <use xlink:href="#ArialMT-6c" transform="translate(127.832031 0)"/>
      <use xlink:href="#ArialMT-6c" transform="translate(150.048828 0)"/>
      <use xlink:href="#ArialMT-2d" transform="translate(172.265625 0)"/>
      <use xlink:href="#ArialMT-42" transform="translate(205.566406 0)"/>
      <use xlink:href="#ArialMT-61" transform="translate(272.265625 0)"/>
      <use xlink:href="#ArialMT-73" transform="translate(327.880859 0)"/>
      <use xlink:href="#ArialMT-65" transform="translate(377.880859 0)"/>
      <use xlink:href="#ArialMT-64" transform="translate(433.496094 0)"/>
     </g>
    </g>
    <g id="line2d_32">
     <defs>
      <path id="mf82d5957ce" d="M 0 -4.1833 
L -4.1833 -0 
L -0 4.1833 
L 4.1833 0 
z
"/>
     </defs>
     <g>
      <use xlink:href="#mf82d5957ce" x="101.9096" y="144.002538" style="fill: #8172b3"/>
     </g>
    </g>
    <g id="text_24">
     <!-- IcoFoam H200 -->
     <g style="fill: #262626" transform="translate(128.8376 149.238538) scale(0.1496 -0.1496)">
      <defs>
       <path id="ArialMT-49" d="M 597 0 
L 597 4581 
L 1203 4581 
L 1203 0 
L 597 0 
z
" transform="scale(0.015625)"/>
       <path id="ArialMT-6d" d="M 422 0 
L 422 3319 
L 925 3319 
L 925 2853 
Q 1081 3097 1340 3245 
Q 1600 3394 1931 3394 
Q 2300 3394 2536 3241 
Q 2772 3088 2869 2813 
Q 3263 3394 3894 3394 
Q 4388 3394 4653 3120 
Q 4919 2847 4919 2278 
L 4919 0 
L 4359 0 
L 4359 2091 
Q 4359 2428 4304 2576 
Q 4250 2725 4106 2815 
Q 3963 2906 3769 2906 
Q 3419 2906 3187 2673 
Q 2956 2441 2956 1928 
L 2956 0 
L 2394 0 
L 2394 2156 
Q 2394 2531 2256 2718 
Q 2119 2906 1806 2906 
Q 1569 2906 1367 2781 
Q 1166 2656 1075 2415 
Q 984 2175 984 1722 
L 984 0 
L 422 0 
z
" transform="scale(0.015625)"/>
       <path id="ArialMT-48" d="M 513 0 
L 513 4581 
L 1119 4581 
L 1119 2700 
L 3500 2700 
L 3500 4581 
L 4106 4581 
L 4106 0 
L 3500 0 
L 3500 2159 
L 1119 2159 
L 1119 0 
L 513 0 
z
" transform="scale(0.015625)"/>
       <path id="ArialMT-30" d="M 266 2259 
Q 266 3072 433 3567 
Q 600 4063 929 4331 
Q 1259 4600 1759 4600 
Q 2128 4600 2406 4451 
Q 2684 4303 2865 4023 
Q 3047 3744 3150 3342 
Q 3253 2941 3253 2259 
Q 3253 1453 3087 958 
Q 2922 463 2592 192 
Q 2263 -78 1759 -78 
Q 1097 -78 719 397 
Q 266 969 266 2259 
z
M 844 2259 
Q 844 1131 1108 757 
Q 1372 384 1759 384 
Q 2147 384 2411 759 
Q 2675 1134 2675 2259 
Q 2675 3391 2411 3762 
Q 2147 4134 1753 4134 
Q 1366 4134 1134 3806 
Q 844 3388 844 2259 
z
" transform="scale(0.015625)"/>
      </defs>
      <use xlink:href="#ArialMT-49"/>
      <use xlink:href="#ArialMT-63" transform="translate(27.783203 0)"/>
      <use xlink:href="#ArialMT-6f" transform="translate(77.783203 0)"/>
      <use xlink:href="#ArialMT-46" transform="translate(133.398438 0)"/>
      <use xlink:href="#ArialMT-6f" transform="translate(194.482422 0)"/>
      <use xlink:href="#ArialMT-61" transform="translate(250.097656 0)"/>
      <use xlink:href="#ArialMT-6d" transform="translate(305.712891 0)"/>
      <use xlink:href="#ArialMT-20" transform="translate(389.013672 0)"/>
      <use xlink:href="#ArialMT-48" transform="translate(416.796875 0)"/>
      <use xlink:href="#ArialMT-32" transform="translate(489.013672 0)"/>
      <use xlink:href="#ArialMT-30" transform="translate(544.628906 0)"/>
      <use xlink:href="#ArialMT-30" transform="translate(600.244141 0)"/>
     </g>
    </g>
   </g>
  </g>
 </g>
 <defs>
  <clipPath id="pe0d3f08fd8">
   <rect x="73.4856" y="17.6256" width="461.91929" height="280.0488"/>
  </clipPath>
 </defs>
</svg>
