<?xml version="1.0" encoding="utf-8" standalone="no"?>
<!DOCTYPE svg PUBLIC "-//W3C//DTD SVG 1.1//EN"
  "http://www.w3.org/Graphics/SVG/1.1/DTD/svg11.dtd">
<svg xmlns:xlink="http://www.w3.org/1999/xlink" width="564.606pt" height="360pt" viewBox="0 0 564.606 360" xmlns="http://www.w3.org/2000/svg" version="1.1">
 <metadata>
  <rdf:RDF xmlns:dc="http://purl.org/dc/elements/1.1/" xmlns:cc="http://creativecommons.org/ns#" xmlns:rdf="http://www.w3.org/1999/02/22-rdf-syntax-ns#">
   <cc:Work>
    <dc:type rdf:resource="http://purl.org/dc/dcmitype/StillImage"/>
    <dc:date>2026-04-12T18:01:02.342039</dc:date>
    <dc:format>image/svg+xml</dc:format>
    <dc:creator>
     <cc:Agent>
      <dc:title>Matplotlib v3.10.8, https://matplotlib.org/</dc:title>
     </cc:Agent>
    </dc:creator>
   </cc:Work>
  </rdf:RDF>
 </metadata>
 <defs>
  <style type="text/css">*{stroke-linejoin: round; stroke-linecap: butt}</style>
 </defs>
 <g id="figure_1">
  <g id="patch_1">
   <path d="M 0 360 
L 564.606 360 
L 564.606 0 
L 0 0 
z
" style="fill: #ffffff"/>
  </g>
  <g id="axes_1">
   <g id="patch_2">
    <path d="M 85.491277 291.7704 
L 539.897436 291.7704 
L 539.897436 24.33885 
L 85.491277 24.33885 
z
" style="fill: #ffffff"/>
   </g>
   <g id="matplotlib.axis_1">
    <g id="xtick_1">
     <g id="line2d_1">
      <path d="M 106.146102 291.7704 
L 106.146102 24.33885 
" clip-path="url(#p0fa2f1b21e)" style="fill: none; stroke: #cccccc; stroke-width: 0.8; stroke-linecap: round"/>
     </g>
     <g id="text_1">
      <!-- $\mathdefault{10^{3}}$ -->
      <g style="fill: #262626" transform="translate(92.981302 311.437662) scale(0.1496 -0.1496)">
       <defs>
        <path id="DejaVuSans-31" d="M 794 531 
L 1825 531 
L 1825 4091 
L 703 3866 
L 703 4441 
L 1819 4666 
L 2450 4666 
L 2450 531 
L 3481 531 
L 3481 0 
L 794 0 
L 794 531 
z
" transform="scale(0.015625)"/>
        <path id="DejaVuSans-30" d="M 2034 4250 
Q 1547 4250 1301 3770 
Q 1056 3291 1056 2328 
Q 1056 1369 1301 889 
Q 1547 409 2034 409 
Q 2525 409 2770 889 
Q 3016 1369 3016 2328 
Q 3016 3291 2770 3770 
Q 2525 4250 2034 4250 
z
M 2034 4750 
Q 2819 4750 3233 4129 
Q 3647 3509 3647 2328 
Q 3647 1150 3233 529 
Q 2819 -91 2034 -91 
Q 1250 -91 836 529 
Q 422 1150 422 2328 
Q 422 3509 836 4129 
Q 1250 4750 2034 4750 
z
" transform="scale(0.015625)"/>
        <path id="DejaVuSans-33" d="M 2597 2516 
Q 3050 2419 3304 2112 
Q 3559 1806 3559 1356 
Q 3559 666 3084 287 
Q 2609 -91 1734 -91 
Q 1441 -91 1130 -33 
Q 819 25 488 141 
L 488 750 
Q 750 597 1062 519 
Q 1375 441 1716 441 
Q 2309 441 2620 675 
Q 2931 909 2931 1356 
Q 2931 1769 2642 2001 
Q 2353 2234 1838 2234 
L 1294 2234 
L 1294 2753 
L 1863 2753 
Q 2328 2753 2575 2939 
Q 2822 3125 2822 3475 
Q 2822 3834 2567 4026 
Q 2313 4219 1838 4219 
Q 1578 4219 1281 4162 
Q 984 4106 628 3988 
L 628 4550 
Q 988 4650 1302 4700 
Q 1616 4750 1894 4750 
Q 2613 4750 3031 4423 
Q 3450 4097 3450 3541 
Q 3450 3153 3228 2886 
Q 3006 2619 2597 2516 
z
" transform="scale(0.015625)"/>
       </defs>
       <use xlink:href="#DejaVuSans-31" transform="translate(0 0.765625)"/>
       <use xlink:href="#DejaVuSans-30" transform="translate(63.623047 0.765625)"/>
       <use xlink:href="#DejaVuSans-33" transform="translate(128.203125 39.046875) scale(0.7)"/>
      </g>
     </g>
    </g>
    <g id="xtick_2">
     <g id="line2d_2">
      <path d="M 211.984427 291.7704 
L 211.984427 24.33885 
" clip-path="url(#p0fa2f1b21e)" style="fill: none; stroke: #cccccc; stroke-width: 0.8; stroke-linecap: round"/>
     </g>
     <g id="text_2">
      <!-- $\mathdefault{10^{4}}$ -->
      <g style="fill: #262626" transform="translate(198.819627 311.437662) scale(0.1496 -0.1496)">
       <defs>
        <path id="DejaVuSans-34" d="M 2419 4116 
L 825 1625 
L 2419 1625 
L 2419 4116 
z
M 2253 4666 
L 3047 4666 
L 3047 1625 
L 3713 1625 
L 3713 1100 
L 3047 1100 
L 3047 0 
L 2419 0 
L 2419 1100 
L 313 1100 
L 313 1709 
L 2253 4666 
z
" transform="scale(0.015625)"/>
       </defs>
       <use xlink:href="#DejaVuSans-31" transform="translate(0 0.684375)"/>
       <use xlink:href="#DejaVuSans-30" transform="translate(63.623047 0.684375)"/>
       <use xlink:href="#DejaVuSans-34" transform="translate(128.203125 38.965625) scale(0.7)"/>
      </g>
     </g>
    </g>
    <g id="xtick_3">
     <g id="line2d_3">
      <path d="M 317.822753 291.7704 
L 317.822753 24.33885 
" clip-path="url(#p0fa2f1b21e)" style="fill: none; stroke: #cccccc; stroke-width: 0.8; stroke-linecap: round"/>
     </g>
     <g id="text_3">
      <!-- $\mathdefault{10^{5}}$ -->
      <g style="fill: #262626" transform="translate(304.657953 311.437662) scale(0.1496 -0.1496)">
       <defs>
        <path id="DejaVuSans-35" d="M 691 4666 
L 3169 4666 
L 3169 4134 
L 1269 4134 
L 1269 2991 
Q 1406 3038 1543 3061 
Q 1681 3084 1819 3084 
Q 2600 3084 3056 2656 
Q 3513 2228 3513 1497 
Q 3513 744 3044 326 
Q 2575 -91 1722 -91 
Q 1428 -91 1123 -41 
Q 819 9 494 109 
L 494 744 
Q 775 591 1075 516 
Q 1375 441 1709 441 
Q 2250 441 2565 725 
Q 2881 1009 2881 1497 
Q 2881 1984 2565 2268 
Q 2250 2553 1709 2553 
Q 1456 2553 1204 2497 
Q 953 2441 691 2322 
L 691 4666 
z
" transform="scale(0.015625)"/>
       </defs>
       <use xlink:href="#DejaVuSans-31" transform="translate(0 0.684375)"/>
       <use xlink:href="#DejaVuSans-30" transform="translate(63.623047 0.684375)"/>
       <use xlink:href="#DejaVuSans-35" transform="translate(128.203125 38.965625) scale(0.7)"/>
      </g>
     </g>
    </g>
    <g id="xtick_4">
     <g id="line2d_4">
      <path d="M 423.661078 291.7704 
L 423.661078 24.33885 
" clip-path="url(#p0fa2f1b21e)" style="fill: none; stroke: #cccccc; stroke-width: 0.8; stroke-linecap: round"/>
     </g>
     <g id="text_4">
      <!-- $\mathdefault{10^{6}}$ -->
      <g style="fill: #262626" transform="translate(410.496278 311.437662) scale(0.1496 -0.1496)">
       <defs>
        <path id="DejaVuSans-36" d="M 2113 2584 
Q 1688 2584 1439 2293 
Q 1191 2003 1191 1497 
Q 1191 994 1439 701 
Q 1688 409 2113 409 
Q 2538 409 2786 701 
Q 3034 994 3034 1497 
Q 3034 2003 2786 2293 
Q 2538 2584 2113 2584 
z
M 3366 4563 
L 3366 3988 
Q 3128 4100 2886 4159 
Q 2644 4219 2406 4219 
Q 1781 4219 1451 3797 
Q 1122 3375 1075 2522 
Q 1259 2794 1537 2939 
Q 1816 3084 2150 3084 
Q 2853 3084 3261 2657 
Q 3669 2231 3669 1497 
Q 3669 778 3244 343 
Q 2819 -91 2113 -91 
Q 1303 -91 875 529 
Q 447 1150 447 2328 
Q 447 3434 972 4092 
Q 1497 4750 2381 4750 
Q 2619 4750 2861 4703 
Q 3103 4656 3366 4563 
z
" transform="scale(0.015625)"/>
       </defs>
       <use xlink:href="#DejaVuSans-31" transform="translate(0 0.765625)"/>
       <use xlink:href="#DejaVuSans-30" transform="translate(63.623047 0.765625)"/>
       <use xlink:href="#DejaVuSans-36" transform="translate(128.203125 39.046875) scale(0.7)"/>
      </g>
     </g>
    </g>
    <g id="xtick_5">
     <g id="line2d_5">
      <path d="M 529.499404 291.7704 
L 529.499404 24.33885 
" clip-path="url(#p0fa2f1b21e)" style="fill: none; stroke: #cccccc; stroke-width: 0.8; stroke-linecap: round"/>
     </g>
     <g id="text_5">
      <!-- $\mathdefault{10^{7}}$ -->
      <g style="fill: #262626" transform="translate(516.334604 311.437662) scale(0.1496 -0.1496)">
       <defs>
        <path id="DejaVuSans-37" d="M 525 4666 
L 3525 4666 
L 3525 4397 
L 1831 0 
L 1172 0 
L 2766 4134 
L 525 4134 
L 525 4666 
z
" transform="scale(0.015625)"/>
       </defs>
       <use xlink:href="#DejaVuSans-31" transform="translate(0 0.684375)"/>
       <use xlink:href="#DejaVuSans-30" transform="translate(63.623047 0.684375)"/>
       <use xlink:href="#DejaVuSans-37" transform="translate(128.203125 38.965625) scale(0.7)"/>
      </g>
     </g>
    </g>
    <g id="xtick_6"/>
    <g id="xtick_7"/>
    <g id="xtick_8"/>
    <g id="xtick_9"/>
    <g id="xtick_10"/>
    <g id="xtick_11"/>
    <g id="xtick_12"/>
    <g id="xtick_13"/>
    <g id="xtick_14"/>
    <g id="xtick_15"/>
    <g id="xtick_16"/>
    <g id="xtick_17"/>
    <g id="xtick_18"/>
    <g id="xtick_19"/>
    <g id="xtick_20"/>
    <g id="xtick_21"/>
    <g id="xtick_22"/>
    <g id="xtick_23"/>
    <g id="xtick_24"/>
    <g id="xtick_25"/>
    <g id="xtick_26"/>
    <g id="xtick_27"/>
    <g id="xtick_28"/>
    <g id="xtick_29"/>
    <g id="xtick_30"/>
    <g id="xtick_31"/>
    <g id="xtick_32"/>
    <g id="xtick_33"/>
    <g id="xtick_34"/>
    <g id="xtick_35"/>
    <g id="xtick_36"/>
    <g id="xtick_37"/>
    <g id="xtick_38"/>
    <g id="xtick_39"/>
    <g id="xtick_40"/>
    <g id="text_6">
     <!-- #Cells -->
     <g style="fill: #262626" transform="translate(280.413106 333.74575) scale(0.2 -0.2)">
      <defs>
       <path id="DejaVuSans-23" d="M 3272 2816 
L 2363 2816 
L 2100 1772 
L 3016 1772 
L 3272 2816 
z
M 2803 4594 
L 2478 3297 
L 3391 3297 
L 3719 4594 
L 4219 4594 
L 3897 3297 
L 4872 3297 
L 4872 2816 
L 3775 2816 
L 3519 1772 
L 4513 1772 
L 4513 1294 
L 3397 1294 
L 3072 0 
L 2572 0 
L 2894 1294 
L 1978 1294 
L 1656 0 
L 1153 0 
L 1478 1294 
L 494 1294 
L 494 1772 
L 1594 1772 
L 1856 2816 
L 850 2816 
L 850 3297 
L 1978 3297 
L 2297 4594 
L 2803 4594 
z
" transform="scale(0.015625)"/>
       <path id="DejaVuSans-43" d="M 4122 4306 
L 4122 3641 
Q 3803 3938 3442 4084 
Q 3081 4231 2675 4231 
Q 1875 4231 1450 3742 
Q 1025 3253 1025 2328 
Q 1025 1406 1450 917 
Q 1875 428 2675 428 
Q 3081 428 3442 575 
Q 3803 722 4122 1019 
L 4122 359 
Q 3791 134 3420 21 
Q 3050 -91 2638 -91 
Q 1578 -91 968 557 
Q 359 1206 359 2328 
Q 359 3453 968 4101 
Q 1578 4750 2638 4750 
Q 3056 4750 3426 4639 
Q 3797 4528 4122 4306 
z
" transform="scale(0.015625)"/>
       <path id="DejaVuSans-65" d="M 3597 1894 
L 3597 1613 
L 953 1613 
Q 991 1019 1311 708 
Q 1631 397 2203 397 
Q 2534 397 2845 478 
Q 3156 559 3463 722 
L 3463 178 
Q 3153 47 2828 -22 
Q 2503 -91 2169 -91 
Q 1331 -91 842 396 
Q 353 884 353 1716 
Q 353 2575 817 3079 
Q 1281 3584 2069 3584 
Q 2775 3584 3186 3129 
Q 3597 2675 3597 1894 
z
M 3022 2063 
Q 3016 2534 2758 2815 
Q 2500 3097 2075 3097 
Q 1594 3097 1305 2825 
Q 1016 2553 972 2059 
L 3022 2063 
z
" transform="scale(0.015625)"/>
       <path id="DejaVuSans-6c" d="M 603 4863 
L 1178 4863 
L 1178 0 
L 603 0 
L 603 4863 
z
" transform="scale(0.015625)"/>
       <path id="DejaVuSans-73" d="M 2834 3397 
L 2834 2853 
Q 2591 2978 2328 3040 
Q 2066 3103 1784 3103 
Q 1356 3103 1142 2972 
Q 928 2841 928 2578 
Q 928 2378 1081 2264 
Q 1234 2150 1697 2047 
L 1894 2003 
Q 2506 1872 2764 1633 
Q 3022 1394 3022 966 
Q 3022 478 2636 193 
Q 2250 -91 1575 -91 
Q 1294 -91 989 -36 
Q 684 19 347 128 
L 347 722 
Q 666 556 975 473 
Q 1284 391 1588 391 
Q 1994 391 2212 530 
Q 2431 669 2431 922 
Q 2431 1156 2273 1281 
Q 2116 1406 1581 1522 
L 1381 1569 
Q 847 1681 609 1914 
Q 372 2147 372 2553 
Q 372 3047 722 3315 
Q 1072 3584 1716 3584 
Q 2034 3584 2315 3537 
Q 2597 3491 2834 3397 
z
" transform="scale(0.015625)"/>
      </defs>
      <use xlink:href="#DejaVuSans-23"/>
      <use xlink:href="#DejaVuSans-43" transform="translate(83.789062 0)"/>
      <use xlink:href="#DejaVuSans-65" transform="translate(153.613281 0)"/>
      <use xlink:href="#DejaVuSans-6c" transform="translate(215.136719 0)"/>
      <use xlink:href="#DejaVuSans-6c" transform="translate(242.919922 0)"/>
      <use xlink:href="#DejaVuSans-73" transform="translate(270.703125 0)"/>
     </g>
    </g>
   </g>
   <g id="matplotlib.axis_2">
    <g id="ytick_1">
     <g id="line2d_6">
      <path d="M 85.491277 243.977818 
L 539.897436 243.977818 
" clip-path="url(#p0fa2f1b21e)" style="fill: none; stroke: #cccccc; stroke-width: 0.8; stroke-linecap: round"/>
     </g>
     <g id="text_7">
      <!-- $\mathdefault{10^{-5}}$ -->
      <g style="fill: #262626" transform="translate(42.035277 249.661449) scale(0.1496 -0.1496)">
       <defs>
        <path id="DejaVuSans-2212" d="M 678 2272 
L 4684 2272 
L 4684 1741 
L 678 1741 
L 678 2272 
z
" transform="scale(0.015625)"/>
       </defs>
       <use xlink:href="#DejaVuSans-31" transform="translate(0 0.684375)"/>
       <use xlink:href="#DejaVuSans-30" transform="translate(63.623047 0.684375)"/>
       <use xlink:href="#DejaVuSans-2212" transform="translate(128.203125 38.965625) scale(0.7)"/>
       <use xlink:href="#DejaVuSans-35" transform="translate(186.855469 38.965625) scale(0.7)"/>
      </g>
     </g>
    </g>
    <g id="ytick_2">
     <g id="line2d_7">
      <path d="M 85.491277 25.259193 
L 539.897436 25.259193 
" clip-path="url(#p0fa2f1b21e)" style="fill: none; stroke: #cccccc; stroke-width: 0.8; stroke-linecap: round"/>
     </g>
     <g id="text_8">
      <!-- $\mathdefault{10^{-4}}$ -->
      <g style="fill: #262626" transform="translate(42.035277 30.942824) scale(0.1496 -0.1496)">
       <use xlink:href="#DejaVuSans-31" transform="translate(0 0.684375)"/>
       <use xlink:href="#DejaVuSans-30" transform="translate(63.623047 0.684375)"/>
       <use xlink:href="#DejaVuSans-2212" transform="translate(128.203125 38.965625) scale(0.7)"/>
       <use xlink:href="#DejaVuSans-34" transform="translate(186.855469 38.965625) scale(0.7)"/>
      </g>
     </g>
    </g>
    <g id="ytick_3"/>
    <g id="ytick_4"/>
    <g id="ytick_5"/>
    <g id="ytick_6"/>
    <g id="ytick_7"/>
    <g id="ytick_8"/>
    <g id="ytick_9"/>
    <g id="ytick_10"/>
    <g id="ytick_11"/>
    <g id="ytick_12"/>
    <g id="ytick_13"/>
    <g id="text_9">
     <!-- Assembly Time per Cell (ms) -->
     <g style="fill: #262626" transform="translate(33.875902 301.490562) rotate(-90) scale(0.2 -0.2)">
      <defs>
       <path id="DejaVuSans-41" d="M 2188 4044 
L 1331 1722 
L 3047 1722 
L 2188 4044 
z
M 1831 4666 
L 2547 4666 
L 4325 0 
L 3669 0 
L 3244 1197 
L 1141 1197 
L 716 0 
L 50 0 
L 1831 4666 
z
" transform="scale(0.015625)"/>
       <path id="DejaVuSans-6d" d="M 3328 2828 
Q 3544 3216 3844 3400 
Q 4144 3584 4550 3584 
Q 5097 3584 5394 3201 
Q 5691 2819 5691 2113 
L 5691 0 
L 5113 0 
L 5113 2094 
Q 5113 2597 4934 2840 
Q 4756 3084 4391 3084 
Q 3944 3084 3684 2787 
Q 3425 2491 3425 1978 
L 3425 0 
L 2847 0 
L 2847 2094 
Q 2847 2600 2669 2842 
Q 2491 3084 2119 3084 
Q 1678 3084 1418 2786 
Q 1159 2488 1159 1978 
L 1159 0 
L 581 0 
L 581 3500 
L 1159 3500 
L 1159 2956 
Q 1356 3278 1631 3431 
Q 1906 3584 2284 3584 
Q 2666 3584 2933 3390 
Q 3200 3197 3328 2828 
z
" transform="scale(0.015625)"/>
       <path id="DejaVuSans-62" d="M 3116 1747 
Q 3116 2381 2855 2742 
Q 2594 3103 2138 3103 
Q 1681 3103 1420 2742 
Q 1159 2381 1159 1747 
Q 1159 1113 1420 752 
Q 1681 391 2138 391 
Q 2594 391 2855 752 
Q 3116 1113 3116 1747 
z
M 1159 2969 
Q 1341 3281 1617 3432 
Q 1894 3584 2278 3584 
Q 2916 3584 3314 3078 
Q 3713 2572 3713 1747 
Q 3713 922 3314 415 
Q 2916 -91 2278 -91 
Q 1894 -91 1617 61 
Q 1341 213 1159 525 
L 1159 0 
L 581 0 
L 581 4863 
L 1159 4863 
L 1159 2969 
z
" transform="scale(0.015625)"/>
       <path id="DejaVuSans-79" d="M 2059 -325 
Q 1816 -950 1584 -1140 
Q 1353 -1331 966 -1331 
L 506 -1331 
L 506 -850 
L 844 -850 
Q 1081 -850 1212 -737 
Q 1344 -625 1503 -206 
L 1606 56 
L 191 3500 
L 800 3500 
L 1894 763 
L 2988 3500 
L 3597 3500 
L 2059 -325 
z
" transform="scale(0.015625)"/>
       <path id="DejaVuSans-20" transform="scale(0.015625)"/>
       <path id="DejaVuSans-54" d="M -19 4666 
L 3928 4666 
L 3928 4134 
L 2272 4134 
L 2272 0 
L 1638 0 
L 1638 4134 
L -19 4134 
L -19 4666 
z
" transform="scale(0.015625)"/>
       <path id="DejaVuSans-69" d="M 603 3500 
L 1178 3500 
L 1178 0 
L 603 0 
L 603 3500 
z
M 603 4863 
L 1178 4863 
L 1178 4134 
L 603 4134 
L 603 4863 
z
" transform="scale(0.015625)"/>
       <path id="DejaVuSans-70" d="M 1159 525 
L 1159 -1331 
L 581 -1331 
L 581 3500 
L 1159 3500 
L 1159 2969 
Q 1341 3281 1617 3432 
Q 1894 3584 2278 3584 
Q 2916 3584 3314 3078 
Q 3713 2572 3713 1747 
Q 3713 922 3314 415 
Q 2916 -91 2278 -91 
Q 1894 -91 1617 61 
Q 1341 213 1159 525 
z
M 3116 1747 
Q 3116 2381 2855 2742 
Q 2594 3103 2138 3103 
Q 1681 3103 1420 2742 
Q 1159 2381 1159 1747 
Q 1159 1113 1420 752 
Q 1681 391 2138 391 
Q 2594 391 2855 752 
Q 3116 1113 3116 1747 
z
" transform="scale(0.015625)"/>
       <path id="DejaVuSans-72" d="M 2631 2963 
Q 2534 3019 2420 3045 
Q 2306 3072 2169 3072 
Q 1681 3072 1420 2755 
Q 1159 2438 1159 1844 
L 1159 0 
L 581 0 
L 581 3500 
L 1159 3500 
L 1159 2956 
Q 1341 3275 1631 3429 
Q 1922 3584 2338 3584 
Q 2397 3584 2469 3576 
Q 2541 3569 2628 3553 
L 2631 2963 
z
" transform="scale(0.015625)"/>
       <path id="DejaVuSans-28" d="M 1984 4856 
Q 1566 4138 1362 3434 
Q 1159 2731 1159 2009 
Q 1159 1288 1364 580 
Q 1569 -128 1984 -844 
L 1484 -844 
Q 1016 -109 783 600 
Q 550 1309 550 2009 
Q 550 2706 781 3412 
Q 1013 4119 1484 4856 
L 1984 4856 
z
" transform="scale(0.015625)"/>
       <path id="DejaVuSans-29" d="M 513 4856 
L 1013 4856 
Q 1481 4119 1714 3412 
Q 1947 2706 1947 2009 
Q 1947 1309 1714 600 
Q 1481 -109 1013 -844 
L 513 -844 
Q 928 -128 1133 580 
Q 1338 1288 1338 2009 
Q 1338 2731 1133 3434 
Q 928 4138 513 4856 
z
" transform="scale(0.015625)"/>
      </defs>
      <use xlink:href="#DejaVuSans-41"/>
      <use xlink:href="#DejaVuSans-73" transform="translate(68.408203 0)"/>
      <use xlink:href="#DejaVuSans-73" transform="translate(120.507812 0)"/>
      <use xlink:href="#DejaVuSans-65" transform="translate(172.607422 0)"/>
      <use xlink:href="#DejaVuSans-6d" transform="translate(234.130859 0)"/>
      <use xlink:href="#DejaVuSans-62" transform="translate(331.542969 0)"/>
      <use xlink:href="#DejaVuSans-6c" transform="translate(395.019531 0)"/>
      <use xlink:href="#DejaVuSans-79" transform="translate(422.802734 0)"/>
      <use xlink:href="#DejaVuSans-20" transform="translate(481.982422 0)"/>
      <use xlink:href="#DejaVuSans-54" transform="translate(513.769531 0)"/>
      <use xlink:href="#DejaVuSans-69" transform="translate(571.728516 0)"/>
      <use xlink:href="#DejaVuSans-6d" transform="translate(599.511719 0)"/>
      <use xlink:href="#DejaVuSans-65" transform="translate(696.923828 0)"/>
      <use xlink:href="#DejaVuSans-20" transform="translate(758.447266 0)"/>
      <use xlink:href="#DejaVuSans-70" transform="translate(790.234375 0)"/>
      <use xlink:href="#DejaVuSans-65" transform="translate(853.710938 0)"/>
      <use xlink:href="#DejaVuSans-72" transform="translate(915.234375 0)"/>
      <use xlink:href="#DejaVuSans-20" transform="translate(956.347656 0)"/>
      <use xlink:href="#DejaVuSans-43" transform="translate(988.134766 0)"/>
      <use xlink:href="#DejaVuSans-65" transform="translate(1057.958984 0)"/>
      <use xlink:href="#DejaVuSans-6c" transform="translate(1119.482422 0)"/>
      <use xlink:href="#DejaVuSans-6c" transform="translate(1147.265625 0)"/>
      <use xlink:href="#DejaVuSans-20" transform="translate(1175.048828 0)"/>
      <use xlink:href="#DejaVuSans-28" transform="translate(1206.835938 0)"/>
      <use xlink:href="#DejaVuSans-6d" transform="translate(1245.849609 0)"/>
      <use xlink:href="#DejaVuSans-73" transform="translate(1343.261719 0)"/>
      <use xlink:href="#DejaVuSans-29" transform="translate(1395.361328 0)"/>
     </g>
    </g>
   </g>
   <g id="PathCollection_1">
    <path d="M 106.146102 148.539513 
C 107.173229 148.539513 108.158426 148.131431 108.884715 147.405143 
C 109.611003 146.678854 110.019085 145.693657 110.019085 144.66653 
C 110.019085 143.639403 109.611003 142.654206 108.884715 141.927917 
C 108.158426 141.201629 107.173229 140.793547 106.146102 140.793547 
C 105.118975 140.793547 104.133778 141.201629 103.407489 141.927917 
C 102.681201 142.654206 102.273119 143.639403 102.273119 144.66653 
C 102.273119 145.693657 102.681201 146.678854 103.407489 147.405143 
C 104.133778 148.131431 105.118975 148.539513 106.146102 148.539513 
z
" clip-path="url(#p0fa2f1b21e)" style="fill: #4c72b0; stroke: #ffffff; stroke-width: 0.619677"/>
    <path d="M 104.20961 176.222643 
L 106.146102 174.286151 
L 108.082594 176.222643 
L 110.019085 174.286151 
L 108.082594 172.349659 
L 110.019085 170.413167 
L 108.082594 168.476676 
L 106.146102 170.413167 
L 104.20961 168.476676 
L 102.273119 170.413167 
L 104.20961 172.349659 
L 102.273119 174.286151 
z
" clip-path="url(#p0fa2f1b21e)" style="fill: #dd8452; stroke: #ffffff; stroke-width: 0.619677"/>
    <path d="M 103.407489 33.756216 
L 103.407489 39.233442 
L 108.884715 39.233442 
L 108.884715 33.756216 
z
" clip-path="url(#p0fa2f1b21e)" style="fill: #55a868; stroke: #ffffff; stroke-width: 0.619677"/>
    <path d="M 423.661078 264.999652 
C 424.688206 264.999652 425.673403 264.59157 426.399691 263.865282 
C 427.12598 263.138993 427.534062 262.153796 427.534062 261.126669 
C 427.534062 260.099542 427.12598 259.114345 426.399691 258.388056 
C 425.673403 257.661768 424.688206 257.253686 423.661078 257.253686 
C 422.633951 257.253686 421.648754 257.661768 420.922466 258.388056 
C 420.196177 259.114345 419.788095 260.099542 419.788095 261.126669 
C 419.788095 262.153796 420.196177 263.138993 420.922466 263.865282 
C 421.648754 264.59157 422.633951 264.999652 423.661078 264.999652 
z
" clip-path="url(#p0fa2f1b21e)" style="fill: #4c72b0; stroke: #ffffff; stroke-width: 0.619677"/>
    <path d="M 421.724587 277.067218 
L 423.661078 275.130726 
L 425.59757 277.067218 
L 427.534062 275.130726 
L 425.59757 273.194234 
L 427.534062 271.257743 
L 425.59757 269.321251 
L 423.661078 271.257743 
L 421.724587 269.321251 
L 419.788095 271.257743 
L 421.724587 273.194234 
L 419.788095 275.130726 
z
" clip-path="url(#p0fa2f1b21e)" style="fill: #dd8452; stroke: #ffffff; stroke-width: 0.619677"/>
    <path d="M 420.922466 163.337871 
L 420.922466 168.815096 
L 426.399691 168.815096 
L 426.399691 163.337871 
z
" clip-path="url(#p0fa2f1b21e)" style="fill: #55a868; stroke: #ffffff; stroke-width: 0.619677"/>
    <path d="M 448.80231 268.702718 
C 449.829437 268.702718 450.814634 268.294636 451.540923 267.568348 
C 452.267211 266.842059 452.675293 265.856862 452.675293 264.829735 
C 452.675293 263.802608 452.267211 262.817411 451.540923 262.091122 
C 450.814634 261.364834 449.829437 260.956752 448.80231 260.956752 
C 447.775183 260.956752 446.789986 261.364834 446.063697 262.091122 
C 445.337408 262.817411 444.929326 263.802608 444.929326 264.829735 
C 444.929326 265.856862 445.337408 266.842059 446.063697 267.568348 
C 446.789986 268.294636 447.775183 268.702718 448.80231 268.702718 
z
" clip-path="url(#p0fa2f1b21e)" style="fill: #4c72b0; stroke: #ffffff; stroke-width: 0.619677"/>
    <path d="M 446.865818 276.999617 
L 448.80231 275.063125 
L 450.738801 276.999617 
L 452.675293 275.063125 
L 450.738801 273.126633 
L 452.675293 271.190142 
L 450.738801 269.25365 
L 448.80231 271.190142 
L 446.865818 269.25365 
L 444.929326 271.190142 
L 446.865818 273.126633 
L 444.929326 275.063125 
z
" clip-path="url(#p0fa2f1b21e)" style="fill: #dd8452; stroke: #ffffff; stroke-width: 0.619677"/>
    <path d="M 446.063697 164.178228 
L 446.063697 169.655454 
L 451.540923 169.655454 
L 451.540923 164.178228 
z
" clip-path="url(#p0fa2f1b21e)" style="fill: #55a868; stroke: #ffffff; stroke-width: 0.619677"/>
    <path d="M 470.058918 269.918202 
C 471.086045 269.918202 472.071242 269.51012 472.797531 268.783831 
C 473.52382 268.057542 473.931901 267.072345 473.931901 266.045218 
C 473.931901 265.018091 473.52382 264.032894 472.797531 263.306605 
C 472.071242 262.580317 471.086045 262.172235 470.058918 262.172235 
C 469.031791 262.172235 468.046594 262.580317 467.320305 263.306605 
C 466.594017 264.032894 466.185935 265.018091 466.185935 266.045218 
C 466.185935 267.072345 466.594017 268.057542 467.320305 268.783831 
C 468.046594 269.51012 469.031791 269.918202 470.058918 269.918202 
z
" clip-path="url(#p0fa2f1b21e)" style="fill: #4c72b0; stroke: #ffffff; stroke-width: 0.619677"/>
    <path d="M 468.122426 277.35002 
L 470.058918 275.413528 
L 471.99541 277.35002 
L 473.931901 275.413528 
L 471.99541 273.477036 
L 473.931901 271.540545 
L 471.99541 269.604053 
L 470.058918 271.540545 
L 468.122426 269.604053 
L 466.185935 271.540545 
L 468.122426 273.477036 
L 466.185935 275.413528 
z
" clip-path="url(#p0fa2f1b21e)" style="fill: #dd8452; stroke: #ffffff; stroke-width: 0.619677"/>
    <path d="M 467.320305 165.163699 
L 467.320305 170.640925 
L 472.797531 170.640925 
L 472.797531 165.163699 
z
" clip-path="url(#p0fa2f1b21e)" style="fill: #55a868; stroke: #ffffff; stroke-width: 0.619677"/>
    <path d="M 488.47223 263.223668 
C 489.499357 263.223668 490.484554 262.815586 491.210843 262.089297 
C 491.937131 261.363009 492.345213 260.377812 492.345213 259.350685 
C 492.345213 258.323558 491.937131 257.338361 491.210843 256.612072 
C 490.484554 255.885783 489.499357 255.477701 488.47223 255.477701 
C 487.445103 255.477701 486.459906 255.885783 485.733617 256.612072 
C 485.007328 257.338361 484.599246 258.323558 484.599246 259.350685 
C 484.599246 260.377812 485.007328 261.363009 485.733617 262.089297 
C 486.459906 262.815586 487.445103 263.223668 488.47223 263.223668 
z
" clip-path="url(#p0fa2f1b21e)" style="fill: #4c72b0; stroke: #ffffff; stroke-width: 0.619677"/>
    <path d="M 486.535738 272.852982 
L 488.47223 270.91649 
L 490.408721 272.852982 
L 492.345213 270.91649 
L 490.408721 268.979998 
L 492.345213 267.043507 
L 490.408721 265.107015 
L 488.47223 267.043507 
L 486.535738 265.107015 
L 484.599246 267.043507 
L 486.535738 268.979998 
L 484.599246 270.91649 
z
" clip-path="url(#p0fa2f1b21e)" style="fill: #dd8452; stroke: #ffffff; stroke-width: 0.619677"/>
    <path d="M 485.733617 164.993218 
L 485.733617 170.470444 
L 491.210843 170.470444 
L 491.210843 164.993218 
z
" clip-path="url(#p0fa2f1b21e)" style="fill: #55a868; stroke: #ffffff; stroke-width: 0.619677"/>
    <path d="M 504.713922 268.434114 
C 505.741049 268.434114 506.726246 268.026032 507.452535 267.299743 
C 508.178823 266.573454 508.586905 265.588257 508.586905 264.56113 
C 508.586905 263.534003 508.178823 262.548806 507.452535 261.822518 
C 506.726246 261.096229 505.741049 260.688147 504.713922 260.688147 
C 503.686795 260.688147 502.701598 261.096229 501.975309 261.822518 
C 501.24902 262.548806 500.840938 263.534003 500.840938 264.56113 
C 500.840938 265.588257 501.24902 266.573454 501.975309 267.299743 
C 502.701598 268.026032 503.686795 268.434114 504.713922 268.434114 
z
" clip-path="url(#p0fa2f1b21e)" style="fill: #4c72b0; stroke: #ffffff; stroke-width: 0.619677"/>
    <path d="M 502.77743 279.620814 
L 504.713922 277.684323 
L 506.650413 279.620814 
L 508.586905 277.684323 
L 506.650413 275.747831 
L 508.586905 273.811339 
L 506.650413 271.874848 
L 504.713922 273.811339 
L 502.77743 271.874848 
L 500.840938 273.811339 
L 502.77743 275.747831 
L 500.840938 277.684323 
z
" clip-path="url(#p0fa2f1b21e)" style="fill: #dd8452; stroke: #ffffff; stroke-width: 0.619677"/>
    <path d="M 501.975309 167.109381 
L 501.975309 172.586607 
L 507.452535 172.586607 
L 507.452535 167.109381 
z
" clip-path="url(#p0fa2f1b21e)" style="fill: #55a868; stroke: #ffffff; stroke-width: 0.619677"/>
    <path d="M 201.727634 207.56531 
C 202.754761 207.56531 203.739958 207.157228 204.466247 206.430939 
C 205.192535 205.704651 205.600617 204.719454 205.600617 203.692327 
C 205.600617 202.665199 205.192535 201.680002 204.466247 200.953714 
C 203.739958 200.227425 202.754761 199.819343 201.727634 199.819343 
C 200.700507 199.819343 199.71531 200.227425 198.989021 200.953714 
C 198.262733 201.680002 197.854651 202.665199 197.854651 203.692327 
C 197.854651 204.719454 198.262733 205.704651 198.989021 206.430939 
C 199.71531 207.157228 200.700507 207.56531 201.727634 207.56531 
z
" clip-path="url(#p0fa2f1b21e)" style="fill: #4c72b0; stroke: #ffffff; stroke-width: 0.619677"/>
    <path d="M 199.791142 247.614045 
L 201.727634 245.677553 
L 203.664126 247.614045 
L 205.600617 245.677553 
L 203.664126 243.741061 
L 205.600617 241.80457 
L 203.664126 239.868078 
L 201.727634 241.80457 
L 199.791142 239.868078 
L 197.854651 241.80457 
L 199.791142 243.741061 
L 197.854651 245.677553 
z
" clip-path="url(#p0fa2f1b21e)" style="fill: #dd8452; stroke: #ffffff; stroke-width: 0.619677"/>
    <path d="M 198.989021 172.447884 
L 198.989021 177.92511 
L 204.466247 177.92511 
L 204.466247 172.447884 
z
" clip-path="url(#p0fa2f1b21e)" style="fill: #55a868; stroke: #ffffff; stroke-width: 0.619677"/>
    <path d="M 519.24261 269.206523 
C 520.269737 269.206523 521.254934 268.798441 521.981223 268.072153 
C 522.707512 267.345864 523.115594 266.360667 523.115594 265.33354 
C 523.115594 264.306413 522.707512 263.321216 521.981223 262.594927 
C 521.254934 261.868638 520.269737 261.460556 519.24261 261.460556 
C 518.215483 261.460556 517.230286 261.868638 516.503998 262.594927 
C 515.777709 263.321216 515.369627 264.306413 515.369627 265.33354 
C 515.369627 266.360667 515.777709 267.345864 516.503998 268.072153 
C 517.230286 268.798441 518.215483 269.206523 519.24261 269.206523 
z
" clip-path="url(#p0fa2f1b21e)" style="fill: #4c72b0; stroke: #ffffff; stroke-width: 0.619677"/>
    <path d="M 517.306119 279.233631 
L 519.24261 277.297139 
L 521.179102 279.233631 
L 523.115594 277.297139 
L 521.179102 275.360648 
L 523.115594 273.424156 
L 521.179102 271.487664 
L 519.24261 273.424156 
L 517.306119 271.487664 
L 515.369627 273.424156 
L 517.306119 275.360648 
L 515.369627 277.297139 
z
" clip-path="url(#p0fa2f1b21e)" style="fill: #dd8452; stroke: #ffffff; stroke-width: 0.619677"/>
    <path d="M 516.503998 167.137606 
L 516.503998 172.614832 
L 521.981223 172.614832 
L 521.981223 167.137606 
z
" clip-path="url(#p0fa2f1b21e)" style="fill: #55a868; stroke: #ffffff; stroke-width: 0.619677"/>
    <path d="M 257.639246 233.812845 
C 258.666373 233.812845 259.65157 233.404763 260.377859 232.678474 
C 261.104147 231.952186 261.512229 230.966989 261.512229 229.939861 
C 261.512229 228.912734 261.104147 227.927537 260.377859 227.201249 
C 259.65157 226.47496 258.666373 226.066878 257.639246 226.066878 
C 256.612119 226.066878 255.626922 226.47496 254.900633 227.201249 
C 254.174345 227.927537 253.766263 228.912734 253.766263 229.939861 
C 253.766263 230.966989 254.174345 231.952186 254.900633 232.678474 
C 255.626922 233.404763 256.612119 233.812845 257.639246 233.812845 
z
" clip-path="url(#p0fa2f1b21e)" style="fill: #4c72b0; stroke: #ffffff; stroke-width: 0.619677"/>
    <path d="M 255.702754 270.919243 
L 257.639246 268.982751 
L 259.575738 270.919243 
L 261.512229 268.982751 
L 259.575738 267.04626 
L 261.512229 265.109768 
L 259.575738 263.173276 
L 257.639246 265.109768 
L 255.702754 263.173276 
L 253.766263 265.109768 
L 255.702754 267.04626 
L 253.766263 268.982751 
z
" clip-path="url(#p0fa2f1b21e)" style="fill: #dd8452; stroke: #ffffff; stroke-width: 0.619677"/>
    <path d="M 254.900633 215.335528 
L 254.900633 220.812754 
L 260.377859 220.812754 
L 260.377859 215.335528 
z
" clip-path="url(#p0fa2f1b21e)" style="fill: #55a868; stroke: #ffffff; stroke-width: 0.619677"/>
    <path d="M 297.309166 247.346338 
C 298.336293 247.346338 299.32149 246.938256 300.047779 246.211967 
C 300.774067 245.485678 301.182149 244.500481 301.182149 243.473354 
C 301.182149 242.446227 300.774067 241.46103 300.047779 240.734742 
C 299.32149 240.008453 298.336293 239.600371 297.309166 239.600371 
C 296.282039 239.600371 295.296842 240.008453 294.570553 240.734742 
C 293.844265 241.46103 293.436183 242.446227 293.436183 243.473354 
C 293.436183 244.500481 293.844265 245.485678 294.570553 246.211967 
C 295.296842 246.938256 296.282039 247.346338 297.309166 247.346338 
z
" clip-path="url(#p0fa2f1b21e)" style="fill: #4c72b0; stroke: #ffffff; stroke-width: 0.619677"/>
    <path d="M 295.372674 274.813637 
L 297.309166 272.877145 
L 299.245658 274.813637 
L 301.182149 272.877145 
L 299.245658 270.940654 
L 301.182149 269.004162 
L 299.245658 267.06767 
L 297.309166 269.004162 
L 295.372674 267.06767 
L 293.436183 269.004162 
L 295.372674 270.940654 
L 293.436183 272.877145 
z
" clip-path="url(#p0fa2f1b21e)" style="fill: #dd8452; stroke: #ffffff; stroke-width: 0.619677"/>
    <path d="M 294.570553 235.200404 
L 294.570553 240.677629 
L 300.047779 240.677629 
L 300.047779 235.200404 
z
" clip-path="url(#p0fa2f1b21e)" style="fill: #55a868; stroke: #ffffff; stroke-width: 0.619677"/>
    <path d="M 328.079546 256.859466 
C 329.106674 256.859466 330.091871 256.451384 330.818159 255.725095 
C 331.544448 254.998807 331.95253 254.01361 331.95253 252.986483 
C 331.95253 251.959355 331.544448 250.974158 330.818159 250.24787 
C 330.091871 249.521581 329.106674 249.113499 328.079546 249.113499 
C 327.052419 249.113499 326.067222 249.521581 325.340934 250.24787 
C 324.614645 250.974158 324.206563 251.959355 324.206563 252.986483 
C 324.206563 254.01361 324.614645 254.998807 325.340934 255.725095 
C 326.067222 256.451384 327.052419 256.859466 328.079546 256.859466 
z
" clip-path="url(#p0fa2f1b21e)" style="fill: #4c72b0; stroke: #ffffff; stroke-width: 0.619677"/>
    <path d="M 326.143055 281.021564 
L 328.079546 279.085072 
L 330.016038 281.021564 
L 331.95253 279.085072 
L 330.016038 277.148581 
L 331.95253 275.212089 
L 330.016038 273.275597 
L 328.079546 275.212089 
L 326.143055 273.275597 
L 324.206563 275.212089 
L 326.143055 277.148581 
L 324.206563 279.085072 
z
" clip-path="url(#p0fa2f1b21e)" style="fill: #dd8452; stroke: #ffffff; stroke-width: 0.619677"/>
    <path d="M 325.340934 233.439955 
L 325.340934 238.91718 
L 330.818159 238.91718 
L 330.818159 233.439955 
z
" clip-path="url(#p0fa2f1b21e)" style="fill: #55a868; stroke: #ffffff; stroke-width: 0.619677"/>
    <path d="M 353.220778 256.882714 
C 354.247905 256.882714 355.233102 256.474632 355.959391 255.748344 
C 356.685679 255.022055 357.093761 254.036858 357.093761 253.009731 
C 357.093761 251.982604 356.685679 250.997407 355.959391 250.271118 
C 355.233102 249.54483 354.247905 249.136748 353.220778 249.136748 
C 352.193651 249.136748 351.208454 249.54483 350.482165 250.271118 
C 349.755876 250.997407 349.347795 251.982604 349.347795 253.009731 
C 349.347795 254.036858 349.755876 255.022055 350.482165 255.748344 
C 351.208454 256.474632 352.193651 256.882714 353.220778 256.882714 
z
" clip-path="url(#p0fa2f1b21e)" style="fill: #4c72b0; stroke: #ffffff; stroke-width: 0.619677"/>
    <path d="M 351.284286 283.487404 
L 353.220778 281.550912 
L 355.15727 283.487404 
L 357.093761 281.550912 
L 355.15727 279.61442 
L 357.093761 277.677929 
L 355.15727 275.741437 
L 353.220778 277.677929 
L 351.284286 275.741437 
L 349.347795 277.677929 
L 351.284286 279.61442 
L 349.347795 281.550912 
z
" clip-path="url(#p0fa2f1b21e)" style="fill: #dd8452; stroke: #ffffff; stroke-width: 0.619677"/>
    <path d="M 350.482165 200.926596 
L 350.482165 206.403821 
L 355.959391 206.403821 
L 355.959391 200.926596 
z
" clip-path="url(#p0fa2f1b21e)" style="fill: #55a868; stroke: #ffffff; stroke-width: 0.619677"/>
    <path d="M 374.477386 258.774168 
C 375.504513 258.774168 376.48971 258.366086 377.215999 257.639797 
C 377.942288 256.913508 378.35037 255.928311 378.35037 254.901184 
C 378.35037 253.874057 377.942288 252.88886 377.215999 252.162571 
C 376.48971 251.436283 375.504513 251.028201 374.477386 251.028201 
C 373.450259 251.028201 372.465062 251.436283 371.738773 252.162571 
C 371.012485 252.88886 370.604403 253.874057 370.604403 254.901184 
C 370.604403 255.928311 371.012485 256.913508 371.738773 257.639797 
C 372.465062 258.366086 373.450259 258.774168 374.477386 258.774168 
z
" clip-path="url(#p0fa2f1b21e)" style="fill: #4c72b0; stroke: #ffffff; stroke-width: 0.619677"/>
    <path d="M 372.540895 281.171123 
L 374.477386 279.234631 
L 376.413878 281.171123 
L 378.35037 279.234631 
L 376.413878 277.298139 
L 378.35037 275.361648 
L 376.413878 273.425156 
L 374.477386 275.361648 
L 372.540895 273.425156 
L 370.604403 275.361648 
L 372.540895 277.298139 
L 370.604403 279.234631 
z
" clip-path="url(#p0fa2f1b21e)" style="fill: #dd8452; stroke: #ffffff; stroke-width: 0.619677"/>
    <path d="M 371.738773 177.021126 
L 371.738773 182.498352 
L 377.215999 182.498352 
L 377.215999 177.021126 
z
" clip-path="url(#p0fa2f1b21e)" style="fill: #55a868; stroke: #ffffff; stroke-width: 0.619677"/>
    <path d="M 392.890698 259.821597 
C 393.917825 259.821597 394.903022 259.413515 395.629311 258.687227 
C 396.355599 257.960938 396.763681 256.975741 396.763681 255.948614 
C 396.763681 254.921487 396.355599 253.93629 395.629311 253.210001 
C 394.903022 252.483713 393.917825 252.075631 392.890698 252.075631 
C 391.863571 252.075631 390.878374 252.483713 390.152085 253.210001 
C 389.425796 253.93629 389.017715 254.921487 389.017715 255.948614 
C 389.017715 256.975741 389.425796 257.960938 390.152085 258.687227 
C 390.878374 259.413515 391.863571 259.821597 392.890698 259.821597 
z
" clip-path="url(#p0fa2f1b21e)" style="fill: #4c72b0; stroke: #ffffff; stroke-width: 0.619677"/>
    <path d="M 390.954206 278.404597 
L 392.890698 276.468105 
L 394.82719 278.404597 
L 396.763681 276.468105 
L 394.82719 274.531614 
L 396.763681 272.595122 
L 394.82719 270.65863 
L 392.890698 272.595122 
L 390.954206 270.65863 
L 389.017715 272.595122 
L 390.954206 274.531614 
L 389.017715 276.468105 
z
" clip-path="url(#p0fa2f1b21e)" style="fill: #dd8452; stroke: #ffffff; stroke-width: 0.619677"/>
    <path d="M 390.152085 166.981317 
L 390.152085 172.458543 
L 395.629311 172.458543 
L 395.629311 166.981317 
z
" clip-path="url(#p0fa2f1b21e)" style="fill: #55a868; stroke: #ffffff; stroke-width: 0.619677"/>
    <path d="M 409.13239 260.365062 
C 410.159517 260.365062 411.144714 259.95698 411.871003 259.230692 
C 412.597291 258.504403 413.005373 257.519206 413.005373 256.492079 
C 413.005373 255.464952 412.597291 254.479755 411.871003 253.753466 
C 411.144714 253.027177 410.159517 252.619096 409.13239 252.619096 
C 408.105263 252.619096 407.120066 253.027177 406.393777 253.753466 
C 405.667488 254.479755 405.259406 255.464952 405.259406 256.492079 
C 405.259406 257.519206 405.667488 258.504403 406.393777 259.230692 
C 407.120066 259.95698 408.105263 260.365062 409.13239 260.365062 
z
" clip-path="url(#p0fa2f1b21e)" style="fill: #4c72b0; stroke: #ffffff; stroke-width: 0.619677"/>
    <path d="M 407.195898 276.78038 
L 409.13239 274.843888 
L 411.068881 276.78038 
L 413.005373 274.843888 
L 411.068881 272.907397 
L 413.005373 270.970905 
L 411.068881 269.034413 
L 409.13239 270.970905 
L 407.195898 269.034413 
L 405.259406 270.970905 
L 407.195898 272.907397 
L 405.259406 274.843888 
z
" clip-path="url(#p0fa2f1b21e)" style="fill: #dd8452; stroke: #ffffff; stroke-width: 0.619677"/>
    <path d="M 406.393777 163.600116 
L 406.393777 169.077342 
L 411.871003 169.077342 
L 411.871003 163.600116 
z
" clip-path="url(#p0fa2f1b21e)" style="fill: #55a868; stroke: #ffffff; stroke-width: 0.619677"/>
    <path d="M 391.599703 211.538133 
L 394.181692 211.538133 
L 394.181692 208.956145 
L 396.763681 208.956145 
L 396.763681 206.374156 
L 394.181692 206.374156 
L 394.181692 203.792167 
L 391.599703 203.792167 
L 391.599703 206.374156 
L 389.017715 206.374156 
L 389.017715 208.956145 
L 391.599703 208.956145 
z
" clip-path="url(#p0fa2f1b21e)" style="fill: #c44e52; stroke: #ffffff; stroke-width: 0.619677"/>
    <path d="M 326.788552 215.487873 
L 329.370541 215.487873 
L 329.370541 212.905884 
L 331.95253 212.905884 
L 331.95253 210.323895 
L 329.370541 210.323895 
L 329.370541 207.741906 
L 326.788552 207.741906 
L 326.788552 210.323895 
L 324.206563 210.323895 
L 324.206563 212.905884 
L 326.788552 212.905884 
z
" clip-path="url(#p0fa2f1b21e)" style="fill: #c44e52; stroke: #ffffff; stroke-width: 0.619677"/>
    <path d="M 200.436639 229.556028 
L 203.018628 229.556028 
L 203.018628 226.974039 
L 205.600617 226.974039 
L 205.600617 224.39205 
L 203.018628 224.39205 
L 203.018628 221.810061 
L 200.436639 221.810061 
L 200.436639 224.39205 
L 197.854651 224.39205 
L 197.854651 226.974039 
L 200.436639 226.974039 
z
" clip-path="url(#p0fa2f1b21e)" style="fill: #c44e52; stroke: #ffffff; stroke-width: 0.619677"/>
    <path d="M 104.855108 168.611376 
L 107.437096 168.611376 
L 107.437096 166.029387 
L 110.019085 166.029387 
L 110.019085 163.447398 
L 107.437096 163.447398 
L 107.437096 160.865409 
L 104.855108 160.865409 
L 104.855108 163.447398 
L 102.273119 163.447398 
L 102.273119 166.029387 
L 104.855108 166.029387 
z
" clip-path="url(#p0fa2f1b21e)" style="fill: #c44e52; stroke: #ffffff; stroke-width: 0.619677"/>
    <path d="M 256.348251 247.679351 
L 258.93024 247.679351 
L 258.93024 245.097363 
L 261.512229 245.097363 
L 261.512229 242.515374 
L 258.93024 242.515374 
L 258.93024 239.933385 
L 256.348251 239.933385 
L 256.348251 242.515374 
L 253.766263 242.515374 
L 253.766263 245.097363 
L 256.348251 245.097363 
z
" clip-path="url(#p0fa2f1b21e)" style="fill: #c44e52; stroke: #ffffff; stroke-width: 0.619677"/>
    <path d="M 296.018171 243.530122 
L 298.60016 243.530122 
L 298.60016 240.948133 
L 301.182149 240.948133 
L 301.182149 238.366145 
L 298.60016 238.366145 
L 298.60016 235.784156 
L 296.018171 235.784156 
L 296.018171 238.366145 
L 293.436183 238.366145 
L 293.436183 240.948133 
L 296.018171 240.948133 
z
" clip-path="url(#p0fa2f1b21e)" style="fill: #c44e52; stroke: #ffffff; stroke-width: 0.619677"/>
    <path d="M 351.929783 218.625831 
L 354.511772 218.625831 
L 354.511772 216.043842 
L 357.093761 216.043842 
L 357.093761 213.461853 
L 354.511772 213.461853 
L 354.511772 210.879864 
L 351.929783 210.879864 
L 351.929783 213.461853 
L 349.347795 213.461853 
L 349.347795 216.043842 
L 351.929783 216.043842 
z
" clip-path="url(#p0fa2f1b21e)" style="fill: #c44e52; stroke: #ffffff; stroke-width: 0.619677"/>
    <path d="M 373.186392 214.440825 
L 375.768381 214.440825 
L 375.768381 211.858836 
L 378.35037 211.858836 
L 378.35037 209.276847 
L 375.768381 209.276847 
L 375.768381 206.694858 
L 373.186392 206.694858 
L 373.186392 209.276847 
L 370.604403 209.276847 
L 370.604403 211.858836 
L 373.186392 211.858836 
z
" clip-path="url(#p0fa2f1b21e)" style="fill: #c44e52; stroke: #ffffff; stroke-width: 0.619677"/>
    <path d="M 407.841395 226.153922 
L 410.423384 226.153922 
L 410.423384 223.571933 
L 413.005373 223.571933 
L 413.005373 220.989944 
L 410.423384 220.989944 
L 410.423384 218.407955 
L 407.841395 218.407955 
L 407.841395 220.989944 
L 405.259406 220.989944 
L 405.259406 223.571933 
L 407.841395 223.571933 
z
" clip-path="url(#p0fa2f1b21e)" style="fill: #c44e52; stroke: #ffffff; stroke-width: 0.619677"/>
    <path d="M 447.511315 221.60982 
L 450.093304 221.60982 
L 450.093304 219.027831 
L 452.675293 219.027831 
L 452.675293 216.445842 
L 450.093304 216.445842 
L 450.093304 213.863853 
L 447.511315 213.863853 
L 447.511315 216.445842 
L 444.929326 216.445842 
L 444.929326 219.027831 
L 447.511315 219.027831 
z
" clip-path="url(#p0fa2f1b21e)" style="fill: #c44e52; stroke: #ffffff; stroke-width: 0.619677"/>
    <path d="M 422.370084 219.65575 
L 424.952073 219.65575 
L 424.952073 217.073762 
L 427.534062 217.073762 
L 427.534062 214.491773 
L 424.952073 214.491773 
L 424.952073 211.909784 
L 422.370084 211.909784 
L 422.370084 214.491773 
L 419.788095 214.491773 
L 419.788095 217.073762 
L 422.370084 217.073762 
z
" clip-path="url(#p0fa2f1b21e)" style="fill: #c44e52; stroke: #ffffff; stroke-width: 0.619677"/>
    <path d="M 468.767924 227.55619 
L 471.349913 227.55619 
L 471.349913 224.974201 
L 473.931901 224.974201 
L 473.931901 222.392212 
L 471.349913 222.392212 
L 471.349913 219.810224 
L 468.767924 219.810224 
L 468.767924 222.392212 
L 466.185935 222.392212 
L 466.185935 224.974201 
L 468.767924 224.974201 
z
" clip-path="url(#p0fa2f1b21e)" style="fill: #c44e52; stroke: #ffffff; stroke-width: 0.619677"/>
    <path d="M 487.181235 221.649373 
L 489.763224 221.649373 
L 489.763224 219.067385 
L 492.345213 219.067385 
L 492.345213 216.485396 
L 489.763224 216.485396 
L 489.763224 213.903407 
L 487.181235 213.903407 
L 487.181235 216.485396 
L 484.599246 216.485396 
L 484.599246 219.067385 
L 487.181235 219.067385 
z
" clip-path="url(#p0fa2f1b21e)" style="fill: #c44e52; stroke: #ffffff; stroke-width: 0.619677"/>
    <path d="M 503.422927 231.29425 
L 506.004916 231.29425 
L 506.004916 228.712261 
L 508.586905 228.712261 
L 508.586905 226.130272 
L 506.004916 226.130272 
L 506.004916 223.548283 
L 503.422927 223.548283 
L 503.422927 226.130272 
L 500.840938 226.130272 
L 500.840938 228.712261 
L 503.422927 228.712261 
z
" clip-path="url(#p0fa2f1b21e)" style="fill: #c44e52; stroke: #ffffff; stroke-width: 0.619677"/>
    <path d="M 517.951616 231.453269 
L 520.533605 231.453269 
L 520.533605 228.87128 
L 523.115594 228.87128 
L 523.115594 226.289291 
L 520.533605 226.289291 
L 520.533605 223.707303 
L 517.951616 223.707303 
L 517.951616 226.289291 
L 515.369627 226.289291 
L 515.369627 228.87128 
L 517.951616 228.87128 
z
" clip-path="url(#p0fa2f1b21e)" style="fill: #c44e52; stroke: #ffffff; stroke-width: 0.619677"/>
   </g>
   <g id="FillBetweenPolyCollection_1"/>
   <g id="FillBetweenPolyCollection_2"/>
   <g id="FillBetweenPolyCollection_3"/>
   <g id="FillBetweenPolyCollection_4"/>
   <g id="line2d_8"/>
   <g id="line2d_9"/>
   <g id="line2d_10"/>
   <g id="line2d_11"/>
   <g id="line2d_12">
    <path d="M 106.146102 144.66653 
L 201.727634 203.692327 
L 257.639246 229.939861 
L 297.309166 243.473354 
L 328.079546 252.986483 
L 353.220778 253.009731 
L 374.477386 254.901184 
L 392.890698 255.948614 
L 409.13239 256.492079 
L 423.661078 261.126669 
L 448.80231 264.829735 
L 470.058918 266.045218 
L 488.47223 259.350685 
L 504.713922 264.56113 
L 519.24261 265.33354 
" clip-path="url(#p0fa2f1b21e)" style="fill: none; stroke: #4c72b0; stroke-width: 2; stroke-linecap: round"/>
   </g>
   <g id="line2d_13">
    <path d="M 106.146102 172.349659 
L 201.727634 243.741061 
L 257.639246 267.04626 
L 297.309166 270.940654 
L 328.079546 277.148581 
L 353.220778 279.61442 
L 374.477386 277.298139 
L 392.890698 274.531614 
L 409.13239 272.907397 
L 423.661078 273.194234 
L 448.80231 273.126633 
L 470.058918 273.477036 
L 488.47223 268.979998 
L 504.713922 275.747831 
L 519.24261 275.360648 
" clip-path="url(#p0fa2f1b21e)" style="fill: none; stroke: #dd8452; stroke-width: 2; stroke-linecap: round"/>
   </g>
   <g id="line2d_14">
    <path d="M 106.146102 36.494829 
L 201.727634 175.186497 
L 257.639246 218.074141 
L 297.309166 237.939017 
L 328.079546 236.178567 
L 353.220778 203.665209 
L 374.477386 179.759739 
L 392.890698 169.71993 
L 409.13239 166.338729 
L 423.661078 166.076483 
L 448.80231 166.916841 
L 470.058918 167.902312 
L 488.47223 167.731831 
L 504.713922 169.847994 
L 519.24261 169.876219 
" clip-path="url(#p0fa2f1b21e)" style="fill: none; stroke: #55a868; stroke-width: 2; stroke-linecap: round"/>
   </g>
   <g id="line2d_15">
    <path d="M 106.146102 164.738392 
L 201.727634 225.683045 
L 257.639246 243.806368 
L 297.309166 239.657139 
L 328.079546 211.614889 
L 353.220778 214.752847 
L 374.477386 210.567841 
L 392.890698 207.66515 
L 409.13239 222.280938 
L 423.661078 215.782767 
L 448.80231 217.736837 
L 470.058918 223.683207 
L 488.47223 217.77639 
L 504.713922 227.421267 
L 519.24261 227.580286 
" clip-path="url(#p0fa2f1b21e)" style="fill: none; stroke: #c44e52; stroke-width: 2; stroke-linecap: round"/>
   </g>
   <g id="patch_3">
    <path d="M 85.491277 291.7704 
L 85.491277 24.33885 
" style="fill: none; stroke: #cccccc; stroke-linejoin: miter; stroke-linecap: square"/>
   </g>
   <g id="patch_4">
    <path d="M 85.491277 291.7704 
L 539.897436 291.7704 
" style="fill: none; stroke: #cccccc; stroke-linejoin: miter; stroke-linecap: square"/>
   </g>
   <g id="legend_1">
    <g id="patch_5">
     <path d="M 330.473798 147.41545 
L 529.425436 147.41545 
Q 532.417436 147.41545 532.417436 144.42345 
L 532.417436 34.81085 
Q 532.417436 31.81885 529.425436 31.81885 
L 330.473798 31.81885 
Q 327.481798 31.81885 327.481798 34.81085 
L 327.481798 144.42345 
Q 327.481798 147.41545 330.473798 147.41545 
z
" style="fill: #ffffff; opacity: 0.8; stroke: #cccccc; stroke-width: 0.8; stroke-linejoin: miter"/>
    </g>
    <g id="text_10">
     <!-- Strategy (T=16) -->
     <g style="fill: #262626" transform="translate(363.819192 50.2035) scale(0.1632 -0.1632)">
      <defs>
       <path id="DejaVuSans-53" d="M 3425 4513 
L 3425 3897 
Q 3066 4069 2747 4153 
Q 2428 4238 2131 4238 
Q 1616 4238 1336 4038 
Q 1056 3838 1056 3469 
Q 1056 3159 1242 3001 
Q 1428 2844 1947 2747 
L 2328 2669 
Q 3034 2534 3370 2195 
Q 3706 1856 3706 1288 
Q 3706 609 3251 259 
Q 2797 -91 1919 -91 
Q 1588 -91 1214 -16 
Q 841 59 441 206 
L 441 856 
Q 825 641 1194 531 
Q 1563 422 1919 422 
Q 2459 422 2753 634 
Q 3047 847 3047 1241 
Q 3047 1584 2836 1778 
Q 2625 1972 2144 2069 
L 1759 2144 
Q 1053 2284 737 2584 
Q 422 2884 422 3419 
Q 422 4038 858 4394 
Q 1294 4750 2059 4750 
Q 2388 4750 2728 4690 
Q 3069 4631 3425 4513 
z
" transform="scale(0.015625)"/>
       <path id="DejaVuSans-74" d="M 1172 4494 
L 1172 3500 
L 2356 3500 
L 2356 3053 
L 1172 3053 
L 1172 1153 
Q 1172 725 1289 603 
Q 1406 481 1766 481 
L 2356 481 
L 2356 0 
L 1766 0 
Q 1100 0 847 248 
Q 594 497 594 1153 
L 594 3053 
L 172 3053 
L 172 3500 
L 594 3500 
L 594 4494 
L 1172 4494 
z
" transform="scale(0.015625)"/>
       <path id="DejaVuSans-61" d="M 2194 1759 
Q 1497 1759 1228 1600 
Q 959 1441 959 1056 
Q 959 750 1161 570 
Q 1363 391 1709 391 
Q 2188 391 2477 730 
Q 2766 1069 2766 1631 
L 2766 1759 
L 2194 1759 
z
M 3341 1997 
L 3341 0 
L 2766 0 
L 2766 531 
Q 2569 213 2275 61 
Q 1981 -91 1556 -91 
Q 1019 -91 701 211 
Q 384 513 384 1019 
Q 384 1609 779 1909 
Q 1175 2209 1959 2209 
L 2766 2209 
L 2766 2266 
Q 2766 2663 2505 2880 
Q 2244 3097 1772 3097 
Q 1472 3097 1187 3025 
Q 903 2953 641 2809 
L 641 3341 
Q 956 3463 1253 3523 
Q 1550 3584 1831 3584 
Q 2591 3584 2966 3190 
Q 3341 2797 3341 1997 
z
" transform="scale(0.015625)"/>
       <path id="DejaVuSans-67" d="M 2906 1791 
Q 2906 2416 2648 2759 
Q 2391 3103 1925 3103 
Q 1463 3103 1205 2759 
Q 947 2416 947 1791 
Q 947 1169 1205 825 
Q 1463 481 1925 481 
Q 2391 481 2648 825 
Q 2906 1169 2906 1791 
z
M 3481 434 
Q 3481 -459 3084 -895 
Q 2688 -1331 1869 -1331 
Q 1566 -1331 1297 -1286 
Q 1028 -1241 775 -1147 
L 775 -588 
Q 1028 -725 1275 -790 
Q 1522 -856 1778 -856 
Q 2344 -856 2625 -561 
Q 2906 -266 2906 331 
L 2906 616 
Q 2728 306 2450 153 
Q 2172 0 1784 0 
Q 1141 0 747 490 
Q 353 981 353 1791 
Q 353 2603 747 3093 
Q 1141 3584 1784 3584 
Q 2172 3584 2450 3431 
Q 2728 3278 2906 2969 
L 2906 3500 
L 3481 3500 
L 3481 434 
z
" transform="scale(0.015625)"/>
       <path id="DejaVuSans-3d" d="M 678 2906 
L 4684 2906 
L 4684 2381 
L 678 2381 
L 678 2906 
z
M 678 1631 
L 4684 1631 
L 4684 1100 
L 678 1100 
L 678 1631 
z
" transform="scale(0.015625)"/>
      </defs>
      <use xlink:href="#DejaVuSans-53"/>
      <use xlink:href="#DejaVuSans-74" transform="translate(63.476562 0)"/>
      <use xlink:href="#DejaVuSans-72" transform="translate(102.685547 0)"/>
      <use xlink:href="#DejaVuSans-61" transform="translate(143.798828 0)"/>
      <use xlink:href="#DejaVuSans-74" transform="translate(205.078125 0)"/>
      <use xlink:href="#DejaVuSans-65" transform="translate(244.287109 0)"/>
      <use xlink:href="#DejaVuSans-67" transform="translate(305.810547 0)"/>
      <use xlink:href="#DejaVuSans-79" transform="translate(369.287109 0)"/>
      <use xlink:href="#DejaVuSans-20" transform="translate(428.466797 0)"/>
      <use xlink:href="#DejaVuSans-28" transform="translate(460.253906 0)"/>
      <use xlink:href="#DejaVuSans-54" transform="translate(499.267578 0)"/>
      <use xlink:href="#DejaVuSans-3d" transform="translate(560.351562 0)"/>
      <use xlink:href="#DejaVuSans-31" transform="translate(644.140625 0)"/>
      <use xlink:href="#DejaVuSans-36" transform="translate(707.763672 0)"/>
      <use xlink:href="#DejaVuSans-29" transform="translate(771.386719 0)"/>
     </g>
    </g>
    <g id="line2d_16">
     <defs>
      <path id="md45e58b836" d="M 0 3.872983 
C 1.027127 3.872983 2.012324 3.464901 2.738613 2.738613 
C 3.464901 2.012324 3.872983 1.027127 3.872983 0 
C 3.872983 -1.027127 3.464901 -2.012324 2.738613 -2.738613 
C 2.012324 -3.464901 1.027127 -3.872983 0 -3.872983 
C -1.027127 -3.872983 -2.012324 -3.464901 -2.738613 -2.738613 
C -3.464901 -2.012324 -3.872983 -1.027127 -3.872983 0 
C -3.872983 1.027127 -3.464901 2.012324 -2.738613 2.738613 
C -2.012324 3.464901 -1.027127 3.872983 0 3.872983 
z
"/>
     </defs>
     <g>
      <use xlink:href="#md45e58b836" x="348.425798" y="67.208812" style="fill: #4c72b0"/>
     </g>
    </g>
    <g id="text_11">
     <!-- Face-Based -->
     <g style="fill: #262626" transform="translate(375.353798 72.444812) scale(0.1496 -0.1496)">
      <defs>
       <path id="DejaVuSans-46" d="M 628 4666 
L 3309 4666 
L 3309 4134 
L 1259 4134 
L 1259 2759 
L 3109 2759 
L 3109 2228 
L 1259 2228 
L 1259 0 
L 628 0 
L 628 4666 
z
" transform="scale(0.015625)"/>
       <path id="DejaVuSans-63" d="M 3122 3366 
L 3122 2828 
Q 2878 2963 2633 3030 
Q 2388 3097 2138 3097 
Q 1578 3097 1268 2742 
Q 959 2388 959 1747 
Q 959 1106 1268 751 
Q 1578 397 2138 397 
Q 2388 397 2633 464 
Q 2878 531 3122 666 
L 3122 134 
Q 2881 22 2623 -34 
Q 2366 -91 2075 -91 
Q 1284 -91 818 406 
Q 353 903 353 1747 
Q 353 2603 823 3093 
Q 1294 3584 2113 3584 
Q 2378 3584 2631 3529 
Q 2884 3475 3122 3366 
z
" transform="scale(0.015625)"/>
       <path id="DejaVuSans-2d" d="M 313 2009 
L 1997 2009 
L 1997 1497 
L 313 1497 
L 313 2009 
z
" transform="scale(0.015625)"/>
       <path id="DejaVuSans-42" d="M 1259 2228 
L 1259 519 
L 2272 519 
Q 2781 519 3026 730 
Q 3272 941 3272 1375 
Q 3272 1813 3026 2020 
Q 2781 2228 2272 2228 
L 1259 2228 
z
M 1259 4147 
L 1259 2741 
L 2194 2741 
Q 2656 2741 2882 2914 
Q 3109 3088 3109 3444 
Q 3109 3797 2882 3972 
Q 2656 4147 2194 4147 
L 1259 4147 
z
M 628 4666 
L 2241 4666 
Q 2963 4666 3353 4366 
Q 3744 4066 3744 3513 
Q 3744 3084 3544 2831 
Q 3344 2578 2956 2516 
Q 3422 2416 3680 2098 
Q 3938 1781 3938 1306 
Q 3938 681 3513 340 
Q 3088 0 2303 0 
L 628 0 
L 628 4666 
z
" transform="scale(0.015625)"/>
       <path id="DejaVuSans-64" d="M 2906 2969 
L 2906 4863 
L 3481 4863 
L 3481 0 
L 2906 0 
L 2906 525 
Q 2725 213 2448 61 
Q 2172 -91 1784 -91 
Q 1150 -91 751 415 
Q 353 922 353 1747 
Q 353 2572 751 3078 
Q 1150 3584 1784 3584 
Q 2172 3584 2448 3432 
Q 2725 3281 2906 2969 
z
M 947 1747 
Q 947 1113 1208 752 
Q 1469 391 1925 391 
Q 2381 391 2643 752 
Q 2906 1113 2906 1747 
Q 2906 2381 2643 2742 
Q 2381 3103 1925 3103 
Q 1469 3103 1208 2742 
Q 947 2381 947 1747 
z
" transform="scale(0.015625)"/>
      </defs>
      <use xlink:href="#DejaVuSans-46"/>
      <use xlink:href="#DejaVuSans-61" transform="translate(48.394531 0)"/>
      <use xlink:href="#DejaVuSans-63" transform="translate(109.673828 0)"/>
      <use xlink:href="#DejaVuSans-65" transform="translate(164.654297 0)"/>
      <use xlink:href="#DejaVuSans-2d" transform="translate(226.177734 0)"/>
      <use xlink:href="#DejaVuSans-42" transform="translate(258.636719 0)"/>
      <use xlink:href="#DejaVuSans-61" transform="translate(327.240234 0)"/>
      <use xlink:href="#DejaVuSans-73" transform="translate(388.519531 0)"/>
      <use xlink:href="#DejaVuSans-65" transform="translate(440.619141 0)"/>
      <use xlink:href="#DejaVuSans-64" transform="translate(502.142578 0)"/>
     </g>
    </g>
    <g id="line2d_17">
     <defs>
      <path id="mb9243aea88" d="M -1.936492 3.872983 
L 0 1.936492 
L 1.936492 3.872983 
L 3.872983 1.936492 
L 1.936492 0 
L 3.872983 -1.936492 
L 1.936492 -3.872983 
L 0 -1.936492 
L -1.936492 -3.872983 
L -3.872983 -1.936492 
L -1.936492 0 
L -3.872983 1.936492 
z
"/>
     </defs>
     <g>
      <use xlink:href="#mb9243aea88" x="348.425798" y="89.167287" style="fill: #dd8452"/>
     </g>
    </g>
    <g id="text_12">
     <!-- Face-Based Global -->
     <g style="fill: #262626" transform="translate(375.353798 94.403287) scale(0.1496 -0.1496)">
      <defs>
       <path id="DejaVuSans-47" d="M 3809 666 
L 3809 1919 
L 2778 1919 
L 2778 2438 
L 4434 2438 
L 4434 434 
Q 4069 175 3628 42 
Q 3188 -91 2688 -91 
Q 1594 -91 976 548 
Q 359 1188 359 2328 
Q 359 3472 976 4111 
Q 1594 4750 2688 4750 
Q 3144 4750 3555 4637 
Q 3966 4525 4313 4306 
L 4313 3634 
Q 3963 3931 3569 4081 
Q 3175 4231 2741 4231 
Q 1884 4231 1454 3753 
Q 1025 3275 1025 2328 
Q 1025 1384 1454 906 
Q 1884 428 2741 428 
Q 3075 428 3337 486 
Q 3600 544 3809 666 
z
" transform="scale(0.015625)"/>
       <path id="DejaVuSans-6f" d="M 1959 3097 
Q 1497 3097 1228 2736 
Q 959 2375 959 1747 
Q 959 1119 1226 758 
Q 1494 397 1959 397 
Q 2419 397 2687 759 
Q 2956 1122 2956 1747 
Q 2956 2369 2687 2733 
Q 2419 3097 1959 3097 
z
M 1959 3584 
Q 2709 3584 3137 3096 
Q 3566 2609 3566 1747 
Q 3566 888 3137 398 
Q 2709 -91 1959 -91 
Q 1206 -91 779 398 
Q 353 888 353 1747 
Q 353 2609 779 3096 
Q 1206 3584 1959 3584 
z
" transform="scale(0.015625)"/>
      </defs>
      <use xlink:href="#DejaVuSans-46"/>
      <use xlink:href="#DejaVuSans-61" transform="translate(48.394531 0)"/>
      <use xlink:href="#DejaVuSans-63" transform="translate(109.673828 0)"/>
      <use xlink:href="#DejaVuSans-65" transform="translate(164.654297 0)"/>
      <use xlink:href="#DejaVuSans-2d" transform="translate(226.177734 0)"/>
      <use xlink:href="#DejaVuSans-42" transform="translate(258.636719 0)"/>
      <use xlink:href="#DejaVuSans-61" transform="translate(327.240234 0)"/>
      <use xlink:href="#DejaVuSans-73" transform="translate(388.519531 0)"/>
      <use xlink:href="#DejaVuSans-65" transform="translate(440.619141 0)"/>
      <use xlink:href="#DejaVuSans-64" transform="translate(502.142578 0)"/>
      <use xlink:href="#DejaVuSans-20" transform="translate(565.619141 0)"/>
      <use xlink:href="#DejaVuSans-47" transform="translate(597.40625 0)"/>
      <use xlink:href="#DejaVuSans-6c" transform="translate(674.896484 0)"/>
      <use xlink:href="#DejaVuSans-6f" transform="translate(702.679688 0)"/>
      <use xlink:href="#DejaVuSans-62" transform="translate(763.861328 0)"/>
      <use xlink:href="#DejaVuSans-61" transform="translate(827.337891 0)"/>
      <use xlink:href="#DejaVuSans-6c" transform="translate(888.617188 0)"/>
     </g>
    </g>
    <g id="line2d_18">
     <defs>
      <path id="mb32ade8b08" d="M -2.738613 -2.738613 
L -2.738613 2.738613 
L 2.738613 2.738613 
L 2.738613 -2.738613 
z
"/>
     </defs>
     <g>
      <use xlink:href="#mb32ade8b08" x="348.425798" y="111.125762" style="fill: #55a868"/>
     </g>
    </g>
    <g id="text_13">
     <!-- Face-Based Batched -->
     <g style="fill: #262626" transform="translate(375.353798 116.361762) scale(0.1496 -0.1496)">
      <defs>
       <path id="DejaVuSans-68" d="M 3513 2113 
L 3513 0 
L 2938 0 
L 2938 2094 
Q 2938 2591 2744 2837 
Q 2550 3084 2163 3084 
Q 1697 3084 1428 2787 
Q 1159 2491 1159 1978 
L 1159 0 
L 581 0 
L 581 4863 
L 1159 4863 
L 1159 2956 
Q 1366 3272 1645 3428 
Q 1925 3584 2291 3584 
Q 2894 3584 3203 3211 
Q 3513 2838 3513 2113 
z
" transform="scale(0.015625)"/>
      </defs>
      <use xlink:href="#DejaVuSans-46"/>
      <use xlink:href="#DejaVuSans-61" transform="translate(48.394531 0)"/>
      <use xlink:href="#DejaVuSans-63" transform="translate(109.673828 0)"/>
      <use xlink:href="#DejaVuSans-65" transform="translate(164.654297 0)"/>
      <use xlink:href="#DejaVuSans-2d" transform="translate(226.177734 0)"/>
      <use xlink:href="#DejaVuSans-42" transform="translate(258.636719 0)"/>
      <use xlink:href="#DejaVuSans-61" transform="translate(327.240234 0)"/>
      <use xlink:href="#DejaVuSans-73" transform="translate(388.519531 0)"/>
      <use xlink:href="#DejaVuSans-65" transform="translate(440.619141 0)"/>
      <use xlink:href="#DejaVuSans-64" transform="translate(502.142578 0)"/>
      <use xlink:href="#DejaVuSans-20" transform="translate(565.619141 0)"/>
      <use xlink:href="#DejaVuSans-42" transform="translate(597.40625 0)"/>
      <use xlink:href="#DejaVuSans-61" transform="translate(666.009766 0)"/>
      <use xlink:href="#DejaVuSans-74" transform="translate(727.289062 0)"/>
      <use xlink:href="#DejaVuSans-63" transform="translate(766.498047 0)"/>
      <use xlink:href="#DejaVuSans-68" transform="translate(821.478516 0)"/>
      <use xlink:href="#DejaVuSans-65" transform="translate(884.857422 0)"/>
      <use xlink:href="#DejaVuSans-64" transform="translate(946.380859 0)"/>
     </g>
    </g>
    <g id="line2d_19">
     <defs>
      <path id="m9573c7e502" d="M -1.290994 3.872983 
L 1.290994 3.872983 
L 1.290994 1.290994 
L 3.872983 1.290994 
L 3.872983 -1.290994 
L 1.290994 -1.290994 
L 1.290994 -3.872983 
L -1.290994 -3.872983 
L -1.290994 -1.290994 
L -3.872983 -1.290994 
L -3.872983 1.290994 
L -1.290994 1.290994 
z
"/>
     </defs>
     <g>
      <use xlink:href="#m9573c7e502" x="348.425798" y="133.084237" style="fill: #c44e52"/>
     </g>
    </g>
    <g id="text_14">
     <!-- Cell-Based -->
     <g style="fill: #262626" transform="translate(375.353798 138.320237) scale(0.1496 -0.1496)">
      <use xlink:href="#DejaVuSans-43"/>
      <use xlink:href="#DejaVuSans-65" transform="translate(69.824219 0)"/>
      <use xlink:href="#DejaVuSans-6c" transform="translate(131.347656 0)"/>
      <use xlink:href="#DejaVuSans-6c" transform="translate(159.130859 0)"/>
      <use xlink:href="#DejaVuSans-2d" transform="translate(186.914062 0)"/>
      <use xlink:href="#DejaVuSans-42" transform="translate(219.373047 0)"/>
      <use xlink:href="#DejaVuSans-61" transform="translate(287.976562 0)"/>
      <use xlink:href="#DejaVuSans-73" transform="translate(349.255859 0)"/>
      <use xlink:href="#DejaVuSans-65" transform="translate(401.355469 0)"/>
      <use xlink:href="#DejaVuSans-64" transform="translate(462.878906 0)"/>
     </g>
    </g>
   </g>
  </g>
 </g>
 <defs>
  <clipPath id="p0fa2f1b21e">
   <rect x="85.491277" y="24.33885" width="454.406159" height="267.43155"/>
  </clipPath>
 </defs>
</svg>
