<?xml version="1.0" encoding="utf-8" standalone="no"?>
<!DOCTYPE svg PUBLIC "-//W3C//DTD SVG 1.1//EN"
  "http://www.w3.org/Graphics/SVG/1.1/DTD/svg11.dtd">
<svg xmlns:xlink="http://www.w3.org/1999/xlink" width="564.606pt" height="360pt" viewBox="0 0 564.606 360" xmlns="http://www.w3.org/2000/svg" version="1.1">
 <metadata>
  <rdf:RDF xmlns:dc="http://purl.org/dc/elements/1.1/" xmlns:cc="http://creativecommons.org/ns#" xmlns:rdf="http://www.w3.org/1999/02/22-rdf-syntax-ns#">
   <cc:Work>
    <dc:type rdf:resource="http://purl.org/dc/dcmitype/StillImage"/>
    <dc:date>2026-04-12T21:41:44.302140</dc:date>
    <dc:format>image/svg+xml</dc:format>
    <dc:creator>
     <cc:Agent>
      <dc:title>Matplotlib v3.10.8, https://matplotlib.org/</dc:title>
     </cc:Agent>
    </dc:creator>
   </cc:Work>
  </rdf:RDF>
 </metadata>
 <defs>
  <style type="text/css">*{stroke-linejoin: round; stroke-linecap: butt}</style>
 </defs>
 <g id="figure_1">
  <g id="patch_1">
   <path d="M 0 360 
L 564.606 360 
L 564.606 0 
L 0 0 
z
" style="fill: #ffffff"/>
  </g>
  <g id="axes_1">
   <g id="patch_2">
    <path d="M 85.491277 291.7704 
L 546.9804 291.7704 
L 546.9804 17.6256 
L 85.491277 17.6256 
z
" style="fill: #ffffff"/>
   </g>
   <g id="matplotlib.axis_1">
    <g id="xtick_1">
     <g id="line2d_1">
      <path d="M 106.468055 291.7704 
L 106.468055 17.6256 
" clip-path="url(#pb116f7da86)" style="fill: none; stroke: #cccccc; stroke-width: 0.8; stroke-linecap: round"/>
     </g>
     <g id="text_1">
      <!-- $\mathdefault{10^{3}}$ -->
      <g style="fill: #262626" transform="translate(93.303255 311.437662) scale(0.1496 -0.1496)">
       <defs>
        <path id="DejaVuSans-31" d="M 794 531 
L 1825 531 
L 1825 4091 
L 703 3866 
L 703 4441 
L 1819 4666 
L 2450 4666 
L 2450 531 
L 3481 531 
L 3481 0 
L 794 0 
L 794 531 
z
" transform="scale(0.015625)"/>
        <path id="DejaVuSans-30" d="M 2034 4250 
Q 1547 4250 1301 3770 
Q 1056 3291 1056 2328 
Q 1056 1369 1301 889 
Q 1547 409 2034 409 
Q 2525 409 2770 889 
Q 3016 1369 3016 2328 
Q 3016 3291 2770 3770 
Q 2525 4250 2034 4250 
z
M 2034 4750 
Q 2819 4750 3233 4129 
Q 3647 3509 3647 2328 
Q 3647 1150 3233 529 
Q 2819 -91 2034 -91 
Q 1250 -91 836 529 
Q 422 1150 422 2328 
Q 422 3509 836 4129 
Q 1250 4750 2034 4750 
z
" transform="scale(0.015625)"/>
        <path id="DejaVuSans-33" d="M 2597 2516 
Q 3050 2419 3304 2112 
Q 3559 1806 3559 1356 
Q 3559 666 3084 287 
Q 2609 -91 1734 -91 
Q 1441 -91 1130 -33 
Q 819 25 488 141 
L 488 750 
Q 750 597 1062 519 
Q 1375 441 1716 441 
Q 2309 441 2620 675 
Q 2931 909 2931 1356 
Q 2931 1769 2642 2001 
Q 2353 2234 1838 2234 
L 1294 2234 
L 1294 2753 
L 1863 2753 
Q 2328 2753 2575 2939 
Q 2822 3125 2822 3475 
Q 2822 3834 2567 4026 
Q 2313 4219 1838 4219 
Q 1578 4219 1281 4162 
Q 984 4106 628 3988 
L 628 4550 
Q 988 4650 1302 4700 
Q 1616 4750 1894 4750 
Q 2613 4750 3031 4423 
Q 3450 4097 3450 3541 
Q 3450 3153 3228 2886 
Q 3006 2619 2597 2516 
z
" transform="scale(0.015625)"/>
       </defs>
       <use xlink:href="#DejaVuSans-31" transform="translate(0 0.765625)"/>
       <use xlink:href="#DejaVuSans-30" transform="translate(63.623047 0.765625)"/>
       <use xlink:href="#DejaVuSans-33" transform="translate(128.203125 39.046875) scale(0.7)"/>
      </g>
     </g>
    </g>
    <g id="xtick_2">
     <g id="line2d_2">
      <path d="M 213.956114 291.7704 
L 213.956114 17.6256 
" clip-path="url(#pb116f7da86)" style="fill: none; stroke: #cccccc; stroke-width: 0.8; stroke-linecap: round"/>
     </g>
     <g id="text_2">
      <!-- $\mathdefault{10^{4}}$ -->
      <g style="fill: #262626" transform="translate(200.791314 311.437662) scale(0.1496 -0.1496)">
       <defs>
        <path id="DejaVuSans-34" d="M 2419 4116 
L 825 1625 
L 2419 1625 
L 2419 4116 
z
M 2253 4666 
L 3047 4666 
L 3047 1625 
L 3713 1625 
L 3713 1100 
L 3047 1100 
L 3047 0 
L 2419 0 
L 2419 1100 
L 313 1100 
L 313 1709 
L 2253 4666 
z
" transform="scale(0.015625)"/>
       </defs>
       <use xlink:href="#DejaVuSans-31" transform="translate(0 0.684375)"/>
       <use xlink:href="#DejaVuSans-30" transform="translate(63.623047 0.684375)"/>
       <use xlink:href="#DejaVuSans-34" transform="translate(128.203125 38.965625) scale(0.7)"/>
      </g>
     </g>
    </g>
    <g id="xtick_3">
     <g id="line2d_3">
      <path d="M 321.444173 291.7704 
L 321.444173 17.6256 
" clip-path="url(#pb116f7da86)" style="fill: none; stroke: #cccccc; stroke-width: 0.8; stroke-linecap: round"/>
     </g>
     <g id="text_3">
      <!-- $\mathdefault{10^{5}}$ -->
      <g style="fill: #262626" transform="translate(308.279373 311.437662) scale(0.1496 -0.1496)">
       <defs>
        <path id="DejaVuSans-35" d="M 691 4666 
L 3169 4666 
L 3169 4134 
L 1269 4134 
L 1269 2991 
Q 1406 3038 1543 3061 
Q 1681 3084 1819 3084 
Q 2600 3084 3056 2656 
Q 3513 2228 3513 1497 
Q 3513 744 3044 326 
Q 2575 -91 1722 -91 
Q 1428 -91 1123 -41 
Q 819 9 494 109 
L 494 744 
Q 775 591 1075 516 
Q 1375 441 1709 441 
Q 2250 441 2565 725 
Q 2881 1009 2881 1497 
Q 2881 1984 2565 2268 
Q 2250 2553 1709 2553 
Q 1456 2553 1204 2497 
Q 953 2441 691 2322 
L 691 4666 
z
" transform="scale(0.015625)"/>
       </defs>
       <use xlink:href="#DejaVuSans-31" transform="translate(0 0.684375)"/>
       <use xlink:href="#DejaVuSans-30" transform="translate(63.623047 0.684375)"/>
       <use xlink:href="#DejaVuSans-35" transform="translate(128.203125 38.965625) scale(0.7)"/>
      </g>
     </g>
    </g>
    <g id="xtick_4">
     <g id="line2d_4">
      <path d="M 428.932232 291.7704 
L 428.932232 17.6256 
" clip-path="url(#pb116f7da86)" style="fill: none; stroke: #cccccc; stroke-width: 0.8; stroke-linecap: round"/>
     </g>
     <g id="text_4">
      <!-- $\mathdefault{10^{6}}$ -->
      <g style="fill: #262626" transform="translate(415.767432 311.437662) scale(0.1496 -0.1496)">
       <defs>
        <path id="DejaVuSans-36" d="M 2113 2584 
Q 1688 2584 1439 2293 
Q 1191 2003 1191 1497 
Q 1191 994 1439 701 
Q 1688 409 2113 409 
Q 2538 409 2786 701 
Q 3034 994 3034 1497 
Q 3034 2003 2786 2293 
Q 2538 2584 2113 2584 
z
M 3366 4563 
L 3366 3988 
Q 3128 4100 2886 4159 
Q 2644 4219 2406 4219 
Q 1781 4219 1451 3797 
Q 1122 3375 1075 2522 
Q 1259 2794 1537 2939 
Q 1816 3084 2150 3084 
Q 2853 3084 3261 2657 
Q 3669 2231 3669 1497 
Q 3669 778 3244 343 
Q 2819 -91 2113 -91 
Q 1303 -91 875 529 
Q 447 1150 447 2328 
Q 447 3434 972 4092 
Q 1497 4750 2381 4750 
Q 2619 4750 2861 4703 
Q 3103 4656 3366 4563 
z
" transform="scale(0.015625)"/>
       </defs>
       <use xlink:href="#DejaVuSans-31" transform="translate(0 0.765625)"/>
       <use xlink:href="#DejaVuSans-30" transform="translate(63.623047 0.765625)"/>
       <use xlink:href="#DejaVuSans-36" transform="translate(128.203125 39.046875) scale(0.7)"/>
      </g>
     </g>
    </g>
    <g id="xtick_5">
     <g id="line2d_5">
      <path d="M 536.420291 291.7704 
L 536.420291 17.6256 
" clip-path="url(#pb116f7da86)" style="fill: none; stroke: #cccccc; stroke-width: 0.8; stroke-linecap: round"/>
     </g>
     <g id="text_5">
      <!-- $\mathdefault{10^{7}}$ -->
      <g style="fill: #262626" transform="translate(523.255491 311.437662) scale(0.1496 -0.1496)">
       <defs>
        <path id="DejaVuSans-37" d="M 525 4666 
L 3525 4666 
L 3525 4397 
L 1831 0 
L 1172 0 
L 2766 4134 
L 525 4134 
L 525 4666 
z
" transform="scale(0.015625)"/>
       </defs>
       <use xlink:href="#DejaVuSans-31" transform="translate(0 0.684375)"/>
       <use xlink:href="#DejaVuSans-30" transform="translate(63.623047 0.684375)"/>
       <use xlink:href="#DejaVuSans-37" transform="translate(128.203125 38.965625) scale(0.7)"/>
      </g>
     </g>
    </g>
    <g id="xtick_6"/>
    <g id="xtick_7"/>
    <g id="xtick_8"/>
    <g id="xtick_9"/>
    <g id="xtick_10"/>
    <g id="xtick_11"/>
    <g id="xtick_12"/>
    <g id="xtick_13"/>
    <g id="xtick_14"/>
    <g id="xtick_15"/>
    <g id="xtick_16"/>
    <g id="xtick_17"/>
    <g id="xtick_18"/>
    <g id="xtick_19"/>
    <g id="xtick_20"/>
    <g id="xtick_21"/>
    <g id="xtick_22"/>
    <g id="xtick_23"/>
    <g id="xtick_24"/>
    <g id="xtick_25"/>
    <g id="xtick_26"/>
    <g id="xtick_27"/>
    <g id="xtick_28"/>
    <g id="xtick_29"/>
    <g id="xtick_30"/>
    <g id="xtick_31"/>
    <g id="xtick_32"/>
    <g id="xtick_33"/>
    <g id="xtick_34"/>
    <g id="xtick_35"/>
    <g id="xtick_36"/>
    <g id="xtick_37"/>
    <g id="xtick_38"/>
    <g id="xtick_39"/>
    <g id="xtick_40"/>
    <g id="text_6">
     <!-- #Cells -->
     <g style="fill: #262626" transform="translate(283.954588 333.74575) scale(0.2 -0.2)">
      <defs>
       <path id="DejaVuSans-23" d="M 3272 2816 
L 2363 2816 
L 2100 1772 
L 3016 1772 
L 3272 2816 
z
M 2803 4594 
L 2478 3297 
L 3391 3297 
L 3719 4594 
L 4219 4594 
L 3897 3297 
L 4872 3297 
L 4872 2816 
L 3775 2816 
L 3519 1772 
L 4513 1772 
L 4513 1294 
L 3397 1294 
L 3072 0 
L 2572 0 
L 2894 1294 
L 1978 1294 
L 1656 0 
L 1153 0 
L 1478 1294 
L 494 1294 
L 494 1772 
L 1594 1772 
L 1856 2816 
L 850 2816 
L 850 3297 
L 1978 3297 
L 2297 4594 
L 2803 4594 
z
" transform="scale(0.015625)"/>
       <path id="DejaVuSans-43" d="M 4122 4306 
L 4122 3641 
Q 3803 3938 3442 4084 
Q 3081 4231 2675 4231 
Q 1875 4231 1450 3742 
Q 1025 3253 1025 2328 
Q 1025 1406 1450 917 
Q 1875 428 2675 428 
Q 3081 428 3442 575 
Q 3803 722 4122 1019 
L 4122 359 
Q 3791 134 3420 21 
Q 3050 -91 2638 -91 
Q 1578 -91 968 557 
Q 359 1206 359 2328 
Q 359 3453 968 4101 
Q 1578 4750 2638 4750 
Q 3056 4750 3426 4639 
Q 3797 4528 4122 4306 
z
" transform="scale(0.015625)"/>
       <path id="DejaVuSans-65" d="M 3597 1894 
L 3597 1613 
L 953 1613 
Q 991 1019 1311 708 
Q 1631 397 2203 397 
Q 2534 397 2845 478 
Q 3156 559 3463 722 
L 3463 178 
Q 3153 47 2828 -22 
Q 2503 -91 2169 -91 
Q 1331 -91 842 396 
Q 353 884 353 1716 
Q 353 2575 817 3079 
Q 1281 3584 2069 3584 
Q 2775 3584 3186 3129 
Q 3597 2675 3597 1894 
z
M 3022 2063 
Q 3016 2534 2758 2815 
Q 2500 3097 2075 3097 
Q 1594 3097 1305 2825 
Q 1016 2553 972 2059 
L 3022 2063 
z
" transform="scale(0.015625)"/>
       <path id="DejaVuSans-6c" d="M 603 4863 
L 1178 4863 
L 1178 0 
L 603 0 
L 603 4863 
z
" transform="scale(0.015625)"/>
       <path id="DejaVuSans-73" d="M 2834 3397 
L 2834 2853 
Q 2591 2978 2328 3040 
Q 2066 3103 1784 3103 
Q 1356 3103 1142 2972 
Q 928 2841 928 2578 
Q 928 2378 1081 2264 
Q 1234 2150 1697 2047 
L 1894 2003 
Q 2506 1872 2764 1633 
Q 3022 1394 3022 966 
Q 3022 478 2636 193 
Q 2250 -91 1575 -91 
Q 1294 -91 989 -36 
Q 684 19 347 128 
L 347 722 
Q 666 556 975 473 
Q 1284 391 1588 391 
Q 1994 391 2212 530 
Q 2431 669 2431 922 
Q 2431 1156 2273 1281 
Q 2116 1406 1581 1522 
L 1381 1569 
Q 847 1681 609 1914 
Q 372 2147 372 2553 
Q 372 3047 722 3315 
Q 1072 3584 1716 3584 
Q 2034 3584 2315 3537 
Q 2597 3491 2834 3397 
z
" transform="scale(0.015625)"/>
      </defs>
      <use xlink:href="#DejaVuSans-23"/>
      <use xlink:href="#DejaVuSans-43" transform="translate(83.789062 0)"/>
      <use xlink:href="#DejaVuSans-65" transform="translate(153.613281 0)"/>
      <use xlink:href="#DejaVuSans-6c" transform="translate(215.136719 0)"/>
      <use xlink:href="#DejaVuSans-6c" transform="translate(242.919922 0)"/>
      <use xlink:href="#DejaVuSans-73" transform="translate(270.703125 0)"/>
     </g>
    </g>
   </g>
   <g id="matplotlib.axis_2">
    <g id="ytick_1">
     <g id="line2d_6">
      <path d="M 85.491277 244.538614 
L 546.9804 244.538614 
" clip-path="url(#pb116f7da86)" style="fill: none; stroke: #cccccc; stroke-width: 0.8; stroke-linecap: round"/>
     </g>
     <g id="text_7">
      <!-- $\mathdefault{10^{-5}}$ -->
      <g style="fill: #262626" transform="translate(42.035277 250.222245) scale(0.1496 -0.1496)">
       <defs>
        <path id="DejaVuSans-2212" d="M 678 2272 
L 4684 2272 
L 4684 1741 
L 678 1741 
L 678 2272 
z
" transform="scale(0.015625)"/>
       </defs>
       <use xlink:href="#DejaVuSans-31" transform="translate(0 0.684375)"/>
       <use xlink:href="#DejaVuSans-30" transform="translate(63.623047 0.684375)"/>
       <use xlink:href="#DejaVuSans-2212" transform="translate(128.203125 38.965625) scale(0.7)"/>
       <use xlink:href="#DejaVuSans-35" transform="translate(186.855469 38.965625) scale(0.7)"/>
      </g>
     </g>
    </g>
    <g id="ytick_2">
     <g id="line2d_7">
      <path d="M 85.491277 77.076952 
L 546.9804 77.076952 
" clip-path="url(#pb116f7da86)" style="fill: none; stroke: #cccccc; stroke-width: 0.8; stroke-linecap: round"/>
     </g>
     <g id="text_8">
      <!-- $\mathdefault{10^{-4}}$ -->
      <g style="fill: #262626" transform="translate(42.035277 82.760584) scale(0.1496 -0.1496)">
       <use xlink:href="#DejaVuSans-31" transform="translate(0 0.684375)"/>
       <use xlink:href="#DejaVuSans-30" transform="translate(63.623047 0.684375)"/>
       <use xlink:href="#DejaVuSans-2212" transform="translate(128.203125 38.965625) scale(0.7)"/>
       <use xlink:href="#DejaVuSans-34" transform="translate(186.855469 38.965625) scale(0.7)"/>
      </g>
     </g>
    </g>
    <g id="ytick_3"/>
    <g id="ytick_4"/>
    <g id="ytick_5"/>
    <g id="ytick_6"/>
    <g id="ytick_7"/>
    <g id="ytick_8"/>
    <g id="ytick_9"/>
    <g id="ytick_10"/>
    <g id="ytick_11"/>
    <g id="ytick_12"/>
    <g id="ytick_13"/>
    <g id="ytick_14"/>
    <g id="ytick_15"/>
    <g id="text_9">
     <!-- Assembly Time per Cell (ms) -->
     <g style="fill: #262626" transform="translate(33.875902 298.133938) rotate(-90) scale(0.2 -0.2)">
      <defs>
       <path id="DejaVuSans-41" d="M 2188 4044 
L 1331 1722 
L 3047 1722 
L 2188 4044 
z
M 1831 4666 
L 2547 4666 
L 4325 0 
L 3669 0 
L 3244 1197 
L 1141 1197 
L 716 0 
L 50 0 
L 1831 4666 
z
" transform="scale(0.015625)"/>
       <path id="DejaVuSans-6d" d="M 3328 2828 
Q 3544 3216 3844 3400 
Q 4144 3584 4550 3584 
Q 5097 3584 5394 3201 
Q 5691 2819 5691 2113 
L 5691 0 
L 5113 0 
L 5113 2094 
Q 5113 2597 4934 2840 
Q 4756 3084 4391 3084 
Q 3944 3084 3684 2787 
Q 3425 2491 3425 1978 
L 3425 0 
L 2847 0 
L 2847 2094 
Q 2847 2600 2669 2842 
Q 2491 3084 2119 3084 
Q 1678 3084 1418 2786 
Q 1159 2488 1159 1978 
L 1159 0 
L 581 0 
L 581 3500 
L 1159 3500 
L 1159 2956 
Q 1356 3278 1631 3431 
Q 1906 3584 2284 3584 
Q 2666 3584 2933 3390 
Q 3200 3197 3328 2828 
z
" transform="scale(0.015625)"/>
       <path id="DejaVuSans-62" d="M 3116 1747 
Q 3116 2381 2855 2742 
Q 2594 3103 2138 3103 
Q 1681 3103 1420 2742 
Q 1159 2381 1159 1747 
Q 1159 1113 1420 752 
Q 1681 391 2138 391 
Q 2594 391 2855 752 
Q 3116 1113 3116 1747 
z
M 1159 2969 
Q 1341 3281 1617 3432 
Q 1894 3584 2278 3584 
Q 2916 3584 3314 3078 
Q 3713 2572 3713 1747 
Q 3713 922 3314 415 
Q 2916 -91 2278 -91 
Q 1894 -91 1617 61 
Q 1341 213 1159 525 
L 1159 0 
L 581 0 
L 581 4863 
L 1159 4863 
L 1159 2969 
z
" transform="scale(0.015625)"/>
       <path id="DejaVuSans-79" d="M 2059 -325 
Q 1816 -950 1584 -1140 
Q 1353 -1331 966 -1331 
L 506 -1331 
L 506 -850 
L 844 -850 
Q 1081 -850 1212 -737 
Q 1344 -625 1503 -206 
L 1606 56 
L 191 3500 
L 800 3500 
L 1894 763 
L 2988 3500 
L 3597 3500 
L 2059 -325 
z
" transform="scale(0.015625)"/>
       <path id="DejaVuSans-20" transform="scale(0.015625)"/>
       <path id="DejaVuSans-54" d="M -19 4666 
L 3928 4666 
L 3928 4134 
L 2272 4134 
L 2272 0 
L 1638 0 
L 1638 4134 
L -19 4134 
L -19 4666 
z
" transform="scale(0.015625)"/>
       <path id="DejaVuSans-69" d="M 603 3500 
L 1178 3500 
L 1178 0 
L 603 0 
L 603 3500 
z
M 603 4863 
L 1178 4863 
L 1178 4134 
L 603 4134 
L 603 4863 
z
" transform="scale(0.015625)"/>
       <path id="DejaVuSans-70" d="M 1159 525 
L 1159 -1331 
L 581 -1331 
L 581 3500 
L 1159 3500 
L 1159 2969 
Q 1341 3281 1617 3432 
Q 1894 3584 2278 3584 
Q 2916 3584 3314 3078 
Q 3713 2572 3713 1747 
Q 3713 922 3314 415 
Q 2916 -91 2278 -91 
Q 1894 -91 1617 61 
Q 1341 213 1159 525 
z
M 3116 1747 
Q 3116 2381 2855 2742 
Q 2594 3103 2138 3103 
Q 1681 3103 1420 2742 
Q 1159 2381 1159 1747 
Q 1159 1113 1420 752 
Q 1681 391 2138 391 
Q 2594 391 2855 752 
Q 3116 1113 3116 1747 
z
" transform="scale(0.015625)"/>
       <path id="DejaVuSans-72" d="M 2631 2963 
Q 2534 3019 2420 3045 
Q 2306 3072 2169 3072 
Q 1681 3072 1420 2755 
Q 1159 2438 1159 1844 
L 1159 0 
L 581 0 
L 581 3500 
L 1159 3500 
L 1159 2956 
Q 1341 3275 1631 3429 
Q 1922 3584 2338 3584 
Q 2397 3584 2469 3576 
Q 2541 3569 2628 3553 
L 2631 2963 
z
" transform="scale(0.015625)"/>
       <path id="DejaVuSans-28" d="M 1984 4856 
Q 1566 4138 1362 3434 
Q 1159 2731 1159 2009 
Q 1159 1288 1364 580 
Q 1569 -128 1984 -844 
L 1484 -844 
Q 1016 -109 783 600 
Q 550 1309 550 2009 
Q 550 2706 781 3412 
Q 1013 4119 1484 4856 
L 1984 4856 
z
" transform="scale(0.015625)"/>
       <path id="DejaVuSans-29" d="M 513 4856 
L 1013 4856 
Q 1481 4119 1714 3412 
Q 1947 2706 1947 2009 
Q 1947 1309 1714 600 
Q 1481 -109 1013 -844 
L 513 -844 
Q 928 -128 1133 580 
Q 1338 1288 1338 2009 
Q 1338 2731 1133 3434 
Q 928 4138 513 4856 
z
" transform="scale(0.015625)"/>
      </defs>
      <use xlink:href="#DejaVuSans-41"/>
      <use xlink:href="#DejaVuSans-73" transform="translate(68.408203 0)"/>
      <use xlink:href="#DejaVuSans-73" transform="translate(120.507812 0)"/>
      <use xlink:href="#DejaVuSans-65" transform="translate(172.607422 0)"/>
      <use xlink:href="#DejaVuSans-6d" transform="translate(234.130859 0)"/>
      <use xlink:href="#DejaVuSans-62" transform="translate(331.542969 0)"/>
      <use xlink:href="#DejaVuSans-6c" transform="translate(395.019531 0)"/>
      <use xlink:href="#DejaVuSans-79" transform="translate(422.802734 0)"/>
      <use xlink:href="#DejaVuSans-20" transform="translate(481.982422 0)"/>
      <use xlink:href="#DejaVuSans-54" transform="translate(513.769531 0)"/>
      <use xlink:href="#DejaVuSans-69" transform="translate(571.728516 0)"/>
      <use xlink:href="#DejaVuSans-6d" transform="translate(599.511719 0)"/>
      <use xlink:href="#DejaVuSans-65" transform="translate(696.923828 0)"/>
      <use xlink:href="#DejaVuSans-20" transform="translate(758.447266 0)"/>
      <use xlink:href="#DejaVuSans-70" transform="translate(790.234375 0)"/>
      <use xlink:href="#DejaVuSans-65" transform="translate(853.710938 0)"/>
      <use xlink:href="#DejaVuSans-72" transform="translate(915.234375 0)"/>
      <use xlink:href="#DejaVuSans-20" transform="translate(956.347656 0)"/>
      <use xlink:href="#DejaVuSans-43" transform="translate(988.134766 0)"/>
      <use xlink:href="#DejaVuSans-65" transform="translate(1057.958984 0)"/>
      <use xlink:href="#DejaVuSans-6c" transform="translate(1119.482422 0)"/>
      <use xlink:href="#DejaVuSans-6c" transform="translate(1147.265625 0)"/>
      <use xlink:href="#DejaVuSans-20" transform="translate(1175.048828 0)"/>
      <use xlink:href="#DejaVuSans-28" transform="translate(1206.835938 0)"/>
      <use xlink:href="#DejaVuSans-6d" transform="translate(1245.849609 0)"/>
      <use xlink:href="#DejaVuSans-73" transform="translate(1343.261719 0)"/>
      <use xlink:href="#DejaVuSans-29" transform="translate(1395.361328 0)"/>
     </g>
    </g>
   </g>
   <g id="PathCollection_1">
    <path d="M 397.682224 261.904523 
C 398.709351 261.904523 399.694548 261.496441 400.420837 260.770153 
C 401.147126 260.043864 401.555208 259.058667 401.555208 258.03154 
C 401.555208 257.004413 401.147126 256.019216 400.420837 255.292927 
C 399.694548 254.566639 398.709351 254.158557 397.682224 254.158557 
C 396.655097 254.158557 395.6699 254.566639 394.943611 255.292927 
C 394.217323 256.019216 393.809241 257.004413 393.809241 258.03154 
C 393.809241 259.058667 394.217323 260.043864 394.943611 260.770153 
C 395.6699 261.496441 396.655097 261.904523 397.682224 261.904523 
z
" clip-path="url(#pb116f7da86)" style="fill: #4c72b0; stroke: #ffffff; stroke-width: 0.619677"/>
    <path d="M 395.745733 271.65134 
L 397.682224 269.714848 
L 399.618716 271.65134 
L 401.555208 269.714848 
L 399.618716 267.778356 
L 401.555208 265.841865 
L 399.618716 263.905373 
L 397.682224 265.841865 
L 395.745733 263.905373 
L 393.809241 265.841865 
L 395.745733 267.778356 
L 393.809241 269.714848 
z
" clip-path="url(#pb116f7da86)" style="fill: #dd8452; stroke: #ffffff; stroke-width: 0.619677"/>
    <path d="M 394.943611 181.562088 
L 394.943611 187.039314 
L 400.420837 187.039314 
L 400.420837 181.562088 
z
" clip-path="url(#pb116f7da86)" style="fill: #55a868; stroke: #ffffff; stroke-width: 0.619677"/>
    <path d="M 396.39123 228.666072 
L 398.973219 228.666072 
L 398.973219 226.084083 
L 401.555208 226.084083 
L 401.555208 223.502094 
L 398.973219 223.502094 
L 398.973219 220.920106 
L 396.39123 220.920106 
L 396.39123 223.502094 
L 393.809241 223.502094 
L 393.809241 226.084083 
L 396.39123 226.084083 
z
" clip-path="url(#pb116f7da86)" style="fill: #c44e52; stroke: #ffffff; stroke-width: 0.619677"/>
    <path d="M 331.860842 268.584786 
C 332.887969 268.584786 333.873166 268.176704 334.599455 267.450415 
C 335.325743 266.724127 335.733825 265.73893 335.733825 264.711803 
C 335.733825 263.684675 335.325743 262.699478 334.599455 261.97319 
C 333.873166 261.246901 332.887969 260.838819 331.860842 260.838819 
C 330.833715 260.838819 329.848518 261.246901 329.122229 261.97319 
C 328.395941 262.699478 327.987859 263.684675 327.987859 264.711803 
C 327.987859 265.73893 328.395941 266.724127 329.122229 267.450415 
C 329.848518 268.176704 330.833715 268.584786 331.860842 268.584786 
z
" clip-path="url(#pb116f7da86)" style="fill: #4c72b0; stroke: #ffffff; stroke-width: 0.619677"/>
    <path d="M 329.92435 280.783378 
L 331.860842 278.846887 
L 333.797334 280.783378 
L 335.733825 278.846887 
L 333.797334 276.910395 
L 335.733825 274.973903 
L 333.797334 273.037412 
L 331.860842 274.973903 
L 329.92435 273.037412 
L 327.987859 274.973903 
L 329.92435 276.910395 
L 327.987859 278.846887 
z
" clip-path="url(#pb116f7da86)" style="fill: #dd8452; stroke: #ffffff; stroke-width: 0.619677"/>
    <path d="M 329.122229 245.894698 
L 329.122229 251.371923 
L 334.599455 251.371923 
L 334.599455 245.894698 
z
" clip-path="url(#pb116f7da86)" style="fill: #55a868; stroke: #ffffff; stroke-width: 0.619677"/>
    <path d="M 330.569848 235.408618 
L 333.151837 235.408618 
L 333.151837 232.826629 
L 335.733825 232.826629 
L 335.733825 230.24464 
L 333.151837 230.24464 
L 333.151837 227.662651 
L 330.569848 227.662651 
L 330.569848 230.24464 
L 327.987859 230.24464 
L 327.987859 232.826629 
L 330.569848 232.826629 
z
" clip-path="url(#pb116f7da86)" style="fill: #c44e52; stroke: #ffffff; stroke-width: 0.619677"/>
    <path d="M 203.539445 222.08164 
C 204.566572 222.08164 205.551769 221.673558 206.278057 220.947269 
C 207.004346 220.220981 207.412428 219.235784 207.412428 218.208657 
C 207.412428 217.181529 207.004346 216.196332 206.278057 215.470044 
C 205.551769 214.743755 204.566572 214.335673 203.539445 214.335673 
C 202.512318 214.335673 201.527121 214.743755 200.800832 215.470044 
C 200.074543 216.196332 199.666461 217.181529 199.666461 218.208657 
C 199.666461 219.235784 200.074543 220.220981 200.800832 220.947269 
C 201.527121 221.673558 202.512318 222.08164 203.539445 222.08164 
z
" clip-path="url(#pb116f7da86)" style="fill: #4c72b0; stroke: #ffffff; stroke-width: 0.619677"/>
    <path d="M 201.602953 250.402992 
L 203.539445 248.4665 
L 205.475936 250.402992 
L 207.412428 248.4665 
L 205.475936 246.530008 
L 207.412428 244.593517 
L 205.475936 242.657025 
L 203.539445 244.593517 
L 201.602953 242.657025 
L 199.666461 244.593517 
L 201.602953 246.530008 
L 199.666461 248.4665 
z
" clip-path="url(#pb116f7da86)" style="fill: #dd8452; stroke: #ffffff; stroke-width: 0.619677"/>
    <path d="M 200.800832 164.814803 
L 200.800832 170.292029 
L 206.278057 170.292029 
L 206.278057 164.814803 
z
" clip-path="url(#pb116f7da86)" style="fill: #55a868; stroke: #ffffff; stroke-width: 0.619677"/>
    <path d="M 202.24845 248.825535 
L 204.830439 248.825535 
L 204.830439 246.243547 
L 207.412428 246.243547 
L 207.412428 243.661558 
L 204.830439 243.661558 
L 204.830439 241.079569 
L 202.24845 241.079569 
L 202.24845 243.661558 
L 199.666461 243.661558 
L 199.666461 246.243547 
L 202.24845 246.243547 
z
" clip-path="url(#pb116f7da86)" style="fill: #c44e52; stroke: #ffffff; stroke-width: 0.619677"/>
    <path d="M 106.468055 123.1334 
C 107.495182 123.1334 108.480379 122.725318 109.206668 121.99903 
C 109.932956 121.272741 110.341038 120.287544 110.341038 119.260417 
C 110.341038 118.23329 109.932956 117.248093 109.206668 116.521804 
C 108.480379 115.795515 107.495182 115.387433 106.468055 115.387433 
C 105.440928 115.387433 104.455731 115.795515 103.729442 116.521804 
C 103.003154 117.248093 102.595072 118.23329 102.595072 119.260417 
C 102.595072 120.287544 103.003154 121.272741 103.729442 121.99903 
C 104.455731 122.725318 105.440928 123.1334 106.468055 123.1334 
z
" clip-path="url(#pb116f7da86)" style="fill: #4c72b0; stroke: #ffffff; stroke-width: 0.619677"/>
    <path d="M 104.531563 155.619222 
L 106.468055 153.68273 
L 108.404547 155.619222 
L 110.341038 153.68273 
L 108.404547 151.746238 
L 110.341038 149.809747 
L 108.404547 147.873255 
L 106.468055 149.809747 
L 104.531563 147.873255 
L 102.595072 149.809747 
L 104.531563 151.746238 
L 102.595072 153.68273 
z
" clip-path="url(#pb116f7da86)" style="fill: #dd8452; stroke: #ffffff; stroke-width: 0.619677"/>
    <path d="M 103.729442 27.348114 
L 103.729442 32.82534 
L 109.206668 32.82534 
L 109.206668 27.348114 
z
" clip-path="url(#pb116f7da86)" style="fill: #55a868; stroke: #ffffff; stroke-width: 0.619677"/>
    <path d="M 105.17706 167.764327 
L 107.759049 167.764327 
L 107.759049 165.182338 
L 110.341038 165.182338 
L 110.341038 162.600349 
L 107.759049 162.600349 
L 107.759049 160.018361 
L 105.17706 160.018361 
L 105.17706 162.600349 
L 102.595072 162.600349 
L 102.595072 165.182338 
L 105.17706 165.182338 
z
" clip-path="url(#pb116f7da86)" style="fill: #c44e52; stroke: #ffffff; stroke-width: 0.619677"/>
    <path d="M 260.322568 244.145791 
C 261.349695 244.145791 262.334892 243.737709 263.06118 243.01142 
C 263.787469 242.285132 264.195551 241.299935 264.195551 240.272807 
C 264.195551 239.24568 263.787469 238.260483 263.06118 237.534195 
C 262.334892 236.807906 261.349695 236.399824 260.322568 236.399824 
C 259.29544 236.399824 258.310243 236.807906 257.583955 237.534195 
C 256.857666 238.260483 256.449584 239.24568 256.449584 240.272807 
C 256.449584 241.299935 256.857666 242.285132 257.583955 243.01142 
C 258.310243 243.737709 259.29544 244.145791 260.322568 244.145791 
z
" clip-path="url(#pb116f7da86)" style="fill: #4c72b0; stroke: #ffffff; stroke-width: 0.619677"/>
    <path d="M 258.386076 266.942826 
L 260.322568 265.006334 
L 262.259059 266.942826 
L 264.195551 265.006334 
L 262.259059 263.069842 
L 264.195551 261.133351 
L 262.259059 259.196859 
L 260.322568 261.133351 
L 258.386076 259.196859 
L 256.449584 261.133351 
L 258.386076 263.069842 
L 256.449584 265.006334 
z
" clip-path="url(#pb116f7da86)" style="fill: #dd8452; stroke: #ffffff; stroke-width: 0.619677"/>
    <path d="M 257.583955 222.574661 
L 257.583955 228.051886 
L 263.06118 228.051886 
L 263.06118 222.574661 
z
" clip-path="url(#pb116f7da86)" style="fill: #55a868; stroke: #ffffff; stroke-width: 0.619677"/>
    <path d="M 259.031573 255.299672 
L 261.613562 255.299672 
L 261.613562 252.717683 
L 264.195551 252.717683 
L 264.195551 250.135695 
L 261.613562 250.135695 
L 261.613562 247.553706 
L 259.031573 247.553706 
L 259.031573 250.135695 
L 256.449584 250.135695 
L 256.449584 252.717683 
L 259.031573 252.717683 
z
" clip-path="url(#pb116f7da86)" style="fill: #c44e52; stroke: #ffffff; stroke-width: 0.619677"/>
    <path d="M 300.610834 253.599676 
C 301.637962 253.599676 302.623159 253.191595 303.349447 252.465306 
C 304.075736 251.739017 304.483818 250.75382 304.483818 249.726693 
C 304.483818 248.699566 304.075736 247.714369 303.349447 246.98808 
C 302.623159 246.261792 301.637962 245.85371 300.610834 245.85371 
C 299.583707 245.85371 298.59851 246.261792 297.872222 246.98808 
C 297.145933 247.714369 296.737851 248.699566 296.737851 249.726693 
C 296.737851 250.75382 297.145933 251.739017 297.872222 252.465306 
C 298.59851 253.191595 299.583707 253.599676 300.610834 253.599676 
z
" clip-path="url(#pb116f7da86)" style="fill: #4c72b0; stroke: #ffffff; stroke-width: 0.619677"/>
    <path d="M 298.674343 270.07085 
L 300.610834 268.134359 
L 302.547326 270.07085 
L 304.483818 268.134359 
L 302.547326 266.197867 
L 304.483818 264.261375 
L 302.547326 262.324884 
L 300.610834 264.261375 
L 298.674343 262.324884 
L 296.737851 264.261375 
L 298.674343 266.197867 
L 296.737851 268.134359 
z
" clip-path="url(#pb116f7da86)" style="fill: #dd8452; stroke: #ffffff; stroke-width: 0.619677"/>
    <path d="M 297.872222 238.736885 
L 297.872222 244.21411 
L 303.349447 244.21411 
L 303.349447 238.736885 
z
" clip-path="url(#pb116f7da86)" style="fill: #55a868; stroke: #ffffff; stroke-width: 0.619677"/>
    <path d="M 299.31984 261.352612 
L 301.901829 261.352612 
L 301.901829 258.770623 
L 304.483818 258.770623 
L 304.483818 256.188634 
L 301.901829 256.188634 
L 301.901829 253.606645 
L 299.31984 253.606645 
L 299.31984 256.188634 
L 296.737851 256.188634 
L 296.737851 258.770623 
L 299.31984 258.770623 
z
" clip-path="url(#pb116f7da86)" style="fill: #c44e52; stroke: #ffffff; stroke-width: 0.619677"/>
    <path d="M 357.393957 274.010017 
C 358.421085 274.010017 359.406282 273.601936 360.13257 272.875647 
C 360.858859 272.149358 361.266941 271.164161 361.266941 270.137034 
C 361.266941 269.109907 360.858859 268.12471 360.13257 267.398421 
C 359.406282 266.672133 358.421085 266.264051 357.393957 266.264051 
C 356.36683 266.264051 355.381633 266.672133 354.655345 267.398421 
C 353.929056 268.12471 353.520974 269.109907 353.520974 270.137034 
C 353.520974 271.164161 353.929056 272.149358 354.655345 272.875647 
C 355.381633 273.601936 356.36683 274.010017 357.393957 274.010017 
z
" clip-path="url(#pb116f7da86)" style="fill: #4c72b0; stroke: #ffffff; stroke-width: 0.619677"/>
    <path d="M 355.457466 283.182256 
L 357.393957 281.245764 
L 359.330449 283.182256 
L 361.266941 281.245764 
L 359.330449 279.309273 
L 361.266941 277.372781 
L 359.330449 275.436289 
L 357.393957 277.372781 
L 355.457466 275.436289 
L 353.520974 277.372781 
L 355.457466 279.309273 
L 353.520974 281.245764 
z
" clip-path="url(#pb116f7da86)" style="fill: #dd8452; stroke: #ffffff; stroke-width: 0.619677"/>
    <path d="M 354.655345 198.158324 
L 354.655345 203.63555 
L 360.13257 203.63555 
L 360.13257 198.158324 
z
" clip-path="url(#pb116f7da86)" style="fill: #55a868; stroke: #ffffff; stroke-width: 0.619677"/>
    <path d="M 356.102963 228.480695 
L 358.684952 228.480695 
L 358.684952 225.898706 
L 361.266941 225.898706 
L 361.266941 223.316717 
L 358.684952 223.316717 
L 358.684952 220.734728 
L 356.102963 220.734728 
L 356.102963 223.316717 
L 353.520974 223.316717 
L 353.520974 225.898706 
L 356.102963 225.898706 
z
" clip-path="url(#pb116f7da86)" style="fill: #c44e52; stroke: #ffffff; stroke-width: 0.619677"/>
    <path d="M 378.981899 267.735941 
C 380.009026 267.735941 380.994223 267.327859 381.720512 266.60157 
C 382.4468 265.875282 382.854882 264.890085 382.854882 263.862958 
C 382.854882 262.83583 382.4468 261.850633 381.720512 261.124345 
C 380.994223 260.398056 380.009026 259.989974 378.981899 259.989974 
C 377.954772 259.989974 376.969575 260.398056 376.243286 261.124345 
C 375.516997 261.850633 375.108915 262.83583 375.108915 263.862958 
C 375.108915 264.890085 375.516997 265.875282 376.243286 266.60157 
C 376.969575 267.327859 377.954772 267.735941 378.981899 267.735941 
z
" clip-path="url(#pb116f7da86)" style="fill: #4c72b0; stroke: #ffffff; stroke-width: 0.619677"/>
    <path d="M 377.045407 274.5397 
L 378.981899 272.603208 
L 380.918391 274.5397 
L 382.854882 272.603208 
L 380.918391 270.666717 
L 382.854882 268.730225 
L 380.918391 266.793733 
L 378.981899 268.730225 
L 377.045407 266.793733 
L 375.108915 268.730225 
L 377.045407 270.666717 
L 375.108915 272.603208 
z
" clip-path="url(#pb116f7da86)" style="fill: #dd8452; stroke: #ffffff; stroke-width: 0.619677"/>
    <path d="M 376.243286 187.68462 
L 376.243286 193.161845 
L 381.720512 193.161845 
L 381.720512 187.68462 
z
" clip-path="url(#pb116f7da86)" style="fill: #55a868; stroke: #ffffff; stroke-width: 0.619677"/>
    <path d="M 377.690904 229.204045 
L 380.272893 229.204045 
L 380.272893 226.622056 
L 382.854882 226.622056 
L 382.854882 224.040067 
L 380.272893 224.040067 
L 380.272893 221.458078 
L 377.690904 221.458078 
L 377.690904 224.040067 
L 375.108915 224.040067 
L 375.108915 226.622056 
L 377.690904 226.622056 
z
" clip-path="url(#pb116f7da86)" style="fill: #c44e52; stroke: #ffffff; stroke-width: 0.619677"/>
    <path d="M 414.17708 261.40102 
C 415.204208 261.40102 416.189405 260.992938 416.915693 260.266649 
C 417.641982 259.540361 418.050064 258.555164 418.050064 257.528037 
C 418.050064 256.500909 417.641982 255.515712 416.915693 254.789424 
C 416.189405 254.063135 415.204208 253.655053 414.17708 253.655053 
C 413.149953 253.655053 412.164756 254.063135 411.438468 254.789424 
C 410.712179 255.515712 410.304097 256.500909 410.304097 257.528037 
C 410.304097 258.555164 410.712179 259.540361 411.438468 260.266649 
C 412.164756 260.992938 413.149953 261.40102 414.17708 261.40102 
z
" clip-path="url(#pb116f7da86)" style="fill: #4c72b0; stroke: #ffffff; stroke-width: 0.619677"/>
    <path d="M 412.240589 271.622368 
L 414.17708 269.685876 
L 416.113572 271.622368 
L 418.050064 269.685876 
L 416.113572 267.749384 
L 418.050064 265.812893 
L 416.113572 263.876401 
L 414.17708 265.812893 
L 412.240589 263.876401 
L 410.304097 265.812893 
L 412.240589 267.749384 
L 410.304097 269.685876 
z
" clip-path="url(#pb116f7da86)" style="fill: #dd8452; stroke: #ffffff; stroke-width: 0.619677"/>
    <path d="M 411.438468 180.419924 
L 411.438468 185.89715 
L 416.915693 185.89715 
L 416.915693 180.419924 
z
" clip-path="url(#pb116f7da86)" style="fill: #55a868; stroke: #ffffff; stroke-width: 0.619677"/>
    <path d="M 412.886086 230.795833 
L 415.468075 230.795833 
L 415.468075 228.213844 
L 418.050064 228.213844 
L 418.050064 225.631855 
L 415.468075 225.631855 
L 415.468075 223.049866 
L 412.886086 223.049866 
L 412.886086 225.631855 
L 410.304097 225.631855 
L 410.304097 228.213844 
L 412.886086 228.213844 
z
" clip-path="url(#pb116f7da86)" style="fill: #c44e52; stroke: #ffffff; stroke-width: 0.619677"/>
    <path d="M 428.932232 266.227432 
C 429.959359 266.227432 430.944556 265.81935 431.670845 265.093062 
C 432.397133 264.366773 432.805215 263.381576 432.805215 262.354449 
C 432.805215 261.327322 432.397133 260.342125 431.670845 259.615836 
C 430.944556 258.889547 429.959359 258.481465 428.932232 258.481465 
C 427.905105 258.481465 426.919908 258.889547 426.193619 259.615836 
C 425.46733 260.342125 425.059249 261.327322 425.059249 262.354449 
C 425.059249 263.381576 425.46733 264.366773 426.193619 265.093062 
C 426.919908 265.81935 427.905105 266.227432 428.932232 266.227432 
z
" clip-path="url(#pb116f7da86)" style="fill: #4c72b0; stroke: #ffffff; stroke-width: 0.619677"/>
    <path d="M 426.99574 273.223026 
L 428.932232 271.286534 
L 430.868724 273.223026 
L 432.805215 271.286534 
L 430.868724 269.350043 
L 432.805215 267.413551 
L 430.868724 265.477059 
L 428.932232 267.413551 
L 426.99574 265.477059 
L 425.059249 267.413551 
L 426.99574 269.350043 
L 425.059249 271.286534 
z
" clip-path="url(#pb116f7da86)" style="fill: #dd8452; stroke: #ffffff; stroke-width: 0.619677"/>
    <path d="M 426.193619 179.093993 
L 426.193619 184.571218 
L 431.670845 184.571218 
L 431.670845 179.093993 
z
" clip-path="url(#pb116f7da86)" style="fill: #55a868; stroke: #ffffff; stroke-width: 0.619677"/>
    <path d="M 427.641237 228.149857 
L 430.223226 228.149857 
L 430.223226 225.567868 
L 432.805215 225.567868 
L 432.805215 222.985879 
L 430.223226 222.985879 
L 430.223226 220.40389 
L 427.641237 220.40389 
L 427.641237 222.985879 
L 425.059249 222.985879 
L 425.059249 225.567868 
L 427.641237 225.567868 
z
" clip-path="url(#pb116f7da86)" style="fill: #c44e52; stroke: #ffffff; stroke-width: 0.619677"/>
    <path d="M 454.465347 265.429226 
C 455.492474 265.429226 456.477671 265.021144 457.20396 264.294855 
C 457.930249 263.568567 458.338331 262.58337 458.338331 261.556243 
C 458.338331 260.529115 457.930249 259.543918 457.20396 258.81763 
C 456.477671 258.091341 455.492474 257.683259 454.465347 257.683259 
C 453.43822 257.683259 452.453023 258.091341 451.726734 258.81763 
C 451.000446 259.543918 450.592364 260.529115 450.592364 261.556243 
C 450.592364 262.58337 451.000446 263.568567 451.726734 264.294855 
C 452.453023 265.021144 453.43822 265.429226 454.465347 265.429226 
z
" clip-path="url(#pb116f7da86)" style="fill: #4c72b0; stroke: #ffffff; stroke-width: 0.619677"/>
    <path d="M 452.528856 273.035201 
L 454.465347 271.09871 
L 456.401839 273.035201 
L 458.338331 271.09871 
L 456.401839 269.162218 
L 458.338331 267.225726 
L 456.401839 265.289235 
L 454.465347 267.225726 
L 452.528856 265.289235 
L 450.592364 267.225726 
L 452.528856 269.162218 
L 450.592364 271.09871 
z
" clip-path="url(#pb116f7da86)" style="fill: #dd8452; stroke: #ffffff; stroke-width: 0.619677"/>
    <path d="M 451.726734 181.686754 
L 451.726734 187.16398 
L 457.20396 187.16398 
L 457.20396 181.686754 
z
" clip-path="url(#pb116f7da86)" style="fill: #55a868; stroke: #ffffff; stroke-width: 0.619677"/>
    <path d="M 453.174353 238.495334 
L 455.756342 238.495334 
L 455.756342 235.913345 
L 458.338331 235.913345 
L 458.338331 233.331356 
L 455.756342 233.331356 
L 455.756342 230.749367 
L 453.174353 230.749367 
L 453.174353 233.331356 
L 450.592364 233.331356 
L 450.592364 235.913345 
L 453.174353 235.913345 
z
" clip-path="url(#pb116f7da86)" style="fill: #c44e52; stroke: #ffffff; stroke-width: 0.619677"/>
    <path d="M 476.053289 268.174134 
C 477.080416 268.174134 478.065613 267.766052 478.791901 267.039764 
C 479.51819 266.313475 479.926272 265.328278 479.926272 264.301151 
C 479.926272 263.274024 479.51819 262.288827 478.791901 261.562538 
C 478.065613 260.83625 477.080416 260.428168 476.053289 260.428168 
C 475.026161 260.428168 474.040964 260.83625 473.314676 261.562538 
C 472.588387 262.288827 472.180305 263.274024 472.180305 264.301151 
C 472.180305 265.328278 472.588387 266.313475 473.314676 267.039764 
C 474.040964 267.766052 475.026161 268.174134 476.053289 268.174134 
z
" clip-path="url(#pb116f7da86)" style="fill: #4c72b0; stroke: #ffffff; stroke-width: 0.619677"/>
    <path d="M 474.116797 273.022637 
L 476.053289 271.086145 
L 477.98978 273.022637 
L 479.926272 271.086145 
L 477.98978 269.149654 
L 479.926272 267.213162 
L 477.98978 265.27667 
L 476.053289 267.213162 
L 474.116797 265.27667 
L 472.180305 267.213162 
L 474.116797 269.149654 
L 472.180305 271.086145 
z
" clip-path="url(#pb116f7da86)" style="fill: #dd8452; stroke: #ffffff; stroke-width: 0.619677"/>
    <path d="M 473.314676 182.048763 
L 473.314676 187.525989 
L 478.791901 187.525989 
L 478.791901 182.048763 
z
" clip-path="url(#pb116f7da86)" style="fill: #55a868; stroke: #ffffff; stroke-width: 0.619677"/>
    <path d="M 474.762294 235.549744 
L 477.344283 235.549744 
L 477.344283 232.967755 
L 479.926272 232.967755 
L 479.926272 230.385766 
L 477.344283 230.385766 
L 477.344283 227.803777 
L 474.762294 227.803777 
L 474.762294 230.385766 
L 472.180305 230.385766 
L 472.180305 232.967755 
L 474.762294 232.967755 
z
" clip-path="url(#pb116f7da86)" style="fill: #c44e52; stroke: #ffffff; stroke-width: 0.619677"/>
    <path d="M 494.753614 266.079751 
C 495.780741 266.079751 496.765938 265.671669 497.492227 264.945381 
C 498.218515 264.219092 498.626597 263.233895 498.626597 262.206768 
C 498.626597 261.179641 498.218515 260.194444 497.492227 259.468155 
C 496.765938 258.741867 495.780741 258.333785 494.753614 258.333785 
C 493.726487 258.333785 492.74129 258.741867 492.015001 259.468155 
C 491.288713 260.194444 490.880631 261.179641 490.880631 262.206768 
C 490.880631 263.233895 491.288713 264.219092 492.015001 264.945381 
C 492.74129 265.671669 493.726487 266.079751 494.753614 266.079751 
z
" clip-path="url(#pb116f7da86)" style="fill: #4c72b0; stroke: #ffffff; stroke-width: 0.619677"/>
    <path d="M 492.817122 267.779878 
L 494.753614 265.843387 
L 496.690106 267.779878 
L 498.626597 265.843387 
L 496.690106 263.906895 
L 498.626597 261.970403 
L 496.690106 260.033912 
L 494.753614 261.970403 
L 492.817122 260.033912 
L 490.880631 261.970403 
L 492.817122 263.906895 
L 490.880631 265.843387 
z
" clip-path="url(#pb116f7da86)" style="fill: #dd8452; stroke: #ffffff; stroke-width: 0.619677"/>
    <path d="M 492.015001 181.758782 
L 492.015001 187.236008 
L 497.492227 187.236008 
L 497.492227 181.758782 
z
" clip-path="url(#pb116f7da86)" style="fill: #55a868; stroke: #ffffff; stroke-width: 0.619677"/>
    <path d="M 493.46262 234.944844 
L 496.044609 234.944844 
L 496.044609 232.362855 
L 498.626597 232.362855 
L 498.626597 229.780866 
L 496.044609 229.780866 
L 496.044609 227.198877 
L 493.46262 227.198877 
L 493.46262 229.780866 
L 490.880631 229.780866 
L 490.880631 232.362855 
L 493.46262 232.362855 
z
" clip-path="url(#pb116f7da86)" style="fill: #c44e52; stroke: #ffffff; stroke-width: 0.619677"/>
    <path d="M 511.24847 271.647167 
C 512.275597 271.647167 513.260794 271.239085 513.987083 270.512796 
C 514.713372 269.786508 515.121453 268.801311 515.121453 267.774184 
C 515.121453 266.747056 514.713372 265.761859 513.987083 265.035571 
C 513.260794 264.309282 512.275597 263.9012 511.24847 263.9012 
C 510.221343 263.9012 509.236146 264.309282 508.509857 265.035571 
C 507.783569 265.761859 507.375487 266.747056 507.375487 267.774184 
C 507.375487 268.801311 507.783569 269.786508 508.509857 270.512796 
C 509.236146 271.239085 510.221343 271.647167 511.24847 271.647167 
z
" clip-path="url(#pb116f7da86)" style="fill: #4c72b0; stroke: #ffffff; stroke-width: 0.619677"/>
    <path d="M 509.311978 275.806654 
L 511.24847 273.870162 
L 513.184962 275.806654 
L 515.121453 273.870162 
L 513.184962 271.93367 
L 515.121453 269.997179 
L 513.184962 268.060687 
L 511.24847 269.997179 
L 509.311978 268.060687 
L 507.375487 269.997179 
L 509.311978 271.93367 
L 507.375487 273.870162 
z
" clip-path="url(#pb116f7da86)" style="fill: #dd8452; stroke: #ffffff; stroke-width: 0.619677"/>
    <path d="M 508.509857 184.743248 
L 508.509857 190.220474 
L 513.987083 190.220474 
L 513.987083 184.743248 
z
" clip-path="url(#pb116f7da86)" style="fill: #55a868; stroke: #ffffff; stroke-width: 0.619677"/>
    <path d="M 509.957476 239.977375 
L 512.539465 239.977375 
L 512.539465 237.395386 
L 515.121453 237.395386 
L 515.121453 234.813397 
L 512.539465 234.813397 
L 512.539465 232.231408 
L 509.957476 232.231408 
L 509.957476 234.813397 
L 507.375487 234.813397 
L 507.375487 237.395386 
L 509.957476 237.395386 
z
" clip-path="url(#pb116f7da86)" style="fill: #c44e52; stroke: #ffffff; stroke-width: 0.619677"/>
    <path d="M 526.003622 270.749455 
C 527.030749 270.749455 528.015946 270.341373 528.742234 269.615084 
C 529.468523 268.888796 529.876605 267.903599 529.876605 266.876472 
C 529.876605 265.849344 529.468523 264.864147 528.742234 264.137859 
C 528.015946 263.41157 527.030749 263.003488 526.003622 263.003488 
C 524.976494 263.003488 523.991297 263.41157 523.265009 264.137859 
C 522.53872 264.864147 522.130638 265.849344 522.130638 266.876472 
C 522.130638 267.903599 522.53872 268.888796 523.265009 269.615084 
C 523.991297 270.341373 524.976494 270.749455 526.003622 270.749455 
z
" clip-path="url(#pb116f7da86)" style="fill: #4c72b0; stroke: #ffffff; stroke-width: 0.619677"/>
    <path d="M 524.06713 274.623983 
L 526.003622 272.687491 
L 527.940113 274.623983 
L 529.876605 272.687491 
L 527.940113 270.750999 
L 529.876605 268.814508 
L 527.940113 266.878016 
L 526.003622 268.814508 
L 524.06713 266.878016 
L 522.130638 268.814508 
L 524.06713 270.750999 
L 522.130638 272.687491 
z
" clip-path="url(#pb116f7da86)" style="fill: #dd8452; stroke: #ffffff; stroke-width: 0.619677"/>
    <path d="M 523.265009 181.34469 
L 523.265009 186.821915 
L 528.742234 186.821915 
L 528.742234 181.34469 
z
" clip-path="url(#pb116f7da86)" style="fill: #55a868; stroke: #ffffff; stroke-width: 0.619677"/>
    <path d="M 524.712627 239.644146 
L 527.294616 239.644146 
L 527.294616 237.062157 
L 529.876605 237.062157 
L 529.876605 234.480168 
L 527.294616 234.480168 
L 527.294616 231.898179 
L 524.712627 231.898179 
L 524.712627 234.480168 
L 522.130638 234.480168 
L 522.130638 237.062157 
L 524.712627 237.062157 
z
" clip-path="url(#pb116f7da86)" style="fill: #c44e52; stroke: #ffffff; stroke-width: 0.619677"/>
   </g>
   <g id="FillBetweenPolyCollection_1"/>
   <g id="FillBetweenPolyCollection_2"/>
   <g id="FillBetweenPolyCollection_3"/>
   <g id="FillBetweenPolyCollection_4"/>
   <g id="line2d_8"/>
   <g id="line2d_9"/>
   <g id="line2d_10"/>
   <g id="line2d_11"/>
   <g id="line2d_12">
    <path d="M 106.468055 119.260417 
L 203.539445 218.208657 
L 260.322568 240.272807 
L 300.610834 249.726693 
L 331.860842 264.711803 
L 357.393957 270.137034 
L 378.981899 263.862958 
L 397.682224 258.03154 
L 414.17708 257.528037 
L 428.932232 262.354449 
L 454.465347 261.556243 
L 476.053289 264.301151 
L 494.753614 262.206768 
L 511.24847 267.774184 
L 526.003622 266.876472 
" clip-path="url(#pb116f7da86)" style="fill: none; stroke: #4c72b0; stroke-width: 2; stroke-linecap: round"/>
   </g>
   <g id="line2d_13">
    <path d="M 106.468055 151.746238 
L 203.539445 246.530008 
L 260.322568 263.069842 
L 300.610834 266.197867 
L 331.860842 276.910395 
L 357.393957 279.309273 
L 378.981899 270.666717 
L 397.682224 267.778356 
L 414.17708 267.749384 
L 428.932232 269.350043 
L 454.465347 269.162218 
L 476.053289 269.149654 
L 494.753614 263.906895 
L 511.24847 271.93367 
L 526.003622 270.750999 
" clip-path="url(#pb116f7da86)" style="fill: none; stroke: #dd8452; stroke-width: 2; stroke-linecap: round"/>
   </g>
   <g id="line2d_14">
    <path d="M 106.468055 30.086727 
L 203.539445 167.553416 
L 260.322568 225.313273 
L 300.610834 241.475497 
L 331.860842 248.633311 
L 357.393957 200.896937 
L 378.981899 190.423232 
L 397.682224 184.300701 
L 414.17708 183.158537 
L 428.932232 181.832606 
L 454.465347 184.425367 
L 476.053289 184.787376 
L 494.753614 184.497395 
L 511.24847 187.481861 
L 526.003622 184.083303 
" clip-path="url(#pb116f7da86)" style="fill: none; stroke: #55a868; stroke-width: 2; stroke-linecap: round"/>
   </g>
   <g id="line2d_15">
    <path d="M 106.468055 163.891344 
L 203.539445 244.952552 
L 260.322568 251.426689 
L 300.610834 257.479629 
L 331.860842 231.535634 
L 357.393957 224.607711 
L 378.981899 225.331061 
L 397.682224 224.793089 
L 414.17708 226.92285 
L 428.932232 224.276874 
L 454.465347 234.622351 
L 476.053289 231.67676 
L 494.753614 231.07186 
L 511.24847 236.104391 
L 526.003622 235.771163 
" clip-path="url(#pb116f7da86)" style="fill: none; stroke: #c44e52; stroke-width: 2; stroke-linecap: round"/>
   </g>
   <g id="patch_3">
    <path d="M 85.491277 291.7704 
L 85.491277 17.6256 
" style="fill: none; stroke: #cccccc; stroke-linejoin: miter; stroke-linecap: square"/>
   </g>
   <g id="patch_4">
    <path d="M 85.491277 291.7704 
L 546.9804 291.7704 
" style="fill: none; stroke: #cccccc; stroke-linejoin: miter; stroke-linecap: square"/>
   </g>
   <g id="legend_1">
    <g id="patch_5">
     <path d="M 337.556763 140.7022 
L 536.5084 140.7022 
Q 539.5004 140.7022 539.5004 137.7102 
L 539.5004 28.0976 
Q 539.5004 25.1056 536.5084 25.1056 
L 337.556763 25.1056 
Q 334.564763 25.1056 334.564763 28.0976 
L 334.564763 137.7102 
Q 334.564763 140.7022 337.556763 140.7022 
z
" style="fill: #ffffff; opacity: 0.8; stroke: #cccccc; stroke-width: 0.8; stroke-linejoin: miter"/>
    </g>
    <g id="text_10">
     <!-- Strategy (T=24) -->
     <g style="fill: #262626" transform="translate(370.902156 43.49025) scale(0.1632 -0.1632)">
      <defs>
       <path id="DejaVuSans-53" d="M 3425 4513 
L 3425 3897 
Q 3066 4069 2747 4153 
Q 2428 4238 2131 4238 
Q 1616 4238 1336 4038 
Q 1056 3838 1056 3469 
Q 1056 3159 1242 3001 
Q 1428 2844 1947 2747 
L 2328 2669 
Q 3034 2534 3370 2195 
Q 3706 1856 3706 1288 
Q 3706 609 3251 259 
Q 2797 -91 1919 -91 
Q 1588 -91 1214 -16 
Q 841 59 441 206 
L 441 856 
Q 825 641 1194 531 
Q 1563 422 1919 422 
Q 2459 422 2753 634 
Q 3047 847 3047 1241 
Q 3047 1584 2836 1778 
Q 2625 1972 2144 2069 
L 1759 2144 
Q 1053 2284 737 2584 
Q 422 2884 422 3419 
Q 422 4038 858 4394 
Q 1294 4750 2059 4750 
Q 2388 4750 2728 4690 
Q 3069 4631 3425 4513 
z
" transform="scale(0.015625)"/>
       <path id="DejaVuSans-74" d="M 1172 4494 
L 1172 3500 
L 2356 3500 
L 2356 3053 
L 1172 3053 
L 1172 1153 
Q 1172 725 1289 603 
Q 1406 481 1766 481 
L 2356 481 
L 2356 0 
L 1766 0 
Q 1100 0 847 248 
Q 594 497 594 1153 
L 594 3053 
L 172 3053 
L 172 3500 
L 594 3500 
L 594 4494 
L 1172 4494 
z
" transform="scale(0.015625)"/>
       <path id="DejaVuSans-61" d="M 2194 1759 
Q 1497 1759 1228 1600 
Q 959 1441 959 1056 
Q 959 750 1161 570 
Q 1363 391 1709 391 
Q 2188 391 2477 730 
Q 2766 1069 2766 1631 
L 2766 1759 
L 2194 1759 
z
M 3341 1997 
L 3341 0 
L 2766 0 
L 2766 531 
Q 2569 213 2275 61 
Q 1981 -91 1556 -91 
Q 1019 -91 701 211 
Q 384 513 384 1019 
Q 384 1609 779 1909 
Q 1175 2209 1959 2209 
L 2766 2209 
L 2766 2266 
Q 2766 2663 2505 2880 
Q 2244 3097 1772 3097 
Q 1472 3097 1187 3025 
Q 903 2953 641 2809 
L 641 3341 
Q 956 3463 1253 3523 
Q 1550 3584 1831 3584 
Q 2591 3584 2966 3190 
Q 3341 2797 3341 1997 
z
" transform="scale(0.015625)"/>
       <path id="DejaVuSans-67" d="M 2906 1791 
Q 2906 2416 2648 2759 
Q 2391 3103 1925 3103 
Q 1463 3103 1205 2759 
Q 947 2416 947 1791 
Q 947 1169 1205 825 
Q 1463 481 1925 481 
Q 2391 481 2648 825 
Q 2906 1169 2906 1791 
z
M 3481 434 
Q 3481 -459 3084 -895 
Q 2688 -1331 1869 -1331 
Q 1566 -1331 1297 -1286 
Q 1028 -1241 775 -1147 
L 775 -588 
Q 1028 -725 1275 -790 
Q 1522 -856 1778 -856 
Q 2344 -856 2625 -561 
Q 2906 -266 2906 331 
L 2906 616 
Q 2728 306 2450 153 
Q 2172 0 1784 0 
Q 1141 0 747 490 
Q 353 981 353 1791 
Q 353 2603 747 3093 
Q 1141 3584 1784 3584 
Q 2172 3584 2450 3431 
Q 2728 3278 2906 2969 
L 2906 3500 
L 3481 3500 
L 3481 434 
z
" transform="scale(0.015625)"/>
       <path id="DejaVuSans-3d" d="M 678 2906 
L 4684 2906 
L 4684 2381 
L 678 2381 
L 678 2906 
z
M 678 1631 
L 4684 1631 
L 4684 1100 
L 678 1100 
L 678 1631 
z
" transform="scale(0.015625)"/>
       <path id="DejaVuSans-32" d="M 1228 531 
L 3431 531 
L 3431 0 
L 469 0 
L 469 531 
Q 828 903 1448 1529 
Q 2069 2156 2228 2338 
Q 2531 2678 2651 2914 
Q 2772 3150 2772 3378 
Q 2772 3750 2511 3984 
Q 2250 4219 1831 4219 
Q 1534 4219 1204 4116 
Q 875 4013 500 3803 
L 500 4441 
Q 881 4594 1212 4672 
Q 1544 4750 1819 4750 
Q 2544 4750 2975 4387 
Q 3406 4025 3406 3419 
Q 3406 3131 3298 2873 
Q 3191 2616 2906 2266 
Q 2828 2175 2409 1742 
Q 1991 1309 1228 531 
z
" transform="scale(0.015625)"/>
      </defs>
      <use xlink:href="#DejaVuSans-53"/>
      <use xlink:href="#DejaVuSans-74" transform="translate(63.476562 0)"/>
      <use xlink:href="#DejaVuSans-72" transform="translate(102.685547 0)"/>
      <use xlink:href="#DejaVuSans-61" transform="translate(143.798828 0)"/>
      <use xlink:href="#DejaVuSans-74" transform="translate(205.078125 0)"/>
      <use xlink:href="#DejaVuSans-65" transform="translate(244.287109 0)"/>
      <use xlink:href="#DejaVuSans-67" transform="translate(305.810547 0)"/>
      <use xlink:href="#DejaVuSans-79" transform="translate(369.287109 0)"/>
      <use xlink:href="#DejaVuSans-20" transform="translate(428.466797 0)"/>
      <use xlink:href="#DejaVuSans-28" transform="translate(460.253906 0)"/>
      <use xlink:href="#DejaVuSans-54" transform="translate(499.267578 0)"/>
      <use xlink:href="#DejaVuSans-3d" transform="translate(560.351562 0)"/>
      <use xlink:href="#DejaVuSans-32" transform="translate(644.140625 0)"/>
      <use xlink:href="#DejaVuSans-34" transform="translate(707.763672 0)"/>
      <use xlink:href="#DejaVuSans-29" transform="translate(771.386719 0)"/>
     </g>
    </g>
    <g id="line2d_16">
     <defs>
      <path id="m705ffa47eb" d="M 0 3.872983 
C 1.027127 3.872983 2.012324 3.464901 2.738613 2.738613 
C 3.464901 2.012324 3.872983 1.027127 3.872983 0 
C 3.872983 -1.027127 3.464901 -2.012324 2.738613 -2.738613 
C 2.012324 -3.464901 1.027127 -3.872983 0 -3.872983 
C -1.027127 -3.872983 -2.012324 -3.464901 -2.738613 -2.738613 
C -3.464901 -2.012324 -3.872983 -1.027127 -3.872983 0 
C -3.872983 1.027127 -3.464901 2.012324 -2.738613 2.738613 
C -2.012324 3.464901 -1.027127 3.872983 0 3.872983 
z
"/>
     </defs>
     <g>
      <use xlink:href="#m705ffa47eb" x="355.508763" y="60.495563" style="fill: #4c72b0"/>
     </g>
    </g>
    <g id="text_11">
     <!-- Face-Based -->
     <g style="fill: #262626" transform="translate(382.436763 65.731563) scale(0.1496 -0.1496)">
      <defs>
       <path id="DejaVuSans-46" d="M 628 4666 
L 3309 4666 
L 3309 4134 
L 1259 4134 
L 1259 2759 
L 3109 2759 
L 3109 2228 
L 1259 2228 
L 1259 0 
L 628 0 
L 628 4666 
z
" transform="scale(0.015625)"/>
       <path id="DejaVuSans-63" d="M 3122 3366 
L 3122 2828 
Q 2878 2963 2633 3030 
Q 2388 3097 2138 3097 
Q 1578 3097 1268 2742 
Q 959 2388 959 1747 
Q 959 1106 1268 751 
Q 1578 397 2138 397 
Q 2388 397 2633 464 
Q 2878 531 3122 666 
L 3122 134 
Q 2881 22 2623 -34 
Q 2366 -91 2075 -91 
Q 1284 -91 818 406 
Q 353 903 353 1747 
Q 353 2603 823 3093 
Q 1294 3584 2113 3584 
Q 2378 3584 2631 3529 
Q 2884 3475 3122 3366 
z
" transform="scale(0.015625)"/>
       <path id="DejaVuSans-2d" d="M 313 2009 
L 1997 2009 
L 1997 1497 
L 313 1497 
L 313 2009 
z
" transform="scale(0.015625)"/>
       <path id="DejaVuSans-42" d="M 1259 2228 
L 1259 519 
L 2272 519 
Q 2781 519 3026 730 
Q 3272 941 3272 1375 
Q 3272 1813 3026 2020 
Q 2781 2228 2272 2228 
L 1259 2228 
z
M 1259 4147 
L 1259 2741 
L 2194 2741 
Q 2656 2741 2882 2914 
Q 3109 3088 3109 3444 
Q 3109 3797 2882 3972 
Q 2656 4147 2194 4147 
L 1259 4147 
z
M 628 4666 
L 2241 4666 
Q 2963 4666 3353 4366 
Q 3744 4066 3744 3513 
Q 3744 3084 3544 2831 
Q 3344 2578 2956 2516 
Q 3422 2416 3680 2098 
Q 3938 1781 3938 1306 
Q 3938 681 3513 340 
Q 3088 0 2303 0 
L 628 0 
L 628 4666 
z
" transform="scale(0.015625)"/>
       <path id="DejaVuSans-64" d="M 2906 2969 
L 2906 4863 
L 3481 4863 
L 3481 0 
L 2906 0 
L 2906 525 
Q 2725 213 2448 61 
Q 2172 -91 1784 -91 
Q 1150 -91 751 415 
Q 353 922 353 1747 
Q 353 2572 751 3078 
Q 1150 3584 1784 3584 
Q 2172 3584 2448 3432 
Q 2725 3281 2906 2969 
z
M 947 1747 
Q 947 1113 1208 752 
Q 1469 391 1925 391 
Q 2381 391 2643 752 
Q 2906 1113 2906 1747 
Q 2906 2381 2643 2742 
Q 2381 3103 1925 3103 
Q 1469 3103 1208 2742 
Q 947 2381 947 1747 
z
" transform="scale(0.015625)"/>
      </defs>
      <use xlink:href="#DejaVuSans-46"/>
      <use xlink:href="#DejaVuSans-61" transform="translate(48.394531 0)"/>
      <use xlink:href="#DejaVuSans-63" transform="translate(109.673828 0)"/>
      <use xlink:href="#DejaVuSans-65" transform="translate(164.654297 0)"/>
      <use xlink:href="#DejaVuSans-2d" transform="translate(226.177734 0)"/>
      <use xlink:href="#DejaVuSans-42" transform="translate(258.636719 0)"/>
      <use xlink:href="#DejaVuSans-61" transform="translate(327.240234 0)"/>
      <use xlink:href="#DejaVuSans-73" transform="translate(388.519531 0)"/>
      <use xlink:href="#DejaVuSans-65" transform="translate(440.619141 0)"/>
      <use xlink:href="#DejaVuSans-64" transform="translate(502.142578 0)"/>
     </g>
    </g>
    <g id="line2d_17">
     <defs>
      <path id="med7241c428" d="M -1.936492 3.872983 
L 0 1.936492 
L 1.936492 3.872983 
L 3.872983 1.936492 
L 1.936492 0 
L 3.872983 -1.936492 
L 1.936492 -3.872983 
L 0 -1.936492 
L -1.936492 -3.872983 
L -3.872983 -1.936492 
L -1.936492 0 
L -3.872983 1.936492 
z
"/>
     </defs>
     <g>
      <use xlink:href="#med7241c428" x="355.508763" y="82.454038" style="fill: #dd8452"/>
     </g>
    </g>
    <g id="text_12">
     <!-- Face-Based Global -->
     <g style="fill: #262626" transform="translate(382.436763 87.690038) scale(0.1496 -0.1496)">
      <defs>
       <path id="DejaVuSans-47" d="M 3809 666 
L 3809 1919 
L 2778 1919 
L 2778 2438 
L 4434 2438 
L 4434 434 
Q 4069 175 3628 42 
Q 3188 -91 2688 -91 
Q 1594 -91 976 548 
Q 359 1188 359 2328 
Q 359 3472 976 4111 
Q 1594 4750 2688 4750 
Q 3144 4750 3555 4637 
Q 3966 4525 4313 4306 
L 4313 3634 
Q 3963 3931 3569 4081 
Q 3175 4231 2741 4231 
Q 1884 4231 1454 3753 
Q 1025 3275 1025 2328 
Q 1025 1384 1454 906 
Q 1884 428 2741 428 
Q 3075 428 3337 486 
Q 3600 544 3809 666 
z
" transform="scale(0.015625)"/>
       <path id="DejaVuSans-6f" d="M 1959 3097 
Q 1497 3097 1228 2736 
Q 959 2375 959 1747 
Q 959 1119 1226 758 
Q 1494 397 1959 397 
Q 2419 397 2687 759 
Q 2956 1122 2956 1747 
Q 2956 2369 2687 2733 
Q 2419 3097 1959 3097 
z
M 1959 3584 
Q 2709 3584 3137 3096 
Q 3566 2609 3566 1747 
Q 3566 888 3137 398 
Q 2709 -91 1959 -91 
Q 1206 -91 779 398 
Q 353 888 353 1747 
Q 353 2609 779 3096 
Q 1206 3584 1959 3584 
z
" transform="scale(0.015625)"/>
      </defs>
      <use xlink:href="#DejaVuSans-46"/>
      <use xlink:href="#DejaVuSans-61" transform="translate(48.394531 0)"/>
      <use xlink:href="#DejaVuSans-63" transform="translate(109.673828 0)"/>
      <use xlink:href="#DejaVuSans-65" transform="translate(164.654297 0)"/>
      <use xlink:href="#DejaVuSans-2d" transform="translate(226.177734 0)"/>
      <use xlink:href="#DejaVuSans-42" transform="translate(258.636719 0)"/>
      <use xlink:href="#DejaVuSans-61" transform="translate(327.240234 0)"/>
      <use xlink:href="#DejaVuSans-73" transform="translate(388.519531 0)"/>
      <use xlink:href="#DejaVuSans-65" transform="translate(440.619141 0)"/>
      <use xlink:href="#DejaVuSans-64" transform="translate(502.142578 0)"/>
      <use xlink:href="#DejaVuSans-20" transform="translate(565.619141 0)"/>
      <use xlink:href="#DejaVuSans-47" transform="translate(597.40625 0)"/>
      <use xlink:href="#DejaVuSans-6c" transform="translate(674.896484 0)"/>
      <use xlink:href="#DejaVuSans-6f" transform="translate(702.679688 0)"/>
      <use xlink:href="#DejaVuSans-62" transform="translate(763.861328 0)"/>
      <use xlink:href="#DejaVuSans-61" transform="translate(827.337891 0)"/>
      <use xlink:href="#DejaVuSans-6c" transform="translate(888.617188 0)"/>
     </g>
    </g>
    <g id="line2d_18">
     <defs>
      <path id="mfab9fd13dc" d="M -2.738613 -2.738613 
L -2.738613 2.738613 
L 2.738613 2.738613 
L 2.738613 -2.738613 
z
"/>
     </defs>
     <g>
      <use xlink:href="#mfab9fd13dc" x="355.508763" y="104.412513" style="fill: #55a868"/>
     </g>
    </g>
    <g id="text_13">
     <!-- Face-Based Batched -->
     <g style="fill: #262626" transform="translate(382.436763 109.648513) scale(0.1496 -0.1496)">
      <defs>
       <path id="DejaVuSans-68" d="M 3513 2113 
L 3513 0 
L 2938 0 
L 2938 2094 
Q 2938 2591 2744 2837 
Q 2550 3084 2163 3084 
Q 1697 3084 1428 2787 
Q 1159 2491 1159 1978 
L 1159 0 
L 581 0 
L 581 4863 
L 1159 4863 
L 1159 2956 
Q 1366 3272 1645 3428 
Q 1925 3584 2291 3584 
Q 2894 3584 3203 3211 
Q 3513 2838 3513 2113 
z
" transform="scale(0.015625)"/>
      </defs>
      <use xlink:href="#DejaVuSans-46"/>
      <use xlink:href="#DejaVuSans-61" transform="translate(48.394531 0)"/>
      <use xlink:href="#DejaVuSans-63" transform="translate(109.673828 0)"/>
      <use xlink:href="#DejaVuSans-65" transform="translate(164.654297 0)"/>
      <use xlink:href="#DejaVuSans-2d" transform="translate(226.177734 0)"/>
      <use xlink:href="#DejaVuSans-42" transform="translate(258.636719 0)"/>
      <use xlink:href="#DejaVuSans-61" transform="translate(327.240234 0)"/>
      <use xlink:href="#DejaVuSans-73" transform="translate(388.519531 0)"/>
      <use xlink:href="#DejaVuSans-65" transform="translate(440.619141 0)"/>
      <use xlink:href="#DejaVuSans-64" transform="translate(502.142578 0)"/>
      <use xlink:href="#DejaVuSans-20" transform="translate(565.619141 0)"/>
      <use xlink:href="#DejaVuSans-42" transform="translate(597.40625 0)"/>
      <use xlink:href="#DejaVuSans-61" transform="translate(666.009766 0)"/>
      <use xlink:href="#DejaVuSans-74" transform="translate(727.289062 0)"/>
      <use xlink:href="#DejaVuSans-63" transform="translate(766.498047 0)"/>
      <use xlink:href="#DejaVuSans-68" transform="translate(821.478516 0)"/>
      <use xlink:href="#DejaVuSans-65" transform="translate(884.857422 0)"/>
      <use xlink:href="#DejaVuSans-64" transform="translate(946.380859 0)"/>
     </g>
    </g>
    <g id="line2d_19">
     <defs>
      <path id="m4cc99bf5ba" d="M -1.290994 3.872983 
L 1.290994 3.872983 
L 1.290994 1.290994 
L 3.872983 1.290994 
L 3.872983 -1.290994 
L 1.290994 -1.290994 
L 1.290994 -3.872983 
L -1.290994 -3.872983 
L -1.290994 -1.290994 
L -3.872983 -1.290994 
L -3.872983 1.290994 
L -1.290994 1.290994 
z
"/>
     </defs>
     <g>
      <use xlink:href="#m4cc99bf5ba" x="355.508763" y="126.370988" style="fill: #c44e52"/>
     </g>
    </g>
    <g id="text_14">
     <!-- Cell-Based -->
     <g style="fill: #262626" transform="translate(382.436763 131.606988) scale(0.1496 -0.1496)">
      <use xlink:href="#DejaVuSans-43"/>
      <use xlink:href="#DejaVuSans-65" transform="translate(69.824219 0)"/>
      <use xlink:href="#DejaVuSans-6c" transform="translate(131.347656 0)"/>
      <use xlink:href="#DejaVuSans-6c" transform="translate(159.130859 0)"/>
      <use xlink:href="#DejaVuSans-2d" transform="translate(186.914062 0)"/>
      <use xlink:href="#DejaVuSans-42" transform="translate(219.373047 0)"/>
      <use xlink:href="#DejaVuSans-61" transform="translate(287.976562 0)"/>
      <use xlink:href="#DejaVuSans-73" transform="translate(349.255859 0)"/>
      <use xlink:href="#DejaVuSans-65" transform="translate(401.355469 0)"/>
      <use xlink:href="#DejaVuSans-64" transform="translate(462.878906 0)"/>
     </g>
    </g>
   </g>
  </g>
 </g>
 <defs>
  <clipPath id="pb116f7da86">
   <rect x="85.491277" y="17.6256" width="461.489123" height="274.1448"/>
  </clipPath>
 </defs>
</svg>
