<?xml version="1.0" encoding="utf-8" standalone="no"?>
<!DOCTYPE svg PUBLIC "-//W3C//DTD SVG 1.1//EN"
  "http://www.w3.org/Graphics/SVG/1.1/DTD/svg11.dtd">
<svg xmlns:xlink="http://www.w3.org/1999/xlink" width="564.606pt" height="360pt" viewBox="0 0 564.606 360" xmlns="http://www.w3.org/2000/svg" version="1.1">
 <metadata>
  <rdf:RDF xmlns:dc="http://purl.org/dc/elements/1.1/" xmlns:cc="http://creativecommons.org/ns#" xmlns:rdf="http://www.w3.org/1999/02/22-rdf-syntax-ns#">
   <cc:Work>
    <dc:type rdf:resource="http://purl.org/dc/dcmitype/StillImage"/>
    <dc:date>2026-05-13T00:37:51.745236</dc:date>
    <dc:format>image/svg+xml</dc:format>
    <dc:creator>
     <cc:Agent>
      <dc:title>Matplotlib v3.10.8, https://matplotlib.org/</dc:title>
     </cc:Agent>
    </dc:creator>
   </cc:Work>
  </rdf:RDF>
 </metadata>
 <defs>
  <style type="text/css">*{stroke-linejoin: round; stroke-linecap: butt}</style>
 </defs>
 <g id="figure_1">
  <g id="patch_1">
   <path d="M 0 360 
L 564.606 360 
L 564.606 0 
L 0 0 
z
" style="fill: #ffffff"/>
  </g>
  <g id="axes_1">
   <g id="patch_2">
    <path d="M 85.120027 291.7704 
L 539.212692 291.7704 
L 539.212692 17.6256 
L 85.120027 17.6256 
z
" style="fill: #ffffff"/>
   </g>
   <g id="matplotlib.axis_1">
    <g id="xtick_1">
     <g id="line2d_1">
      <path d="M 105.760602 291.7704 
L 105.760602 17.6256 
" clip-path="url(#pdb97d1d645)" style="fill: none; stroke: #cccccc; stroke-width: 0.8; stroke-linecap: round"/>
     </g>
     <g id="text_1">
      <!-- $\mathdefault{10^{3}}$ -->
      <g style="fill: #262626" transform="translate(92.595802 311.437662) scale(0.1496 -0.1496)">
       <defs>
        <path id="DejaVuSans-31" d="M 794 531 
L 1825 531 
L 1825 4091 
L 703 3866 
L 703 4441 
L 1819 4666 
L 2450 4666 
L 2450 531 
L 3481 531 
L 3481 0 
L 794 0 
L 794 531 
z
" transform="scale(0.015625)"/>
        <path id="DejaVuSans-30" d="M 2034 4250 
Q 1547 4250 1301 3770 
Q 1056 3291 1056 2328 
Q 1056 1369 1301 889 
Q 1547 409 2034 409 
Q 2525 409 2770 889 
Q 3016 1369 3016 2328 
Q 3016 3291 2770 3770 
Q 2525 4250 2034 4250 
z
M 2034 4750 
Q 2819 4750 3233 4129 
Q 3647 3509 3647 2328 
Q 3647 1150 3233 529 
Q 2819 -91 2034 -91 
Q 1250 -91 836 529 
Q 422 1150 422 2328 
Q 422 3509 836 4129 
Q 1250 4750 2034 4750 
z
" transform="scale(0.015625)"/>
        <path id="DejaVuSans-33" d="M 2597 2516 
Q 3050 2419 3304 2112 
Q 3559 1806 3559 1356 
Q 3559 666 3084 287 
Q 2609 -91 1734 -91 
Q 1441 -91 1130 -33 
Q 819 25 488 141 
L 488 750 
Q 750 597 1062 519 
Q 1375 441 1716 441 
Q 2309 441 2620 675 
Q 2931 909 2931 1356 
Q 2931 1769 2642 2001 
Q 2353 2234 1838 2234 
L 1294 2234 
L 1294 2753 
L 1863 2753 
Q 2328 2753 2575 2939 
Q 2822 3125 2822 3475 
Q 2822 3834 2567 4026 
Q 2313 4219 1838 4219 
Q 1578 4219 1281 4162 
Q 984 4106 628 3988 
L 628 4550 
Q 988 4650 1302 4700 
Q 1616 4750 1894 4750 
Q 2613 4750 3031 4423 
Q 3450 4097 3450 3541 
Q 3450 3153 3228 2886 
Q 3006 2619 2597 2516 
z
" transform="scale(0.015625)"/>
       </defs>
       <use xlink:href="#DejaVuSans-31" transform="translate(0 0.765625)"/>
       <use xlink:href="#DejaVuSans-30" transform="translate(63.623047 0.765625)"/>
       <use xlink:href="#DejaVuSans-33" transform="translate(128.203125 39.046875) scale(0.7)"/>
      </g>
     </g>
    </g>
    <g id="xtick_2">
     <g id="line2d_2">
      <path d="M 211.52591 291.7704 
L 211.52591 17.6256 
" clip-path="url(#pdb97d1d645)" style="fill: none; stroke: #cccccc; stroke-width: 0.8; stroke-linecap: round"/>
     </g>
     <g id="text_2">
      <!-- $\mathdefault{10^{4}}$ -->
      <g style="fill: #262626" transform="translate(198.36111 311.437662) scale(0.1496 -0.1496)">
       <defs>
        <path id="DejaVuSans-34" d="M 2419 4116 
L 825 1625 
L 2419 1625 
L 2419 4116 
z
M 2253 4666 
L 3047 4666 
L 3047 1625 
L 3713 1625 
L 3713 1100 
L 3047 1100 
L 3047 0 
L 2419 0 
L 2419 1100 
L 313 1100 
L 313 1709 
L 2253 4666 
z
" transform="scale(0.015625)"/>
       </defs>
       <use xlink:href="#DejaVuSans-31" transform="translate(0 0.684375)"/>
       <use xlink:href="#DejaVuSans-30" transform="translate(63.623047 0.684375)"/>
       <use xlink:href="#DejaVuSans-34" transform="translate(128.203125 38.965625) scale(0.7)"/>
      </g>
     </g>
    </g>
    <g id="xtick_3">
     <g id="line2d_3">
      <path d="M 317.291218 291.7704 
L 317.291218 17.6256 
" clip-path="url(#pdb97d1d645)" style="fill: none; stroke: #cccccc; stroke-width: 0.8; stroke-linecap: round"/>
     </g>
     <g id="text_3">
      <!-- $\mathdefault{10^{5}}$ -->
      <g style="fill: #262626" transform="translate(304.126418 311.437662) scale(0.1496 -0.1496)">
       <defs>
        <path id="DejaVuSans-35" d="M 691 4666 
L 3169 4666 
L 3169 4134 
L 1269 4134 
L 1269 2991 
Q 1406 3038 1543 3061 
Q 1681 3084 1819 3084 
Q 2600 3084 3056 2656 
Q 3513 2228 3513 1497 
Q 3513 744 3044 326 
Q 2575 -91 1722 -91 
Q 1428 -91 1123 -41 
Q 819 9 494 109 
L 494 744 
Q 775 591 1075 516 
Q 1375 441 1709 441 
Q 2250 441 2565 725 
Q 2881 1009 2881 1497 
Q 2881 1984 2565 2268 
Q 2250 2553 1709 2553 
Q 1456 2553 1204 2497 
Q 953 2441 691 2322 
L 691 4666 
z
" transform="scale(0.015625)"/>
       </defs>
       <use xlink:href="#DejaVuSans-31" transform="translate(0 0.684375)"/>
       <use xlink:href="#DejaVuSans-30" transform="translate(63.623047 0.684375)"/>
       <use xlink:href="#DejaVuSans-35" transform="translate(128.203125 38.965625) scale(0.7)"/>
      </g>
     </g>
    </g>
    <g id="xtick_4">
     <g id="line2d_4">
      <path d="M 423.056526 291.7704 
L 423.056526 17.6256 
" clip-path="url(#pdb97d1d645)" style="fill: none; stroke: #cccccc; stroke-width: 0.8; stroke-linecap: round"/>
     </g>
     <g id="text_4">
      <!-- $\mathdefault{10^{6}}$ -->
      <g style="fill: #262626" transform="translate(409.891726 311.437662) scale(0.1496 -0.1496)">
       <defs>
        <path id="DejaVuSans-36" d="M 2113 2584 
Q 1688 2584 1439 2293 
Q 1191 2003 1191 1497 
Q 1191 994 1439 701 
Q 1688 409 2113 409 
Q 2538 409 2786 701 
Q 3034 994 3034 1497 
Q 3034 2003 2786 2293 
Q 2538 2584 2113 2584 
z
M 3366 4563 
L 3366 3988 
Q 3128 4100 2886 4159 
Q 2644 4219 2406 4219 
Q 1781 4219 1451 3797 
Q 1122 3375 1075 2522 
Q 1259 2794 1537 2939 
Q 1816 3084 2150 3084 
Q 2853 3084 3261 2657 
Q 3669 2231 3669 1497 
Q 3669 778 3244 343 
Q 2819 -91 2113 -91 
Q 1303 -91 875 529 
Q 447 1150 447 2328 
Q 447 3434 972 4092 
Q 1497 4750 2381 4750 
Q 2619 4750 2861 4703 
Q 3103 4656 3366 4563 
z
" transform="scale(0.015625)"/>
       </defs>
       <use xlink:href="#DejaVuSans-31" transform="translate(0 0.765625)"/>
       <use xlink:href="#DejaVuSans-30" transform="translate(63.623047 0.765625)"/>
       <use xlink:href="#DejaVuSans-36" transform="translate(128.203125 39.046875) scale(0.7)"/>
      </g>
     </g>
    </g>
    <g id="xtick_5">
     <g id="line2d_5">
      <path d="M 528.821833 291.7704 
L 528.821833 17.6256 
" clip-path="url(#pdb97d1d645)" style="fill: none; stroke: #cccccc; stroke-width: 0.8; stroke-linecap: round"/>
     </g>
     <g id="text_5">
      <!-- $\mathdefault{10^{7}}$ -->
      <g style="fill: #262626" transform="translate(515.657033 311.437662) scale(0.1496 -0.1496)">
       <defs>
        <path id="DejaVuSans-37" d="M 525 4666 
L 3525 4666 
L 3525 4397 
L 1831 0 
L 1172 0 
L 2766 4134 
L 525 4134 
L 525 4666 
z
" transform="scale(0.015625)"/>
       </defs>
       <use xlink:href="#DejaVuSans-31" transform="translate(0 0.684375)"/>
       <use xlink:href="#DejaVuSans-30" transform="translate(63.623047 0.684375)"/>
       <use xlink:href="#DejaVuSans-37" transform="translate(128.203125 38.965625) scale(0.7)"/>
      </g>
     </g>
    </g>
    <g id="xtick_6"/>
    <g id="xtick_7"/>
    <g id="xtick_8"/>
    <g id="xtick_9"/>
    <g id="xtick_10"/>
    <g id="xtick_11"/>
    <g id="xtick_12"/>
    <g id="xtick_13"/>
    <g id="xtick_14"/>
    <g id="xtick_15"/>
    <g id="xtick_16"/>
    <g id="xtick_17"/>
    <g id="xtick_18"/>
    <g id="xtick_19"/>
    <g id="xtick_20"/>
    <g id="xtick_21"/>
    <g id="xtick_22"/>
    <g id="xtick_23"/>
    <g id="xtick_24"/>
    <g id="xtick_25"/>
    <g id="xtick_26"/>
    <g id="xtick_27"/>
    <g id="xtick_28"/>
    <g id="xtick_29"/>
    <g id="xtick_30"/>
    <g id="xtick_31"/>
    <g id="xtick_32"/>
    <g id="xtick_33"/>
    <g id="xtick_34"/>
    <g id="xtick_35"/>
    <g id="xtick_36"/>
    <g id="xtick_37"/>
    <g id="xtick_38"/>
    <g id="xtick_39"/>
    <g id="xtick_40"/>
    <g id="text_6">
     <!-- #Cells -->
     <g style="fill: #262626" transform="translate(279.885109 333.74575) scale(0.2 -0.2)">
      <defs>
       <path id="DejaVuSans-23" d="M 3272 2816 
L 2363 2816 
L 2100 1772 
L 3016 1772 
L 3272 2816 
z
M 2803 4594 
L 2478 3297 
L 3391 3297 
L 3719 4594 
L 4219 4594 
L 3897 3297 
L 4872 3297 
L 4872 2816 
L 3775 2816 
L 3519 1772 
L 4513 1772 
L 4513 1294 
L 3397 1294 
L 3072 0 
L 2572 0 
L 2894 1294 
L 1978 1294 
L 1656 0 
L 1153 0 
L 1478 1294 
L 494 1294 
L 494 1772 
L 1594 1772 
L 1856 2816 
L 850 2816 
L 850 3297 
L 1978 3297 
L 2297 4594 
L 2803 4594 
z
" transform="scale(0.015625)"/>
       <path id="DejaVuSans-43" d="M 4122 4306 
L 4122 3641 
Q 3803 3938 3442 4084 
Q 3081 4231 2675 4231 
Q 1875 4231 1450 3742 
Q 1025 3253 1025 2328 
Q 1025 1406 1450 917 
Q 1875 428 2675 428 
Q 3081 428 3442 575 
Q 3803 722 4122 1019 
L 4122 359 
Q 3791 134 3420 21 
Q 3050 -91 2638 -91 
Q 1578 -91 968 557 
Q 359 1206 359 2328 
Q 359 3453 968 4101 
Q 1578 4750 2638 4750 
Q 3056 4750 3426 4639 
Q 3797 4528 4122 4306 
z
" transform="scale(0.015625)"/>
       <path id="DejaVuSans-65" d="M 3597 1894 
L 3597 1613 
L 953 1613 
Q 991 1019 1311 708 
Q 1631 397 2203 397 
Q 2534 397 2845 478 
Q 3156 559 3463 722 
L 3463 178 
Q 3153 47 2828 -22 
Q 2503 -91 2169 -91 
Q 1331 -91 842 396 
Q 353 884 353 1716 
Q 353 2575 817 3079 
Q 1281 3584 2069 3584 
Q 2775 3584 3186 3129 
Q 3597 2675 3597 1894 
z
M 3022 2063 
Q 3016 2534 2758 2815 
Q 2500 3097 2075 3097 
Q 1594 3097 1305 2825 
Q 1016 2553 972 2059 
L 3022 2063 
z
" transform="scale(0.015625)"/>
       <path id="DejaVuSans-6c" d="M 603 4863 
L 1178 4863 
L 1178 0 
L 603 0 
L 603 4863 
z
" transform="scale(0.015625)"/>
       <path id="DejaVuSans-73" d="M 2834 3397 
L 2834 2853 
Q 2591 2978 2328 3040 
Q 2066 3103 1784 3103 
Q 1356 3103 1142 2972 
Q 928 2841 928 2578 
Q 928 2378 1081 2264 
Q 1234 2150 1697 2047 
L 1894 2003 
Q 2506 1872 2764 1633 
Q 3022 1394 3022 966 
Q 3022 478 2636 193 
Q 2250 -91 1575 -91 
Q 1294 -91 989 -36 
Q 684 19 347 128 
L 347 722 
Q 666 556 975 473 
Q 1284 391 1588 391 
Q 1994 391 2212 530 
Q 2431 669 2431 922 
Q 2431 1156 2273 1281 
Q 2116 1406 1581 1522 
L 1381 1569 
Q 847 1681 609 1914 
Q 372 2147 372 2553 
Q 372 3047 722 3315 
Q 1072 3584 1716 3584 
Q 2034 3584 2315 3537 
Q 2597 3491 2834 3397 
z
" transform="scale(0.015625)"/>
      </defs>
      <use xlink:href="#DejaVuSans-23"/>
      <use xlink:href="#DejaVuSans-43" transform="translate(83.789062 0)"/>
      <use xlink:href="#DejaVuSans-65" transform="translate(153.613281 0)"/>
      <use xlink:href="#DejaVuSans-6c" transform="translate(215.136719 0)"/>
      <use xlink:href="#DejaVuSans-6c" transform="translate(242.919922 0)"/>
      <use xlink:href="#DejaVuSans-73" transform="translate(270.703125 0)"/>
     </g>
    </g>
   </g>
   <g id="matplotlib.axis_2">
    <g id="ytick_1">
     <g id="line2d_6">
      <path d="M 85.120027 245.152 
L 539.212692 245.152 
" clip-path="url(#pdb97d1d645)" style="fill: none; stroke: #cccccc; stroke-width: 0.8; stroke-linecap: round"/>
     </g>
     <g id="text_7">
      <!-- $\mathdefault{10^{-1}}$ -->
      <g style="fill: #262626" transform="translate(41.664027 250.835632) scale(0.1496 -0.1496)">
       <defs>
        <path id="DejaVuSans-2212" d="M 678 2272 
L 4684 2272 
L 4684 1741 
L 678 1741 
L 678 2272 
z
" transform="scale(0.015625)"/>
       </defs>
       <use xlink:href="#DejaVuSans-31" transform="translate(0 0.684375)"/>
       <use xlink:href="#DejaVuSans-30" transform="translate(63.623047 0.684375)"/>
       <use xlink:href="#DejaVuSans-2212" transform="translate(128.203125 38.965625) scale(0.7)"/>
       <use xlink:href="#DejaVuSans-31" transform="translate(186.855469 38.965625) scale(0.7)"/>
      </g>
     </g>
    </g>
    <g id="ytick_2">
     <g id="line2d_7">
      <path d="M 85.120027 179.26392 
L 539.212692 179.26392 
" clip-path="url(#pdb97d1d645)" style="fill: none; stroke: #cccccc; stroke-width: 0.8; stroke-linecap: round"/>
     </g>
     <g id="text_8">
      <!-- $\mathdefault{10^{0}}$ -->
      <g style="fill: #262626" transform="translate(50.490427 184.947551) scale(0.1496 -0.1496)">
       <use xlink:href="#DejaVuSans-31" transform="translate(0 0.765625)"/>
       <use xlink:href="#DejaVuSans-30" transform="translate(63.623047 0.765625)"/>
       <use xlink:href="#DejaVuSans-30" transform="translate(128.203125 39.046875) scale(0.7)"/>
      </g>
     </g>
    </g>
    <g id="ytick_3">
     <g id="line2d_8">
      <path d="M 85.120027 113.37584 
L 539.212692 113.37584 
" clip-path="url(#pdb97d1d645)" style="fill: none; stroke: #cccccc; stroke-width: 0.8; stroke-linecap: round"/>
     </g>
     <g id="text_9">
      <!-- $\mathdefault{10^{1}}$ -->
      <g style="fill: #262626" transform="translate(50.490427 119.059471) scale(0.1496 -0.1496)">
       <use xlink:href="#DejaVuSans-31" transform="translate(0 0.684375)"/>
       <use xlink:href="#DejaVuSans-30" transform="translate(63.623047 0.684375)"/>
       <use xlink:href="#DejaVuSans-31" transform="translate(128.203125 38.965625) scale(0.7)"/>
      </g>
     </g>
    </g>
    <g id="ytick_4">
     <g id="line2d_9">
      <path d="M 85.120027 47.487759 
L 539.212692 47.487759 
" clip-path="url(#pdb97d1d645)" style="fill: none; stroke: #cccccc; stroke-width: 0.8; stroke-linecap: round"/>
     </g>
     <g id="text_10">
      <!-- $\mathdefault{10^{2}}$ -->
      <g style="fill: #262626" transform="translate(50.490427 53.171391) scale(0.1496 -0.1496)">
       <defs>
        <path id="DejaVuSans-32" d="M 1228 531 
L 3431 531 
L 3431 0 
L 469 0 
L 469 531 
Q 828 903 1448 1529 
Q 2069 2156 2228 2338 
Q 2531 2678 2651 2914 
Q 2772 3150 2772 3378 
Q 2772 3750 2511 3984 
Q 2250 4219 1831 4219 
Q 1534 4219 1204 4116 
Q 875 4013 500 3803 
L 500 4441 
Q 881 4594 1212 4672 
Q 1544 4750 1819 4750 
Q 2544 4750 2975 4387 
Q 3406 4025 3406 3419 
Q 3406 3131 3298 2873 
Q 3191 2616 2906 2266 
Q 2828 2175 2409 1742 
Q 1991 1309 1228 531 
z
" transform="scale(0.015625)"/>
       </defs>
       <use xlink:href="#DejaVuSans-31" transform="translate(0 0.765625)"/>
       <use xlink:href="#DejaVuSans-30" transform="translate(63.623047 0.765625)"/>
       <use xlink:href="#DejaVuSans-32" transform="translate(128.203125 39.046875) scale(0.7)"/>
      </g>
     </g>
    </g>
    <g id="ytick_5"/>
    <g id="ytick_6"/>
    <g id="ytick_7"/>
    <g id="ytick_8"/>
    <g id="ytick_9"/>
    <g id="ytick_10"/>
    <g id="ytick_11"/>
    <g id="ytick_12"/>
    <g id="ytick_13"/>
    <g id="ytick_14"/>
    <g id="ytick_15"/>
    <g id="ytick_16"/>
    <g id="ytick_17"/>
    <g id="ytick_18"/>
    <g id="ytick_19"/>
    <g id="ytick_20"/>
    <g id="ytick_21"/>
    <g id="ytick_22"/>
    <g id="ytick_23"/>
    <g id="ytick_24"/>
    <g id="ytick_25"/>
    <g id="ytick_26"/>
    <g id="ytick_27"/>
    <g id="ytick_28"/>
    <g id="ytick_29"/>
    <g id="ytick_30"/>
    <g id="ytick_31"/>
    <g id="ytick_32"/>
    <g id="ytick_33"/>
    <g id="ytick_34"/>
    <g id="ytick_35"/>
    <g id="ytick_36"/>
    <g id="ytick_37"/>
    <g id="text_11">
     <!-- Assembly Time per Cell (ms) -->
     <g style="fill: #262626" transform="translate(33.504652 298.133938) rotate(-90) scale(0.2 -0.2)">
      <defs>
       <path id="DejaVuSans-41" d="M 2188 4044 
L 1331 1722 
L 3047 1722 
L 2188 4044 
z
M 1831 4666 
L 2547 4666 
L 4325 0 
L 3669 0 
L 3244 1197 
L 1141 1197 
L 716 0 
L 50 0 
L 1831 4666 
z
" transform="scale(0.015625)"/>
       <path id="DejaVuSans-6d" d="M 3328 2828 
Q 3544 3216 3844 3400 
Q 4144 3584 4550 3584 
Q 5097 3584 5394 3201 
Q 5691 2819 5691 2113 
L 5691 0 
L 5113 0 
L 5113 2094 
Q 5113 2597 4934 2840 
Q 4756 3084 4391 3084 
Q 3944 3084 3684 2787 
Q 3425 2491 3425 1978 
L 3425 0 
L 2847 0 
L 2847 2094 
Q 2847 2600 2669 2842 
Q 2491 3084 2119 3084 
Q 1678 3084 1418 2786 
Q 1159 2488 1159 1978 
L 1159 0 
L 581 0 
L 581 3500 
L 1159 3500 
L 1159 2956 
Q 1356 3278 1631 3431 
Q 1906 3584 2284 3584 
Q 2666 3584 2933 3390 
Q 3200 3197 3328 2828 
z
" transform="scale(0.015625)"/>
       <path id="DejaVuSans-62" d="M 3116 1747 
Q 3116 2381 2855 2742 
Q 2594 3103 2138 3103 
Q 1681 3103 1420 2742 
Q 1159 2381 1159 1747 
Q 1159 1113 1420 752 
Q 1681 391 2138 391 
Q 2594 391 2855 752 
Q 3116 1113 3116 1747 
z
M 1159 2969 
Q 1341 3281 1617 3432 
Q 1894 3584 2278 3584 
Q 2916 3584 3314 3078 
Q 3713 2572 3713 1747 
Q 3713 922 3314 415 
Q 2916 -91 2278 -91 
Q 1894 -91 1617 61 
Q 1341 213 1159 525 
L 1159 0 
L 581 0 
L 581 4863 
L 1159 4863 
L 1159 2969 
z
" transform="scale(0.015625)"/>
       <path id="DejaVuSans-79" d="M 2059 -325 
Q 1816 -950 1584 -1140 
Q 1353 -1331 966 -1331 
L 506 -1331 
L 506 -850 
L 844 -850 
Q 1081 -850 1212 -737 
Q 1344 -625 1503 -206 
L 1606 56 
L 191 3500 
L 800 3500 
L 1894 763 
L 2988 3500 
L 3597 3500 
L 2059 -325 
z
" transform="scale(0.015625)"/>
       <path id="DejaVuSans-20" transform="scale(0.015625)"/>
       <path id="DejaVuSans-54" d="M -19 4666 
L 3928 4666 
L 3928 4134 
L 2272 4134 
L 2272 0 
L 1638 0 
L 1638 4134 
L -19 4134 
L -19 4666 
z
" transform="scale(0.015625)"/>
       <path id="DejaVuSans-69" d="M 603 3500 
L 1178 3500 
L 1178 0 
L 603 0 
L 603 3500 
z
M 603 4863 
L 1178 4863 
L 1178 4134 
L 603 4134 
L 603 4863 
z
" transform="scale(0.015625)"/>
       <path id="DejaVuSans-70" d="M 1159 525 
L 1159 -1331 
L 581 -1331 
L 581 3500 
L 1159 3500 
L 1159 2969 
Q 1341 3281 1617 3432 
Q 1894 3584 2278 3584 
Q 2916 3584 3314 3078 
Q 3713 2572 3713 1747 
Q 3713 922 3314 415 
Q 2916 -91 2278 -91 
Q 1894 -91 1617 61 
Q 1341 213 1159 525 
z
M 3116 1747 
Q 3116 2381 2855 2742 
Q 2594 3103 2138 3103 
Q 1681 3103 1420 2742 
Q 1159 2381 1159 1747 
Q 1159 1113 1420 752 
Q 1681 391 2138 391 
Q 2594 391 2855 752 
Q 3116 1113 3116 1747 
z
" transform="scale(0.015625)"/>
       <path id="DejaVuSans-72" d="M 2631 2963 
Q 2534 3019 2420 3045 
Q 2306 3072 2169 3072 
Q 1681 3072 1420 2755 
Q 1159 2438 1159 1844 
L 1159 0 
L 581 0 
L 581 3500 
L 1159 3500 
L 1159 2956 
Q 1341 3275 1631 3429 
Q 1922 3584 2338 3584 
Q 2397 3584 2469 3576 
Q 2541 3569 2628 3553 
L 2631 2963 
z
" transform="scale(0.015625)"/>
       <path id="DejaVuSans-28" d="M 1984 4856 
Q 1566 4138 1362 3434 
Q 1159 2731 1159 2009 
Q 1159 1288 1364 580 
Q 1569 -128 1984 -844 
L 1484 -844 
Q 1016 -109 783 600 
Q 550 1309 550 2009 
Q 550 2706 781 3412 
Q 1013 4119 1484 4856 
L 1984 4856 
z
" transform="scale(0.015625)"/>
       <path id="DejaVuSans-29" d="M 513 4856 
L 1013 4856 
Q 1481 4119 1714 3412 
Q 1947 2706 1947 2009 
Q 1947 1309 1714 600 
Q 1481 -109 1013 -844 
L 513 -844 
Q 928 -128 1133 580 
Q 1338 1288 1338 2009 
Q 1338 2731 1133 3434 
Q 928 4138 513 4856 
z
" transform="scale(0.015625)"/>
      </defs>
      <use xlink:href="#DejaVuSans-41"/>
      <use xlink:href="#DejaVuSans-73" transform="translate(68.408203 0)"/>
      <use xlink:href="#DejaVuSans-73" transform="translate(120.507812 0)"/>
      <use xlink:href="#DejaVuSans-65" transform="translate(172.607422 0)"/>
      <use xlink:href="#DejaVuSans-6d" transform="translate(234.130859 0)"/>
      <use xlink:href="#DejaVuSans-62" transform="translate(331.542969 0)"/>
      <use xlink:href="#DejaVuSans-6c" transform="translate(395.019531 0)"/>
      <use xlink:href="#DejaVuSans-79" transform="translate(422.802734 0)"/>
      <use xlink:href="#DejaVuSans-20" transform="translate(481.982422 0)"/>
      <use xlink:href="#DejaVuSans-54" transform="translate(513.769531 0)"/>
      <use xlink:href="#DejaVuSans-69" transform="translate(571.728516 0)"/>
      <use xlink:href="#DejaVuSans-6d" transform="translate(599.511719 0)"/>
      <use xlink:href="#DejaVuSans-65" transform="translate(696.923828 0)"/>
      <use xlink:href="#DejaVuSans-20" transform="translate(758.447266 0)"/>
      <use xlink:href="#DejaVuSans-70" transform="translate(790.234375 0)"/>
      <use xlink:href="#DejaVuSans-65" transform="translate(853.710938 0)"/>
      <use xlink:href="#DejaVuSans-72" transform="translate(915.234375 0)"/>
      <use xlink:href="#DejaVuSans-20" transform="translate(956.347656 0)"/>
      <use xlink:href="#DejaVuSans-43" transform="translate(988.134766 0)"/>
      <use xlink:href="#DejaVuSans-65" transform="translate(1057.958984 0)"/>
      <use xlink:href="#DejaVuSans-6c" transform="translate(1119.482422 0)"/>
      <use xlink:href="#DejaVuSans-6c" transform="translate(1147.265625 0)"/>
      <use xlink:href="#DejaVuSans-20" transform="translate(1175.048828 0)"/>
      <use xlink:href="#DejaVuSans-28" transform="translate(1206.835938 0)"/>
      <use xlink:href="#DejaVuSans-6d" transform="translate(1245.849609 0)"/>
      <use xlink:href="#DejaVuSans-73" transform="translate(1343.261719 0)"/>
      <use xlink:href="#DejaVuSans-29" transform="translate(1395.361328 0)"/>
     </g>
    </g>
   </g>
   <g id="PathCollection_1">
    <path d="M 392.307373 141.713282 
C 393.334501 141.713282 394.319698 141.3052 395.045986 140.578912 
C 395.772275 139.852623 396.180357 138.867426 396.180357 137.840299 
C 396.180357 136.813172 395.772275 135.827975 395.045986 135.101686 
C 394.319698 134.375397 393.334501 133.967315 392.307373 133.967315 
C 391.280246 133.967315 390.295049 134.375397 389.568761 135.101686 
C 388.842472 135.827975 388.43439 136.813172 388.43439 137.840299 
C 388.43439 138.867426 388.842472 139.852623 389.568761 140.578912 
C 390.295049 141.3052 391.280246 141.713282 392.307373 141.713282 
z
" clip-path="url(#pdb97d1d645)" style="fill: #4c72b0; stroke: #ffffff; stroke-width: 0.619677"/>
    <path d="M 390.370882 145.548184 
L 392.307373 143.611692 
L 394.243865 145.548184 
L 396.180357 143.611692 
L 394.243865 141.675201 
L 396.180357 139.738709 
L 394.243865 137.802217 
L 392.307373 139.738709 
L 390.370882 137.802217 
L 388.43439 139.738709 
L 390.370882 141.675201 
L 388.43439 143.611692 
z
" clip-path="url(#pdb97d1d645)" style="fill: #dd8452; stroke: #ffffff; stroke-width: 0.619677"/>
    <path d="M 389.568761 106.09216 
L 389.568761 111.569386 
L 395.045986 111.569386 
L 395.045986 106.09216 
z
" clip-path="url(#pdb97d1d645)" style="fill: #55a868; stroke: #ffffff; stroke-width: 0.619677"/>
    <path d="M 391.016379 128.635556 
L 393.598368 128.635556 
L 393.598368 126.053567 
L 396.180357 126.053567 
L 396.180357 123.471578 
L 393.598368 123.471578 
L 393.598368 120.889589 
L 391.016379 120.889589 
L 391.016379 123.471578 
L 388.43439 123.471578 
L 388.43439 126.053567 
L 391.016379 126.053567 
z
" clip-path="url(#pdb97d1d645)" style="fill: #c44e52; stroke: #ffffff; stroke-width: 0.619677"/>
    <path d="M 327.540935 184.688864 
C 328.568062 184.688864 329.553259 184.280783 330.279548 183.554494 
C 331.005837 182.828205 331.413918 181.843008 331.413918 180.815881 
C 331.413918 179.788754 331.005837 178.803557 330.279548 178.077268 
C 329.553259 177.35098 328.568062 176.942898 327.540935 176.942898 
C 326.513808 176.942898 325.528611 177.35098 324.802322 178.077268 
C 324.076034 178.803557 323.667952 179.788754 323.667952 180.815881 
C 323.667952 181.843008 324.076034 182.828205 324.802322 183.554494 
C 325.528611 184.280783 326.513808 184.688864 327.540935 184.688864 
z
" clip-path="url(#pdb97d1d645)" style="fill: #4c72b0; stroke: #ffffff; stroke-width: 0.619677"/>
    <path d="M 325.604443 189.488422 
L 327.540935 187.55193 
L 329.477427 189.488422 
L 331.413918 187.55193 
L 329.477427 185.615438 
L 331.413918 183.678947 
L 329.477427 181.742455 
L 327.540935 183.678947 
L 325.604443 181.742455 
L 323.667952 183.678947 
L 325.604443 185.615438 
L 323.667952 187.55193 
z
" clip-path="url(#pdb97d1d645)" style="fill: #dd8452; stroke: #ffffff; stroke-width: 0.619677"/>
    <path d="M 324.802322 171.751158 
L 324.802322 177.228383 
L 330.279548 177.228383 
L 330.279548 171.751158 
z
" clip-path="url(#pdb97d1d645)" style="fill: #55a868; stroke: #ffffff; stroke-width: 0.619677"/>
    <path d="M 326.249941 171.635644 
L 328.83193 171.635644 
L 328.83193 169.053655 
L 331.413918 169.053655 
L 331.413918 166.471666 
L 328.83193 166.471666 
L 328.83193 163.889677 
L 326.249941 163.889677 
L 326.249941 166.471666 
L 323.667952 166.471666 
L 323.667952 169.053655 
L 326.249941 169.053655 
z
" clip-path="url(#pdb97d1d645)" style="fill: #c44e52; stroke: #ffffff; stroke-width: 0.619677"/>
    <path d="M 201.276193 245.050631 
C 202.30332 245.050631 203.288517 244.642549 204.014805 243.916261 
C 204.741094 243.189972 205.149176 242.204775 205.149176 241.177648 
C 205.149176 240.150521 204.741094 239.165324 204.014805 238.439035 
C 203.288517 237.712746 202.30332 237.304664 201.276193 237.304664 
C 200.249065 237.304664 199.263868 237.712746 198.53758 238.439035 
C 197.811291 239.165324 197.403209 240.150521 197.403209 241.177648 
C 197.403209 242.204775 197.811291 243.189972 198.53758 243.916261 
C 199.263868 244.642549 200.249065 245.050631 201.276193 245.050631 
z
" clip-path="url(#pdb97d1d645)" style="fill: #4c72b0; stroke: #ffffff; stroke-width: 0.619677"/>
    <path d="M 199.339701 256.193716 
L 201.276193 254.257224 
L 203.212684 256.193716 
L 205.149176 254.257224 
L 203.212684 252.320733 
L 205.149176 250.384241 
L 203.212684 248.447749 
L 201.276193 250.384241 
L 199.339701 248.447749 
L 197.403209 250.384241 
L 199.339701 252.320733 
L 197.403209 254.257224 
z
" clip-path="url(#pdb97d1d645)" style="fill: #dd8452; stroke: #ffffff; stroke-width: 0.619677"/>
    <path d="M 198.53758 218.508643 
L 198.53758 223.985869 
L 204.014805 223.985869 
L 204.014805 218.508643 
z
" clip-path="url(#pdb97d1d645)" style="fill: #55a868; stroke: #ffffff; stroke-width: 0.619677"/>
    <path d="M 199.985198 255.573063 
L 202.567187 255.573063 
L 202.567187 252.991074 
L 205.149176 252.991074 
L 205.149176 250.409085 
L 202.567187 250.409085 
L 202.567187 247.827096 
L 199.985198 247.827096 
L 199.985198 250.409085 
L 197.403209 250.409085 
L 197.403209 252.991074 
L 199.985198 252.991074 
z
" clip-path="url(#pdb97d1d645)" style="fill: #c44e52; stroke: #ffffff; stroke-width: 0.619677"/>
    <path d="M 105.760602 265.622141 
C 106.787729 265.622141 107.772926 265.214059 108.499215 264.48777 
C 109.225504 263.761482 109.633586 262.776285 109.633586 261.749157 
C 109.633586 260.72203 109.225504 259.736833 108.499215 259.010545 
C 107.772926 258.284256 106.787729 257.876174 105.760602 257.876174 
C 104.733475 257.876174 103.748278 258.284256 103.021989 259.010545 
C 102.295701 259.736833 101.887619 260.72203 101.887619 261.749157 
C 101.887619 262.776285 102.295701 263.761482 103.021989 264.48777 
C 103.748278 265.214059 104.733475 265.622141 105.760602 265.622141 
z
" clip-path="url(#pdb97d1d645)" style="fill: #4c72b0; stroke: #ffffff; stroke-width: 0.619677"/>
    <path d="M 103.824111 278.403743 
L 105.760602 276.467252 
L 107.697094 278.403743 
L 109.633586 276.467252 
L 107.697094 274.53076 
L 109.633586 272.594268 
L 107.697094 270.657777 
L 105.760602 272.594268 
L 103.824111 270.657777 
L 101.887619 272.594268 
L 103.824111 274.53076 
L 101.887619 276.467252 
z
" clip-path="url(#pdb97d1d645)" style="fill: #dd8452; stroke: #ffffff; stroke-width: 0.619677"/>
    <path d="M 103.021989 223.925002 
L 103.021989 229.402228 
L 108.499215 229.402228 
L 108.499215 223.925002 
z
" clip-path="url(#pdb97d1d645)" style="fill: #55a868; stroke: #ffffff; stroke-width: 0.619677"/>
    <path d="M 104.469608 283.182256 
L 107.051597 283.182256 
L 107.051597 280.600267 
L 109.633586 280.600267 
L 109.633586 278.018278 
L 107.051597 278.018278 
L 107.051597 275.436289 
L 104.469608 275.436289 
L 104.469608 278.018278 
L 101.887619 278.018278 
L 101.887619 280.600267 
L 104.469608 280.600267 
z
" clip-path="url(#pdb97d1d645)" style="fill: #c44e52; stroke: #ffffff; stroke-width: 0.619677"/>
    <path d="M 257.149231 218.924864 
C 258.176358 218.924864 259.161555 218.516782 259.887844 217.790494 
C 260.614133 217.064205 261.022215 216.079008 261.022215 215.051881 
C 261.022215 214.024754 260.614133 213.039557 259.887844 212.313268 
C 259.161555 211.58698 258.176358 211.178898 257.149231 211.178898 
C 256.122104 211.178898 255.136907 211.58698 254.410618 212.313268 
C 253.68433 213.039557 253.276248 214.024754 253.276248 215.051881 
C 253.276248 216.079008 253.68433 217.064205 254.410618 217.790494 
C 255.136907 218.516782 256.122104 218.924864 257.149231 218.924864 
z
" clip-path="url(#pdb97d1d645)" style="fill: #4c72b0; stroke: #ffffff; stroke-width: 0.619677"/>
    <path d="M 255.21274 227.894397 
L 257.149231 225.957905 
L 259.085723 227.894397 
L 261.022215 225.957905 
L 259.085723 224.021414 
L 261.022215 222.084922 
L 259.085723 220.14843 
L 257.149231 222.084922 
L 255.21274 220.14843 
L 253.276248 222.084922 
L 255.21274 224.021414 
L 253.276248 225.957905 
z
" clip-path="url(#pdb97d1d645)" style="fill: #dd8452; stroke: #ffffff; stroke-width: 0.619677"/>
    <path d="M 254.410618 206.427414 
L 254.410618 211.904639 
L 259.887844 211.904639 
L 259.887844 206.427414 
z
" clip-path="url(#pdb97d1d645)" style="fill: #55a868; stroke: #ffffff; stroke-width: 0.619677"/>
    <path d="M 255.858237 223.313378 
L 258.440226 223.313378 
L 258.440226 220.731389 
L 261.022215 220.731389 
L 261.022215 218.1494 
L 258.440226 218.1494 
L 258.440226 215.567412 
L 255.858237 215.567412 
L 255.858237 218.1494 
L 253.276248 218.1494 
L 253.276248 220.731389 
L 255.858237 220.731389 
z
" clip-path="url(#pdb97d1d645)" style="fill: #c44e52; stroke: #ffffff; stroke-width: 0.619677"/>
    <path d="M 296.791783 197.948591 
C 297.81891 197.948591 298.804107 197.540509 299.530396 196.814221 
C 300.256684 196.087932 300.664766 195.102735 300.664766 194.075608 
C 300.664766 193.048481 300.256684 192.063284 299.530396 191.336995 
C 298.804107 190.610707 297.81891 190.202625 296.791783 190.202625 
C 295.764656 190.202625 294.779459 190.610707 294.05317 191.336995 
C 293.326882 192.063284 292.9188 193.048481 292.9188 194.075608 
C 292.9188 195.102735 293.326882 196.087932 294.05317 196.814221 
C 294.779459 197.540509 295.764656 197.948591 296.791783 197.948591 
z
" clip-path="url(#pdb97d1d645)" style="fill: #4c72b0; stroke: #ffffff; stroke-width: 0.619677"/>
    <path d="M 294.855291 204.429203 
L 296.791783 202.492712 
L 298.728275 204.429203 
L 300.664766 202.492712 
L 298.728275 200.55622 
L 300.664766 198.619728 
L 298.728275 196.683237 
L 296.791783 198.619728 
L 294.855291 196.683237 
L 292.9188 198.619728 
L 294.855291 200.55622 
L 292.9188 202.492712 
z
" clip-path="url(#pdb97d1d645)" style="fill: #dd8452; stroke: #ffffff; stroke-width: 0.619677"/>
    <path d="M 294.05317 188.090548 
L 294.05317 193.567774 
L 299.530396 193.567774 
L 299.530396 188.090548 
z
" clip-path="url(#pdb97d1d645)" style="fill: #55a868; stroke: #ffffff; stroke-width: 0.619677"/>
    <path d="M 295.500789 200.998997 
L 298.082778 200.998997 
L 298.082778 198.417008 
L 300.664766 198.417008 
L 300.664766 195.83502 
L 298.082778 195.83502 
L 298.082778 193.253031 
L 295.500789 193.253031 
L 295.500789 195.83502 
L 292.9188 195.83502 
L 292.9188 198.417008 
L 295.500789 198.417008 
z
" clip-path="url(#pdb97d1d645)" style="fill: #c44e52; stroke: #ffffff; stroke-width: 0.619677"/>
    <path d="M 352.664822 171.17213 
C 353.691949 171.17213 354.677146 170.764048 355.403434 170.03776 
C 356.129723 169.311471 356.537805 168.326274 356.537805 167.299147 
C 356.537805 166.27202 356.129723 165.286823 355.403434 164.560534 
C 354.677146 163.834246 353.691949 163.426164 352.664822 163.426164 
C 351.637694 163.426164 350.652497 163.834246 349.926209 164.560534 
C 349.19992 165.286823 348.791838 166.27202 348.791838 167.299147 
C 348.791838 168.326274 349.19992 169.311471 349.926209 170.03776 
C 350.652497 170.764048 351.637694 171.17213 352.664822 171.17213 
z
" clip-path="url(#pdb97d1d645)" style="fill: #4c72b0; stroke: #ffffff; stroke-width: 0.619677"/>
    <path d="M 350.72833 174.780963 
L 352.664822 172.844472 
L 354.601313 174.780963 
L 356.537805 172.844472 
L 354.601313 170.90798 
L 356.537805 168.971488 
L 354.601313 167.034997 
L 352.664822 168.971488 
L 350.72833 167.034997 
L 348.791838 168.971488 
L 350.72833 170.90798 
L 348.791838 172.844472 
z
" clip-path="url(#pdb97d1d645)" style="fill: #dd8452; stroke: #ffffff; stroke-width: 0.619677"/>
    <path d="M 349.926209 137.317898 
L 349.926209 142.795124 
L 355.403434 142.795124 
L 355.403434 137.317898 
z
" clip-path="url(#pdb97d1d645)" style="fill: #55a868; stroke: #ffffff; stroke-width: 0.619677"/>
    <path d="M 351.373827 153.25854 
L 353.955816 153.25854 
L 353.955816 150.676551 
L 356.537805 150.676551 
L 356.537805 148.094562 
L 353.955816 148.094562 
L 353.955816 145.512573 
L 351.373827 145.512573 
L 351.373827 148.094562 
L 348.791838 148.094562 
L 348.791838 150.676551 
L 351.373827 150.676551 
z
" clip-path="url(#pdb97d1d645)" style="fill: #c44e52; stroke: #ffffff; stroke-width: 0.619677"/>
    <path d="M 373.906765 155.470598 
C 374.933892 155.470598 375.919089 155.062516 376.645378 154.336227 
C 377.371667 153.609939 377.779748 152.624742 377.779748 151.597614 
C 377.779748 150.570487 377.371667 149.58529 376.645378 148.859002 
C 375.919089 148.132713 374.933892 147.724631 373.906765 147.724631 
C 372.879638 147.724631 371.894441 148.132713 371.168152 148.859002 
C 370.441864 149.58529 370.033782 150.570487 370.033782 151.597614 
C 370.033782 152.624742 370.441864 153.609939 371.168152 154.336227 
C 371.894441 155.062516 372.879638 155.470598 373.906765 155.470598 
z
" clip-path="url(#pdb97d1d645)" style="fill: #4c72b0; stroke: #ffffff; stroke-width: 0.619677"/>
    <path d="M 371.970273 158.147548 
L 373.906765 156.211057 
L 375.843257 158.147548 
L 377.779748 156.211057 
L 375.843257 154.274565 
L 377.779748 152.338073 
L 375.843257 150.401582 
L 373.906765 152.338073 
L 371.970273 150.401582 
L 370.033782 152.338073 
L 371.970273 154.274565 
L 370.033782 156.211057 
z
" clip-path="url(#pdb97d1d645)" style="fill: #dd8452; stroke: #ffffff; stroke-width: 0.619677"/>
    <path d="M 371.168152 119.964015 
L 371.168152 125.44124 
L 376.645378 125.44124 
L 376.645378 119.964015 
z
" clip-path="url(#pdb97d1d645)" style="fill: #55a868; stroke: #ffffff; stroke-width: 0.619677"/>
    <path d="M 372.615771 140.310156 
L 375.19776 140.310156 
L 375.19776 137.728168 
L 377.779748 137.728168 
L 377.779748 135.146179 
L 375.19776 135.146179 
L 375.19776 132.56419 
L 372.615771 132.56419 
L 372.615771 135.146179 
L 370.033782 135.146179 
L 370.033782 137.728168 
L 372.615771 137.728168 
z
" clip-path="url(#pdb97d1d645)" style="fill: #c44e52; stroke: #ffffff; stroke-width: 0.619677"/>
    <path d="M 408.53786 131.404153 
C 409.564987 131.404153 410.550184 130.996071 411.276473 130.269783 
C 412.002762 129.543494 412.410844 128.558297 412.410844 127.53117 
C 412.410844 126.504043 412.002762 125.518846 411.276473 124.792557 
C 410.550184 124.066269 409.564987 123.658187 408.53786 123.658187 
C 407.510733 123.658187 406.525536 124.066269 405.799248 124.792557 
C 405.072959 125.518846 404.664877 126.504043 404.664877 127.53117 
C 404.664877 128.558297 405.072959 129.543494 405.799248 130.269783 
C 406.525536 130.996071 407.510733 131.404153 408.53786 131.404153 
z
" clip-path="url(#pdb97d1d645)" style="fill: #4c72b0; stroke: #ffffff; stroke-width: 0.619677"/>
    <path d="M 406.601369 135.42576 
L 408.53786 133.489269 
L 410.474352 135.42576 
L 412.410844 133.489269 
L 410.474352 131.552777 
L 412.410844 129.616285 
L 410.474352 127.679794 
L 408.53786 129.616285 
L 406.601369 127.679794 
L 404.664877 129.616285 
L 406.601369 131.552777 
L 404.664877 133.489269 
z
" clip-path="url(#pdb97d1d645)" style="fill: #dd8452; stroke: #ffffff; stroke-width: 0.619677"/>
    <path d="M 405.799248 95.531749 
L 405.799248 101.008975 
L 411.276473 101.008975 
L 411.276473 95.531749 
z
" clip-path="url(#pdb97d1d645)" style="fill: #55a868; stroke: #ffffff; stroke-width: 0.619677"/>
    <path d="M 407.246866 119.36249 
L 409.828855 119.36249 
L 409.828855 116.780501 
L 412.410844 116.780501 
L 412.410844 114.198512 
L 409.828855 114.198512 
L 409.828855 111.616523 
L 407.246866 111.616523 
L 407.246866 114.198512 
L 404.664877 114.198512 
L 404.664877 116.780501 
L 407.246866 116.780501 
z
" clip-path="url(#pdb97d1d645)" style="fill: #c44e52; stroke: #ffffff; stroke-width: 0.619677"/>
    <path d="M 423.056526 124.258494 
C 424.083653 124.258494 425.06885 123.850412 425.795138 123.124123 
C 426.521427 122.397835 426.929509 121.412638 426.929509 120.385511 
C 426.929509 119.358383 426.521427 118.373186 425.795138 117.646898 
C 425.06885 116.920609 424.083653 116.512527 423.056526 116.512527 
C 422.029398 116.512527 421.044201 116.920609 420.317913 117.646898 
C 419.591624 118.373186 419.183542 119.358383 419.183542 120.385511 
C 419.183542 121.412638 419.591624 122.397835 420.317913 123.124123 
C 421.044201 123.850412 422.029398 124.258494 423.056526 124.258494 
z
" clip-path="url(#pdb97d1d645)" style="fill: #4c72b0; stroke: #ffffff; stroke-width: 0.619677"/>
    <path d="M 421.120034 127.010922 
L 423.056526 125.074431 
L 424.993017 127.010922 
L 426.929509 125.074431 
L 424.993017 123.137939 
L 426.929509 121.201447 
L 424.993017 119.264956 
L 423.056526 121.201447 
L 421.120034 119.264956 
L 419.183542 121.201447 
L 421.120034 123.137939 
L 419.183542 125.074431 
z
" clip-path="url(#pdb97d1d645)" style="fill: #dd8452; stroke: #ffffff; stroke-width: 0.619677"/>
    <path d="M 420.317913 85.965439 
L 420.317913 91.442665 
L 425.795138 91.442665 
L 425.795138 85.965439 
z
" clip-path="url(#pdb97d1d645)" style="fill: #55a868; stroke: #ffffff; stroke-width: 0.619677"/>
    <path d="M 421.765531 109.276806 
L 424.34752 109.276806 
L 424.34752 106.694817 
L 426.929509 106.694817 
L 426.929509 104.112828 
L 424.34752 104.112828 
L 424.34752 101.530839 
L 421.765531 101.530839 
L 421.765531 104.112828 
L 419.183542 104.112828 
L 419.183542 106.694817 
L 421.765531 106.694817 
z
" clip-path="url(#pdb97d1d645)" style="fill: #c44e52; stroke: #ffffff; stroke-width: 0.619677"/>
    <path d="M 448.180412 108.293137 
C 449.207539 108.293137 450.192736 107.885056 450.919025 107.158767 
C 451.645313 106.432478 452.053395 105.447281 452.053395 104.420154 
C 452.053395 103.393027 451.645313 102.40783 450.919025 101.681541 
C 450.192736 100.955253 449.207539 100.547171 448.180412 100.547171 
C 447.153285 100.547171 446.168088 100.955253 445.441799 101.681541 
C 444.715511 102.40783 444.307429 103.393027 444.307429 104.420154 
C 444.307429 105.447281 444.715511 106.432478 445.441799 107.158767 
C 446.168088 107.885056 447.153285 108.293137 448.180412 108.293137 
z
" clip-path="url(#pdb97d1d645)" style="fill: #4c72b0; stroke: #ffffff; stroke-width: 0.619677"/>
    <path d="M 446.24392 111.285722 
L 448.180412 109.34923 
L 450.116904 111.285722 
L 452.053395 109.34923 
L 450.116904 107.412738 
L 452.053395 105.476247 
L 450.116904 103.539755 
L 448.180412 105.476247 
L 446.24392 103.539755 
L 444.307429 105.476247 
L 446.24392 107.412738 
L 444.307429 109.34923 
z
" clip-path="url(#pdb97d1d645)" style="fill: #dd8452; stroke: #ffffff; stroke-width: 0.619677"/>
    <path d="M 445.441799 71.334265 
L 445.441799 76.811491 
L 450.919025 76.811491 
L 450.919025 71.334265 
z
" clip-path="url(#pdb97d1d645)" style="fill: #55a868; stroke: #ffffff; stroke-width: 0.619677"/>
    <path d="M 446.889418 97.695951 
L 449.471407 97.695951 
L 449.471407 95.113962 
L 452.053395 95.113962 
L 452.053395 92.531973 
L 449.471407 92.531973 
L 449.471407 89.949984 
L 446.889418 89.949984 
L 446.889418 92.531973 
L 444.307429 92.531973 
L 444.307429 95.113962 
L 446.889418 95.113962 
z
" clip-path="url(#pdb97d1d645)" style="fill: #c44e52; stroke: #ffffff; stroke-width: 0.619677"/>
    <path d="M 469.422356 96.14014 
C 470.449483 96.14014 471.43468 95.732058 472.160968 95.005769 
C 472.887257 94.279481 473.295339 93.294284 473.295339 92.267157 
C 473.295339 91.24003 472.887257 90.254833 472.160968 89.528544 
C 471.43468 88.802255 470.449483 88.394173 469.422356 88.394173 
C 468.395228 88.394173 467.410031 88.802255 466.683743 89.528544 
C 465.957454 90.254833 465.549372 91.24003 465.549372 92.267157 
C 465.549372 93.294284 465.957454 94.279481 466.683743 95.005769 
C 467.410031 95.732058 468.395228 96.14014 469.422356 96.14014 
z
" clip-path="url(#pdb97d1d645)" style="fill: #4c72b0; stroke: #ffffff; stroke-width: 0.619677"/>
    <path d="M 467.485864 98.047792 
L 469.422356 96.1113 
L 471.358847 98.047792 
L 473.295339 96.1113 
L 471.358847 94.174809 
L 473.295339 92.238317 
L 471.358847 90.301825 
L 469.422356 92.238317 
L 467.485864 90.301825 
L 465.549372 92.238317 
L 467.485864 94.174809 
L 465.549372 96.1113 
z
" clip-path="url(#pdb97d1d645)" style="fill: #dd8452; stroke: #ffffff; stroke-width: 0.619677"/>
    <path d="M 466.683743 58.243712 
L 466.683743 63.720937 
L 472.160968 63.720937 
L 472.160968 58.243712 
z
" clip-path="url(#pdb97d1d645)" style="fill: #55a868; stroke: #ffffff; stroke-width: 0.619677"/>
    <path d="M 468.131361 83.304017 
L 470.71335 83.304017 
L 470.71335 80.722028 
L 473.295339 80.722028 
L 473.295339 78.140039 
L 470.71335 78.140039 
L 470.71335 75.55805 
L 468.131361 75.55805 
L 468.131361 78.140039 
L 465.549372 78.140039 
L 465.549372 80.722028 
L 468.131361 80.722028 
z
" clip-path="url(#pdb97d1d645)" style="fill: #c44e52; stroke: #ffffff; stroke-width: 0.619677"/>
    <path d="M 487.822964 83.853167 
C 488.850091 83.853167 489.835288 83.445085 490.561577 82.718797 
C 491.287865 81.992508 491.695947 81.007311 491.695947 79.980184 
C 491.695947 78.953057 491.287865 77.96786 490.561577 77.241571 
C 489.835288 76.515283 488.850091 76.107201 487.822964 76.107201 
C 486.795837 76.107201 485.81064 76.515283 485.084351 77.241571 
C 484.358062 77.96786 483.949981 78.953057 483.949981 79.980184 
C 483.949981 81.007311 484.358062 81.992508 485.084351 82.718797 
C 485.81064 83.445085 486.795837 83.853167 487.822964 83.853167 
z
" clip-path="url(#pdb97d1d645)" style="fill: #4c72b0; stroke: #ffffff; stroke-width: 0.619677"/>
    <path d="M 485.886472 84.522085 
L 487.822964 82.585593 
L 489.759456 84.522085 
L 491.695947 82.585593 
L 489.759456 80.649102 
L 491.695947 78.71261 
L 489.759456 76.776118 
L 487.822964 78.71261 
L 485.886472 76.776118 
L 483.949981 78.71261 
L 485.886472 80.649102 
L 483.949981 82.585593 
z
" clip-path="url(#pdb97d1d645)" style="fill: #dd8452; stroke: #ffffff; stroke-width: 0.619677"/>
    <path d="M 485.084351 46.666684 
L 485.084351 52.143909 
L 490.561577 52.143909 
L 490.561577 46.666684 
z
" clip-path="url(#pdb97d1d645)" style="fill: #55a868; stroke: #ffffff; stroke-width: 0.619677"/>
    <path d="M 486.531969 71.603084 
L 489.113958 71.603084 
L 489.113958 69.021095 
L 491.695947 69.021095 
L 491.695947 66.439106 
L 489.113958 66.439106 
L 489.113958 63.857117 
L 486.531969 63.857117 
L 486.531969 66.439106 
L 483.949981 66.439106 
L 483.949981 69.021095 
L 486.531969 69.021095 
z
" clip-path="url(#pdb97d1d645)" style="fill: #c44e52; stroke: #ffffff; stroke-width: 0.619677"/>
    <path d="M 504.053451 75.932652 
C 505.080578 75.932652 506.065775 75.52457 506.792064 74.798281 
C 507.518352 74.071993 507.926434 73.086796 507.926434 72.059669 
C 507.926434 71.032542 507.518352 70.047345 506.792064 69.321056 
C 506.065775 68.594767 505.080578 68.186685 504.053451 68.186685 
C 503.026324 68.186685 502.041127 68.594767 501.314838 69.321056 
C 500.588549 70.047345 500.180467 71.032542 500.180467 72.059669 
C 500.180467 73.086796 500.588549 74.071993 501.314838 74.798281 
C 502.041127 75.52457 503.026324 75.932652 504.053451 75.932652 
z
" clip-path="url(#pdb97d1d645)" style="fill: #4c72b0; stroke: #ffffff; stroke-width: 0.619677"/>
    <path d="M 502.116959 77.569209 
L 504.053451 75.632718 
L 505.989942 77.569209 
L 507.926434 75.632718 
L 505.989942 73.696226 
L 507.926434 71.759734 
L 505.989942 69.823243 
L 504.053451 71.759734 
L 502.116959 69.823243 
L 500.180467 71.759734 
L 502.116959 73.696226 
L 500.180467 75.632718 
z
" clip-path="url(#pdb97d1d645)" style="fill: #dd8452; stroke: #ffffff; stroke-width: 0.619677"/>
    <path d="M 501.314838 37.729903 
L 501.314838 43.207128 
L 506.792064 43.207128 
L 506.792064 37.729903 
z
" clip-path="url(#pdb97d1d645)" style="fill: #55a868; stroke: #ffffff; stroke-width: 0.619677"/>
    <path d="M 502.762456 63.472118 
L 505.344445 63.472118 
L 505.344445 60.890129 
L 507.926434 60.890129 
L 507.926434 58.30814 
L 505.344445 58.30814 
L 505.344445 55.726151 
L 502.762456 55.726151 
L 502.762456 58.30814 
L 500.180467 58.30814 
L 500.180467 60.890129 
L 502.762456 60.890129 
z
" clip-path="url(#pdb97d1d645)" style="fill: #c44e52; stroke: #ffffff; stroke-width: 0.619677"/>
    <path d="M 518.572116 66.534826 
C 519.599243 66.534826 520.58444 66.126744 521.310729 65.400456 
C 522.037017 64.674167 522.445099 63.68897 522.445099 62.661843 
C 522.445099 61.634716 522.037017 60.649519 521.310729 59.92323 
C 520.58444 59.196941 519.599243 58.788859 518.572116 58.788859 
C 517.544989 58.788859 516.559792 59.196941 515.833503 59.92323 
C 515.107215 60.649519 514.699133 61.634716 514.699133 62.661843 
C 514.699133 63.68897 515.107215 64.674167 515.833503 65.400456 
C 516.559792 66.126744 517.544989 66.534826 518.572116 66.534826 
z
" clip-path="url(#pdb97d1d645)" style="fill: #4c72b0; stroke: #ffffff; stroke-width: 0.619677"/>
    <path d="M 516.635624 68.059266 
L 518.572116 66.122774 
L 520.508608 68.059266 
L 522.445099 66.122774 
L 520.508608 64.186282 
L 522.445099 62.249791 
L 520.508608 60.313299 
L 518.572116 62.249791 
L 516.635624 60.313299 
L 514.699133 62.249791 
L 516.635624 64.186282 
L 514.699133 66.122774 
z
" clip-path="url(#pdb97d1d645)" style="fill: #dd8452; stroke: #ffffff; stroke-width: 0.619677"/>
    <path d="M 515.833503 27.348114 
L 515.833503 32.82534 
L 521.310729 32.82534 
L 521.310729 27.348114 
z
" clip-path="url(#pdb97d1d645)" style="fill: #55a868; stroke: #ffffff; stroke-width: 0.619677"/>
    <path d="M 517.281121 54.296388 
L 519.86311 54.296388 
L 519.86311 51.7144 
L 522.445099 51.7144 
L 522.445099 49.132411 
L 519.86311 49.132411 
L 519.86311 46.550422 
L 517.281121 46.550422 
L 517.281121 49.132411 
L 514.699133 49.132411 
L 514.699133 51.7144 
L 517.281121 51.7144 
z
" clip-path="url(#pdb97d1d645)" style="fill: #c44e52; stroke: #ffffff; stroke-width: 0.619677"/>
   </g>
   <g id="FillBetweenPolyCollection_1"/>
   <g id="FillBetweenPolyCollection_2"/>
   <g id="FillBetweenPolyCollection_3"/>
   <g id="FillBetweenPolyCollection_4"/>
   <g id="line2d_10"/>
   <g id="line2d_11"/>
   <g id="line2d_12"/>
   <g id="line2d_13"/>
   <g id="line2d_14">
    <path d="M 105.760602 261.749157 
L 201.276193 241.177648 
L 257.149231 215.051881 
L 296.791783 194.075608 
L 327.540935 180.815881 
L 352.664822 167.299147 
L 373.906765 151.597614 
L 392.307373 137.840299 
L 408.53786 127.53117 
L 423.056526 120.385511 
L 448.180412 104.420154 
L 469.422356 92.267157 
L 487.822964 79.980184 
L 504.053451 72.059669 
L 518.572116 62.661843 
" clip-path="url(#pdb97d1d645)" style="fill: none; stroke: #4c72b0; stroke-width: 2; stroke-linecap: round"/>
   </g>
   <g id="line2d_15">
    <path d="M 105.760602 274.53076 
L 201.276193 252.320733 
L 257.149231 224.021414 
L 296.791783 200.55622 
L 327.540935 185.615438 
L 352.664822 170.90798 
L 373.906765 154.274565 
L 392.307373 141.675201 
L 408.53786 131.552777 
L 423.056526 123.137939 
L 448.180412 107.412738 
L 469.422356 94.174809 
L 487.822964 80.649102 
L 504.053451 73.696226 
L 518.572116 64.186282 
" clip-path="url(#pdb97d1d645)" style="fill: none; stroke: #dd8452; stroke-width: 2; stroke-linecap: round"/>
   </g>
   <g id="line2d_16">
    <path d="M 105.760602 226.663615 
L 201.276193 221.247256 
L 257.149231 209.166026 
L 296.791783 190.829161 
L 327.540935 174.489771 
L 352.664822 140.056511 
L 373.906765 122.702628 
L 392.307373 108.830773 
L 408.53786 98.270362 
L 423.056526 88.704052 
L 448.180412 74.072878 
L 469.422356 60.982325 
L 487.822964 49.405297 
L 504.053451 40.468516 
L 518.572116 30.086727 
" clip-path="url(#pdb97d1d645)" style="fill: none; stroke: #55a868; stroke-width: 2; stroke-linecap: round"/>
   </g>
   <g id="line2d_17">
    <path d="M 105.760602 279.309273 
L 201.276193 251.70008 
L 257.149231 219.440395 
L 296.791783 197.126014 
L 327.540935 167.76266 
L 352.664822 149.385556 
L 373.906765 136.437173 
L 392.307373 124.762573 
L 408.53786 115.489506 
L 423.056526 105.403823 
L 448.180412 93.822968 
L 469.422356 79.431034 
L 487.822964 67.730101 
L 504.053451 59.599134 
L 518.572116 50.423405 
" clip-path="url(#pdb97d1d645)" style="fill: none; stroke: #c44e52; stroke-width: 2; stroke-linecap: round"/>
   </g>
   <g id="patch_3">
    <path d="M 85.120027 291.7704 
L 85.120027 17.6256 
" style="fill: none; stroke: #cccccc; stroke-linejoin: miter; stroke-linecap: square"/>
   </g>
   <g id="patch_4">
    <path d="M 85.120027 291.7704 
L 539.212692 291.7704 
" style="fill: none; stroke: #cccccc; stroke-linejoin: miter; stroke-linecap: square"/>
   </g>
   <g id="legend_1">
    <g id="patch_5">
     <path d="M 95.592027 140.7022 
L 294.543664 140.7022 
Q 297.535664 140.7022 297.535664 137.7102 
L 297.535664 28.0976 
Q 297.535664 25.1056 294.543664 25.1056 
L 95.592027 25.1056 
Q 92.600027 25.1056 92.600027 28.0976 
L 92.600027 137.7102 
Q 92.600027 140.7022 95.592027 140.7022 
z
" style="fill: #ffffff; opacity: 0.8; stroke: #cccccc; stroke-width: 0.8; stroke-linejoin: miter"/>
    </g>
    <g id="text_12">
     <!-- Strategy (T=24) -->
     <g style="fill: #262626" transform="translate(128.93742 43.49025) scale(0.1632 -0.1632)">
      <defs>
       <path id="DejaVuSans-53" d="M 3425 4513 
L 3425 3897 
Q 3066 4069 2747 4153 
Q 2428 4238 2131 4238 
Q 1616 4238 1336 4038 
Q 1056 3838 1056 3469 
Q 1056 3159 1242 3001 
Q 1428 2844 1947 2747 
L 2328 2669 
Q 3034 2534 3370 2195 
Q 3706 1856 3706 1288 
Q 3706 609 3251 259 
Q 2797 -91 1919 -91 
Q 1588 -91 1214 -16 
Q 841 59 441 206 
L 441 856 
Q 825 641 1194 531 
Q 1563 422 1919 422 
Q 2459 422 2753 634 
Q 3047 847 3047 1241 
Q 3047 1584 2836 1778 
Q 2625 1972 2144 2069 
L 1759 2144 
Q 1053 2284 737 2584 
Q 422 2884 422 3419 
Q 422 4038 858 4394 
Q 1294 4750 2059 4750 
Q 2388 4750 2728 4690 
Q 3069 4631 3425 4513 
z
" transform="scale(0.015625)"/>
       <path id="DejaVuSans-74" d="M 1172 4494 
L 1172 3500 
L 2356 3500 
L 2356 3053 
L 1172 3053 
L 1172 1153 
Q 1172 725 1289 603 
Q 1406 481 1766 481 
L 2356 481 
L 2356 0 
L 1766 0 
Q 1100 0 847 248 
Q 594 497 594 1153 
L 594 3053 
L 172 3053 
L 172 3500 
L 594 3500 
L 594 4494 
L 1172 4494 
z
" transform="scale(0.015625)"/>
       <path id="DejaVuSans-61" d="M 2194 1759 
Q 1497 1759 1228 1600 
Q 959 1441 959 1056 
Q 959 750 1161 570 
Q 1363 391 1709 391 
Q 2188 391 2477 730 
Q 2766 1069 2766 1631 
L 2766 1759 
L 2194 1759 
z
M 3341 1997 
L 3341 0 
L 2766 0 
L 2766 531 
Q 2569 213 2275 61 
Q 1981 -91 1556 -91 
Q 1019 -91 701 211 
Q 384 513 384 1019 
Q 384 1609 779 1909 
Q 1175 2209 1959 2209 
L 2766 2209 
L 2766 2266 
Q 2766 2663 2505 2880 
Q 2244 3097 1772 3097 
Q 1472 3097 1187 3025 
Q 903 2953 641 2809 
L 641 3341 
Q 956 3463 1253 3523 
Q 1550 3584 1831 3584 
Q 2591 3584 2966 3190 
Q 3341 2797 3341 1997 
z
" transform="scale(0.015625)"/>
       <path id="DejaVuSans-67" d="M 2906 1791 
Q 2906 2416 2648 2759 
Q 2391 3103 1925 3103 
Q 1463 3103 1205 2759 
Q 947 2416 947 1791 
Q 947 1169 1205 825 
Q 1463 481 1925 481 
Q 2391 481 2648 825 
Q 2906 1169 2906 1791 
z
M 3481 434 
Q 3481 -459 3084 -895 
Q 2688 -1331 1869 -1331 
Q 1566 -1331 1297 -1286 
Q 1028 -1241 775 -1147 
L 775 -588 
Q 1028 -725 1275 -790 
Q 1522 -856 1778 -856 
Q 2344 -856 2625 -561 
Q 2906 -266 2906 331 
L 2906 616 
Q 2728 306 2450 153 
Q 2172 0 1784 0 
Q 1141 0 747 490 
Q 353 981 353 1791 
Q 353 2603 747 3093 
Q 1141 3584 1784 3584 
Q 2172 3584 2450 3431 
Q 2728 3278 2906 2969 
L 2906 3500 
L 3481 3500 
L 3481 434 
z
" transform="scale(0.015625)"/>
       <path id="DejaVuSans-3d" d="M 678 2906 
L 4684 2906 
L 4684 2381 
L 678 2381 
L 678 2906 
z
M 678 1631 
L 4684 1631 
L 4684 1100 
L 678 1100 
L 678 1631 
z
" transform="scale(0.015625)"/>
      </defs>
      <use xlink:href="#DejaVuSans-53"/>
      <use xlink:href="#DejaVuSans-74" transform="translate(63.476562 0)"/>
      <use xlink:href="#DejaVuSans-72" transform="translate(102.685547 0)"/>
      <use xlink:href="#DejaVuSans-61" transform="translate(143.798828 0)"/>
      <use xlink:href="#DejaVuSans-74" transform="translate(205.078125 0)"/>
      <use xlink:href="#DejaVuSans-65" transform="translate(244.287109 0)"/>
      <use xlink:href="#DejaVuSans-67" transform="translate(305.810547 0)"/>
      <use xlink:href="#DejaVuSans-79" transform="translate(369.287109 0)"/>
      <use xlink:href="#DejaVuSans-20" transform="translate(428.466797 0)"/>
      <use xlink:href="#DejaVuSans-28" transform="translate(460.253906 0)"/>
      <use xlink:href="#DejaVuSans-54" transform="translate(499.267578 0)"/>
      <use xlink:href="#DejaVuSans-3d" transform="translate(560.351562 0)"/>
      <use xlink:href="#DejaVuSans-32" transform="translate(644.140625 0)"/>
      <use xlink:href="#DejaVuSans-34" transform="translate(707.763672 0)"/>
      <use xlink:href="#DejaVuSans-29" transform="translate(771.386719 0)"/>
     </g>
    </g>
    <g id="line2d_18">
     <defs>
      <path id="mced9118d36" d="M 0 3.872983 
C 1.027127 3.872983 2.012324 3.464901 2.738613 2.738613 
C 3.464901 2.012324 3.872983 1.027127 3.872983 0 
C 3.872983 -1.027127 3.464901 -2.012324 2.738613 -2.738613 
C 2.012324 -3.464901 1.027127 -3.872983 0 -3.872983 
C -1.027127 -3.872983 -2.012324 -3.464901 -2.738613 -2.738613 
C -3.464901 -2.012324 -3.872983 -1.027127 -3.872983 0 
C -3.872983 1.027127 -3.464901 2.012324 -2.738613 2.738613 
C -2.012324 3.464901 -1.027127 3.872983 0 3.872983 
z
"/>
     </defs>
     <g>
      <use xlink:href="#mced9118d36" x="113.544027" y="60.495563" style="fill: #4c72b0"/>
     </g>
    </g>
    <g id="text_13">
     <!-- Face-Based -->
     <g style="fill: #262626" transform="translate(140.472027 65.731563) scale(0.1496 -0.1496)">
      <defs>
       <path id="DejaVuSans-46" d="M 628 4666 
L 3309 4666 
L 3309 4134 
L 1259 4134 
L 1259 2759 
L 3109 2759 
L 3109 2228 
L 1259 2228 
L 1259 0 
L 628 0 
L 628 4666 
z
" transform="scale(0.015625)"/>
       <path id="DejaVuSans-63" d="M 3122 3366 
L 3122 2828 
Q 2878 2963 2633 3030 
Q 2388 3097 2138 3097 
Q 1578 3097 1268 2742 
Q 959 2388 959 1747 
Q 959 1106 1268 751 
Q 1578 397 2138 397 
Q 2388 397 2633 464 
Q 2878 531 3122 666 
L 3122 134 
Q 2881 22 2623 -34 
Q 2366 -91 2075 -91 
Q 1284 -91 818 406 
Q 353 903 353 1747 
Q 353 2603 823 3093 
Q 1294 3584 2113 3584 
Q 2378 3584 2631 3529 
Q 2884 3475 3122 3366 
z
" transform="scale(0.015625)"/>
       <path id="DejaVuSans-2d" d="M 313 2009 
L 1997 2009 
L 1997 1497 
L 313 1497 
L 313 2009 
z
" transform="scale(0.015625)"/>
       <path id="DejaVuSans-42" d="M 1259 2228 
L 1259 519 
L 2272 519 
Q 2781 519 3026 730 
Q 3272 941 3272 1375 
Q 3272 1813 3026 2020 
Q 2781 2228 2272 2228 
L 1259 2228 
z
M 1259 4147 
L 1259 2741 
L 2194 2741 
Q 2656 2741 2882 2914 
Q 3109 3088 3109 3444 
Q 3109 3797 2882 3972 
Q 2656 4147 2194 4147 
L 1259 4147 
z
M 628 4666 
L 2241 4666 
Q 2963 4666 3353 4366 
Q 3744 4066 3744 3513 
Q 3744 3084 3544 2831 
Q 3344 2578 2956 2516 
Q 3422 2416 3680 2098 
Q 3938 1781 3938 1306 
Q 3938 681 3513 340 
Q 3088 0 2303 0 
L 628 0 
L 628 4666 
z
" transform="scale(0.015625)"/>
       <path id="DejaVuSans-64" d="M 2906 2969 
L 2906 4863 
L 3481 4863 
L 3481 0 
L 2906 0 
L 2906 525 
Q 2725 213 2448 61 
Q 2172 -91 1784 -91 
Q 1150 -91 751 415 
Q 353 922 353 1747 
Q 353 2572 751 3078 
Q 1150 3584 1784 3584 
Q 2172 3584 2448 3432 
Q 2725 3281 2906 2969 
z
M 947 1747 
Q 947 1113 1208 752 
Q 1469 391 1925 391 
Q 2381 391 2643 752 
Q 2906 1113 2906 1747 
Q 2906 2381 2643 2742 
Q 2381 3103 1925 3103 
Q 1469 3103 1208 2742 
Q 947 2381 947 1747 
z
" transform="scale(0.015625)"/>
      </defs>
      <use xlink:href="#DejaVuSans-46"/>
      <use xlink:href="#DejaVuSans-61" transform="translate(48.394531 0)"/>
      <use xlink:href="#DejaVuSans-63" transform="translate(109.673828 0)"/>
      <use xlink:href="#DejaVuSans-65" transform="translate(164.654297 0)"/>
      <use xlink:href="#DejaVuSans-2d" transform="translate(226.177734 0)"/>
      <use xlink:href="#DejaVuSans-42" transform="translate(258.636719 0)"/>
      <use xlink:href="#DejaVuSans-61" transform="translate(327.240234 0)"/>
      <use xlink:href="#DejaVuSans-73" transform="translate(388.519531 0)"/>
      <use xlink:href="#DejaVuSans-65" transform="translate(440.619141 0)"/>
      <use xlink:href="#DejaVuSans-64" transform="translate(502.142578 0)"/>
     </g>
    </g>
    <g id="line2d_19">
     <defs>
      <path id="m654e9c9d13" d="M -1.936492 3.872983 
L 0 1.936492 
L 1.936492 3.872983 
L 3.872983 1.936492 
L 1.936492 0 
L 3.872983 -1.936492 
L 1.936492 -3.872983 
L 0 -1.936492 
L -1.936492 -3.872983 
L -3.872983 -1.936492 
L -1.936492 0 
L -3.872983 1.936492 
z
"/>
     </defs>
     <g>
      <use xlink:href="#m654e9c9d13" x="113.544027" y="82.454038" style="fill: #dd8452"/>
     </g>
    </g>
    <g id="text_14">
     <!-- Face-Based Global -->
     <g style="fill: #262626" transform="translate(140.472027 87.690038) scale(0.1496 -0.1496)">
      <defs>
       <path id="DejaVuSans-47" d="M 3809 666 
L 3809 1919 
L 2778 1919 
L 2778 2438 
L 4434 2438 
L 4434 434 
Q 4069 175 3628 42 
Q 3188 -91 2688 -91 
Q 1594 -91 976 548 
Q 359 1188 359 2328 
Q 359 3472 976 4111 
Q 1594 4750 2688 4750 
Q 3144 4750 3555 4637 
Q 3966 4525 4313 4306 
L 4313 3634 
Q 3963 3931 3569 4081 
Q 3175 4231 2741 4231 
Q 1884 4231 1454 3753 
Q 1025 3275 1025 2328 
Q 1025 1384 1454 906 
Q 1884 428 2741 428 
Q 3075 428 3337 486 
Q 3600 544 3809 666 
z
" transform="scale(0.015625)"/>
       <path id="DejaVuSans-6f" d="M 1959 3097 
Q 1497 3097 1228 2736 
Q 959 2375 959 1747 
Q 959 1119 1226 758 
Q 1494 397 1959 397 
Q 2419 397 2687 759 
Q 2956 1122 2956 1747 
Q 2956 2369 2687 2733 
Q 2419 3097 1959 3097 
z
M 1959 3584 
Q 2709 3584 3137 3096 
Q 3566 2609 3566 1747 
Q 3566 888 3137 398 
Q 2709 -91 1959 -91 
Q 1206 -91 779 398 
Q 353 888 353 1747 
Q 353 2609 779 3096 
Q 1206 3584 1959 3584 
z
" transform="scale(0.015625)"/>
      </defs>
      <use xlink:href="#DejaVuSans-46"/>
      <use xlink:href="#DejaVuSans-61" transform="translate(48.394531 0)"/>
      <use xlink:href="#DejaVuSans-63" transform="translate(109.673828 0)"/>
      <use xlink:href="#DejaVuSans-65" transform="translate(164.654297 0)"/>
      <use xlink:href="#DejaVuSans-2d" transform="translate(226.177734 0)"/>
      <use xlink:href="#DejaVuSans-42" transform="translate(258.636719 0)"/>
      <use xlink:href="#DejaVuSans-61" transform="translate(327.240234 0)"/>
      <use xlink:href="#DejaVuSans-73" transform="translate(388.519531 0)"/>
      <use xlink:href="#DejaVuSans-65" transform="translate(440.619141 0)"/>
      <use xlink:href="#DejaVuSans-64" transform="translate(502.142578 0)"/>
      <use xlink:href="#DejaVuSans-20" transform="translate(565.619141 0)"/>
      <use xlink:href="#DejaVuSans-47" transform="translate(597.40625 0)"/>
      <use xlink:href="#DejaVuSans-6c" transform="translate(674.896484 0)"/>
      <use xlink:href="#DejaVuSans-6f" transform="translate(702.679688 0)"/>
      <use xlink:href="#DejaVuSans-62" transform="translate(763.861328 0)"/>
      <use xlink:href="#DejaVuSans-61" transform="translate(827.337891 0)"/>
      <use xlink:href="#DejaVuSans-6c" transform="translate(888.617188 0)"/>
     </g>
    </g>
    <g id="line2d_20">
     <defs>
      <path id="m63912e4929" d="M -2.738613 -2.738613 
L -2.738613 2.738613 
L 2.738613 2.738613 
L 2.738613 -2.738613 
z
"/>
     </defs>
     <g>
      <use xlink:href="#m63912e4929" x="113.544027" y="104.412513" style="fill: #55a868"/>
     </g>
    </g>
    <g id="text_15">
     <!-- Face-Based Batched -->
     <g style="fill: #262626" transform="translate(140.472027 109.648513) scale(0.1496 -0.1496)">
      <defs>
       <path id="DejaVuSans-68" d="M 3513 2113 
L 3513 0 
L 2938 0 
L 2938 2094 
Q 2938 2591 2744 2837 
Q 2550 3084 2163 3084 
Q 1697 3084 1428 2787 
Q 1159 2491 1159 1978 
L 1159 0 
L 581 0 
L 581 4863 
L 1159 4863 
L 1159 2956 
Q 1366 3272 1645 3428 
Q 1925 3584 2291 3584 
Q 2894 3584 3203 3211 
Q 3513 2838 3513 2113 
z
" transform="scale(0.015625)"/>
      </defs>
      <use xlink:href="#DejaVuSans-46"/>
      <use xlink:href="#DejaVuSans-61" transform="translate(48.394531 0)"/>
      <use xlink:href="#DejaVuSans-63" transform="translate(109.673828 0)"/>
      <use xlink:href="#DejaVuSans-65" transform="translate(164.654297 0)"/>
      <use xlink:href="#DejaVuSans-2d" transform="translate(226.177734 0)"/>
      <use xlink:href="#DejaVuSans-42" transform="translate(258.636719 0)"/>
      <use xlink:href="#DejaVuSans-61" transform="translate(327.240234 0)"/>
      <use xlink:href="#DejaVuSans-73" transform="translate(388.519531 0)"/>
      <use xlink:href="#DejaVuSans-65" transform="translate(440.619141 0)"/>
      <use xlink:href="#DejaVuSans-64" transform="translate(502.142578 0)"/>
      <use xlink:href="#DejaVuSans-20" transform="translate(565.619141 0)"/>
      <use xlink:href="#DejaVuSans-42" transform="translate(597.40625 0)"/>
      <use xlink:href="#DejaVuSans-61" transform="translate(666.009766 0)"/>
      <use xlink:href="#DejaVuSans-74" transform="translate(727.289062 0)"/>
      <use xlink:href="#DejaVuSans-63" transform="translate(766.498047 0)"/>
      <use xlink:href="#DejaVuSans-68" transform="translate(821.478516 0)"/>
      <use xlink:href="#DejaVuSans-65" transform="translate(884.857422 0)"/>
      <use xlink:href="#DejaVuSans-64" transform="translate(946.380859 0)"/>
     </g>
    </g>
    <g id="line2d_21">
     <defs>
      <path id="m25dc3249ef" d="M -1.290994 3.872983 
L 1.290994 3.872983 
L 1.290994 1.290994 
L 3.872983 1.290994 
L 3.872983 -1.290994 
L 1.290994 -1.290994 
L 1.290994 -3.872983 
L -1.290994 -3.872983 
L -1.290994 -1.290994 
L -3.872983 -1.290994 
L -3.872983 1.290994 
L -1.290994 1.290994 
z
"/>
     </defs>
     <g>
      <use xlink:href="#m25dc3249ef" x="113.544027" y="126.370988" style="fill: #c44e52"/>
     </g>
    </g>
    <g id="text_16">
     <!-- Cell-Based -->
     <g style="fill: #262626" transform="translate(140.472027 131.606988) scale(0.1496 -0.1496)">
      <use xlink:href="#DejaVuSans-43"/>
      <use xlink:href="#DejaVuSans-65" transform="translate(69.824219 0)"/>
      <use xlink:href="#DejaVuSans-6c" transform="translate(131.347656 0)"/>
      <use xlink:href="#DejaVuSans-6c" transform="translate(159.130859 0)"/>
      <use xlink:href="#DejaVuSans-2d" transform="translate(186.914062 0)"/>
      <use xlink:href="#DejaVuSans-42" transform="translate(219.373047 0)"/>
      <use xlink:href="#DejaVuSans-61" transform="translate(287.976562 0)"/>
      <use xlink:href="#DejaVuSans-73" transform="translate(349.255859 0)"/>
      <use xlink:href="#DejaVuSans-65" transform="translate(401.355469 0)"/>
      <use xlink:href="#DejaVuSans-64" transform="translate(462.878906 0)"/>
     </g>
    </g>
   </g>
  </g>
 </g>
 <defs>
  <clipPath id="pdb97d1d645">
   <rect x="85.120027" y="17.6256" width="454.092665" height="274.1448"/>
  </clipPath>
 </defs>
</svg>
