<?xml version="1.0" encoding="utf-8" standalone="no"?>
<!DOCTYPE svg PUBLIC "-//W3C//DTD SVG 1.1//EN"
  "http://www.w3.org/Graphics/SVG/1.1/DTD/svg11.dtd">
<svg xmlns:xlink="http://www.w3.org/1999/xlink" width="564.606pt" height="360pt" viewBox="0 0 564.606 360" xmlns="http://www.w3.org/2000/svg" version="1.1">
 <metadata>
  <rdf:RDF xmlns:dc="http://purl.org/dc/elements/1.1/" xmlns:cc="http://creativecommons.org/ns#" xmlns:rdf="http://www.w3.org/1999/02/22-rdf-syntax-ns#">
   <cc:Work>
    <dc:type rdf:resource="http://purl.org/dc/dcmitype/StillImage"/>
    <dc:date>2026-04-12T18:00:56.089744</dc:date>
    <dc:format>image/svg+xml</dc:format>
    <dc:creator>
     <cc:Agent>
      <dc:title>Matplotlib v3.10.8, https://matplotlib.org/</dc:title>
     </cc:Agent>
    </dc:creator>
   </cc:Work>
  </rdf:RDF>
 </metadata>
 <defs>
  <style type="text/css">*{stroke-linejoin: round; stroke-linecap: butt}</style>
 </defs>
 <g id="figure_1">
  <g id="patch_1">
   <path d="M 0 360 
L 564.606 360 
L 564.606 0 
L 0 0 
z
" style="fill: #ffffff"/>
  </g>
  <g id="axes_1">
   <g id="patch_2">
    <path d="M 85.491277 291.7704 
L 546.9804 291.7704 
L 546.9804 17.6256 
L 85.491277 17.6256 
z
" style="fill: #ffffff"/>
   </g>
   <g id="matplotlib.axis_1">
    <g id="xtick_1">
     <g id="line2d_1">
      <path d="M 106.468055 291.7704 
L 106.468055 17.6256 
" clip-path="url(#p8d3cf49503)" style="fill: none; stroke: #cccccc; stroke-width: 0.8; stroke-linecap: round"/>
     </g>
     <g id="text_1">
      <!-- $\mathdefault{10^{3}}$ -->
      <g style="fill: #262626" transform="translate(93.303255 311.437662) scale(0.1496 -0.1496)">
       <defs>
        <path id="DejaVuSans-31" d="M 794 531 
L 1825 531 
L 1825 4091 
L 703 3866 
L 703 4441 
L 1819 4666 
L 2450 4666 
L 2450 531 
L 3481 531 
L 3481 0 
L 794 0 
L 794 531 
z
" transform="scale(0.015625)"/>
        <path id="DejaVuSans-30" d="M 2034 4250 
Q 1547 4250 1301 3770 
Q 1056 3291 1056 2328 
Q 1056 1369 1301 889 
Q 1547 409 2034 409 
Q 2525 409 2770 889 
Q 3016 1369 3016 2328 
Q 3016 3291 2770 3770 
Q 2525 4250 2034 4250 
z
M 2034 4750 
Q 2819 4750 3233 4129 
Q 3647 3509 3647 2328 
Q 3647 1150 3233 529 
Q 2819 -91 2034 -91 
Q 1250 -91 836 529 
Q 422 1150 422 2328 
Q 422 3509 836 4129 
Q 1250 4750 2034 4750 
z
" transform="scale(0.015625)"/>
        <path id="DejaVuSans-33" d="M 2597 2516 
Q 3050 2419 3304 2112 
Q 3559 1806 3559 1356 
Q 3559 666 3084 287 
Q 2609 -91 1734 -91 
Q 1441 -91 1130 -33 
Q 819 25 488 141 
L 488 750 
Q 750 597 1062 519 
Q 1375 441 1716 441 
Q 2309 441 2620 675 
Q 2931 909 2931 1356 
Q 2931 1769 2642 2001 
Q 2353 2234 1838 2234 
L 1294 2234 
L 1294 2753 
L 1863 2753 
Q 2328 2753 2575 2939 
Q 2822 3125 2822 3475 
Q 2822 3834 2567 4026 
Q 2313 4219 1838 4219 
Q 1578 4219 1281 4162 
Q 984 4106 628 3988 
L 628 4550 
Q 988 4650 1302 4700 
Q 1616 4750 1894 4750 
Q 2613 4750 3031 4423 
Q 3450 4097 3450 3541 
Q 3450 3153 3228 2886 
Q 3006 2619 2597 2516 
z
" transform="scale(0.015625)"/>
       </defs>
       <use xlink:href="#DejaVuSans-31" transform="translate(0 0.765625)"/>
       <use xlink:href="#DejaVuSans-30" transform="translate(63.623047 0.765625)"/>
       <use xlink:href="#DejaVuSans-33" transform="translate(128.203125 39.046875) scale(0.7)"/>
      </g>
     </g>
    </g>
    <g id="xtick_2">
     <g id="line2d_2">
      <path d="M 213.956114 291.7704 
L 213.956114 17.6256 
" clip-path="url(#p8d3cf49503)" style="fill: none; stroke: #cccccc; stroke-width: 0.8; stroke-linecap: round"/>
     </g>
     <g id="text_2">
      <!-- $\mathdefault{10^{4}}$ -->
      <g style="fill: #262626" transform="translate(200.791314 311.437662) scale(0.1496 -0.1496)">
       <defs>
        <path id="DejaVuSans-34" d="M 2419 4116 
L 825 1625 
L 2419 1625 
L 2419 4116 
z
M 2253 4666 
L 3047 4666 
L 3047 1625 
L 3713 1625 
L 3713 1100 
L 3047 1100 
L 3047 0 
L 2419 0 
L 2419 1100 
L 313 1100 
L 313 1709 
L 2253 4666 
z
" transform="scale(0.015625)"/>
       </defs>
       <use xlink:href="#DejaVuSans-31" transform="translate(0 0.684375)"/>
       <use xlink:href="#DejaVuSans-30" transform="translate(63.623047 0.684375)"/>
       <use xlink:href="#DejaVuSans-34" transform="translate(128.203125 38.965625) scale(0.7)"/>
      </g>
     </g>
    </g>
    <g id="xtick_3">
     <g id="line2d_3">
      <path d="M 321.444173 291.7704 
L 321.444173 17.6256 
" clip-path="url(#p8d3cf49503)" style="fill: none; stroke: #cccccc; stroke-width: 0.8; stroke-linecap: round"/>
     </g>
     <g id="text_3">
      <!-- $\mathdefault{10^{5}}$ -->
      <g style="fill: #262626" transform="translate(308.279373 311.437662) scale(0.1496 -0.1496)">
       <defs>
        <path id="DejaVuSans-35" d="M 691 4666 
L 3169 4666 
L 3169 4134 
L 1269 4134 
L 1269 2991 
Q 1406 3038 1543 3061 
Q 1681 3084 1819 3084 
Q 2600 3084 3056 2656 
Q 3513 2228 3513 1497 
Q 3513 744 3044 326 
Q 2575 -91 1722 -91 
Q 1428 -91 1123 -41 
Q 819 9 494 109 
L 494 744 
Q 775 591 1075 516 
Q 1375 441 1709 441 
Q 2250 441 2565 725 
Q 2881 1009 2881 1497 
Q 2881 1984 2565 2268 
Q 2250 2553 1709 2553 
Q 1456 2553 1204 2497 
Q 953 2441 691 2322 
L 691 4666 
z
" transform="scale(0.015625)"/>
       </defs>
       <use xlink:href="#DejaVuSans-31" transform="translate(0 0.684375)"/>
       <use xlink:href="#DejaVuSans-30" transform="translate(63.623047 0.684375)"/>
       <use xlink:href="#DejaVuSans-35" transform="translate(128.203125 38.965625) scale(0.7)"/>
      </g>
     </g>
    </g>
    <g id="xtick_4">
     <g id="line2d_4">
      <path d="M 428.932232 291.7704 
L 428.932232 17.6256 
" clip-path="url(#p8d3cf49503)" style="fill: none; stroke: #cccccc; stroke-width: 0.8; stroke-linecap: round"/>
     </g>
     <g id="text_4">
      <!-- $\mathdefault{10^{6}}$ -->
      <g style="fill: #262626" transform="translate(415.767432 311.437662) scale(0.1496 -0.1496)">
       <defs>
        <path id="DejaVuSans-36" d="M 2113 2584 
Q 1688 2584 1439 2293 
Q 1191 2003 1191 1497 
Q 1191 994 1439 701 
Q 1688 409 2113 409 
Q 2538 409 2786 701 
Q 3034 994 3034 1497 
Q 3034 2003 2786 2293 
Q 2538 2584 2113 2584 
z
M 3366 4563 
L 3366 3988 
Q 3128 4100 2886 4159 
Q 2644 4219 2406 4219 
Q 1781 4219 1451 3797 
Q 1122 3375 1075 2522 
Q 1259 2794 1537 2939 
Q 1816 3084 2150 3084 
Q 2853 3084 3261 2657 
Q 3669 2231 3669 1497 
Q 3669 778 3244 343 
Q 2819 -91 2113 -91 
Q 1303 -91 875 529 
Q 447 1150 447 2328 
Q 447 3434 972 4092 
Q 1497 4750 2381 4750 
Q 2619 4750 2861 4703 
Q 3103 4656 3366 4563 
z
" transform="scale(0.015625)"/>
       </defs>
       <use xlink:href="#DejaVuSans-31" transform="translate(0 0.765625)"/>
       <use xlink:href="#DejaVuSans-30" transform="translate(63.623047 0.765625)"/>
       <use xlink:href="#DejaVuSans-36" transform="translate(128.203125 39.046875) scale(0.7)"/>
      </g>
     </g>
    </g>
    <g id="xtick_5">
     <g id="line2d_5">
      <path d="M 536.420291 291.7704 
L 536.420291 17.6256 
" clip-path="url(#p8d3cf49503)" style="fill: none; stroke: #cccccc; stroke-width: 0.8; stroke-linecap: round"/>
     </g>
     <g id="text_5">
      <!-- $\mathdefault{10^{7}}$ -->
      <g style="fill: #262626" transform="translate(523.255491 311.437662) scale(0.1496 -0.1496)">
       <defs>
        <path id="DejaVuSans-37" d="M 525 4666 
L 3525 4666 
L 3525 4397 
L 1831 0 
L 1172 0 
L 2766 4134 
L 525 4134 
L 525 4666 
z
" transform="scale(0.015625)"/>
       </defs>
       <use xlink:href="#DejaVuSans-31" transform="translate(0 0.684375)"/>
       <use xlink:href="#DejaVuSans-30" transform="translate(63.623047 0.684375)"/>
       <use xlink:href="#DejaVuSans-37" transform="translate(128.203125 38.965625) scale(0.7)"/>
      </g>
     </g>
    </g>
    <g id="xtick_6"/>
    <g id="xtick_7"/>
    <g id="xtick_8"/>
    <g id="xtick_9"/>
    <g id="xtick_10"/>
    <g id="xtick_11"/>
    <g id="xtick_12"/>
    <g id="xtick_13"/>
    <g id="xtick_14"/>
    <g id="xtick_15"/>
    <g id="xtick_16"/>
    <g id="xtick_17"/>
    <g id="xtick_18"/>
    <g id="xtick_19"/>
    <g id="xtick_20"/>
    <g id="xtick_21"/>
    <g id="xtick_22"/>
    <g id="xtick_23"/>
    <g id="xtick_24"/>
    <g id="xtick_25"/>
    <g id="xtick_26"/>
    <g id="xtick_27"/>
    <g id="xtick_28"/>
    <g id="xtick_29"/>
    <g id="xtick_30"/>
    <g id="xtick_31"/>
    <g id="xtick_32"/>
    <g id="xtick_33"/>
    <g id="xtick_34"/>
    <g id="xtick_35"/>
    <g id="xtick_36"/>
    <g id="xtick_37"/>
    <g id="xtick_38"/>
    <g id="xtick_39"/>
    <g id="xtick_40"/>
    <g id="text_6">
     <!-- #Cells -->
     <g style="fill: #262626" transform="translate(283.954588 333.74575) scale(0.2 -0.2)">
      <defs>
       <path id="DejaVuSans-23" d="M 3272 2816 
L 2363 2816 
L 2100 1772 
L 3016 1772 
L 3272 2816 
z
M 2803 4594 
L 2478 3297 
L 3391 3297 
L 3719 4594 
L 4219 4594 
L 3897 3297 
L 4872 3297 
L 4872 2816 
L 3775 2816 
L 3519 1772 
L 4513 1772 
L 4513 1294 
L 3397 1294 
L 3072 0 
L 2572 0 
L 2894 1294 
L 1978 1294 
L 1656 0 
L 1153 0 
L 1478 1294 
L 494 1294 
L 494 1772 
L 1594 1772 
L 1856 2816 
L 850 2816 
L 850 3297 
L 1978 3297 
L 2297 4594 
L 2803 4594 
z
" transform="scale(0.015625)"/>
       <path id="DejaVuSans-43" d="M 4122 4306 
L 4122 3641 
Q 3803 3938 3442 4084 
Q 3081 4231 2675 4231 
Q 1875 4231 1450 3742 
Q 1025 3253 1025 2328 
Q 1025 1406 1450 917 
Q 1875 428 2675 428 
Q 3081 428 3442 575 
Q 3803 722 4122 1019 
L 4122 359 
Q 3791 134 3420 21 
Q 3050 -91 2638 -91 
Q 1578 -91 968 557 
Q 359 1206 359 2328 
Q 359 3453 968 4101 
Q 1578 4750 2638 4750 
Q 3056 4750 3426 4639 
Q 3797 4528 4122 4306 
z
" transform="scale(0.015625)"/>
       <path id="DejaVuSans-65" d="M 3597 1894 
L 3597 1613 
L 953 1613 
Q 991 1019 1311 708 
Q 1631 397 2203 397 
Q 2534 397 2845 478 
Q 3156 559 3463 722 
L 3463 178 
Q 3153 47 2828 -22 
Q 2503 -91 2169 -91 
Q 1331 -91 842 396 
Q 353 884 353 1716 
Q 353 2575 817 3079 
Q 1281 3584 2069 3584 
Q 2775 3584 3186 3129 
Q 3597 2675 3597 1894 
z
M 3022 2063 
Q 3016 2534 2758 2815 
Q 2500 3097 2075 3097 
Q 1594 3097 1305 2825 
Q 1016 2553 972 2059 
L 3022 2063 
z
" transform="scale(0.015625)"/>
       <path id="DejaVuSans-6c" d="M 603 4863 
L 1178 4863 
L 1178 0 
L 603 0 
L 603 4863 
z
" transform="scale(0.015625)"/>
       <path id="DejaVuSans-73" d="M 2834 3397 
L 2834 2853 
Q 2591 2978 2328 3040 
Q 2066 3103 1784 3103 
Q 1356 3103 1142 2972 
Q 928 2841 928 2578 
Q 928 2378 1081 2264 
Q 1234 2150 1697 2047 
L 1894 2003 
Q 2506 1872 2764 1633 
Q 3022 1394 3022 966 
Q 3022 478 2636 193 
Q 2250 -91 1575 -91 
Q 1294 -91 989 -36 
Q 684 19 347 128 
L 347 722 
Q 666 556 975 473 
Q 1284 391 1588 391 
Q 1994 391 2212 530 
Q 2431 669 2431 922 
Q 2431 1156 2273 1281 
Q 2116 1406 1581 1522 
L 1381 1569 
Q 847 1681 609 1914 
Q 372 2147 372 2553 
Q 372 3047 722 3315 
Q 1072 3584 1716 3584 
Q 2034 3584 2315 3537 
Q 2597 3491 2834 3397 
z
" transform="scale(0.015625)"/>
      </defs>
      <use xlink:href="#DejaVuSans-23"/>
      <use xlink:href="#DejaVuSans-43" transform="translate(83.789062 0)"/>
      <use xlink:href="#DejaVuSans-65" transform="translate(153.613281 0)"/>
      <use xlink:href="#DejaVuSans-6c" transform="translate(215.136719 0)"/>
      <use xlink:href="#DejaVuSans-6c" transform="translate(242.919922 0)"/>
      <use xlink:href="#DejaVuSans-73" transform="translate(270.703125 0)"/>
     </g>
    </g>
   </g>
   <g id="matplotlib.axis_2">
    <g id="ytick_1">
     <g id="line2d_6">
      <path d="M 85.491277 248.683079 
L 546.9804 248.683079 
" clip-path="url(#p8d3cf49503)" style="fill: none; stroke: #cccccc; stroke-width: 0.8; stroke-linecap: round"/>
     </g>
     <g id="text_7">
      <!-- $\mathdefault{10^{-5}}$ -->
      <g style="fill: #262626" transform="translate(42.035277 254.36671) scale(0.1496 -0.1496)">
       <defs>
        <path id="DejaVuSans-2212" d="M 678 2272 
L 4684 2272 
L 4684 1741 
L 678 1741 
L 678 2272 
z
" transform="scale(0.015625)"/>
       </defs>
       <use xlink:href="#DejaVuSans-31" transform="translate(0 0.684375)"/>
       <use xlink:href="#DejaVuSans-30" transform="translate(63.623047 0.684375)"/>
       <use xlink:href="#DejaVuSans-2212" transform="translate(128.203125 38.965625) scale(0.7)"/>
       <use xlink:href="#DejaVuSans-35" transform="translate(186.855469 38.965625) scale(0.7)"/>
      </g>
     </g>
    </g>
    <g id="ytick_2">
     <g id="line2d_7">
      <path d="M 85.491277 81.754248 
L 546.9804 81.754248 
" clip-path="url(#p8d3cf49503)" style="fill: none; stroke: #cccccc; stroke-width: 0.8; stroke-linecap: round"/>
     </g>
     <g id="text_8">
      <!-- $\mathdefault{10^{-4}}$ -->
      <g style="fill: #262626" transform="translate(42.035277 87.43788) scale(0.1496 -0.1496)">
       <use xlink:href="#DejaVuSans-31" transform="translate(0 0.684375)"/>
       <use xlink:href="#DejaVuSans-30" transform="translate(63.623047 0.684375)"/>
       <use xlink:href="#DejaVuSans-2212" transform="translate(128.203125 38.965625) scale(0.7)"/>
       <use xlink:href="#DejaVuSans-34" transform="translate(186.855469 38.965625) scale(0.7)"/>
      </g>
     </g>
    </g>
    <g id="ytick_3"/>
    <g id="ytick_4"/>
    <g id="ytick_5"/>
    <g id="ytick_6"/>
    <g id="ytick_7"/>
    <g id="ytick_8"/>
    <g id="ytick_9"/>
    <g id="ytick_10"/>
    <g id="ytick_11"/>
    <g id="ytick_12"/>
    <g id="ytick_13"/>
    <g id="ytick_14"/>
    <g id="ytick_15"/>
    <g id="text_9">
     <!-- Assembly Time per Cell (ms) -->
     <g style="fill: #262626" transform="translate(33.875902 298.133938) rotate(-90) scale(0.2 -0.2)">
      <defs>
       <path id="DejaVuSans-41" d="M 2188 4044 
L 1331 1722 
L 3047 1722 
L 2188 4044 
z
M 1831 4666 
L 2547 4666 
L 4325 0 
L 3669 0 
L 3244 1197 
L 1141 1197 
L 716 0 
L 50 0 
L 1831 4666 
z
" transform="scale(0.015625)"/>
       <path id="DejaVuSans-6d" d="M 3328 2828 
Q 3544 3216 3844 3400 
Q 4144 3584 4550 3584 
Q 5097 3584 5394 3201 
Q 5691 2819 5691 2113 
L 5691 0 
L 5113 0 
L 5113 2094 
Q 5113 2597 4934 2840 
Q 4756 3084 4391 3084 
Q 3944 3084 3684 2787 
Q 3425 2491 3425 1978 
L 3425 0 
L 2847 0 
L 2847 2094 
Q 2847 2600 2669 2842 
Q 2491 3084 2119 3084 
Q 1678 3084 1418 2786 
Q 1159 2488 1159 1978 
L 1159 0 
L 581 0 
L 581 3500 
L 1159 3500 
L 1159 2956 
Q 1356 3278 1631 3431 
Q 1906 3584 2284 3584 
Q 2666 3584 2933 3390 
Q 3200 3197 3328 2828 
z
" transform="scale(0.015625)"/>
       <path id="DejaVuSans-62" d="M 3116 1747 
Q 3116 2381 2855 2742 
Q 2594 3103 2138 3103 
Q 1681 3103 1420 2742 
Q 1159 2381 1159 1747 
Q 1159 1113 1420 752 
Q 1681 391 2138 391 
Q 2594 391 2855 752 
Q 3116 1113 3116 1747 
z
M 1159 2969 
Q 1341 3281 1617 3432 
Q 1894 3584 2278 3584 
Q 2916 3584 3314 3078 
Q 3713 2572 3713 1747 
Q 3713 922 3314 415 
Q 2916 -91 2278 -91 
Q 1894 -91 1617 61 
Q 1341 213 1159 525 
L 1159 0 
L 581 0 
L 581 4863 
L 1159 4863 
L 1159 2969 
z
" transform="scale(0.015625)"/>
       <path id="DejaVuSans-79" d="M 2059 -325 
Q 1816 -950 1584 -1140 
Q 1353 -1331 966 -1331 
L 506 -1331 
L 506 -850 
L 844 -850 
Q 1081 -850 1212 -737 
Q 1344 -625 1503 -206 
L 1606 56 
L 191 3500 
L 800 3500 
L 1894 763 
L 2988 3500 
L 3597 3500 
L 2059 -325 
z
" transform="scale(0.015625)"/>
       <path id="DejaVuSans-20" transform="scale(0.015625)"/>
       <path id="DejaVuSans-54" d="M -19 4666 
L 3928 4666 
L 3928 4134 
L 2272 4134 
L 2272 0 
L 1638 0 
L 1638 4134 
L -19 4134 
L -19 4666 
z
" transform="scale(0.015625)"/>
       <path id="DejaVuSans-69" d="M 603 3500 
L 1178 3500 
L 1178 0 
L 603 0 
L 603 3500 
z
M 603 4863 
L 1178 4863 
L 1178 4134 
L 603 4134 
L 603 4863 
z
" transform="scale(0.015625)"/>
       <path id="DejaVuSans-70" d="M 1159 525 
L 1159 -1331 
L 581 -1331 
L 581 3500 
L 1159 3500 
L 1159 2969 
Q 1341 3281 1617 3432 
Q 1894 3584 2278 3584 
Q 2916 3584 3314 3078 
Q 3713 2572 3713 1747 
Q 3713 922 3314 415 
Q 2916 -91 2278 -91 
Q 1894 -91 1617 61 
Q 1341 213 1159 525 
z
M 3116 1747 
Q 3116 2381 2855 2742 
Q 2594 3103 2138 3103 
Q 1681 3103 1420 2742 
Q 1159 2381 1159 1747 
Q 1159 1113 1420 752 
Q 1681 391 2138 391 
Q 2594 391 2855 752 
Q 3116 1113 3116 1747 
z
" transform="scale(0.015625)"/>
       <path id="DejaVuSans-72" d="M 2631 2963 
Q 2534 3019 2420 3045 
Q 2306 3072 2169 3072 
Q 1681 3072 1420 2755 
Q 1159 2438 1159 1844 
L 1159 0 
L 581 0 
L 581 3500 
L 1159 3500 
L 1159 2956 
Q 1341 3275 1631 3429 
Q 1922 3584 2338 3584 
Q 2397 3584 2469 3576 
Q 2541 3569 2628 3553 
L 2631 2963 
z
" transform="scale(0.015625)"/>
       <path id="DejaVuSans-28" d="M 1984 4856 
Q 1566 4138 1362 3434 
Q 1159 2731 1159 2009 
Q 1159 1288 1364 580 
Q 1569 -128 1984 -844 
L 1484 -844 
Q 1016 -109 783 600 
Q 550 1309 550 2009 
Q 550 2706 781 3412 
Q 1013 4119 1484 4856 
L 1984 4856 
z
" transform="scale(0.015625)"/>
       <path id="DejaVuSans-29" d="M 513 4856 
L 1013 4856 
Q 1481 4119 1714 3412 
Q 1947 2706 1947 2009 
Q 1947 1309 1714 600 
Q 1481 -109 1013 -844 
L 513 -844 
Q 928 -128 1133 580 
Q 1338 1288 1338 2009 
Q 1338 2731 1133 3434 
Q 928 4138 513 4856 
z
" transform="scale(0.015625)"/>
      </defs>
      <use xlink:href="#DejaVuSans-41"/>
      <use xlink:href="#DejaVuSans-73" transform="translate(68.408203 0)"/>
      <use xlink:href="#DejaVuSans-73" transform="translate(120.507812 0)"/>
      <use xlink:href="#DejaVuSans-65" transform="translate(172.607422 0)"/>
      <use xlink:href="#DejaVuSans-6d" transform="translate(234.130859 0)"/>
      <use xlink:href="#DejaVuSans-62" transform="translate(331.542969 0)"/>
      <use xlink:href="#DejaVuSans-6c" transform="translate(395.019531 0)"/>
      <use xlink:href="#DejaVuSans-79" transform="translate(422.802734 0)"/>
      <use xlink:href="#DejaVuSans-20" transform="translate(481.982422 0)"/>
      <use xlink:href="#DejaVuSans-54" transform="translate(513.769531 0)"/>
      <use xlink:href="#DejaVuSans-69" transform="translate(571.728516 0)"/>
      <use xlink:href="#DejaVuSans-6d" transform="translate(599.511719 0)"/>
      <use xlink:href="#DejaVuSans-65" transform="translate(696.923828 0)"/>
      <use xlink:href="#DejaVuSans-20" transform="translate(758.447266 0)"/>
      <use xlink:href="#DejaVuSans-70" transform="translate(790.234375 0)"/>
      <use xlink:href="#DejaVuSans-65" transform="translate(853.710938 0)"/>
      <use xlink:href="#DejaVuSans-72" transform="translate(915.234375 0)"/>
      <use xlink:href="#DejaVuSans-20" transform="translate(956.347656 0)"/>
      <use xlink:href="#DejaVuSans-43" transform="translate(988.134766 0)"/>
      <use xlink:href="#DejaVuSans-65" transform="translate(1057.958984 0)"/>
      <use xlink:href="#DejaVuSans-6c" transform="translate(1119.482422 0)"/>
      <use xlink:href="#DejaVuSans-6c" transform="translate(1147.265625 0)"/>
      <use xlink:href="#DejaVuSans-20" transform="translate(1175.048828 0)"/>
      <use xlink:href="#DejaVuSans-28" transform="translate(1206.835938 0)"/>
      <use xlink:href="#DejaVuSans-6d" transform="translate(1245.849609 0)"/>
      <use xlink:href="#DejaVuSans-73" transform="translate(1343.261719 0)"/>
      <use xlink:href="#DejaVuSans-29" transform="translate(1395.361328 0)"/>
     </g>
    </g>
   </g>
   <g id="PathCollection_1">
    <path d="M 106.468055 137.100135 
C 107.495182 137.100135 108.480379 136.692053 109.206668 135.965764 
C 109.932956 135.239476 110.341038 134.254279 110.341038 133.227151 
C 110.341038 132.200024 109.932956 131.214827 109.206668 130.488539 
C 108.480379 129.76225 107.495182 129.354168 106.468055 129.354168 
C 105.440928 129.354168 104.455731 129.76225 103.729442 130.488539 
C 103.003154 131.214827 102.595072 132.200024 102.595072 133.227151 
C 102.595072 134.254279 103.003154 135.239476 103.729442 135.965764 
C 104.455731 136.692053 105.440928 137.100135 106.468055 137.100135 
z
" clip-path="url(#p8d3cf49503)" style="fill: #4c72b0; stroke: #ffffff; stroke-width: 0.619677"/>
    <path d="M 104.531563 161.280608 
L 106.468055 159.344116 
L 108.404547 161.280608 
L 110.341038 159.344116 
L 108.404547 157.407625 
L 110.341038 155.471133 
L 108.404547 153.534641 
L 106.468055 155.471133 
L 104.531563 153.534641 
L 102.595072 155.471133 
L 104.531563 157.407625 
L 102.595072 159.344116 
z
" clip-path="url(#p8d3cf49503)" style="fill: #dd8452; stroke: #ffffff; stroke-width: 0.619677"/>
    <path d="M 103.729442 27.348114 
L 103.729442 32.82534 
L 109.206668 32.82534 
L 109.206668 27.348114 
z
" clip-path="url(#p8d3cf49503)" style="fill: #55a868; stroke: #ffffff; stroke-width: 0.619677"/>
    <path d="M 428.932232 264.206633 
C 429.959359 264.206633 430.944556 263.798551 431.670845 263.072263 
C 432.397133 262.345974 432.805215 261.360777 432.805215 260.33365 
C 432.805215 259.306523 432.397133 258.321326 431.670845 257.595037 
C 430.944556 256.868748 429.959359 256.460666 428.932232 256.460666 
C 427.905105 256.460666 426.919908 256.868748 426.193619 257.595037 
C 425.46733 258.321326 425.059249 259.306523 425.059249 260.33365 
C 425.059249 261.360777 425.46733 262.345974 426.193619 263.072263 
C 426.919908 263.798551 427.905105 264.206633 428.932232 264.206633 
z
" clip-path="url(#p8d3cf49503)" style="fill: #4c72b0; stroke: #ffffff; stroke-width: 0.619677"/>
    <path d="M 426.99574 275.108259 
L 428.932232 273.171767 
L 430.868724 275.108259 
L 432.805215 273.171767 
L 430.868724 271.235275 
L 432.805215 269.298784 
L 430.868724 267.362292 
L 428.932232 269.298784 
L 426.99574 267.362292 
L 425.059249 269.298784 
L 426.99574 271.235275 
L 425.059249 273.171767 
z
" clip-path="url(#p8d3cf49503)" style="fill: #dd8452; stroke: #ffffff; stroke-width: 0.619677"/>
    <path d="M 426.193619 185.296907 
L 426.193619 190.774132 
L 431.670845 190.774132 
L 431.670845 185.296907 
z
" clip-path="url(#p8d3cf49503)" style="fill: #55a868; stroke: #ffffff; stroke-width: 0.619677"/>
    <path d="M 454.465347 266.486083 
C 455.492474 266.486083 456.477671 266.078001 457.20396 265.351712 
C 457.930249 264.625423 458.338331 263.640226 458.338331 262.613099 
C 458.338331 261.585972 457.930249 260.600775 457.20396 259.874486 
C 456.477671 259.148198 455.492474 258.740116 454.465347 258.740116 
C 453.43822 258.740116 452.453023 259.148198 451.726734 259.874486 
C 451.000446 260.600775 450.592364 261.585972 450.592364 262.613099 
C 450.592364 263.640226 451.000446 264.625423 451.726734 265.351712 
C 452.453023 266.078001 453.43822 266.486083 454.465347 266.486083 
z
" clip-path="url(#p8d3cf49503)" style="fill: #4c72b0; stroke: #ffffff; stroke-width: 0.619677"/>
    <path d="M 452.528856 277.031052 
L 454.465347 275.09456 
L 456.401839 277.031052 
L 458.338331 275.09456 
L 456.401839 273.158068 
L 458.338331 271.221577 
L 456.401839 269.285085 
L 454.465347 271.221577 
L 452.528856 269.285085 
L 450.592364 271.221577 
L 452.528856 273.158068 
L 450.592364 275.09456 
z
" clip-path="url(#p8d3cf49503)" style="fill: #dd8452; stroke: #ffffff; stroke-width: 0.619677"/>
    <path d="M 451.726734 186.430833 
L 451.726734 191.908059 
L 457.20396 191.908059 
L 457.20396 186.430833 
z
" clip-path="url(#p8d3cf49503)" style="fill: #55a868; stroke: #ffffff; stroke-width: 0.619677"/>
    <path d="M 476.053289 268.536853 
C 477.080416 268.536853 478.065613 268.128771 478.791901 267.402482 
C 479.51819 266.676194 479.926272 265.690997 479.926272 264.66387 
C 479.926272 263.636743 479.51819 262.651546 478.791901 261.925257 
C 478.065613 261.198968 477.080416 260.790886 476.053289 260.790886 
C 475.026161 260.790886 474.040964 261.198968 473.314676 261.925257 
C 472.588387 262.651546 472.180305 263.636743 472.180305 264.66387 
C 472.180305 265.690997 472.588387 266.676194 473.314676 267.402482 
C 474.040964 268.128771 475.026161 268.536853 476.053289 268.536853 
z
" clip-path="url(#p8d3cf49503)" style="fill: #4c72b0; stroke: #ffffff; stroke-width: 0.619677"/>
    <path d="M 474.116797 276.848844 
L 476.053289 274.912352 
L 477.98978 276.848844 
L 479.926272 274.912352 
L 477.98978 272.97586 
L 479.926272 271.039369 
L 477.98978 269.102877 
L 476.053289 271.039369 
L 474.116797 269.102877 
L 472.180305 271.039369 
L 474.116797 272.97586 
L 472.180305 274.912352 
z
" clip-path="url(#p8d3cf49503)" style="fill: #dd8452; stroke: #ffffff; stroke-width: 0.619677"/>
    <path d="M 473.314676 187.815665 
L 473.314676 193.292891 
L 478.791901 193.292891 
L 478.791901 187.815665 
z
" clip-path="url(#p8d3cf49503)" style="fill: #55a868; stroke: #ffffff; stroke-width: 0.619677"/>
    <path d="M 494.753614 266.405884 
C 495.780741 266.405884 496.765938 265.997802 497.492227 265.271514 
C 498.218515 264.545225 498.626597 263.560028 498.626597 262.532901 
C 498.626597 261.505774 498.218515 260.520577 497.492227 259.794288 
C 496.765938 259.068 495.780741 258.659918 494.753614 258.659918 
C 493.726487 258.659918 492.74129 259.068 492.015001 259.794288 
C 491.288713 260.520577 490.880631 261.505774 490.880631 262.532901 
C 490.880631 263.560028 491.288713 264.545225 492.015001 265.271514 
C 492.74129 265.997802 493.726487 266.405884 494.753614 266.405884 
z
" clip-path="url(#p8d3cf49503)" style="fill: #4c72b0; stroke: #ffffff; stroke-width: 0.619677"/>
    <path d="M 492.817122 274.24084 
L 494.753614 272.304348 
L 496.690106 274.24084 
L 498.626597 272.304348 
L 496.690106 270.367856 
L 498.626597 268.431365 
L 496.690106 266.494873 
L 494.753614 268.431365 
L 492.817122 266.494873 
L 490.880631 268.431365 
L 492.817122 270.367856 
L 490.880631 272.304348 
z
" clip-path="url(#p8d3cf49503)" style="fill: #dd8452; stroke: #ffffff; stroke-width: 0.619677"/>
    <path d="M 492.015001 187.887296 
L 492.015001 193.364521 
L 497.492227 193.364521 
L 497.492227 187.887296 
z
" clip-path="url(#p8d3cf49503)" style="fill: #55a868; stroke: #ffffff; stroke-width: 0.619677"/>
    <path d="M 511.24847 272.119778 
C 512.275597 272.119778 513.260794 271.711696 513.987083 270.985408 
C 514.713372 270.259119 515.121453 269.273922 515.121453 268.246795 
C 515.121453 267.219668 514.713372 266.234471 513.987083 265.508182 
C 513.260794 264.781894 512.275597 264.373812 511.24847 264.373812 
C 510.221343 264.373812 509.236146 264.781894 508.509857 265.508182 
C 507.783569 266.234471 507.375487 267.219668 507.375487 268.246795 
C 507.375487 269.273922 507.783569 270.259119 508.509857 270.985408 
C 509.236146 271.711696 510.221343 272.119778 511.24847 272.119778 
z
" clip-path="url(#p8d3cf49503)" style="fill: #4c72b0; stroke: #ffffff; stroke-width: 0.619677"/>
    <path d="M 509.311978 278.636338 
L 511.24847 276.699846 
L 513.184962 278.636338 
L 515.121453 276.699846 
L 513.184962 274.763355 
L 515.121453 272.826863 
L 513.184962 270.890371 
L 511.24847 272.826863 
L 509.311978 270.890371 
L 507.375487 272.826863 
L 509.311978 274.763355 
L 507.375487 276.699846 
z
" clip-path="url(#p8d3cf49503)" style="fill: #dd8452; stroke: #ffffff; stroke-width: 0.619677"/>
    <path d="M 508.509857 189.485905 
L 508.509857 194.96313 
L 513.987083 194.96313 
L 513.987083 189.485905 
z
" clip-path="url(#p8d3cf49503)" style="fill: #55a868; stroke: #ffffff; stroke-width: 0.619677"/>
    <path d="M 203.539445 203.100508 
C 204.566572 203.100508 205.551769 202.692426 206.278057 201.966137 
C 207.004346 201.239848 207.412428 200.254651 207.412428 199.227524 
C 207.412428 198.200397 207.004346 197.2152 206.278057 196.488912 
C 205.551769 195.762623 204.566572 195.354541 203.539445 195.354541 
C 202.512318 195.354541 201.527121 195.762623 200.800832 196.488912 
C 200.074543 197.2152 199.666461 198.200397 199.666461 199.227524 
C 199.666461 200.254651 200.074543 201.239848 200.800832 201.966137 
C 201.527121 202.692426 202.512318 203.100508 203.539445 203.100508 
z
" clip-path="url(#p8d3cf49503)" style="fill: #4c72b0; stroke: #ffffff; stroke-width: 0.619677"/>
    <path d="M 201.602953 254.422834 
L 203.539445 252.486343 
L 205.475936 254.422834 
L 207.412428 252.486343 
L 205.475936 250.549851 
L 207.412428 248.613359 
L 205.475936 246.676868 
L 203.539445 248.613359 
L 201.602953 246.676868 
L 199.666461 248.613359 
L 201.602953 250.549851 
L 199.666461 252.486343 
z
" clip-path="url(#p8d3cf49503)" style="fill: #dd8452; stroke: #ffffff; stroke-width: 0.619677"/>
    <path d="M 200.800832 156.716915 
L 200.800832 162.19414 
L 206.278057 162.19414 
L 206.278057 156.716915 
z
" clip-path="url(#p8d3cf49503)" style="fill: #55a868; stroke: #ffffff; stroke-width: 0.619677"/>
    <path d="M 526.003622 272.819458 
C 527.030749 272.819458 528.015946 272.411376 528.742234 271.685088 
C 529.468523 270.958799 529.876605 269.973602 529.876605 268.946475 
C 529.876605 267.919348 529.468523 266.934151 528.742234 266.207862 
C 528.015946 265.481574 527.030749 265.073492 526.003622 265.073492 
C 524.976494 265.073492 523.991297 265.481574 523.265009 266.207862 
C 522.53872 266.934151 522.130638 267.919348 522.130638 268.946475 
C 522.130638 269.973602 522.53872 270.958799 523.265009 271.685088 
C 523.991297 272.411376 524.976494 272.819458 526.003622 272.819458 
z
" clip-path="url(#p8d3cf49503)" style="fill: #4c72b0; stroke: #ffffff; stroke-width: 0.619677"/>
    <path d="M 524.06713 279.953745 
L 526.003622 278.017254 
L 527.940113 279.953745 
L 529.876605 278.017254 
L 527.940113 276.080762 
L 529.876605 274.14427 
L 527.940113 272.207779 
L 526.003622 274.14427 
L 524.06713 272.207779 
L 522.130638 274.14427 
L 524.06713 276.080762 
L 522.130638 278.017254 
z
" clip-path="url(#p8d3cf49503)" style="fill: #dd8452; stroke: #ffffff; stroke-width: 0.619677"/>
    <path d="M 523.265009 189.514507 
L 523.265009 194.991732 
L 528.742234 194.991732 
L 528.742234 189.514507 
z
" clip-path="url(#p8d3cf49503)" style="fill: #55a868; stroke: #ffffff; stroke-width: 0.619677"/>
    <path d="M 260.322568 229.852373 
C 261.349695 229.852373 262.334892 229.444291 263.06118 228.718002 
C 263.787469 227.991714 264.195551 227.006517 264.195551 225.97939 
C 264.195551 224.952262 263.787469 223.967065 263.06118 223.240777 
C 262.334892 222.514488 261.349695 222.106406 260.322568 222.106406 
C 259.29544 222.106406 258.310243 222.514488 257.583955 223.240777 
C 256.857666 223.967065 256.449584 224.952262 256.449584 225.97939 
C 256.449584 227.006517 256.857666 227.991714 257.583955 228.718002 
C 258.310243 229.444291 259.29544 229.852373 260.322568 229.852373 
z
" clip-path="url(#p8d3cf49503)" style="fill: #4c72b0; stroke: #ffffff; stroke-width: 0.619677"/>
    <path d="M 258.386076 255.31781 
L 260.322568 253.381318 
L 262.259059 255.31781 
L 264.195551 253.381318 
L 262.259059 251.444827 
L 264.195551 249.508335 
L 262.259059 247.571843 
L 260.322568 249.508335 
L 258.386076 247.571843 
L 256.449584 249.508335 
L 258.386076 251.444827 
L 256.449584 253.381318 
z
" clip-path="url(#p8d3cf49503)" style="fill: #dd8452; stroke: #ffffff; stroke-width: 0.619677"/>
    <path d="M 257.583955 215.77477 
L 257.583955 221.251996 
L 263.06118 221.251996 
L 263.06118 215.77477 
z
" clip-path="url(#p8d3cf49503)" style="fill: #55a868; stroke: #ffffff; stroke-width: 0.619677"/>
    <path d="M 300.610834 241.472523 
C 301.637962 241.472523 302.623159 241.064441 303.349447 240.338152 
C 304.075736 239.611864 304.483818 238.626667 304.483818 237.59954 
C 304.483818 236.572412 304.075736 235.587215 303.349447 234.860927 
C 302.623159 234.134638 301.637962 233.726556 300.610834 233.726556 
C 299.583707 233.726556 298.59851 234.134638 297.872222 234.860927 
C 297.145933 235.587215 296.737851 236.572412 296.737851 237.59954 
C 296.737851 238.626667 297.145933 239.611864 297.872222 240.338152 
C 298.59851 241.064441 299.583707 241.472523 300.610834 241.472523 
z
" clip-path="url(#p8d3cf49503)" style="fill: #4c72b0; stroke: #ffffff; stroke-width: 0.619677"/>
    <path d="M 298.674343 268.903048 
L 300.610834 266.966556 
L 302.547326 268.903048 
L 304.483818 266.966556 
L 302.547326 265.030065 
L 304.483818 263.093573 
L 302.547326 261.157081 
L 300.610834 263.093573 
L 298.674343 261.157081 
L 296.737851 263.093573 
L 298.674343 265.030065 
L 296.737851 266.966556 
z
" clip-path="url(#p8d3cf49503)" style="fill: #dd8452; stroke: #ffffff; stroke-width: 0.619677"/>
    <path d="M 297.872222 238.691234 
L 297.872222 244.16846 
L 303.349447 244.16846 
L 303.349447 238.691234 
z
" clip-path="url(#p8d3cf49503)" style="fill: #55a868; stroke: #ffffff; stroke-width: 0.619677"/>
    <path d="M 331.860842 255.752551 
C 332.887969 255.752551 333.873166 255.344469 334.599455 254.61818 
C 335.325743 253.891892 335.733825 252.906695 335.733825 251.879567 
C 335.733825 250.85244 335.325743 249.867243 334.599455 249.140955 
C 333.873166 248.414666 332.887969 248.006584 331.860842 248.006584 
C 330.833715 248.006584 329.848518 248.414666 329.122229 249.140955 
C 328.395941 249.867243 327.987859 250.85244 327.987859 251.879567 
C 327.987859 252.906695 328.395941 253.891892 329.122229 254.61818 
C 329.848518 255.344469 330.833715 255.752551 331.860842 255.752551 
z
" clip-path="url(#p8d3cf49503)" style="fill: #4c72b0; stroke: #ffffff; stroke-width: 0.619677"/>
    <path d="M 329.92435 280.034872 
L 331.860842 278.09838 
L 333.797334 280.034872 
L 335.733825 278.09838 
L 333.797334 276.161888 
L 335.733825 274.225397 
L 333.797334 272.288905 
L 331.860842 274.225397 
L 329.92435 272.288905 
L 327.987859 274.225397 
L 329.92435 276.161888 
L 327.987859 278.09838 
z
" clip-path="url(#p8d3cf49503)" style="fill: #dd8452; stroke: #ffffff; stroke-width: 0.619677"/>
    <path d="M 329.122229 244.669375 
L 329.122229 250.146601 
L 334.599455 250.146601 
L 334.599455 244.669375 
z
" clip-path="url(#p8d3cf49503)" style="fill: #55a868; stroke: #ffffff; stroke-width: 0.619677"/>
    <path d="M 357.393957 265.543425 
C 358.421085 265.543425 359.406282 265.135343 360.13257 264.409054 
C 360.858859 263.682766 361.266941 262.697569 361.266941 261.670442 
C 361.266941 260.643314 360.858859 259.658117 360.13257 258.931829 
C 359.406282 258.20554 358.421085 257.797458 357.393957 257.797458 
C 356.36683 257.797458 355.381633 258.20554 354.655345 258.931829 
C 353.929056 259.658117 353.520974 260.643314 353.520974 261.670442 
C 353.520974 262.697569 353.929056 263.682766 354.655345 264.409054 
C 355.381633 265.135343 356.36683 265.543425 357.393957 265.543425 
z
" clip-path="url(#p8d3cf49503)" style="fill: #4c72b0; stroke: #ffffff; stroke-width: 0.619677"/>
    <path d="M 355.457466 283.182256 
L 357.393957 281.245764 
L 359.330449 283.182256 
L 361.266941 281.245764 
L 359.330449 279.309273 
L 361.266941 277.372781 
L 359.330449 275.436289 
L 357.393957 277.372781 
L 355.457466 275.436289 
L 353.520974 277.372781 
L 355.457466 279.309273 
L 353.520974 281.245764 
z
" clip-path="url(#p8d3cf49503)" style="fill: #dd8452; stroke: #ffffff; stroke-width: 0.619677"/>
    <path d="M 354.655345 203.306513 
L 354.655345 208.783738 
L 360.13257 208.783738 
L 360.13257 203.306513 
z
" clip-path="url(#p8d3cf49503)" style="fill: #55a868; stroke: #ffffff; stroke-width: 0.619677"/>
    <path d="M 378.981899 268.641426 
C 380.009026 268.641426 380.994223 268.233344 381.720512 267.507056 
C 382.4468 266.780767 382.854882 265.79557 382.854882 264.768443 
C 382.854882 263.741316 382.4468 262.756119 381.720512 262.02983 
C 380.994223 261.303542 380.009026 260.89546 378.981899 260.89546 
C 377.954772 260.89546 376.969575 261.303542 376.243286 262.02983 
C 375.516997 262.756119 375.108915 263.741316 375.108915 264.768443 
C 375.108915 265.79557 375.516997 266.780767 376.243286 267.507056 
C 376.969575 268.233344 377.954772 268.641426 378.981899 268.641426 
z
" clip-path="url(#p8d3cf49503)" style="fill: #4c72b0; stroke: #ffffff; stroke-width: 0.619677"/>
    <path d="M 377.045407 281.302384 
L 378.981899 279.365893 
L 380.918391 281.302384 
L 382.854882 279.365893 
L 380.918391 277.429401 
L 382.854882 275.492909 
L 380.918391 273.556418 
L 378.981899 275.492909 
L 377.045407 273.556418 
L 375.108915 275.492909 
L 377.045407 277.429401 
L 375.108915 279.365893 
z
" clip-path="url(#p8d3cf49503)" style="fill: #dd8452; stroke: #ffffff; stroke-width: 0.619677"/>
    <path d="M 376.243286 191.543507 
L 376.243286 197.020733 
L 381.720512 197.020733 
L 381.720512 191.543507 
z
" clip-path="url(#p8d3cf49503)" style="fill: #55a868; stroke: #ffffff; stroke-width: 0.619677"/>
    <path d="M 397.682224 265.617184 
C 398.709351 265.617184 399.694548 265.209102 400.420837 264.482813 
C 401.147126 263.756524 401.555208 262.771327 401.555208 261.7442 
C 401.555208 260.717073 401.147126 259.731876 400.420837 259.005587 
C 399.694548 258.279299 398.709351 257.871217 397.682224 257.871217 
C 396.655097 257.871217 395.6699 258.279299 394.943611 259.005587 
C 394.217323 259.731876 393.809241 260.717073 393.809241 261.7442 
C 393.809241 262.771327 394.217323 263.756524 394.943611 264.482813 
C 395.6699 265.209102 396.655097 265.617184 397.682224 265.617184 
z
" clip-path="url(#p8d3cf49503)" style="fill: #4c72b0; stroke: #ffffff; stroke-width: 0.619677"/>
    <path d="M 395.745733 278.437219 
L 397.682224 276.500728 
L 399.618716 278.437219 
L 401.555208 276.500728 
L 399.618716 274.564236 
L 401.555208 272.627744 
L 399.618716 270.691253 
L 397.682224 272.627744 
L 395.745733 270.691253 
L 393.809241 272.627744 
L 395.745733 274.564236 
L 393.809241 276.500728 
z
" clip-path="url(#p8d3cf49503)" style="fill: #dd8452; stroke: #ffffff; stroke-width: 0.619677"/>
    <path d="M 394.943611 186.478765 
L 394.943611 191.955991 
L 400.420837 191.955991 
L 400.420837 186.478765 
z
" clip-path="url(#p8d3cf49503)" style="fill: #55a868; stroke: #ffffff; stroke-width: 0.619677"/>
    <path d="M 414.17708 264.560673 
C 415.204208 264.560673 416.189405 264.152591 416.915693 263.426303 
C 417.641982 262.700014 418.050064 261.714817 418.050064 260.68769 
C 418.050064 259.660563 417.641982 258.675366 416.915693 257.949077 
C 416.189405 257.222789 415.204208 256.814707 414.17708 256.814707 
C 413.149953 256.814707 412.164756 257.222789 411.438468 257.949077 
C 410.712179 258.675366 410.304097 259.660563 410.304097 260.68769 
C 410.304097 261.714817 410.712179 262.700014 411.438468 263.426303 
C 412.164756 264.152591 413.149953 264.560673 414.17708 264.560673 
z
" clip-path="url(#p8d3cf49503)" style="fill: #4c72b0; stroke: #ffffff; stroke-width: 0.619677"/>
    <path d="M 412.240589 277.384598 
L 414.17708 275.448107 
L 416.113572 277.384598 
L 418.050064 275.448107 
L 416.113572 273.511615 
L 418.050064 271.575123 
L 416.113572 269.638632 
L 414.17708 271.575123 
L 412.240589 269.638632 
L 410.304097 271.575123 
L 412.240589 273.511615 
L 410.304097 275.448107 
z
" clip-path="url(#p8d3cf49503)" style="fill: #dd8452; stroke: #ffffff; stroke-width: 0.619677"/>
    <path d="M 411.438468 185.581401 
L 411.438468 191.058627 
L 416.915693 191.058627 
L 416.915693 185.581401 
z
" clip-path="url(#p8d3cf49503)" style="fill: #55a868; stroke: #ffffff; stroke-width: 0.619677"/>
    <path d="M 396.39123 229.890056 
L 398.973219 229.890056 
L 398.973219 227.308067 
L 401.555208 227.308067 
L 401.555208 224.726078 
L 398.973219 224.726078 
L 398.973219 222.144089 
L 396.39123 222.144089 
L 396.39123 224.726078 
L 393.809241 224.726078 
L 393.809241 227.308067 
L 396.39123 227.308067 
z
" clip-path="url(#p8d3cf49503)" style="fill: #c44e52; stroke: #ffffff; stroke-width: 0.619677"/>
    <path d="M 330.569848 235.315171 
L 333.151837 235.315171 
L 333.151837 232.733182 
L 335.733825 232.733182 
L 335.733825 230.151193 
L 333.151837 230.151193 
L 333.151837 227.569204 
L 330.569848 227.569204 
L 330.569848 230.151193 
L 327.987859 230.151193 
L 327.987859 232.733182 
L 330.569848 232.733182 
z
" clip-path="url(#p8d3cf49503)" style="fill: #c44e52; stroke: #ffffff; stroke-width: 0.619677"/>
    <path d="M 202.24845 233.708848 
L 204.830439 233.708848 
L 204.830439 231.126859 
L 207.412428 231.126859 
L 207.412428 228.54487 
L 204.830439 228.54487 
L 204.830439 225.962881 
L 202.24845 225.962881 
L 202.24845 228.54487 
L 199.666461 228.54487 
L 199.666461 231.126859 
L 202.24845 231.126859 
z
" clip-path="url(#p8d3cf49503)" style="fill: #c44e52; stroke: #ffffff; stroke-width: 0.619677"/>
    <path d="M 105.17706 141.381927 
L 107.759049 141.381927 
L 107.759049 138.799938 
L 110.341038 138.799938 
L 110.341038 136.217949 
L 107.759049 136.217949 
L 107.759049 133.63596 
L 105.17706 133.63596 
L 105.17706 136.217949 
L 102.595072 136.217949 
L 102.595072 138.799938 
L 105.17706 138.799938 
z
" clip-path="url(#p8d3cf49503)" style="fill: #c44e52; stroke: #ffffff; stroke-width: 0.619677"/>
    <path d="M 259.031573 251.867541 
L 261.613562 251.867541 
L 261.613562 249.285552 
L 264.195551 249.285552 
L 264.195551 246.703563 
L 261.613562 246.703563 
L 261.613562 244.121574 
L 259.031573 244.121574 
L 259.031573 246.703563 
L 256.449584 246.703563 
L 256.449584 249.285552 
L 259.031573 249.285552 
z
" clip-path="url(#p8d3cf49503)" style="fill: #c44e52; stroke: #ffffff; stroke-width: 0.619677"/>
    <path d="M 299.31984 251.792179 
L 301.901829 251.792179 
L 301.901829 249.21019 
L 304.483818 249.21019 
L 304.483818 246.628202 
L 301.901829 246.628202 
L 301.901829 244.046213 
L 299.31984 244.046213 
L 299.31984 246.628202 
L 296.737851 246.628202 
L 296.737851 249.21019 
L 299.31984 249.21019 
z
" clip-path="url(#p8d3cf49503)" style="fill: #c44e52; stroke: #ffffff; stroke-width: 0.619677"/>
    <path d="M 356.102963 233.959276 
L 358.684952 233.959276 
L 358.684952 231.377287 
L 361.266941 231.377287 
L 361.266941 228.795298 
L 358.684952 228.795298 
L 358.684952 226.213309 
L 356.102963 226.213309 
L 356.102963 228.795298 
L 353.520974 228.795298 
L 353.520974 231.377287 
L 356.102963 231.377287 
z
" clip-path="url(#p8d3cf49503)" style="fill: #c44e52; stroke: #ffffff; stroke-width: 0.619677"/>
    <path d="M 377.690904 230.28003 
L 380.272893 230.28003 
L 380.272893 227.698041 
L 382.854882 227.698041 
L 382.854882 225.116052 
L 380.272893 225.116052 
L 380.272893 222.534063 
L 377.690904 222.534063 
L 377.690904 225.116052 
L 375.108915 225.116052 
L 375.108915 227.698041 
L 377.690904 227.698041 
z
" clip-path="url(#p8d3cf49503)" style="fill: #c44e52; stroke: #ffffff; stroke-width: 0.619677"/>
    <path d="M 412.886086 239.378749 
L 415.468075 239.378749 
L 415.468075 236.79676 
L 418.050064 236.79676 
L 418.050064 234.214771 
L 415.468075 234.214771 
L 415.468075 231.632782 
L 412.886086 231.632782 
L 412.886086 234.214771 
L 410.304097 234.214771 
L 410.304097 236.79676 
L 412.886086 236.79676 
z
" clip-path="url(#p8d3cf49503)" style="fill: #c44e52; stroke: #ffffff; stroke-width: 0.619677"/>
    <path d="M 453.174353 233.286644 
L 455.756342 233.286644 
L 455.756342 230.704655 
L 458.338331 230.704655 
L 458.338331 228.122667 
L 455.756342 228.122667 
L 455.756342 225.540678 
L 453.174353 225.540678 
L 453.174353 228.122667 
L 450.592364 228.122667 
L 450.592364 230.704655 
L 453.174353 230.704655 
z
" clip-path="url(#p8d3cf49503)" style="fill: #c44e52; stroke: #ffffff; stroke-width: 0.619677"/>
    <path d="M 427.641237 235.640441 
L 430.223226 235.640441 
L 430.223226 233.058453 
L 432.805215 233.058453 
L 432.805215 230.476464 
L 430.223226 230.476464 
L 430.223226 227.894475 
L 427.641237 227.894475 
L 427.641237 230.476464 
L 425.059249 230.476464 
L 425.059249 233.058453 
L 427.641237 233.058453 
z
" clip-path="url(#p8d3cf49503)" style="fill: #c44e52; stroke: #ffffff; stroke-width: 0.619677"/>
    <path d="M 474.762294 240.90784 
L 477.344283 240.90784 
L 477.344283 238.325851 
L 479.926272 238.325851 
L 479.926272 235.743862 
L 477.344283 235.743862 
L 477.344283 233.161873 
L 474.762294 233.161873 
L 474.762294 235.743862 
L 472.180305 235.743862 
L 472.180305 238.325851 
L 474.762294 238.325851 
z
" clip-path="url(#p8d3cf49503)" style="fill: #c44e52; stroke: #ffffff; stroke-width: 0.619677"/>
    <path d="M 493.46262 238.147421 
L 496.044609 238.147421 
L 496.044609 235.565432 
L 498.626597 235.565432 
L 498.626597 232.983444 
L 496.044609 232.983444 
L 496.044609 230.401455 
L 493.46262 230.401455 
L 493.46262 232.983444 
L 490.880631 232.983444 
L 490.880631 235.565432 
L 493.46262 235.565432 
z
" clip-path="url(#p8d3cf49503)" style="fill: #c44e52; stroke: #ffffff; stroke-width: 0.619677"/>
    <path d="M 509.957476 242.273746 
L 512.539465 242.273746 
L 512.539465 239.691757 
L 515.121453 239.691757 
L 515.121453 237.109768 
L 512.539465 237.109768 
L 512.539465 234.527779 
L 509.957476 234.527779 
L 509.957476 237.109768 
L 507.375487 237.109768 
L 507.375487 239.691757 
L 509.957476 239.691757 
z
" clip-path="url(#p8d3cf49503)" style="fill: #c44e52; stroke: #ffffff; stroke-width: 0.619677"/>
    <path d="M 524.712627 242.621532 
L 527.294616 242.621532 
L 527.294616 240.039543 
L 529.876605 240.039543 
L 529.876605 237.457554 
L 527.294616 237.457554 
L 527.294616 234.875565 
L 524.712627 234.875565 
L 524.712627 237.457554 
L 522.130638 237.457554 
L 522.130638 240.039543 
L 524.712627 240.039543 
z
" clip-path="url(#p8d3cf49503)" style="fill: #c44e52; stroke: #ffffff; stroke-width: 0.619677"/>
   </g>
   <g id="FillBetweenPolyCollection_1"/>
   <g id="FillBetweenPolyCollection_2"/>
   <g id="FillBetweenPolyCollection_3"/>
   <g id="FillBetweenPolyCollection_4"/>
   <g id="line2d_8"/>
   <g id="line2d_9"/>
   <g id="line2d_10"/>
   <g id="line2d_11"/>
   <g id="line2d_12">
    <path d="M 106.468055 133.227151 
L 203.539445 199.227524 
L 260.322568 225.97939 
L 300.610834 237.59954 
L 331.860842 251.879567 
L 357.393957 261.670442 
L 378.981899 264.768443 
L 397.682224 261.7442 
L 414.17708 260.68769 
L 428.932232 260.33365 
L 454.465347 262.613099 
L 476.053289 264.66387 
L 494.753614 262.532901 
L 511.24847 268.246795 
L 526.003622 268.946475 
" clip-path="url(#p8d3cf49503)" style="fill: none; stroke: #4c72b0; stroke-width: 2; stroke-linecap: round"/>
   </g>
   <g id="line2d_13">
    <path d="M 106.468055 157.407625 
L 203.539445 250.549851 
L 260.322568 251.444827 
L 300.610834 265.030065 
L 331.860842 276.161888 
L 357.393957 279.309273 
L 378.981899 277.429401 
L 397.682224 274.564236 
L 414.17708 273.511615 
L 428.932232 271.235275 
L 454.465347 273.158068 
L 476.053289 272.97586 
L 494.753614 270.367856 
L 511.24847 274.763355 
L 526.003622 276.080762 
" clip-path="url(#p8d3cf49503)" style="fill: none; stroke: #dd8452; stroke-width: 2; stroke-linecap: round"/>
   </g>
   <g id="line2d_14">
    <path d="M 106.468055 30.086727 
L 203.539445 159.455528 
L 260.322568 218.513383 
L 300.610834 241.429847 
L 331.860842 247.407988 
L 357.393957 206.045126 
L 378.981899 194.28212 
L 397.682224 189.217378 
L 414.17708 188.320014 
L 428.932232 188.03552 
L 454.465347 189.169446 
L 476.053289 190.554278 
L 494.753614 190.625908 
L 511.24847 192.224517 
L 526.003622 192.25312 
" clip-path="url(#p8d3cf49503)" style="fill: none; stroke: #55a868; stroke-width: 2; stroke-linecap: round"/>
   </g>
   <g id="line2d_15">
    <path d="M 106.468055 137.508943 
L 203.539445 229.835865 
L 260.322568 247.994558 
L 300.610834 247.919196 
L 331.860842 231.442187 
L 357.393957 230.086292 
L 378.981899 226.407046 
L 397.682224 226.017072 
L 414.17708 235.505766 
L 428.932232 231.767458 
L 454.465347 229.413661 
L 476.053289 237.034857 
L 494.753614 234.274438 
L 511.24847 238.400763 
L 526.003622 238.748549 
" clip-path="url(#p8d3cf49503)" style="fill: none; stroke: #c44e52; stroke-width: 2; stroke-linecap: round"/>
   </g>
   <g id="patch_3">
    <path d="M 85.491277 291.7704 
L 85.491277 17.6256 
" style="fill: none; stroke: #cccccc; stroke-linejoin: miter; stroke-linecap: square"/>
   </g>
   <g id="patch_4">
    <path d="M 85.491277 291.7704 
L 546.9804 291.7704 
" style="fill: none; stroke: #cccccc; stroke-linejoin: miter; stroke-linecap: square"/>
   </g>
   <g id="legend_1">
    <g id="patch_5">
     <path d="M 337.556763 140.7022 
L 536.5084 140.7022 
Q 539.5004 140.7022 539.5004 137.7102 
L 539.5004 28.0976 
Q 539.5004 25.1056 536.5084 25.1056 
L 337.556763 25.1056 
Q 334.564763 25.1056 334.564763 28.0976 
L 334.564763 137.7102 
Q 334.564763 140.7022 337.556763 140.7022 
z
" style="fill: #ffffff; opacity: 0.8; stroke: #cccccc; stroke-width: 0.8; stroke-linejoin: miter"/>
    </g>
    <g id="text_10">
     <!-- Strategy (T=32) -->
     <g style="fill: #262626" transform="translate(370.902156 43.49025) scale(0.1632 -0.1632)">
      <defs>
       <path id="DejaVuSans-53" d="M 3425 4513 
L 3425 3897 
Q 3066 4069 2747 4153 
Q 2428 4238 2131 4238 
Q 1616 4238 1336 4038 
Q 1056 3838 1056 3469 
Q 1056 3159 1242 3001 
Q 1428 2844 1947 2747 
L 2328 2669 
Q 3034 2534 3370 2195 
Q 3706 1856 3706 1288 
Q 3706 609 3251 259 
Q 2797 -91 1919 -91 
Q 1588 -91 1214 -16 
Q 841 59 441 206 
L 441 856 
Q 825 641 1194 531 
Q 1563 422 1919 422 
Q 2459 422 2753 634 
Q 3047 847 3047 1241 
Q 3047 1584 2836 1778 
Q 2625 1972 2144 2069 
L 1759 2144 
Q 1053 2284 737 2584 
Q 422 2884 422 3419 
Q 422 4038 858 4394 
Q 1294 4750 2059 4750 
Q 2388 4750 2728 4690 
Q 3069 4631 3425 4513 
z
" transform="scale(0.015625)"/>
       <path id="DejaVuSans-74" d="M 1172 4494 
L 1172 3500 
L 2356 3500 
L 2356 3053 
L 1172 3053 
L 1172 1153 
Q 1172 725 1289 603 
Q 1406 481 1766 481 
L 2356 481 
L 2356 0 
L 1766 0 
Q 1100 0 847 248 
Q 594 497 594 1153 
L 594 3053 
L 172 3053 
L 172 3500 
L 594 3500 
L 594 4494 
L 1172 4494 
z
" transform="scale(0.015625)"/>
       <path id="DejaVuSans-61" d="M 2194 1759 
Q 1497 1759 1228 1600 
Q 959 1441 959 1056 
Q 959 750 1161 570 
Q 1363 391 1709 391 
Q 2188 391 2477 730 
Q 2766 1069 2766 1631 
L 2766 1759 
L 2194 1759 
z
M 3341 1997 
L 3341 0 
L 2766 0 
L 2766 531 
Q 2569 213 2275 61 
Q 1981 -91 1556 -91 
Q 1019 -91 701 211 
Q 384 513 384 1019 
Q 384 1609 779 1909 
Q 1175 2209 1959 2209 
L 2766 2209 
L 2766 2266 
Q 2766 2663 2505 2880 
Q 2244 3097 1772 3097 
Q 1472 3097 1187 3025 
Q 903 2953 641 2809 
L 641 3341 
Q 956 3463 1253 3523 
Q 1550 3584 1831 3584 
Q 2591 3584 2966 3190 
Q 3341 2797 3341 1997 
z
" transform="scale(0.015625)"/>
       <path id="DejaVuSans-67" d="M 2906 1791 
Q 2906 2416 2648 2759 
Q 2391 3103 1925 3103 
Q 1463 3103 1205 2759 
Q 947 2416 947 1791 
Q 947 1169 1205 825 
Q 1463 481 1925 481 
Q 2391 481 2648 825 
Q 2906 1169 2906 1791 
z
M 3481 434 
Q 3481 -459 3084 -895 
Q 2688 -1331 1869 -1331 
Q 1566 -1331 1297 -1286 
Q 1028 -1241 775 -1147 
L 775 -588 
Q 1028 -725 1275 -790 
Q 1522 -856 1778 -856 
Q 2344 -856 2625 -561 
Q 2906 -266 2906 331 
L 2906 616 
Q 2728 306 2450 153 
Q 2172 0 1784 0 
Q 1141 0 747 490 
Q 353 981 353 1791 
Q 353 2603 747 3093 
Q 1141 3584 1784 3584 
Q 2172 3584 2450 3431 
Q 2728 3278 2906 2969 
L 2906 3500 
L 3481 3500 
L 3481 434 
z
" transform="scale(0.015625)"/>
       <path id="DejaVuSans-3d" d="M 678 2906 
L 4684 2906 
L 4684 2381 
L 678 2381 
L 678 2906 
z
M 678 1631 
L 4684 1631 
L 4684 1100 
L 678 1100 
L 678 1631 
z
" transform="scale(0.015625)"/>
       <path id="DejaVuSans-32" d="M 1228 531 
L 3431 531 
L 3431 0 
L 469 0 
L 469 531 
Q 828 903 1448 1529 
Q 2069 2156 2228 2338 
Q 2531 2678 2651 2914 
Q 2772 3150 2772 3378 
Q 2772 3750 2511 3984 
Q 2250 4219 1831 4219 
Q 1534 4219 1204 4116 
Q 875 4013 500 3803 
L 500 4441 
Q 881 4594 1212 4672 
Q 1544 4750 1819 4750 
Q 2544 4750 2975 4387 
Q 3406 4025 3406 3419 
Q 3406 3131 3298 2873 
Q 3191 2616 2906 2266 
Q 2828 2175 2409 1742 
Q 1991 1309 1228 531 
z
" transform="scale(0.015625)"/>
      </defs>
      <use xlink:href="#DejaVuSans-53"/>
      <use xlink:href="#DejaVuSans-74" transform="translate(63.476562 0)"/>
      <use xlink:href="#DejaVuSans-72" transform="translate(102.685547 0)"/>
      <use xlink:href="#DejaVuSans-61" transform="translate(143.798828 0)"/>
      <use xlink:href="#DejaVuSans-74" transform="translate(205.078125 0)"/>
      <use xlink:href="#DejaVuSans-65" transform="translate(244.287109 0)"/>
      <use xlink:href="#DejaVuSans-67" transform="translate(305.810547 0)"/>
      <use xlink:href="#DejaVuSans-79" transform="translate(369.287109 0)"/>
      <use xlink:href="#DejaVuSans-20" transform="translate(428.466797 0)"/>
      <use xlink:href="#DejaVuSans-28" transform="translate(460.253906 0)"/>
      <use xlink:href="#DejaVuSans-54" transform="translate(499.267578 0)"/>
      <use xlink:href="#DejaVuSans-3d" transform="translate(560.351562 0)"/>
      <use xlink:href="#DejaVuSans-33" transform="translate(644.140625 0)"/>
      <use xlink:href="#DejaVuSans-32" transform="translate(707.763672 0)"/>
      <use xlink:href="#DejaVuSans-29" transform="translate(771.386719 0)"/>
     </g>
    </g>
    <g id="line2d_16">
     <defs>
      <path id="m770d3de7fd" d="M 0 3.872983 
C 1.027127 3.872983 2.012324 3.464901 2.738613 2.738613 
C 3.464901 2.012324 3.872983 1.027127 3.872983 0 
C 3.872983 -1.027127 3.464901 -2.012324 2.738613 -2.738613 
C 2.012324 -3.464901 1.027127 -3.872983 0 -3.872983 
C -1.027127 -3.872983 -2.012324 -3.464901 -2.738613 -2.738613 
C -3.464901 -2.012324 -3.872983 -1.027127 -3.872983 0 
C -3.872983 1.027127 -3.464901 2.012324 -2.738613 2.738613 
C -2.012324 3.464901 -1.027127 3.872983 0 3.872983 
z
"/>
     </defs>
     <g>
      <use xlink:href="#m770d3de7fd" x="355.508763" y="60.495563" style="fill: #4c72b0"/>
     </g>
    </g>
    <g id="text_11">
     <!-- Face-Based -->
     <g style="fill: #262626" transform="translate(382.436763 65.731563) scale(0.1496 -0.1496)">
      <defs>
       <path id="DejaVuSans-46" d="M 628 4666 
L 3309 4666 
L 3309 4134 
L 1259 4134 
L 1259 2759 
L 3109 2759 
L 3109 2228 
L 1259 2228 
L 1259 0 
L 628 0 
L 628 4666 
z
" transform="scale(0.015625)"/>
       <path id="DejaVuSans-63" d="M 3122 3366 
L 3122 2828 
Q 2878 2963 2633 3030 
Q 2388 3097 2138 3097 
Q 1578 3097 1268 2742 
Q 959 2388 959 1747 
Q 959 1106 1268 751 
Q 1578 397 2138 397 
Q 2388 397 2633 464 
Q 2878 531 3122 666 
L 3122 134 
Q 2881 22 2623 -34 
Q 2366 -91 2075 -91 
Q 1284 -91 818 406 
Q 353 903 353 1747 
Q 353 2603 823 3093 
Q 1294 3584 2113 3584 
Q 2378 3584 2631 3529 
Q 2884 3475 3122 3366 
z
" transform="scale(0.015625)"/>
       <path id="DejaVuSans-2d" d="M 313 2009 
L 1997 2009 
L 1997 1497 
L 313 1497 
L 313 2009 
z
" transform="scale(0.015625)"/>
       <path id="DejaVuSans-42" d="M 1259 2228 
L 1259 519 
L 2272 519 
Q 2781 519 3026 730 
Q 3272 941 3272 1375 
Q 3272 1813 3026 2020 
Q 2781 2228 2272 2228 
L 1259 2228 
z
M 1259 4147 
L 1259 2741 
L 2194 2741 
Q 2656 2741 2882 2914 
Q 3109 3088 3109 3444 
Q 3109 3797 2882 3972 
Q 2656 4147 2194 4147 
L 1259 4147 
z
M 628 4666 
L 2241 4666 
Q 2963 4666 3353 4366 
Q 3744 4066 3744 3513 
Q 3744 3084 3544 2831 
Q 3344 2578 2956 2516 
Q 3422 2416 3680 2098 
Q 3938 1781 3938 1306 
Q 3938 681 3513 340 
Q 3088 0 2303 0 
L 628 0 
L 628 4666 
z
" transform="scale(0.015625)"/>
       <path id="DejaVuSans-64" d="M 2906 2969 
L 2906 4863 
L 3481 4863 
L 3481 0 
L 2906 0 
L 2906 525 
Q 2725 213 2448 61 
Q 2172 -91 1784 -91 
Q 1150 -91 751 415 
Q 353 922 353 1747 
Q 353 2572 751 3078 
Q 1150 3584 1784 3584 
Q 2172 3584 2448 3432 
Q 2725 3281 2906 2969 
z
M 947 1747 
Q 947 1113 1208 752 
Q 1469 391 1925 391 
Q 2381 391 2643 752 
Q 2906 1113 2906 1747 
Q 2906 2381 2643 2742 
Q 2381 3103 1925 3103 
Q 1469 3103 1208 2742 
Q 947 2381 947 1747 
z
" transform="scale(0.015625)"/>
      </defs>
      <use xlink:href="#DejaVuSans-46"/>
      <use xlink:href="#DejaVuSans-61" transform="translate(48.394531 0)"/>
      <use xlink:href="#DejaVuSans-63" transform="translate(109.673828 0)"/>
      <use xlink:href="#DejaVuSans-65" transform="translate(164.654297 0)"/>
      <use xlink:href="#DejaVuSans-2d" transform="translate(226.177734 0)"/>
      <use xlink:href="#DejaVuSans-42" transform="translate(258.636719 0)"/>
      <use xlink:href="#DejaVuSans-61" transform="translate(327.240234 0)"/>
      <use xlink:href="#DejaVuSans-73" transform="translate(388.519531 0)"/>
      <use xlink:href="#DejaVuSans-65" transform="translate(440.619141 0)"/>
      <use xlink:href="#DejaVuSans-64" transform="translate(502.142578 0)"/>
     </g>
    </g>
    <g id="line2d_17">
     <defs>
      <path id="mb951952480" d="M -1.936492 3.872983 
L 0 1.936492 
L 1.936492 3.872983 
L 3.872983 1.936492 
L 1.936492 0 
L 3.872983 -1.936492 
L 1.936492 -3.872983 
L 0 -1.936492 
L -1.936492 -3.872983 
L -3.872983 -1.936492 
L -1.936492 0 
L -3.872983 1.936492 
z
"/>
     </defs>
     <g>
      <use xlink:href="#mb951952480" x="355.508763" y="82.454038" style="fill: #dd8452"/>
     </g>
    </g>
    <g id="text_12">
     <!-- Face-Based Global -->
     <g style="fill: #262626" transform="translate(382.436763 87.690038) scale(0.1496 -0.1496)">
      <defs>
       <path id="DejaVuSans-47" d="M 3809 666 
L 3809 1919 
L 2778 1919 
L 2778 2438 
L 4434 2438 
L 4434 434 
Q 4069 175 3628 42 
Q 3188 -91 2688 -91 
Q 1594 -91 976 548 
Q 359 1188 359 2328 
Q 359 3472 976 4111 
Q 1594 4750 2688 4750 
Q 3144 4750 3555 4637 
Q 3966 4525 4313 4306 
L 4313 3634 
Q 3963 3931 3569 4081 
Q 3175 4231 2741 4231 
Q 1884 4231 1454 3753 
Q 1025 3275 1025 2328 
Q 1025 1384 1454 906 
Q 1884 428 2741 428 
Q 3075 428 3337 486 
Q 3600 544 3809 666 
z
" transform="scale(0.015625)"/>
       <path id="DejaVuSans-6f" d="M 1959 3097 
Q 1497 3097 1228 2736 
Q 959 2375 959 1747 
Q 959 1119 1226 758 
Q 1494 397 1959 397 
Q 2419 397 2687 759 
Q 2956 1122 2956 1747 
Q 2956 2369 2687 2733 
Q 2419 3097 1959 3097 
z
M 1959 3584 
Q 2709 3584 3137 3096 
Q 3566 2609 3566 1747 
Q 3566 888 3137 398 
Q 2709 -91 1959 -91 
Q 1206 -91 779 398 
Q 353 888 353 1747 
Q 353 2609 779 3096 
Q 1206 3584 1959 3584 
z
" transform="scale(0.015625)"/>
      </defs>
      <use xlink:href="#DejaVuSans-46"/>
      <use xlink:href="#DejaVuSans-61" transform="translate(48.394531 0)"/>
      <use xlink:href="#DejaVuSans-63" transform="translate(109.673828 0)"/>
      <use xlink:href="#DejaVuSans-65" transform="translate(164.654297 0)"/>
      <use xlink:href="#DejaVuSans-2d" transform="translate(226.177734 0)"/>
      <use xlink:href="#DejaVuSans-42" transform="translate(258.636719 0)"/>
      <use xlink:href="#DejaVuSans-61" transform="translate(327.240234 0)"/>
      <use xlink:href="#DejaVuSans-73" transform="translate(388.519531 0)"/>
      <use xlink:href="#DejaVuSans-65" transform="translate(440.619141 0)"/>
      <use xlink:href="#DejaVuSans-64" transform="translate(502.142578 0)"/>
      <use xlink:href="#DejaVuSans-20" transform="translate(565.619141 0)"/>
      <use xlink:href="#DejaVuSans-47" transform="translate(597.40625 0)"/>
      <use xlink:href="#DejaVuSans-6c" transform="translate(674.896484 0)"/>
      <use xlink:href="#DejaVuSans-6f" transform="translate(702.679688 0)"/>
      <use xlink:href="#DejaVuSans-62" transform="translate(763.861328 0)"/>
      <use xlink:href="#DejaVuSans-61" transform="translate(827.337891 0)"/>
      <use xlink:href="#DejaVuSans-6c" transform="translate(888.617188 0)"/>
     </g>
    </g>
    <g id="line2d_18">
     <defs>
      <path id="m5c2a58f42e" d="M -2.738613 -2.738613 
L -2.738613 2.738613 
L 2.738613 2.738613 
L 2.738613 -2.738613 
z
"/>
     </defs>
     <g>
      <use xlink:href="#m5c2a58f42e" x="355.508763" y="104.412513" style="fill: #55a868"/>
     </g>
    </g>
    <g id="text_13">
     <!-- Face-Based Batched -->
     <g style="fill: #262626" transform="translate(382.436763 109.648513) scale(0.1496 -0.1496)">
      <defs>
       <path id="DejaVuSans-68" d="M 3513 2113 
L 3513 0 
L 2938 0 
L 2938 2094 
Q 2938 2591 2744 2837 
Q 2550 3084 2163 3084 
Q 1697 3084 1428 2787 
Q 1159 2491 1159 1978 
L 1159 0 
L 581 0 
L 581 4863 
L 1159 4863 
L 1159 2956 
Q 1366 3272 1645 3428 
Q 1925 3584 2291 3584 
Q 2894 3584 3203 3211 
Q 3513 2838 3513 2113 
z
" transform="scale(0.015625)"/>
      </defs>
      <use xlink:href="#DejaVuSans-46"/>
      <use xlink:href="#DejaVuSans-61" transform="translate(48.394531 0)"/>
      <use xlink:href="#DejaVuSans-63" transform="translate(109.673828 0)"/>
      <use xlink:href="#DejaVuSans-65" transform="translate(164.654297 0)"/>
      <use xlink:href="#DejaVuSans-2d" transform="translate(226.177734 0)"/>
      <use xlink:href="#DejaVuSans-42" transform="translate(258.636719 0)"/>
      <use xlink:href="#DejaVuSans-61" transform="translate(327.240234 0)"/>
      <use xlink:href="#DejaVuSans-73" transform="translate(388.519531 0)"/>
      <use xlink:href="#DejaVuSans-65" transform="translate(440.619141 0)"/>
      <use xlink:href="#DejaVuSans-64" transform="translate(502.142578 0)"/>
      <use xlink:href="#DejaVuSans-20" transform="translate(565.619141 0)"/>
      <use xlink:href="#DejaVuSans-42" transform="translate(597.40625 0)"/>
      <use xlink:href="#DejaVuSans-61" transform="translate(666.009766 0)"/>
      <use xlink:href="#DejaVuSans-74" transform="translate(727.289062 0)"/>
      <use xlink:href="#DejaVuSans-63" transform="translate(766.498047 0)"/>
      <use xlink:href="#DejaVuSans-68" transform="translate(821.478516 0)"/>
      <use xlink:href="#DejaVuSans-65" transform="translate(884.857422 0)"/>
      <use xlink:href="#DejaVuSans-64" transform="translate(946.380859 0)"/>
     </g>
    </g>
    <g id="line2d_19">
     <defs>
      <path id="mb8b360ead2" d="M -1.290994 3.872983 
L 1.290994 3.872983 
L 1.290994 1.290994 
L 3.872983 1.290994 
L 3.872983 -1.290994 
L 1.290994 -1.290994 
L 1.290994 -3.872983 
L -1.290994 -3.872983 
L -1.290994 -1.290994 
L -3.872983 -1.290994 
L -3.872983 1.290994 
L -1.290994 1.290994 
z
"/>
     </defs>
     <g>
      <use xlink:href="#mb8b360ead2" x="355.508763" y="126.370988" style="fill: #c44e52"/>
     </g>
    </g>
    <g id="text_14">
     <!-- Cell-Based -->
     <g style="fill: #262626" transform="translate(382.436763 131.606988) scale(0.1496 -0.1496)">
      <use xlink:href="#DejaVuSans-43"/>
      <use xlink:href="#DejaVuSans-65" transform="translate(69.824219 0)"/>
      <use xlink:href="#DejaVuSans-6c" transform="translate(131.347656 0)"/>
      <use xlink:href="#DejaVuSans-6c" transform="translate(159.130859 0)"/>
      <use xlink:href="#DejaVuSans-2d" transform="translate(186.914062 0)"/>
      <use xlink:href="#DejaVuSans-42" transform="translate(219.373047 0)"/>
      <use xlink:href="#DejaVuSans-61" transform="translate(287.976562 0)"/>
      <use xlink:href="#DejaVuSans-73" transform="translate(349.255859 0)"/>
      <use xlink:href="#DejaVuSans-65" transform="translate(401.355469 0)"/>
      <use xlink:href="#DejaVuSans-64" transform="translate(462.878906 0)"/>
     </g>
    </g>
   </g>
  </g>
 </g>
 <defs>
  <clipPath id="p8d3cf49503">
   <rect x="85.491277" y="17.6256" width="461.489123" height="274.1448"/>
  </clipPath>
 </defs>
</svg>
