<?xml version="1.0" encoding="utf-8" standalone="no"?>
<!DOCTYPE svg PUBLIC "-//W3C//DTD SVG 1.1//EN"
  "http://www.w3.org/Graphics/SVG/1.1/DTD/svg11.dtd">
<svg xmlns:xlink="http://www.w3.org/1999/xlink" width="564.606pt" height="360pt" viewBox="0 0 564.606 360" xmlns="http://www.w3.org/2000/svg" version="1.1">
 <metadata>
  <rdf:RDF xmlns:dc="http://purl.org/dc/elements/1.1/" xmlns:cc="http://creativecommons.org/ns#" xmlns:rdf="http://www.w3.org/1999/02/22-rdf-syntax-ns#">
   <cc:Work>
    <dc:type rdf:resource="http://purl.org/dc/dcmitype/StillImage"/>
    <dc:date>2026-04-12T18:01:12.465435</dc:date>
    <dc:format>image/svg+xml</dc:format>
    <dc:creator>
     <cc:Agent>
      <dc:title>Matplotlib v3.10.8, https://matplotlib.org/</dc:title>
     </cc:Agent>
    </dc:creator>
   </cc:Work>
  </rdf:RDF>
 </metadata>
 <defs>
  <style type="text/css">*{stroke-linejoin: round; stroke-linecap: butt}</style>
 </defs>
 <g id="figure_1">
  <g id="patch_1">
   <path d="M 0 360 
L 564.606 360 
L 564.606 0 
L 0 0 
z
" style="fill: #ffffff"/>
  </g>
  <g id="axes_1">
   <g id="patch_2">
    <path d="M 85.491277 291.7704 
L 546.9804 291.7704 
L 546.9804 17.6256 
L 85.491277 17.6256 
z
" style="fill: #ffffff"/>
   </g>
   <g id="matplotlib.axis_1">
    <g id="xtick_1">
     <g id="line2d_1">
      <path d="M 106.468055 291.7704 
L 106.468055 17.6256 
" clip-path="url(#pc79a871fea)" style="fill: none; stroke: #cccccc; stroke-width: 0.8; stroke-linecap: round"/>
     </g>
     <g id="text_1">
      <!-- $\mathdefault{10^{3}}$ -->
      <g style="fill: #262626" transform="translate(93.303255 311.437662) scale(0.1496 -0.1496)">
       <defs>
        <path id="DejaVuSans-31" d="M 794 531 
L 1825 531 
L 1825 4091 
L 703 3866 
L 703 4441 
L 1819 4666 
L 2450 4666 
L 2450 531 
L 3481 531 
L 3481 0 
L 794 0 
L 794 531 
z
" transform="scale(0.015625)"/>
        <path id="DejaVuSans-30" d="M 2034 4250 
Q 1547 4250 1301 3770 
Q 1056 3291 1056 2328 
Q 1056 1369 1301 889 
Q 1547 409 2034 409 
Q 2525 409 2770 889 
Q 3016 1369 3016 2328 
Q 3016 3291 2770 3770 
Q 2525 4250 2034 4250 
z
M 2034 4750 
Q 2819 4750 3233 4129 
Q 3647 3509 3647 2328 
Q 3647 1150 3233 529 
Q 2819 -91 2034 -91 
Q 1250 -91 836 529 
Q 422 1150 422 2328 
Q 422 3509 836 4129 
Q 1250 4750 2034 4750 
z
" transform="scale(0.015625)"/>
        <path id="DejaVuSans-33" d="M 2597 2516 
Q 3050 2419 3304 2112 
Q 3559 1806 3559 1356 
Q 3559 666 3084 287 
Q 2609 -91 1734 -91 
Q 1441 -91 1130 -33 
Q 819 25 488 141 
L 488 750 
Q 750 597 1062 519 
Q 1375 441 1716 441 
Q 2309 441 2620 675 
Q 2931 909 2931 1356 
Q 2931 1769 2642 2001 
Q 2353 2234 1838 2234 
L 1294 2234 
L 1294 2753 
L 1863 2753 
Q 2328 2753 2575 2939 
Q 2822 3125 2822 3475 
Q 2822 3834 2567 4026 
Q 2313 4219 1838 4219 
Q 1578 4219 1281 4162 
Q 984 4106 628 3988 
L 628 4550 
Q 988 4650 1302 4700 
Q 1616 4750 1894 4750 
Q 2613 4750 3031 4423 
Q 3450 4097 3450 3541 
Q 3450 3153 3228 2886 
Q 3006 2619 2597 2516 
z
" transform="scale(0.015625)"/>
       </defs>
       <use xlink:href="#DejaVuSans-31" transform="translate(0 0.765625)"/>
       <use xlink:href="#DejaVuSans-30" transform="translate(63.623047 0.765625)"/>
       <use xlink:href="#DejaVuSans-33" transform="translate(128.203125 39.046875) scale(0.7)"/>
      </g>
     </g>
    </g>
    <g id="xtick_2">
     <g id="line2d_2">
      <path d="M 213.956114 291.7704 
L 213.956114 17.6256 
" clip-path="url(#pc79a871fea)" style="fill: none; stroke: #cccccc; stroke-width: 0.8; stroke-linecap: round"/>
     </g>
     <g id="text_2">
      <!-- $\mathdefault{10^{4}}$ -->
      <g style="fill: #262626" transform="translate(200.791314 311.437662) scale(0.1496 -0.1496)">
       <defs>
        <path id="DejaVuSans-34" d="M 2419 4116 
L 825 1625 
L 2419 1625 
L 2419 4116 
z
M 2253 4666 
L 3047 4666 
L 3047 1625 
L 3713 1625 
L 3713 1100 
L 3047 1100 
L 3047 0 
L 2419 0 
L 2419 1100 
L 313 1100 
L 313 1709 
L 2253 4666 
z
" transform="scale(0.015625)"/>
       </defs>
       <use xlink:href="#DejaVuSans-31" transform="translate(0 0.684375)"/>
       <use xlink:href="#DejaVuSans-30" transform="translate(63.623047 0.684375)"/>
       <use xlink:href="#DejaVuSans-34" transform="translate(128.203125 38.965625) scale(0.7)"/>
      </g>
     </g>
    </g>
    <g id="xtick_3">
     <g id="line2d_3">
      <path d="M 321.444173 291.7704 
L 321.444173 17.6256 
" clip-path="url(#pc79a871fea)" style="fill: none; stroke: #cccccc; stroke-width: 0.8; stroke-linecap: round"/>
     </g>
     <g id="text_3">
      <!-- $\mathdefault{10^{5}}$ -->
      <g style="fill: #262626" transform="translate(308.279373 311.437662) scale(0.1496 -0.1496)">
       <defs>
        <path id="DejaVuSans-35" d="M 691 4666 
L 3169 4666 
L 3169 4134 
L 1269 4134 
L 1269 2991 
Q 1406 3038 1543 3061 
Q 1681 3084 1819 3084 
Q 2600 3084 3056 2656 
Q 3513 2228 3513 1497 
Q 3513 744 3044 326 
Q 2575 -91 1722 -91 
Q 1428 -91 1123 -41 
Q 819 9 494 109 
L 494 744 
Q 775 591 1075 516 
Q 1375 441 1709 441 
Q 2250 441 2565 725 
Q 2881 1009 2881 1497 
Q 2881 1984 2565 2268 
Q 2250 2553 1709 2553 
Q 1456 2553 1204 2497 
Q 953 2441 691 2322 
L 691 4666 
z
" transform="scale(0.015625)"/>
       </defs>
       <use xlink:href="#DejaVuSans-31" transform="translate(0 0.684375)"/>
       <use xlink:href="#DejaVuSans-30" transform="translate(63.623047 0.684375)"/>
       <use xlink:href="#DejaVuSans-35" transform="translate(128.203125 38.965625) scale(0.7)"/>
      </g>
     </g>
    </g>
    <g id="xtick_4">
     <g id="line2d_4">
      <path d="M 428.932232 291.7704 
L 428.932232 17.6256 
" clip-path="url(#pc79a871fea)" style="fill: none; stroke: #cccccc; stroke-width: 0.8; stroke-linecap: round"/>
     </g>
     <g id="text_4">
      <!-- $\mathdefault{10^{6}}$ -->
      <g style="fill: #262626" transform="translate(415.767432 311.437662) scale(0.1496 -0.1496)">
       <defs>
        <path id="DejaVuSans-36" d="M 2113 2584 
Q 1688 2584 1439 2293 
Q 1191 2003 1191 1497 
Q 1191 994 1439 701 
Q 1688 409 2113 409 
Q 2538 409 2786 701 
Q 3034 994 3034 1497 
Q 3034 2003 2786 2293 
Q 2538 2584 2113 2584 
z
M 3366 4563 
L 3366 3988 
Q 3128 4100 2886 4159 
Q 2644 4219 2406 4219 
Q 1781 4219 1451 3797 
Q 1122 3375 1075 2522 
Q 1259 2794 1537 2939 
Q 1816 3084 2150 3084 
Q 2853 3084 3261 2657 
Q 3669 2231 3669 1497 
Q 3669 778 3244 343 
Q 2819 -91 2113 -91 
Q 1303 -91 875 529 
Q 447 1150 447 2328 
Q 447 3434 972 4092 
Q 1497 4750 2381 4750 
Q 2619 4750 2861 4703 
Q 3103 4656 3366 4563 
z
" transform="scale(0.015625)"/>
       </defs>
       <use xlink:href="#DejaVuSans-31" transform="translate(0 0.765625)"/>
       <use xlink:href="#DejaVuSans-30" transform="translate(63.623047 0.765625)"/>
       <use xlink:href="#DejaVuSans-36" transform="translate(128.203125 39.046875) scale(0.7)"/>
      </g>
     </g>
    </g>
    <g id="xtick_5">
     <g id="line2d_5">
      <path d="M 536.420291 291.7704 
L 536.420291 17.6256 
" clip-path="url(#pc79a871fea)" style="fill: none; stroke: #cccccc; stroke-width: 0.8; stroke-linecap: round"/>
     </g>
     <g id="text_5">
      <!-- $\mathdefault{10^{7}}$ -->
      <g style="fill: #262626" transform="translate(523.255491 311.437662) scale(0.1496 -0.1496)">
       <defs>
        <path id="DejaVuSans-37" d="M 525 4666 
L 3525 4666 
L 3525 4397 
L 1831 0 
L 1172 0 
L 2766 4134 
L 525 4134 
L 525 4666 
z
" transform="scale(0.015625)"/>
       </defs>
       <use xlink:href="#DejaVuSans-31" transform="translate(0 0.684375)"/>
       <use xlink:href="#DejaVuSans-30" transform="translate(63.623047 0.684375)"/>
       <use xlink:href="#DejaVuSans-37" transform="translate(128.203125 38.965625) scale(0.7)"/>
      </g>
     </g>
    </g>
    <g id="xtick_6"/>
    <g id="xtick_7"/>
    <g id="xtick_8"/>
    <g id="xtick_9"/>
    <g id="xtick_10"/>
    <g id="xtick_11"/>
    <g id="xtick_12"/>
    <g id="xtick_13"/>
    <g id="xtick_14"/>
    <g id="xtick_15"/>
    <g id="xtick_16"/>
    <g id="xtick_17"/>
    <g id="xtick_18"/>
    <g id="xtick_19"/>
    <g id="xtick_20"/>
    <g id="xtick_21"/>
    <g id="xtick_22"/>
    <g id="xtick_23"/>
    <g id="xtick_24"/>
    <g id="xtick_25"/>
    <g id="xtick_26"/>
    <g id="xtick_27"/>
    <g id="xtick_28"/>
    <g id="xtick_29"/>
    <g id="xtick_30"/>
    <g id="xtick_31"/>
    <g id="xtick_32"/>
    <g id="xtick_33"/>
    <g id="xtick_34"/>
    <g id="xtick_35"/>
    <g id="xtick_36"/>
    <g id="xtick_37"/>
    <g id="xtick_38"/>
    <g id="xtick_39"/>
    <g id="xtick_40"/>
    <g id="text_6">
     <!-- #Cells -->
     <g style="fill: #262626" transform="translate(283.954588 333.74575) scale(0.2 -0.2)">
      <defs>
       <path id="DejaVuSans-23" d="M 3272 2816 
L 2363 2816 
L 2100 1772 
L 3016 1772 
L 3272 2816 
z
M 2803 4594 
L 2478 3297 
L 3391 3297 
L 3719 4594 
L 4219 4594 
L 3897 3297 
L 4872 3297 
L 4872 2816 
L 3775 2816 
L 3519 1772 
L 4513 1772 
L 4513 1294 
L 3397 1294 
L 3072 0 
L 2572 0 
L 2894 1294 
L 1978 1294 
L 1656 0 
L 1153 0 
L 1478 1294 
L 494 1294 
L 494 1772 
L 1594 1772 
L 1856 2816 
L 850 2816 
L 850 3297 
L 1978 3297 
L 2297 4594 
L 2803 4594 
z
" transform="scale(0.015625)"/>
       <path id="DejaVuSans-43" d="M 4122 4306 
L 4122 3641 
Q 3803 3938 3442 4084 
Q 3081 4231 2675 4231 
Q 1875 4231 1450 3742 
Q 1025 3253 1025 2328 
Q 1025 1406 1450 917 
Q 1875 428 2675 428 
Q 3081 428 3442 575 
Q 3803 722 4122 1019 
L 4122 359 
Q 3791 134 3420 21 
Q 3050 -91 2638 -91 
Q 1578 -91 968 557 
Q 359 1206 359 2328 
Q 359 3453 968 4101 
Q 1578 4750 2638 4750 
Q 3056 4750 3426 4639 
Q 3797 4528 4122 4306 
z
" transform="scale(0.015625)"/>
       <path id="DejaVuSans-65" d="M 3597 1894 
L 3597 1613 
L 953 1613 
Q 991 1019 1311 708 
Q 1631 397 2203 397 
Q 2534 397 2845 478 
Q 3156 559 3463 722 
L 3463 178 
Q 3153 47 2828 -22 
Q 2503 -91 2169 -91 
Q 1331 -91 842 396 
Q 353 884 353 1716 
Q 353 2575 817 3079 
Q 1281 3584 2069 3584 
Q 2775 3584 3186 3129 
Q 3597 2675 3597 1894 
z
M 3022 2063 
Q 3016 2534 2758 2815 
Q 2500 3097 2075 3097 
Q 1594 3097 1305 2825 
Q 1016 2553 972 2059 
L 3022 2063 
z
" transform="scale(0.015625)"/>
       <path id="DejaVuSans-6c" d="M 603 4863 
L 1178 4863 
L 1178 0 
L 603 0 
L 603 4863 
z
" transform="scale(0.015625)"/>
       <path id="DejaVuSans-73" d="M 2834 3397 
L 2834 2853 
Q 2591 2978 2328 3040 
Q 2066 3103 1784 3103 
Q 1356 3103 1142 2972 
Q 928 2841 928 2578 
Q 928 2378 1081 2264 
Q 1234 2150 1697 2047 
L 1894 2003 
Q 2506 1872 2764 1633 
Q 3022 1394 3022 966 
Q 3022 478 2636 193 
Q 2250 -91 1575 -91 
Q 1294 -91 989 -36 
Q 684 19 347 128 
L 347 722 
Q 666 556 975 473 
Q 1284 391 1588 391 
Q 1994 391 2212 530 
Q 2431 669 2431 922 
Q 2431 1156 2273 1281 
Q 2116 1406 1581 1522 
L 1381 1569 
Q 847 1681 609 1914 
Q 372 2147 372 2553 
Q 372 3047 722 3315 
Q 1072 3584 1716 3584 
Q 2034 3584 2315 3537 
Q 2597 3491 2834 3397 
z
" transform="scale(0.015625)"/>
      </defs>
      <use xlink:href="#DejaVuSans-23"/>
      <use xlink:href="#DejaVuSans-43" transform="translate(83.789062 0)"/>
      <use xlink:href="#DejaVuSans-65" transform="translate(153.613281 0)"/>
      <use xlink:href="#DejaVuSans-6c" transform="translate(215.136719 0)"/>
      <use xlink:href="#DejaVuSans-6c" transform="translate(242.919922 0)"/>
      <use xlink:href="#DejaVuSans-73" transform="translate(270.703125 0)"/>
     </g>
    </g>
   </g>
   <g id="matplotlib.axis_2">
    <g id="ytick_1">
     <g id="line2d_6">
      <path d="M 85.491277 259.61763 
L 546.9804 259.61763 
" clip-path="url(#pc79a871fea)" style="fill: none; stroke: #cccccc; stroke-width: 0.8; stroke-linecap: round"/>
     </g>
     <g id="text_7">
      <!-- $\mathdefault{10^{-5}}$ -->
      <g style="fill: #262626" transform="translate(42.035277 265.301261) scale(0.1496 -0.1496)">
       <defs>
        <path id="DejaVuSans-2212" d="M 678 2272 
L 4684 2272 
L 4684 1741 
L 678 1741 
L 678 2272 
z
" transform="scale(0.015625)"/>
       </defs>
       <use xlink:href="#DejaVuSans-31" transform="translate(0 0.684375)"/>
       <use xlink:href="#DejaVuSans-30" transform="translate(63.623047 0.684375)"/>
       <use xlink:href="#DejaVuSans-2212" transform="translate(128.203125 38.965625) scale(0.7)"/>
       <use xlink:href="#DejaVuSans-35" transform="translate(186.855469 38.965625) scale(0.7)"/>
      </g>
     </g>
    </g>
    <g id="ytick_2">
     <g id="line2d_7">
      <path d="M 85.491277 135.976917 
L 546.9804 135.976917 
" clip-path="url(#pc79a871fea)" style="fill: none; stroke: #cccccc; stroke-width: 0.8; stroke-linecap: round"/>
     </g>
     <g id="text_8">
      <!-- $\mathdefault{10^{-4}}$ -->
      <g style="fill: #262626" transform="translate(42.035277 141.660548) scale(0.1496 -0.1496)">
       <use xlink:href="#DejaVuSans-31" transform="translate(0 0.684375)"/>
       <use xlink:href="#DejaVuSans-30" transform="translate(63.623047 0.684375)"/>
       <use xlink:href="#DejaVuSans-2212" transform="translate(128.203125 38.965625) scale(0.7)"/>
       <use xlink:href="#DejaVuSans-34" transform="translate(186.855469 38.965625) scale(0.7)"/>
      </g>
     </g>
    </g>
    <g id="ytick_3"/>
    <g id="ytick_4"/>
    <g id="ytick_5"/>
    <g id="ytick_6"/>
    <g id="ytick_7"/>
    <g id="ytick_8"/>
    <g id="ytick_9"/>
    <g id="ytick_10"/>
    <g id="ytick_11"/>
    <g id="ytick_12"/>
    <g id="ytick_13"/>
    <g id="ytick_14"/>
    <g id="ytick_15"/>
    <g id="ytick_16"/>
    <g id="ytick_17"/>
    <g id="ytick_18"/>
    <g id="ytick_19"/>
    <g id="ytick_20"/>
    <g id="ytick_21"/>
    <g id="ytick_22"/>
    <g id="text_9">
     <!-- Assembly Time per Cell (ms) -->
     <g style="fill: #262626" transform="translate(33.875902 298.133938) rotate(-90) scale(0.2 -0.2)">
      <defs>
       <path id="DejaVuSans-41" d="M 2188 4044 
L 1331 1722 
L 3047 1722 
L 2188 4044 
z
M 1831 4666 
L 2547 4666 
L 4325 0 
L 3669 0 
L 3244 1197 
L 1141 1197 
L 716 0 
L 50 0 
L 1831 4666 
z
" transform="scale(0.015625)"/>
       <path id="DejaVuSans-6d" d="M 3328 2828 
Q 3544 3216 3844 3400 
Q 4144 3584 4550 3584 
Q 5097 3584 5394 3201 
Q 5691 2819 5691 2113 
L 5691 0 
L 5113 0 
L 5113 2094 
Q 5113 2597 4934 2840 
Q 4756 3084 4391 3084 
Q 3944 3084 3684 2787 
Q 3425 2491 3425 1978 
L 3425 0 
L 2847 0 
L 2847 2094 
Q 2847 2600 2669 2842 
Q 2491 3084 2119 3084 
Q 1678 3084 1418 2786 
Q 1159 2488 1159 1978 
L 1159 0 
L 581 0 
L 581 3500 
L 1159 3500 
L 1159 2956 
Q 1356 3278 1631 3431 
Q 1906 3584 2284 3584 
Q 2666 3584 2933 3390 
Q 3200 3197 3328 2828 
z
" transform="scale(0.015625)"/>
       <path id="DejaVuSans-62" d="M 3116 1747 
Q 3116 2381 2855 2742 
Q 2594 3103 2138 3103 
Q 1681 3103 1420 2742 
Q 1159 2381 1159 1747 
Q 1159 1113 1420 752 
Q 1681 391 2138 391 
Q 2594 391 2855 752 
Q 3116 1113 3116 1747 
z
M 1159 2969 
Q 1341 3281 1617 3432 
Q 1894 3584 2278 3584 
Q 2916 3584 3314 3078 
Q 3713 2572 3713 1747 
Q 3713 922 3314 415 
Q 2916 -91 2278 -91 
Q 1894 -91 1617 61 
Q 1341 213 1159 525 
L 1159 0 
L 581 0 
L 581 4863 
L 1159 4863 
L 1159 2969 
z
" transform="scale(0.015625)"/>
       <path id="DejaVuSans-79" d="M 2059 -325 
Q 1816 -950 1584 -1140 
Q 1353 -1331 966 -1331 
L 506 -1331 
L 506 -850 
L 844 -850 
Q 1081 -850 1212 -737 
Q 1344 -625 1503 -206 
L 1606 56 
L 191 3500 
L 800 3500 
L 1894 763 
L 2988 3500 
L 3597 3500 
L 2059 -325 
z
" transform="scale(0.015625)"/>
       <path id="DejaVuSans-20" transform="scale(0.015625)"/>
       <path id="DejaVuSans-54" d="M -19 4666 
L 3928 4666 
L 3928 4134 
L 2272 4134 
L 2272 0 
L 1638 0 
L 1638 4134 
L -19 4134 
L -19 4666 
z
" transform="scale(0.015625)"/>
       <path id="DejaVuSans-69" d="M 603 3500 
L 1178 3500 
L 1178 0 
L 603 0 
L 603 3500 
z
M 603 4863 
L 1178 4863 
L 1178 4134 
L 603 4134 
L 603 4863 
z
" transform="scale(0.015625)"/>
       <path id="DejaVuSans-70" d="M 1159 525 
L 1159 -1331 
L 581 -1331 
L 581 3500 
L 1159 3500 
L 1159 2969 
Q 1341 3281 1617 3432 
Q 1894 3584 2278 3584 
Q 2916 3584 3314 3078 
Q 3713 2572 3713 1747 
Q 3713 922 3314 415 
Q 2916 -91 2278 -91 
Q 1894 -91 1617 61 
Q 1341 213 1159 525 
z
M 3116 1747 
Q 3116 2381 2855 2742 
Q 2594 3103 2138 3103 
Q 1681 3103 1420 2742 
Q 1159 2381 1159 1747 
Q 1159 1113 1420 752 
Q 1681 391 2138 391 
Q 2594 391 2855 752 
Q 3116 1113 3116 1747 
z
" transform="scale(0.015625)"/>
       <path id="DejaVuSans-72" d="M 2631 2963 
Q 2534 3019 2420 3045 
Q 2306 3072 2169 3072 
Q 1681 3072 1420 2755 
Q 1159 2438 1159 1844 
L 1159 0 
L 581 0 
L 581 3500 
L 1159 3500 
L 1159 2956 
Q 1341 3275 1631 3429 
Q 1922 3584 2338 3584 
Q 2397 3584 2469 3576 
Q 2541 3569 2628 3553 
L 2631 2963 
z
" transform="scale(0.015625)"/>
       <path id="DejaVuSans-28" d="M 1984 4856 
Q 1566 4138 1362 3434 
Q 1159 2731 1159 2009 
Q 1159 1288 1364 580 
Q 1569 -128 1984 -844 
L 1484 -844 
Q 1016 -109 783 600 
Q 550 1309 550 2009 
Q 550 2706 781 3412 
Q 1013 4119 1484 4856 
L 1984 4856 
z
" transform="scale(0.015625)"/>
       <path id="DejaVuSans-29" d="M 513 4856 
L 1013 4856 
Q 1481 4119 1714 3412 
Q 1947 2706 1947 2009 
Q 1947 1309 1714 600 
Q 1481 -109 1013 -844 
L 513 -844 
Q 928 -128 1133 580 
Q 1338 1288 1338 2009 
Q 1338 2731 1133 3434 
Q 928 4138 513 4856 
z
" transform="scale(0.015625)"/>
      </defs>
      <use xlink:href="#DejaVuSans-41"/>
      <use xlink:href="#DejaVuSans-73" transform="translate(68.408203 0)"/>
      <use xlink:href="#DejaVuSans-73" transform="translate(120.507812 0)"/>
      <use xlink:href="#DejaVuSans-65" transform="translate(172.607422 0)"/>
      <use xlink:href="#DejaVuSans-6d" transform="translate(234.130859 0)"/>
      <use xlink:href="#DejaVuSans-62" transform="translate(331.542969 0)"/>
      <use xlink:href="#DejaVuSans-6c" transform="translate(395.019531 0)"/>
      <use xlink:href="#DejaVuSans-79" transform="translate(422.802734 0)"/>
      <use xlink:href="#DejaVuSans-20" transform="translate(481.982422 0)"/>
      <use xlink:href="#DejaVuSans-54" transform="translate(513.769531 0)"/>
      <use xlink:href="#DejaVuSans-69" transform="translate(571.728516 0)"/>
      <use xlink:href="#DejaVuSans-6d" transform="translate(599.511719 0)"/>
      <use xlink:href="#DejaVuSans-65" transform="translate(696.923828 0)"/>
      <use xlink:href="#DejaVuSans-20" transform="translate(758.447266 0)"/>
      <use xlink:href="#DejaVuSans-70" transform="translate(790.234375 0)"/>
      <use xlink:href="#DejaVuSans-65" transform="translate(853.710938 0)"/>
      <use xlink:href="#DejaVuSans-72" transform="translate(915.234375 0)"/>
      <use xlink:href="#DejaVuSans-20" transform="translate(956.347656 0)"/>
      <use xlink:href="#DejaVuSans-43" transform="translate(988.134766 0)"/>
      <use xlink:href="#DejaVuSans-65" transform="translate(1057.958984 0)"/>
      <use xlink:href="#DejaVuSans-6c" transform="translate(1119.482422 0)"/>
      <use xlink:href="#DejaVuSans-6c" transform="translate(1147.265625 0)"/>
      <use xlink:href="#DejaVuSans-20" transform="translate(1175.048828 0)"/>
      <use xlink:href="#DejaVuSans-28" transform="translate(1206.835938 0)"/>
      <use xlink:href="#DejaVuSans-6d" transform="translate(1245.849609 0)"/>
      <use xlink:href="#DejaVuSans-73" transform="translate(1343.261719 0)"/>
      <use xlink:href="#DejaVuSans-29" transform="translate(1395.361328 0)"/>
     </g>
    </g>
   </g>
   <g id="PathCollection_1">
    <path d="M 106.468055 123.364875 
C 107.495182 123.364875 108.480379 122.956793 109.206668 122.230505 
C 109.932956 121.504216 110.341038 120.519019 110.341038 119.491892 
C 110.341038 118.464765 109.932956 117.479568 109.206668 116.753279 
C 108.480379 116.02699 107.495182 115.618908 106.468055 115.618908 
C 105.440928 115.618908 104.455731 116.02699 103.729442 116.753279 
C 103.003154 117.479568 102.595072 118.464765 102.595072 119.491892 
C 102.595072 120.519019 103.003154 121.504216 103.729442 122.230505 
C 104.455731 122.956793 105.440928 123.364875 106.468055 123.364875 
z
" clip-path="url(#pc79a871fea)" style="fill: #4c72b0; stroke: #ffffff; stroke-width: 0.619677"/>
    <path d="M 104.531563 131.531852 
L 106.468055 129.59536 
L 108.404547 131.531852 
L 110.341038 129.59536 
L 108.404547 127.658869 
L 110.341038 125.722377 
L 108.404547 123.785885 
L 106.468055 125.722377 
L 104.531563 123.785885 
L 102.595072 125.722377 
L 104.531563 127.658869 
L 102.595072 129.59536 
z
" clip-path="url(#pc79a871fea)" style="fill: #dd8452; stroke: #ffffff; stroke-width: 0.619677"/>
    <path d="M 103.729442 27.348114 
L 103.729442 32.82534 
L 109.206668 32.82534 
L 109.206668 27.348114 
z
" clip-path="url(#pc79a871fea)" style="fill: #55a868; stroke: #ffffff; stroke-width: 0.619677"/>
    <path d="M 428.932232 269.384506 
C 429.959359 269.384506 430.944556 268.976424 431.670845 268.250136 
C 432.397133 267.523847 432.805215 266.53865 432.805215 265.511523 
C 432.805215 264.484396 432.397133 263.499199 431.670845 262.77291 
C 430.944556 262.046621 429.959359 261.638539 428.932232 261.638539 
C 427.905105 261.638539 426.919908 262.046621 426.193619 262.77291 
C 425.46733 263.499199 425.059249 264.484396 425.059249 265.511523 
C 425.059249 266.53865 425.46733 267.523847 426.193619 268.250136 
C 426.919908 268.976424 427.905105 269.384506 428.932232 269.384506 
z
" clip-path="url(#pc79a871fea)" style="fill: #4c72b0; stroke: #ffffff; stroke-width: 0.619677"/>
    <path d="M 426.99574 278.281429 
L 428.932232 276.344938 
L 430.868724 278.281429 
L 432.805215 276.344938 
L 430.868724 274.408446 
L 432.805215 272.471954 
L 430.868724 270.535463 
L 428.932232 272.471954 
L 426.99574 270.535463 
L 425.059249 272.471954 
L 426.99574 274.408446 
L 425.059249 276.344938 
z
" clip-path="url(#pc79a871fea)" style="fill: #dd8452; stroke: #ffffff; stroke-width: 0.619677"/>
    <path d="M 426.193619 201.216865 
L 426.193619 206.69409 
L 431.670845 206.69409 
L 431.670845 201.216865 
z
" clip-path="url(#pc79a871fea)" style="fill: #55a868; stroke: #ffffff; stroke-width: 0.619677"/>
    <path d="M 454.465347 271.699313 
C 455.492474 271.699313 456.477671 271.291231 457.20396 270.564942 
C 457.930249 269.838654 458.338331 268.853457 458.338331 267.826329 
C 458.338331 266.799202 457.930249 265.814005 457.20396 265.087717 
C 456.477671 264.361428 455.492474 263.953346 454.465347 263.953346 
C 453.43822 263.953346 452.453023 264.361428 451.726734 265.087717 
C 451.000446 265.814005 450.592364 266.799202 450.592364 267.826329 
C 450.592364 268.853457 451.000446 269.838654 451.726734 270.564942 
C 452.453023 271.291231 453.43822 271.699313 454.465347 271.699313 
z
" clip-path="url(#pc79a871fea)" style="fill: #4c72b0; stroke: #ffffff; stroke-width: 0.619677"/>
    <path d="M 452.528856 279.636759 
L 454.465347 277.700268 
L 456.401839 279.636759 
L 458.338331 277.700268 
L 456.401839 275.763776 
L 458.338331 273.827284 
L 456.401839 271.890793 
L 454.465347 273.827284 
L 452.528856 271.890793 
L 450.592364 273.827284 
L 452.528856 275.763776 
L 450.592364 277.700268 
z
" clip-path="url(#pc79a871fea)" style="fill: #dd8452; stroke: #ffffff; stroke-width: 0.619677"/>
    <path d="M 451.726734 206.801443 
L 451.726734 212.278669 
L 457.20396 212.278669 
L 457.20396 206.801443 
z
" clip-path="url(#pc79a871fea)" style="fill: #55a868; stroke: #ffffff; stroke-width: 0.619677"/>
    <path d="M 476.053289 275.358667 
C 477.080416 275.358667 478.065613 274.950585 478.791901 274.224297 
C 479.51819 273.498008 479.926272 272.512811 479.926272 271.485684 
C 479.926272 270.458557 479.51819 269.47336 478.791901 268.747071 
C 478.065613 268.020783 477.080416 267.612701 476.053289 267.612701 
C 475.026161 267.612701 474.040964 268.020783 473.314676 268.747071 
C 472.588387 269.47336 472.180305 270.458557 472.180305 271.485684 
C 472.180305 272.512811 472.588387 273.498008 473.314676 274.224297 
C 474.040964 274.950585 475.026161 275.358667 476.053289 275.358667 
z
" clip-path="url(#pc79a871fea)" style="fill: #4c72b0; stroke: #ffffff; stroke-width: 0.619677"/>
    <path d="M 474.116797 280.178195 
L 476.053289 278.241703 
L 477.98978 280.178195 
L 479.926272 278.241703 
L 477.98978 276.305211 
L 479.926272 274.36872 
L 477.98978 272.432228 
L 476.053289 274.36872 
L 474.116797 272.432228 
L 472.180305 274.36872 
L 474.116797 276.305211 
L 472.180305 278.241703 
z
" clip-path="url(#pc79a871fea)" style="fill: #dd8452; stroke: #ffffff; stroke-width: 0.619677"/>
    <path d="M 473.314676 210.139297 
L 473.314676 215.616522 
L 478.791901 215.616522 
L 478.791901 210.139297 
z
" clip-path="url(#pc79a871fea)" style="fill: #55a868; stroke: #ffffff; stroke-width: 0.619677"/>
    <path d="M 494.753614 273.580576 
C 495.780741 273.580576 496.765938 273.172494 497.492227 272.446205 
C 498.218515 271.719917 498.626597 270.73472 498.626597 269.707592 
C 498.626597 268.680465 498.218515 267.695268 497.492227 266.96898 
C 496.765938 266.242691 495.780741 265.834609 494.753614 265.834609 
C 493.726487 265.834609 492.74129 266.242691 492.015001 266.96898 
C 491.288713 267.695268 490.880631 268.680465 490.880631 269.707592 
C 490.880631 270.73472 491.288713 271.719917 492.015001 272.446205 
C 492.74129 273.172494 493.726487 273.580576 494.753614 273.580576 
z
" clip-path="url(#pc79a871fea)" style="fill: #4c72b0; stroke: #ffffff; stroke-width: 0.619677"/>
    <path d="M 492.817122 279.005281 
L 494.753614 277.06879 
L 496.690106 279.005281 
L 498.626597 277.06879 
L 496.690106 275.132298 
L 498.626597 273.195806 
L 496.690106 271.259315 
L 494.753614 273.195806 
L 492.817122 271.259315 
L 490.880631 273.195806 
L 492.817122 275.132298 
L 490.880631 277.06879 
z
" clip-path="url(#pc79a871fea)" style="fill: #dd8452; stroke: #ffffff; stroke-width: 0.619677"/>
    <path d="M 492.015001 212.114046 
L 492.015001 217.591272 
L 497.492227 217.591272 
L 497.492227 212.114046 
z
" clip-path="url(#pc79a871fea)" style="fill: #55a868; stroke: #ffffff; stroke-width: 0.619677"/>
    <path d="M 511.24847 278.472998 
C 512.275597 278.472998 513.260794 278.064916 513.987083 277.338627 
C 514.713372 276.612339 515.121453 275.627142 515.121453 274.600014 
C 515.121453 273.572887 514.713372 272.58769 513.987083 271.861402 
C 513.260794 271.135113 512.275597 270.727031 511.24847 270.727031 
C 510.221343 270.727031 509.236146 271.135113 508.509857 271.861402 
C 507.783569 272.58769 507.375487 273.572887 507.375487 274.600014 
C 507.375487 275.627142 507.783569 276.612339 508.509857 277.338627 
C 509.236146 278.064916 510.221343 278.472998 511.24847 278.472998 
z
" clip-path="url(#pc79a871fea)" style="fill: #4c72b0; stroke: #ffffff; stroke-width: 0.619677"/>
    <path d="M 509.311978 283.182256 
L 511.24847 281.245764 
L 513.184962 283.182256 
L 515.121453 281.245764 
L 513.184962 279.309273 
L 515.121453 277.372781 
L 513.184962 275.436289 
L 511.24847 277.372781 
L 509.311978 275.436289 
L 507.375487 277.372781 
L 509.311978 279.309273 
L 507.375487 281.245764 
z
" clip-path="url(#pc79a871fea)" style="fill: #dd8452; stroke: #ffffff; stroke-width: 0.619677"/>
    <path d="M 508.509857 214.374998 
L 508.509857 219.852223 
L 513.987083 219.852223 
L 513.987083 214.374998 
z
" clip-path="url(#pc79a871fea)" style="fill: #55a868; stroke: #ffffff; stroke-width: 0.619677"/>
    <path d="M 203.539445 201.1383 
C 204.566572 201.1383 205.551769 200.730218 206.278057 200.00393 
C 207.004346 199.277641 207.412428 198.292444 207.412428 197.265317 
C 207.412428 196.23819 207.004346 195.252993 206.278057 194.526704 
C 205.551769 193.800415 204.566572 193.392333 203.539445 193.392333 
C 202.512318 193.392333 201.527121 193.800415 200.800832 194.526704 
C 200.074543 195.252993 199.666461 196.23819 199.666461 197.265317 
C 199.666461 198.292444 200.074543 199.277641 200.800832 200.00393 
C 201.527121 200.730218 202.512318 201.1383 203.539445 201.1383 
z
" clip-path="url(#pc79a871fea)" style="fill: #4c72b0; stroke: #ffffff; stroke-width: 0.619677"/>
    <path d="M 201.602953 224.629855 
L 203.539445 222.693363 
L 205.475936 224.629855 
L 207.412428 222.693363 
L 205.475936 220.756871 
L 207.412428 218.82038 
L 205.475936 216.883888 
L 203.539445 218.82038 
L 201.602953 216.883888 
L 199.666461 218.82038 
L 201.602953 220.756871 
L 199.666461 222.693363 
z
" clip-path="url(#pc79a871fea)" style="fill: #dd8452; stroke: #ffffff; stroke-width: 0.619677"/>
    <path d="M 200.800832 134.316644 
L 200.800832 139.79387 
L 206.278057 139.79387 
L 206.278057 134.316644 
z
" clip-path="url(#pc79a871fea)" style="fill: #55a868; stroke: #ffffff; stroke-width: 0.619677"/>
    <path d="M 526.003622 280.004499 
C 527.030749 280.004499 528.015946 279.596417 528.742234 278.870129 
C 529.468523 278.14384 529.876605 277.158643 529.876605 276.131516 
C 529.876605 275.104389 529.468523 274.119192 528.742234 273.392903 
C 528.015946 272.666615 527.030749 272.258533 526.003622 272.258533 
C 524.976494 272.258533 523.991297 272.666615 523.265009 273.392903 
C 522.53872 274.119192 522.130638 275.104389 522.130638 276.131516 
C 522.130638 277.158643 522.53872 278.14384 523.265009 278.870129 
C 523.991297 279.596417 524.976494 280.004499 526.003622 280.004499 
z
" clip-path="url(#pc79a871fea)" style="fill: #4c72b0; stroke: #ffffff; stroke-width: 0.619677"/>
    <path d="M 524.06713 283.108749 
L 526.003622 281.172257 
L 527.940113 283.108749 
L 529.876605 281.172257 
L 527.940113 279.235765 
L 529.876605 277.299274 
L 527.940113 275.362782 
L 526.003622 277.299274 
L 524.06713 275.362782 
L 522.130638 277.299274 
L 524.06713 279.235765 
L 522.130638 281.172257 
z
" clip-path="url(#pc79a871fea)" style="fill: #dd8452; stroke: #ffffff; stroke-width: 0.619677"/>
    <path d="M 523.265009 214.843173 
L 523.265009 220.320399 
L 528.742234 220.320399 
L 528.742234 214.843173 
z
" clip-path="url(#pc79a871fea)" style="fill: #55a868; stroke: #ffffff; stroke-width: 0.619677"/>
    <path d="M 260.322568 224.043105 
C 261.349695 224.043105 262.334892 223.635023 263.06118 222.908735 
C 263.787469 222.182446 264.195551 221.197249 264.195551 220.170122 
C 264.195551 219.142995 263.787469 218.157798 263.06118 217.431509 
C 262.334892 216.70522 261.349695 216.297138 260.322568 216.297138 
C 259.29544 216.297138 258.310243 216.70522 257.583955 217.431509 
C 256.857666 218.157798 256.449584 219.142995 256.449584 220.170122 
C 256.449584 221.197249 256.857666 222.182446 257.583955 222.908735 
C 258.310243 223.635023 259.29544 224.043105 260.322568 224.043105 
z
" clip-path="url(#pc79a871fea)" style="fill: #4c72b0; stroke: #ffffff; stroke-width: 0.619677"/>
    <path d="M 258.386076 245.628243 
L 260.322568 243.691751 
L 262.259059 245.628243 
L 264.195551 243.691751 
L 262.259059 241.75526 
L 264.195551 239.818768 
L 262.259059 237.882276 
L 260.322568 239.818768 
L 258.386076 237.882276 
L 256.449584 239.818768 
L 258.386076 241.75526 
L 256.449584 243.691751 
z
" clip-path="url(#pc79a871fea)" style="fill: #dd8452; stroke: #ffffff; stroke-width: 0.619677"/>
    <path d="M 257.583955 188.195116 
L 257.583955 193.672342 
L 263.06118 193.672342 
L 263.06118 188.195116 
z
" clip-path="url(#pc79a871fea)" style="fill: #55a868; stroke: #ffffff; stroke-width: 0.619677"/>
    <path d="M 300.610834 236.957068 
C 301.637962 236.957068 302.623159 236.548986 303.349447 235.822698 
C 304.075736 235.096409 304.483818 234.111212 304.483818 233.084085 
C 304.483818 232.056958 304.075736 231.071761 303.349447 230.345472 
C 302.623159 229.619184 301.637962 229.211102 300.610834 229.211102 
C 299.583707 229.211102 298.59851 229.619184 297.872222 230.345472 
C 297.145933 231.071761 296.737851 232.056958 296.737851 233.084085 
C 296.737851 234.111212 297.145933 235.096409 297.872222 235.822698 
C 298.59851 236.548986 299.583707 236.957068 300.610834 236.957068 
z
" clip-path="url(#pc79a871fea)" style="fill: #4c72b0; stroke: #ffffff; stroke-width: 0.619677"/>
    <path d="M 298.674343 250.182998 
L 300.610834 248.246506 
L 302.547326 250.182998 
L 304.483818 248.246506 
L 302.547326 246.310014 
L 304.483818 244.373523 
L 302.547326 242.437031 
L 300.610834 244.373523 
L 298.674343 242.437031 
L 296.737851 244.373523 
L 298.674343 246.310014 
L 296.737851 248.246506 
z
" clip-path="url(#pc79a871fea)" style="fill: #dd8452; stroke: #ffffff; stroke-width: 0.619677"/>
    <path d="M 297.872222 208.303229 
L 297.872222 213.780454 
L 303.349447 213.780454 
L 303.349447 208.303229 
z
" clip-path="url(#pc79a871fea)" style="fill: #55a868; stroke: #ffffff; stroke-width: 0.619677"/>
    <path d="M 331.860842 256.667095 
C 332.887969 256.667095 333.873166 256.259013 334.599455 255.532724 
C 335.325743 254.806435 335.733825 253.821238 335.733825 252.794111 
C 335.733825 251.766984 335.325743 250.781787 334.599455 250.055499 
C 333.873166 249.32921 332.887969 248.921128 331.860842 248.921128 
C 330.833715 248.921128 329.848518 249.32921 329.122229 250.055499 
C 328.395941 250.781787 327.987859 251.766984 327.987859 252.794111 
C 327.987859 253.821238 328.395941 254.806435 329.122229 255.532724 
C 329.848518 256.259013 330.833715 256.667095 331.860842 256.667095 
z
" clip-path="url(#pc79a871fea)" style="fill: #4c72b0; stroke: #ffffff; stroke-width: 0.619677"/>
    <path d="M 329.92435 271.265726 
L 331.860842 269.329235 
L 333.797334 271.265726 
L 335.733825 269.329235 
L 333.797334 267.392743 
L 335.733825 265.456251 
L 333.797334 263.51976 
L 331.860842 265.456251 
L 329.92435 263.51976 
L 327.987859 265.456251 
L 329.92435 267.392743 
L 327.987859 269.329235 
z
" clip-path="url(#pc79a871fea)" style="fill: #dd8452; stroke: #ffffff; stroke-width: 0.619677"/>
    <path d="M 329.122229 220.664846 
L 329.122229 226.142072 
L 334.599455 226.142072 
L 334.599455 220.664846 
z
" clip-path="url(#pc79a871fea)" style="fill: #55a868; stroke: #ffffff; stroke-width: 0.619677"/>
    <path d="M 357.393957 261.089316 
C 358.421085 261.089316 359.406282 260.681234 360.13257 259.954945 
C 360.858859 259.228657 361.266941 258.24346 361.266941 257.216333 
C 361.266941 256.189205 360.858859 255.204008 360.13257 254.47772 
C 359.406282 253.751431 358.421085 253.343349 357.393957 253.343349 
C 356.36683 253.343349 355.381633 253.751431 354.655345 254.47772 
C 353.929056 255.204008 353.520974 256.189205 353.520974 257.216333 
C 353.520974 258.24346 353.929056 259.228657 354.655345 259.954945 
C 355.381633 260.681234 356.36683 261.089316 357.393957 261.089316 
z
" clip-path="url(#pc79a871fea)" style="fill: #4c72b0; stroke: #ffffff; stroke-width: 0.619677"/>
    <path d="M 355.457466 276.438665 
L 357.393957 274.502173 
L 359.330449 276.438665 
L 361.266941 274.502173 
L 359.330449 272.565681 
L 361.266941 270.62919 
L 359.330449 268.692698 
L 357.393957 270.62919 
L 355.457466 268.692698 
L 353.520974 270.62919 
L 355.457466 272.565681 
L 353.520974 274.502173 
z
" clip-path="url(#pc79a871fea)" style="fill: #dd8452; stroke: #ffffff; stroke-width: 0.619677"/>
    <path d="M 354.655345 198.02782 
L 354.655345 203.505045 
L 360.13257 203.505045 
L 360.13257 198.02782 
z
" clip-path="url(#pc79a871fea)" style="fill: #55a868; stroke: #ffffff; stroke-width: 0.619677"/>
    <path d="M 378.981899 266.339192 
C 380.009026 266.339192 380.994223 265.931111 381.720512 265.204822 
C 382.4468 264.478533 382.854882 263.493336 382.854882 262.466209 
C 382.854882 261.439082 382.4468 260.453885 381.720512 259.727596 
C 380.994223 259.001308 380.009026 258.593226 378.981899 258.593226 
C 377.954772 258.593226 376.969575 259.001308 376.243286 259.727596 
C 375.516997 260.453885 375.108915 261.439082 375.108915 262.466209 
C 375.108915 263.493336 375.516997 264.478533 376.243286 265.204822 
C 376.969575 265.931111 377.954772 266.339192 378.981899 266.339192 
z
" clip-path="url(#pc79a871fea)" style="fill: #4c72b0; stroke: #ffffff; stroke-width: 0.619677"/>
    <path d="M 377.045407 278.580023 
L 378.981899 276.643531 
L 380.918391 278.580023 
L 382.854882 276.643531 
L 380.918391 274.70704 
L 382.854882 272.770548 
L 380.918391 270.834056 
L 378.981899 272.770548 
L 377.045407 270.834056 
L 375.108915 272.770548 
L 377.045407 274.70704 
L 375.108915 276.643531 
z
" clip-path="url(#pc79a871fea)" style="fill: #dd8452; stroke: #ffffff; stroke-width: 0.619677"/>
    <path d="M 376.243286 204.36554 
L 376.243286 209.842766 
L 381.720512 209.842766 
L 381.720512 204.36554 
z
" clip-path="url(#pc79a871fea)" style="fill: #55a868; stroke: #ffffff; stroke-width: 0.619677"/>
    <path d="M 397.682224 266.095412 
C 398.709351 266.095412 399.694548 265.68733 400.420837 264.961041 
C 401.147126 264.234752 401.555208 263.249555 401.555208 262.222428 
C 401.555208 261.195301 401.147126 260.210104 400.420837 259.483815 
C 399.694548 258.757527 398.709351 258.349445 397.682224 258.349445 
C 396.655097 258.349445 395.6699 258.757527 394.943611 259.483815 
C 394.217323 260.210104 393.809241 261.195301 393.809241 262.222428 
C 393.809241 263.249555 394.217323 264.234752 394.943611 264.961041 
C 395.6699 265.68733 396.655097 266.095412 397.682224 266.095412 
z
" clip-path="url(#pc79a871fea)" style="fill: #4c72b0; stroke: #ffffff; stroke-width: 0.619677"/>
    <path d="M 395.745733 278.352095 
L 397.682224 276.415604 
L 399.618716 278.352095 
L 401.555208 276.415604 
L 399.618716 274.479112 
L 401.555208 272.54262 
L 399.618716 270.606129 
L 397.682224 272.54262 
L 395.745733 270.606129 
L 393.809241 272.54262 
L 395.745733 274.479112 
L 393.809241 276.415604 
z
" clip-path="url(#pc79a871fea)" style="fill: #dd8452; stroke: #ffffff; stroke-width: 0.619677"/>
    <path d="M 394.943611 203.413037 
L 394.943611 208.890263 
L 400.420837 208.890263 
L 400.420837 203.413037 
z
" clip-path="url(#pc79a871fea)" style="fill: #55a868; stroke: #ffffff; stroke-width: 0.619677"/>
    <path d="M 414.17708 266.379936 
C 415.204208 266.379936 416.189405 265.971854 416.915693 265.245565 
C 417.641982 264.519276 418.050064 263.534079 418.050064 262.506952 
C 418.050064 261.479825 417.641982 260.494628 416.915693 259.768339 
C 416.189405 259.042051 415.204208 258.633969 414.17708 258.633969 
C 413.149953 258.633969 412.164756 259.042051 411.438468 259.768339 
C 410.712179 260.494628 410.304097 261.479825 410.304097 262.506952 
C 410.304097 263.534079 410.712179 264.519276 411.438468 265.245565 
C 412.164756 265.971854 413.149953 266.379936 414.17708 266.379936 
z
" clip-path="url(#pc79a871fea)" style="fill: #4c72b0; stroke: #ffffff; stroke-width: 0.619677"/>
    <path d="M 412.240589 278.195747 
L 414.17708 276.259255 
L 416.113572 278.195747 
L 418.050064 276.259255 
L 416.113572 274.322764 
L 418.050064 272.386272 
L 416.113572 270.44978 
L 414.17708 272.386272 
L 412.240589 270.44978 
L 410.304097 272.386272 
L 412.240589 274.322764 
L 410.304097 276.259255 
z
" clip-path="url(#pc79a871fea)" style="fill: #dd8452; stroke: #ffffff; stroke-width: 0.619677"/>
    <path d="M 411.438468 202.601228 
L 411.438468 208.078454 
L 416.915693 208.078454 
L 416.915693 202.601228 
z
" clip-path="url(#pc79a871fea)" style="fill: #55a868; stroke: #ffffff; stroke-width: 0.619677"/>
    <path d="M 396.39123 243.260175 
L 398.973219 243.260175 
L 398.973219 240.678186 
L 401.555208 240.678186 
L 401.555208 238.096197 
L 398.973219 238.096197 
L 398.973219 235.514208 
L 396.39123 235.514208 
L 396.39123 238.096197 
L 393.809241 238.096197 
L 393.809241 240.678186 
L 396.39123 240.678186 
z
" clip-path="url(#pc79a871fea)" style="fill: #c44e52; stroke: #ffffff; stroke-width: 0.619677"/>
    <path d="M 330.569848 238.243183 
L 333.151837 238.243183 
L 333.151837 235.661194 
L 335.733825 235.661194 
L 335.733825 233.079205 
L 333.151837 233.079205 
L 333.151837 230.497217 
L 330.569848 230.497217 
L 330.569848 233.079205 
L 327.987859 233.079205 
L 327.987859 235.661194 
L 330.569848 235.661194 
z
" clip-path="url(#pc79a871fea)" style="fill: #c44e52; stroke: #ffffff; stroke-width: 0.619677"/>
    <path d="M 202.24845 219.632019 
L 204.830439 219.632019 
L 204.830439 217.05003 
L 207.412428 217.05003 
L 207.412428 214.468041 
L 204.830439 214.468041 
L 204.830439 211.886052 
L 202.24845 211.886052 
L 202.24845 214.468041 
L 199.666461 214.468041 
L 199.666461 217.05003 
L 202.24845 217.05003 
z
" clip-path="url(#pc79a871fea)" style="fill: #c44e52; stroke: #ffffff; stroke-width: 0.619677"/>
    <path d="M 105.17706 119.180519 
L 107.759049 119.180519 
L 107.759049 116.59853 
L 110.341038 116.59853 
L 110.341038 114.016541 
L 107.759049 114.016541 
L 107.759049 111.434552 
L 105.17706 111.434552 
L 105.17706 114.016541 
L 102.595072 114.016541 
L 102.595072 116.59853 
L 105.17706 116.59853 
z
" clip-path="url(#pc79a871fea)" style="fill: #c44e52; stroke: #ffffff; stroke-width: 0.619677"/>
    <path d="M 259.031573 228.356087 
L 261.613562 228.356087 
L 261.613562 225.774098 
L 264.195551 225.774098 
L 264.195551 223.192109 
L 261.613562 223.192109 
L 261.613562 220.61012 
L 259.031573 220.61012 
L 259.031573 223.192109 
L 256.449584 223.192109 
L 256.449584 225.774098 
L 259.031573 225.774098 
z
" clip-path="url(#pc79a871fea)" style="fill: #c44e52; stroke: #ffffff; stroke-width: 0.619677"/>
    <path d="M 299.31984 240.63096 
L 301.901829 240.63096 
L 301.901829 238.048971 
L 304.483818 238.048971 
L 304.483818 235.466982 
L 301.901829 235.466982 
L 301.901829 232.884993 
L 299.31984 232.884993 
L 299.31984 235.466982 
L 296.737851 235.466982 
L 296.737851 238.048971 
L 299.31984 238.048971 
z
" clip-path="url(#pc79a871fea)" style="fill: #c44e52; stroke: #ffffff; stroke-width: 0.619677"/>
    <path d="M 356.102963 244.630987 
L 358.684952 244.630987 
L 358.684952 242.048998 
L 361.266941 242.048998 
L 361.266941 239.467009 
L 358.684952 239.467009 
L 358.684952 236.88502 
L 356.102963 236.88502 
L 356.102963 239.467009 
L 353.520974 239.467009 
L 353.520974 242.048998 
L 356.102963 242.048998 
z
" clip-path="url(#pc79a871fea)" style="fill: #c44e52; stroke: #ffffff; stroke-width: 0.619677"/>
    <path d="M 377.690904 241.768919 
L 380.272893 241.768919 
L 380.272893 239.18693 
L 382.854882 239.18693 
L 382.854882 236.604941 
L 380.272893 236.604941 
L 380.272893 234.022952 
L 377.690904 234.022952 
L 377.690904 236.604941 
L 375.108915 236.604941 
L 375.108915 239.18693 
L 377.690904 239.18693 
z
" clip-path="url(#pc79a871fea)" style="fill: #c44e52; stroke: #ffffff; stroke-width: 0.619677"/>
    <path d="M 412.886086 251.566711 
L 415.468075 251.566711 
L 415.468075 248.984722 
L 418.050064 248.984722 
L 418.050064 246.402733 
L 415.468075 246.402733 
L 415.468075 243.820744 
L 412.886086 243.820744 
L 412.886086 246.402733 
L 410.304097 246.402733 
L 410.304097 248.984722 
L 412.886086 248.984722 
z
" clip-path="url(#pc79a871fea)" style="fill: #c44e52; stroke: #ffffff; stroke-width: 0.619677"/>
    <path d="M 453.174353 252.27491 
L 455.756342 252.27491 
L 455.756342 249.692921 
L 458.338331 249.692921 
L 458.338331 247.110932 
L 455.756342 247.110932 
L 455.756342 244.528944 
L 453.174353 244.528944 
L 453.174353 247.110932 
L 450.592364 247.110932 
L 450.592364 249.692921 
L 453.174353 249.692921 
z
" clip-path="url(#pc79a871fea)" style="fill: #c44e52; stroke: #ffffff; stroke-width: 0.619677"/>
    <path d="M 427.641237 250.287436 
L 430.223226 250.287436 
L 430.223226 247.705447 
L 432.805215 247.705447 
L 432.805215 245.123458 
L 430.223226 245.123458 
L 430.223226 242.54147 
L 427.641237 242.54147 
L 427.641237 245.123458 
L 425.059249 245.123458 
L 425.059249 247.705447 
L 427.641237 247.705447 
z
" clip-path="url(#pc79a871fea)" style="fill: #c44e52; stroke: #ffffff; stroke-width: 0.619677"/>
    <path d="M 474.762294 255.053543 
L 477.344283 255.053543 
L 477.344283 252.471554 
L 479.926272 252.471554 
L 479.926272 249.889565 
L 477.344283 249.889565 
L 477.344283 247.307576 
L 474.762294 247.307576 
L 474.762294 249.889565 
L 472.180305 249.889565 
L 472.180305 252.471554 
L 474.762294 252.471554 
z
" clip-path="url(#pc79a871fea)" style="fill: #c44e52; stroke: #ffffff; stroke-width: 0.619677"/>
    <path d="M 493.46262 253.297608 
L 496.044609 253.297608 
L 496.044609 250.715619 
L 498.626597 250.715619 
L 498.626597 248.13363 
L 496.044609 248.13363 
L 496.044609 245.551641 
L 493.46262 245.551641 
L 493.46262 248.13363 
L 490.880631 248.13363 
L 490.880631 250.715619 
L 493.46262 250.715619 
z
" clip-path="url(#pc79a871fea)" style="fill: #c44e52; stroke: #ffffff; stroke-width: 0.619677"/>
    <path d="M 509.957476 255.550123 
L 512.539465 255.550123 
L 512.539465 252.968134 
L 515.121453 252.968134 
L 515.121453 250.386145 
L 512.539465 250.386145 
L 512.539465 247.804156 
L 509.957476 247.804156 
L 509.957476 250.386145 
L 507.375487 250.386145 
L 507.375487 252.968134 
L 509.957476 252.968134 
z
" clip-path="url(#pc79a871fea)" style="fill: #c44e52; stroke: #ffffff; stroke-width: 0.619677"/>
    <path d="M 524.712627 255.607411 
L 527.294616 255.607411 
L 527.294616 253.025422 
L 529.876605 253.025422 
L 529.876605 250.443433 
L 527.294616 250.443433 
L 527.294616 247.861444 
L 524.712627 247.861444 
L 524.712627 250.443433 
L 522.130638 250.443433 
L 522.130638 253.025422 
L 524.712627 253.025422 
z
" clip-path="url(#pc79a871fea)" style="fill: #c44e52; stroke: #ffffff; stroke-width: 0.619677"/>
   </g>
   <g id="FillBetweenPolyCollection_1"/>
   <g id="FillBetweenPolyCollection_2"/>
   <g id="FillBetweenPolyCollection_3"/>
   <g id="FillBetweenPolyCollection_4"/>
   <g id="line2d_8"/>
   <g id="line2d_9"/>
   <g id="line2d_10"/>
   <g id="line2d_11"/>
   <g id="line2d_12">
    <path d="M 106.468055 119.491892 
L 203.539445 197.265317 
L 260.322568 220.170122 
L 300.610834 233.084085 
L 331.860842 252.794111 
L 357.393957 257.216333 
L 378.981899 262.466209 
L 397.682224 262.222428 
L 414.17708 262.506952 
L 428.932232 265.511523 
L 454.465347 267.826329 
L 476.053289 271.485684 
L 494.753614 269.707592 
L 511.24847 274.600014 
L 526.003622 276.131516 
" clip-path="url(#pc79a871fea)" style="fill: none; stroke: #4c72b0; stroke-width: 2; stroke-linecap: round"/>
   </g>
   <g id="line2d_13">
    <path d="M 106.468055 127.658869 
L 203.539445 220.756871 
L 260.322568 241.75526 
L 300.610834 246.310014 
L 331.860842 267.392743 
L 357.393957 272.565681 
L 378.981899 274.70704 
L 397.682224 274.479112 
L 414.17708 274.322764 
L 428.932232 274.408446 
L 454.465347 275.763776 
L 476.053289 276.305211 
L 494.753614 275.132298 
L 511.24847 279.309273 
L 526.003622 279.235765 
" clip-path="url(#pc79a871fea)" style="fill: none; stroke: #dd8452; stroke-width: 2; stroke-linecap: round"/>
   </g>
   <g id="line2d_14">
    <path d="M 106.468055 30.086727 
L 203.539445 137.055257 
L 260.322568 190.933729 
L 300.610834 211.041842 
L 331.860842 223.403459 
L 357.393957 200.766433 
L 378.981899 207.104153 
L 397.682224 206.15165 
L 414.17708 205.339841 
L 428.932232 203.955477 
L 454.465347 209.540056 
L 476.053289 212.87791 
L 494.753614 214.852659 
L 511.24847 217.11361 
L 526.003622 217.581786 
" clip-path="url(#pc79a871fea)" style="fill: none; stroke: #55a868; stroke-width: 2; stroke-linecap: round"/>
   </g>
   <g id="line2d_15">
    <path d="M 106.468055 115.307535 
L 203.539445 215.759035 
L 260.322568 224.483103 
L 300.610834 236.757976 
L 331.860842 234.3702 
L 357.393957 240.758003 
L 378.981899 237.895936 
L 397.682224 239.387192 
L 414.17708 247.693727 
L 428.932232 246.414453 
L 454.465347 248.401927 
L 476.053289 251.18056 
L 494.753614 249.424625 
L 511.24847 251.677139 
L 526.003622 251.734428 
" clip-path="url(#pc79a871fea)" style="fill: none; stroke: #c44e52; stroke-width: 2; stroke-linecap: round"/>
   </g>
   <g id="patch_3">
    <path d="M 85.491277 291.7704 
L 85.491277 17.6256 
" style="fill: none; stroke: #cccccc; stroke-linejoin: miter; stroke-linecap: square"/>
   </g>
   <g id="patch_4">
    <path d="M 85.491277 291.7704 
L 546.9804 291.7704 
" style="fill: none; stroke: #cccccc; stroke-linejoin: miter; stroke-linecap: square"/>
   </g>
   <g id="legend_1">
    <g id="patch_5">
     <path d="M 337.556763 140.7022 
L 536.5084 140.7022 
Q 539.5004 140.7022 539.5004 137.7102 
L 539.5004 28.0976 
Q 539.5004 25.1056 536.5084 25.1056 
L 337.556763 25.1056 
Q 334.564763 25.1056 334.564763 28.0976 
L 334.564763 137.7102 
Q 334.564763 140.7022 337.556763 140.7022 
z
" style="fill: #ffffff; opacity: 0.8; stroke: #cccccc; stroke-width: 0.8; stroke-linejoin: miter"/>
    </g>
    <g id="text_10">
     <!-- Strategy (T=64) -->
     <g style="fill: #262626" transform="translate(370.902156 43.49025) scale(0.1632 -0.1632)">
      <defs>
       <path id="DejaVuSans-53" d="M 3425 4513 
L 3425 3897 
Q 3066 4069 2747 4153 
Q 2428 4238 2131 4238 
Q 1616 4238 1336 4038 
Q 1056 3838 1056 3469 
Q 1056 3159 1242 3001 
Q 1428 2844 1947 2747 
L 2328 2669 
Q 3034 2534 3370 2195 
Q 3706 1856 3706 1288 
Q 3706 609 3251 259 
Q 2797 -91 1919 -91 
Q 1588 -91 1214 -16 
Q 841 59 441 206 
L 441 856 
Q 825 641 1194 531 
Q 1563 422 1919 422 
Q 2459 422 2753 634 
Q 3047 847 3047 1241 
Q 3047 1584 2836 1778 
Q 2625 1972 2144 2069 
L 1759 2144 
Q 1053 2284 737 2584 
Q 422 2884 422 3419 
Q 422 4038 858 4394 
Q 1294 4750 2059 4750 
Q 2388 4750 2728 4690 
Q 3069 4631 3425 4513 
z
" transform="scale(0.015625)"/>
       <path id="DejaVuSans-74" d="M 1172 4494 
L 1172 3500 
L 2356 3500 
L 2356 3053 
L 1172 3053 
L 1172 1153 
Q 1172 725 1289 603 
Q 1406 481 1766 481 
L 2356 481 
L 2356 0 
L 1766 0 
Q 1100 0 847 248 
Q 594 497 594 1153 
L 594 3053 
L 172 3053 
L 172 3500 
L 594 3500 
L 594 4494 
L 1172 4494 
z
" transform="scale(0.015625)"/>
       <path id="DejaVuSans-61" d="M 2194 1759 
Q 1497 1759 1228 1600 
Q 959 1441 959 1056 
Q 959 750 1161 570 
Q 1363 391 1709 391 
Q 2188 391 2477 730 
Q 2766 1069 2766 1631 
L 2766 1759 
L 2194 1759 
z
M 3341 1997 
L 3341 0 
L 2766 0 
L 2766 531 
Q 2569 213 2275 61 
Q 1981 -91 1556 -91 
Q 1019 -91 701 211 
Q 384 513 384 1019 
Q 384 1609 779 1909 
Q 1175 2209 1959 2209 
L 2766 2209 
L 2766 2266 
Q 2766 2663 2505 2880 
Q 2244 3097 1772 3097 
Q 1472 3097 1187 3025 
Q 903 2953 641 2809 
L 641 3341 
Q 956 3463 1253 3523 
Q 1550 3584 1831 3584 
Q 2591 3584 2966 3190 
Q 3341 2797 3341 1997 
z
" transform="scale(0.015625)"/>
       <path id="DejaVuSans-67" d="M 2906 1791 
Q 2906 2416 2648 2759 
Q 2391 3103 1925 3103 
Q 1463 3103 1205 2759 
Q 947 2416 947 1791 
Q 947 1169 1205 825 
Q 1463 481 1925 481 
Q 2391 481 2648 825 
Q 2906 1169 2906 1791 
z
M 3481 434 
Q 3481 -459 3084 -895 
Q 2688 -1331 1869 -1331 
Q 1566 -1331 1297 -1286 
Q 1028 -1241 775 -1147 
L 775 -588 
Q 1028 -725 1275 -790 
Q 1522 -856 1778 -856 
Q 2344 -856 2625 -561 
Q 2906 -266 2906 331 
L 2906 616 
Q 2728 306 2450 153 
Q 2172 0 1784 0 
Q 1141 0 747 490 
Q 353 981 353 1791 
Q 353 2603 747 3093 
Q 1141 3584 1784 3584 
Q 2172 3584 2450 3431 
Q 2728 3278 2906 2969 
L 2906 3500 
L 3481 3500 
L 3481 434 
z
" transform="scale(0.015625)"/>
       <path id="DejaVuSans-3d" d="M 678 2906 
L 4684 2906 
L 4684 2381 
L 678 2381 
L 678 2906 
z
M 678 1631 
L 4684 1631 
L 4684 1100 
L 678 1100 
L 678 1631 
z
" transform="scale(0.015625)"/>
      </defs>
      <use xlink:href="#DejaVuSans-53"/>
      <use xlink:href="#DejaVuSans-74" transform="translate(63.476562 0)"/>
      <use xlink:href="#DejaVuSans-72" transform="translate(102.685547 0)"/>
      <use xlink:href="#DejaVuSans-61" transform="translate(143.798828 0)"/>
      <use xlink:href="#DejaVuSans-74" transform="translate(205.078125 0)"/>
      <use xlink:href="#DejaVuSans-65" transform="translate(244.287109 0)"/>
      <use xlink:href="#DejaVuSans-67" transform="translate(305.810547 0)"/>
      <use xlink:href="#DejaVuSans-79" transform="translate(369.287109 0)"/>
      <use xlink:href="#DejaVuSans-20" transform="translate(428.466797 0)"/>
      <use xlink:href="#DejaVuSans-28" transform="translate(460.253906 0)"/>
      <use xlink:href="#DejaVuSans-54" transform="translate(499.267578 0)"/>
      <use xlink:href="#DejaVuSans-3d" transform="translate(560.351562 0)"/>
      <use xlink:href="#DejaVuSans-36" transform="translate(644.140625 0)"/>
      <use xlink:href="#DejaVuSans-34" transform="translate(707.763672 0)"/>
      <use xlink:href="#DejaVuSans-29" transform="translate(771.386719 0)"/>
     </g>
    </g>
    <g id="line2d_16">
     <defs>
      <path id="m5745140a99" d="M 0 3.872983 
C 1.027127 3.872983 2.012324 3.464901 2.738613 2.738613 
C 3.464901 2.012324 3.872983 1.027127 3.872983 0 
C 3.872983 -1.027127 3.464901 -2.012324 2.738613 -2.738613 
C 2.012324 -3.464901 1.027127 -3.872983 0 -3.872983 
C -1.027127 -3.872983 -2.012324 -3.464901 -2.738613 -2.738613 
C -3.464901 -2.012324 -3.872983 -1.027127 -3.872983 0 
C -3.872983 1.027127 -3.464901 2.012324 -2.738613 2.738613 
C -2.012324 3.464901 -1.027127 3.872983 0 3.872983 
z
"/>
     </defs>
     <g>
      <use xlink:href="#m5745140a99" x="355.508763" y="60.495563" style="fill: #4c72b0"/>
     </g>
    </g>
    <g id="text_11">
     <!-- Face-Based -->
     <g style="fill: #262626" transform="translate(382.436763 65.731563) scale(0.1496 -0.1496)">
      <defs>
       <path id="DejaVuSans-46" d="M 628 4666 
L 3309 4666 
L 3309 4134 
L 1259 4134 
L 1259 2759 
L 3109 2759 
L 3109 2228 
L 1259 2228 
L 1259 0 
L 628 0 
L 628 4666 
z
" transform="scale(0.015625)"/>
       <path id="DejaVuSans-63" d="M 3122 3366 
L 3122 2828 
Q 2878 2963 2633 3030 
Q 2388 3097 2138 3097 
Q 1578 3097 1268 2742 
Q 959 2388 959 1747 
Q 959 1106 1268 751 
Q 1578 397 2138 397 
Q 2388 397 2633 464 
Q 2878 531 3122 666 
L 3122 134 
Q 2881 22 2623 -34 
Q 2366 -91 2075 -91 
Q 1284 -91 818 406 
Q 353 903 353 1747 
Q 353 2603 823 3093 
Q 1294 3584 2113 3584 
Q 2378 3584 2631 3529 
Q 2884 3475 3122 3366 
z
" transform="scale(0.015625)"/>
       <path id="DejaVuSans-2d" d="M 313 2009 
L 1997 2009 
L 1997 1497 
L 313 1497 
L 313 2009 
z
" transform="scale(0.015625)"/>
       <path id="DejaVuSans-42" d="M 1259 2228 
L 1259 519 
L 2272 519 
Q 2781 519 3026 730 
Q 3272 941 3272 1375 
Q 3272 1813 3026 2020 
Q 2781 2228 2272 2228 
L 1259 2228 
z
M 1259 4147 
L 1259 2741 
L 2194 2741 
Q 2656 2741 2882 2914 
Q 3109 3088 3109 3444 
Q 3109 3797 2882 3972 
Q 2656 4147 2194 4147 
L 1259 4147 
z
M 628 4666 
L 2241 4666 
Q 2963 4666 3353 4366 
Q 3744 4066 3744 3513 
Q 3744 3084 3544 2831 
Q 3344 2578 2956 2516 
Q 3422 2416 3680 2098 
Q 3938 1781 3938 1306 
Q 3938 681 3513 340 
Q 3088 0 2303 0 
L 628 0 
L 628 4666 
z
" transform="scale(0.015625)"/>
       <path id="DejaVuSans-64" d="M 2906 2969 
L 2906 4863 
L 3481 4863 
L 3481 0 
L 2906 0 
L 2906 525 
Q 2725 213 2448 61 
Q 2172 -91 1784 -91 
Q 1150 -91 751 415 
Q 353 922 353 1747 
Q 353 2572 751 3078 
Q 1150 3584 1784 3584 
Q 2172 3584 2448 3432 
Q 2725 3281 2906 2969 
z
M 947 1747 
Q 947 1113 1208 752 
Q 1469 391 1925 391 
Q 2381 391 2643 752 
Q 2906 1113 2906 1747 
Q 2906 2381 2643 2742 
Q 2381 3103 1925 3103 
Q 1469 3103 1208 2742 
Q 947 2381 947 1747 
z
" transform="scale(0.015625)"/>
      </defs>
      <use xlink:href="#DejaVuSans-46"/>
      <use xlink:href="#DejaVuSans-61" transform="translate(48.394531 0)"/>
      <use xlink:href="#DejaVuSans-63" transform="translate(109.673828 0)"/>
      <use xlink:href="#DejaVuSans-65" transform="translate(164.654297 0)"/>
      <use xlink:href="#DejaVuSans-2d" transform="translate(226.177734 0)"/>
      <use xlink:href="#DejaVuSans-42" transform="translate(258.636719 0)"/>
      <use xlink:href="#DejaVuSans-61" transform="translate(327.240234 0)"/>
      <use xlink:href="#DejaVuSans-73" transform="translate(388.519531 0)"/>
      <use xlink:href="#DejaVuSans-65" transform="translate(440.619141 0)"/>
      <use xlink:href="#DejaVuSans-64" transform="translate(502.142578 0)"/>
     </g>
    </g>
    <g id="line2d_17">
     <defs>
      <path id="mbea2f8561c" d="M -1.936492 3.872983 
L 0 1.936492 
L 1.936492 3.872983 
L 3.872983 1.936492 
L 1.936492 0 
L 3.872983 -1.936492 
L 1.936492 -3.872983 
L 0 -1.936492 
L -1.936492 -3.872983 
L -3.872983 -1.936492 
L -1.936492 0 
L -3.872983 1.936492 
z
"/>
     </defs>
     <g>
      <use xlink:href="#mbea2f8561c" x="355.508763" y="82.454038" style="fill: #dd8452"/>
     </g>
    </g>
    <g id="text_12">
     <!-- Face-Based Global -->
     <g style="fill: #262626" transform="translate(382.436763 87.690038) scale(0.1496 -0.1496)">
      <defs>
       <path id="DejaVuSans-47" d="M 3809 666 
L 3809 1919 
L 2778 1919 
L 2778 2438 
L 4434 2438 
L 4434 434 
Q 4069 175 3628 42 
Q 3188 -91 2688 -91 
Q 1594 -91 976 548 
Q 359 1188 359 2328 
Q 359 3472 976 4111 
Q 1594 4750 2688 4750 
Q 3144 4750 3555 4637 
Q 3966 4525 4313 4306 
L 4313 3634 
Q 3963 3931 3569 4081 
Q 3175 4231 2741 4231 
Q 1884 4231 1454 3753 
Q 1025 3275 1025 2328 
Q 1025 1384 1454 906 
Q 1884 428 2741 428 
Q 3075 428 3337 486 
Q 3600 544 3809 666 
z
" transform="scale(0.015625)"/>
       <path id="DejaVuSans-6f" d="M 1959 3097 
Q 1497 3097 1228 2736 
Q 959 2375 959 1747 
Q 959 1119 1226 758 
Q 1494 397 1959 397 
Q 2419 397 2687 759 
Q 2956 1122 2956 1747 
Q 2956 2369 2687 2733 
Q 2419 3097 1959 3097 
z
M 1959 3584 
Q 2709 3584 3137 3096 
Q 3566 2609 3566 1747 
Q 3566 888 3137 398 
Q 2709 -91 1959 -91 
Q 1206 -91 779 398 
Q 353 888 353 1747 
Q 353 2609 779 3096 
Q 1206 3584 1959 3584 
z
" transform="scale(0.015625)"/>
      </defs>
      <use xlink:href="#DejaVuSans-46"/>
      <use xlink:href="#DejaVuSans-61" transform="translate(48.394531 0)"/>
      <use xlink:href="#DejaVuSans-63" transform="translate(109.673828 0)"/>
      <use xlink:href="#DejaVuSans-65" transform="translate(164.654297 0)"/>
      <use xlink:href="#DejaVuSans-2d" transform="translate(226.177734 0)"/>
      <use xlink:href="#DejaVuSans-42" transform="translate(258.636719 0)"/>
      <use xlink:href="#DejaVuSans-61" transform="translate(327.240234 0)"/>
      <use xlink:href="#DejaVuSans-73" transform="translate(388.519531 0)"/>
      <use xlink:href="#DejaVuSans-65" transform="translate(440.619141 0)"/>
      <use xlink:href="#DejaVuSans-64" transform="translate(502.142578 0)"/>
      <use xlink:href="#DejaVuSans-20" transform="translate(565.619141 0)"/>
      <use xlink:href="#DejaVuSans-47" transform="translate(597.40625 0)"/>
      <use xlink:href="#DejaVuSans-6c" transform="translate(674.896484 0)"/>
      <use xlink:href="#DejaVuSans-6f" transform="translate(702.679688 0)"/>
      <use xlink:href="#DejaVuSans-62" transform="translate(763.861328 0)"/>
      <use xlink:href="#DejaVuSans-61" transform="translate(827.337891 0)"/>
      <use xlink:href="#DejaVuSans-6c" transform="translate(888.617188 0)"/>
     </g>
    </g>
    <g id="line2d_18">
     <defs>
      <path id="ma5dede25e9" d="M -2.738613 -2.738613 
L -2.738613 2.738613 
L 2.738613 2.738613 
L 2.738613 -2.738613 
z
"/>
     </defs>
     <g>
      <use xlink:href="#ma5dede25e9" x="355.508763" y="104.412513" style="fill: #55a868"/>
     </g>
    </g>
    <g id="text_13">
     <!-- Face-Based Batched -->
     <g style="fill: #262626" transform="translate(382.436763 109.648513) scale(0.1496 -0.1496)">
      <defs>
       <path id="DejaVuSans-68" d="M 3513 2113 
L 3513 0 
L 2938 0 
L 2938 2094 
Q 2938 2591 2744 2837 
Q 2550 3084 2163 3084 
Q 1697 3084 1428 2787 
Q 1159 2491 1159 1978 
L 1159 0 
L 581 0 
L 581 4863 
L 1159 4863 
L 1159 2956 
Q 1366 3272 1645 3428 
Q 1925 3584 2291 3584 
Q 2894 3584 3203 3211 
Q 3513 2838 3513 2113 
z
" transform="scale(0.015625)"/>
      </defs>
      <use xlink:href="#DejaVuSans-46"/>
      <use xlink:href="#DejaVuSans-61" transform="translate(48.394531 0)"/>
      <use xlink:href="#DejaVuSans-63" transform="translate(109.673828 0)"/>
      <use xlink:href="#DejaVuSans-65" transform="translate(164.654297 0)"/>
      <use xlink:href="#DejaVuSans-2d" transform="translate(226.177734 0)"/>
      <use xlink:href="#DejaVuSans-42" transform="translate(258.636719 0)"/>
      <use xlink:href="#DejaVuSans-61" transform="translate(327.240234 0)"/>
      <use xlink:href="#DejaVuSans-73" transform="translate(388.519531 0)"/>
      <use xlink:href="#DejaVuSans-65" transform="translate(440.619141 0)"/>
      <use xlink:href="#DejaVuSans-64" transform="translate(502.142578 0)"/>
      <use xlink:href="#DejaVuSans-20" transform="translate(565.619141 0)"/>
      <use xlink:href="#DejaVuSans-42" transform="translate(597.40625 0)"/>
      <use xlink:href="#DejaVuSans-61" transform="translate(666.009766 0)"/>
      <use xlink:href="#DejaVuSans-74" transform="translate(727.289062 0)"/>
      <use xlink:href="#DejaVuSans-63" transform="translate(766.498047 0)"/>
      <use xlink:href="#DejaVuSans-68" transform="translate(821.478516 0)"/>
      <use xlink:href="#DejaVuSans-65" transform="translate(884.857422 0)"/>
      <use xlink:href="#DejaVuSans-64" transform="translate(946.380859 0)"/>
     </g>
    </g>
    <g id="line2d_19">
     <defs>
      <path id="m3d9cad848a" d="M -1.290994 3.872983 
L 1.290994 3.872983 
L 1.290994 1.290994 
L 3.872983 1.290994 
L 3.872983 -1.290994 
L 1.290994 -1.290994 
L 1.290994 -3.872983 
L -1.290994 -3.872983 
L -1.290994 -1.290994 
L -3.872983 -1.290994 
L -3.872983 1.290994 
L -1.290994 1.290994 
z
"/>
     </defs>
     <g>
      <use xlink:href="#m3d9cad848a" x="355.508763" y="126.370988" style="fill: #c44e52"/>
     </g>
    </g>
    <g id="text_14">
     <!-- Cell-Based -->
     <g style="fill: #262626" transform="translate(382.436763 131.606988) scale(0.1496 -0.1496)">
      <use xlink:href="#DejaVuSans-43"/>
      <use xlink:href="#DejaVuSans-65" transform="translate(69.824219 0)"/>
      <use xlink:href="#DejaVuSans-6c" transform="translate(131.347656 0)"/>
      <use xlink:href="#DejaVuSans-6c" transform="translate(159.130859 0)"/>
      <use xlink:href="#DejaVuSans-2d" transform="translate(186.914062 0)"/>
      <use xlink:href="#DejaVuSans-42" transform="translate(219.373047 0)"/>
      <use xlink:href="#DejaVuSans-61" transform="translate(287.976562 0)"/>
      <use xlink:href="#DejaVuSans-73" transform="translate(349.255859 0)"/>
      <use xlink:href="#DejaVuSans-65" transform="translate(401.355469 0)"/>
      <use xlink:href="#DejaVuSans-64" transform="translate(462.878906 0)"/>
     </g>
    </g>
   </g>
  </g>
 </g>
 <defs>
  <clipPath id="pc79a871fea">
   <rect x="85.491277" y="17.6256" width="461.489123" height="274.1448"/>
  </clipPath>
 </defs>
</svg>
